<svg width="24" height="24" viewBox="0 0 24 24" fill="none" xmlns="http://www.w3.org/2000/svg">
<path fill-rule="evenodd" clip-rule="evenodd" d="M12 14.0112C12.5515 14.0112 12.9985 14.4582 12.9985 15.0097L12.9985 20.4873C12.9985 21.0388 12.5515 21.4859 12 21.4859C11.4485 21.4859 11.0015 21.0388 11.0015 20.4873L11.0015 15.0097C11.0015 14.4582 11.4485 14.0112 12 14.0112ZM3.51262 12.9985C2.96115 12.9985 2.5141 12.5514 2.5141 12C2.5141 11.4485 2.96115 11.0014 3.51262 11.0014L11.0015 11.0014L11.0015 3.51258C11.0015 2.96111 11.4485 2.51406 12 2.51406C12.5515 2.51406 12.9985 2.96111 12.9985 3.51258L12.9985 11.0014L20.4874 11.0014C21.0388 11.0014 21.4859 11.4485 21.4859 12C21.4859 12.5514 21.0388 12.9985 20.4874 12.9985H3.51262Z" fill="#1E386B"/>
</svg>
