<svg width="25" height="24" viewBox="0 0 25 24" fill="none" xmlns="http://www.w3.org/2000/svg">
<g id="24 / time / alarm">
<path id="icon" fill-rule="evenodd" clip-rule="evenodd" d="M6.5321 2.70712L5.11789 1.29291L1.61789 4.79291L3.0321 6.20712L6.5321 2.70712ZM19.5321 1.29291L23.0321 4.79291L21.6179 6.20712L18.1179 2.70712L19.5321 1.29291ZM12.325 22C6.80215 22 2.325 17.5229 2.325 12C2.325 6.47717 6.80215 2.00001 12.325 2.00001C17.8478 2.00001 22.325 6.47717 22.325 12C22.325 17.5229 17.8478 22 12.325 22ZM12.325 20C16.7433 20 20.325 16.4183 20.325 12C20.325 7.58174 16.7433 4.00001 12.325 4.00001C7.90672 4.00001 4.325 7.58174 4.325 12C4.325 16.4183 7.90672 20 12.325 20ZM17.325 11H13.325V6.00001H11.325V13H17.325V11Z" fill="#D23C41"/>
</g>
</svg>
