<svg width="22" height="22" viewBox="0 0 22 22" fill="none" xmlns="http://www.w3.org/2000/svg">
<g id="24 / chatting / comment-plus">
<path id="icon" fill-rule="evenodd" clip-rule="evenodd" d="M11.0795 16.5L5.49998 19.9873V16.5H3.66665C2.65412 16.5 1.83331 15.6792 1.83331 14.6667V3.66671C1.83331 2.65419 2.65412 1.83337 3.66665 1.83337H18.3333C19.3458 1.83337 20.1666 2.65419 20.1666 3.66671V14.6667C20.1666 15.6792 19.3458 16.5 18.3333 16.5H11.0795ZM7.33331 16.6795L10.5538 14.6667H18.3333V3.66671H3.66665V14.6667H7.33331V16.6795ZM10.0833 5.50004V8.25004H7.33331V10.0834H10.0833V12.8334H11.9166V10.0834H14.6666V8.25004H11.9166V5.50004H10.0833Z" fill="black"/>
</g>
</svg>
