<svg width="22" height="24" viewBox="0 0 22 24" fill="none" xmlns="http://www.w3.org/2000/svg">
<path fill-rule="evenodd" clip-rule="evenodd" d="M8.3349 0.0307171C8.05872 0.154562 8.07435 -0.0514863 8.07435 3.46969V6.66097L8.21618 6.79796L8.35801 6.93495H11.2472C14.3831 6.93495 14.3172 6.94026 14.4277 6.67806C14.4635 6.59332 14.4796 6.19704 14.4796 5.40698V4.259H17.4328H20.386L20.3749 7.74478L20.3638 11.2306L19.9152 11.244C19.3943 11.2596 19.4195 11.3297 19.6921 10.6229C19.801 10.3408 19.8423 10.1795 19.8149 10.1434C19.7751 10.0911 18.7599 10.6027 16.8823 11.6213C16.2462 11.9663 16.2021 11.9987 16.2521 12.0835C16.2818 12.1339 19.7174 13.9769 19.7817 13.9769C19.8728 13.9769 19.8489 13.8519 19.669 13.3876C19.5615 13.1102 19.4735 12.8777 19.4735 12.8708C19.4735 12.8639 19.8903 12.8512 20.3996 12.8425C21.3185 12.8269 21.327 12.8257 21.5002 12.7018C21.8621 12.4428 21.8385 12.7568 21.8536 7.99125C21.8609 5.6674 21.8546 3.63475 21.8395 3.47429C21.8053 3.11252 21.6873 2.90952 21.429 2.76845L21.2356 2.66282H17.8597H14.4838L14.4708 1.46667L14.4579 0.27052L14.3375 0.140431L14.2171 0.0103423L11.3195 0.00109388C9.72569 -0.00402329 8.38267 0.00930951 8.3349 0.0307171ZM13.0031 3.46091V5.33877H11.2661H9.5291V3.46091V1.58305H11.2661H13.0031V3.46091ZM8.3349 8.5755C8.08178 8.68751 8.07544 8.72145 8.06145 10.0375L8.04851 11.2524L4.42774 11.265C0.390945 11.279 0.718416 11.252 0.485525 11.5892C0.333232 11.8097 0.324982 12.0531 0.324982 16.3242C0.324982 20.5954 0.333232 20.8388 0.485525 21.0593C0.695748 21.3637 0.719242 21.3697 1.76119 21.3853C2.69067 21.3992 2.71495 21.402 2.68828 21.4928C2.67322 21.5441 2.58571 21.7802 2.49378 22.0176C2.37979 22.3119 2.34014 22.4668 2.36919 22.5046C2.40055 22.5455 2.86463 22.3199 4.1357 21.646C5.90455 20.7082 5.98719 20.6585 5.93399 20.5655C5.90373 20.5126 2.47185 18.6716 2.40346 18.6716C2.312 18.6716 2.33576 18.7962 2.51584 19.2609C2.62336 19.5383 2.7113 19.7727 2.7113 19.7818C2.7113 19.7908 2.50611 19.7983 2.25533 19.7983H1.79936V16.3242V12.8502H4.92387H8.04838L8.06136 14.0229L8.07435 15.1956L8.19477 15.3257L8.31514 15.4557H11.2707H14.2262L14.3529 15.3024L14.4796 15.1491V11.9997V8.85037L14.332 8.69075L14.1843 8.53113L11.303 8.53409C9.71835 8.53573 8.38267 8.55437 8.3349 8.5755ZM13.0031 12.0052V13.883H11.2661H9.5291V12.0052V10.1273H11.2661H13.0031V12.0052ZM8.21618 17.2124L8.07435 17.3494V20.5445V23.7397L8.19477 23.8698L8.31514 24H11.2707H14.2262L14.3529 23.8467L14.4796 23.6933V20.5699C14.4796 17.1798 14.4845 17.251 14.242 17.1315C14.1574 17.0898 13.3874 17.0754 11.2431 17.0754H8.35801L8.21618 17.2124ZM13.0031 20.5494V22.4273H11.2661H9.5291V20.5494V18.6716H11.2661H13.0031V20.5494Z" fill="#1E386B"/>
<rect x="7.72501" y="8" width="7.4" height="8" fill="#D23C41"/>
</svg>
