<svg width="24" height="24" viewBox="0 0 24 24" fill="none" xmlns="http://www.w3.org/2000/svg">
<path fill-rule="evenodd" clip-rule="evenodd" d="M18.3632 10C18.3632 5.94082 16.245 3.1235 13.5043 2.27771C13.4051 2.00636 13.2482 1.7541 13.0351 1.54243C12.3066 0.81919 11.1716 0.81919 10.4432 1.54243C10.2305 1.75364 10.0739 2.00525 9.97459 2.27592C7.23038 3.11803 5.11509 5.92919 5.11509 10C5.11509 12.6339 4.61259 14.1098 3.68236 15.1793C3.52684 15.3582 3.10547 15.7678 2.82003 16.0453L2.82 16.0453L2.82 16.0453C2.68496 16.1766 2.58035 16.2783 2.54871 16.3119L2.27621 16.604V20.0141H8.03722C8.23202 21.0761 8.77733 21.7867 9.76346 22.4226C10.9766 23.2049 12.5017 23.2049 13.7148 22.4226C14.5851 21.8614 15.1686 20.9989 15.4054 20.0141H21.202V16.604L20.9295 16.3119C20.9009 16.2812 20.8005 16.1834 20.6693 16.0555C20.3848 15.7781 19.9551 15.3592 19.7972 15.1769C18.8663 14.1024 18.3632 12.6246 18.3632 10ZM13.3826 20.0141H10.0156C10.1493 20.2769 10.3771 20.4754 10.7493 20.7154C11.3571 21.1073 12.1212 21.1073 12.7289 20.7154C13.0104 20.5339 13.2303 20.2937 13.3826 20.0141ZM18.4012 16.5274C18.6003 16.7573 19.0271 17.1774 19.3095 17.4519V18.0141H4.1688V17.4524C4.44897 17.1811 4.87703 16.7613 5.0758 16.5327C6.3398 15.0794 7.00767 13.1178 7.00767 10C7.00767 6.21989 9.21515 4.01238 11.7391 4.01238C14.256 4.01238 16.4706 6.23129 16.4706 10C16.4706 13.1078 17.1387 15.07 18.4012 16.5274Z" fill="#1649AD"/>
<circle cx="17.3836" cy="8" r="4" fill="#D23C41"/>
</svg>
