<svg width="153" height="601" viewBox="0 0 153 601" fill="none" xmlns="http://www.w3.org/2000/svg">
<path fill-rule="evenodd" clip-rule="evenodd" d="M3.8695 6.58719C5.6797 6.58719 7.16077 5.11006 7.16077 3.2936C7.16077 1.47214 5.6797 0 3.8695 0C2.05431 0 0.573242 1.47214 0.573242 3.2936C0.573242 5.11006 2.05431 6.58719 3.8695 6.58719Z" fill="#F7F5F9"/>
<path fill-rule="evenodd" clip-rule="evenodd" d="M36.8292 6.58719C38.6494 6.58719 40.1255 5.11006 40.1255 3.2936C40.1255 1.47214 38.6494 0 36.8292 0C35.019 0 33.543 1.47214 33.543 3.2936C33.543 5.11006 35.019 6.58719 36.8292 6.58719Z" fill="#F7F5F9"/>
<path fill-rule="evenodd" clip-rule="evenodd" d="M69.7981 6.58719C71.6133 6.58719 73.0894 5.11006 73.0894 3.2936C73.0894 1.47214 71.6133 0 69.7981 0C67.9829 0 66.5068 1.47214 66.5068 3.2936C66.5068 5.11006 67.9829 6.58719 69.7981 6.58719Z" fill="#F7F5F9"/>
<path fill-rule="evenodd" clip-rule="evenodd" d="M102.762 6.58719C104.577 6.58719 106.053 5.11006 106.053 3.2936C106.053 1.47214 104.577 0 102.762 0C100.952 0 99.4707 1.47214 99.4707 3.2936C99.4707 5.11006 100.952 6.58719 102.762 6.58719Z" fill="#F7F5F9"/>
<path fill-rule="evenodd" clip-rule="evenodd" d="M135.731 6.58719C137.541 6.58719 139.017 5.11006 139.017 3.2936C139.017 1.47214 137.541 0 135.731 0C133.916 0 132.435 1.47214 132.435 3.2936C132.435 5.11006 133.916 6.58719 135.731 6.58719Z" fill="#F7F5F9"/>
<path fill-rule="evenodd" clip-rule="evenodd" d="M3.8695 39.5701C5.6797 39.5701 7.16077 38.098 7.16077 36.2765C7.16077 34.46 5.6797 32.9829 3.8695 32.9829C2.05431 32.9829 0.573242 34.46 0.573242 36.2765C0.573242 38.098 2.05431 39.5701 3.8695 39.5701Z" fill="#F7F5F9"/>
<path fill-rule="evenodd" clip-rule="evenodd" d="M36.8292 39.5701C38.6494 39.5701 40.1255 38.098 40.1255 36.2765C40.1255 34.46 38.6494 32.9829 36.8292 32.9829C35.019 32.9829 33.543 34.46 33.543 36.2765C33.543 38.098 35.019 39.5701 36.8292 39.5701Z" fill="#F7F5F9"/>
<path fill-rule="evenodd" clip-rule="evenodd" d="M69.7981 39.5701C71.6133 39.5701 73.0894 38.098 73.0894 36.2765C73.0894 34.46 71.6133 32.9829 69.7981 32.9829C67.9829 32.9829 66.5068 34.46 66.5068 36.2765C66.5068 38.098 67.9829 39.5701 69.7981 39.5701Z" fill="#F7F5F9"/>
<path fill-rule="evenodd" clip-rule="evenodd" d="M102.762 39.5701C104.577 39.5701 106.053 38.098 106.053 36.2765C106.053 34.46 104.577 32.9829 102.762 32.9829C100.952 32.9829 99.4707 34.46 99.4707 36.2765C99.4707 38.098 100.952 39.5701 102.762 39.5701Z" fill="#F7F5F9"/>
<path fill-rule="evenodd" clip-rule="evenodd" d="M135.731 39.5701C137.541 39.5701 139.017 38.098 139.017 36.2765C139.017 34.46 137.541 32.9829 135.731 32.9829C133.916 32.9829 132.435 34.46 132.435 36.2765C132.435 38.098 133.916 39.5701 135.731 39.5701Z" fill="#F7F5F9"/>
<path fill-rule="evenodd" clip-rule="evenodd" d="M3.8695 72.5623C5.6797 72.5623 7.16077 71.0901 7.16077 69.2687C7.16077 67.4472 5.6797 65.9751 3.8695 65.9751C2.05431 65.9751 0.573242 67.4472 0.573242 69.2687C0.573242 71.0901 2.05431 72.5623 3.8695 72.5623Z" fill="#F7F5F9"/>
<path fill-rule="evenodd" clip-rule="evenodd" d="M36.8292 72.5623C38.6494 72.5623 40.1255 71.0901 40.1255 69.2687C40.1255 67.4472 38.6494 65.9751 36.8292 65.9751C35.019 65.9751 33.543 67.4472 33.543 69.2687C33.543 71.0901 35.019 72.5623 36.8292 72.5623Z" fill="#F7F5F9"/>
<path fill-rule="evenodd" clip-rule="evenodd" d="M69.7981 72.5623C71.6133 72.5623 73.0894 71.0901 73.0894 69.2687C73.0894 67.4472 71.6133 65.9751 69.7981 65.9751C67.9829 65.9751 66.5068 67.4472 66.5068 69.2687C66.5068 71.0901 67.9829 72.5623 69.7981 72.5623Z" fill="#F7F5F9"/>
<path fill-rule="evenodd" clip-rule="evenodd" d="M102.762 72.5623C104.577 72.5623 106.053 71.0901 106.053 69.2687C106.053 67.4472 104.577 65.9751 102.762 65.9751C100.952 65.9751 99.4707 67.4472 99.4707 69.2687C99.4707 71.0901 100.952 72.5623 102.762 72.5623Z" fill="#F7F5F9"/>
<path fill-rule="evenodd" clip-rule="evenodd" d="M135.731 72.5623C137.541 72.5623 139.017 71.0901 139.017 69.2687C139.017 67.4472 137.541 65.9751 135.731 65.9751C133.916 65.9751 132.435 67.4472 132.435 69.2687C132.435 71.0901 133.916 72.5623 135.731 72.5623Z" fill="#F7F5F9"/>
<path fill-rule="evenodd" clip-rule="evenodd" d="M3.8695 105.55C5.6797 105.55 7.16077 104.073 7.16077 102.257C7.16077 100.44 5.6797 98.9683 3.8695 98.9683C2.05431 98.9683 0.573242 100.44 0.573242 102.257C0.573242 104.073 2.05431 105.55 3.8695 105.55Z" fill="#F7F5F9"/>
<path fill-rule="evenodd" clip-rule="evenodd" d="M36.8292 105.55C38.6494 105.55 40.1255 104.073 40.1255 102.257C40.1255 100.44 38.6494 98.9683 36.8292 98.9683C35.019 98.9683 33.543 100.44 33.543 102.257C33.543 104.073 35.019 105.55 36.8292 105.55Z" fill="#F7F5F9"/>
<path fill-rule="evenodd" clip-rule="evenodd" d="M69.7981 105.55C71.6133 105.55 73.0894 104.073 73.0894 102.257C73.0894 100.44 71.6133 98.9683 69.7981 98.9683C67.9829 98.9683 66.5068 100.44 66.5068 102.257C66.5068 104.073 67.9829 105.55 69.7981 105.55Z" fill="#F7F5F9"/>
<path fill-rule="evenodd" clip-rule="evenodd" d="M102.762 105.55C104.577 105.55 106.053 104.073 106.053 102.257C106.053 100.44 104.577 98.9683 102.762 98.9683C100.952 98.9683 99.4707 100.44 99.4707 102.257C99.4707 104.073 100.952 105.55 102.762 105.55Z" fill="#F7F5F9"/>
<path fill-rule="evenodd" clip-rule="evenodd" d="M135.731 105.55C137.541 105.55 139.017 104.073 139.017 102.257C139.017 100.44 137.541 98.9683 135.731 98.9683C133.916 98.9683 132.435 100.44 132.435 102.257C132.435 104.073 133.916 105.55 135.731 105.55Z" fill="#F7F5F9"/>
<path fill-rule="evenodd" clip-rule="evenodd" d="M3.8695 138.537C5.6797 138.537 7.16077 137.065 7.16077 135.244C7.16077 133.427 5.6797 131.95 3.8695 131.95C2.05431 131.95 0.573242 133.427 0.573242 135.244C0.573242 137.065 2.05431 138.537 3.8695 138.537Z" fill="#F7F5F9"/>
<path fill-rule="evenodd" clip-rule="evenodd" d="M36.8292 138.537C38.6494 138.537 40.1255 137.065 40.1255 135.244C40.1255 133.427 38.6494 131.95 36.8292 131.95C35.019 131.95 33.543 133.427 33.543 135.244C33.543 137.065 35.019 138.537 36.8292 138.537Z" fill="#F7F5F9"/>
<path fill-rule="evenodd" clip-rule="evenodd" d="M69.7981 138.537C71.6133 138.537 73.0894 137.065 73.0894 135.244C73.0894 133.427 71.6133 131.95 69.7981 131.95C67.9829 131.95 66.5068 133.427 66.5068 135.244C66.5068 137.065 67.9829 138.537 69.7981 138.537Z" fill="#F7F5F9"/>
<path fill-rule="evenodd" clip-rule="evenodd" d="M102.762 138.537C104.577 138.537 106.053 137.065 106.053 135.244C106.053 133.427 104.577 131.95 102.762 131.95C100.952 131.95 99.4707 133.427 99.4707 135.244C99.4707 137.065 100.952 138.537 102.762 138.537Z" fill="#F7F5F9"/>
<path fill-rule="evenodd" clip-rule="evenodd" d="M135.731 138.537C137.541 138.537 139.017 137.065 139.017 135.244C139.017 133.427 137.541 131.95 135.731 131.95C133.916 131.95 132.435 133.427 132.435 135.244C132.435 137.065 133.916 138.537 135.731 138.537Z" fill="#F7F5F9"/>
<path fill-rule="evenodd" clip-rule="evenodd" d="M3.8695 171.53C5.6797 171.53 7.16077 170.058 7.16077 168.236C7.16077 166.415 5.6797 164.943 3.8695 164.943C2.05431 164.943 0.573242 166.415 0.573242 168.236C0.573242 170.058 2.05431 171.53 3.8695 171.53Z" fill="#F7F5F9"/>
<path fill-rule="evenodd" clip-rule="evenodd" d="M36.8292 171.53C38.6494 171.53 40.1255 170.058 40.1255 168.236C40.1255 166.415 38.6494 164.943 36.8292 164.943C35.019 164.943 33.543 166.415 33.543 168.236C33.543 170.058 35.019 171.53 36.8292 171.53Z" fill="#F7F5F9"/>
<path fill-rule="evenodd" clip-rule="evenodd" d="M69.7981 171.53C71.6133 171.53 73.0894 170.058 73.0894 168.236C73.0894 166.415 71.6133 164.943 69.7981 164.943C67.9829 164.943 66.5068 166.415 66.5068 168.236C66.5068 170.058 67.9829 171.53 69.7981 171.53Z" fill="#F7F5F9"/>
<path fill-rule="evenodd" clip-rule="evenodd" d="M102.762 171.53C104.577 171.53 106.053 170.058 106.053 168.236C106.053 166.415 104.577 164.943 102.762 164.943C100.952 164.943 99.4707 166.415 99.4707 168.236C99.4707 170.058 100.952 171.53 102.762 171.53Z" fill="#F7F5F9"/>
<path fill-rule="evenodd" clip-rule="evenodd" d="M135.731 171.53C137.541 171.53 139.017 170.058 139.017 168.236C139.017 166.415 137.541 164.943 135.731 164.943C133.916 164.943 132.435 166.415 132.435 168.236C132.435 170.058 133.916 171.53 135.731 171.53Z" fill="#F7F5F9"/>
<path fill-rule="evenodd" clip-rule="evenodd" d="M3.8695 204.518C5.6797 204.518 7.16077 203.041 7.16077 201.224C7.16077 199.408 5.6797 197.931 3.8695 197.931C2.05431 197.931 0.573242 199.408 0.573242 201.224C0.573242 203.041 2.05431 204.518 3.8695 204.518Z" fill="#F7F5F9"/>
<path fill-rule="evenodd" clip-rule="evenodd" d="M36.8292 204.518C38.6494 204.518 40.1255 203.041 40.1255 201.224C40.1255 199.408 38.6494 197.931 36.8292 197.931C35.019 197.931 33.543 199.408 33.543 201.224C33.543 203.041 35.019 204.518 36.8292 204.518Z" fill="#F7F5F9"/>
<path fill-rule="evenodd" clip-rule="evenodd" d="M69.7981 204.518C71.6133 204.518 73.0894 203.041 73.0894 201.224C73.0894 199.408 71.6133 197.931 69.7981 197.931C67.9829 197.931 66.5068 199.408 66.5068 201.224C66.5068 203.041 67.9829 204.518 69.7981 204.518Z" fill="#F7F5F9"/>
<path fill-rule="evenodd" clip-rule="evenodd" d="M102.762 204.518C104.577 204.518 106.053 203.041 106.053 201.224C106.053 199.408 104.577 197.931 102.762 197.931C100.952 197.931 99.4707 199.408 99.4707 201.224C99.4707 203.041 100.952 204.518 102.762 204.518Z" fill="#F7F5F9"/>
<path fill-rule="evenodd" clip-rule="evenodd" d="M135.731 204.518C137.541 204.518 139.017 203.041 139.017 201.224C139.017 199.408 137.541 197.931 135.731 197.931C133.916 197.931 132.435 199.408 132.435 201.224C132.435 203.041 133.916 204.518 135.731 204.518Z" fill="#F7F5F9"/>
<path fill-rule="evenodd" clip-rule="evenodd" d="M3.8695 237.505C5.6797 237.505 7.16077 236.033 7.16077 234.212C7.16077 232.39 5.6797 230.918 3.8695 230.918C2.05431 230.918 0.573242 232.39 0.573242 234.212C0.573242 236.033 2.05431 237.505 3.8695 237.505Z" fill="#F7F5F9"/>
<path fill-rule="evenodd" clip-rule="evenodd" d="M36.8292 237.505C38.6494 237.505 40.1255 236.033 40.1255 234.212C40.1255 232.39 38.6494 230.918 36.8292 230.918C35.019 230.918 33.543 232.39 33.543 234.212C33.543 236.033 35.019 237.505 36.8292 237.505Z" fill="#F7F5F9"/>
<path fill-rule="evenodd" clip-rule="evenodd" d="M69.7981 237.505C71.6133 237.505 73.0894 236.033 73.0894 234.212C73.0894 232.39 71.6133 230.918 69.7981 230.918C67.9829 230.918 66.5068 232.39 66.5068 234.212C66.5068 236.033 67.9829 237.505 69.7981 237.505Z" fill="#F7F5F9"/>
<path fill-rule="evenodd" clip-rule="evenodd" d="M102.762 237.505C104.577 237.505 106.053 236.033 106.053 234.212C106.053 232.39 104.577 230.918 102.762 230.918C100.952 230.918 99.4707 232.39 99.4707 234.212C99.4707 236.033 100.952 237.505 102.762 237.505Z" fill="#F7F5F9"/>
<path fill-rule="evenodd" clip-rule="evenodd" d="M135.731 237.505C137.541 237.505 139.017 236.033 139.017 234.212C139.017 232.39 137.541 230.918 135.731 230.918C133.916 230.918 132.435 232.39 132.435 234.212C132.435 236.033 133.916 237.505 135.731 237.505Z" fill="#F7F5F9"/>
<path fill-rule="evenodd" clip-rule="evenodd" d="M3.8695 270.498C5.6797 270.498 7.16077 269.021 7.16077 267.204C7.16077 265.383 5.6797 263.911 3.8695 263.911C2.05431 263.911 0.573242 265.383 0.573242 267.204C0.573242 269.021 2.05431 270.498 3.8695 270.498Z" fill="#F7F5F9"/>
<path fill-rule="evenodd" clip-rule="evenodd" d="M36.8292 270.498C38.6494 270.498 40.1255 269.021 40.1255 267.204C40.1255 265.383 38.6494 263.911 36.8292 263.911C35.019 263.911 33.543 265.383 33.543 267.204C33.543 269.021 35.019 270.498 36.8292 270.498Z" fill="#F7F5F9"/>
<path fill-rule="evenodd" clip-rule="evenodd" d="M69.7981 270.498C71.6133 270.498 73.0894 269.021 73.0894 267.204C73.0894 265.383 71.6133 263.911 69.7981 263.911C67.9829 263.911 66.5068 265.383 66.5068 267.204C66.5068 269.021 67.9829 270.498 69.7981 270.498Z" fill="#F7F5F9"/>
<path fill-rule="evenodd" clip-rule="evenodd" d="M102.762 270.498C104.577 270.498 106.053 269.021 106.053 267.204C106.053 265.383 104.577 263.911 102.762 263.911C100.952 263.911 99.4707 265.383 99.4707 267.204C99.4707 269.021 100.952 270.498 102.762 270.498Z" fill="#F7F5F9"/>
<path fill-rule="evenodd" clip-rule="evenodd" d="M135.731 270.498C137.541 270.498 139.017 269.021 139.017 267.204C139.017 265.383 137.541 263.911 135.731 263.911C133.916 263.911 132.435 265.383 132.435 267.204C132.435 269.021 133.916 270.498 135.731 270.498Z" fill="#F7F5F9"/>
<path fill-rule="evenodd" clip-rule="evenodd" d="M3.8695 303.481C5.6797 303.481 7.16077 302.009 7.16077 300.187C7.16077 298.376 5.6797 296.894 3.8695 296.894C2.05431 296.894 0.573242 298.376 0.573242 300.187C0.573242 302.009 2.05431 303.481 3.8695 303.481Z" fill="#F7F5F9"/>
<path fill-rule="evenodd" clip-rule="evenodd" d="M36.8292 303.481C38.6494 303.481 40.1255 302.009 40.1255 300.187C40.1255 298.376 38.6494 296.894 36.8292 296.894C35.019 296.894 33.543 298.376 33.543 300.187C33.543 302.009 35.019 303.481 36.8292 303.481Z" fill="#F7F5F9"/>
<path fill-rule="evenodd" clip-rule="evenodd" d="M69.7981 303.481C71.6133 303.481 73.0894 302.009 73.0894 300.187C73.0894 298.376 71.6133 296.894 69.7981 296.894C67.9829 296.894 66.5068 298.376 66.5068 300.187C66.5068 302.009 67.9829 303.481 69.7981 303.481Z" fill="#F7F5F9"/>
<path fill-rule="evenodd" clip-rule="evenodd" d="M102.762 303.481C104.577 303.481 106.053 302.009 106.053 300.187C106.053 298.376 104.577 296.894 102.762 296.894C100.952 296.894 99.4707 298.376 99.4707 300.187C99.4707 302.009 100.952 303.481 102.762 303.481Z" fill="#F7F5F9"/>
<path fill-rule="evenodd" clip-rule="evenodd" d="M135.731 303.481C137.541 303.481 139.017 302.009 139.017 300.187C139.017 298.376 137.541 296.894 135.731 296.894C133.916 296.894 132.435 298.376 132.435 300.187C132.435 302.009 133.916 303.481 135.731 303.481Z" fill="#F7F5F9"/>
<path fill-rule="evenodd" clip-rule="evenodd" d="M3.8695 336.473C5.6797 336.473 7.16077 335.001 7.16077 333.18C7.16077 331.358 5.6797 329.886 3.8695 329.886C2.05431 329.886 0.573242 331.358 0.573242 333.18C0.573242 335.001 2.05431 336.473 3.8695 336.473Z" fill="#F7F5F9"/>
<path fill-rule="evenodd" clip-rule="evenodd" d="M36.8292 336.473C38.6494 336.473 40.1255 335.001 40.1255 333.18C40.1255 331.358 38.6494 329.886 36.8292 329.886C35.019 329.886 33.543 331.358 33.543 333.18C33.543 335.001 35.019 336.473 36.8292 336.473Z" fill="#F7F5F9"/>
<path fill-rule="evenodd" clip-rule="evenodd" d="M69.7981 336.473C71.6133 336.473 73.0894 335.001 73.0894 333.18C73.0894 331.358 71.6133 329.886 69.7981 329.886C67.9829 329.886 66.5068 331.358 66.5068 333.18C66.5068 335.001 67.9829 336.473 69.7981 336.473Z" fill="#F7F5F9"/>
<path fill-rule="evenodd" clip-rule="evenodd" d="M102.762 336.473C104.577 336.473 106.053 335.001 106.053 333.18C106.053 331.358 104.577 329.886 102.762 329.886C100.952 329.886 99.4707 331.358 99.4707 333.18C99.4707 335.001 100.952 336.473 102.762 336.473Z" fill="#F7F5F9"/>
<path fill-rule="evenodd" clip-rule="evenodd" d="M135.731 336.473C137.541 336.473 139.017 335.001 139.017 333.18C139.017 331.358 137.541 329.886 135.731 329.886C133.916 329.886 132.435 331.358 132.435 333.18C132.435 335.001 133.916 336.473 135.731 336.473Z" fill="#F7F5F9"/>
<path fill-rule="evenodd" clip-rule="evenodd" d="M3.8695 369.461C5.6797 369.461 7.16077 367.983 7.16077 366.172C7.16077 364.351 5.6797 362.878 3.8695 362.878C2.05431 362.878 0.573242 364.351 0.573242 366.172C0.573242 367.983 2.05431 369.461 3.8695 369.461Z" fill="#F7F5F9"/>
<path fill-rule="evenodd" clip-rule="evenodd" d="M36.8292 369.461C38.6494 369.461 40.1255 367.983 40.1255 366.172C40.1255 364.351 38.6494 362.878 36.8292 362.878C35.019 362.878 33.543 364.351 33.543 366.172C33.543 367.983 35.019 369.461 36.8292 369.461Z" fill="#F7F5F9"/>
<path fill-rule="evenodd" clip-rule="evenodd" d="M69.7981 369.461C71.6133 369.461 73.0894 367.983 73.0894 366.172C73.0894 364.351 71.6133 362.878 69.7981 362.878C67.9829 362.878 66.5068 364.351 66.5068 366.172C66.5068 367.983 67.9829 369.461 69.7981 369.461Z" fill="#F7F5F9"/>
<path fill-rule="evenodd" clip-rule="evenodd" d="M102.762 369.461C104.577 369.461 106.053 367.983 106.053 366.172C106.053 364.351 104.577 362.878 102.762 362.878C100.952 362.878 99.4707 364.351 99.4707 366.172C99.4707 367.983 100.952 369.461 102.762 369.461Z" fill="#F7F5F9"/>
<path fill-rule="evenodd" clip-rule="evenodd" d="M135.731 369.461C137.541 369.461 139.017 367.983 139.017 366.172C139.017 364.351 137.541 362.878 135.731 362.878C133.916 362.878 132.435 364.351 132.435 366.172C132.435 367.983 133.916 369.461 135.731 369.461Z" fill="#F7F5F9"/>
<path fill-rule="evenodd" clip-rule="evenodd" d="M3.8695 402.448C5.6797 402.448 7.16077 400.976 7.16077 399.155C7.16077 397.338 5.6797 395.861 3.8695 395.861C2.05431 395.861 0.573242 397.338 0.573242 399.155C0.573242 400.976 2.05431 402.448 3.8695 402.448Z" fill="#F7F5F9"/>
<path fill-rule="evenodd" clip-rule="evenodd" d="M36.8292 402.448C38.6494 402.448 40.1255 400.976 40.1255 399.155C40.1255 397.338 38.6494 395.861 36.8292 395.861C35.019 395.861 33.543 397.338 33.543 399.155C33.543 400.976 35.019 402.448 36.8292 402.448Z" fill="#F7F5F9"/>
<path fill-rule="evenodd" clip-rule="evenodd" d="M69.7981 402.448C71.6133 402.448 73.0894 400.976 73.0894 399.155C73.0894 397.338 71.6133 395.861 69.7981 395.861C67.9829 395.861 66.5068 397.338 66.5068 399.155C66.5068 400.976 67.9829 402.448 69.7981 402.448Z" fill="#F7F5F9"/>
<path fill-rule="evenodd" clip-rule="evenodd" d="M102.762 402.448C104.577 402.448 106.053 400.976 106.053 399.155C106.053 397.338 104.577 395.861 102.762 395.861C100.952 395.861 99.4707 397.338 99.4707 399.155C99.4707 400.976 100.952 402.448 102.762 402.448Z" fill="#F7F5F9"/>
<path fill-rule="evenodd" clip-rule="evenodd" d="M135.731 402.448C137.541 402.448 139.017 400.976 139.017 399.155C139.017 397.338 137.541 395.861 135.731 395.861C133.916 395.861 132.435 397.338 132.435 399.155C132.435 400.976 133.916 402.448 135.731 402.448Z" fill="#F7F5F9"/>
<path fill-rule="evenodd" clip-rule="evenodd" d="M3.8695 435.441C5.6797 435.441 7.16077 433.969 7.16077 432.147C7.16077 430.326 5.6797 428.854 3.8695 428.854C2.05431 428.854 0.573242 430.326 0.573242 432.147C0.573242 433.969 2.05431 435.441 3.8695 435.441Z" fill="#F7F5F9"/>
<path fill-rule="evenodd" clip-rule="evenodd" d="M36.8292 435.441C38.6494 435.441 40.1255 433.969 40.1255 432.147C40.1255 430.326 38.6494 428.854 36.8292 428.854C35.019 428.854 33.543 430.326 33.543 432.147C33.543 433.969 35.019 435.441 36.8292 435.441Z" fill="#F7F5F9"/>
<path fill-rule="evenodd" clip-rule="evenodd" d="M69.7981 435.441C71.6133 435.441 73.0894 433.969 73.0894 432.147C73.0894 430.326 71.6133 428.854 69.7981 428.854C67.9829 428.854 66.5068 430.326 66.5068 432.147C66.5068 433.969 67.9829 435.441 69.7981 435.441Z" fill="#F7F5F9"/>
<path fill-rule="evenodd" clip-rule="evenodd" d="M102.762 435.441C104.577 435.441 106.053 433.969 106.053 432.147C106.053 430.326 104.577 428.854 102.762 428.854C100.952 428.854 99.4707 430.326 99.4707 432.147C99.4707 433.969 100.952 435.441 102.762 435.441Z" fill="#F7F5F9"/>
<path fill-rule="evenodd" clip-rule="evenodd" d="M135.731 435.441C137.541 435.441 139.017 433.969 139.017 432.147C139.017 430.326 137.541 428.854 135.731 428.854C133.916 428.854 132.435 430.326 132.435 432.147C132.435 433.969 133.916 435.441 135.731 435.441Z" fill="#F7F5F9"/>
<path fill-rule="evenodd" clip-rule="evenodd" d="M3.8695 468.428C5.6797 468.428 7.16077 466.951 7.16077 465.135C7.16077 463.318 5.6797 461.841 3.8695 461.841C2.05431 461.841 0.573242 463.318 0.573242 465.135C0.573242 466.951 2.05431 468.428 3.8695 468.428Z" fill="#F7F5F9"/>
<path fill-rule="evenodd" clip-rule="evenodd" d="M36.8292 468.428C38.6494 468.428 40.1255 466.951 40.1255 465.135C40.1255 463.318 38.6494 461.841 36.8292 461.841C35.019 461.841 33.543 463.318 33.543 465.135C33.543 466.951 35.019 468.428 36.8292 468.428Z" fill="#F7F5F9"/>
<path fill-rule="evenodd" clip-rule="evenodd" d="M69.7981 468.428C71.6133 468.428 73.0894 466.951 73.0894 465.135C73.0894 463.318 71.6133 461.841 69.7981 461.841C67.9829 461.841 66.5068 463.318 66.5068 465.135C66.5068 466.951 67.9829 468.428 69.7981 468.428Z" fill="#F7F5F9"/>
<path fill-rule="evenodd" clip-rule="evenodd" d="M102.762 468.428C104.577 468.428 106.053 466.951 106.053 465.135C106.053 463.318 104.577 461.841 102.762 461.841C100.952 461.841 99.4707 463.318 99.4707 465.135C99.4707 466.951 100.952 468.428 102.762 468.428Z" fill="#F7F5F9"/>
<path fill-rule="evenodd" clip-rule="evenodd" d="M135.731 468.428C137.541 468.428 139.017 466.951 139.017 465.135C139.017 463.318 137.541 461.841 135.731 461.841C133.916 461.841 132.435 463.318 132.435 465.135C132.435 466.951 133.916 468.428 135.731 468.428Z" fill="#F7F5F9"/>
<path fill-rule="evenodd" clip-rule="evenodd" d="M3.8695 501.416C5.6797 501.416 7.16077 499.944 7.16077 498.122C7.16077 496.301 5.6797 494.829 3.8695 494.829C2.05431 494.829 0.573242 496.301 0.573242 498.122C0.573242 499.944 2.05431 501.416 3.8695 501.416Z" fill="#F7F5F9"/>
<path fill-rule="evenodd" clip-rule="evenodd" d="M36.8292 501.416C38.6494 501.416 40.1255 499.944 40.1255 498.122C40.1255 496.301 38.6494 494.829 36.8292 494.829C35.019 494.829 33.543 496.301 33.543 498.122C33.543 499.944 35.019 501.416 36.8292 501.416Z" fill="#F7F5F9"/>
<path fill-rule="evenodd" clip-rule="evenodd" d="M69.7981 501.416C71.6133 501.416 73.0894 499.944 73.0894 498.122C73.0894 496.301 71.6133 494.829 69.7981 494.829C67.9829 494.829 66.5068 496.301 66.5068 498.122C66.5068 499.944 67.9829 501.416 69.7981 501.416Z" fill="#F7F5F9"/>
<path fill-rule="evenodd" clip-rule="evenodd" d="M102.762 501.416C104.577 501.416 106.053 499.944 106.053 498.122C106.053 496.301 104.577 494.829 102.762 494.829C100.952 494.829 99.4707 496.301 99.4707 498.122C99.4707 499.944 100.952 501.416 102.762 501.416Z" fill="#F7F5F9"/>
<path fill-rule="evenodd" clip-rule="evenodd" d="M135.731 501.416C137.541 501.416 139.017 499.944 139.017 498.122C139.017 496.301 137.541 494.829 135.731 494.829C133.916 494.829 132.435 496.301 132.435 498.122C132.435 499.944 133.916 501.416 135.731 501.416Z" fill="#F7F5F9"/>
<path fill-rule="evenodd" clip-rule="evenodd" d="M3.8695 534.409C5.6797 534.409 7.16077 532.932 7.16077 531.115C7.16077 529.294 5.6797 527.822 3.8695 527.822C2.05431 527.822 0.573242 529.294 0.573242 531.115C0.573242 532.932 2.05431 534.409 3.8695 534.409Z" fill="#F7F5F9"/>
<path fill-rule="evenodd" clip-rule="evenodd" d="M36.8292 534.409C38.6494 534.409 40.1255 532.932 40.1255 531.115C40.1255 529.294 38.6494 527.822 36.8292 527.822C35.019 527.822 33.543 529.294 33.543 531.115C33.543 532.932 35.019 534.409 36.8292 534.409Z" fill="#F7F5F9"/>
<path fill-rule="evenodd" clip-rule="evenodd" d="M69.7981 534.409C71.6133 534.409 73.0894 532.932 73.0894 531.115C73.0894 529.294 71.6133 527.822 69.7981 527.822C67.9829 527.822 66.5068 529.294 66.5068 531.115C66.5068 532.932 67.9829 534.409 69.7981 534.409Z" fill="#F7F5F9"/>
<path fill-rule="evenodd" clip-rule="evenodd" d="M102.762 534.409C104.577 534.409 106.053 532.932 106.053 531.115C106.053 529.294 104.577 527.822 102.762 527.822C100.952 527.822 99.4707 529.294 99.4707 531.115C99.4707 532.932 100.952 534.409 102.762 534.409Z" fill="#F7F5F9"/>
<path fill-rule="evenodd" clip-rule="evenodd" d="M135.731 534.409C137.541 534.409 139.017 532.932 139.017 531.115C139.017 529.294 137.541 527.822 135.731 527.822C133.916 527.822 132.435 529.294 132.435 531.115C132.435 532.932 133.916 534.409 135.731 534.409Z" fill="#F7F5F9"/>
<path fill-rule="evenodd" clip-rule="evenodd" d="M3.8695 567.391C5.6797 567.391 7.16077 565.919 7.16077 564.097C7.16077 562.286 5.6797 560.804 3.8695 560.804C2.05431 560.804 0.573242 562.286 0.573242 564.097C0.573242 565.919 2.05431 567.391 3.8695 567.391Z" fill="#F7F5F9"/>
<path fill-rule="evenodd" clip-rule="evenodd" d="M36.8292 567.391C38.6494 567.391 40.1255 565.919 40.1255 564.097C40.1255 562.286 38.6494 560.804 36.8292 560.804C35.019 560.804 33.543 562.286 33.543 564.097C33.543 565.919 35.019 567.391 36.8292 567.391Z" fill="#F7F5F9"/>
<path fill-rule="evenodd" clip-rule="evenodd" d="M69.7981 567.391C71.6133 567.391 73.0894 565.919 73.0894 564.097C73.0894 562.286 71.6133 560.804 69.7981 560.804C67.9829 560.804 66.5068 562.286 66.5068 564.097C66.5068 565.919 67.9829 567.391 69.7981 567.391Z" fill="#F7F5F9"/>
<path fill-rule="evenodd" clip-rule="evenodd" d="M102.762 567.391C104.577 567.391 106.053 565.919 106.053 564.097C106.053 562.286 104.577 560.804 102.762 560.804C100.952 560.804 99.4707 562.286 99.4707 564.097C99.4707 565.919 100.952 567.391 102.762 567.391Z" fill="#F7F5F9"/>
<path fill-rule="evenodd" clip-rule="evenodd" d="M135.731 567.391C137.541 567.391 139.017 565.919 139.017 564.097C139.017 562.286 137.541 560.804 135.731 560.804C133.916 560.804 132.435 562.286 132.435 564.097C132.435 565.919 133.916 567.391 135.731 567.391Z" fill="#F7F5F9"/>
<path fill-rule="evenodd" clip-rule="evenodd" d="M3.8695 600.384C5.6797 600.384 7.16077 598.912 7.16077 597.09C7.16077 595.269 5.6797 593.797 3.8695 593.797C2.05431 593.797 0.573242 595.269 0.573242 597.09C0.573242 598.912 2.05431 600.384 3.8695 600.384Z" fill="#F7F5F9"/>
<path fill-rule="evenodd" clip-rule="evenodd" d="M36.8292 600.384C38.6494 600.384 40.1255 598.912 40.1255 597.09C40.1255 595.269 38.6494 593.797 36.8292 593.797C35.019 593.797 33.543 595.269 33.543 597.09C33.543 598.912 35.019 600.384 36.8292 600.384Z" fill="#F7F5F9"/>
<path fill-rule="evenodd" clip-rule="evenodd" d="M69.7981 600.384C71.6133 600.384 73.0894 598.912 73.0894 597.09C73.0894 595.269 71.6133 593.797 69.7981 593.797C67.9829 593.797 66.5068 595.269 66.5068 597.09C66.5068 598.912 67.9829 600.384 69.7981 600.384Z" fill="#F7F5F9"/>
<path fill-rule="evenodd" clip-rule="evenodd" d="M102.762 600.384C104.577 600.384 106.053 598.912 106.053 597.09C106.053 595.269 104.577 593.797 102.762 593.797C100.952 593.797 99.4707 595.269 99.4707 597.09C99.4707 598.912 100.952 600.384 102.762 600.384Z" fill="#F7F5F9"/>
<path fill-rule="evenodd" clip-rule="evenodd" d="M135.731 600.384C137.541 600.384 139.017 598.912 139.017 597.09C139.017 595.269 137.541 593.797 135.731 593.797C133.916 593.797 132.435 595.269 132.435 597.09C132.435 598.912 133.916 600.384 135.731 600.384Z" fill="#F7F5F9"/>
</svg>
