<svg width="1400" height="2043" viewBox="0 0 1400 2043" fill="none" xmlns="http://www.w3.org/2000/svg">
<mask id="mask0" mask-type="alpha" maskUnits="userSpaceOnUse" x="0" y="0" width="1400" height="2043">
<rect width="1400" height="2043" fill="#C4C4C4"/>
</mask>
<g mask="url(#mask0)">
<g opacity="0.456808">
<path fill-rule="evenodd" clip-rule="evenodd" d="M1402.23 1048.79C1400.42 1048.79 1398.94 1050.27 1398.94 1052.09C1398.94 1053.91 1400.42 1055.38 1402.23 1055.38C1404.05 1055.38 1405.53 1053.91 1405.53 1052.09C1405.53 1050.27 1404.05 1048.79 1402.23 1048.79Z" fill="#F7F5F9"/>
<path fill-rule="evenodd" clip-rule="evenodd" d="M1369.28 1048.79C1367.46 1048.79 1365.98 1050.27 1365.98 1052.09C1365.98 1053.91 1367.46 1055.38 1369.28 1055.38C1371.09 1055.38 1372.56 1053.91 1372.56 1052.09C1372.56 1050.27 1371.09 1048.79 1369.28 1048.79Z" fill="#F7F5F9"/>
<path fill-rule="evenodd" clip-rule="evenodd" d="M1336.31 1048.79C1334.49 1048.79 1333.02 1050.27 1333.02 1052.09C1333.02 1053.91 1334.49 1055.38 1336.31 1055.38C1338.12 1055.38 1339.6 1053.91 1339.6 1052.09C1339.6 1050.27 1338.12 1048.79 1336.31 1048.79Z" fill="#F7F5F9"/>
<path fill-rule="evenodd" clip-rule="evenodd" d="M1303.34 1048.79C1301.53 1048.79 1300.05 1050.27 1300.05 1052.09C1300.05 1053.91 1301.53 1055.38 1303.34 1055.38C1305.15 1055.38 1306.63 1053.91 1306.63 1052.09C1306.63 1050.27 1305.15 1048.79 1303.34 1048.79Z" fill="#F7F5F9"/>
<path fill-rule="evenodd" clip-rule="evenodd" d="M1270.37 1048.79C1268.56 1048.79 1267.09 1050.27 1267.09 1052.09C1267.09 1053.91 1268.56 1055.38 1270.37 1055.38C1272.19 1055.38 1273.67 1053.91 1273.67 1052.09C1273.67 1050.27 1272.19 1048.79 1270.37 1048.79Z" fill="#F7F5F9"/>
<path fill-rule="evenodd" clip-rule="evenodd" d="M1237.41 1048.79C1235.59 1048.79 1234.12 1050.27 1234.12 1052.09C1234.12 1053.91 1235.59 1055.38 1237.41 1055.38C1239.22 1055.38 1240.7 1053.91 1240.7 1052.09C1240.7 1050.27 1239.22 1048.79 1237.41 1048.79Z" fill="#F7F5F9"/>
<path fill-rule="evenodd" clip-rule="evenodd" d="M1402.23 1015.81C1400.42 1015.81 1398.94 1017.28 1398.94 1019.1C1398.94 1020.92 1400.42 1022.4 1402.23 1022.4C1404.05 1022.4 1405.53 1020.92 1405.53 1019.1C1405.53 1017.28 1404.05 1015.81 1402.23 1015.81Z" fill="#F7F5F9"/>
<path fill-rule="evenodd" clip-rule="evenodd" d="M1369.28 1015.81C1367.46 1015.81 1365.98 1017.28 1365.98 1019.1C1365.98 1020.92 1367.46 1022.4 1369.28 1022.4C1371.09 1022.4 1372.56 1020.92 1372.56 1019.1C1372.56 1017.28 1371.09 1015.81 1369.28 1015.81Z" fill="#F7F5F9"/>
<path fill-rule="evenodd" clip-rule="evenodd" d="M1336.31 1015.81C1334.49 1015.81 1333.02 1017.28 1333.02 1019.1C1333.02 1020.92 1334.49 1022.4 1336.31 1022.4C1338.12 1022.4 1339.6 1020.92 1339.6 1019.1C1339.6 1017.28 1338.12 1015.81 1336.31 1015.81Z" fill="#F7F5F9"/>
<path fill-rule="evenodd" clip-rule="evenodd" d="M1303.34 1015.81C1301.53 1015.81 1300.05 1017.28 1300.05 1019.1C1300.05 1020.92 1301.53 1022.4 1303.34 1022.4C1305.15 1022.4 1306.63 1020.92 1306.63 1019.1C1306.63 1017.28 1305.15 1015.81 1303.34 1015.81Z" fill="#F7F5F9"/>
<path fill-rule="evenodd" clip-rule="evenodd" d="M1270.37 1015.81C1268.56 1015.81 1267.09 1017.28 1267.09 1019.1C1267.09 1020.92 1268.56 1022.4 1270.37 1022.4C1272.19 1022.4 1273.67 1020.92 1273.67 1019.1C1273.67 1017.28 1272.19 1015.81 1270.37 1015.81Z" fill="#F7F5F9"/>
<path fill-rule="evenodd" clip-rule="evenodd" d="M1237.41 1015.81C1235.59 1015.81 1234.12 1017.28 1234.12 1019.1C1234.12 1020.92 1235.59 1022.4 1237.41 1022.4C1239.22 1022.4 1240.7 1020.92 1240.7 1019.1C1240.7 1017.28 1239.22 1015.81 1237.41 1015.81Z" fill="#F7F5F9"/>
<path fill-rule="evenodd" clip-rule="evenodd" d="M1402.23 982.817C1400.42 982.817 1398.94 984.289 1398.94 986.111C1398.94 987.932 1400.42 989.404 1402.23 989.404C1404.05 989.404 1405.53 987.932 1405.53 986.111C1405.53 984.289 1404.05 982.817 1402.23 982.817Z" fill="#F7F5F9"/>
<path fill-rule="evenodd" clip-rule="evenodd" d="M1369.28 982.817C1367.46 982.817 1365.98 984.289 1365.98 986.111C1365.98 987.932 1367.46 989.404 1369.28 989.404C1371.09 989.404 1372.56 987.932 1372.56 986.111C1372.56 984.289 1371.09 982.817 1369.28 982.817Z" fill="#F7F5F9"/>
<path fill-rule="evenodd" clip-rule="evenodd" d="M1336.31 982.817C1334.49 982.817 1333.02 984.289 1333.02 986.111C1333.02 987.932 1334.49 989.404 1336.31 989.404C1338.12 989.404 1339.6 987.932 1339.6 986.111C1339.6 984.289 1338.12 982.817 1336.31 982.817Z" fill="#F7F5F9"/>
<path fill-rule="evenodd" clip-rule="evenodd" d="M1303.34 982.817C1301.53 982.817 1300.05 984.289 1300.05 986.111C1300.05 987.932 1301.53 989.404 1303.34 989.404C1305.15 989.404 1306.63 987.932 1306.63 986.111C1306.63 984.289 1305.15 982.817 1303.34 982.817Z" fill="#F7F5F9"/>
<path fill-rule="evenodd" clip-rule="evenodd" d="M1270.37 982.817C1268.56 982.817 1267.09 984.289 1267.09 986.111C1267.09 987.932 1268.56 989.404 1270.37 989.404C1272.19 989.404 1273.67 987.932 1273.67 986.111C1273.67 984.289 1272.19 982.817 1270.37 982.817Z" fill="#F7F5F9"/>
<path fill-rule="evenodd" clip-rule="evenodd" d="M1237.41 982.817C1235.59 982.817 1234.12 984.289 1234.12 986.111C1234.12 987.932 1235.59 989.404 1237.41 989.404C1239.22 989.404 1240.7 987.932 1240.7 986.111C1240.7 984.289 1239.22 982.817 1237.41 982.817Z" fill="#F7F5F9"/>
<path fill-rule="evenodd" clip-rule="evenodd" d="M1402.23 949.829C1400.42 949.829 1398.94 951.306 1398.94 953.123C1398.94 954.939 1400.42 956.411 1402.23 956.411C1404.05 956.411 1405.53 954.939 1405.53 953.123C1405.53 951.306 1404.05 949.829 1402.23 949.829Z" fill="#F7F5F9"/>
<path fill-rule="evenodd" clip-rule="evenodd" d="M1369.28 949.829C1367.46 949.829 1365.98 951.306 1365.98 953.123C1365.98 954.939 1367.46 956.411 1369.28 956.411C1371.09 956.411 1372.56 954.939 1372.56 953.123C1372.56 951.306 1371.09 949.829 1369.28 949.829Z" fill="#F7F5F9"/>
<path fill-rule="evenodd" clip-rule="evenodd" d="M1336.31 949.829C1334.49 949.829 1333.02 951.306 1333.02 953.123C1333.02 954.939 1334.49 956.411 1336.31 956.411C1338.12 956.411 1339.6 954.939 1339.6 953.123C1339.6 951.306 1338.12 949.829 1336.31 949.829Z" fill="#F7F5F9"/>
<path fill-rule="evenodd" clip-rule="evenodd" d="M1303.34 949.829C1301.53 949.829 1300.05 951.306 1300.05 953.123C1300.05 954.939 1301.53 956.411 1303.34 956.411C1305.15 956.411 1306.63 954.939 1306.63 953.123C1306.63 951.306 1305.15 949.829 1303.34 949.829Z" fill="#F7F5F9"/>
<path fill-rule="evenodd" clip-rule="evenodd" d="M1270.37 949.829C1268.56 949.829 1267.09 951.306 1267.09 953.123C1267.09 954.939 1268.56 956.411 1270.37 956.411C1272.19 956.411 1273.67 954.939 1273.67 953.123C1273.67 951.306 1272.19 949.829 1270.37 949.829Z" fill="#F7F5F9"/>
<path fill-rule="evenodd" clip-rule="evenodd" d="M1237.41 949.829C1235.59 949.829 1234.12 951.306 1234.12 953.123C1234.12 954.939 1235.59 956.411 1237.41 956.411C1239.22 956.411 1240.7 954.939 1240.7 953.123C1240.7 951.306 1239.22 949.829 1237.41 949.829Z" fill="#F7F5F9"/>
<path fill-rule="evenodd" clip-rule="evenodd" d="M1402.23 916.842C1400.42 916.842 1398.94 918.314 1398.94 920.136C1398.94 921.952 1400.42 923.429 1402.23 923.429C1404.05 923.429 1405.53 921.952 1405.53 920.136C1405.53 918.314 1404.05 916.842 1402.23 916.842Z" fill="#F7F5F9"/>
<path fill-rule="evenodd" clip-rule="evenodd" d="M1369.28 916.842C1367.46 916.842 1365.98 918.314 1365.98 920.136C1365.98 921.952 1367.46 923.429 1369.28 923.429C1371.09 923.429 1372.56 921.952 1372.56 920.136C1372.56 918.314 1371.09 916.842 1369.28 916.842Z" fill="#F7F5F9"/>
<path fill-rule="evenodd" clip-rule="evenodd" d="M1336.31 916.842C1334.49 916.842 1333.02 918.314 1333.02 920.136C1333.02 921.952 1334.49 923.429 1336.31 923.429C1338.12 923.429 1339.6 921.952 1339.6 920.136C1339.6 918.314 1338.12 916.842 1336.31 916.842Z" fill="#F7F5F9"/>
<path fill-rule="evenodd" clip-rule="evenodd" d="M1303.34 916.842C1301.53 916.842 1300.05 918.314 1300.05 920.136C1300.05 921.952 1301.53 923.429 1303.34 923.429C1305.15 923.429 1306.63 921.952 1306.63 920.136C1306.63 918.314 1305.15 916.842 1303.34 916.842Z" fill="#F7F5F9"/>
<path fill-rule="evenodd" clip-rule="evenodd" d="M1270.37 916.842C1268.56 916.842 1267.09 918.314 1267.09 920.136C1267.09 921.952 1268.56 923.429 1270.37 923.429C1272.19 923.429 1273.67 921.952 1273.67 920.136C1273.67 918.314 1272.19 916.842 1270.37 916.842Z" fill="#F7F5F9"/>
<path fill-rule="evenodd" clip-rule="evenodd" d="M1237.41 916.842C1235.59 916.842 1234.12 918.314 1234.12 920.136C1234.12 921.952 1235.59 923.429 1237.41 923.429C1239.22 923.429 1240.7 921.952 1240.7 920.136C1240.7 918.314 1239.22 916.842 1237.41 916.842Z" fill="#F7F5F9"/>
<path fill-rule="evenodd" clip-rule="evenodd" d="M1402.23 883.849C1400.42 883.849 1398.94 885.321 1398.94 887.143C1398.94 888.964 1400.42 890.437 1402.23 890.437C1404.05 890.437 1405.53 888.964 1405.53 887.143C1405.53 885.321 1404.05 883.849 1402.23 883.849Z" fill="#F7F5F9"/>
<path fill-rule="evenodd" clip-rule="evenodd" d="M1369.28 883.849C1367.46 883.849 1365.98 885.321 1365.98 887.143C1365.98 888.964 1367.46 890.437 1369.28 890.437C1371.09 890.437 1372.56 888.964 1372.56 887.143C1372.56 885.321 1371.09 883.849 1369.28 883.849Z" fill="#F7F5F9"/>
<path fill-rule="evenodd" clip-rule="evenodd" d="M1336.31 883.849C1334.49 883.849 1333.02 885.321 1333.02 887.143C1333.02 888.964 1334.49 890.437 1336.31 890.437C1338.12 890.437 1339.6 888.964 1339.6 887.143C1339.6 885.321 1338.12 883.849 1336.31 883.849Z" fill="#F7F5F9"/>
<path fill-rule="evenodd" clip-rule="evenodd" d="M1303.34 883.849C1301.53 883.849 1300.05 885.321 1300.05 887.143C1300.05 888.964 1301.53 890.437 1303.34 890.437C1305.15 890.437 1306.63 888.964 1306.63 887.143C1306.63 885.321 1305.15 883.849 1303.34 883.849Z" fill="#F7F5F9"/>
<path fill-rule="evenodd" clip-rule="evenodd" d="M1270.37 883.849C1268.56 883.849 1267.09 885.321 1267.09 887.143C1267.09 888.964 1268.56 890.437 1270.37 890.437C1272.19 890.437 1273.67 888.964 1273.67 887.143C1273.67 885.321 1272.19 883.849 1270.37 883.849Z" fill="#F7F5F9"/>
<path fill-rule="evenodd" clip-rule="evenodd" d="M1237.41 883.849C1235.59 883.849 1234.12 885.321 1234.12 887.143C1234.12 888.964 1235.59 890.437 1237.41 890.437C1239.22 890.437 1240.7 888.964 1240.7 887.143C1240.7 885.321 1239.22 883.849 1237.41 883.849Z" fill="#F7F5F9"/>
<path fill-rule="evenodd" clip-rule="evenodd" d="M1402.23 850.862C1400.42 850.862 1398.94 852.339 1398.94 854.155C1398.94 855.972 1400.42 857.449 1402.23 857.449C1404.05 857.449 1405.53 855.972 1405.53 854.155C1405.53 852.339 1404.05 850.862 1402.23 850.862Z" fill="#F7F5F9"/>
<path fill-rule="evenodd" clip-rule="evenodd" d="M1369.28 850.862C1367.46 850.862 1365.98 852.339 1365.98 854.155C1365.98 855.972 1367.46 857.449 1369.28 857.449C1371.09 857.449 1372.56 855.972 1372.56 854.155C1372.56 852.339 1371.09 850.862 1369.28 850.862Z" fill="#F7F5F9"/>
<path fill-rule="evenodd" clip-rule="evenodd" d="M1336.31 850.862C1334.49 850.862 1333.02 852.339 1333.02 854.155C1333.02 855.972 1334.49 857.449 1336.31 857.449C1338.12 857.449 1339.6 855.972 1339.6 854.155C1339.6 852.339 1338.12 850.862 1336.31 850.862Z" fill="#F7F5F9"/>
<path fill-rule="evenodd" clip-rule="evenodd" d="M1303.34 850.862C1301.53 850.862 1300.05 852.339 1300.05 854.155C1300.05 855.972 1301.53 857.449 1303.34 857.449C1305.15 857.449 1306.63 855.972 1306.63 854.155C1306.63 852.339 1305.15 850.862 1303.34 850.862Z" fill="#F7F5F9"/>
<path fill-rule="evenodd" clip-rule="evenodd" d="M1270.37 850.862C1268.56 850.862 1267.09 852.339 1267.09 854.155C1267.09 855.972 1268.56 857.449 1270.37 857.449C1272.19 857.449 1273.67 855.972 1273.67 854.155C1273.67 852.339 1272.19 850.862 1270.37 850.862Z" fill="#F7F5F9"/>
<path fill-rule="evenodd" clip-rule="evenodd" d="M1237.41 850.862C1235.59 850.862 1234.12 852.339 1234.12 854.155C1234.12 855.972 1235.59 857.449 1237.41 857.449C1239.22 857.449 1240.7 855.972 1240.7 854.155C1240.7 852.339 1239.22 850.862 1237.41 850.862Z" fill="#F7F5F9"/>
<path fill-rule="evenodd" clip-rule="evenodd" d="M1402.23 817.874C1400.42 817.874 1398.94 819.346 1398.94 821.168C1398.94 822.989 1400.42 824.461 1402.23 824.461C1404.05 824.461 1405.53 822.989 1405.53 821.168C1405.53 819.346 1404.05 817.874 1402.23 817.874Z" fill="#F7F5F9"/>
<path fill-rule="evenodd" clip-rule="evenodd" d="M1369.28 817.874C1367.46 817.874 1365.98 819.346 1365.98 821.168C1365.98 822.989 1367.46 824.461 1369.28 824.461C1371.09 824.461 1372.56 822.989 1372.56 821.168C1372.56 819.346 1371.09 817.874 1369.28 817.874Z" fill="#F7F5F9"/>
<path fill-rule="evenodd" clip-rule="evenodd" d="M1336.31 817.874C1334.49 817.874 1333.02 819.346 1333.02 821.168C1333.02 822.989 1334.49 824.461 1336.31 824.461C1338.12 824.461 1339.6 822.989 1339.6 821.168C1339.6 819.346 1338.12 817.874 1336.31 817.874Z" fill="#F7F5F9"/>
<path fill-rule="evenodd" clip-rule="evenodd" d="M1303.34 817.874C1301.53 817.874 1300.05 819.346 1300.05 821.168C1300.05 822.989 1301.53 824.461 1303.34 824.461C1305.15 824.461 1306.63 822.989 1306.63 821.168C1306.63 819.346 1305.15 817.874 1303.34 817.874Z" fill="#F7F5F9"/>
<path fill-rule="evenodd" clip-rule="evenodd" d="M1270.37 817.874C1268.56 817.874 1267.09 819.346 1267.09 821.168C1267.09 822.989 1268.56 824.461 1270.37 824.461C1272.19 824.461 1273.67 822.989 1273.67 821.168C1273.67 819.346 1272.19 817.874 1270.37 817.874Z" fill="#F7F5F9"/>
<path fill-rule="evenodd" clip-rule="evenodd" d="M1237.41 817.874C1235.59 817.874 1234.12 819.346 1234.12 821.168C1234.12 822.989 1235.59 824.461 1237.41 824.461C1239.22 824.461 1240.7 822.989 1240.7 821.168C1240.7 819.346 1239.22 817.874 1237.41 817.874Z" fill="#F7F5F9"/>
<path fill-rule="evenodd" clip-rule="evenodd" d="M1402.23 784.882C1400.42 784.882 1398.94 786.359 1398.94 788.175C1398.94 789.997 1400.42 791.469 1402.23 791.469C1404.05 791.469 1405.53 789.997 1405.53 788.175C1405.53 786.359 1404.05 784.882 1402.23 784.882Z" fill="#F7F5F9"/>
<path fill-rule="evenodd" clip-rule="evenodd" d="M1369.28 784.882C1367.46 784.882 1365.98 786.359 1365.98 788.175C1365.98 789.997 1367.46 791.469 1369.28 791.469C1371.09 791.469 1372.56 789.997 1372.56 788.175C1372.56 786.359 1371.09 784.882 1369.28 784.882Z" fill="#F7F5F9"/>
<path fill-rule="evenodd" clip-rule="evenodd" d="M1336.31 784.882C1334.49 784.882 1333.02 786.359 1333.02 788.175C1333.02 789.997 1334.49 791.469 1336.31 791.469C1338.12 791.469 1339.6 789.997 1339.6 788.175C1339.6 786.359 1338.12 784.882 1336.31 784.882Z" fill="#F7F5F9"/>
<path fill-rule="evenodd" clip-rule="evenodd" d="M1303.34 784.882C1301.53 784.882 1300.05 786.359 1300.05 788.175C1300.05 789.997 1301.53 791.469 1303.34 791.469C1305.15 791.469 1306.63 789.997 1306.63 788.175C1306.63 786.359 1305.15 784.882 1303.34 784.882Z" fill="#F7F5F9"/>
<path fill-rule="evenodd" clip-rule="evenodd" d="M1270.37 784.882C1268.56 784.882 1267.09 786.359 1267.09 788.175C1267.09 789.997 1268.56 791.469 1270.37 791.469C1272.19 791.469 1273.67 789.997 1273.67 788.175C1273.67 786.359 1272.19 784.882 1270.37 784.882Z" fill="#F7F5F9"/>
<path fill-rule="evenodd" clip-rule="evenodd" d="M1237.41 784.882C1235.59 784.882 1234.12 786.359 1234.12 788.175C1234.12 789.997 1235.59 791.469 1237.41 791.469C1239.22 791.469 1240.7 789.997 1240.7 788.175C1240.7 786.359 1239.22 784.882 1237.41 784.882Z" fill="#F7F5F9"/>
<path fill-rule="evenodd" clip-rule="evenodd" d="M1402.23 751.899C1400.42 751.899 1398.94 753.371 1398.94 755.192C1398.94 757.004 1400.42 758.486 1402.23 758.486C1404.05 758.486 1405.53 757.004 1405.53 755.192C1405.53 753.371 1404.05 751.899 1402.23 751.899Z" fill="#F7F5F9"/>
<path fill-rule="evenodd" clip-rule="evenodd" d="M1369.28 751.899C1367.46 751.899 1365.98 753.371 1365.98 755.192C1365.98 757.004 1367.46 758.486 1369.28 758.486C1371.09 758.486 1372.56 757.004 1372.56 755.192C1372.56 753.371 1371.09 751.899 1369.28 751.899Z" fill="#F7F5F9"/>
<path fill-rule="evenodd" clip-rule="evenodd" d="M1336.31 751.899C1334.49 751.899 1333.02 753.371 1333.02 755.192C1333.02 757.004 1334.49 758.486 1336.31 758.486C1338.12 758.486 1339.6 757.004 1339.6 755.192C1339.6 753.371 1338.12 751.899 1336.31 751.899Z" fill="#F7F5F9"/>
<path fill-rule="evenodd" clip-rule="evenodd" d="M1303.34 751.899C1301.53 751.899 1300.05 753.371 1300.05 755.192C1300.05 757.004 1301.53 758.486 1303.34 758.486C1305.15 758.486 1306.63 757.004 1306.63 755.192C1306.63 753.371 1305.15 751.899 1303.34 751.899Z" fill="#F7F5F9"/>
<path fill-rule="evenodd" clip-rule="evenodd" d="M1270.37 751.899C1268.56 751.899 1267.09 753.371 1267.09 755.192C1267.09 757.004 1268.56 758.486 1270.37 758.486C1272.19 758.486 1273.67 757.004 1273.67 755.192C1273.67 753.371 1272.19 751.899 1270.37 751.899Z" fill="#F7F5F9"/>
<path fill-rule="evenodd" clip-rule="evenodd" d="M1237.41 751.899C1235.59 751.899 1234.12 753.371 1234.12 755.192C1234.12 757.004 1235.59 758.486 1237.41 758.486C1239.22 758.486 1240.7 757.004 1240.7 755.192C1240.7 753.371 1239.22 751.899 1237.41 751.899Z" fill="#F7F5F9"/>
<path fill-rule="evenodd" clip-rule="evenodd" d="M1402.23 718.906C1400.42 718.906 1398.94 720.378 1398.94 722.2C1398.94 724.021 1400.42 725.493 1402.23 725.493C1404.05 725.493 1405.53 724.021 1405.53 722.2C1405.53 720.378 1404.05 718.906 1402.23 718.906Z" fill="#F7F5F9"/>
<path fill-rule="evenodd" clip-rule="evenodd" d="M1369.28 718.906C1367.46 718.906 1365.98 720.378 1365.98 722.2C1365.98 724.021 1367.46 725.493 1369.28 725.493C1371.09 725.493 1372.56 724.021 1372.56 722.2C1372.56 720.378 1371.09 718.906 1369.28 718.906Z" fill="#F7F5F9"/>
<path fill-rule="evenodd" clip-rule="evenodd" d="M1336.31 718.906C1334.49 718.906 1333.02 720.378 1333.02 722.2C1333.02 724.021 1334.49 725.493 1336.31 725.493C1338.12 725.493 1339.6 724.021 1339.6 722.2C1339.6 720.378 1338.12 718.906 1336.31 718.906Z" fill="#F7F5F9"/>
<path fill-rule="evenodd" clip-rule="evenodd" d="M1303.34 718.906C1301.53 718.906 1300.05 720.378 1300.05 722.2C1300.05 724.021 1301.53 725.493 1303.34 725.493C1305.15 725.493 1306.63 724.021 1306.63 722.2C1306.63 720.378 1305.15 718.906 1303.34 718.906Z" fill="#F7F5F9"/>
<path fill-rule="evenodd" clip-rule="evenodd" d="M1270.37 718.906C1268.56 718.906 1267.09 720.378 1267.09 722.2C1267.09 724.021 1268.56 725.493 1270.37 725.493C1272.19 725.493 1273.67 724.021 1273.67 722.2C1273.67 720.378 1272.19 718.906 1270.37 718.906Z" fill="#F7F5F9"/>
<path fill-rule="evenodd" clip-rule="evenodd" d="M1237.41 718.906C1235.59 718.906 1234.12 720.378 1234.12 722.2C1234.12 724.021 1235.59 725.493 1237.41 725.493C1239.22 725.493 1240.7 724.021 1240.7 722.2C1240.7 720.378 1239.22 718.906 1237.41 718.906Z" fill="#F7F5F9"/>
<path fill-rule="evenodd" clip-rule="evenodd" d="M1402.23 685.919C1400.42 685.919 1398.94 687.396 1398.94 689.207C1398.94 691.029 1400.42 692.501 1402.23 692.501C1404.05 692.501 1405.53 691.029 1405.53 689.207C1405.53 687.396 1404.05 685.919 1402.23 685.919Z" fill="#F7F5F9"/>
<path fill-rule="evenodd" clip-rule="evenodd" d="M1369.28 685.919C1367.46 685.919 1365.98 687.396 1365.98 689.207C1365.98 691.029 1367.46 692.501 1369.28 692.501C1371.09 692.501 1372.56 691.029 1372.56 689.207C1372.56 687.396 1371.09 685.919 1369.28 685.919Z" fill="#F7F5F9"/>
<path fill-rule="evenodd" clip-rule="evenodd" d="M1336.31 685.919C1334.49 685.919 1333.02 687.396 1333.02 689.207C1333.02 691.029 1334.49 692.501 1336.31 692.501C1338.12 692.501 1339.6 691.029 1339.6 689.207C1339.6 687.396 1338.12 685.919 1336.31 685.919Z" fill="#F7F5F9"/>
<path fill-rule="evenodd" clip-rule="evenodd" d="M1303.34 685.919C1301.53 685.919 1300.05 687.396 1300.05 689.207C1300.05 691.029 1301.53 692.501 1303.34 692.501C1305.15 692.501 1306.63 691.029 1306.63 689.207C1306.63 687.396 1305.15 685.919 1303.34 685.919Z" fill="#F7F5F9"/>
<path fill-rule="evenodd" clip-rule="evenodd" d="M1270.37 685.919C1268.56 685.919 1267.09 687.396 1267.09 689.207C1267.09 691.029 1268.56 692.501 1270.37 692.501C1272.19 692.501 1273.67 691.029 1273.67 689.207C1273.67 687.396 1272.19 685.919 1270.37 685.919Z" fill="#F7F5F9"/>
<path fill-rule="evenodd" clip-rule="evenodd" d="M1237.41 685.919C1235.59 685.919 1234.12 687.396 1234.12 689.207C1234.12 691.029 1235.59 692.501 1237.41 692.501C1239.22 692.501 1240.7 691.029 1240.7 689.207C1240.7 687.396 1239.22 685.919 1237.41 685.919Z" fill="#F7F5F9"/>
<path fill-rule="evenodd" clip-rule="evenodd" d="M1402.23 652.931C1400.42 652.931 1398.94 654.403 1398.94 656.224C1398.94 658.041 1400.42 659.518 1402.23 659.518C1404.05 659.518 1405.53 658.041 1405.53 656.224C1405.53 654.403 1404.05 652.931 1402.23 652.931Z" fill="#F7F5F9"/>
<path fill-rule="evenodd" clip-rule="evenodd" d="M1369.28 652.931C1367.46 652.931 1365.98 654.403 1365.98 656.224C1365.98 658.041 1367.46 659.518 1369.28 659.518C1371.09 659.518 1372.56 658.041 1372.56 656.224C1372.56 654.403 1371.09 652.931 1369.28 652.931Z" fill="#F7F5F9"/>
<path fill-rule="evenodd" clip-rule="evenodd" d="M1336.31 652.931C1334.49 652.931 1333.02 654.403 1333.02 656.224C1333.02 658.041 1334.49 659.518 1336.31 659.518C1338.12 659.518 1339.6 658.041 1339.6 656.224C1339.6 654.403 1338.12 652.931 1336.31 652.931Z" fill="#F7F5F9"/>
<path fill-rule="evenodd" clip-rule="evenodd" d="M1303.34 652.931C1301.53 652.931 1300.05 654.403 1300.05 656.224C1300.05 658.041 1301.53 659.518 1303.34 659.518C1305.15 659.518 1306.63 658.041 1306.63 656.224C1306.63 654.403 1305.15 652.931 1303.34 652.931Z" fill="#F7F5F9"/>
<path fill-rule="evenodd" clip-rule="evenodd" d="M1270.37 652.931C1268.56 652.931 1267.09 654.403 1267.09 656.224C1267.09 658.041 1268.56 659.518 1270.37 659.518C1272.19 659.518 1273.67 658.041 1273.67 656.224C1273.67 654.403 1272.19 652.931 1270.37 652.931Z" fill="#F7F5F9"/>
<path fill-rule="evenodd" clip-rule="evenodd" d="M1237.41 652.931C1235.59 652.931 1234.12 654.403 1234.12 656.224C1234.12 658.041 1235.59 659.518 1237.41 659.518C1239.22 659.518 1240.7 658.041 1240.7 656.224C1240.7 654.403 1239.22 652.931 1237.41 652.931Z" fill="#F7F5F9"/>
<path fill-rule="evenodd" clip-rule="evenodd" d="M1402.23 619.939C1400.42 619.939 1398.94 621.411 1398.94 623.232C1398.94 625.054 1400.42 626.526 1402.23 626.526C1404.05 626.526 1405.53 625.054 1405.53 623.232C1405.53 621.411 1404.05 619.939 1402.23 619.939Z" fill="#F7F5F9"/>
<path fill-rule="evenodd" clip-rule="evenodd" d="M1369.28 619.939C1367.46 619.939 1365.98 621.411 1365.98 623.232C1365.98 625.054 1367.46 626.526 1369.28 626.526C1371.09 626.526 1372.56 625.054 1372.56 623.232C1372.56 621.411 1371.09 619.939 1369.28 619.939Z" fill="#F7F5F9"/>
<path fill-rule="evenodd" clip-rule="evenodd" d="M1336.31 619.939C1334.49 619.939 1333.02 621.411 1333.02 623.232C1333.02 625.054 1334.49 626.526 1336.31 626.526C1338.12 626.526 1339.6 625.054 1339.6 623.232C1339.6 621.411 1338.12 619.939 1336.31 619.939Z" fill="#F7F5F9"/>
<path fill-rule="evenodd" clip-rule="evenodd" d="M1303.34 619.939C1301.53 619.939 1300.05 621.411 1300.05 623.232C1300.05 625.054 1301.53 626.526 1303.34 626.526C1305.15 626.526 1306.63 625.054 1306.63 623.232C1306.63 621.411 1305.15 619.939 1303.34 619.939Z" fill="#F7F5F9"/>
<path fill-rule="evenodd" clip-rule="evenodd" d="M1270.37 619.939C1268.56 619.939 1267.09 621.411 1267.09 623.232C1267.09 625.054 1268.56 626.526 1270.37 626.526C1272.19 626.526 1273.67 625.054 1273.67 623.232C1273.67 621.411 1272.19 619.939 1270.37 619.939Z" fill="#F7F5F9"/>
<path fill-rule="evenodd" clip-rule="evenodd" d="M1237.41 619.939C1235.59 619.939 1234.12 621.411 1234.12 623.232C1234.12 625.054 1235.59 626.526 1237.41 626.526C1239.22 626.526 1240.7 625.054 1240.7 623.232C1240.7 621.411 1239.22 619.939 1237.41 619.939Z" fill="#F7F5F9"/>
<path fill-rule="evenodd" clip-rule="evenodd" d="M1402.23 586.951C1400.42 586.951 1398.94 588.428 1398.94 590.245C1398.94 592.061 1400.42 593.538 1402.23 593.538C1404.05 593.538 1405.53 592.061 1405.53 590.245C1405.53 588.428 1404.05 586.951 1402.23 586.951Z" fill="#F7F5F9"/>
<path fill-rule="evenodd" clip-rule="evenodd" d="M1369.28 586.951C1367.46 586.951 1365.98 588.428 1365.98 590.245C1365.98 592.061 1367.46 593.538 1369.28 593.538C1371.09 593.538 1372.56 592.061 1372.56 590.245C1372.56 588.428 1371.09 586.951 1369.28 586.951Z" fill="#F7F5F9"/>
<path fill-rule="evenodd" clip-rule="evenodd" d="M1336.31 586.951C1334.49 586.951 1333.02 588.428 1333.02 590.245C1333.02 592.061 1334.49 593.538 1336.31 593.538C1338.12 593.538 1339.6 592.061 1339.6 590.245C1339.6 588.428 1338.12 586.951 1336.31 586.951Z" fill="#F7F5F9"/>
<path fill-rule="evenodd" clip-rule="evenodd" d="M1303.34 586.951C1301.53 586.951 1300.05 588.428 1300.05 590.245C1300.05 592.061 1301.53 593.538 1303.34 593.538C1305.15 593.538 1306.63 592.061 1306.63 590.245C1306.63 588.428 1305.15 586.951 1303.34 586.951Z" fill="#F7F5F9"/>
<path fill-rule="evenodd" clip-rule="evenodd" d="M1270.37 586.951C1268.56 586.951 1267.09 588.428 1267.09 590.245C1267.09 592.061 1268.56 593.538 1270.37 593.538C1272.19 593.538 1273.67 592.061 1273.67 590.245C1273.67 588.428 1272.19 586.951 1270.37 586.951Z" fill="#F7F5F9"/>
<path fill-rule="evenodd" clip-rule="evenodd" d="M1237.41 586.951C1235.59 586.951 1234.12 588.428 1234.12 590.245C1234.12 592.061 1235.59 593.538 1237.41 593.538C1239.22 593.538 1240.7 592.061 1240.7 590.245C1240.7 588.428 1239.22 586.951 1237.41 586.951Z" fill="#F7F5F9"/>
<path fill-rule="evenodd" clip-rule="evenodd" d="M1402.23 553.964C1400.42 553.964 1398.94 555.436 1398.94 557.257C1398.94 559.079 1400.42 560.551 1402.23 560.551C1404.05 560.551 1405.53 559.079 1405.53 557.257C1405.53 555.436 1404.05 553.964 1402.23 553.964Z" fill="#F7F5F9"/>
<path fill-rule="evenodd" clip-rule="evenodd" d="M1369.28 553.964C1367.46 553.964 1365.98 555.436 1365.98 557.257C1365.98 559.079 1367.46 560.551 1369.28 560.551C1371.09 560.551 1372.56 559.079 1372.56 557.257C1372.56 555.436 1371.09 553.964 1369.28 553.964Z" fill="#F7F5F9"/>
<path fill-rule="evenodd" clip-rule="evenodd" d="M1336.31 553.964C1334.49 553.964 1333.02 555.436 1333.02 557.257C1333.02 559.079 1334.49 560.551 1336.31 560.551C1338.12 560.551 1339.6 559.079 1339.6 557.257C1339.6 555.436 1338.12 553.964 1336.31 553.964Z" fill="#F7F5F9"/>
<path fill-rule="evenodd" clip-rule="evenodd" d="M1303.34 553.964C1301.53 553.964 1300.05 555.436 1300.05 557.257C1300.05 559.079 1301.53 560.551 1303.34 560.551C1305.15 560.551 1306.63 559.079 1306.63 557.257C1306.63 555.436 1305.15 553.964 1303.34 553.964Z" fill="#F7F5F9"/>
<path fill-rule="evenodd" clip-rule="evenodd" d="M1270.37 553.964C1268.56 553.964 1267.09 555.436 1267.09 557.257C1267.09 559.079 1268.56 560.551 1270.37 560.551C1272.19 560.551 1273.67 559.079 1273.67 557.257C1273.67 555.436 1272.19 553.964 1270.37 553.964Z" fill="#F7F5F9"/>
<path fill-rule="evenodd" clip-rule="evenodd" d="M1237.41 553.964C1235.59 553.964 1234.12 555.436 1234.12 557.257C1234.12 559.079 1235.59 560.551 1237.41 560.551C1239.22 560.551 1240.7 559.079 1240.7 557.257C1240.7 555.436 1239.22 553.964 1237.41 553.964Z" fill="#F7F5F9"/>
<path fill-rule="evenodd" clip-rule="evenodd" d="M1402.23 520.971C1400.42 520.971 1398.94 522.448 1398.94 524.264C1398.94 526.086 1400.42 527.558 1402.23 527.558C1404.05 527.558 1405.53 526.086 1405.53 524.264C1405.53 522.448 1404.05 520.971 1402.23 520.971Z" fill="#F7F5F9"/>
<path fill-rule="evenodd" clip-rule="evenodd" d="M1369.28 520.971C1367.46 520.971 1365.98 522.448 1365.98 524.264C1365.98 526.086 1367.46 527.558 1369.28 527.558C1371.09 527.558 1372.56 526.086 1372.56 524.264C1372.56 522.448 1371.09 520.971 1369.28 520.971Z" fill="#F7F5F9"/>
<path fill-rule="evenodd" clip-rule="evenodd" d="M1336.31 520.971C1334.49 520.971 1333.02 522.448 1333.02 524.264C1333.02 526.086 1334.49 527.558 1336.31 527.558C1338.12 527.558 1339.6 526.086 1339.6 524.264C1339.6 522.448 1338.12 520.971 1336.31 520.971Z" fill="#F7F5F9"/>
<path fill-rule="evenodd" clip-rule="evenodd" d="M1303.34 520.971C1301.53 520.971 1300.05 522.448 1300.05 524.264C1300.05 526.086 1301.53 527.558 1303.34 527.558C1305.15 527.558 1306.63 526.086 1306.63 524.264C1306.63 522.448 1305.15 520.971 1303.34 520.971Z" fill="#F7F5F9"/>
<path fill-rule="evenodd" clip-rule="evenodd" d="M1270.37 520.971C1268.56 520.971 1267.09 522.448 1267.09 524.264C1267.09 526.086 1268.56 527.558 1270.37 527.558C1272.19 527.558 1273.67 526.086 1273.67 524.264C1273.67 522.448 1272.19 520.971 1270.37 520.971Z" fill="#F7F5F9"/>
<path fill-rule="evenodd" clip-rule="evenodd" d="M1237.41 520.971C1235.59 520.971 1234.12 522.448 1234.12 524.264C1234.12 526.086 1235.59 527.558 1237.41 527.558C1239.22 527.558 1240.7 526.086 1240.7 524.264C1240.7 522.448 1239.22 520.971 1237.41 520.971Z" fill="#F7F5F9"/>
<path fill-rule="evenodd" clip-rule="evenodd" d="M1402.23 487.988C1400.42 487.988 1398.94 489.461 1398.94 491.282C1398.94 493.094 1400.42 494.576 1402.23 494.576C1404.05 494.576 1405.53 493.094 1405.53 491.282C1405.53 489.461 1404.05 487.988 1402.23 487.988Z" fill="#F7F5F9"/>
<path fill-rule="evenodd" clip-rule="evenodd" d="M1369.28 487.988C1367.46 487.988 1365.98 489.461 1365.98 491.282C1365.98 493.094 1367.46 494.576 1369.28 494.576C1371.09 494.576 1372.56 493.094 1372.56 491.282C1372.56 489.461 1371.09 487.988 1369.28 487.988Z" fill="#F7F5F9"/>
<path fill-rule="evenodd" clip-rule="evenodd" d="M1336.31 487.988C1334.49 487.988 1333.02 489.461 1333.02 491.282C1333.02 493.094 1334.49 494.576 1336.31 494.576C1338.12 494.576 1339.6 493.094 1339.6 491.282C1339.6 489.461 1338.12 487.988 1336.31 487.988Z" fill="#F7F5F9"/>
<path fill-rule="evenodd" clip-rule="evenodd" d="M1303.34 487.988C1301.53 487.988 1300.05 489.461 1300.05 491.282C1300.05 493.094 1301.53 494.576 1303.34 494.576C1305.15 494.576 1306.63 493.094 1306.63 491.282C1306.63 489.461 1305.15 487.988 1303.34 487.988Z" fill="#F7F5F9"/>
<path fill-rule="evenodd" clip-rule="evenodd" d="M1270.37 487.988C1268.56 487.988 1267.09 489.461 1267.09 491.282C1267.09 493.094 1268.56 494.576 1270.37 494.576C1272.19 494.576 1273.67 493.094 1273.67 491.282C1273.67 489.461 1272.19 487.988 1270.37 487.988Z" fill="#F7F5F9"/>
<path fill-rule="evenodd" clip-rule="evenodd" d="M1237.41 487.988C1235.59 487.988 1234.12 489.461 1234.12 491.282C1234.12 493.094 1235.59 494.576 1237.41 494.576C1239.22 494.576 1240.7 493.094 1240.7 491.282C1240.7 489.461 1239.22 487.988 1237.41 487.988Z" fill="#F7F5F9"/>
<path fill-rule="evenodd" clip-rule="evenodd" d="M1402.23 454.995C1400.42 454.995 1398.94 456.467 1398.94 458.289C1398.94 460.11 1400.42 461.583 1402.23 461.583C1404.05 461.583 1405.53 460.11 1405.53 458.289C1405.53 456.467 1404.05 454.995 1402.23 454.995Z" fill="#F7F5F9"/>
<path fill-rule="evenodd" clip-rule="evenodd" d="M1369.28 454.995C1367.46 454.995 1365.98 456.467 1365.98 458.289C1365.98 460.11 1367.46 461.583 1369.28 461.583C1371.09 461.583 1372.56 460.11 1372.56 458.289C1372.56 456.467 1371.09 454.995 1369.28 454.995Z" fill="#F7F5F9"/>
<path fill-rule="evenodd" clip-rule="evenodd" d="M1336.31 454.995C1334.49 454.995 1333.02 456.467 1333.02 458.289C1333.02 460.11 1334.49 461.583 1336.31 461.583C1338.12 461.583 1339.6 460.11 1339.6 458.289C1339.6 456.467 1338.12 454.995 1336.31 454.995Z" fill="#F7F5F9"/>
<path fill-rule="evenodd" clip-rule="evenodd" d="M1303.34 454.995C1301.53 454.995 1300.05 456.467 1300.05 458.289C1300.05 460.11 1301.53 461.583 1303.34 461.583C1305.15 461.583 1306.63 460.11 1306.63 458.289C1306.63 456.467 1305.15 454.995 1303.34 454.995Z" fill="#F7F5F9"/>
<path fill-rule="evenodd" clip-rule="evenodd" d="M1270.37 454.995C1268.56 454.995 1267.09 456.467 1267.09 458.289C1267.09 460.11 1268.56 461.583 1270.37 461.583C1272.19 461.583 1273.67 460.11 1273.67 458.289C1273.67 456.467 1272.19 454.995 1270.37 454.995Z" fill="#F7F5F9"/>
<path fill-rule="evenodd" clip-rule="evenodd" d="M1237.41 454.995C1235.59 454.995 1234.12 456.467 1234.12 458.289C1234.12 460.11 1235.59 461.583 1237.41 461.583C1239.22 461.583 1240.7 460.11 1240.7 458.289C1240.7 456.467 1239.22 454.995 1237.41 454.995Z" fill="#F7F5F9"/>
<mask id="mask1" mask-type="alpha" maskUnits="userSpaceOnUse" x="1212" y="24" width="207" height="16">
<path fill-rule="evenodd" clip-rule="evenodd" d="M1418.99 39.6494H1212.74V24.4739H1418.99V39.6494Z" fill="white"/>
</mask>
<g mask="url(#mask1)">
<path fill-rule="evenodd" clip-rule="evenodd" d="M1287.11 39.6494H1287.1C1280.93 39.6494 1275.16 37.4687 1270.85 33.5114C1267.52 30.4623 1263.11 28.7855 1258.4 28.7855C1253.7 28.7855 1249.28 30.4623 1245.95 33.5114C1241.64 37.4687 1235.86 39.6494 1229.68 39.6494H1229.67C1223.5 39.6494 1217.72 37.4687 1213.41 33.5114C1212.46 32.6281 1212.53 31.2607 1213.59 30.4623C1214.65 29.6688 1216.28 29.7287 1217.24 30.607C1220.56 33.6561 1224.97 35.3328 1229.67 35.3328H1229.68C1234.38 35.3328 1238.8 33.6561 1242.13 30.607C1246.45 26.6497 1252.23 24.4739 1258.4 24.4739C1264.58 24.4739 1270.36 26.6497 1274.67 30.607C1277.99 33.6561 1282.4 35.3328 1287.1 35.3328H1287.11C1291.81 35.3328 1296.24 33.6561 1299.57 30.607C1303.88 26.6497 1309.65 24.4739 1315.83 24.4739H1315.84C1322.01 24.4739 1327.79 26.6497 1332.11 30.607C1338.76 36.7051 1350.36 36.7051 1357.03 30.607C1361.34 26.6497 1367.12 24.4739 1373.3 24.4739C1379.48 24.4739 1385.27 26.6497 1389.58 30.607C1392.9 33.6561 1397.32 35.3328 1402.03 35.3328H1402.04C1406.74 35.3328 1411.16 33.6561 1414.49 30.607C1415.46 29.7287 1417.09 29.6589 1418.15 30.4673C1419.2 31.2657 1419.28 32.6331 1418.31 33.5114C1413.99 37.4687 1408.21 39.6494 1402.04 39.6494H1402.03C1395.85 39.6494 1390.07 37.4687 1385.75 33.5114C1382.43 30.4623 1378.01 28.7855 1373.3 28.7855C1368.59 28.7855 1364.17 30.4623 1360.84 33.5114C1352.21 41.421 1336.92 41.421 1328.29 33.5114C1324.96 30.4623 1320.54 28.7855 1315.84 28.7855H1315.83C1311.13 28.7855 1306.71 30.4623 1303.38 33.5114C1299.06 37.4687 1293.29 39.6494 1287.11 39.6494Z" fill="#F7F5F9"/>
</g>
<path fill-rule="evenodd" clip-rule="evenodd" d="M1287.11 4.34766H1287.1C1280.93 4.34766 1275.15 2.1669 1270.85 -1.7904C1267.52 -4.83947 1263.11 -6.51621 1258.4 -6.51621C1253.7 -6.51621 1249.27 -4.83947 1245.95 -1.7904C1241.64 2.1669 1235.86 4.34766 1229.68 4.34766H1229.67C1223.5 4.34766 1217.72 2.1669 1213.41 -1.7904C1212.46 -2.67368 1212.53 -4.04102 1213.59 -4.83947C1214.65 -5.63293 1216.28 -5.57304 1217.24 -4.69475C1220.56 -1.64568 1224.97 0.031054 1229.67 0.031054H1229.68C1234.38 0.031054 1238.8 -1.64568 1242.13 -4.69475C1246.45 -8.65205 1252.23 -10.8278 1258.4 -10.8278C1264.58 -10.8278 1270.36 -8.65205 1274.67 -4.69475C1277.99 -1.64568 1282.4 0.031054 1287.1 0.031054H1287.11C1291.81 0.031054 1296.23 -1.64568 1299.56 -4.69475C1303.88 -8.65205 1309.65 -10.8278 1315.83 -10.8278H1315.84C1322.01 -10.8278 1327.79 -8.65205 1332.11 -4.69475C1338.76 1.40338 1350.36 1.40338 1357.03 -4.69475C1361.33 -8.65205 1367.12 -10.8278 1373.3 -10.8278C1379.48 -10.8278 1385.27 -8.65205 1389.58 -4.69475C1392.9 -1.64568 1397.32 0.031054 1402.03 0.031054H1402.04C1406.74 0.031054 1411.16 -1.64568 1414.49 -4.69475C1415.46 -5.57304 1417.09 -5.64291 1418.14 -4.83448C1419.2 -4.03603 1419.27 -2.66869 1418.31 -1.7904C1413.99 2.1669 1408.21 4.34766 1402.04 4.34766H1402.03C1395.85 4.34766 1390.07 2.1669 1385.75 -1.7904C1382.43 -4.83947 1378.01 -6.51621 1373.3 -6.51621C1368.59 -6.51621 1364.17 -4.83947 1360.84 -1.7904C1352.21 6.11921 1336.92 6.11921 1328.29 -1.7904C1324.96 -4.83947 1320.54 -6.51621 1315.84 -6.51621H1315.83C1311.13 -6.51621 1306.71 -4.83947 1303.38 -1.7904C1299.06 2.1669 1293.29 4.34766 1287.11 4.34766Z" fill="#F7F5F9"/>
</g>
<g opacity="0.5">
<path d="M1347.68 1311.55C1342.09 1307.95 1334.61 1309.54 1330.99 1315.17C1327.4 1320.76 1328.99 1328.24 1334.61 1331.87C1340.2 1335.46 1347.68 1333.87 1351.3 1328.24C1354.92 1322.62 1353.26 1315.15 1347.68 1311.55Z" fill="#F7F5F9"/>
<path d="M1233.05 1461.72C1230.68 1460.19 1227.56 1460.87 1226.03 1463.24C1224.5 1465.62 1225.18 1468.74 1227.55 1470.27C1229.93 1471.8 1233.05 1471.12 1234.58 1468.74C1236.08 1466.41 1235.43 1463.25 1233.05 1461.72Z" fill="#F7F5F9"/>
<path d="M1353.16 1398.99C1350.79 1397.46 1347.64 1398.17 1346.14 1400.51C1344.61 1402.89 1345.33 1406.03 1347.66 1407.54C1350.04 1409.07 1353.18 1408.35 1354.68 1406.01C1356.19 1403.67 1355.53 1400.52 1353.16 1398.99Z" fill="#F7F5F9"/>
<path d="M1397.32 1176.68C1394.95 1175.15 1391.8 1175.87 1390.3 1178.21C1388.77 1180.58 1389.45 1183.7 1391.82 1185.23C1394.2 1186.76 1397.32 1186.08 1398.84 1183.71C1400.37 1181.33 1399.66 1178.19 1397.32 1176.68Z" fill="#F7F5F9"/>
<path d="M1406.2 1527.53C1400.61 1523.94 1393.14 1525.53 1389.52 1531.16C1385.92 1536.75 1387.52 1544.23 1393.14 1547.85C1398.73 1551.45 1406.2 1549.86 1409.82 1544.23C1413.44 1538.6 1411.82 1531.16 1406.2 1527.53Z" fill="#F7F5F9"/>
<path d="M1392.95 1372.37L1373.09 1371.36L1372.68 1379.39L1392.54 1380.4L1392.95 1372.37Z" fill="#F7F5F9"/>
<path d="M1282.58 1448.04L1280.24 1467.82L1288.24 1468.79L1290.58 1449.01L1282.58 1448.04Z" fill="#F7F5F9"/>
<path d="M1343.13 1250.14L1335.15 1249.19L1332.81 1268.95L1340.78 1269.9L1343.13 1250.14Z" fill="#F7F5F9"/>
<path d="M1340.89 1527.22L1321.03 1526.16L1320.6 1534.19L1340.46 1535.25L1340.89 1527.22Z" fill="#F7F5F9"/>
<path d="M1482.93 1415.58L1497.93 1405.66L1493.52 1398.95L1482.54 1406.24L1468.85 1398.77L1455.85 1407.35L1442.17 1399.88L1429.18 1408.52L1415.5 1401.05L1402.5 1409.62L1390.95 1403.33L1387.11 1410.36L1402.93 1418.99L1415.89 1410.39L1429.58 1417.86L1442.58 1409.29L1456.26 1416.75L1469.25 1408.12L1482.93 1415.58Z" fill="#F7F5F9"/>
<path d="M1361.65 1492.75L1370.22 1488.97L1357.69 1480.12L1359.64 1464.64L1346.92 1455.68L1348.55 1442.62L1340.59 1441.58L1338.32 1459.49L1351.06 1468.42L1349.11 1483.9L1361.65 1492.75Z" fill="#F7F5F9"/>
<path d="M1351.14 1212.93L1356.22 1205.03L1340.88 1204.56L1339.93 1202.66L1334.85 1210.55L1335.8 1212.45L1351.14 1212.93Z" fill="#F7F5F9"/>
<path d="M1415.45 1305.48L1406.87 1318.51L1415.51 1334.3L1422.56 1330.47L1416.26 1318.92L1424.84 1305.9L1417.38 1292.21L1425.93 1279.22L1418.47 1265.53L1427.05 1252.5L1419.57 1238.85L1426.85 1227.84L1420.15 1223.41L1410.21 1238.46L1417.7 1252.11L1409.08 1265.11L1416.58 1278.83L1407.96 1291.83L1415.45 1305.48Z" fill="#F7F5F9"/>
<path d="M1291.99 1369.1L1284.17 1370.93L1289.5 1393.74L1297.32 1391.91L1291.99 1369.1Z" fill="#F7F5F9"/>
<path d="M1210.71 1726.38C1216.3 1729.98 1223.77 1728.39 1227.39 1722.76C1230.99 1717.17 1229.39 1709.69 1223.77 1706.07C1218.18 1702.47 1210.71 1704.06 1207.09 1709.69C1203.51 1715.34 1205.12 1722.79 1210.71 1726.38Z" fill="#F7F5F9"/>
<path d="M1203.45 1526.46C1209.04 1530.06 1216.52 1528.47 1220.14 1522.84C1223.73 1517.25 1222.14 1509.77 1216.52 1506.15C1210.93 1502.55 1203.45 1504.14 1199.83 1509.77C1196.21 1515.4 1197.83 1522.84 1203.45 1526.46Z" fill="#F7F5F9"/>
<path d="M1085.7 1719C1080.11 1715.4 1072.63 1717 1069.02 1722.62C1065.42 1728.21 1067.01 1735.7 1072.64 1739.32C1078.22 1742.91 1085.7 1741.32 1089.32 1735.7C1092.94 1730.07 1091.29 1722.6 1085.7 1719Z" fill="#F7F5F9"/>
<path d="M1243.75 1973.65C1238.16 1970.05 1230.69 1971.64 1227.07 1977.27C1223.47 1982.86 1225.06 1990.34 1230.69 1993.97C1236.27 1997.56 1243.75 1995.97 1247.37 1990.34C1250.99 1984.72 1249.34 1977.25 1243.75 1973.65Z" fill="#F7F5F9"/>
<path d="M1154.97 1864.15C1152.6 1862.62 1149.45 1863.33 1147.95 1865.67C1146.42 1868.05 1147.1 1871.17 1149.47 1872.7C1151.85 1874.23 1154.97 1873.55 1156.49 1871.17C1158.02 1868.8 1157.34 1865.68 1154.97 1864.15Z" fill="#F7F5F9"/>
<path d="M971.051 1869.21C968.677 1867.68 965.557 1868.36 964.03 1870.73C962.503 1873.11 963.181 1876.23 965.555 1877.76C967.928 1879.28 971.049 1878.61 972.576 1876.23C974.103 1873.86 973.425 1870.74 971.051 1869.21Z" fill="#F7F5F9"/>
<path d="M1230.44 1778.56C1232.82 1780.09 1235.96 1779.38 1237.46 1777.04C1238.99 1774.67 1238.28 1771.52 1235.94 1770.01C1233.57 1768.49 1230.45 1769.16 1228.92 1771.54C1227.39 1773.91 1228.11 1777.06 1230.44 1778.56Z" fill="#F7F5F9"/>
<path d="M1392.23 2012.47C1391.26 2013.97 1391.2 2015.84 1391.87 2017.36L1396.5 2010.16C1394.86 2010.14 1393.21 2010.93 1392.23 2012.47Z" fill="#F7F5F9"/>
<path d="M1091.16 1806.48C1088.79 1804.95 1085.64 1805.66 1084.14 1808C1082.61 1810.37 1083.32 1813.52 1085.66 1815.03C1088.04 1816.55 1091.18 1815.84 1092.68 1813.5C1094.19 1811.16 1093.53 1808 1091.16 1806.48Z" fill="#F7F5F9"/>
<path d="M1311.36 1630.3C1313.74 1631.83 1316.88 1631.12 1318.38 1628.78C1319.91 1626.41 1319.2 1623.26 1316.86 1621.75C1314.49 1620.23 1311.37 1620.9 1309.84 1623.28C1308.34 1625.62 1308.99 1628.78 1311.36 1630.3Z" fill="#F7F5F9"/>
<path d="M1295.34 1925.13C1292.97 1923.6 1289.82 1924.32 1288.32 1926.66C1286.79 1929.03 1287.51 1932.18 1289.84 1933.68C1292.22 1935.21 1295.36 1934.5 1296.86 1932.16C1298.37 1929.82 1297.71 1926.66 1295.34 1925.13Z" fill="#F7F5F9"/>
<path d="M1135.34 1584.13C1132.97 1582.61 1129.82 1583.32 1128.32 1585.66C1126.79 1588.03 1127.47 1591.16 1129.84 1592.68C1132.22 1594.21 1135.34 1593.53 1136.87 1591.16C1138.37 1588.82 1137.68 1585.64 1135.34 1584.13Z" fill="#F7F5F9"/>
<path d="M1144.22 1934.99C1138.64 1931.39 1131.16 1932.98 1127.54 1938.61C1123.95 1944.2 1125.54 1951.68 1131.16 1955.3C1136.75 1958.9 1144.23 1957.31 1147.85 1951.68C1151.46 1946.05 1149.85 1938.61 1144.22 1934.99Z" fill="#F7F5F9"/>
<path d="M1130.96 1779.84L1111.1 1778.83L1110.7 1786.86L1130.56 1787.87L1130.96 1779.84Z" fill="#F7F5F9"/>
<path d="M1020.61 1855.49L1018.27 1875.27L1026.27 1876.24L1028.61 1856.46L1020.61 1855.49Z" fill="#F7F5F9"/>
<path d="M1081.12 1657.59L1073.14 1656.64L1070.79 1676.4L1078.77 1677.35L1081.12 1657.59Z" fill="#F7F5F9"/>
<path d="M1387.91 1635L1390.25 1615.22L1382.25 1614.26L1379.91 1634.04L1387.91 1635Z" fill="#F7F5F9"/>
<path d="M1241.4 1860.98L1233.4 1860.24L1231.57 1880.06L1239.57 1880.8L1241.4 1860.98Z" fill="#F7F5F9"/>
<path d="M1148.08 1527.06L1140.84 1530.55L1149.48 1548.48L1156.71 1544.99L1148.08 1527.06Z" fill="#F7F5F9"/>
<path d="M1351.53 1903.75L1371.4 1904.82L1371.82 1896.77L1351.95 1895.71L1351.53 1903.75Z" fill="#F7F5F9"/>
<path d="M1372.21 1949.98L1364.6 1952.53L1370.93 1971.4L1378.54 1968.84L1372.21 1949.98Z" fill="#F7F5F9"/>
<path d="M1302.3 1723.7L1282.44 1722.63L1282.01 1730.66L1301.87 1731.73L1302.3 1723.7Z" fill="#F7F5F9"/>
<path d="M1297.55 1795.7L1277.69 1794.64L1277.26 1802.66L1297.12 1803.73L1297.55 1795.7Z" fill="#F7F5F9"/>
<path d="M1220.93 1823.07L1235.96 1813.11L1231.52 1806.44L1220.56 1813.69L1206.88 1806.22L1193.85 1814.83L1180.17 1807.37L1167.21 1815.97L1153.52 1808.5L1140.5 1817.11L1128.98 1810.78L1125.1 1817.84L1140.93 1826.48L1153.89 1817.88L1167.58 1825.35L1180.6 1816.74L1194.28 1824.2L1207.25 1815.61L1220.93 1823.07Z" fill="#F7F5F9"/>
<path d="M1099.65 1900.24L1108.22 1896.46L1095.68 1887.61L1097.64 1872.13L1084.92 1863.16L1086.57 1850.07L1078.59 1849.07L1076.34 1866.94L1089.06 1875.91L1087.11 1891.39L1099.65 1900.24Z" fill="#F7F5F9"/>
<path d="M1216.26 1948.71L1203.68 1939.84L1205.67 1924.38L1192.91 1915.39L1194.58 1902.36L1186.63 1901.32L1184.34 1919.17L1197.1 1928.16L1195.11 1943.62L1207.65 1952.47L1216.26 1948.71Z" fill="#F7F5F9"/>
<path d="M1314.87 1850.18L1330.15 1847.06L1334.49 1832.28L1328.13 1825.39L1323.81 1840.13L1308.53 1843.26L1304.18 1858.23L1291.27 1860.87L1292.89 1868.79L1310.52 1865.15L1314.87 1850.18Z" fill="#F7F5F9"/>
<path d="M1359.32 2027.35L1343.77 2026.89L1337.96 2015.04L1330.76 2018.61L1338.69 2034.78L1354.25 2035.24L1361.15 2049.24L1371.2 2049.51L1376.27 2041.62L1366.22 2041.35L1359.32 2027.35Z" fill="#F7F5F9"/>
<path d="M1089.16 1620.38L1094.24 1612.49L1078.87 1612.05L1077.95 1610.11L1072.88 1618L1073.8 1619.94L1089.16 1620.38Z" fill="#F7F5F9"/>
<path d="M1236.12 1572.5L1248.84 1581.47L1262.75 1574.46L1273.5 1582.06L1278.14 1575.49L1263.45 1565.09L1249.52 1572.14L1236.82 1563.14L1223.12 1570.08L1222.42 1579.44L1236.12 1572.5Z" fill="#F7F5F9"/>
<path d="M1153.45 1712.97L1144.87 1726L1153.51 1741.79L1160.56 1737.96L1154.26 1726.41L1162.84 1713.39L1155.37 1699.69L1163.95 1686.67L1156.47 1673.02L1165.05 1659.99L1157.59 1646.3L1164.85 1635.32L1158.14 1630.9L1148.24 1645.91L1155.7 1659.6L1147.08 1672.6L1154.6 1686.28L1145.99 1699.28L1153.45 1712.97Z" fill="#F7F5F9"/>
<path d="M1399.8 1830.52L1384.37 1828.18L1373.66 1842.67L1380.1 1847.44L1387.95 1836.84L1403.35 1839.21L1412.64 1826.7L1428.03 1829.01L1437.32 1816.5L1452.73 1818.87L1461.98 1806.33L1475.01 1808.32L1476.2 1800.35L1458.43 1797.64L1449.14 1810.16L1433.75 1807.84L1424.46 1820.36L1409.05 1817.98L1399.8 1830.52Z" fill="#F7F5F9"/>
<path d="M1323.11 1672.43L1325.28 1687.83L1339.92 1693.18L1342.1 1708.58L1356.74 1713.92L1358.95 1729.35L1373.55 1734.67L1375.4 1747.69L1383.36 1746.56L1380.87 1728.74L1366.21 1723.44L1364.06 1708L1349.4 1702.69L1347.24 1687.25L1332.58 1681.94L1330.43 1666.5L1313.48 1660.34L1310.76 1667.94L1323.11 1672.43Z" fill="#F7F5F9"/>
<path d="M1312.78 2046.82L1305.31 2033.13L1313.93 2020.13L1306.45 2006.47L1315.03 1993.45L1307.56 1979.76L1314.79 1968.76L1308.08 1964.34L1298.18 1979.35L1305.64 1993.04L1297.06 2006.06L1304.52 2019.75L1295.96 2032.74L1303.42 2046.43L1294.84 2059.45L1303.48 2075.25L1310.5 2071.4L1304.2 2059.84L1312.78 2046.82Z" fill="#F7F5F9"/>
<path d="M1362.27 1787.7L1356.93 1764.94L1349.09 1766.77L1354.47 1789.55L1362.27 1787.7Z" fill="#F7F5F9"/>
<path d="M1223.86 1619.16L1216.04 1620.99L1221.37 1643.79L1229.19 1641.96L1223.86 1619.16Z" fill="#F7F5F9"/>
<path d="M1030.02 1776.58L1022.2 1778.41L1027.53 1801.21L1035.35 1799.38L1030.02 1776.58Z" fill="#F7F5F9"/>
</g>
<g opacity="0.456808">
<path fill-rule="evenodd" clip-rule="evenodd" d="M1250.87 301.587C1252.68 301.587 1254.16 300.11 1254.16 298.294C1254.16 296.472 1252.68 295 1250.87 295C1249.05 295 1247.57 296.472 1247.57 298.294C1247.57 300.11 1249.05 301.587 1250.87 301.587Z" fill="#F7F5F9"/>
<path fill-rule="evenodd" clip-rule="evenodd" d="M1283.83 301.587C1285.65 301.587 1287.13 300.11 1287.13 298.294C1287.13 296.472 1285.65 295 1283.83 295C1282.02 295 1280.54 296.472 1280.54 298.294C1280.54 300.11 1282.02 301.587 1283.83 301.587Z" fill="#F7F5F9"/>
<path fill-rule="evenodd" clip-rule="evenodd" d="M1316.8 301.587C1318.61 301.587 1320.09 300.11 1320.09 298.294C1320.09 296.472 1318.61 295 1316.8 295C1314.98 295 1313.51 296.472 1313.51 298.294C1313.51 300.11 1314.98 301.587 1316.8 301.587Z" fill="#F7F5F9"/>
<path fill-rule="evenodd" clip-rule="evenodd" d="M1349.76 301.587C1351.58 301.587 1353.05 300.11 1353.05 298.294C1353.05 296.472 1351.58 295 1349.76 295C1347.95 295 1346.47 296.472 1346.47 298.294C1346.47 300.11 1347.95 301.587 1349.76 301.587Z" fill="#F7F5F9"/>
<path fill-rule="evenodd" clip-rule="evenodd" d="M1382.73 301.587C1384.54 301.587 1386.02 300.11 1386.02 298.294C1386.02 296.472 1384.54 295 1382.73 295C1380.92 295 1379.43 296.472 1379.43 298.294C1379.43 300.11 1380.92 301.587 1382.73 301.587Z" fill="#F7F5F9"/>
<path fill-rule="evenodd" clip-rule="evenodd" d="M1250.87 334.57C1252.68 334.57 1254.16 333.098 1254.16 331.277C1254.16 329.46 1252.68 327.983 1250.87 327.983C1249.05 327.983 1247.57 329.46 1247.57 331.277C1247.57 333.098 1249.05 334.57 1250.87 334.57Z" fill="#F7F5F9"/>
<path fill-rule="evenodd" clip-rule="evenodd" d="M1283.83 334.57C1285.65 334.57 1287.13 333.098 1287.13 331.277C1287.13 329.46 1285.65 327.983 1283.83 327.983C1282.02 327.983 1280.54 329.46 1280.54 331.277C1280.54 333.098 1282.02 334.57 1283.83 334.57Z" fill="#F7F5F9"/>
<path fill-rule="evenodd" clip-rule="evenodd" d="M1316.8 334.57C1318.61 334.57 1320.09 333.098 1320.09 331.277C1320.09 329.46 1318.61 327.983 1316.8 327.983C1314.98 327.983 1313.51 329.46 1313.51 331.277C1313.51 333.098 1314.98 334.57 1316.8 334.57Z" fill="#F7F5F9"/>
<path fill-rule="evenodd" clip-rule="evenodd" d="M1349.76 334.57C1351.58 334.57 1353.05 333.098 1353.05 331.277C1353.05 329.46 1351.58 327.983 1349.76 327.983C1347.95 327.983 1346.47 329.46 1346.47 331.277C1346.47 333.098 1347.95 334.57 1349.76 334.57Z" fill="#F7F5F9"/>
<path fill-rule="evenodd" clip-rule="evenodd" d="M1382.73 334.57C1384.54 334.57 1386.02 333.098 1386.02 331.277C1386.02 329.46 1384.54 327.983 1382.73 327.983C1380.92 327.983 1379.43 329.46 1379.43 331.277C1379.43 333.098 1380.92 334.57 1382.73 334.57Z" fill="#F7F5F9"/>
<path fill-rule="evenodd" clip-rule="evenodd" d="M1250.87 367.562C1252.68 367.562 1254.16 366.09 1254.16 364.269C1254.16 362.447 1252.68 360.975 1250.87 360.975C1249.05 360.975 1247.57 362.447 1247.57 364.269C1247.57 366.09 1249.05 367.562 1250.87 367.562Z" fill="#F7F5F9"/>
<path fill-rule="evenodd" clip-rule="evenodd" d="M1283.83 367.562C1285.65 367.562 1287.13 366.09 1287.13 364.269C1287.13 362.447 1285.65 360.975 1283.83 360.975C1282.02 360.975 1280.54 362.447 1280.54 364.269C1280.54 366.09 1282.02 367.562 1283.83 367.562Z" fill="#F7F5F9"/>
<path fill-rule="evenodd" clip-rule="evenodd" d="M1316.8 367.562C1318.61 367.562 1320.09 366.09 1320.09 364.269C1320.09 362.447 1318.61 360.975 1316.8 360.975C1314.98 360.975 1313.51 362.447 1313.51 364.269C1313.51 366.09 1314.98 367.562 1316.8 367.562Z" fill="#F7F5F9"/>
<path fill-rule="evenodd" clip-rule="evenodd" d="M1349.76 367.562C1351.58 367.562 1353.05 366.09 1353.05 364.269C1353.05 362.447 1351.58 360.975 1349.76 360.975C1347.95 360.975 1346.47 362.447 1346.47 364.269C1346.47 366.09 1347.95 367.562 1349.76 367.562Z" fill="#F7F5F9"/>
<path fill-rule="evenodd" clip-rule="evenodd" d="M1382.73 367.562C1384.54 367.562 1386.02 366.09 1386.02 364.269C1386.02 362.447 1384.54 360.975 1382.73 360.975C1380.92 360.975 1379.43 362.447 1379.43 364.269C1379.43 366.09 1380.92 367.562 1382.73 367.562Z" fill="#F7F5F9"/>
<path fill-rule="evenodd" clip-rule="evenodd" d="M1250.87 400.55C1252.68 400.55 1254.16 399.073 1254.16 397.257C1254.16 395.44 1252.68 393.968 1250.87 393.968C1249.05 393.968 1247.57 395.44 1247.57 397.257C1247.57 399.073 1249.05 400.55 1250.87 400.55Z" fill="#F7F5F9"/>
<path fill-rule="evenodd" clip-rule="evenodd" d="M1283.83 400.55C1285.65 400.55 1287.13 399.073 1287.13 397.257C1287.13 395.44 1285.65 393.968 1283.83 393.968C1282.02 393.968 1280.54 395.44 1280.54 397.257C1280.54 399.073 1282.02 400.55 1283.83 400.55Z" fill="#F7F5F9"/>
<path fill-rule="evenodd" clip-rule="evenodd" d="M1316.8 400.55C1318.61 400.55 1320.09 399.073 1320.09 397.257C1320.09 395.44 1318.61 393.968 1316.8 393.968C1314.98 393.968 1313.51 395.44 1313.51 397.257C1313.51 399.073 1314.98 400.55 1316.8 400.55Z" fill="#F7F5F9"/>
<path fill-rule="evenodd" clip-rule="evenodd" d="M1349.76 400.55C1351.58 400.55 1353.05 399.073 1353.05 397.257C1353.05 395.44 1351.58 393.968 1349.76 393.968C1347.95 393.968 1346.47 395.44 1346.47 397.257C1346.47 399.073 1347.95 400.55 1349.76 400.55Z" fill="#F7F5F9"/>
<path fill-rule="evenodd" clip-rule="evenodd" d="M1382.73 400.55C1384.54 400.55 1386.02 399.073 1386.02 397.257C1386.02 395.44 1384.54 393.968 1382.73 393.968C1380.92 393.968 1379.43 395.44 1379.43 397.257C1379.43 399.073 1380.92 400.55 1382.73 400.55Z" fill="#F7F5F9"/>
<path fill-rule="evenodd" clip-rule="evenodd" d="M1250.87 433.538C1252.68 433.538 1254.16 432.066 1254.16 430.244C1254.16 428.428 1252.68 426.95 1250.87 426.95C1249.05 426.95 1247.57 428.428 1247.57 430.244C1247.57 432.066 1249.05 433.538 1250.87 433.538Z" fill="#F7F5F9"/>
<path fill-rule="evenodd" clip-rule="evenodd" d="M1283.83 433.538C1285.65 433.538 1287.13 432.066 1287.13 430.244C1287.13 428.428 1285.65 426.95 1283.83 426.95C1282.02 426.95 1280.54 428.428 1280.54 430.244C1280.54 432.066 1282.02 433.538 1283.83 433.538Z" fill="#F7F5F9"/>
<path fill-rule="evenodd" clip-rule="evenodd" d="M1316.8 433.538C1318.61 433.538 1320.09 432.066 1320.09 430.244C1320.09 428.428 1318.61 426.95 1316.8 426.95C1314.98 426.95 1313.51 428.428 1313.51 430.244C1313.51 432.066 1314.98 433.538 1316.8 433.538Z" fill="#F7F5F9"/>
<path fill-rule="evenodd" clip-rule="evenodd" d="M1349.76 433.538C1351.58 433.538 1353.05 432.066 1353.05 430.244C1353.05 428.428 1351.58 426.95 1349.76 426.95C1347.95 426.95 1346.47 428.428 1346.47 430.244C1346.47 432.066 1347.95 433.538 1349.76 433.538Z" fill="#F7F5F9"/>
<path fill-rule="evenodd" clip-rule="evenodd" d="M1382.73 433.538C1384.54 433.538 1386.02 432.066 1386.02 430.244C1386.02 428.428 1384.54 426.95 1382.73 426.95C1380.92 426.95 1379.43 428.428 1379.43 430.244C1379.43 432.066 1380.92 433.538 1382.73 433.538Z" fill="#F7F5F9"/>
<path fill-rule="evenodd" clip-rule="evenodd" d="M1250.87 466.53C1252.68 466.53 1254.16 465.058 1254.16 463.236C1254.16 461.415 1252.68 459.943 1250.87 459.943C1249.05 459.943 1247.57 461.415 1247.57 463.236C1247.57 465.058 1249.05 466.53 1250.87 466.53Z" fill="#F7F5F9"/>
<path fill-rule="evenodd" clip-rule="evenodd" d="M1283.83 466.53C1285.65 466.53 1287.13 465.058 1287.13 463.236C1287.13 461.415 1285.65 459.943 1283.83 459.943C1282.02 459.943 1280.54 461.415 1280.54 463.236C1280.54 465.058 1282.02 466.53 1283.83 466.53Z" fill="#F7F5F9"/>
<path fill-rule="evenodd" clip-rule="evenodd" d="M1316.8 466.53C1318.61 466.53 1320.09 465.058 1320.09 463.236C1320.09 461.415 1318.61 459.943 1316.8 459.943C1314.98 459.943 1313.51 461.415 1313.51 463.236C1313.51 465.058 1314.98 466.53 1316.8 466.53Z" fill="#F7F5F9"/>
<path fill-rule="evenodd" clip-rule="evenodd" d="M1349.76 466.53C1351.58 466.53 1353.05 465.058 1353.05 463.236C1353.05 461.415 1351.58 459.943 1349.76 459.943C1347.95 459.943 1346.47 461.415 1346.47 463.236C1346.47 465.058 1347.95 466.53 1349.76 466.53Z" fill="#F7F5F9"/>
<path fill-rule="evenodd" clip-rule="evenodd" d="M1382.73 466.53C1384.54 466.53 1386.02 465.058 1386.02 463.236C1386.02 461.415 1384.54 459.943 1382.73 459.943C1380.92 459.943 1379.43 461.415 1379.43 463.236C1379.43 465.058 1380.92 466.53 1382.73 466.53Z" fill="#F7F5F9"/>
<path fill-rule="evenodd" clip-rule="evenodd" d="M1250.87 499.518C1252.68 499.518 1254.16 498.041 1254.16 496.224C1254.16 494.408 1252.68 492.931 1250.87 492.931C1249.05 492.931 1247.57 494.408 1247.57 496.224C1247.57 498.041 1249.05 499.518 1250.87 499.518Z" fill="#F7F5F9"/>
<path fill-rule="evenodd" clip-rule="evenodd" d="M1283.83 499.518C1285.65 499.518 1287.13 498.041 1287.13 496.224C1287.13 494.408 1285.65 492.931 1283.83 492.931C1282.02 492.931 1280.54 494.408 1280.54 496.224C1280.54 498.041 1282.02 499.518 1283.83 499.518Z" fill="#F7F5F9"/>
<path fill-rule="evenodd" clip-rule="evenodd" d="M1316.8 499.518C1318.61 499.518 1320.09 498.041 1320.09 496.224C1320.09 494.408 1318.61 492.931 1316.8 492.931C1314.98 492.931 1313.51 494.408 1313.51 496.224C1313.51 498.041 1314.98 499.518 1316.8 499.518Z" fill="#F7F5F9"/>
<path fill-rule="evenodd" clip-rule="evenodd" d="M1349.76 499.518C1351.58 499.518 1353.05 498.041 1353.05 496.224C1353.05 494.408 1351.58 492.931 1349.76 492.931C1347.95 492.931 1346.47 494.408 1346.47 496.224C1346.47 498.041 1347.95 499.518 1349.76 499.518Z" fill="#F7F5F9"/>
<path fill-rule="evenodd" clip-rule="evenodd" d="M1382.73 499.518C1384.54 499.518 1386.02 498.041 1386.02 496.224C1386.02 494.408 1384.54 492.931 1382.73 492.931C1380.92 492.931 1379.43 494.408 1379.43 496.224C1379.43 498.041 1380.92 499.518 1382.73 499.518Z" fill="#F7F5F9"/>
<path fill-rule="evenodd" clip-rule="evenodd" d="M1250.87 532.505C1252.68 532.505 1254.16 531.033 1254.16 529.212C1254.16 527.39 1252.68 525.918 1250.87 525.918C1249.05 525.918 1247.57 527.39 1247.57 529.212C1247.57 531.033 1249.05 532.505 1250.87 532.505Z" fill="#F7F5F9"/>
<path fill-rule="evenodd" clip-rule="evenodd" d="M1283.83 532.505C1285.65 532.505 1287.13 531.033 1287.13 529.212C1287.13 527.39 1285.65 525.918 1283.83 525.918C1282.02 525.918 1280.54 527.39 1280.54 529.212C1280.54 531.033 1282.02 532.505 1283.83 532.505Z" fill="#F7F5F9"/>
<path fill-rule="evenodd" clip-rule="evenodd" d="M1316.8 532.505C1318.61 532.505 1320.09 531.033 1320.09 529.212C1320.09 527.39 1318.61 525.918 1316.8 525.918C1314.98 525.918 1313.51 527.39 1313.51 529.212C1313.51 531.033 1314.98 532.505 1316.8 532.505Z" fill="#F7F5F9"/>
<path fill-rule="evenodd" clip-rule="evenodd" d="M1349.76 532.505C1351.58 532.505 1353.05 531.033 1353.05 529.212C1353.05 527.39 1351.58 525.918 1349.76 525.918C1347.95 525.918 1346.47 527.39 1346.47 529.212C1346.47 531.033 1347.95 532.505 1349.76 532.505Z" fill="#F7F5F9"/>
<path fill-rule="evenodd" clip-rule="evenodd" d="M1382.73 532.505C1384.54 532.505 1386.02 531.033 1386.02 529.212C1386.02 527.39 1384.54 525.918 1382.73 525.918C1380.92 525.918 1379.43 527.39 1379.43 529.212C1379.43 531.033 1380.92 532.505 1382.73 532.505Z" fill="#F7F5F9"/>
<path fill-rule="evenodd" clip-rule="evenodd" d="M1250.87 565.498C1252.68 565.498 1254.16 564.021 1254.16 562.204C1254.16 560.383 1252.68 558.911 1250.87 558.911C1249.05 558.911 1247.57 560.383 1247.57 562.204C1247.57 564.021 1249.05 565.498 1250.87 565.498Z" fill="#F7F5F9"/>
<path fill-rule="evenodd" clip-rule="evenodd" d="M1283.83 565.498C1285.65 565.498 1287.13 564.021 1287.13 562.204C1287.13 560.383 1285.65 558.911 1283.83 558.911C1282.02 558.911 1280.54 560.383 1280.54 562.204C1280.54 564.021 1282.02 565.498 1283.83 565.498Z" fill="#F7F5F9"/>
<path fill-rule="evenodd" clip-rule="evenodd" d="M1316.8 565.498C1318.61 565.498 1320.09 564.021 1320.09 562.204C1320.09 560.383 1318.61 558.911 1316.8 558.911C1314.98 558.911 1313.51 560.383 1313.51 562.204C1313.51 564.021 1314.98 565.498 1316.8 565.498Z" fill="#F7F5F9"/>
<path fill-rule="evenodd" clip-rule="evenodd" d="M1349.76 565.498C1351.58 565.498 1353.05 564.021 1353.05 562.204C1353.05 560.383 1351.58 558.911 1349.76 558.911C1347.95 558.911 1346.47 560.383 1346.47 562.204C1346.47 564.021 1347.95 565.498 1349.76 565.498Z" fill="#F7F5F9"/>
<path fill-rule="evenodd" clip-rule="evenodd" d="M1382.73 565.498C1384.54 565.498 1386.02 564.021 1386.02 562.204C1386.02 560.383 1384.54 558.911 1382.73 558.911C1380.92 558.911 1379.43 560.383 1379.43 562.204C1379.43 564.021 1380.92 565.498 1382.73 565.498Z" fill="#F7F5F9"/>
<path fill-rule="evenodd" clip-rule="evenodd" d="M1250.87 598.481C1252.68 598.481 1254.16 597.009 1254.16 595.187C1254.16 593.376 1252.68 591.894 1250.87 591.894C1249.05 591.894 1247.57 593.376 1247.57 595.187C1247.57 597.009 1249.05 598.481 1250.87 598.481Z" fill="#F7F5F9"/>
<path fill-rule="evenodd" clip-rule="evenodd" d="M1283.83 598.481C1285.65 598.481 1287.13 597.009 1287.13 595.187C1287.13 593.376 1285.65 591.894 1283.83 591.894C1282.02 591.894 1280.54 593.376 1280.54 595.187C1280.54 597.009 1282.02 598.481 1283.83 598.481Z" fill="#F7F5F9"/>
<path fill-rule="evenodd" clip-rule="evenodd" d="M1316.8 598.481C1318.61 598.481 1320.09 597.009 1320.09 595.187C1320.09 593.376 1318.61 591.894 1316.8 591.894C1314.98 591.894 1313.51 593.376 1313.51 595.187C1313.51 597.009 1314.98 598.481 1316.8 598.481Z" fill="#F7F5F9"/>
<path fill-rule="evenodd" clip-rule="evenodd" d="M1349.76 598.481C1351.58 598.481 1353.05 597.009 1353.05 595.187C1353.05 593.376 1351.58 591.894 1349.76 591.894C1347.95 591.894 1346.47 593.376 1346.47 595.187C1346.47 597.009 1347.95 598.481 1349.76 598.481Z" fill="#F7F5F9"/>
<path fill-rule="evenodd" clip-rule="evenodd" d="M1382.73 598.481C1384.54 598.481 1386.02 597.009 1386.02 595.187C1386.02 593.376 1384.54 591.894 1382.73 591.894C1380.92 591.894 1379.43 593.376 1379.43 595.187C1379.43 597.009 1380.92 598.481 1382.73 598.481Z" fill="#F7F5F9"/>
<path fill-rule="evenodd" clip-rule="evenodd" d="M1250.87 631.473C1252.68 631.473 1254.16 630.001 1254.16 628.18C1254.16 626.358 1252.68 624.886 1250.87 624.886C1249.05 624.886 1247.57 626.358 1247.57 628.18C1247.57 630.001 1249.05 631.473 1250.87 631.473Z" fill="#F7F5F9"/>
<path fill-rule="evenodd" clip-rule="evenodd" d="M1283.83 631.473C1285.65 631.473 1287.13 630.001 1287.13 628.18C1287.13 626.358 1285.65 624.886 1283.83 624.886C1282.02 624.886 1280.54 626.358 1280.54 628.18C1280.54 630.001 1282.02 631.473 1283.83 631.473Z" fill="#F7F5F9"/>
<path fill-rule="evenodd" clip-rule="evenodd" d="M1316.8 631.473C1318.61 631.473 1320.09 630.001 1320.09 628.18C1320.09 626.358 1318.61 624.886 1316.8 624.886C1314.98 624.886 1313.51 626.358 1313.51 628.18C1313.51 630.001 1314.98 631.473 1316.8 631.473Z" fill="#F7F5F9"/>
<path fill-rule="evenodd" clip-rule="evenodd" d="M1349.76 631.473C1351.58 631.473 1353.05 630.001 1353.05 628.18C1353.05 626.358 1351.58 624.886 1349.76 624.886C1347.95 624.886 1346.47 626.358 1346.47 628.18C1346.47 630.001 1347.95 631.473 1349.76 631.473Z" fill="#F7F5F9"/>
<path fill-rule="evenodd" clip-rule="evenodd" d="M1382.73 631.473C1384.54 631.473 1386.02 630.001 1386.02 628.18C1386.02 626.358 1384.54 624.886 1382.73 624.886C1380.92 624.886 1379.43 626.358 1379.43 628.18C1379.43 630.001 1380.92 631.473 1382.73 631.473Z" fill="#F7F5F9"/>
<path fill-rule="evenodd" clip-rule="evenodd" d="M1250.87 664.461C1252.68 664.461 1254.16 662.984 1254.16 661.172C1254.16 659.351 1252.68 657.878 1250.87 657.878C1249.05 657.878 1247.57 659.351 1247.57 661.172C1247.57 662.984 1249.05 664.461 1250.87 664.461Z" fill="#F7F5F9"/>
<path fill-rule="evenodd" clip-rule="evenodd" d="M1283.83 664.461C1285.65 664.461 1287.13 662.984 1287.13 661.172C1287.13 659.351 1285.65 657.878 1283.83 657.878C1282.02 657.878 1280.54 659.351 1280.54 661.172C1280.54 662.984 1282.02 664.461 1283.83 664.461Z" fill="#F7F5F9"/>
<path fill-rule="evenodd" clip-rule="evenodd" d="M1316.8 664.461C1318.61 664.461 1320.09 662.984 1320.09 661.172C1320.09 659.351 1318.61 657.878 1316.8 657.878C1314.98 657.878 1313.51 659.351 1313.51 661.172C1313.51 662.984 1314.98 664.461 1316.8 664.461Z" fill="#F7F5F9"/>
<path fill-rule="evenodd" clip-rule="evenodd" d="M1349.76 664.461C1351.58 664.461 1353.05 662.984 1353.05 661.172C1353.05 659.351 1351.58 657.878 1349.76 657.878C1347.95 657.878 1346.47 659.351 1346.47 661.172C1346.47 662.984 1347.95 664.461 1349.76 664.461Z" fill="#F7F5F9"/>
<path fill-rule="evenodd" clip-rule="evenodd" d="M1382.73 664.461C1384.54 664.461 1386.02 662.984 1386.02 661.172C1386.02 659.351 1384.54 657.878 1382.73 657.878C1380.92 657.878 1379.43 659.351 1379.43 661.172C1379.43 662.984 1380.92 664.461 1382.73 664.461Z" fill="#F7F5F9"/>
<path fill-rule="evenodd" clip-rule="evenodd" d="M1250.87 697.448C1252.68 697.448 1254.16 695.976 1254.16 694.155C1254.16 692.338 1252.68 690.861 1250.87 690.861C1249.05 690.861 1247.57 692.338 1247.57 694.155C1247.57 695.976 1249.05 697.448 1250.87 697.448Z" fill="#F7F5F9"/>
<path fill-rule="evenodd" clip-rule="evenodd" d="M1283.83 697.448C1285.65 697.448 1287.13 695.976 1287.13 694.155C1287.13 692.338 1285.65 690.861 1283.83 690.861C1282.02 690.861 1280.54 692.338 1280.54 694.155C1280.54 695.976 1282.02 697.448 1283.83 697.448Z" fill="#F7F5F9"/>
<path fill-rule="evenodd" clip-rule="evenodd" d="M1316.8 697.448C1318.61 697.448 1320.09 695.976 1320.09 694.155C1320.09 692.338 1318.61 690.861 1316.8 690.861C1314.98 690.861 1313.51 692.338 1313.51 694.155C1313.51 695.976 1314.98 697.448 1316.8 697.448Z" fill="#F7F5F9"/>
<path fill-rule="evenodd" clip-rule="evenodd" d="M1349.76 697.448C1351.58 697.448 1353.05 695.976 1353.05 694.155C1353.05 692.338 1351.58 690.861 1349.76 690.861C1347.95 690.861 1346.47 692.338 1346.47 694.155C1346.47 695.976 1347.95 697.448 1349.76 697.448Z" fill="#F7F5F9"/>
<path fill-rule="evenodd" clip-rule="evenodd" d="M1382.73 697.448C1384.54 697.448 1386.02 695.976 1386.02 694.155C1386.02 692.338 1384.54 690.861 1382.73 690.861C1380.92 690.861 1379.43 692.338 1379.43 694.155C1379.43 695.976 1380.92 697.448 1382.73 697.448Z" fill="#F7F5F9"/>
<path fill-rule="evenodd" clip-rule="evenodd" d="M1250.87 730.441C1252.68 730.441 1254.16 728.969 1254.16 727.147C1254.16 725.326 1252.68 723.854 1250.87 723.854C1249.05 723.854 1247.57 725.326 1247.57 727.147C1247.57 728.969 1249.05 730.441 1250.87 730.441Z" fill="#F7F5F9"/>
<path fill-rule="evenodd" clip-rule="evenodd" d="M1283.83 730.441C1285.65 730.441 1287.13 728.969 1287.13 727.147C1287.13 725.326 1285.65 723.854 1283.83 723.854C1282.02 723.854 1280.54 725.326 1280.54 727.147C1280.54 728.969 1282.02 730.441 1283.83 730.441Z" fill="#F7F5F9"/>
<path fill-rule="evenodd" clip-rule="evenodd" d="M1316.8 730.441C1318.61 730.441 1320.09 728.969 1320.09 727.147C1320.09 725.326 1318.61 723.854 1316.8 723.854C1314.98 723.854 1313.51 725.326 1313.51 727.147C1313.51 728.969 1314.98 730.441 1316.8 730.441Z" fill="#F7F5F9"/>
<path fill-rule="evenodd" clip-rule="evenodd" d="M1349.76 730.441C1351.58 730.441 1353.05 728.969 1353.05 727.147C1353.05 725.326 1351.58 723.854 1349.76 723.854C1347.95 723.854 1346.47 725.326 1346.47 727.147C1346.47 728.969 1347.95 730.441 1349.76 730.441Z" fill="#F7F5F9"/>
<path fill-rule="evenodd" clip-rule="evenodd" d="M1382.73 730.441C1384.54 730.441 1386.02 728.969 1386.02 727.147C1386.02 725.326 1384.54 723.854 1382.73 723.854C1380.92 723.854 1379.43 725.326 1379.43 727.147C1379.43 728.969 1380.92 730.441 1382.73 730.441Z" fill="#F7F5F9"/>
<path fill-rule="evenodd" clip-rule="evenodd" d="M1250.87 763.429C1252.68 763.429 1254.16 761.951 1254.16 760.135C1254.16 758.318 1252.68 756.841 1250.87 756.841C1249.05 756.841 1247.57 758.318 1247.57 760.135C1247.57 761.951 1249.05 763.429 1250.87 763.429Z" fill="#F7F5F9"/>
<path fill-rule="evenodd" clip-rule="evenodd" d="M1283.83 763.429C1285.65 763.429 1287.13 761.951 1287.13 760.135C1287.13 758.318 1285.65 756.841 1283.83 756.841C1282.02 756.841 1280.54 758.318 1280.54 760.135C1280.54 761.951 1282.02 763.429 1283.83 763.429Z" fill="#F7F5F9"/>
<path fill-rule="evenodd" clip-rule="evenodd" d="M1316.8 763.429C1318.61 763.429 1320.09 761.951 1320.09 760.135C1320.09 758.318 1318.61 756.841 1316.8 756.841C1314.98 756.841 1313.51 758.318 1313.51 760.135C1313.51 761.951 1314.98 763.429 1316.8 763.429Z" fill="#F7F5F9"/>
<path fill-rule="evenodd" clip-rule="evenodd" d="M1349.76 763.429C1351.58 763.429 1353.05 761.951 1353.05 760.135C1353.05 758.318 1351.58 756.841 1349.76 756.841C1347.95 756.841 1346.47 758.318 1346.47 760.135C1346.47 761.951 1347.95 763.429 1349.76 763.429Z" fill="#F7F5F9"/>
<path fill-rule="evenodd" clip-rule="evenodd" d="M1382.73 763.429C1384.54 763.429 1386.02 761.951 1386.02 760.135C1386.02 758.318 1384.54 756.841 1382.73 756.841C1380.92 756.841 1379.43 758.318 1379.43 760.135C1379.43 761.951 1380.92 763.429 1382.73 763.429Z" fill="#F7F5F9"/>
<path fill-rule="evenodd" clip-rule="evenodd" d="M1250.87 796.416C1252.68 796.416 1254.16 794.944 1254.16 793.122C1254.16 791.301 1252.68 789.829 1250.87 789.829C1249.05 789.829 1247.57 791.301 1247.57 793.122C1247.57 794.944 1249.05 796.416 1250.87 796.416Z" fill="#F7F5F9"/>
<path fill-rule="evenodd" clip-rule="evenodd" d="M1283.83 796.416C1285.65 796.416 1287.13 794.944 1287.13 793.122C1287.13 791.301 1285.65 789.829 1283.83 789.829C1282.02 789.829 1280.54 791.301 1280.54 793.122C1280.54 794.944 1282.02 796.416 1283.83 796.416Z" fill="#F7F5F9"/>
<path fill-rule="evenodd" clip-rule="evenodd" d="M1316.8 796.416C1318.61 796.416 1320.09 794.944 1320.09 793.122C1320.09 791.301 1318.61 789.829 1316.8 789.829C1314.98 789.829 1313.51 791.301 1313.51 793.122C1313.51 794.944 1314.98 796.416 1316.8 796.416Z" fill="#F7F5F9"/>
<path fill-rule="evenodd" clip-rule="evenodd" d="M1349.76 796.416C1351.58 796.416 1353.05 794.944 1353.05 793.122C1353.05 791.301 1351.58 789.829 1349.76 789.829C1347.95 789.829 1346.47 791.301 1346.47 793.122C1346.47 794.944 1347.95 796.416 1349.76 796.416Z" fill="#F7F5F9"/>
<path fill-rule="evenodd" clip-rule="evenodd" d="M1382.73 796.416C1384.54 796.416 1386.02 794.944 1386.02 793.122C1386.02 791.301 1384.54 789.829 1382.73 789.829C1380.92 789.829 1379.43 791.301 1379.43 793.122C1379.43 794.944 1380.92 796.416 1382.73 796.416Z" fill="#F7F5F9"/>
<path fill-rule="evenodd" clip-rule="evenodd" d="M1250.87 829.409C1252.68 829.409 1254.16 827.932 1254.16 826.115C1254.16 824.294 1252.68 822.822 1250.87 822.822C1249.05 822.822 1247.57 824.294 1247.57 826.115C1247.57 827.932 1249.05 829.409 1250.87 829.409Z" fill="#F7F5F9"/>
<path fill-rule="evenodd" clip-rule="evenodd" d="M1283.83 829.409C1285.65 829.409 1287.13 827.932 1287.13 826.115C1287.13 824.294 1285.65 822.822 1283.83 822.822C1282.02 822.822 1280.54 824.294 1280.54 826.115C1280.54 827.932 1282.02 829.409 1283.83 829.409Z" fill="#F7F5F9"/>
<path fill-rule="evenodd" clip-rule="evenodd" d="M1316.8 829.409C1318.61 829.409 1320.09 827.932 1320.09 826.115C1320.09 824.294 1318.61 822.822 1316.8 822.822C1314.98 822.822 1313.51 824.294 1313.51 826.115C1313.51 827.932 1314.98 829.409 1316.8 829.409Z" fill="#F7F5F9"/>
<path fill-rule="evenodd" clip-rule="evenodd" d="M1349.76 829.409C1351.58 829.409 1353.05 827.932 1353.05 826.115C1353.05 824.294 1351.58 822.822 1349.76 822.822C1347.95 822.822 1346.47 824.294 1346.47 826.115C1346.47 827.932 1347.95 829.409 1349.76 829.409Z" fill="#F7F5F9"/>
<path fill-rule="evenodd" clip-rule="evenodd" d="M1382.73 829.409C1384.54 829.409 1386.02 827.932 1386.02 826.115C1386.02 824.294 1384.54 822.822 1382.73 822.822C1380.92 822.822 1379.43 824.294 1379.43 826.115C1379.43 827.932 1380.92 829.409 1382.73 829.409Z" fill="#F7F5F9"/>
<path fill-rule="evenodd" clip-rule="evenodd" d="M1250.87 862.391C1252.68 862.391 1254.16 860.919 1254.16 859.097C1254.16 857.286 1252.68 855.804 1250.87 855.804C1249.05 855.804 1247.57 857.286 1247.57 859.097C1247.57 860.919 1249.05 862.391 1250.87 862.391Z" fill="#F7F5F9"/>
<path fill-rule="evenodd" clip-rule="evenodd" d="M1283.83 862.391C1285.65 862.391 1287.13 860.919 1287.13 859.097C1287.13 857.286 1285.65 855.804 1283.83 855.804C1282.02 855.804 1280.54 857.286 1280.54 859.097C1280.54 860.919 1282.02 862.391 1283.83 862.391Z" fill="#F7F5F9"/>
<path fill-rule="evenodd" clip-rule="evenodd" d="M1316.8 862.391C1318.61 862.391 1320.09 860.919 1320.09 859.097C1320.09 857.286 1318.61 855.804 1316.8 855.804C1314.98 855.804 1313.51 857.286 1313.51 859.097C1313.51 860.919 1314.98 862.391 1316.8 862.391Z" fill="#F7F5F9"/>
<path fill-rule="evenodd" clip-rule="evenodd" d="M1349.76 862.391C1351.58 862.391 1353.05 860.919 1353.05 859.097C1353.05 857.286 1351.58 855.804 1349.76 855.804C1347.95 855.804 1346.47 857.286 1346.47 859.097C1346.47 860.919 1347.95 862.391 1349.76 862.391Z" fill="#F7F5F9"/>
<path fill-rule="evenodd" clip-rule="evenodd" d="M1382.73 862.391C1384.54 862.391 1386.02 860.919 1386.02 859.097C1386.02 857.286 1384.54 855.804 1382.73 855.804C1380.92 855.804 1379.43 857.286 1379.43 859.097C1379.43 860.919 1380.92 862.391 1382.73 862.391Z" fill="#F7F5F9"/>
<path fill-rule="evenodd" clip-rule="evenodd" d="M1250.87 895.384C1252.68 895.384 1254.16 893.912 1254.16 892.09C1254.16 890.269 1252.68 888.797 1250.87 888.797C1249.05 888.797 1247.57 890.269 1247.57 892.09C1247.57 893.912 1249.05 895.384 1250.87 895.384Z" fill="#F7F5F9"/>
<path fill-rule="evenodd" clip-rule="evenodd" d="M1283.83 895.384C1285.65 895.384 1287.13 893.912 1287.13 892.09C1287.13 890.269 1285.65 888.797 1283.83 888.797C1282.02 888.797 1280.54 890.269 1280.54 892.09C1280.54 893.912 1282.02 895.384 1283.83 895.384Z" fill="#F7F5F9"/>
<path fill-rule="evenodd" clip-rule="evenodd" d="M1316.8 895.384C1318.61 895.384 1320.09 893.912 1320.09 892.09C1320.09 890.269 1318.61 888.797 1316.8 888.797C1314.98 888.797 1313.51 890.269 1313.51 892.09C1313.51 893.912 1314.98 895.384 1316.8 895.384Z" fill="#F7F5F9"/>
<path fill-rule="evenodd" clip-rule="evenodd" d="M1349.76 895.384C1351.58 895.384 1353.05 893.912 1353.05 892.09C1353.05 890.269 1351.58 888.797 1349.76 888.797C1347.95 888.797 1346.47 890.269 1346.47 892.09C1346.47 893.912 1347.95 895.384 1349.76 895.384Z" fill="#F7F5F9"/>
<path fill-rule="evenodd" clip-rule="evenodd" d="M1382.73 895.384C1384.54 895.384 1386.02 893.912 1386.02 892.09C1386.02 890.269 1384.54 888.797 1382.73 888.797C1380.92 888.797 1379.43 890.269 1379.43 892.09C1379.43 893.912 1380.92 895.384 1382.73 895.384Z" fill="#F7F5F9"/>
<mask id="mask2" mask-type="alpha" maskUnits="userSpaceOnUse" x="-20" y="1110" width="207" height="16">
<path fill-rule="evenodd" clip-rule="evenodd" d="M-19.9863 1110.7H186.256V1125.87H-19.9863V1110.7Z" fill="white"/>
</mask>
<g mask="url(#mask2)">
<path fill-rule="evenodd" clip-rule="evenodd" d="M111.891 1110.7H111.897C118.071 1110.7 123.844 1112.88 128.154 1116.84C131.477 1119.89 135.894 1121.56 140.597 1121.56C145.301 1121.56 149.724 1119.89 153.047 1116.84C157.362 1112.88 163.142 1110.7 169.316 1110.7H169.328C175.502 1110.7 181.276 1112.88 185.585 1116.84C186.541 1117.72 186.47 1119.09 185.406 1119.89C184.354 1120.68 182.716 1120.62 181.76 1119.74C178.443 1116.69 174.026 1115.01 169.328 1115.01H169.316C164.618 1115.01 160.195 1116.69 156.866 1119.74C152.551 1123.7 146.772 1125.87 140.597 1125.87C134.417 1125.87 128.644 1123.7 124.328 1119.74C121.011 1116.69 116.6 1115.01 111.897 1115.01H111.891C107.187 1115.01 102.764 1116.69 99.435 1119.74C95.1197 1123.7 89.3461 1125.87 83.166 1125.87H83.16C76.9859 1125.87 71.2064 1123.7 66.8911 1119.74C60.2389 1113.64 48.6378 1113.64 41.9736 1119.74C37.6643 1123.7 31.8788 1125.87 25.6987 1125.87C19.5187 1125.87 13.7331 1123.7 9.4178 1119.74C6.10065 1116.69 1.67779 1115.01 -3.03196 1115.01H-3.03793C-7.74171 1115.01 -12.1646 1116.69 -15.4937 1119.74C-16.4619 1120.62 -18.0936 1120.69 -19.1455 1119.88C-20.1974 1119.08 -20.2751 1117.71 -19.3129 1116.84C-14.9916 1112.88 -9.21201 1110.7 -3.03793 1110.7H-3.03196C3.14809 1110.7 8.9277 1112.88 13.249 1116.84C16.5661 1119.89 20.989 1121.56 25.6987 1121.56C30.4085 1121.56 34.8313 1119.89 38.1604 1116.84C46.791 1108.93 62.0797 1108.93 70.7103 1116.84C74.0394 1119.89 78.4563 1121.56 83.16 1121.56H83.166C87.8698 1121.56 92.2867 1119.89 95.6217 1116.84C99.937 1112.88 105.711 1110.7 111.891 1110.7Z" fill="#F7F5F9"/>
</g>
<path fill-rule="evenodd" clip-rule="evenodd" d="M111.892 1146H111.898C118.072 1146 123.845 1148.18 128.155 1152.14C131.478 1155.19 135.895 1156.86 140.598 1156.86C145.302 1156.86 149.725 1155.19 153.048 1152.14C157.363 1148.18 163.143 1146 169.317 1146H169.329C175.503 1146 181.277 1148.18 185.586 1152.14C186.542 1153.02 186.471 1154.39 185.407 1155.19C184.355 1155.98 182.717 1155.92 181.761 1155.04C178.444 1151.99 174.027 1150.32 169.329 1150.32H169.317C164.619 1150.32 160.196 1151.99 156.867 1155.04C152.552 1159 146.772 1161.17 140.598 1161.17C134.418 1161.17 128.645 1159 124.329 1155.04C121.012 1151.99 116.601 1150.32 111.898 1150.32H111.892C107.188 1150.32 102.765 1151.99 99.4359 1155.04C95.1207 1159 89.347 1161.17 83.167 1161.17H83.161C76.9869 1161.17 71.2073 1159 66.8921 1155.04C60.2398 1148.94 48.6388 1148.94 41.9746 1155.04C37.6653 1159 31.8797 1161.17 25.6997 1161.17C19.5196 1161.17 13.7341 1159 9.41877 1155.04C6.10163 1151.99 1.67877 1150.32 -3.03098 1150.32H-3.03696C-7.74073 1150.32 -12.1636 1151.99 -15.4927 1155.04C-16.4609 1155.92 -18.0926 1155.99 -19.1445 1155.18C-20.1965 1154.38 -20.2742 1153.02 -19.3119 1152.14C-14.9906 1148.18 -9.21103 1146 -3.03696 1146H-3.03098C3.14907 1146 8.92867 1148.18 13.2499 1152.14C16.5671 1155.19 20.9899 1156.86 25.6997 1156.86C30.4094 1156.86 34.8323 1155.19 38.1614 1152.14C46.7919 1144.23 62.0807 1144.23 70.7113 1152.14C74.0404 1155.19 78.4572 1156.86 83.161 1156.86H83.167C87.8708 1156.86 92.2876 1155.19 95.6227 1152.14C99.938 1148.18 105.712 1146 111.892 1146Z" fill="#F7F5F9"/>
<path fill-rule="evenodd" clip-rule="evenodd" d="M111.892 1181.17H111.898C118.072 1181.17 123.845 1183.35 128.155 1187.31C131.478 1190.36 135.895 1192.04 140.598 1192.04C145.302 1192.04 149.725 1190.36 153.048 1187.31C157.363 1183.35 163.143 1181.17 169.317 1181.17H169.329C175.503 1181.17 181.277 1183.35 185.586 1187.31C186.542 1188.19 186.471 1189.56 185.407 1190.36C184.355 1191.15 182.717 1191.09 181.761 1190.21C178.444 1187.17 174.027 1185.49 169.329 1185.49H169.317C164.619 1185.49 160.196 1187.17 156.867 1190.21C152.552 1194.17 146.772 1196.35 140.598 1196.35C134.418 1196.35 128.645 1194.17 124.329 1190.21C121.012 1187.17 116.601 1185.49 111.898 1185.49H111.892C107.188 1185.49 102.765 1187.17 99.4359 1190.21C95.1207 1194.17 89.347 1196.35 83.167 1196.35H83.161C76.9869 1196.35 71.2073 1194.17 66.8921 1190.21C60.2398 1184.12 48.6388 1184.12 41.9746 1190.21C37.6653 1194.17 31.8797 1196.35 25.6997 1196.35C19.5196 1196.35 13.7341 1194.17 9.41877 1190.21C6.10163 1187.17 1.67877 1185.49 -3.03098 1185.49H-3.03696C-7.74073 1185.49 -12.1636 1187.17 -15.4927 1190.21C-16.4609 1191.09 -18.0926 1191.16 -19.1445 1190.35C-20.1965 1189.56 -20.2742 1188.19 -19.3119 1187.31C-14.9906 1183.35 -9.21103 1181.17 -3.03696 1181.17H-3.03098C3.14907 1181.17 8.92867 1183.35 13.2499 1187.31C16.5671 1190.36 20.9899 1192.04 25.6997 1192.04C30.4094 1192.04 34.8323 1190.36 38.1614 1187.31C46.7919 1179.4 62.0807 1179.4 70.7113 1187.31C74.0404 1190.36 78.4572 1192.04 83.161 1192.04H83.167C87.8708 1192.04 92.2876 1190.36 95.6227 1187.31C99.938 1183.35 105.712 1181.17 111.892 1181.17Z" fill="#F7F5F9"/>
</g>
</g>
</svg>
