<svg width="90" height="90" viewBox="0 0 90 90" fill="none" xmlns="http://www.w3.org/2000/svg">
<g clip-path="url(#clip0)">
<path d="M73.126 54.0865L68.947 48.8407V40.1882C68.947 34.2793 66.7954 28.6612 62.8738 24.2761C63.4614 22.4808 63.7657 20.601 63.7657 18.6975C63.7657 13.8205 61.8099 9.20449 58.259 5.7001C54.5273 2.01799 49.5373 0 44.1796 0C44.0855 0 43.9906 0.000702458 43.8962 0.00193176C33.1477 0.144531 24.4841 8.61073 24.5837 18.8745C24.5995 20.5128 24.8422 22.1201 25.2873 23.6627C22.6182 26.4474 16.4188 33.9811 16.3617 43.8741C16.3192 51.2563 19.6359 58.431 26.2218 65.2073V87.8784C26.2218 88.6058 26.8113 89.1955 27.5389 89.1955C28.2665 89.1955 28.856 88.6058 28.856 87.8784V64.6687C28.856 64.3211 28.7187 63.9874 28.4737 63.7407C25.5938 60.8396 23.3665 57.8754 21.7952 54.8658H23.2781C23.4553 56.0349 24.4641 56.9346 25.6819 56.9346H27.5853C28.9277 56.9346 30.0195 55.8426 30.0195 54.5004V52.5971C30.0195 51.2549 28.9275 50.1629 27.5853 50.1629H25.6819C24.4641 50.1629 23.4553 51.0627 23.2781 52.2318H20.5921C19.8322 50.2906 19.3423 48.3328 19.1256 46.3629H25.0741C25.2513 47.532 26.2601 48.4317 27.4778 48.4317H29.3813C30.7237 48.4317 31.8155 47.3397 31.8155 45.9975V44.094C31.8155 42.7518 30.7235 41.6598 29.3813 41.6598H27.4778C26.2601 41.6598 25.2513 42.5595 25.0741 43.7285H19.0002C19.0279 41.6505 19.3563 39.6843 19.877 37.8597H23.2781C23.4553 39.0288 24.4641 39.9286 25.6819 39.9286H27.5853C28.9277 39.9286 30.0195 38.8366 30.0195 37.4944V35.5911C30.0195 34.2489 28.9275 33.1569 27.5853 33.1569H25.6819C24.4642 33.1569 23.4555 34.0568 23.2781 35.2256H20.7916C22.3821 31.3268 24.6962 28.2708 26.3321 26.4179C27.8165 29.5415 30.1944 32.2637 33.2713 34.2338C34.3959 34.954 35.0675 36.1455 35.0675 37.4212V40.7103C35.0675 41.8577 35.911 42.8148 37.0231 43.0235V43.8761C37.0231 45.3424 37.9249 46.6011 39.2025 47.1299V48.3107C39.2025 50.2519 40.7818 51.8314 42.7232 51.8314H45.6256C47.567 51.8314 49.1463 50.2519 49.1463 48.3107V47.1299C50.4239 46.6013 51.3257 45.3426 51.3257 43.8761V42.9781C52.3411 42.701 53.0892 41.7905 53.0892 40.7103V37.5434C53.0892 36.2519 53.771 35.0539 54.9128 34.3384C55.6627 33.8687 56.3927 33.3378 57.0827 32.7605C57.6406 32.2938 57.7146 31.4631 57.2476 30.9052C56.781 30.3472 55.95 30.2733 55.3924 30.7401C54.7944 31.2404 54.1624 31.7 53.5142 32.1062C51.5988 33.3064 50.455 35.3391 50.455 37.5434V40.4326H50.0086H48.5408V35.0009C48.5408 34.2735 47.9513 33.6837 47.2237 33.6837C46.4961 33.6837 45.9066 34.2735 45.9066 35.0009V40.4326H42.4422V24.7353L44.0159 23.5921C44.1106 23.523 44.2381 23.523 44.3331 23.5921L45.9066 24.7353V29.9707C45.9066 30.6981 46.4961 31.2878 47.2237 31.2878C47.9513 31.2878 48.5408 30.6981 48.5408 29.9707V26.2488C48.6811 26.27 48.8225 26.2816 48.9639 26.2816C49.5581 26.2816 50.1524 26.0932 50.671 25.7165C51.7078 24.9631 52.1221 23.6886 51.7259 22.4697L50.6092 19.0322C50.573 18.9207 50.6124 18.7995 50.7072 18.7307L53.6312 16.6063C54.6682 15.8529 55.0823 14.5785 54.6863 13.3595C54.2901 12.1406 53.206 11.353 51.9242 11.353H48.3099C48.1927 11.353 48.0895 11.278 48.0533 11.1665L46.9366 7.72915C46.5406 6.51038 45.4565 5.72258 44.1747 5.72258C44.1747 5.72258 44.1747 5.72258 44.1745 5.72258C42.8929 5.72258 41.8086 6.51003 41.4124 7.72915L40.2957 11.1665C40.2595 11.278 40.1563 11.353 40.0391 11.353H36.425C35.1432 11.353 34.0589 12.1406 33.6629 13.3597C33.2667 14.5786 33.681 15.8531 34.7178 16.6065L37.6416 18.7307C37.7367 18.7997 37.776 18.9209 37.7398 19.0324L36.6231 22.4697C36.2269 23.6886 36.6412 24.9631 37.678 25.7165C38.32 26.1829 39.0778 26.3597 39.8082 26.2489V40.4326H38.3404H37.7019V37.4214C37.7019 35.2432 36.5767 33.2222 34.6919 32.0156C30.0634 29.0517 27.2691 24.1296 27.218 18.8491C27.1323 10.0325 34.6299 2.75943 43.9313 2.63615C48.6808 2.57451 53.1172 4.32732 56.4089 7.57566C59.4546 10.5811 61.1319 14.5312 61.1319 18.698C61.1319 21.6413 60.2821 24.5212 58.6745 27.0264C58.2818 27.6386 58.4593 28.4534 59.0717 28.8463C59.6837 29.2391 60.4986 29.0612 60.8916 28.4492C61.1942 27.9777 61.4713 27.4935 61.7275 27.0007C64.6972 30.7443 66.3132 35.3574 66.3132 40.1887V49.3017C66.3132 49.5999 66.4143 49.8891 66.6001 50.1223L70.8874 55.504L66.0701 59.1617C65.7421 59.4108 65.5494 59.7989 65.5494 60.2107V72.5931C65.5494 73.2209 65.1469 73.7687 64.5479 73.956L52.1824 77.8262C51.6327 77.9982 51.2586 78.5073 51.2586 79.0833V88.6832C51.2586 89.4106 51.8482 90.0003 52.5757 90.0003C53.3033 90.0003 53.8928 89.4106 53.8928 88.6832V80.0511L65.3347 76.4701C67.0386 75.9368 68.1837 74.3787 68.1837 72.5931V60.8643L72.7084 57.4288C73.2175 57.0422 73.5415 56.4801 73.6209 55.8458C73.6999 55.2113 73.5243 54.5866 73.126 54.0865ZM25.882 52.7971H27.3854V54.3005H25.882V52.7971ZM25.882 35.7909H27.3854V37.2944H25.882V35.7909ZM27.6778 44.294H29.1812V45.7975H27.6778V44.294ZM39.2262 23.5852C39.0676 23.47 39.1117 23.3346 39.128 23.2835L40.2448 19.8462C40.6348 18.6461 40.2111 17.3412 39.1899 16.5993L36.2659 14.475C36.2225 14.4434 36.1075 14.3598 36.1679 14.1733C36.2285 13.9868 36.3709 13.9868 36.4246 13.9868H40.0388C41.3008 13.9868 42.4106 13.1804 42.8007 11.9801L43.9174 8.54295C43.9341 8.49184 43.978 8.35627 44.1742 8.35644C44.3701 8.35644 44.4142 8.49184 44.4309 8.54277L45.5476 11.9802C45.9377 13.1804 47.0476 13.9868 48.3095 13.9868H51.9239C51.9776 13.9868 52.1198 13.9868 52.1804 14.1733C52.2412 14.3598 52.1258 14.4436 52.0824 14.475L49.1583 16.5994C48.1374 17.3412 47.7135 18.6461 48.1035 19.8462L49.2203 23.2837C49.2368 23.3346 49.2809 23.47 49.1221 23.5852C48.9633 23.7006 48.8483 23.6168 48.8048 23.5852L45.8811 21.4608C45.3704 21.0897 44.7725 20.9045 44.174 20.9045C43.5758 20.9045 42.9775 21.0899 42.467 21.4608L39.5432 23.5852C39.5002 23.6166 39.385 23.7006 39.2262 23.5852ZM46.5119 48.3105C46.5119 48.7992 46.1142 49.197 45.6254 49.197H42.7231C42.2343 49.197 41.8366 48.7992 41.8366 48.3105V47.3964H46.5119V48.3105ZM48.6913 43.0667V43.8759C48.6913 44.3646 48.2936 44.7622 47.8048 44.7622H40.5435C40.0548 44.7622 39.657 44.3646 39.657 43.8759V43.0667H48.6913Z" fill="#3F3356"/>
<path d="M39.2264 23.5852C39.0678 23.47 39.1119 23.3346 39.1283 23.2835L40.245 19.8462C40.635 18.6461 40.2113 17.3412 39.1901 16.5993L36.2661 14.475C36.2227 14.4434 36.1077 14.3598 36.1681 14.1733C36.2287 13.9868 36.3711 13.9868 36.4248 13.9868H40.039C41.301 13.9868 42.4108 13.1804 42.8009 11.9801L43.9176 8.54295C43.9343 8.49184 43.9782 8.35627 44.1744 8.35644C44.3703 8.35644 44.4144 8.49184 44.4311 8.54277L45.5478 11.9802C45.9379 13.1804 47.0478 13.9868 48.3097 13.9868H51.9241C51.9778 13.9868 52.12 13.9868 52.1806 14.1733C52.2414 14.3598 52.126 14.4436 52.0826 14.475L49.1585 16.5994C48.1376 17.3412 47.7137 18.6461 48.1037 19.8462L49.2205 23.2837C49.237 23.3346 49.2811 23.47 49.1223 23.5852C48.9635 23.7006 48.8485 23.6168 48.805 23.5852L45.8813 21.4608C45.3706 21.0897 44.7727 20.9045 44.1742 20.9045C43.576 20.9045 42.9777 21.0899 42.4672 21.4608L39.5434 23.5852C39.5004 23.6166 39.3852 23.7006 39.2264 23.5852ZM46.5121 48.3105C46.5121 48.7992 46.1144 49.197 45.6256 49.197H42.7233C42.2345 49.197 41.8368 48.7992 41.8368 48.3105V47.3964H46.5121V48.3105ZM48.6915 43.0667V43.8759C48.6915 44.3646 48.2938 44.7622 47.805 44.7622H40.5437C40.055 44.7622 39.6572 44.3646 39.6572 43.8759V43.0667H48.6915Z" fill="#D23C41"/>
</g>
<defs>
<clipPath id="clip0">
<rect width="90" height="90" fill="white"/>
</clipPath>
</defs>
</svg>
