<svg width="89" height="90" viewBox="0 0 89 90" fill="none" xmlns="http://www.w3.org/2000/svg">
<g clip-path="url(#clip0)">
<path d="M84.0629 0.0532227H4.72089C2.11778 0.0532227 0 2.20002 0 4.83861V59.609C0 62.2477 2.11778 64.3945 4.72089 64.3945H49.0015L51.2334 67.5091V70.594C49.4215 71.2348 48.1175 72.9833 48.1175 75.0357V88.6263C48.1175 89.3558 48.7008 89.9469 49.4203 89.9469C50.1398 89.9469 50.7231 89.3558 50.7231 88.6263V75.0357C50.7231 73.8984 51.6357 72.9733 52.7575 72.9733H74.9169C76.0387 72.9733 76.9513 73.8984 76.9513 75.0357V88.6263C76.9513 89.3558 77.5346 89.9469 78.2541 89.9469C78.9736 89.9469 79.5569 89.3558 79.5569 88.6263V75.0357C79.5569 72.9833 78.2529 71.2348 76.441 70.594V68.665L78.9392 65.4007C79.1688 65.1008 79.3366 64.7573 79.4396 64.3944H84.0625C86.6656 64.3944 88.7834 62.2477 88.7834 59.6088V4.83861C88.7838 2.20002 86.666 0.0532227 84.0629 0.0532227ZM29.1499 46.7941C29.1499 44.757 30.785 43.0997 32.7945 43.0997C34.8041 43.0997 36.439 44.757 36.439 46.7941C36.439 48.8312 34.8041 50.4886 32.7945 50.4886C30.785 50.4886 29.1499 48.8312 29.1499 46.7941ZM38.9989 46.0392H45.4672C45.389 46.3831 45.3463 46.7405 45.3463 47.108V47.5491H38.9989C39.028 47.3014 39.0447 47.0497 39.0447 46.7941C39.0447 46.5386 39.0279 46.2869 38.9989 46.0392ZM76.9515 63.5728C76.9515 63.6481 76.9265 63.7222 76.881 63.7818L74.1092 67.4034C73.9319 67.635 73.8358 67.9199 73.8358 68.2131V70.3322H53.839V67.0801C53.839 66.8012 53.7519 66.5295 53.5902 66.304L47.9975 58.4991C47.968 58.4581 47.9518 58.4074 47.9518 58.3567V47.108C47.9518 45.942 48.8877 44.9934 50.038 44.9934H52.025V49.242H51.0443C50.3248 49.242 49.7415 49.8331 49.7415 50.5626C49.7415 51.2921 50.3248 51.8832 51.0443 51.8832H52.025V52.9453C52.025 53.6748 52.6083 54.2659 53.3278 54.2659C54.0472 54.2659 54.6305 53.6748 54.6305 52.9453V38.636C54.6305 37.9065 54.0472 37.3154 53.3278 37.3154C52.6083 37.3154 52.025 37.9065 52.025 38.636V42.352H50.038C48.9301 42.352 47.9114 42.7442 47.1076 43.3976H38.0669C36.9565 41.6322 35.0089 40.4581 32.7947 40.4581C30.5805 40.4581 28.633 41.6324 27.5225 43.3976H23.9875C23.268 43.3976 22.6847 43.9887 22.6847 44.7182C22.6847 45.4477 23.268 46.0388 23.9875 46.0388H26.5904C26.5612 46.2866 26.5445 46.5382 26.5445 46.7937C26.5445 47.0494 26.5612 47.301 26.5904 47.5487H17.0475V46.0388H18.7014C19.4208 46.0388 20.0041 45.4477 20.0041 44.7182C20.0041 43.9887 19.4208 43.3976 18.7014 43.3976H16.4679C15.3508 43.3976 14.442 44.3189 14.442 45.4513V48.1363C14.442 49.2687 15.3508 50.19 16.4679 50.19H27.5225C28.6331 51.9554 30.5805 53.1295 32.7947 53.1295C35.0089 53.1295 36.9563 51.9554 38.0669 50.19H45.3463V57.1748H12.6198V7.27259H74.2996V34.5169C73.4206 34.6889 72.6334 35.1251 72.0227 35.7414C71.2231 34.9344 70.1215 34.4349 68.9068 34.4349C67.6921 34.4349 66.5905 34.9344 65.7909 35.7414C64.9914 34.9344 63.8898 34.4349 62.675 34.4349C62.029 34.4349 61.4155 34.5773 60.8619 34.831V27.7659C60.8619 25.2962 58.8798 23.2867 56.4433 23.2867C54.0068 23.2867 52.0246 25.2962 52.0246 27.7659V33.2778C52.0246 34.0073 52.6079 34.5984 53.3274 34.5984C54.0469 34.5984 54.6302 34.0073 54.6302 33.2778V27.7659C54.6302 26.7524 55.4436 25.928 56.4433 25.928C57.443 25.928 58.2564 26.7526 58.2564 27.7659V38.9142V40.7101V41.1466C58.2564 41.8761 58.8397 42.4672 59.5592 42.4672C60.2786 42.4672 60.8619 41.8761 60.8619 41.1466V40.7101V38.9142C60.8619 37.9007 61.6754 37.0763 62.675 37.0763C63.6747 37.0763 64.4882 37.9009 64.4882 38.9142V39.939V41.0099C64.4882 41.7394 65.0715 42.3306 65.7909 42.3306C66.5104 42.3306 67.0937 41.7394 67.0937 41.0099V39.939V38.9142C67.0937 37.9007 67.9072 37.0763 68.9068 37.0763C69.9065 37.0763 70.7199 37.9009 70.7199 38.9142V39.939V41.0099C70.7199 41.7394 71.3032 42.3306 72.0227 42.3306C72.7422 42.3306 73.3255 41.7394 73.3255 41.0099V39.939V38.9142C73.3255 37.9007 74.1389 37.0763 75.1386 37.0763C76.1382 37.0763 76.9517 37.9009 76.9517 38.9142V63.5728H76.9515ZM86.1782 59.609C86.1782 60.7914 85.2293 61.7533 84.0629 61.7533H79.5572V38.914C79.5572 37.0808 78.4646 35.5021 76.9053 34.8096V7.05989C76.9053 5.72096 75.8306 4.63136 74.5096 4.63136H12.4098C11.089 4.63136 10.0141 5.72078 10.0141 7.05989V57.3879C10.0141 58.7268 11.0888 59.8164 12.4098 59.8164H45.739C45.7856 59.8965 45.8349 59.9756 45.8895 60.0516L47.1089 61.7533H4.72089C3.55448 61.7533 2.60554 60.7914 2.60554 59.609V4.83861C2.60554 3.65622 3.55448 2.69428 4.72089 2.69428H84.0629C85.2293 2.69428 86.1782 3.65622 86.1782 4.83861V59.609Z" fill="#3F3356"/>
<path d="M61.3101 14.8714V21.5539C61.3101 22.2834 61.8934 22.8745 62.6129 22.8745C63.3323 22.8745 63.9156 22.2834 63.9156 21.5539V14.8714C63.9156 11.7495 61.41 9.20947 58.3302 9.20947H28.5883C25.5086 9.20947 23.0029 11.7495 23.0029 14.8714V32.0065C23.0029 35.1284 25.5086 37.6684 28.5883 37.6684H49.1193C49.8388 37.6684 50.4221 37.0773 50.4221 36.3478C50.4221 35.6183 49.8388 35.0272 49.1193 35.0272H28.5883C26.9453 35.0272 25.6085 33.672 25.6085 32.0065V14.8714C25.6085 13.2058 26.9453 11.8507 28.5883 11.8507H58.3302C59.9734 11.8507 61.3101 13.2058 61.3101 14.8714Z" fill="#D23C41"/>
<path d="M41.957 16.2036C41.2163 15.7361 40.2823 15.7126 39.5196 16.1419C38.7569 16.5712 38.2832 17.3875 38.2832 18.272V28.1766C38.2832 29.0609 38.7569 29.877 39.5196 30.3067C39.8828 30.5111 40.2851 30.6131 40.6867 30.6131C41.1283 30.6131 41.5691 30.49 41.957 30.2452L49.8058 25.2929C50.5155 24.8451 50.9392 24.0716 50.9392 23.2243C50.9392 22.3768 50.5155 21.6035 49.8058 21.1557L41.957 16.2036ZM40.8887 27.8083V18.6409L48.1535 23.2245L40.8887 27.8083Z" fill="#D23C41"/>
<path d="M32.795 49.0759C34.0382 49.0759 35.046 48.0543 35.046 46.794C35.046 45.5338 34.0382 44.5122 32.795 44.5122C31.5518 44.5122 30.5439 45.5338 30.5439 46.794C30.5439 48.0543 31.5518 49.0759 32.795 49.0759Z" fill="#3F3356"/>
<path d="M81.6198 30.4631C80.662 30.4631 79.8828 31.253 79.8828 32.224C79.8828 33.1949 80.662 33.9848 81.6198 33.9848C82.5776 33.9848 83.3569 33.1949 83.3569 32.224C83.3569 31.253 82.5776 30.4631 81.6198 30.4631Z" fill="#3F3356"/>
<path d="M6.58109 29.2283C5.86161 29.2283 5.27832 29.8194 5.27832 30.5489V39.475C5.27832 40.2045 5.86161 40.7956 6.58109 40.7956C7.30057 40.7956 7.88386 40.2045 7.88386 39.475V30.5489C7.88386 29.8196 7.30057 29.2283 6.58109 29.2283Z" fill="#3F3356"/>
<path d="M6.58109 23.0105C5.86161 23.0105 5.27832 23.6016 5.27832 24.3311V26.5029C5.27832 27.2324 5.86161 27.8235 6.58109 27.8235C7.30057 27.8235 7.88386 27.2324 7.88386 26.5029V24.3311C7.88386 23.6016 7.30057 23.0105 6.58109 23.0105Z" fill="#3F3356"/>
</g>
<defs>
<clipPath id="clip0">
<rect width="88.7838" height="90" fill="white"/>
</clipPath>
</defs>
</svg>
