<svg width="64" height="90" viewBox="0 0 64 90" fill="none" xmlns="http://www.w3.org/2000/svg">
<path d="M58.7619 1.85574H54.5952C54.1918 0.773841 53.1512 0 51.9304 0H46.5882C45.3676 0 44.3271 0.773841 43.9236 1.85574H14.3096C11.4636 1.85574 9.14811 4.1711 9.14811 7.0172V37.7981C8.46527 38.9392 5.7255 43.4497 1.44455 50.4802C-0.155234 53.1075 -0.364185 56.3545 0.885824 59.1659L6.66287 72.1592V77.6411C5.43856 77.978 4.53552 79.0983 4.53552 80.4282V88.6799C4.53552 89.409 5.12663 90.0002 5.85576 90.0002C6.58489 90.0002 7.17601 89.409 7.17601 88.6799V80.4282C7.17601 80.2888 7.28938 80.1754 7.42879 80.1754H21.1053C21.2447 80.1754 21.3581 80.2888 21.3581 80.4282V88.6799C21.3581 89.409 21.9492 90.0002 22.6783 90.0002C23.4075 90.0002 23.9986 89.409 23.9986 88.6799V80.4282C23.9986 79.0983 23.0955 77.9782 21.8712 77.6411V75.5049H58.7619C61.608 75.5049 63.9234 73.1895 63.9234 70.3434V7.0172C63.9234 4.1711 61.608 1.85574 58.7619 1.85574ZM46.3829 2.84592C46.3829 2.73256 46.475 2.64049 46.5884 2.64049H51.9306C52.044 2.64049 52.1361 2.73256 52.1361 2.84592V12.5052L49.8126 11.4332C49.4618 11.2712 49.0572 11.2712 48.7064 11.4332L46.3829 12.5052V2.84592ZM3.29871 58.093C2.40076 56.0732 2.55074 53.7406 3.69989 51.8533C5.18455 49.4152 7.15876 46.1715 8.76189 43.5326C8.89374 43.3157 9.02189 43.1046 9.14811 42.8966V51.54V58.7272V60.3525C9.14811 61.0816 9.73922 61.6728 10.4684 61.6728C11.1975 61.6728 11.7886 61.0816 11.7886 60.3525V58.7272V51.54C11.7886 50.5267 12.613 49.7024 13.6262 49.7024C14.6395 49.7024 15.4638 50.5267 15.4638 51.54V58.4273C15.4638 58.6966 15.5462 58.9594 15.6997 59.1805L18.0837 62.6119C18.8341 63.692 19.2307 64.9581 19.2307 66.2732V77.5342H9.30337V71.8783C9.30337 71.6934 9.26464 71.5107 9.18948 71.3419L3.29871 58.093ZM61.2829 70.3431C61.2829 71.7332 60.1521 72.8641 58.7619 72.8641H21.8714V71.1037H58.2023C58.9314 71.1037 59.5226 70.5126 59.5226 69.7835V52.7245C59.5226 51.9954 58.9314 51.4042 58.2023 51.4042C57.4732 51.4042 56.8821 51.9954 56.8821 52.7245V68.4632H21.8714V66.2736C21.8714 64.4173 21.3116 62.6302 20.2524 61.1056L18.1045 58.0139V51.5401C18.1045 50.0238 17.3461 48.6819 16.1896 47.8714V21.0516C16.1896 20.3225 15.5985 19.7313 14.8694 19.7313C14.1402 19.7313 13.5491 20.3225 13.5491 21.0516V47.064C12.9228 47.0747 12.3278 47.2145 11.7888 47.4581V7.0172C11.7888 5.62707 12.9196 4.49623 14.3097 4.49623H43.7425V6.25656H14.8694C14.1402 6.25656 13.5491 6.84768 13.5491 7.57681V15.6947C13.5491 16.4239 14.1402 17.015 14.8694 17.015C15.5985 17.015 16.1896 16.4239 16.1896 15.6947V8.89705H43.7425V13.7274C43.7425 14.3643 44.0627 14.9494 44.5992 15.2929C45.1357 15.6363 45.8012 15.6817 46.3796 15.415L49.2595 14.0862L52.1394 15.415C52.3888 15.5301 52.6545 15.5872 52.919 15.5872C53.2678 15.5872 53.6147 15.4881 53.9198 15.293C54.4562 14.9498 54.7765 14.3645 54.7765 13.7276V8.89723H56.8821V47.3678C56.8821 48.0969 57.4732 48.6881 58.2023 48.6881C58.9314 48.6881 59.5226 48.0969 59.5226 47.3678V7.57681C59.5226 6.84768 58.9314 6.25656 58.2023 6.25656H54.7765V4.49623H58.7619C60.1521 4.49623 61.2829 5.62707 61.2829 7.0172V70.3431Z" fill="#3F3356"/>
<path d="M53.4558 42.5088H19.9081C19.179 42.5088 18.5879 43.0999 18.5879 43.829C18.5879 44.5582 19.179 45.1493 19.9081 45.1493H52.1357V55.0304H22.3726C21.6435 55.0304 21.0524 55.6215 21.0524 56.3506C21.0524 57.0797 21.6435 57.6709 22.3726 57.6709H53.456C54.1851 57.6709 54.7762 57.0797 54.7762 56.3506V43.829C54.776 43.0999 54.1851 42.5088 53.4558 42.5088Z" fill="#D23C41"/>
<path d="M32.2287 26.5447C33.1275 26.5447 33.8589 25.8133 33.8589 24.9144V12.2438C33.8589 11.3449 33.1277 10.6135 32.2287 10.6135H19.558C18.6592 10.6135 17.9277 11.3449 17.9277 12.2438V24.9144C17.9277 25.8133 18.6592 26.5447 19.558 26.5447H32.2287ZM20.5681 13.254H31.2182V23.9042H20.5681V13.254Z" fill="#D23C41"/>
<path d="M20.5507 36.8359C19.8216 36.8359 19.2305 37.4271 19.2305 38.1562C19.2305 38.8853 19.8216 39.4764 20.5507 39.4764H24.571C25.3001 39.4764 25.8912 38.8853 25.8912 38.1562C25.8912 37.4271 25.3001 36.8359 24.571 36.8359H20.5507Z" fill="#D23C41"/>
<path d="M53.4557 36.5229H29.4159C28.6868 36.5229 28.0957 37.1141 28.0957 37.8432C28.0957 38.5723 28.6868 39.1634 29.4159 39.1634H53.4557C54.1848 39.1634 54.776 38.5723 54.776 37.8432C54.776 37.1141 54.185 36.5229 53.4557 36.5229Z" fill="#D23C41"/>
<path d="M53.4565 30.0571H49.4365C48.7073 30.0571 48.1162 30.6482 48.1162 31.3774C48.1162 32.1065 48.7073 32.6976 49.4365 32.6976H53.4565C54.1856 32.6976 54.7768 32.1065 54.7768 31.3774C54.7768 30.6482 54.1858 30.0571 53.4565 30.0571Z" fill="#D23C41"/>
<path d="M45.9109 31.6904C45.9109 30.9612 45.3198 30.3701 44.5907 30.3701H20.5507C19.8216 30.3701 19.2305 30.9612 19.2305 31.6904C19.2305 32.4195 19.8216 33.0106 20.5507 33.0106H44.5907C45.3198 33.0106 45.9109 32.4195 45.9109 31.6904Z" fill="#D23C41"/>
<path d="M37.4677 26.5448H40.0327C40.7618 26.5448 41.3529 25.9537 41.3529 25.2245C41.3529 24.4954 40.7618 23.9043 40.0327 23.9043H37.4677C36.7386 23.9043 36.1475 24.4954 36.1475 25.2245C36.1475 25.9537 36.7386 26.5448 37.4677 26.5448Z" fill="#D23C41"/>
<path d="M53.4559 23.9043H44.5908C43.8616 23.9043 43.2705 24.4954 43.2705 25.2245C43.2705 25.9537 43.8616 26.5448 44.5908 26.5448H53.4559C54.1851 26.5448 54.7762 25.9537 54.7762 25.2245C54.7762 24.4954 54.1853 23.9043 53.4559 23.9043Z" fill="#D23C41"/>
<path d="M53.4565 17.2588H50.8915C50.1624 17.2588 49.5713 17.8499 49.5713 18.579C49.5713 19.3082 50.1624 19.8993 50.8915 19.8993H53.4565C54.1856 19.8993 54.7768 19.3082 54.7768 18.579C54.7768 17.8499 54.1858 17.2588 53.4565 17.2588Z" fill="#D23C41"/>
<path d="M37.4677 19.8993H46.3329C47.062 19.8993 47.6532 19.3082 47.6532 18.579C47.6532 17.8499 47.062 17.2588 46.3329 17.2588H37.4677C36.7386 17.2588 36.1475 17.8499 36.1475 18.579C36.1475 19.3082 36.7386 19.8993 37.4677 19.8993Z" fill="#D23C41"/>
</svg>
