<svg width="78" height="90" viewBox="0 0 78 90" fill="none" xmlns="http://www.w3.org/2000/svg">
<path d="M72.8741 20.719H67.2223C66.4942 20.719 65.904 21.3093 65.904 22.0373C65.904 22.7654 66.4942 23.3556 67.2223 23.3556H72.8741C74.1423 23.3556 75.174 24.3875 75.174 25.6557V67.2113C75.174 68.4796 74.1421 69.5112 72.8741 69.5112H5.125C3.85677 69.5112 2.82513 68.4794 2.82513 67.2113V25.6557C2.82513 24.3875 3.85695 23.3556 5.125 23.3556H10.7768C11.5048 23.3556 12.0951 22.7654 12.0951 22.0373C12.0951 21.3093 11.5048 20.719 10.7768 20.719H5.125C2.40292 20.719 0.188477 22.9336 0.188477 25.6557V67.2113C0.188477 69.9334 2.40309 72.1479 5.125 72.1479H26.9876V74.9041C26.9876 75.6321 27.5779 76.2224 28.306 76.2224C29.034 76.2224 29.6243 75.6321 29.6243 74.9041V72.1479H48.3746V83.7017C48.3746 83.9466 48.4428 84.1865 48.5715 84.3946L50.4059 87.3633H27.5932L29.0412 85.02H37.9159C38.6439 85.02 39.2342 84.4298 39.2342 83.7017C39.2342 82.9736 38.6439 82.3834 37.9159 82.3834H29.6245V80.2533C29.6245 79.5252 29.0342 78.935 28.3061 78.935C27.5781 78.935 26.9878 79.5252 26.9878 80.2533V83.3273L24.4937 87.3633H21.1722C20.4442 87.3633 19.8539 87.9536 19.8539 88.6816C19.8539 89.4097 20.4442 90 21.1722 90H25.2288H52.7705H57.4804C58.2085 90 58.7987 89.4097 58.7987 88.6816C58.7987 87.9536 58.2085 87.3633 57.4804 87.3633H53.5054L51.0113 83.3273V72.1479H72.8739C75.596 72.1479 77.8104 69.9333 77.8104 67.2113V25.6557C77.8106 22.9336 75.5962 20.719 72.8741 20.719Z" fill="#3F3356"/>
<path d="M73.2405 60.0643V27.1079C73.2405 26.1051 72.4247 25.2893 71.4219 25.2893H67.2222C66.4942 25.2893 65.9039 25.8796 65.9039 26.6076C65.9039 27.3357 66.4942 27.926 67.2222 27.926H70.6037V59.2461H7.39545V27.926H10.7769C11.5049 27.926 12.0952 27.3357 12.0952 26.6076C12.0952 25.8796 11.5049 25.2893 10.7769 25.2893H6.57738C5.57457 25.2893 4.75879 26.1051 4.75879 27.1079V60.0643C4.75879 61.0672 5.57457 61.8829 6.57738 61.8829H71.4219C72.4247 61.8828 73.2405 61.067 73.2405 60.0643Z" fill="#3F3356"/>
<path d="M39.0879 67.4357C40.0587 67.4357 40.8456 66.6487 40.8456 65.6779C40.8456 64.7071 40.0587 63.9202 39.0879 63.9202C38.1171 63.9202 37.3301 64.7071 37.3301 65.6779C37.3301 66.6487 38.1171 67.4357 39.0879 67.4357Z" fill="#3F3356"/>
<path d="M44.4366 85.0202C45.1647 85.0202 45.7549 84.4299 45.7549 83.7019C45.7549 82.9738 45.1647 82.3835 44.4366 82.3835H42.2041C41.476 82.3835 40.8857 82.9738 40.8857 83.7019C40.8857 84.4299 41.476 85.0202 42.2041 85.0202H44.4366Z" fill="#3F3356"/>
<path d="M16.3703 21.7524C16.4427 21.7642 16.5146 21.77 16.5856 21.77C17.2197 21.77 17.7788 21.3114 17.885 20.6652C18.0771 19.4958 18.3685 18.3351 18.7512 17.2156C18.9866 16.5267 18.619 15.7772 17.93 15.5418C17.2409 15.3065 16.4916 15.6742 16.2562 16.3631C15.8264 17.6208 15.4991 18.9245 15.2833 20.2379C15.1652 20.9561 15.6519 21.6343 16.3703 21.7524Z" fill="#3F3356"/>
<path d="M18.3909 14.4881C18.5903 14.5959 18.8049 14.647 19.0167 14.647C19.4853 14.647 19.9392 14.3966 20.1775 13.9554C20.7406 12.9139 21.3951 11.9109 22.123 10.9744C22.5699 10.3996 22.4662 9.57131 21.8912 9.12448C21.3164 8.67748 20.4881 8.78154 20.0413 9.35633C19.2245 10.4073 18.4899 11.5328 17.858 12.7017C17.5119 13.3421 17.7504 14.142 18.3909 14.4881Z" fill="#3F3356"/>
<path d="M23.638 8.7019C23.958 8.7019 24.2788 8.58624 24.5322 8.35193C25.4032 7.54757 26.3466 6.81001 27.3364 6.15981C27.9449 5.76009 28.1142 4.94273 27.7145 4.33419C27.3148 3.72565 26.4974 3.55638 25.8889 3.95609C24.7785 4.68539 23.7201 5.51277 22.7432 6.41504C22.2083 6.90915 22.1752 7.74303 22.6693 8.27792C22.9291 8.55934 23.2832 8.7019 23.638 8.7019Z" fill="#3F3356"/>
<path d="M29.9286 4.57237C30.1063 4.57237 30.287 4.53616 30.46 4.45988C31.5437 3.98176 32.675 3.59154 33.8224 3.29957C34.528 3.1201 34.9546 2.40258 34.7751 1.69701C34.5957 0.991442 33.879 0.565006 33.1726 0.744299C31.8836 1.07212 30.6129 1.51051 29.3958 2.04751C28.7296 2.34141 28.428 3.11958 28.7219 3.78577C28.9392 4.27883 29.4222 4.57237 29.9286 4.57237Z" fill="#3F3356"/>
<path d="M22.7804 41.9963C23.0337 42.2293 23.3535 42.3442 23.6725 42.3442C24.0285 42.3442 24.3834 42.201 24.6432 41.9183C25.136 41.3824 25.1011 40.5485 24.5653 40.0554C23.6927 39.2532 22.8808 38.3727 22.1515 37.4386C21.7034 36.8647 20.8752 36.7624 20.3011 37.2108C19.7272 37.6589 19.6251 38.4873 20.0733 39.0612C20.8912 40.1089 21.8021 41.0964 22.7804 41.9963Z" fill="#3F3356"/>
<path d="M16.5912 29.2969C16.6633 29.2969 16.7362 29.291 16.8097 29.2788C17.5277 29.159 18.0129 28.4798 17.8932 27.7615C17.6991 26.5975 17.6 25.4038 17.5986 24.2137C17.5977 23.4859 17.0078 22.8967 16.2802 22.8967C16.2799 22.8967 16.2792 22.8967 16.2788 22.8967C15.5506 22.8976 14.961 23.4884 14.9619 24.2166C14.9635 25.5506 15.0746 26.8893 15.2924 28.1952C15.4 28.8401 15.9584 29.2969 16.5912 29.2969Z" fill="#3F3356"/>
<path d="M58.6415 36.2308C58.8412 36.3391 59.0564 36.3904 59.2685 36.3904C59.7366 36.3904 60.1899 36.1406 60.4287 35.7001C61.0634 34.5293 61.6041 33.298 62.0354 32.0404C62.2717 31.3518 61.9048 30.6019 61.2161 30.3656C60.5273 30.1294 59.7776 30.4961 59.5413 31.1849C59.1573 32.3045 58.676 33.4008 58.1107 34.4437C57.7639 35.0837 58.0013 35.8838 58.6415 36.2308Z" fill="#3F3356"/>
<path d="M54.6438 42.3292C54.9632 42.3292 55.2835 42.2139 55.5368 41.9804C56.5146 41.0794 57.4246 40.0908 58.2415 39.0427C58.689 38.4684 58.5862 37.64 58.0117 37.1926C57.4373 36.7449 56.609 36.8479 56.1617 37.4224C55.4334 38.357 54.6222 39.2381 53.7502 40.0416C53.2147 40.535 53.1806 41.3691 53.6741 41.9045C53.934 42.1863 54.2884 42.3292 54.6438 42.3292Z" fill="#3F3356"/>
<path d="M37.2203 2.7167C37.257 2.7167 37.2941 2.71512 37.3316 2.71213C38.5086 2.61387 39.7172 2.61194 40.8926 2.7058C41.62 2.76381 42.2538 2.22259 42.3118 1.49681C42.37 0.771022 41.8286 0.135588 41.1028 0.0775813C39.7852 -0.0278849 38.4314 -0.0254241 37.112 0.0846124C36.3866 0.145256 35.8475 0.782623 35.9079 1.50823C35.9654 2.19622 36.5418 2.7167 37.2203 2.7167Z" fill="#3F3356"/>
<path d="M20.2012 34.4631C19.6353 33.4221 19.1532 32.3274 18.7682 31.2094C18.5311 30.5209 17.7809 30.1553 17.0925 30.3922C16.404 30.6294 16.0382 31.3796 16.2754 32.0679C16.7078 33.3237 17.2492 34.5532 17.8846 35.7223C18.1237 36.1619 18.5766 36.4114 19.0442 36.4114C19.2567 36.4114 19.4726 36.3599 19.6726 36.2511C20.3121 35.9032 20.5489 35.1027 20.2012 34.4631Z" fill="#3F3356"/>
<path d="M44.4037 3.28057C45.5526 3.56832 46.6859 3.95485 47.7722 4.42945C47.9441 4.50451 48.123 4.54002 48.2993 4.54002C48.8075 4.54002 49.2916 4.24454 49.508 3.7492C49.7996 3.08212 49.495 2.30483 48.8277 2.0134C47.6078 1.48026 46.3347 1.04609 45.0441 0.72284C44.3387 0.546184 43.6221 0.975081 43.4451 1.68153C43.2682 2.3878 43.6975 3.10374 44.4037 3.28057Z" fill="#3F3356"/>
<path d="M27.3756 42.2416C26.7664 41.8433 25.9494 42.0143 25.5509 42.6237C25.1526 43.2331 25.3236 44.0502 25.933 44.4485C27.0478 45.1772 28.2301 45.8171 29.4472 46.3506C29.6194 46.4261 29.7989 46.4618 29.9757 46.4618C30.4832 46.4618 30.9669 46.1671 31.1838 45.6724C31.4763 45.0057 31.1728 44.228 30.5059 43.9357C29.4219 43.4609 28.3688 42.8907 27.3756 42.2416Z" fill="#3F3356"/>
<path d="M44.4531 45.0829C43.3074 45.3727 42.1267 45.5691 40.9436 45.6665C40.218 45.7262 39.6782 46.3629 39.7379 47.0885C39.7947 47.7774 40.3712 48.2987 41.0503 48.2987C41.0865 48.2987 41.1232 48.2971 41.16 48.2942C42.4878 48.1848 43.8133 47.9644 45.0998 47.639C45.8058 47.4604 46.2331 46.7434 46.0547 46.0377C45.8762 45.3319 45.1592 44.9041 44.4531 45.0829Z" fill="#3F3356"/>
<path d="M50.9435 42.2304C49.9514 42.8801 48.8998 43.451 47.8173 43.9268C47.1508 44.2199 46.8481 44.9979 47.1411 45.6644C47.3584 46.1583 47.8416 46.4524 48.3487 46.4524C48.5259 46.4524 48.7061 46.4164 48.8787 46.3406C50.094 45.8061 51.2747 45.1654 52.3881 44.4361C52.9971 44.0371 53.1675 43.22 52.7686 42.611C52.3696 42.0015 51.5523 41.8314 50.9435 42.2304Z" fill="#3F3356"/>
<path d="M33.8729 45.0893C33.1663 44.9114 32.4503 45.34 32.2726 46.0459C32.0949 46.752 32.5231 47.4685 33.2292 47.6462C34.5157 47.9701 35.8416 48.189 37.1699 48.2967C37.2063 48.2997 37.2422 48.3011 37.2781 48.3011C37.9578 48.3011 38.5347 47.7787 38.5906 47.0893C38.6493 46.3635 38.1088 45.7276 37.3832 45.6687C36.1995 45.5725 35.0184 45.3776 33.8729 45.0893Z" fill="#3F3356"/>
<path d="M50.904 6.12015C51.8963 6.76701 52.8423 7.50158 53.7161 8.3033C53.9692 8.53568 54.2886 8.65028 54.6071 8.65028C54.9634 8.65028 55.3188 8.50667 55.5788 8.22332C56.0712 7.68685 56.0353 6.85296 55.4988 6.36061C54.5187 5.46116 53.4572 4.63712 52.3442 3.91133C51.7342 3.5139 50.9174 3.68563 50.5198 4.29576C50.1222 4.9057 50.2942 5.72254 50.904 6.12015Z" fill="#3F3356"/>
<path d="M62.0201 22.8154C61.2921 22.8154 60.7018 23.4057 60.7018 24.1338V24.1881C60.7018 25.3781 60.6041 26.5718 60.4114 27.736C60.2926 28.4542 60.7785 29.133 61.4969 29.2519C61.5698 29.2638 61.6422 29.2698 61.7138 29.2698C62.3471 29.2698 62.9059 28.8121 63.0128 28.1666C63.229 26.8604 63.3386 25.5219 63.3386 24.1882V24.1339C63.3385 23.4057 62.7482 22.8154 62.0201 22.8154Z" fill="#3F3356"/>
<path d="M56.1337 10.9175C56.8646 11.8514 57.5222 12.8516 58.0886 13.8906C58.3278 14.3297 58.7802 14.5784 59.2473 14.5784C59.4603 14.5784 59.6765 14.5265 59.8769 14.4174C60.5162 14.069 60.7521 13.2682 60.4037 12.629C59.7683 11.4631 59.0304 10.3406 58.2102 9.2926C57.7614 8.71922 56.9332 8.61797 56.3594 9.06691C55.786 9.51549 55.685 10.3441 56.1337 10.9175Z" fill="#3F3356"/>
<path d="M59.5249 17.1424C59.9114 18.2605 60.2071 19.4201 60.4036 20.589C60.5119 21.233 61.0702 21.689 61.7021 21.689C61.7747 21.689 61.8483 21.683 61.9222 21.6707C62.6401 21.55 63.1245 20.8701 63.0037 20.152C62.7831 18.8393 62.4511 17.537 62.0167 16.2809C61.7787 15.5927 61.0283 15.2281 60.34 15.4656C59.652 15.7036 59.2869 16.4544 59.5249 17.1424Z" fill="#3F3356"/>
<path d="M39.1504 5.65698C28.9323 5.65698 20.6191 13.97 20.6191 24.1883C20.6191 34.4066 28.9322 42.7196 39.1504 42.7196C49.3687 42.7196 57.6817 34.4064 57.6817 24.1881C57.6817 13.9698 49.3685 5.65698 39.1504 5.65698ZM49.5596 22.8698C49.4868 20.9478 49.2564 19.1152 48.8897 17.4108C51.9964 18.7461 54.2065 20.6872 54.851 22.8698H49.5596ZM46.9189 22.8698H40.4688V15.5731C42.3927 15.6638 44.2316 15.9503 45.9159 16.3952C46.4821 18.376 46.8238 20.5722 46.9189 22.8698ZM40.4688 12.9356V8.54781C41.9144 9.09501 43.3099 10.5158 44.4317 12.6339C44.5689 12.893 44.699 13.1623 44.8258 13.4358C43.4243 13.1669 41.9639 12.9983 40.4688 12.9356ZM37.8321 8.54781V12.9356C36.337 12.9981 34.8764 13.1669 33.4751 13.4358C33.6019 13.1623 33.7319 12.893 33.8692 12.6339C34.9909 10.5158 36.3865 9.09501 37.8321 8.54781ZM37.8321 15.5731V22.8698H31.382C31.4771 20.572 31.8186 18.376 32.385 16.3952C34.0691 15.9503 35.9081 15.6638 37.8321 15.5731ZM28.7411 22.8698H23.4497C24.0943 20.6872 26.3041 18.7462 29.4108 17.411C29.0443 19.1152 28.8137 20.948 28.7411 22.8698ZM28.7411 25.5064C28.8139 27.4282 29.0443 29.261 29.411 30.9652C26.3043 29.63 24.0943 27.6891 23.4499 25.5064H28.7411ZM31.3818 25.5064H37.8319V32.8031C35.9081 32.7124 34.0689 32.4259 32.3846 31.981C31.8186 30.0002 31.4769 27.8042 31.3818 25.5064ZM37.8321 35.4407V39.8286C36.3865 39.2814 34.9909 37.8606 33.8692 35.7425C33.7319 35.4832 33.6019 35.2141 33.4751 34.9404C34.8764 35.2093 36.3368 35.3781 37.8321 35.4407ZM40.4688 39.8286V35.4407C41.9639 35.3781 43.4245 35.2093 44.8258 34.9404C44.699 35.2141 44.5689 35.4832 44.4317 35.7425C43.3099 37.8606 41.9144 39.2814 40.4688 39.8286ZM40.4688 32.8031V25.5064H46.9189C46.8238 27.804 46.4823 30.0002 45.9159 31.981C44.2316 32.4259 42.3927 32.7124 40.4688 32.8031ZM49.5596 25.5064H54.851C54.2065 27.6891 51.9966 29.63 48.8897 30.9652C49.2564 29.2612 49.487 27.4284 49.5596 25.5064ZM53.2124 16.786C52.8256 16.5142 52.4158 16.2519 51.9823 16.0009C50.7802 15.305 49.4411 14.7209 48.0052 14.2514C47.3984 12.5255 46.6352 10.9988 45.7481 9.72904C48.9453 11.1938 51.5754 13.6884 53.2124 16.786ZM32.5526 9.72904C31.6655 10.9988 30.9023 12.5255 30.2955 14.2514C28.8596 14.7208 27.5205 15.305 26.3185 16.0009C25.8851 16.2519 25.4753 16.514 25.0884 16.786C26.7255 13.6884 29.3556 11.1938 32.5526 9.72904ZM25.0883 31.5904C25.4752 31.8622 25.8849 32.1244 26.3185 32.3755C27.5207 33.0714 28.8597 33.6555 30.2955 34.1248C30.9023 35.8507 31.6655 37.3774 32.5526 38.6474C29.3554 37.1826 26.7255 34.6878 25.0883 31.5904ZM45.7481 38.6474C46.6352 37.3775 47.3984 35.8509 48.0052 34.1248C49.4411 33.6555 50.7802 33.0714 51.9823 32.3755C52.4158 32.1244 52.8256 31.8622 53.2126 31.5904C51.5754 34.688 48.9453 37.1826 45.7481 38.6474Z" fill="#D23C41"/>
<path d="M62.4602 36.6487C62.4602 37.3768 63.0505 37.967 63.7785 37.967H65.7282V53.0343H58.2343C57.5063 53.0343 56.916 53.6245 56.916 54.3526C56.916 55.0807 57.5063 55.6709 58.2343 55.6709H66.2695C67.4249 55.6709 68.3649 54.7309 68.3649 53.5755V37.426C68.3649 36.2706 67.4249 35.3306 66.2695 35.3306H63.7785C63.0505 35.3304 62.4602 35.9207 62.4602 36.6487Z" fill="#3F3356"/>
<path d="M9.93652 37.4262V53.5757C9.93652 54.7311 10.8766 55.6711 12.032 55.6711H52.8854C53.6135 55.6711 54.2037 55.0809 54.2037 54.3528C54.2037 53.6247 53.6135 53.0345 52.8854 53.0345H12.5732V37.9672H14.3969C15.1249 37.9672 15.7152 37.377 15.7152 36.6489C15.7152 35.9208 15.1249 35.3306 14.3969 35.3306H12.032C10.8766 35.3307 9.93652 36.2708 9.93652 37.4262Z" fill="#3F3356"/>
</svg>
