<svg width="90" height="84" viewBox="0 0 90 84" fill="none" xmlns="http://www.w3.org/2000/svg">
<path d="M23.5901 46.9883H15.1824C14.0081 46.9883 13.0527 47.9438 13.0527 49.118V57.5257C13.0527 58.7 14.0083 59.6554 15.1824 59.6554H23.5901C24.7645 59.6554 25.7198 58.6998 25.7198 57.5257V49.118C25.7198 47.9436 24.7645 46.9883 23.5901 46.9883ZM23.0817 57.0172H15.6909V49.6264H23.0817V57.0172Z" fill="#3F3356"/>
<path d="M39.6417 46.9883H31.2342C30.0598 46.9883 29.1045 47.9438 29.1045 49.118V57.5257C29.1045 58.7 30.06 59.6554 31.2342 59.6554H39.6417C40.816 59.6554 41.7714 58.6998 41.7714 57.5257V49.118C41.7714 47.9436 40.8159 46.9883 39.6417 46.9883ZM39.1333 57.0172H31.7424V49.6264H39.1331V57.0172H39.1333Z" fill="#3F3356"/>
<path d="M55.6925 46.9883H47.285C46.1106 46.9883 45.1553 47.9438 45.1553 49.118V57.5257C45.1553 58.7 46.1108 59.6554 47.285 59.6554H55.6925C56.8668 59.6554 57.8222 58.6998 57.8222 57.5257V49.118C57.8224 47.9436 56.8668 46.9883 55.6925 46.9883ZM55.1842 57.0172H47.7936V49.6264H55.1842V57.0172Z" fill="#3F3356"/>
<path d="M23.5901 62.458H15.1824C14.0081 62.458 13.0527 63.4135 13.0527 64.5877V72.9952C13.0527 74.1696 14.0083 75.1249 15.1824 75.1249H23.5901C24.7645 75.1249 25.7198 74.1694 25.7198 72.9952V64.5877C25.7198 63.4134 24.7645 62.458 23.5901 62.458ZM23.0817 72.4868H15.6909V65.0961H23.0817V72.4868Z" fill="#3F3356"/>
<path d="M39.6417 62.458H31.2342C30.0598 62.458 29.1045 63.4135 29.1045 64.5877V72.9952C29.1045 74.1696 30.06 75.1249 31.2342 75.1249H39.6417C40.816 75.1249 41.7714 74.1694 41.7714 72.9952V64.5877C41.7714 63.4134 40.8159 62.458 39.6417 62.458ZM39.1333 72.4868H31.7424V65.0961H39.1331V72.4868H39.1333Z" fill="#3F3356"/>
<path d="M55.6925 62.458H47.285C46.1106 62.458 45.1553 63.4135 45.1553 64.5877V72.9952C45.1553 74.1696 46.1108 75.1249 47.285 75.1249H55.6925C56.8668 75.1249 57.8222 74.1694 57.8222 72.9952V64.5877C57.8224 63.4134 56.8668 62.458 55.6925 62.458ZM55.1842 72.4868H47.7936V65.0961H55.1842V72.4868Z" fill="#3F3356"/>
<path d="M75.832 44.7019H62.5437C61.3694 44.7019 60.4141 45.6574 60.4141 46.8316V52.2957C60.4141 53.0243 61.0045 53.6147 61.7331 53.6147C62.4618 53.6147 63.0522 53.0243 63.0522 52.2957V47.3399H75.3235V75.6408H63.0522V57.6479C63.0522 56.9193 62.4618 56.3288 61.7331 56.3288C61.0045 56.3288 60.4141 56.9193 60.4141 57.6479V76.1493C60.4141 77.3236 61.3696 78.279 62.5437 78.279H75.832C77.0063 78.279 77.9617 77.3234 77.9617 76.1493V46.8316C77.9617 45.6573 77.0063 44.7019 75.832 44.7019Z" fill="#3F3356"/>
<path d="M34.0696 55.6603C34.3132 55.8812 34.6294 56.0024 34.956 56.0024C34.9875 56.0024 35.019 56.0011 35.0506 55.9988C35.4101 55.9732 35.7434 55.8012 35.9729 55.5233L38.209 52.8162C38.673 52.2546 38.5938 51.4231 38.0321 50.9591C37.4703 50.4952 36.639 50.5743 36.175 51.1361L34.8188 52.7777L34.4634 52.455C33.9238 51.9657 33.0896 52.0059 32.6 52.5455C32.1105 53.0851 32.151 53.9195 32.6906 54.4089L34.0696 55.6603Z" fill="#D23C41"/>
<path d="M17.4926 68.7535L17.029 69.219C16.5149 69.7354 16.5167 70.5705 17.0329 71.0844C17.2904 71.3406 17.627 71.4688 17.9636 71.4688C18.3022 71.4688 18.6407 71.3394 18.8982 71.0805L19.3618 70.6148L19.8274 71.0782C20.0848 71.3346 20.4215 71.4627 20.7581 71.4627C21.0967 71.4627 21.4352 71.3332 21.6927 71.0743C22.2068 70.558 22.2048 69.7227 21.6888 69.209L21.2233 68.7454L21.6867 68.28C22.2008 67.7637 22.199 66.9286 21.6828 66.4147C21.1663 65.9006 20.3311 65.9024 19.8175 66.4186L19.3539 66.8841L18.8884 66.4205C18.372 65.9061 17.5368 65.9082 17.023 66.4244C16.5089 66.9407 16.5109 67.776 17.0269 68.2897L17.4926 68.7535Z" fill="#D23C41"/>
<path d="M49.6233 68.7536L49.1597 69.2192C48.6456 69.7355 48.6475 70.5708 49.1636 71.0845C49.421 71.3409 49.7577 71.469 50.0943 71.469C50.4329 71.469 50.7714 71.3395 51.0289 71.0806L51.4925 70.6149L51.958 71.0783C52.2155 71.3348 52.5522 71.4628 52.8888 71.4628C53.2273 71.4628 53.5659 71.3334 53.8234 71.0745C54.3375 70.5581 54.3355 69.7229 53.8195 69.2091L53.354 68.7455L53.8174 68.2802C54.3315 67.7638 54.3296 66.9286 53.8135 66.4148C53.297 65.9004 52.4619 65.9025 51.9482 66.4187L51.4848 66.8842L51.0192 66.4208C50.5027 65.9064 49.6674 65.9085 49.1539 66.4247C48.6398 66.941 48.6417 67.7763 49.1578 68.29L49.6233 68.7536Z" fill="#D23C41"/>
<path d="M82.7912 17.5945C86.7662 17.5945 89.9998 14.3605 89.9998 10.3857C89.9998 6.41096 86.766 3.17731 82.7912 3.17731H81.3907C81.3895 3.17731 81.3884 3.17713 81.3874 3.17713C81.3863 3.17713 81.3851 3.17731 81.384 3.17731H76.92C76.9189 3.17731 76.9177 3.17713 76.9166 3.17713C76.9156 3.17713 76.9143 3.17731 76.9133 3.17731H72.7809V3.00372C72.7809 1.68483 71.7079 0.611816 70.389 0.611816H68.1598C66.8409 0.611816 65.7679 1.68483 65.7679 3.00372V3.17731H24.367V3.00372C24.367 1.68483 23.294 0.611816 21.9751 0.611816H19.7459C18.427 0.611816 17.354 1.68483 17.354 3.00372V3.17731H12.2219C12.2209 3.17731 12.2196 3.17713 12.2186 3.17713C12.2175 3.17713 12.2163 3.17731 12.2152 3.17731H9.94557C9.69988 3.17731 9.45875 3.24608 9.25016 3.37552L1.07864 8.44619C0.403106 8.86582 -0.000175818 9.59096 5.7502e-08 10.3861C0.000175933 11.1812 0.403634 11.9062 1.079 12.3253L9.24999 17.3961C9.45893 17.5256 9.69988 17.5943 9.94557 17.5943H17.3541V27.3927H11.3607C8.57656 27.3927 6.31146 29.6578 6.31146 32.4419V78.3387C6.31146 81.1228 8.57656 83.3879 11.3607 83.3879H78.5983C81.3825 83.3879 83.6475 81.1228 83.6475 78.3387V32.4421C83.6475 29.658 81.3825 27.3929 78.5983 27.3929H72.7807V17.5945H82.7912ZM72.7806 11.7046H75.5974V14.9562H72.7806V11.7046ZM78.2355 5.81527H80.0683V14.9564H78.2355V5.81527ZM87.3619 10.3856C87.3619 12.9059 85.3115 14.9562 82.7914 14.9562H82.7066V5.81527H82.7914C85.3113 5.81527 87.3619 7.86545 87.3619 10.3856ZM75.5974 5.81527V9.0665H72.7806V5.81527H75.5974ZM65.7677 5.81527V9.0665H64.2195C63.4908 9.0665 62.9004 9.65691 62.9004 10.3856C62.9004 11.1142 63.4908 11.7046 64.2195 11.7046H65.7677V14.9562H24.367V11.7046H51.6836C52.4123 11.7046 53.0027 11.1142 53.0027 10.3856C53.0027 9.65691 52.4123 9.0665 51.6836 9.0665H24.367V5.81527H65.7677ZM17.3541 9.0665H13.5377V5.81527H17.3541V9.0665ZM2.95664 10.3856L10.3216 5.81527H10.8995V14.9564H10.3216L2.95664 10.3856ZM13.5377 14.9564V11.7046H17.3541V14.9562H13.5377V14.9564ZM19.9923 3.24977H21.7289V18.9201C21.7289 19.6487 22.3193 20.2392 23.0479 20.2392C23.7766 20.2392 24.367 19.6487 24.367 18.9201V17.5945H65.7677V27.3929H24.367V24.2723C24.367 23.5437 23.7766 22.9533 23.0479 22.9533C22.3193 22.9533 21.7289 23.5437 21.7289 24.2723V27.3929H19.9923V3.24977ZM78.5982 80.7498H11.3607C10.0311 80.7498 8.94959 79.6683 8.94959 78.3387V38.7829H81.0094V78.3387C81.0092 79.6683 79.9278 80.7498 78.5982 80.7498ZM81.0092 32.4421V36.145H8.94959V32.4421C8.94959 31.1125 10.0311 30.031 11.3607 30.031H18.6699C18.6709 30.031 18.6722 30.0312 18.6732 30.0312C18.6743 30.0312 18.6755 30.031 18.6766 30.031H23.0444C23.0455 30.031 23.0467 30.0312 23.0478 30.0312C23.0488 30.0312 23.05 30.031 23.0511 30.031H67.0866H71.4613H78.598C79.9278 30.031 81.0092 31.1125 81.0092 32.4421ZM68.4058 27.3929V3.24977H70.1424V27.3929H68.4058Z" fill="#3F3356"/>
<path d="M56.2273 11.7045H59.6929C60.4216 11.7045 61.012 11.1141 61.012 10.3855C61.012 9.65682 60.4216 9.06641 59.6929 9.06641H56.2273C55.4986 9.06641 54.9082 9.65682 54.9082 10.3855C54.9082 11.1141 55.4988 11.7045 56.2273 11.7045Z" fill="#3F3356"/>
</svg>
