<svg width="90" height="90" viewBox="0 0 90 90" fill="none" xmlns="http://www.w3.org/2000/svg">
<path d="M15.9847 68.8534C15.5225 68.2885 14.69 68.205 14.1256 68.6667C13.5607 69.1285 13.4772 69.961 13.9389 70.5258C14.78 71.5547 15.6837 72.554 16.6247 73.496C16.8827 73.7543 17.2211 73.8834 17.5595 73.8834C17.8973 73.8834 18.2352 73.7546 18.4931 73.4971C19.0094 72.9813 19.0099 72.1448 18.4943 71.6286C17.615 70.7484 16.7705 69.8146 15.9847 68.8534Z" fill="#3F3356"/>
<path d="M13.7624 65.843C13.0752 64.8078 12.4324 63.7257 11.852 62.6271C11.511 61.9822 10.712 61.7352 10.0666 62.0761C9.4215 62.4171 9.17471 63.2163 9.51556 63.8615C10.137 65.0377 10.8252 66.196 11.5607 67.3042C11.815 67.6875 12.2348 67.895 12.6627 67.895C12.9137 67.895 13.1673 67.8237 13.3921 67.6745C14 67.2709 14.1657 66.4509 13.7624 65.843Z" fill="#3F3356"/>
<path d="M10.2729 59.2364C9.80539 58.0846 9.39126 56.8965 9.04266 55.705C8.83762 55.0048 8.10378 54.6032 7.40341 54.8082C6.70321 55.0132 6.30176 55.7471 6.50663 56.4475C6.88024 57.7237 7.32379 58.9965 7.82458 60.2305C8.03297 60.7438 8.52725 61.055 9.04918 61.055C9.21441 61.055 9.38298 61.0237 9.54557 60.9576C10.2218 60.6832 10.5473 59.9125 10.2729 59.2364Z" fill="#3F3356"/>
<path d="M24.2753 76.3667C23.2408 75.6783 22.2286 74.9297 21.2672 74.1414C20.7025 73.679 19.8702 73.7613 19.4078 74.3257C18.9452 74.8901 19.0278 75.7226 19.5922 76.1851C20.6213 77.0285 21.7044 77.8298 22.8117 78.5667C23.0366 78.7164 23.2908 78.7881 23.5422 78.7881C23.9695 78.7881 24.389 78.5809 24.6433 78.1985C25.0476 77.591 24.8829 76.771 24.2753 76.3667Z" fill="#3F3356"/>
<path d="M7.11745 53.6085C7.83473 53.4746 8.30787 52.7847 8.17399 52.0676C7.94658 50.849 7.77801 49.6018 7.67285 48.3607C7.61102 47.6335 6.96983 47.095 6.2448 47.1558C5.51783 47.2176 4.97845 47.8567 5.03993 48.5838C5.15267 49.9122 5.33322 51.2472 5.57648 52.5518C5.69503 53.1872 6.24991 53.6309 6.87365 53.6309C6.95415 53.6311 7.03571 53.6238 7.11745 53.6085Z" fill="#3F3356"/>
<path d="M6.20201 45.9229C6.20817 45.9231 6.21434 45.9231 6.22068 45.9231C6.94166 45.9231 7.53123 45.3437 7.54128 44.6203C7.55871 43.3737 7.63851 42.1169 7.7782 40.885C7.86046 40.16 7.33941 39.5056 6.61455 39.4233C5.88916 39.3411 5.23512 39.862 5.15286 40.587C5.0033 41.9053 4.91805 43.2498 4.89955 44.5835C4.88916 45.3131 5.47239 45.9127 6.20201 45.9229Z" fill="#3F3356"/>
<path d="M38.0445 81.9714C36.8231 81.7422 35.5997 81.4484 34.4082 81.098C33.707 80.8914 32.9737 81.2926 32.7679 81.9927C32.562 82.6929 32.9626 83.4271 33.6626 83.633C34.9388 84.0082 36.2492 84.323 37.5571 84.5683C37.6395 84.5838 37.7214 84.5912 37.8023 84.5912C38.4253 84.5912 38.9802 84.1482 39.0991 83.5135C39.2339 82.7961 38.7618 82.1058 38.0445 81.9714Z" fill="#3F3356"/>
<path d="M30.8787 79.8635C29.7289 79.3953 28.5887 78.8628 27.4895 78.2808C26.8447 77.9394 26.0453 78.1853 25.7037 78.83C25.3622 79.4747 25.6081 80.2743 26.253 80.6158C27.4298 81.239 28.6507 81.8092 29.882 82.3107C30.0453 82.3771 30.2139 82.4087 30.3798 82.4087C30.9012 82.4087 31.3951 82.0979 31.6039 81.5855C31.8792 80.9095 31.5544 80.1386 30.8787 79.8635Z" fill="#3F3356"/>
<path d="M52.9188 81.7756C51.7053 82.0368 50.4633 82.2397 49.2265 82.3785C48.5015 82.4599 47.9797 83.1138 48.0611 83.8388C48.137 84.5138 48.7088 85.0127 49.3722 85.0127C49.4215 85.0127 49.4714 85.0099 49.5214 85.0042C50.8455 84.8556 52.1754 84.6384 53.4747 84.3586C54.1881 84.205 54.6419 83.5024 54.4883 82.7891C54.3347 82.0757 53.6304 81.6225 52.9188 81.7756Z" fill="#3F3356"/>
<path d="M45.5077 82.6111C45.5019 82.6111 45.4959 82.6111 45.4899 82.6113C44.2399 82.627 42.9856 82.5821 41.7504 82.4759C41.0229 82.4153 40.3835 82.9523 40.3213 83.6793C40.2591 84.4063 40.7976 85.0461 41.5248 85.1084C42.6717 85.2069 43.8395 85.2567 44.9968 85.2567C45.1732 85.2566 45.3491 85.2555 45.5248 85.253C46.2544 85.2435 46.838 84.6443 46.8283 83.9146C46.8188 83.1912 46.2292 82.6111 45.5077 82.6111Z" fill="#3F3356"/>
<path d="M59.8384 10.7539C60.979 11.2468 62.1076 11.8033 63.1934 12.408C63.3968 12.5216 63.6174 12.5751 63.8351 12.5751C64.2989 12.5751 64.7488 12.3305 64.9904 11.8966C65.3456 11.2593 65.1167 10.4547 64.4793 10.0997C63.3167 9.45201 62.1079 8.85592 60.8865 8.32835C60.2168 8.03911 59.4391 8.34737 59.1498 9.0171C58.8603 9.68699 59.1685 10.4645 59.8384 10.7539Z" fill="#3F3356"/>
<path d="M66.3675 14.3894C67.3867 15.0988 68.3828 15.8684 69.3284 16.6771C69.5775 16.8899 69.8826 16.9942 70.1864 16.9942C70.5592 16.9942 70.93 16.8372 71.1912 16.5318C71.6652 15.9772 71.6002 15.1432 71.0459 14.669C70.0341 13.8037 68.9678 12.9801 67.8769 12.2207C67.278 11.8041 66.4547 11.9515 66.0379 12.5504C65.6208 13.1492 65.7684 13.9727 66.3675 14.3894Z" fill="#3F3356"/>
<path d="M76.6577 25.1306C77.3233 26.181 77.9432 27.2763 78.4997 28.3857C78.7313 28.8478 79.1976 29.115 79.6816 29.115C79.8807 29.115 80.0827 29.0697 80.2728 28.9744C80.9249 28.6475 81.1884 27.8536 80.8615 27.2013C80.2656 26.0133 79.6022 24.8407 78.8892 23.716C78.4986 23.0998 77.6822 22.9168 77.066 23.3077C76.4498 23.6982 76.267 24.5145 76.6577 25.1306Z" fill="#3F3356"/>
<path d="M74.4992 22.0745C74.7597 22.407 75.148 22.5807 75.5399 22.5807C75.8249 22.5807 76.1122 22.489 76.3539 22.2994C76.9283 21.8494 77.0289 21.019 76.5788 20.4447C75.7587 19.3981 74.8762 18.3801 73.9558 17.4194C73.4513 16.8928 72.6149 16.8744 72.0879 17.3792C71.561 17.8839 71.543 18.7202 72.0477 19.2471C72.9079 20.1451 73.7326 21.0963 74.4992 22.0745Z" fill="#3F3356"/>
<path d="M80.0061 31.8087C80.4489 32.9693 80.8375 34.1659 81.1613 35.3652C81.3203 35.9544 81.8537 36.3423 82.4359 36.3423C82.5499 36.3423 82.6659 36.3273 82.7811 36.2963C83.4856 36.1061 83.9023 35.3808 83.7123 34.6764C83.3653 33.3918 82.949 32.1099 82.4746 30.8666C82.2145 30.1849 81.451 29.843 80.7693 30.1034C80.0876 30.3636 79.7461 31.127 80.0061 31.8087Z" fill="#3F3356"/>
<path d="M83.7973 45.2057C83.0663 45.1756 82.4567 45.7511 82.4313 46.4802C82.388 47.7262 82.2821 48.981 82.1165 50.2094C82.0189 50.9323 82.5261 51.5977 83.2493 51.6952C83.3092 51.7033 83.3688 51.7072 83.4276 51.7072C84.0787 51.7072 84.6457 51.2258 84.7352 50.5624C84.9126 49.2476 85.0256 47.905 85.072 46.5718C85.0972 45.8425 84.5266 45.2309 83.7973 45.2057Z" fill="#3F3356"/>
<path d="M37.5914 8.40405C37.6745 8.40405 37.7587 8.3963 37.8434 8.37992C39.0626 8.14423 40.3088 7.96755 41.5477 7.85481C42.2743 7.78876 42.8098 7.14616 42.7436 6.41954C42.6775 5.69275 42.033 5.15514 41.3083 5.22366C39.9819 5.3445 38.6476 5.53351 37.3421 5.78576C36.6257 5.92403 36.1572 6.61718 36.2958 7.33341C36.4177 7.96526 36.9711 8.40405 37.5914 8.40405Z" fill="#3F3356"/>
<path d="M83.0432 37.5019C82.3233 37.6204 81.8359 38.3002 81.9542 39.0201C82.1559 40.2442 82.2981 41.4947 82.3773 42.7369C82.4219 43.4365 83.0032 43.974 83.6946 43.974C83.7228 43.974 83.7511 43.9731 83.7797 43.9712C84.5079 43.9248 85.0605 43.2969 85.0141 42.5688C84.9296 41.2394 84.777 39.9009 84.5614 38.5907C84.4427 37.8709 83.7628 37.3844 83.0432 37.5019Z" fill="#3F3356"/>
<path d="M52.7185 8.49496C53.9346 8.74967 55.1516 9.06938 56.3355 9.44511C56.4685 9.48721 56.6031 9.50747 56.7356 9.50747C57.2959 9.50747 57.8161 9.14812 57.9943 8.58567C58.2151 7.89023 57.8302 7.14759 57.1347 6.92687C55.8666 6.52437 54.5629 6.18193 53.2603 5.90908C52.5466 5.75988 51.8462 6.21716 51.6963 6.93127C51.5467 7.64486 52.0045 8.34523 52.7185 8.49496Z" fill="#3F3356"/>
<path d="M45.2887 7.69948C46.5344 7.70899 47.7912 7.78051 49.0243 7.91227C49.072 7.9172 49.1192 7.91984 49.1661 7.91984C49.8328 7.91984 50.4058 7.41676 50.4782 6.73876C50.5555 6.01337 50.0302 5.3625 49.3047 5.28482C47.9859 5.14407 46.6413 5.06745 45.3089 5.05723C44.5749 5.04825 43.9834 5.6387 43.9776 6.36814C43.9721 7.09793 44.559 7.69384 45.2887 7.69948Z" fill="#3F3356"/>
<path d="M29.2054 26.2229C29.6333 25.6319 29.501 24.806 28.91 24.3779C28.3192 23.9502 27.4931 24.0823 27.065 24.6733C26.9983 24.7656 26.9266 24.8534 26.857 24.943C26.1032 23.0564 24.6271 21.5623 22.7798 20.7742C23.338 20.0467 23.7087 19.1688 23.8189 18.2123H24.941C26.2991 18.2123 27.4039 17.1075 27.4039 15.7496V13.0175C27.4039 12.913 27.4009 12.8091 27.3969 12.7057C28.4621 14.3626 29.0828 16.3309 29.0828 18.4425C29.0828 18.896 29.0504 19.3707 28.9865 19.8532C28.8908 20.5764 29.3995 21.2405 30.1228 21.3363C30.8454 21.4316 31.51 20.9233 31.606 20.2C31.6849 19.6028 31.7251 19.0117 31.7251 18.4425C31.7251 11.1182 25.7663 5.15942 18.442 5.15942C11.1178 5.15942 5.15918 11.1182 5.15918 18.4425C5.15918 25.7669 11.1178 31.7255 18.442 31.7255C22.6872 31.7255 26.7108 29.6686 29.2054 26.2229ZM24.7039 27.0337C22.9028 28.3446 20.7129 29.0832 18.4421 29.0832C16.1631 29.0832 14.0509 28.3607 12.3176 27.1359C12.638 24.6687 14.7225 22.803 17.2683 22.803H19.7682C22.2561 22.803 24.3349 24.6048 24.7039 27.0337ZM21.2119 17.6129C21.2119 18.9344 20.2061 20.0251 18.9198 20.1607H17.9648C16.6785 20.0251 15.6727 18.9345 15.6727 17.6129V14.6363H21.2119V17.6129ZM24.7619 15.5702H23.8542V13.3152C23.8542 12.5854 23.2628 11.994 22.533 11.994H14.3516C13.6218 11.994 13.0304 12.5854 13.0304 13.3152V15.5702H12.1227V13.0175C12.1227 10.7485 13.6167 8.82229 15.6723 8.16965C15.9445 8.0962 16.2211 8.03419 16.5011 7.9824C16.7324 7.95017 16.9681 7.9322 17.2082 7.9322H19.6766C19.9165 7.9322 20.152 7.95017 20.3831 7.9824C20.6636 8.03437 20.9405 8.09637 21.2128 8.17C23.2683 8.82282 24.762 10.7488 24.762 13.0178V15.5702H24.7619ZM7.80161 18.4425C7.80161 16.33 8.42289 14.361 9.48877 12.7038C9.48454 12.808 9.48032 12.9121 9.48032 13.0175V15.7496C9.48032 17.1075 10.5851 18.2123 11.9432 18.2123H13.0651C13.1779 19.1896 13.5637 20.0839 14.1425 20.8204C12.2977 21.6398 10.846 23.1662 10.1273 25.0711C8.67373 23.2514 7.80161 20.9476 7.80161 18.4425Z" fill="#D23C41"/>
<path d="M75.3283 53.5031C76.0732 50.7922 76.4516 47.9917 76.4516 45.1566C76.4516 40.9859 75.6226 36.8957 74.0517 33.1071C74.0262 33.0211 73.9917 32.9378 73.9489 32.8582C72.6638 29.8324 70.9027 27.0042 68.7079 24.4882C64.683 19.875 59.4276 16.5565 53.6174 14.9012C53.5697 14.8852 53.5211 14.8718 53.4719 14.8614C52.5412 14.6011 51.5961 14.3839 50.64 14.2102C50.2454 11.497 47.9045 9.40624 45.0839 9.40624C42.2739 9.40624 39.9397 11.4806 39.5316 14.1785C38.5226 14.3555 37.5207 14.5815 36.5339 14.8565C34.8599 6.39777 27.3848 0 18.4424 0C8.27324 0 0 8.27342 0 18.4426C0 27.3461 6.34211 34.796 14.7459 36.5126C13.9462 39.3144 13.5398 42.2147 13.5398 45.1564C13.5398 49.4198 14.3939 53.4869 15.9375 57.1979C15.9648 57.2919 16.0031 57.3828 16.051 57.4691C19.7477 66.126 27.2178 72.8011 36.3833 75.4135C36.4271 75.428 36.4713 75.4401 36.5163 75.45C39.2149 76.2064 42.0586 76.6122 44.9956 76.6122C47.8929 76.6122 50.7506 76.2182 53.513 75.4426C53.5177 75.4414 53.5225 75.441 53.5272 75.4398C55.3152 83.7509 62.7196 89.9998 71.5573 89.9998C81.7264 89.9998 89.9998 81.7264 89.9998 71.5573C90 62.6802 83.6951 55.2484 75.3283 53.5031ZM71.5573 53.1149C67.0448 53.1149 62.9065 54.7448 59.698 57.4455C59.9923 55.4291 60.2116 53.3518 60.3566 51.2301C62.8449 50.8235 64.8356 48.9202 65.3721 46.4775H73.7782C73.6755 48.7446 73.3091 50.9801 72.6832 53.1503C72.3107 53.1277 71.9355 53.1149 71.5573 53.1149ZM53.1165 71.4243C52.8547 71.9887 52.5855 72.5263 52.3125 73.0313C50.3565 73.5435 48.3502 73.8474 46.3169 73.9393V65.2507C49.0883 65.1979 51.8204 64.9775 54.4808 64.5951C53.6169 66.7057 53.1336 69.0105 53.1165 71.4243ZM37.6803 73.0281C36.8472 71.491 36.0852 69.7207 35.4069 67.7433C36.5386 67.1373 37.4162 66.1179 37.8388 64.8884C39.7558 65.0922 41.7097 65.2134 43.6746 65.2511V73.9386C41.6132 73.8451 39.6077 73.5344 37.6803 73.0281ZM16.2136 46.4777H29.4394C29.5006 50.7258 29.8573 54.8487 30.5016 58.7686C29.769 59.1804 29.1481 59.7674 28.695 60.4723C24.7089 59.345 21.1364 57.7947 18.283 55.953C17.0866 53.0039 16.3649 49.814 16.2136 46.4777ZM36.8795 18.8829C37.1404 18.3212 37.4076 17.785 37.6787 17.2837C38.368 17.1033 39.0644 16.9483 39.765 16.8197C40.3683 18.5997 41.84 19.9825 43.6746 20.4582V25.0626C40.8552 25.1162 38.0794 25.342 35.3804 25.7355C36.2927 23.6247 36.8222 21.3113 36.8795 18.8829ZM50.3923 16.85C51.0386 16.9726 51.6793 17.1169 52.3129 17.283C53.6041 19.6661 54.7089 22.5879 55.5882 25.8831C52.6097 25.4019 49.4985 25.1225 46.3169 25.0618V20.4993C48.2221 20.0707 49.7631 18.6717 50.3923 16.85ZM73.7789 43.8355H65.3723C64.8359 41.3932 62.8458 39.4902 60.3582 39.0833C60.1232 35.6575 59.6869 32.3494 59.0737 29.2562C63.9254 30.3943 68.2541 32.1266 71.7119 34.3623C72.9233 37.3614 73.629 40.5624 73.7789 43.8355ZM55.9914 61.6768C52.8681 62.2289 49.6231 62.543 46.3167 62.6085V46.4777H53.3499C53.839 48.7044 55.5366 50.4823 57.718 51.0874C57.4779 54.5813 57.0268 57.9437 56.3733 61.1024C56.2428 61.2914 56.1151 61.4827 55.9914 61.6768ZM59.3612 48.6696C57.424 48.6696 55.848 47.0937 55.848 45.1566C55.848 43.2195 57.424 41.6436 59.3612 41.6436C61.2983 41.6436 62.8741 43.2195 62.8741 45.1566C62.8741 47.0937 61.2983 48.6696 59.3612 48.6696ZM57.7193 39.2255C55.5373 39.8303 53.8392 41.6084 53.35 43.8355H46.3169V27.7047C49.7531 27.7724 53.0964 28.1028 56.2606 28.6744C56.9664 31.9466 57.4631 35.5089 57.7193 39.2255ZM33.7068 28.7817C33.731 28.7461 33.7548 28.7103 33.7785 28.6746C36.9663 28.0984 40.2857 27.7718 43.6745 27.7049V43.8355H32.079C32.1594 38.5747 32.7178 33.4023 33.7068 28.7817ZM43.6745 46.4777V62.6085C41.7696 62.5706 39.8765 62.4507 38.0208 62.2504C37.5666 59.9194 35.5252 58.1501 33.0713 58.1163C32.4729 54.4038 32.141 50.5006 32.0813 46.4777H43.6745ZM32.317 60.8547C32.3274 60.8519 32.338 60.8496 32.3482 60.8466C32.5564 60.7896 32.7743 60.7566 33.0003 60.7566C34.3642 60.7566 35.4736 61.8662 35.4738 63.2299C35.4733 63.2472 35.4719 63.2645 35.4706 63.2817L35.4652 63.3684C35.4646 63.38 35.4654 63.3913 35.465 63.4029C35.3757 64.6864 34.3059 65.704 33.0003 65.704C31.6364 65.704 30.5266 64.5942 30.5266 63.2303C30.5266 62.1036 31.2846 61.1523 32.317 60.8547ZM66.7168 26.2252C67.7899 27.4553 68.7484 28.7676 69.5893 30.1446C66.3017 28.5381 62.5285 27.28 58.4468 26.4156C57.7293 23.485 56.8447 20.797 55.816 18.4489C59.9724 20.1352 63.7175 22.7873 66.7168 26.2252ZM45.0837 12.0483C46.7233 12.0483 48.0571 13.3821 48.0571 15.0217C48.0571 16.6613 46.7233 17.9951 45.0837 17.9951C43.4441 17.9951 42.1103 16.6613 42.1103 15.0217C42.1103 13.3821 43.4442 12.0483 45.0837 12.0483ZM2.64225 18.4426C2.64225 9.73018 9.73018 2.64225 18.4424 2.64225C27.1548 2.64225 34.2427 9.73018 34.2427 18.4426C34.2427 18.4757 34.2416 18.5084 34.2415 18.5414C34.2413 18.5458 34.2415 18.5502 34.2413 18.5546C34.1807 27.2154 27.1172 34.2427 18.4424 34.2427C9.73018 34.2429 2.64225 27.1548 2.64225 18.4426ZM18.4424 36.8851C22.9761 36.8851 27.132 35.2397 30.347 32.5161C29.8037 36.1324 29.4939 39.9628 29.4364 43.8355H16.2129C16.3203 41.4594 16.7175 39.1203 17.3983 36.855C17.7441 36.8742 18.092 36.8851 18.4424 36.8851ZM20.4093 60.1658C22.6769 61.2699 25.1983 62.2232 27.8905 62.99C27.8868 63.0696 27.8844 63.1498 27.8844 63.2303C27.8844 65.9902 30.0815 68.2453 32.8183 68.3416C33.2381 69.5886 33.6919 70.7609 34.1743 71.8594C28.4354 69.525 23.6124 65.3936 20.4093 60.1658ZM71.5573 87.3577C62.8939 87.3577 55.8376 80.3487 55.7587 71.7036C55.7587 71.7021 55.7589 71.7005 55.7589 71.6991L55.7568 71.5574C55.7568 62.8452 62.8447 55.7573 71.5571 55.7573C80.2695 55.7573 87.3574 62.8452 87.3574 71.5574C87.3577 80.2697 80.2696 87.3577 71.5573 87.3577Z" fill="#3F3356"/>
<path d="M83.4937 73.0808C82.7846 72.9105 82.0709 73.347 81.9 74.0562C81.6346 75.159 81.2035 76.1841 80.6395 77.1106V66.1618C80.6395 66.1141 80.6358 66.0674 80.6349 66.02C81.2433 67.0095 81.6964 68.1078 81.9525 69.2855C82.1075 69.9984 82.8098 70.4495 83.5243 70.2957C84.2374 70.1405 84.6895 69.437 84.5345 68.7239C83.9 65.8067 82.2705 63.1558 79.9456 61.259C77.5863 59.3341 74.6072 58.2742 71.5574 58.2742C64.233 58.2742 58.2744 64.2328 58.2744 71.5571C58.2744 78.8814 64.233 84.8401 71.5574 84.8401C77.7189 84.8401 83.0284 80.6598 84.469 74.6743C84.6397 73.9649 84.2032 73.2517 83.4937 73.0808ZM74.4475 70.7572C74.4475 72.0783 73.4422 73.1689 72.1565 73.3051H71.1991C69.9134 73.1689 68.9081 72.0785 68.9081 70.7572V67.7806H74.4473V70.7572H74.4475ZM75.7686 65.1384H67.5871C66.8573 65.1384 66.266 65.7297 66.266 66.4595V70.7572C66.266 71.9672 66.6835 73.0798 67.3787 73.9644C66.6336 74.2954 65.9528 74.7412 65.3581 75.2813V66.1618C65.3581 63.3577 67.6394 61.0764 70.4436 61.0764H72.912C73.1681 61.0764 73.4196 61.0959 73.6655 61.1326C74.0022 61.2016 74.334 61.2853 74.6595 61.3859C76.6053 62.1002 77.9972 63.9716 77.9972 66.1618V75.1545C77.4075 74.6461 76.7399 74.2276 76.0143 73.9182C76.6874 73.0412 77.0897 71.9457 77.0897 70.7572V66.4595C77.0897 65.7297 76.4982 65.1384 75.7686 65.1384ZM60.9167 71.5571C60.9167 69.3572 61.5878 67.311 62.7359 65.6126C62.7231 65.794 62.7157 65.977 62.7157 66.1618V77.4703C61.5804 75.778 60.9167 73.7438 60.9167 71.5571ZM65.5475 80.332C65.8452 77.8393 67.9403 75.9473 70.5038 75.9473H73.0037C75.4621 75.9473 77.52 77.707 77.9245 80.0925C76.1373 81.4249 73.9266 82.1978 71.5574 82.1978C69.3287 82.198 67.2588 81.5078 65.5475 80.332Z" fill="#D23C41"/>
</svg>
