<svg width="32" height="32" viewBox="0 0 32 32" fill="none" xmlns="http://www.w3.org/2000/svg">
<path d="M16 0C7.17733 0 0 7.17733 0 16C0 24.8227 7.17733 32 16 32C24.8227 32 32 24.8227 32 16C32 7.17733 24.8227 0 16 0ZM24.9307 25.872C24.0453 23.2413 21.5973 21.3333 18.6667 21.3333H13.3333C10.4027 21.3333 7.95733 23.2427 7.072 25.8733C4.37467 23.432 2.66667 19.916 2.66667 16C2.66667 8.648 8.648 2.66667 16 2.66667C23.352 2.66667 29.3333 8.648 29.3333 16C29.3333 19.9147 27.6267 23.4307 24.9307 25.872Z" fill="#D23C41"/>
<path d="M15.9998 6.66669C13.0545 6.66669 10.6665 9.05469 10.6665 12V13.3334C10.6665 16.2787 13.0545 18.6667 15.9998 18.6667C18.9452 18.6667 21.3332 16.2787 21.3332 13.3334V12C21.3332 9.05469 18.9452 6.66669 15.9998 6.66669Z" fill="#D23C41"/>
</svg>
