<svg width="54" height="38" viewBox="0 0 54 38" fill="none" xmlns="http://www.w3.org/2000/svg">
<path d="M11.1016 37.6C7.60156 37.6 5.00156 36.4 3.30156 34C1.70156 31.6 0.901563 28.65 0.901563 25.15C0.901563 22.45 1.35156 19.65 2.25156 16.75C3.15156 13.85 4.35156 11.25 5.85156 8.95C7.35156 6.55 9.10156 4.6 11.1016 3.09999C13.1016 1.59999 15.2016 0.849995 17.4016 0.849995C18.9016 0.849995 20.2016 1.25 21.3016 2.05C22.5016 2.84999 23.4016 4.09999 24.0016 5.79999C23.0016 6.19999 21.9516 6.8 20.8516 7.6C19.8516 8.29999 18.9016 9.14999 18.0016 10.15C17.1016 11.15 16.3016 12.3 15.6016 13.6C15.0016 14.8 14.6516 16.05 14.5516 17.35C16.1516 18.45 17.5516 19.8 18.7516 21.4C20.0516 23 20.7016 25.25 20.7016 28.15C20.7016 30.55 19.9016 32.75 18.3016 34.75C16.7016 36.65 14.3016 37.6 11.1016 37.6ZM40.3516 37.6C36.8516 37.6 34.2516 36.4 32.5516 34C30.9516 31.6 30.1516 28.65 30.1516 25.15C30.1516 22.45 30.6016 19.65 31.5016 16.75C32.4016 13.85 33.6016 11.25 35.1016 8.95C36.6016 6.55 38.3516 4.6 40.3516 3.09999C42.3516 1.59999 44.4516 0.849995 46.6516 0.849995C48.1516 0.849995 49.4516 1.25 50.5516 2.05C51.7516 2.84999 52.6516 4.09999 53.2516 5.79999C52.2516 6.19999 51.2016 6.8 50.1016 7.6C49.1016 8.29999 48.1516 9.14999 47.2516 10.15C46.3516 11.15 45.5516 12.3 44.8516 13.6C44.2516 14.8 43.9016 16.05 43.8016 17.35C45.4016 18.45 46.8016 19.8 48.0016 21.4C49.3016 23 49.9516 25.25 49.9516 28.15C49.9516 30.55 49.1516 32.75 47.5516 34.75C45.9516 36.65 43.5516 37.6 40.3516 37.6Z" fill="#1E386B"/>
</svg>
