<svg width="18" height="18" viewBox="0 0 18 18" fill="none" xmlns="http://www.w3.org/2000/svg">
<path d="M16.9695 5.58713V1H12.3823" stroke="white" stroke-width="1.3" stroke-linecap="round" stroke-linejoin="round"/>
<path d="M11.6178 6.35165L16.9694 1" stroke="white" stroke-width="1.3" stroke-linecap="round" stroke-linejoin="round"/>
<path d="M16.2049 13.1714V15.465C16.2058 15.6779 16.1621 15.8886 16.0768 16.0837C15.9915 16.2788 15.8664 16.4539 15.7095 16.5979C15.5526 16.7418 15.3674 16.8514 15.1657 16.9196C14.964 16.9878 14.7503 17.0132 14.5382 16.994C12.1857 16.7384 9.92588 15.9345 7.94042 14.6469C6.0932 13.4731 4.52709 11.907 3.35329 10.0598C2.06123 8.0653 1.25715 5.79451 1.00621 3.43138C0.9871 3.21996 1.01223 3.00689 1.07998 2.80571C1.14774 2.60454 1.25664 2.41968 1.39976 2.2629C1.54287 2.10612 1.71706 1.98086 1.91124 1.89509C2.10542 1.80932 2.31533 1.76492 2.5276 1.76472H4.82117C5.1922 1.76107 5.55189 1.89246 5.83321 2.13439C6.11453 2.37633 6.29828 2.71231 6.35021 3.0797C6.44702 3.81369 6.62655 4.53438 6.88538 5.22801C6.98824 5.50165 7.0105 5.79904 6.94953 6.08494C6.88855 6.37085 6.74689 6.63328 6.54134 6.84115L5.5704 7.81209C6.65874 9.7261 8.24352 11.3109 10.1575 12.3992L11.1285 11.4283C11.3363 11.2227 11.5988 11.0811 11.8847 11.0201C12.1706 10.9591 12.468 10.9814 12.7416 11.0842C13.4352 11.3431 14.1559 11.5226 14.8899 11.6194C15.2613 11.6718 15.6005 11.8589 15.8429 12.145C16.0854 12.4312 16.2142 12.7964 16.2049 13.1714Z" stroke="white" stroke-width="1.3" stroke-linecap="round" stroke-linejoin="round"/>
</svg>
