<svg width="22" height="22" viewBox="0 0 22 22" fill="none" xmlns="http://www.w3.org/2000/svg">
<path d="M20.9619 6.73391V1H15.228" stroke="#4F4F4F" stroke-width="1.5" stroke-linecap="round" stroke-linejoin="round"/>
<path d="M14.2725 7.68956L20.962 1" stroke="#4F4F4F" stroke-width="1.5" stroke-linecap="round" stroke-linejoin="round"/>
<path d="M20.0061 16.214V19.0809C20.0072 19.3471 19.9527 19.6105 19.8461 19.8544C19.7394 20.0983 19.5831 20.3172 19.3869 20.4971C19.1908 20.677 18.9593 20.814 18.7071 20.8993C18.455 20.9845 18.1879 21.0162 17.9228 20.9922C14.9821 20.6727 12.1573 19.6678 9.67552 18.0584C7.3665 16.5911 5.40886 14.6335 3.94161 12.3245C2.32654 9.83138 1.32144 6.99289 1.00776 4.03897C0.983875 3.7747 1.01528 3.50836 1.09998 3.25689C1.18467 3.00542 1.3208 2.77435 1.49969 2.57837C1.67859 2.3824 1.89633 2.22582 2.13905 2.11861C2.38177 2.0114 2.64416 1.9559 2.9095 1.95565H5.77646C6.24025 1.95109 6.68987 2.11532 7.04152 2.41774C7.39317 2.72016 7.62285 3.14013 7.68776 3.59937C7.80877 4.51686 8.03319 5.41772 8.35672 6.28476C8.4853 6.62681 8.51313 6.99855 8.43691 7.35593C8.36069 7.71331 8.18362 8.04135 7.92668 8.30118L6.713 9.51486C8.07342 11.9074 10.0544 13.8883 12.4469 15.2488L13.6606 14.0351C13.9204 13.7782 14.2485 13.6011 14.6058 13.5249C14.9632 13.4486 15.335 13.4765 15.677 13.6051C16.5441 13.9286 17.4449 14.153 18.3624 14.274C18.8266 14.3395 19.2506 14.5733 19.5537 14.931C19.8567 15.2887 20.0178 15.7453 20.0061 16.214Z" stroke="#4F4F4F" stroke-width="1.5" stroke-linecap="round" stroke-linejoin="round"/>
</svg>
