<svg width="24" height="24" viewBox="0 0 24 24" fill="none" xmlns="http://www.w3.org/2000/svg">
<path d="M22.4536 13.874C22.4465 13.9135 22.4415 13.9534 22.434 13.993L22.3955 13.7664C22.4166 13.8017 22.434 13.8384 22.4536 13.874C22.5698 13.2419 22.6307 12.5948 22.6307 11.9481C22.6307 10.5139 22.3499 9.12242 21.7951 7.81258C21.2599 6.54728 20.4942 5.41097 19.5179 4.43535C18.543 3.45974 17.406 2.694 16.1414 2.15881C14.8319 1.60473 13.4404 1.32394 12.0062 1.32394C11.3303 1.32394 10.6533 1.38737 9.99444 1.51386C9.99301 1.51422 9.99123 1.51422 9.98945 1.51458C10.0265 1.53417 10.0639 1.55163 10.1003 1.57194L9.87685 1.53702C9.91426 1.5299 9.95203 1.52206 9.98945 1.51458C9.08546 1.0339 8.06887 0.777344 7.03981 0.777344C5.35975 0.777344 3.78017 1.43155 2.59219 2.61989C1.40456 3.80787 0.75 5.38745 0.75 7.06751C0.75 8.13683 1.02508 9.18799 1.54139 10.1169C1.54816 10.0784 1.5528 10.0396 1.56028 10.0011L1.59876 10.2238C1.57881 10.1889 1.56135 10.1526 1.54139 10.1169C1.43663 10.7188 1.3814 11.3338 1.3814 11.9481C1.3814 13.3826 1.66219 14.7737 2.21698 16.0839C2.75146 17.3496 3.51756 18.4852 4.49281 19.4608C5.46914 20.4364 6.60474 21.2032 7.87075 21.737C9.18024 22.2921 10.572 22.5733 12.0062 22.5733C12.6305 22.5733 13.2562 22.5162 13.867 22.4079C13.8313 22.388 13.795 22.3698 13.7586 22.3488L13.9856 22.3887C13.9464 22.3962 13.9069 22.4008 13.867 22.4079C14.808 22.9403 15.8734 23.2232 16.9613 23.2232C18.641 23.2232 20.2198 22.57 21.4078 21.3814C22.5961 20.1941 23.25 18.6141 23.25 16.9341C23.25 15.8612 22.9735 14.8065 22.4536 13.874ZM12.0486 18.4549C8.27411 18.4549 6.5855 16.5991 6.5855 15.2084C6.5855 14.4951 7.11214 13.9951 7.83797 13.9951C9.45318 13.9951 9.03486 16.3144 12.0486 16.3144C13.5915 16.3144 14.4435 15.4767 14.4435 14.6194C14.4435 14.1038 14.1891 13.5323 13.1732 13.2818L9.81592 12.4437C7.11214 11.7656 6.62149 10.304 6.62149 8.93001C6.62149 6.07729 9.30745 5.00618 11.8299 5.00618C14.1534 5.00618 16.8925 6.29037 16.8925 8.00179C16.8925 8.7351 16.2575 9.16162 15.532 9.16162C14.1534 9.16162 14.4071 7.25351 11.6303 7.25351C10.2524 7.25351 9.48917 7.87743 9.48917 8.77038C9.48917 9.66154 10.5774 9.94624 11.5223 10.1615L14.0073 10.713C16.7293 11.3195 17.4195 12.9087 17.4195 14.4056C17.4195 16.7239 15.64 18.4549 12.0486 18.4549ZM13.7586 22.3488C13.795 22.3698 13.8313 22.388 13.867 22.4079C13.9069 22.4008 13.9464 22.3962 13.9856 22.3887L13.7586 22.3488ZM22.434 13.993C22.4415 13.9534 22.4465 13.9135 22.4536 13.874C22.434 13.8384 22.4166 13.8017 22.3955 13.7664L22.434 13.993ZM1.56028 10.0011C1.5528 10.0396 1.54816 10.0784 1.54139 10.1169C1.56135 10.1526 1.57881 10.1889 1.59876 10.2238L1.56028 10.0011ZM10.1003 1.57194C10.0639 1.55163 10.0265 1.53417 9.98945 1.51458C9.95203 1.52206 9.91426 1.5299 9.87685 1.53702L10.1003 1.57194Z" fill="white"/>
</svg>
