<svg width="24" height="24" viewBox="0 0 24 24" fill="none" xmlns="http://www.w3.org/2000/svg">
<mask id="path-1-outside-1" maskUnits="userSpaceOnUse" x="0" y="0" width="24" height="24" fill="black">
<rect fill="white" width="24" height="24"/>
<path d="M21.3387 13.6696C21.3323 13.7048 21.3279 13.7404 21.3212 13.7756L21.2869 13.5737C21.3056 13.6051 21.3212 13.6378 21.3387 13.6696C21.4422 13.1063 21.4965 12.5297 21.4965 11.9535C21.4965 10.6756 21.2463 9.43575 20.7519 8.26863C20.275 7.14121 19.5927 6.12871 18.7228 5.25941C17.8541 4.39011 16.841 3.70781 15.7142 3.23093C14.5474 2.73722 13.3076 2.48704 12.0297 2.48704C11.4274 2.48704 10.8242 2.54355 10.2371 2.65626C10.2358 2.65658 10.2342 2.65658 10.2327 2.6569C10.2657 2.67436 10.299 2.68992 10.3314 2.70802L10.1323 2.6769C10.1657 2.67055 10.1993 2.66357 10.2327 2.6569C9.42717 2.2286 8.52136 2 7.60443 2C6.10744 2 4.69998 2.58292 3.64145 3.64177C2.58324 4.7003 2 6.10776 2 7.60475C2 8.55755 2.24511 9.49417 2.70516 10.3219C2.71119 10.2876 2.71532 10.253 2.72198 10.2187L2.75627 10.4171C2.73849 10.386 2.72294 10.3536 2.70516 10.3219C2.61181 10.8581 2.5626 11.4061 2.5626 11.9535C2.5626 13.2317 2.81279 14.4712 3.30713 15.6387C3.78337 16.7664 4.46599 17.7783 5.33497 18.6476C6.20491 19.5169 7.21677 20.2001 8.34483 20.6757C9.51163 21.1704 10.7518 21.4209 12.0297 21.4209C12.5859 21.4209 13.1435 21.3701 13.6876 21.2736C13.6559 21.2558 13.6235 21.2396 13.5911 21.2209L13.7934 21.2564C13.7584 21.2631 13.7232 21.2672 13.6876 21.2736C14.5262 21.7479 15.4755 22 16.4448 22C17.9415 22 19.3483 21.418 20.4068 20.3589C21.4657 19.301 22.0483 17.8932 22.0483 16.3962C22.0483 15.4402 21.8019 14.5004 21.3387 13.6696ZM12.0675 17.7513C8.70424 17.7513 7.19963 16.0978 7.19963 14.8586C7.19963 14.2229 7.66888 13.7775 8.31562 13.7775C9.75483 13.7775 9.38209 15.8441 12.0675 15.8441C13.4422 15.8441 14.2014 15.0976 14.2014 14.3338C14.2014 13.8743 13.9747 13.3651 13.0695 13.1419L10.078 12.3951C7.66888 11.7909 7.23169 10.4886 7.23169 9.2643C7.23169 6.72243 9.62497 5.76804 11.8725 5.76804C13.9429 5.76804 16.3835 6.91229 16.3835 8.43722C16.3835 9.09063 15.8177 9.47067 15.1713 9.47067C13.9429 9.47067 14.169 7.77048 11.6947 7.77048C10.467 7.77048 9.7869 8.32642 9.7869 9.12206C9.7869 9.91612 10.7565 10.1698 11.5985 10.3616L13.8127 10.853C16.2381 11.3934 16.8531 12.8095 16.8531 14.1433C16.8531 16.2089 15.2675 17.7513 12.0675 17.7513ZM13.5911 21.2209C13.6235 21.2396 13.6559 21.2558 13.6876 21.2736C13.7232 21.2672 13.7584 21.2631 13.7934 21.2564L13.5911 21.2209ZM21.3212 13.7756C21.3279 13.7404 21.3323 13.7048 21.3387 13.6696C21.3212 13.6378 21.3056 13.6051 21.2869 13.5737L21.3212 13.7756ZM2.72198 10.2187C2.71532 10.253 2.71119 10.2876 2.70516 10.3219C2.72294 10.3536 2.73849 10.386 2.75627 10.4171L2.72198 10.2187ZM10.3314 2.70802C10.299 2.68992 10.2657 2.67436 10.2327 2.6569C10.1993 2.66357 10.1657 2.67055 10.1323 2.6769L10.3314 2.70802Z"/>
</mask>
<path d="M21.3212 13.7756L20.0395 13.9932L22.5985 14.0173L21.3212 13.7756ZM21.2869 13.5737L22.4036 12.9081L20.0053 13.7913L21.2869 13.5737ZM20.7519 8.26863L19.5546 8.77507L19.5549 8.77565L20.7519 8.26863ZM18.7228 5.25941L17.8032 6.17831L17.8039 6.17898L18.7228 5.25941ZM15.7142 3.23093L16.2209 2.03373L16.2208 2.0337L15.7142 3.23093ZM10.2371 2.65626L9.99199 1.37958L9.95668 1.38636L9.9218 1.39508L10.2371 2.65626ZM10.2327 2.6569L9.97771 1.38214L6.39598 2.09848L9.62491 3.80609L10.2327 2.6569ZM10.3314 2.70802L10.1306 3.99242L10.9656 1.57319L10.3314 2.70802ZM10.1323 2.6769L9.88909 1.39986L9.93158 3.96131L10.1323 2.6769ZM10.2327 2.6569L10.4876 3.93165L14.0566 3.21785L10.843 1.50908L10.2327 2.6569ZM3.64145 3.64177L2.72208 2.72267L2.72208 2.72267L3.64145 3.64177ZM2.70516 10.3219L1.56888 10.9534L3.35019 14.1583L3.9855 10.5471L2.70516 10.3219ZM2.72198 10.2187L4.003 9.99733L1.44588 9.97056L2.72198 10.2187ZM2.75627 10.4171L1.62756 11.0621L4.03729 10.1958L2.75627 10.4171ZM2.70516 10.3219L3.83942 9.68669L2.05182 6.49456L1.42442 10.0989L2.70516 10.3219ZM3.30713 15.6387L4.50472 15.1329L4.50423 15.1318L3.30713 15.6387ZM5.33497 18.6476L4.41557 19.5666L4.41607 19.5671L5.33497 18.6476ZM8.34483 20.6757L8.85225 19.4788L8.84988 19.4778L8.34483 20.6757ZM13.6876 21.2736L13.9147 22.5536L17.4989 21.9179L14.3228 20.1393L13.6876 21.2736ZM13.5911 21.2209L13.8162 19.9405L12.9402 22.3462L13.5911 21.2209ZM13.7934 21.2564L14.0372 22.5334L14.0185 19.9761L13.7934 21.2564ZM13.6876 21.2736L13.4591 19.9938L9.90653 20.6282L13.0476 22.4051L13.6876 21.2736ZM20.4068 20.3589L19.488 19.4392L19.4873 19.4399L20.4068 20.3589ZM13.0695 13.1419L12.7546 14.4032L12.7583 14.4041L13.0695 13.1419ZM10.078 12.3951L9.7618 13.6561L9.76318 13.6564L10.078 12.3951ZM11.5985 10.3616L11.3098 11.6291L11.3168 11.6307L11.5985 10.3616ZM13.8127 10.853L14.0955 9.58416L14.0944 9.58394L13.8127 10.853ZM13.5911 21.2209L13.8162 19.9405L12.9402 22.3462L13.5911 21.2209ZM13.6876 21.2736L13.0525 22.4078L13.4583 22.6351L13.9162 22.5533L13.6876 21.2736ZM13.7934 21.2564L14.0372 22.5334L14.0185 19.9761L13.7934 21.2564ZM21.3212 13.7756L20.0395 13.9932L22.5985 14.0173L21.3212 13.7756ZM21.3387 13.6696L22.6181 13.9001L22.6997 13.4467L22.4777 13.0431L21.3387 13.6696ZM21.2869 13.5737L22.4036 12.9081L20.0053 13.7913L21.2869 13.5737ZM2.72198 10.2187L4.003 9.99733L1.44588 9.97056L2.72198 10.2187ZM2.70516 10.3219L1.42482 10.0966L1.34456 10.5529L1.5709 10.9571L2.70516 10.3219ZM2.75627 10.4171L1.62756 11.0621L4.03729 10.1958L2.75627 10.4171ZM10.3314 2.70802L10.1306 3.99242L10.9656 1.57319L10.3314 2.70802ZM10.2327 2.6569L10.8404 1.50771L10.4314 1.29141L9.97771 1.38214L10.2327 2.6569ZM10.1323 2.6769L9.88909 1.39986L9.93158 3.96131L10.1323 2.6769ZM20.0593 13.439C20.0526 13.476 20.0472 13.5117 20.0453 13.5238C20.0425 13.5423 20.0427 13.5403 20.0439 13.5339L22.5985 14.0173C22.6064 13.9757 22.6121 13.9382 22.6148 13.9213C22.6184 13.8981 22.6184 13.8983 22.6181 13.9001L20.0593 13.439ZM22.6028 13.558L22.5686 13.356L20.0053 13.7913L20.0395 13.9932L22.6028 13.558ZM20.1702 14.2392C20.1647 14.2301 20.1612 14.2236 20.1599 14.2212C20.1587 14.2192 20.1588 14.2192 20.1615 14.2244C20.1629 14.227 20.1643 14.2297 20.1666 14.2341C20.1687 14.2381 20.1715 14.2436 20.1745 14.2494C20.1806 14.2609 20.1893 14.2774 20.1996 14.296L22.4777 13.0431C22.4793 13.0458 22.4795 13.0463 22.4771 13.0418C22.476 13.0396 22.4746 13.037 22.4725 13.033C22.4706 13.0294 22.4678 13.024 22.465 13.0186C22.4543 12.9982 22.4321 12.956 22.4036 12.9081L20.1702 14.2392ZM22.6172 13.9045C22.7346 13.2661 22.7965 12.6109 22.7965 11.9535L20.1965 11.9535C20.1965 12.4486 20.1498 12.9465 20.0601 13.4346L22.6172 13.9045ZM22.7965 11.9535C22.7965 10.5032 22.512 9.09079 21.949 7.76161L19.5549 8.77565C19.9806 9.78071 20.1965 10.848 20.1965 11.9535L22.7965 11.9535ZM21.9492 7.7622C21.4069 6.48002 20.6299 5.32732 19.6417 4.33984L17.8039 6.17898C18.5556 6.9301 19.1432 7.80239 19.5546 8.77507L21.9492 7.7622ZM19.6424 4.34051C18.6553 3.35273 17.502 2.57592 16.2209 2.03373L15.2075 4.42813C16.18 4.8397 17.053 5.42748 17.8032 6.17831L19.6424 4.34051ZM16.2208 2.0337C14.8922 1.47152 13.48 1.18704 12.0297 1.18704V3.78704C13.1353 3.78704 14.2027 4.00293 15.2076 4.42817L16.2208 2.0337ZM12.0297 1.18704C11.3467 1.18704 10.6614 1.25107 9.99199 1.37958L10.4822 3.93295C10.987 3.83604 11.5081 3.78704 12.0297 3.78704V1.18704ZM9.9218 1.39508C9.95225 1.38747 9.97902 1.38196 10.0007 1.37795C10.0224 1.37395 10.0409 1.37112 10.0548 1.36916C10.0686 1.36721 10.0798 1.36587 10.0867 1.36507C10.0933 1.36431 10.0985 1.36377 10.0989 1.36373C10.101 1.3635 10.0967 1.36395 10.0931 1.36435C10.0886 1.36484 10.0806 1.36574 10.0706 1.367C10.051 1.36948 10.0181 1.37407 9.97771 1.38214L10.4876 3.93165C10.448 3.93957 10.4159 3.94404 10.3971 3.94642C10.3875 3.94763 10.3799 3.94849 10.3757 3.94894C10.3725 3.94929 10.3686 3.9497 10.3711 3.94943C10.3719 3.94936 10.3775 3.94877 10.3844 3.94797C10.3917 3.94713 10.4033 3.94574 10.4174 3.94374C10.4441 3.93999 10.4927 3.93238 10.5524 3.91745L9.9218 1.39508ZM9.62491 3.80609C9.64227 3.81527 9.65777 3.8232 9.66942 3.82911C9.67528 3.83208 9.68077 3.83485 9.68515 3.83705C9.69003 3.83951 9.69305 3.84103 9.69643 3.84273C9.71056 3.84987 9.7064 3.84797 9.69723 3.84284L10.9656 1.57319C10.924 1.54997 10.887 1.53124 10.8681 1.5217C10.8546 1.51491 10.8531 1.51414 10.8455 1.51031C10.8406 1.50783 10.8396 1.50726 10.8404 1.50771L9.62491 3.80609ZM10.5322 1.42361L10.3331 1.39249L9.93158 3.96131L10.1306 3.99242L10.5322 1.42361ZM10.3756 3.95394C10.4164 3.94617 10.4671 3.93576 10.4876 3.93165L9.97771 1.38214C9.93158 1.39137 9.91496 1.39493 9.88909 1.39986L10.3756 3.95394ZM10.843 1.50908C9.85141 0.981822 8.73625 0.7 7.60443 0.7V3.3C8.30647 3.3 9.00294 3.47537 9.62233 3.80472L10.843 1.50908ZM7.60443 0.7C5.76268 0.7 4.02447 1.41988 2.72208 2.72267L4.56083 4.56087C5.37549 3.74597 6.4522 3.3 7.60443 3.3V0.7ZM2.72208 2.72267C1.42029 4.02485 0.7 5.76285 0.7 7.60475H3.3C3.3 6.45267 3.74619 5.37575 4.56083 4.56087L2.72208 2.72267ZM0.7 7.60475C0.7 8.77999 1.00215 9.93379 1.56888 10.9534L3.84144 9.69032C3.48807 9.05454 3.3 8.33512 3.3 7.60475H0.7ZM3.9855 10.5471C3.98902 10.5271 3.99186 10.5093 3.99392 10.4961C3.99572 10.4845 3.99784 10.4705 3.99856 10.4657C4.00099 10.4497 4.00029 10.4555 3.99808 10.4668L1.44588 9.97056C1.43701 10.0162 1.43091 10.0564 1.42811 10.0748C1.42417 10.1007 1.42451 10.0984 1.42482 10.0966L3.9855 10.5471ZM1.44097 10.4401L1.47526 10.6385L4.03729 10.1958L4.003 9.99733L1.44097 10.4401ZM3.88499 9.77215C3.88985 9.78064 3.892 9.78511 3.88297 9.76782C3.87976 9.76167 3.87323 9.74914 3.86658 9.73661C3.85952 9.7233 3.85026 9.70606 3.83942 9.68669L1.5709 10.9571C1.56863 10.953 1.56747 10.9506 1.57846 10.9717C1.5861 10.9863 1.60492 11.0225 1.62756 11.0621L3.88499 9.77215ZM1.42442 10.0989C1.31873 10.7061 1.2626 11.3287 1.2626 11.9535H3.8626C3.8626 11.4836 3.90489 11.0102 3.9859 10.5448L1.42442 10.0989ZM1.2626 11.9535C1.2626 13.4042 1.54711 14.8162 2.11003 16.1456L4.50423 15.1318C4.07846 14.1263 3.8626 13.0593 3.8626 11.9535H1.2626ZM2.10954 16.1444C2.6515 17.4278 3.429 18.5797 4.41557 19.5666L6.25438 17.7285C5.50297 16.9768 4.91524 16.105 4.50472 15.1329L2.10954 16.1444ZM4.41607 19.5671C5.40323 20.5536 6.55519 21.332 7.83978 21.8736L8.84988 19.4778C7.87835 19.0682 7.00659 18.4802 6.25388 17.728L4.41607 19.5671ZM7.83742 21.8726C9.16637 22.436 10.5792 22.7209 12.0297 22.7209L12.0297 20.1209C10.9243 20.1209 9.85689 19.9048 8.85225 19.4788L7.83742 21.8726ZM12.0297 22.7209C12.6645 22.7209 13.298 22.663 13.9147 22.5536L13.4606 19.9935C12.9889 20.0772 12.5074 20.1209 12.0297 20.1209L12.0297 22.7209ZM14.3228 20.1393C14.3063 20.1301 14.2915 20.122 14.28 20.1158C14.2697 20.1103 14.2576 20.1038 14.2524 20.1011C14.2374 20.093 14.2378 20.0931 14.242 20.0956L12.9402 22.3462C12.9768 22.3673 13.0096 22.3849 13.0268 22.3941C13.0377 22.3999 13.0418 22.402 13.0474 22.4051C13.052 22.4075 13.0531 22.4082 13.0525 22.4078L14.3228 20.1393ZM13.366 22.5012L13.5683 22.5368L14.0185 19.9761L13.8162 19.9405L13.366 22.5012ZM13.5496 19.9795C13.5598 19.9775 13.5649 19.9769 13.5468 19.9797C13.5405 19.9806 13.5267 19.9827 13.5134 19.9848C13.499 19.987 13.4803 19.99 13.4591 19.9938L13.9162 22.5533C13.9128 22.5539 13.9106 22.5542 13.9347 22.5506C13.9518 22.548 13.9921 22.542 14.0372 22.5334L13.5496 19.9795ZM13.0476 22.4051C14.0802 22.9892 15.2499 23.3 16.4448 23.3L16.4448 20.7C15.7011 20.7 14.9721 20.5066 14.3277 20.1421L13.0476 22.4051ZM16.4448 23.3C18.2859 23.3 20.0236 22.5813 21.3263 21.2778L19.4873 19.4399C18.6729 20.2547 17.597 20.7 16.4448 20.7L16.4448 23.3ZM21.3256 21.2785C22.6289 19.9764 23.3483 18.2376 23.3483 16.3962L20.7483 16.3962C20.7483 17.5488 20.3024 18.6255 19.488 19.4392L21.3256 21.2785ZM23.3483 16.3962C23.3483 15.2173 23.0446 14.0597 22.4741 13.0365L20.2032 14.3026C20.5592 14.9411 20.7483 15.6632 20.7483 16.3962L23.3483 16.3962ZM12.0675 16.4513C8.98424 16.4513 8.49962 15.009 8.49962 14.8586L5.89963 14.8586C5.89963 17.1865 8.42423 19.0513 12.0675 19.0513V16.4513ZM8.49962 14.8586C8.49962 14.8609 8.49885 14.8832 8.48482 14.9172C8.47073 14.9514 8.4477 14.9864 8.41682 15.0161C8.34979 15.0807 8.29526 15.0775 8.31562 15.0775V12.4775C6.99761 12.4775 5.89963 13.4592 5.89963 14.8586L8.49962 14.8586ZM8.31562 15.0775C8.33324 15.0775 8.31029 15.0793 8.27087 15.0625C8.2352 15.0473 8.22593 15.0337 8.24852 15.0546C8.27763 15.0816 8.32314 15.131 8.40696 15.2371C8.46343 15.3086 8.61031 15.5022 8.71778 15.6336C8.98097 15.9555 9.35986 16.361 9.94147 16.6696C10.5264 16.9799 11.2233 17.1441 12.0675 17.1441V14.5441C11.5689 14.5441 11.3054 14.4499 11.16 14.3728C11.0113 14.2939 10.8899 14.1827 10.7307 13.988C10.627 13.8611 10.5821 13.7963 10.4473 13.6256C10.3399 13.4896 10.1945 13.313 10.0142 13.1462C9.60574 12.7682 9.05481 12.4775 8.31562 12.4775V15.0775ZM12.0675 17.1441C13.8411 17.1441 15.5014 16.0977 15.5014 14.3338H12.9014C12.9014 14.2643 12.9386 14.2815 12.8504 14.3504C12.7598 14.421 12.5243 14.5441 12.0675 14.5441V17.1441ZM15.5014 14.3338C15.5014 13.8877 15.3881 13.3356 14.9907 12.838C14.5961 12.3439 14.0303 12.0398 13.3807 11.8797L12.7583 14.4041C12.8866 14.4357 12.9513 14.4679 12.9751 14.4817C12.9962 14.494 12.9828 14.4902 12.959 14.4605C12.935 14.4304 12.9179 14.3955 12.9085 14.365C12.9002 14.3376 12.9014 14.3247 12.9014 14.3338H15.5014ZM13.3843 11.8806L10.3929 11.1338L9.76318 13.6564L12.7546 14.4032L13.3843 11.8806ZM10.3943 11.1342C9.38133 10.8801 8.9743 10.5291 8.79609 10.2885C8.61545 10.0446 8.53169 9.72895 8.53169 9.2643H5.93169C5.93169 10.0239 6.06653 10.9716 6.70677 11.836C7.34945 12.7037 8.36559 13.3059 9.7618 13.6561L10.3943 11.1342ZM8.53169 9.2643C8.53169 8.48304 8.86297 8.00409 9.40437 7.66153C10.0093 7.27878 10.9023 7.06804 11.8725 7.06804V4.46804C10.5952 4.46804 9.16778 4.73449 8.01419 5.4644C6.79706 6.23451 5.93169 7.50369 5.93169 9.2643H8.53169ZM11.8725 7.06804C12.6961 7.06804 13.6079 7.30231 14.2792 7.67055C15.0236 8.07892 15.0835 8.40822 15.0835 8.43722H17.6835C17.6835 6.9413 16.5231 5.936 15.5297 5.39101C14.463 4.8059 13.1193 4.46804 11.8725 4.46804V7.06804ZM15.0835 8.43722C15.0835 8.40825 15.0909 8.35616 15.12 8.29748C15.1482 8.2406 15.1842 8.20253 15.2108 8.18137C15.2566 8.14497 15.2533 8.17067 15.1713 8.17067L15.1713 10.7707C15.7358 10.7707 16.3385 10.6063 16.8288 10.2166C17.3457 9.80564 17.6835 9.17971 17.6835 8.43722H15.0835ZM15.1713 8.17067C15.1701 8.17067 15.1794 8.17062 15.1965 8.17384C15.214 8.17711 15.2337 8.18268 15.2536 8.19061C15.295 8.20717 15.3102 8.22322 15.2928 8.20861C15.2688 8.18852 15.2289 8.15006 15.1474 8.06003C15.0843 7.9904 14.9567 7.84443 14.8399 7.72228C14.5735 7.44357 14.2012 7.10799 13.653 6.85544C13.1073 6.60398 12.466 6.47048 11.6947 6.47048L11.6947 9.07048C12.1605 9.07048 12.4189 9.14951 12.565 9.21684C12.7088 9.28307 12.8206 9.37254 12.9605 9.51888C13.0469 9.60925 13.1029 9.6758 13.2203 9.80541C13.3192 9.91462 13.4566 10.0621 13.6228 10.2014C14.0002 10.5176 14.5028 10.7707 15.1713 10.7707L15.1713 8.17067ZM11.6947 6.47048C10.9036 6.47048 10.1251 6.64737 9.50908 7.10146C8.85378 7.58447 8.4869 8.31046 8.4869 9.12206H11.0869C11.0869 9.1121 11.088 9.13119 11.0724 9.16189C11.0569 9.19258 11.0415 9.20189 11.0517 9.19436C11.0827 9.17156 11.2581 9.07048 11.6947 9.07048L11.6947 6.47048ZM8.4869 9.12206C8.4869 10.1918 9.19646 10.8094 9.76204 11.113C10.2887 11.3958 10.9132 11.5388 11.3098 11.6291L11.8872 9.09402C11.68 9.04682 11.499 9.00331 11.3358 8.95408C11.1705 8.90421 11.0605 8.85913 10.9919 8.8223C10.9212 8.78436 10.9452 8.78208 10.9907 8.84267C11.0519 8.92404 11.0869 9.03214 11.0869 9.12206H8.4869ZM11.3168 11.6307L13.531 12.1222L14.0944 9.58394L11.8802 9.09245L11.3168 11.6307ZM13.53 12.1219C14.5281 12.3443 14.9895 12.7067 15.2157 12.998C15.446 13.2945 15.5531 13.6724 15.5531 14.1433H18.1531C18.1531 13.2803 17.9527 12.2833 17.2691 11.4032C16.5815 10.5179 15.5227 9.90217 14.0955 9.58416L13.53 12.1219ZM15.5531 14.1433C15.5531 14.817 15.3089 15.3343 14.843 15.7109C14.3476 16.1114 13.474 16.4513 12.0675 16.4513V19.0513C13.861 19.0513 15.3802 18.6199 16.4776 17.7329C17.6044 16.8219 18.1531 15.5351 18.1531 14.1433H15.5531ZM12.9402 22.3462C12.9768 22.3673 13.0096 22.3849 13.0268 22.3941C13.0377 22.3999 13.0418 22.402 13.0474 22.4051C13.052 22.4075 13.0531 22.4082 13.0525 22.4078L14.3228 20.1393C14.3063 20.1301 14.2915 20.122 14.28 20.1158C14.2697 20.1103 14.2576 20.1038 14.2524 20.1011C14.2374 20.093 14.2378 20.0931 14.242 20.0956L12.9402 22.3462ZM13.9162 22.5533C13.9128 22.5539 13.9106 22.5542 13.9347 22.5506C13.9518 22.548 13.9921 22.542 14.0372 22.5334L13.5496 19.9795C13.5598 19.9775 13.5649 19.9769 13.5468 19.9797C13.5405 19.9806 13.5267 19.9827 13.5134 19.9848C13.499 19.987 13.4803 19.99 13.4591 19.9938L13.9162 22.5533ZM14.0185 19.9761L13.8162 19.9405L13.366 22.5012L13.5683 22.5368L14.0185 19.9761ZM22.5985 14.0173C22.6064 13.9757 22.6121 13.9382 22.6148 13.9213C22.6184 13.8981 22.6184 13.8983 22.6181 13.9001L20.0593 13.439C20.0526 13.476 20.0472 13.5117 20.0453 13.5238C20.0425 13.5423 20.0427 13.5403 20.0439 13.5339L22.5985 14.0173ZM22.4777 13.0431C22.4793 13.0458 22.4795 13.0463 22.4771 13.0418C22.476 13.0396 22.4746 13.037 22.4725 13.033C22.4706 13.0294 22.4678 13.024 22.465 13.0186C22.4543 12.9982 22.4321 12.956 22.4036 12.9081L20.1702 14.2392C20.1647 14.2301 20.1612 14.2236 20.1599 14.2212C20.1587 14.2192 20.1588 14.2192 20.1615 14.2244C20.1629 14.227 20.1643 14.2297 20.1666 14.2341C20.1687 14.2381 20.1715 14.2436 20.1745 14.2494C20.1806 14.2609 20.1893 14.2774 20.1996 14.296L22.4777 13.0431ZM20.0053 13.7913L20.0395 13.9932L22.6028 13.558L22.5686 13.356L20.0053 13.7913ZM1.44588 9.97056C1.43701 10.0162 1.43091 10.0564 1.42811 10.0748C1.42417 10.1007 1.42451 10.0984 1.42482 10.0966L3.9855 10.5471C3.98902 10.5271 3.99186 10.5093 3.99392 10.4961C3.99572 10.4845 3.99784 10.4705 3.99856 10.4657C4.00099 10.4497 4.00029 10.4555 3.99808 10.4668L1.44588 9.97056ZM1.5709 10.9571C1.56863 10.953 1.56747 10.9506 1.57846 10.9717C1.5861 10.9863 1.60492 11.0225 1.62756 11.0621L3.88499 9.77215C3.88985 9.78064 3.892 9.78511 3.88297 9.76782C3.87976 9.76167 3.87323 9.74914 3.86658 9.73661C3.85952 9.7233 3.85026 9.70606 3.83942 9.68669L1.5709 10.9571ZM4.03729 10.1958L4.003 9.99733L1.44097 10.4401L1.47526 10.6385L4.03729 10.1958ZM10.9656 1.57319C10.924 1.54997 10.887 1.53124 10.8681 1.5217C10.8546 1.51491 10.8531 1.51414 10.8455 1.51031C10.8406 1.50783 10.8396 1.50726 10.8404 1.50771L9.62491 3.80609C9.64227 3.81527 9.65777 3.8232 9.66942 3.82911C9.67528 3.83208 9.68077 3.83485 9.68515 3.83705C9.69003 3.83951 9.69305 3.84103 9.69643 3.84273C9.71056 3.84987 9.7064 3.84797 9.69723 3.84284L10.9656 1.57319ZM9.97771 1.38214C9.93158 1.39137 9.91496 1.39493 9.88909 1.39986L10.3756 3.95394C10.4164 3.94617 10.4671 3.93576 10.4876 3.93165L9.97771 1.38214ZM9.93158 3.96131L10.1306 3.99242L10.5322 1.42361L10.3331 1.39249L9.93158 3.96131Z" fill="#4F4F4F" mask="url(#path-1-outside-1)"/>
</svg>
