<svg width="22" height="20" viewBox="0 0 22 20" fill="none" xmlns="http://www.w3.org/2000/svg">
<path fill-rule="evenodd" clip-rule="evenodd" d="M16.0016 18.9128C17.2597 19.4632 17.7315 18.3099 17.7315 18.3099L21.0603 1.58727C21.0341 0.460194 19.5138 1.14168 19.5138 1.14168L0.87776 8.45458C0.87776 8.45458 -0.0134169 8.76911 0.0652163 9.31954C0.14385 9.86998 0.851549 10.1321 0.851549 10.1321L5.54333 11.7048C5.54333 11.7048 6.95873 16.3441 7.24706 17.2353C7.50917 18.1003 7.74507 18.1265 7.74507 18.1265C8.00718 18.2313 8.24308 18.0478 8.24308 18.0478L11.2836 15.2957L16.0016 18.9128ZM16.8141 4.54928C16.8141 4.54928 17.4694 4.15611 17.4432 4.54928C17.4432 4.54928 17.5481 4.6017 17.2073 4.96866C16.8928 5.28319 9.47504 11.9408 8.47902 12.832C8.40038 12.8844 8.34796 12.963 8.34796 13.0679L8.05964 15.5317C8.00722 15.7938 7.66647 15.82 7.58784 15.5841L6.35592 11.5476C6.30349 11.3904 6.35592 11.2069 6.51318 11.1021L16.8141 4.54928Z" fill="white"/>
</svg>
