<svg width="25" height="22" viewBox="0 0 25 22" fill="none" xmlns="http://www.w3.org/2000/svg">
<mask id="path-1-outside-1" maskUnits="userSpaceOnUse" x="0.0605469" y="-0.062088" width="25" height="22" fill="black">
<rect fill="white" x="0.0605469" y="-0.062088" width="25" height="22"/>
<path fill-rule="evenodd" clip-rule="evenodd" d="M18.0018 19.9132C19.2599 20.4636 19.7317 19.3104 19.7317 19.3104L23.0605 2.58768C23.0343 1.46061 21.5141 2.14209 21.5141 2.14209L2.878 9.45499C2.878 9.45499 1.98683 9.76952 2.06546 10.32C2.14409 10.8704 2.85179 11.1325 2.85179 11.1325L7.54358 12.7052C7.54358 12.7052 8.95897 17.3445 9.2473 18.2357C9.50941 19.1007 9.74531 19.1269 9.74531 19.1269C10.0074 19.2317 10.2433 19.0483 10.2433 19.0483L13.2838 16.2961L18.0018 19.9132ZM18.8143 5.5495C18.8143 5.5495 19.4696 5.15634 19.4434 5.5495C19.4434 5.5495 19.5482 5.60193 19.2075 5.96888C18.8929 6.28341 11.4752 12.941 10.4792 13.8322C10.4005 13.8846 10.3481 13.9633 10.3481 14.0681L10.0598 16.532C10.0074 16.7941 9.66664 16.8203 9.58801 16.5844L8.35608 12.5479C8.30366 12.3906 8.35608 12.2071 8.51335 12.1023L18.8143 5.5495Z"/>
</mask>
<path d="M19.7317 19.3104L21.1201 19.8783L21.1747 19.7447L21.2029 19.6032L19.7317 19.3104ZM18.0018 19.9132L17.0892 21.1036L17.2337 21.2144L17.4006 21.2875L18.0018 19.9132ZM23.0605 2.58768L24.5317 2.88053L24.564 2.71824L24.5601 2.55281L23.0605 2.58768ZM21.5141 2.14209L22.062 3.53844L22.0952 3.52543L22.1277 3.51086L21.5141 2.14209ZM2.878 9.45499L3.37723 10.8695L3.40174 10.8608L3.42594 10.8513L2.878 9.45499ZM2.06546 10.32L3.55038 10.1078V10.1078L2.06546 10.32ZM2.85179 11.1325L2.33082 12.5391L2.35282 12.5473L2.37507 12.5547L2.85179 11.1325ZM7.54358 12.7052L8.97829 12.2675L8.75284 11.5285L8.0203 11.2829L7.54358 12.7052ZM9.2473 18.2357L10.6828 17.8007L10.6788 17.7873L10.6745 17.774L9.2473 18.2357ZM9.74531 19.1269L10.3024 17.7342L10.1133 17.6585L9.91095 17.6361L9.74531 19.1269ZM10.2433 19.0483L11.1642 20.2323L11.2084 20.1979L11.2499 20.1603L10.2433 19.0483ZM13.2838 16.2961L14.1965 15.1057L13.2042 14.3449L12.2772 15.184L13.2838 16.2961ZM19.4434 5.5495L17.9467 5.44973L17.8803 6.44503L18.7725 6.89114L19.4434 5.5495ZM18.8143 5.5495L18.0426 4.26326L18.0258 4.27335L18.0092 4.28388L18.8143 5.5495ZM19.2075 5.96888L20.2681 7.02954L20.2878 7.00991L20.3067 6.98956L19.2075 5.96888ZM10.4792 13.8322L11.3112 15.0803L11.3999 15.0212L11.4794 14.9501L10.4792 13.8322ZM10.3481 14.0681L11.838 14.2425L11.8481 14.1556V14.0681H10.3481ZM10.0598 16.532L11.5307 16.8261L11.5426 16.7666L11.5496 16.7063L10.0598 16.532ZM9.58801 16.5844L8.15333 17.0222L8.15892 17.0405L8.16498 17.0587L9.58801 16.5844ZM8.35608 12.5479L9.79076 12.11L9.78517 12.0917L9.77911 12.0735L8.35608 12.5479ZM8.51335 12.1023L7.70825 10.8367L7.69468 10.8453L7.6813 10.8542L8.51335 12.1023ZM19.7317 19.3104C18.3434 18.7424 18.3437 18.7417 18.344 18.7409C18.3441 18.7407 18.3444 18.74 18.3446 18.7395C18.345 18.7385 18.3454 18.7375 18.3458 18.7366C18.3466 18.7347 18.3473 18.7329 18.3481 18.7311C18.3496 18.7276 18.351 18.7242 18.3523 18.7211C18.355 18.7149 18.3574 18.7094 18.3596 18.7046C18.3639 18.6951 18.3672 18.6883 18.3696 18.6835C18.372 18.6788 18.3736 18.6758 18.3746 18.6742C18.3755 18.6725 18.376 18.6718 18.3761 18.6716C18.3762 18.6715 18.3762 18.6714 18.3764 18.6712C18.3765 18.671 18.3772 18.6701 18.3785 18.6686C18.3806 18.6661 18.3883 18.6574 18.4032 18.6455C18.4374 18.6183 18.5059 18.5781 18.5965 18.5655C18.6896 18.5526 18.7034 18.5829 18.603 18.539L17.4006 21.2875C17.9292 21.5187 18.4739 21.6113 19.0092 21.537C19.5422 21.4629 19.9645 21.2376 20.2739 20.9909C20.575 20.7507 20.7767 20.4854 20.9006 20.2923C20.9645 20.1929 21.0131 20.1041 21.0484 20.0342C21.0661 19.999 21.0808 19.9678 21.0926 19.9417C21.0986 19.9287 21.1038 19.9168 21.1083 19.9062C21.1106 19.9009 21.1127 19.8959 21.1147 19.8913C21.1157 19.8889 21.1166 19.8867 21.1175 19.8845C21.1179 19.8835 21.1184 19.8824 21.1188 19.8814C21.119 19.8808 21.1193 19.8801 21.1194 19.8798C21.1197 19.8791 21.1201 19.8783 19.7317 19.3104ZM21.5894 2.29484L18.2606 19.0175L21.2029 19.6032L24.5317 2.88053L21.5894 2.29484ZM21.5141 2.14209C22.1277 3.51086 22.1273 3.51104 22.1268 3.51122C22.1267 3.51128 22.1263 3.51146 22.1261 3.51158C22.1255 3.51181 22.1251 3.51203 22.1246 3.51224C22.1236 3.51266 22.1228 3.51305 22.122 3.5134C22.1204 3.51409 22.1191 3.51465 22.1182 3.51507C22.1163 3.5159 22.1155 3.51621 22.1159 3.51605C22.1167 3.51571 22.1217 3.51359 22.1303 3.5102C22.148 3.50321 22.1776 3.49211 22.2141 3.48028C22.2999 3.4525 22.3654 3.4399 22.3925 3.43782C22.4026 3.43704 22.3722 3.44086 22.3124 3.43088C22.2518 3.42074 22.1309 3.39115 21.993 3.30193C21.8439 3.2055 21.72 3.06777 21.6417 2.90927C21.5687 2.76142 21.5616 2.64933 21.5609 2.62256L24.5601 2.55281C24.5448 1.89572 24.278 1.20722 23.6227 0.783218C23.0717 0.426675 22.4852 0.421824 22.1624 0.446653C21.8062 0.474057 21.49 0.56139 21.29 0.626161C21.1836 0.660612 21.0941 0.693947 21.0286 0.719826C20.9956 0.732868 20.9679 0.744293 20.9464 0.753386C20.9357 0.75794 20.9264 0.761934 20.9187 0.765281C20.9149 0.766955 20.9114 0.768469 20.9084 0.769814C20.9069 0.770486 20.9055 0.771116 20.9041 0.771703C20.9035 0.771996 20.9028 0.772278 20.9022 0.77255C20.9019 0.772685 20.9015 0.772881 20.9014 0.772948C20.9009 0.773141 20.9005 0.77333 21.5141 2.14209ZM3.42594 10.8513L22.062 3.53844L20.9662 0.745752L2.33007 8.05865L3.42594 10.8513ZM3.55038 10.1078C3.59533 10.4224 3.48541 10.6696 3.4007 10.7945C3.33065 10.8978 3.27265 10.9306 3.29606 10.9143C3.30992 10.9048 3.33729 10.8891 3.36986 10.8741C3.38362 10.8677 3.39337 10.8637 3.39644 10.8625C3.39784 10.8619 3.39724 10.8622 3.39425 10.8633C3.39274 10.8639 3.39061 10.8647 3.3878 10.8657C3.38639 10.8662 3.38481 10.8668 3.38305 10.8674C3.38218 10.8677 3.38125 10.8681 3.38028 10.8684C3.3798 10.8686 3.3793 10.8687 3.37879 10.8689C3.37854 10.869 3.37815 10.8692 3.37802 10.8692C3.37763 10.8693 3.37723 10.8695 2.878 9.45499C2.37877 8.0405 2.37837 8.04065 2.37796 8.04079C2.37782 8.04084 2.37741 8.04099 2.37713 8.04108C2.37657 8.04128 2.37599 8.04149 2.3754 8.0417C2.37422 8.04212 2.37297 8.04257 2.37166 8.04303C2.36905 8.04397 2.36619 8.045 2.3631 8.04612C2.35693 8.04837 2.3498 8.05099 2.34178 8.05399C2.32578 8.05999 2.3061 8.06755 2.28329 8.07666C2.23793 8.09478 2.17867 8.11967 2.11011 8.15139C1.97804 8.2125 1.78753 8.30993 1.58843 8.44777C1.31541 8.63679 0.409061 9.33176 0.580536 10.5321L3.55038 10.1078ZM2.85179 11.1325C3.37277 9.72588 3.37321 9.72604 3.37365 9.72621C3.37379 9.72626 3.37423 9.72642 3.37452 9.72653C3.37509 9.72674 3.37566 9.72695 3.37622 9.72716C3.37733 9.72758 3.37841 9.72798 3.37946 9.72838C3.38155 9.72916 3.3835 9.7299 3.38532 9.7306C3.38895 9.73199 3.39207 9.7332 3.39469 9.73424C3.39993 9.7363 3.40331 9.73771 3.4051 9.73846C3.40848 9.73989 3.40651 9.73915 3.401 9.73644C3.38697 9.72956 3.37243 9.72099 3.36401 9.71493C3.30153 9.66999 3.5038 9.78172 3.55038 10.1078L0.580536 10.5321C0.705756 11.4086 1.30119 11.9266 1.61222 12.1503C1.79055 12.2786 1.95786 12.37 2.07898 12.4294C2.14104 12.4599 2.19497 12.484 2.23736 12.5019C2.25865 12.5109 2.27732 12.5184 2.29296 12.5246C2.30079 12.5277 2.30788 12.5305 2.3142 12.5329C2.31736 12.5341 2.32033 12.5352 2.3231 12.5362C2.32449 12.5368 2.32582 12.5373 2.32711 12.5377C2.32775 12.538 2.32838 12.5382 2.329 12.5384C2.32931 12.5386 2.32977 12.5387 2.32992 12.5388C2.33037 12.539 2.33082 12.5391 2.85179 11.1325ZM8.0203 11.2829L3.32852 9.71027L2.37507 12.5547L7.06685 14.1274L8.0203 11.2829ZM10.6745 17.774C10.5348 17.3423 10.1133 15.9742 9.72138 14.6964C9.52662 14.0614 9.34084 13.4541 9.20372 13.0055C9.13517 12.7813 9.0788 12.5967 9.03957 12.4682C9.01996 12.404 9.00463 12.3538 8.99421 12.3196C8.989 12.3025 8.98502 12.2895 8.98234 12.2807C8.981 12.2763 8.97999 12.273 8.97931 12.2708C8.97897 12.2697 8.97871 12.2688 8.97854 12.2683C8.97846 12.268 8.9784 12.2678 8.97835 12.2677C8.97833 12.2676 8.97832 12.2675 8.97831 12.2675C8.9783 12.2675 8.97829 12.2675 7.54358 12.7052C6.10886 13.1429 6.10887 13.1429 6.10888 13.1429C6.10889 13.143 6.10891 13.143 6.10893 13.1431C6.10897 13.1432 6.10904 13.1435 6.10912 13.1437C6.1093 13.1443 6.10956 13.1452 6.1099 13.1463C6.11058 13.1485 6.1116 13.1519 6.11295 13.1563C6.11565 13.1651 6.11965 13.1782 6.12487 13.1953C6.13533 13.2296 6.15069 13.2799 6.17034 13.3443C6.20964 13.473 6.2661 13.6579 6.33475 13.8825C6.47204 14.3316 6.65812 14.9399 6.85325 15.5761C7.24114 16.8408 7.67147 18.2379 7.82013 18.6974L10.6745 17.774ZM9.74531 19.1269C9.91095 17.6361 9.9135 17.6363 9.91605 17.6366C9.9169 17.6367 9.91944 17.637 9.92114 17.6372C9.92453 17.6376 9.92792 17.638 9.93131 17.6385C9.93809 17.6393 9.94487 17.6402 9.95163 17.6411C9.96515 17.643 9.97863 17.6451 9.99206 17.6473C10.0189 17.6518 10.0455 17.657 10.0719 17.663C10.1246 17.6748 10.1756 17.6894 10.2246 17.7063C10.3233 17.7404 10.4101 17.7828 10.4849 17.8284C10.6341 17.9192 10.7234 18.0155 10.7659 18.0686C10.8398 18.161 10.7852 18.1386 10.6828 17.8007L7.81176 18.6707C7.97149 19.1978 8.1659 19.621 8.42329 19.9427C8.55753 20.1105 8.72223 20.2674 8.9238 20.3902C9.02478 20.4517 9.13212 20.5029 9.24471 20.5418C9.30072 20.5612 9.35702 20.5771 9.41333 20.5898C9.44143 20.5961 9.4694 20.6016 9.49718 20.6062C9.51107 20.6086 9.52489 20.6107 9.53864 20.6126C9.54552 20.6135 9.55238 20.6144 9.55921 20.6153C9.56263 20.6157 9.56605 20.6161 9.56945 20.6165C9.57116 20.6167 9.57371 20.617 9.57456 20.6171C9.57711 20.6174 9.57966 20.6177 9.74531 19.1269ZM10.2433 19.0483C9.32241 17.8642 9.32288 17.8639 9.32335 17.8635C9.3235 17.8634 9.32398 17.863 9.32429 17.8628C9.32491 17.8623 9.32554 17.8618 9.32616 17.8613C9.32741 17.8603 9.32865 17.8594 9.32989 17.8584C9.33236 17.8565 9.33481 17.8547 9.33725 17.8528C9.34212 17.8491 9.34693 17.8455 9.35169 17.8421C9.36118 17.8351 9.37054 17.8284 9.3798 17.822C9.39815 17.8093 9.41698 17.7971 9.43655 17.7855C9.47358 17.7635 9.52381 17.7372 9.5881 17.7143C9.70958 17.6709 9.98359 17.6066 10.3024 17.7342L9.18823 20.5196C9.76914 20.752 10.2921 20.6484 10.5971 20.5395C10.7531 20.4838 10.8787 20.4182 10.9682 20.3651C11.014 20.3379 11.0533 20.3122 11.0855 20.2899C11.1018 20.2787 11.1164 20.2681 11.1295 20.2585C11.1361 20.2537 11.1422 20.2491 11.148 20.2447C11.1509 20.2425 11.1537 20.2404 11.1564 20.2383C11.1578 20.2373 11.1591 20.2363 11.1604 20.2353C11.161 20.2348 11.1617 20.2343 11.1623 20.2338C11.1626 20.2335 11.1631 20.2331 11.1633 20.233C11.1638 20.2326 11.1642 20.2323 10.2433 19.0483ZM12.2772 15.184L9.2367 17.9362L11.2499 20.1603L14.2904 17.4082L12.2772 15.184ZM18.9144 18.7228L14.1965 15.1057L12.3712 17.4865L17.0892 21.1036L18.9144 18.7228ZM20.9401 5.64928C20.9556 5.41647 20.9348 5.05616 20.7252 4.69054C20.4968 4.29224 20.1441 4.06058 19.8122 3.95465C19.2843 3.78617 18.8158 3.9322 18.6996 3.96777C18.5041 4.02761 18.3379 4.10605 18.2419 4.15438C18.1887 4.18112 18.1439 4.20538 18.1108 4.22392C18.094 4.23328 18.0797 4.24145 18.0683 4.24807C18.0626 4.25139 18.0576 4.25434 18.0533 4.25688C18.0511 4.25815 18.0492 4.25932 18.0474 4.26039C18.0465 4.26092 18.0456 4.26143 18.0448 4.26191C18.0444 4.26215 18.044 4.26238 18.0437 4.26261C18.0435 4.26272 18.0432 4.26288 18.0431 4.26294C18.0428 4.2631 18.0426 4.26326 18.8143 5.5495C19.5861 6.83574 19.5858 6.8359 19.5855 6.83606C19.5854 6.83611 19.5852 6.83627 19.585 6.83637C19.5847 6.83657 19.5843 6.83677 19.584 6.83696C19.5834 6.83734 19.5828 6.83771 19.5822 6.83805C19.581 6.83874 19.58 6.83935 19.5791 6.83989C19.5773 6.84097 19.5759 6.84176 19.575 6.8423C19.5732 6.84335 19.573 6.84346 19.5741 6.84284C19.5766 6.84141 19.5828 6.83803 19.5907 6.83405C19.6167 6.82095 19.6127 6.82567 19.5777 6.83637C19.5593 6.84202 19.4997 6.85951 19.4102 6.86876C19.3313 6.87692 19.1389 6.88885 18.9001 6.81263C18.6259 6.72512 18.3201 6.52725 18.1226 6.1827C17.9438 5.87084 17.9377 5.58424 17.9467 5.44973L20.9401 5.64928ZM20.3067 6.98956C20.5037 6.77739 20.7799 6.44994 20.8985 6.02306C20.9679 5.77302 21.0096 5.38966 20.8359 4.97898C20.7511 4.77865 20.6307 4.61159 20.4953 4.47942C20.4292 4.41483 20.3621 4.36105 20.2977 4.31648C20.2655 4.29421 20.2339 4.27419 20.2032 4.2562C20.1879 4.2472 20.1728 4.2387 20.158 4.23066C20.1505 4.22663 20.1432 4.22273 20.1359 4.21893C20.1322 4.21703 20.1286 4.21516 20.125 4.21332C20.1232 4.2124 20.1205 4.21103 20.1196 4.21057C20.1169 4.20922 20.1142 4.20787 19.4434 5.5495C18.7725 6.89114 18.7699 6.88979 18.7672 6.88844C18.7663 6.88798 18.7636 6.88661 18.7618 6.88569C18.7582 6.88385 18.7545 6.88199 18.7509 6.8801C18.7436 6.87631 18.7363 6.87243 18.7289 6.86843C18.7142 6.86044 18.6992 6.85202 18.6841 6.84313C18.6538 6.82536 18.6228 6.80568 18.5912 6.78388C18.5282 6.74026 18.463 6.68797 18.3991 6.62553C18.2682 6.49765 18.1532 6.33756 18.073 6.14788C17.9082 5.75849 17.9549 5.41117 18.0079 5.22011C18.0584 5.03832 18.1314 4.92917 18.1442 4.91026C18.1623 4.88339 18.1588 4.89381 18.1083 4.94821L20.3067 6.98956ZM11.4794 14.9501C12.4415 14.0892 19.9145 7.38316 20.2681 7.02954L18.1468 4.90822C18.1532 4.90181 18.1308 4.92357 18.0517 4.99652C17.9832 5.05967 17.8896 5.14534 17.773 5.25146C17.5403 5.46335 17.2226 5.75115 16.8455 6.09188C16.0915 6.77304 15.1047 7.66168 14.0958 8.569C12.078 10.3838 9.97561 12.27 9.47899 12.7143L11.4794 14.9501ZM11.8481 14.0681C11.8481 14.2764 11.7931 14.4921 11.6798 14.6863C11.5705 14.8738 11.4312 15.0003 11.3112 15.0803L9.64714 12.5841C9.22278 12.867 8.84813 13.3814 8.84813 14.0681H11.8481ZM11.5496 16.7063L11.838 14.2425L8.85829 13.8938L8.56997 16.3576L11.5496 16.7063ZM8.16498 17.0587C8.44955 17.9124 9.25938 18.3075 9.97822 18.2379C10.7028 18.1678 11.3681 17.6392 11.5307 16.8261L8.58893 16.2378C8.69913 15.6868 9.16776 15.3024 9.68925 15.2519C10.205 15.202 10.8051 15.4922 11.011 16.11L8.16498 17.0587ZM6.92141 12.9857L8.15333 17.0222L11.0227 16.1465L9.79076 12.11L6.92141 12.9857ZM7.6813 10.8542C6.94295 11.3464 6.67375 12.2443 6.93306 13.0222L9.77911 12.0735C9.93357 12.5369 9.76922 13.0678 9.3454 13.3503L7.6813 10.8542ZM18.0092 4.28388L7.70825 10.8367L9.31846 13.3679L19.6194 6.81513L18.0092 4.28388Z" fill="#4F4F4F" mask="url(#path-1-outside-1)"/>
</svg>
