<svg width="24" height="25" viewBox="0 0 24 25" fill="none" xmlns="http://www.w3.org/2000/svg">
<path d="M20.8151 3.13841C20.2197 2.59101 17.8092 0.838366 12.4361 0.814358C12.4361 0.814358 6.10255 0.430217 3.01502 3.26325C1.29599 4.98228 0.690966 7.4936 0.628543 10.6147C0.56612 13.7311 0.48449 19.5748 6.11695 21.1594H6.12175L6.11695 23.5747C6.11695 23.5747 6.08334 24.5542 6.72677 24.7511C7.50466 24.9912 7.96563 24.2469 8.7099 23.445C9.11805 23.0033 9.67985 22.3598 10.1072 21.8653C13.9582 22.187 16.9209 21.4475 17.257 21.3371C18.0349 21.0826 22.4381 20.5208 23.1536 14.677C23.8931 8.66523 22.7935 4.85744 20.8151 3.13841ZM21.4682 14.2545C20.8631 19.1331 17.2954 19.4404 16.6376 19.6516C16.3591 19.7429 13.7565 20.3911 10.4817 20.175C10.4817 20.175 8.04245 23.1185 7.28378 23.882C7.16373 24.002 7.02448 24.0501 6.93325 24.026C6.8036 23.9924 6.76519 23.8388 6.76999 23.6131C6.76999 23.2866 6.7892 19.594 6.7892 19.594C6.78439 19.594 6.78439 19.594 6.7892 19.594C2.02105 18.2735 2.29955 13.2989 2.35237 10.6964C2.40519 8.09382 2.89497 5.95704 4.3499 4.52131C6.95726 2.15885 12.34 2.50938 12.34 2.50938C16.8825 2.52858 19.0577 3.89708 19.5619 4.35325C21.2377 5.79378 22.0924 9.22704 21.4682 14.2545Z" fill="white"/>
<path d="M14.6497 10.7876C14.4912 10.7876 14.3568 10.6628 14.3472 10.4995C14.2944 9.46713 13.8094 8.96295 12.8202 8.91013C12.6522 8.90052 12.5225 8.75647 12.5321 8.58841C12.5417 8.42035 12.6858 8.2907 12.8538 8.30031C14.1599 8.37233 14.8898 9.12141 14.957 10.4659C14.9666 10.634 14.837 10.778 14.6689 10.7828C14.6593 10.7876 14.6545 10.7876 14.6497 10.7876Z" fill="white"/>
<path d="M16.2055 11.3062H16.2007C16.0326 11.3014 15.8982 11.1622 15.903 10.9941C15.927 9.95692 15.6293 9.11661 14.9955 8.42516C14.3664 7.73371 13.4973 7.35917 12.3497 7.27754C12.1816 7.26313 12.0568 7.11908 12.0712 6.95102C12.0856 6.78296 12.2297 6.65811 12.3977 6.67252C13.6942 6.76855 14.717 7.21992 15.4468 8.01701C16.1815 8.8189 16.5368 9.82247 16.5128 11.0085C16.508 11.1766 16.3688 11.3062 16.2055 11.3062Z" fill="white"/>
<path d="M17.7996 11.9299C17.6316 11.9299 17.4971 11.7955 17.4971 11.6274C17.4827 9.76911 16.9497 8.3526 15.8645 7.29141C14.7937 6.24463 13.4348 5.71163 11.8358 5.69723C11.6678 5.69723 11.5333 5.55797 11.5333 5.38991C11.5333 5.22185 11.6726 5.0874 11.8358 5.0874C13.5981 5.10181 15.0962 5.69242 16.2823 6.85445C17.4731 8.01647 18.0829 9.62026 18.1021 11.6178C18.1069 11.7907 17.9725 11.9299 17.7996 11.9299C17.8044 11.9299 17.8044 11.9299 17.7996 11.9299Z" fill="white"/>
<path d="M12.8923 14.5475C12.8923 14.5475 13.3196 14.5859 13.5501 14.3026L13.9967 13.7408C14.2127 13.4623 14.7361 13.2847 15.2451 13.568C15.5284 13.7264 16.0422 14.0433 16.3591 14.2786C16.7 14.5283 17.3915 15.1045 17.3963 15.1093C17.7276 15.3878 17.8045 15.796 17.5788 16.2329C17.5788 16.2329 17.5788 16.2377 17.5788 16.2425C17.3483 16.6507 17.0362 17.0348 16.6472 17.3902C16.6424 17.3902 16.6424 17.395 16.6376 17.395C16.3159 17.6639 15.999 17.8175 15.6917 17.8511C15.6533 17.8607 15.61 17.8607 15.5524 17.8607C15.418 17.8607 15.2835 17.8415 15.1491 17.7983L15.1395 17.7839C14.6593 17.6495 13.8622 17.3133 12.5369 16.5787C11.6726 16.1033 10.9571 15.6183 10.3473 15.1333C10.0256 14.8788 9.69909 14.5955 9.36296 14.2594C9.35336 14.2498 9.33896 14.2354 9.32935 14.2258C9.31975 14.2162 9.30534 14.2018 9.29574 14.1922C9.28614 14.1826 9.27173 14.1682 9.26213 14.1586C9.25252 14.149 9.23812 14.1346 9.22851 14.125C8.89719 13.7888 8.60909 13.4623 8.35459 13.1406C7.86962 12.5356 7.38464 11.8153 6.90927 10.951C6.1746 9.62092 5.83847 8.82382 5.70403 8.34845L5.68962 8.33885C5.6464 8.2044 5.6272 8.06995 5.6272 7.9355C5.6272 7.87788 5.6272 7.83466 5.6368 7.79625C5.67522 7.48413 5.82887 7.17202 6.09297 6.8503C6.09297 6.8455 6.09777 6.8455 6.09777 6.8407C6.4531 6.44695 6.83724 6.13964 7.24539 5.90916C7.24539 5.90916 7.25019 5.90916 7.25499 5.90916C7.68715 5.68348 8.0953 5.7603 8.3786 6.09162C8.3786 6.09162 8.95962 6.78788 9.20931 7.1288C9.44459 7.45052 9.76151 7.95951 9.91997 8.24281C10.2033 8.7518 10.0256 9.27519 9.7471 9.49127L9.1853 9.93783C8.902 10.1683 8.94041 10.5957 8.94041 10.5957C8.94041 10.5957 9.77111 13.7552 12.8923 14.5475Z" fill="white"/>
</svg>
