<svg width="23" height="24" viewBox="0 0 23 24" fill="none" xmlns="http://www.w3.org/2000/svg">
<path d="M20.2003 2.34153C19.6048 1.79413 17.1944 0.0414914 11.8212 0.0174826C11.8212 0.0174826 5.48768 -0.366658 2.40015 2.46638C0.681119 4.18541 0.0760977 6.69672 0.0136749 9.81786C-0.0487479 12.9342 -0.130378 18.7779 5.50208 20.3625H5.50688L5.50208 22.7778C5.50208 22.7778 5.46847 23.7574 6.1119 23.9542C6.88979 24.1943 7.35076 23.45 8.09503 22.6482C8.50318 22.2064 9.06498 21.563 9.49234 21.0684C13.3433 21.3901 16.306 20.6506 16.6422 20.5402C17.42 20.2857 21.8232 19.7239 22.5387 13.8801C23.2782 7.86835 22.1786 4.06056 20.2003 2.34153ZM20.8533 13.4576C20.2483 18.3362 16.6806 18.6435 16.0227 18.8548C15.7442 18.946 13.1417 19.5942 9.86688 19.3782C9.86688 19.3782 7.42758 22.3216 6.66891 23.0851C6.54886 23.2052 6.40961 23.2532 6.31838 23.2292C6.18873 23.1956 6.15032 23.0419 6.15512 22.8162C6.15512 22.4897 6.17433 18.7971 6.17433 18.7971C6.16952 18.7971 6.16952 18.7971 6.17433 18.7971C1.40618 17.4767 1.68469 12.502 1.7375 9.89949C1.79032 7.29694 2.2801 5.16016 3.73504 3.72444C6.34239 1.36197 11.7252 1.7125 11.7252 1.7125C16.2676 1.73171 18.4428 3.10021 18.947 3.55638C20.6228 4.9969 21.4775 8.43016 20.8533 13.4576Z" fill="#4F4F4F"/>
<path d="M14.0346 9.99075C13.8761 9.99075 13.7417 9.8659 13.7321 9.70264C13.6792 8.67026 13.1943 8.16608 12.2051 8.11326C12.037 8.10366 11.9074 7.9596 11.917 7.79154C11.9266 7.62348 12.0707 7.49383 12.2387 7.50344C13.5448 7.57546 14.2747 8.32454 14.3419 9.66903C14.3515 9.83709 14.2218 9.98114 14.0538 9.98595C14.0442 9.99075 14.0394 9.99075 14.0346 9.99075Z" fill="#4F4F4F"/>
<path d="M15.5905 10.5094H15.5857C15.4177 10.5046 15.2832 10.3654 15.288 10.1973C15.312 9.16013 15.0143 8.31983 14.3805 7.62837C13.7514 6.93692 12.8823 6.56239 11.7347 6.48076C11.5667 6.46635 11.4418 6.3223 11.4562 6.15424C11.4706 5.98618 11.6147 5.86133 11.7827 5.87573C13.0792 5.97177 14.102 6.42313 14.8318 7.22023C15.5665 8.02212 15.9218 9.02569 15.8978 10.2117C15.893 10.3798 15.7538 10.5094 15.5905 10.5094Z" fill="#4F4F4F"/>
<path d="M17.1848 11.1335C17.0167 11.1335 16.8822 10.9991 16.8822 10.831C16.8678 8.97272 16.3348 7.5562 15.2496 6.49501C14.1788 5.44823 12.82 4.91524 11.221 4.90083C11.0529 4.90083 10.9185 4.76158 10.9185 4.59352C10.9185 4.42546 11.0577 4.29101 11.221 4.29101C12.9832 4.30541 14.4814 4.89603 15.6674 6.05805C16.8582 7.22008 17.4681 8.82386 17.4873 10.8214C17.4921 10.9943 17.3576 11.1335 17.1848 11.1335C17.1896 11.1335 17.1896 11.1335 17.1848 11.1335Z" fill="#4F4F4F"/>
<path d="M12.2773 13.7505C12.2773 13.7505 12.7046 13.7889 12.9351 13.5056L13.3817 12.9438C13.5977 12.6653 14.1211 12.4876 14.6301 12.7709C14.9134 12.9294 15.4272 13.2463 15.7441 13.4816C16.0851 13.7313 16.7765 14.3075 16.7813 14.3123C17.1126 14.5908 17.1895 14.9989 16.9638 15.4359C16.9638 15.4359 16.9638 15.4407 16.9638 15.4455C16.7333 15.8536 16.4212 16.2378 16.0322 16.5931C16.0274 16.5931 16.0274 16.5979 16.0226 16.5979C15.7009 16.8668 15.384 17.0205 15.0767 17.0541C15.0383 17.0637 14.9951 17.0637 14.9374 17.0637C14.803 17.0637 14.6685 17.0445 14.5341 17.0013L14.5245 16.9868C14.0443 16.8524 13.2472 16.5163 11.9219 15.7816C11.0576 15.3062 10.3422 14.8213 9.73233 14.3363C9.41062 14.0818 9.0841 13.7985 8.74797 13.4624C8.73837 13.4528 8.72396 13.4383 8.71436 13.4287C8.70476 13.4191 8.69035 13.4047 8.68075 13.3951C8.67115 13.3855 8.65674 13.3711 8.64714 13.3615C8.63753 13.3519 8.62313 13.3375 8.61352 13.3279C8.2822 12.9918 7.9941 12.6653 7.7396 12.3435C7.25463 11.7385 6.76965 11.0183 6.29428 10.1539C5.55961 8.82386 5.22348 8.02677 5.08904 7.5514L5.07463 7.54179C5.03141 7.40735 5.01221 7.2729 5.01221 7.13845C5.01221 7.08083 5.01221 7.03761 5.02181 6.9992C5.06022 6.68708 5.21388 6.37497 5.47798 6.05325C5.47798 6.04845 5.48278 6.04845 5.48278 6.04365C5.83811 5.6499 6.22225 5.34259 6.6304 5.11211C6.6304 5.11211 6.6352 5.11211 6.64 5.11211C7.07216 4.88643 7.48031 4.96325 7.76361 5.29457C7.76361 5.29457 8.34463 5.99083 8.59432 6.33175C8.8296 6.65347 9.14652 7.16246 9.30498 7.44576C9.58828 7.95475 9.41062 8.47814 9.13211 8.69422L8.57031 9.14078C8.287 9.37126 8.32542 9.79862 8.32542 9.79862C8.32542 9.79862 9.15612 12.9582 12.2773 13.7505Z" fill="#4F4F4F"/>
</svg>
