<svg width="22" height="22" viewBox="0 0 22 22" fill="none" xmlns="http://www.w3.org/2000/svg">
<path d="M18.063 3.90862C16.1332 1.92213 13.4657 0.84375 10.7413 0.84375C4.95214 0.84375 0.29809 5.55456 0.354847 11.287C0.354847 13.1032 0.865657 14.8627 1.71701 16.4519L0.241333 21.8438L5.74674 20.4248C7.27917 21.2762 8.98187 21.6735 10.6846 21.6735C16.417 21.6735 21.0711 16.9627 21.0711 11.2302C21.0711 8.44916 19.9927 5.83835 18.063 3.90862ZM10.7413 19.914C9.2089 19.914 7.67647 19.5167 6.37106 18.7221L6.03052 18.5519L2.73863 19.4032L3.58998 16.1681L3.36295 15.8275C0.865657 11.7978 2.05755 6.46267 6.14404 3.96537C10.2305 1.46807 15.5089 2.65997 18.0062 6.74645C20.5035 10.8329 19.3116 16.1113 15.2251 18.6086C13.9197 19.46 12.3305 19.914 10.7413 19.914ZM15.7359 13.614L15.1116 13.3302C15.1116 13.3302 14.2035 12.9329 13.6359 12.6492C13.5792 12.6492 13.5224 12.5924 13.4657 12.5924C13.2954 12.5924 13.1819 12.6492 13.0684 12.7059C13.0684 12.7059 13.0116 12.7627 12.217 13.6708C12.1603 13.7843 12.0467 13.841 11.9332 13.841H11.8765C11.8197 13.841 11.7062 13.7843 11.6494 13.7275L11.3657 13.614C10.7413 13.3302 10.1738 12.9897 9.71971 12.5356C9.6062 12.4221 9.43593 12.3086 9.32241 12.1951C8.92512 11.7978 8.52782 11.3438 8.24404 10.8329L8.18728 10.7194C8.13052 10.6627 8.13052 10.6059 8.07377 10.4924C8.07377 10.3789 8.07377 10.2654 8.13052 10.2086C8.13052 10.2086 8.35755 9.92483 8.52782 9.75456C8.64133 9.64105 8.69809 9.47078 8.8116 9.35726C8.92512 9.18699 8.98187 8.95997 8.92512 8.7897C8.86836 8.50591 8.18728 6.97348 8.01701 6.63294C7.9035 6.46267 7.78998 6.40591 7.61971 6.34916H7.44944C7.33593 6.34916 7.16566 6.34916 6.99539 6.34916C6.88187 6.34916 6.76836 6.40591 6.65485 6.40591L6.59809 6.46267C6.48458 6.51943 6.37106 6.63294 6.25755 6.6897C6.14404 6.80321 6.08728 6.91672 5.97377 7.03024C5.57647 7.54105 5.34944 8.16537 5.34944 8.7897C5.34944 9.24375 5.46295 9.6978 5.63322 10.0951L5.68998 10.2654C6.20079 11.3438 6.88187 12.3086 7.78998 13.16L8.01701 13.387C8.18728 13.5573 8.35755 13.6708 8.47106 13.841C9.66296 14.8627 11.0251 15.6005 12.5576 15.9978C12.7278 16.0546 12.9548 16.0546 13.1251 16.1113C13.2954 16.1113 13.5224 16.1113 13.6927 16.1113C13.9765 16.1113 14.317 15.9978 14.544 15.8843C14.7143 15.7708 14.8278 15.7708 14.9413 15.6573L15.0548 15.5437C15.1684 15.4302 15.2819 15.3735 15.3954 15.26C15.5089 15.1465 15.6224 15.0329 15.6792 14.9194C15.7927 14.6924 15.8494 14.4086 15.9062 14.1248C15.9062 14.0113 15.9062 13.841 15.9062 13.7275C15.9062 13.7275 15.8494 13.6708 15.7359 13.614Z" fill="white"/>
</svg>
