<svg width="22" height="22" viewBox="0 0 22 22" fill="none" xmlns="http://www.w3.org/2000/svg">
<path d="M17.7047 4.257L17.7046 4.25704L17.7098 4.26216C19.5445 6.09691 20.5714 8.58003 20.5714 11.2302C20.5714 16.6901 16.1377 21.1735 10.6849 21.1735C9.05977 21.1735 7.44184 20.7944 5.98992 19.9877L5.81552 19.8908L5.62232 19.9406L0.951466 21.1445L2.19964 16.5838L2.25228 16.3915L2.15811 16.2157C1.33952 14.6877 0.855213 13.0087 0.855213 11.287H0.855237L0.855188 11.282C0.801196 5.82879 5.22946 1.34374 10.7417 1.34374C13.3358 1.34374 15.8725 2.37092 17.7047 4.257ZM2.25546 19.2759L2.03838 20.1008L2.86419 19.8873L5.97478 19.0828L6.12952 19.1602C7.51529 19.9988 9.1319 20.414 10.7417 20.414C12.4205 20.414 14.103 19.9358 15.4925 19.0314C19.8168 16.3841 21.0687 10.7984 18.4332 6.48572C15.7875 2.15633 10.1984 0.901917 5.88368 3.53872C1.55514 6.18394 0.298256 11.8308 2.93832 16.0909L2.94269 16.098L2.9473 16.1049L3.04958 16.2583L2.25546 19.2759ZM13.3147 13.18C13.3387 13.1531 13.3579 13.1314 13.3734 13.1141C13.3846 13.1093 13.3939 13.1057 13.4031 13.1026C13.408 13.1046 13.4131 13.1065 13.4182 13.1084C13.4332 13.1141 13.4518 13.1205 13.4734 13.1265C13.7563 13.2662 14.1021 13.4255 14.3809 13.5517C14.5313 13.6197 14.6637 13.6787 14.7585 13.7208L14.8704 13.7702L14.9007 13.7836L14.9082 13.7868L14.9087 13.787L15.4066 14.0134V14.0141V14.0149V14.0157V14.0165V14.0173V14.0181V14.0189V14.0197V14.0205V14.0213V14.0221V14.0229V14.0237V14.0245V14.0253V14.0261V14.0269V14.0277V14.0284V14.0292V14.03V14.0308V14.0316V14.0324V14.0332V14.034V14.0348V14.0355V14.0363V14.0371V14.0379V14.0387V14.0395V14.0402V14.041V14.0418V14.0426V14.0434V14.0441V14.0449V14.0457V14.0465V14.0472V14.048V14.0488V14.0496V14.0503V14.0511V14.0519V14.0527V14.0534V14.0542V14.055V14.0557V14.0565V14.0573V14.058V14.0588V14.0596V14.0603V14.0611V14.0618V14.0626V14.0634V14.0641V14.0649V14.0656V14.0664V14.0671V14.0679V14.0686V14.0694V14.0701V14.0709V14.0716V14.0724V14.0731V14.0739V14.0746V14.0751C15.3509 14.3513 15.3058 14.5489 15.2323 14.6958L15.2324 14.6957C15.2324 14.6957 15.2295 14.7012 15.2212 14.7127C15.2125 14.7248 15.2001 14.7405 15.1826 14.7604C15.1459 14.8024 15.1015 14.8471 15.0422 14.9064L15.3958 15.26L15.0422 14.9064C15.0139 14.9347 14.9844 14.9577 14.9255 15.0018L14.9195 15.0063C14.8648 15.0473 14.7838 15.108 14.7017 15.1902L14.5928 15.299C14.588 15.3015 14.5784 15.3062 14.5613 15.3139C14.5555 15.3164 14.549 15.3193 14.5417 15.3224C14.4895 15.3451 14.3992 15.3844 14.2978 15.4483C14.1112 15.5377 13.8634 15.6113 13.693 15.6113H13.692H13.6911H13.69H13.689H13.688H13.687H13.686H13.685H13.684H13.683H13.682H13.681H13.68H13.679H13.6779H13.6769H13.6759H13.6749H13.6739H13.6728H13.6718H13.6708H13.6698H13.6687H13.6677H13.6667H13.6657H13.6646H13.6636H13.6626H13.6615H13.6605H13.6594H13.6584H13.6574H13.6563H13.6553H13.6542H13.6532H13.6522H13.6511H13.6501H13.649H13.648H13.6469H13.6459H13.6448H13.6438H13.6427H13.6416H13.6406H13.6395H13.6385H13.6374H13.6364H13.6353H13.6342H13.6332H13.6321H13.631H13.63H13.6289H13.6278H13.6268H13.6257H13.6246H13.6235H13.6225H13.6214H13.6203H13.6192H13.6182H13.6171H13.616H13.6149H13.6138H13.6128H13.6117H13.6106H13.6095H13.6084H13.6073H13.6063H13.6052H13.6041H13.603H13.6019H13.6008H13.5997H13.5986H13.5975H13.5964H13.5953H13.5942H13.5931H13.592H13.5909H13.5898H13.5887H13.5876H13.5865H13.5854H13.5843H13.5832H13.5821H13.581H13.5799H13.5788H13.5777H13.5766H13.5755H13.5743H13.5732H13.5721H13.571H13.5699H13.5688H13.5677H13.5666H13.5654H13.5643H13.5632H13.5621H13.561H13.5598H13.5587H13.5576H13.5565H13.5554H13.5542H13.5531H13.552H13.5509H13.5497H13.5486H13.5475H13.5464H13.5452H13.5441H13.543H13.5418H13.5407H13.5396H13.5384H13.5373H13.5362H13.535H13.5339H13.5328H13.5316H13.5305H13.5294H13.5282H13.5271H13.526H13.5248H13.5237H13.5225H13.5214H13.5203H13.5191H13.518H13.5168H13.5157H13.5145H13.5134H13.5123H13.5111H13.51H13.5088H13.5077H13.5065H13.5054H13.5042H13.5031H13.5019H13.5008H13.4997H13.4985H13.4974H13.4962H13.4951H13.4939H13.4928H13.4916H13.4905H13.4893H13.4881H13.487H13.4858H13.4847H13.4835H13.4824H13.4812H13.4801H13.4789H13.4778H13.4766H13.4755H13.4743H13.4731H13.472H13.4708H13.4697H13.4685H13.4674H13.4662H13.465H13.4639H13.4627H13.4616H13.4604H13.4592H13.4581H13.4569H13.4558H13.4546H13.4534H13.4523H13.4511H13.45H13.4488H13.4476H13.4465H13.4453H13.4442H13.443H13.4418H13.4407H13.4395H13.4384H13.4372H13.436H13.4349H13.4337H13.4325H13.4314H13.4302H13.429H13.4279H13.4267H13.4256H13.4244H13.4232H13.4221H13.4209H13.4197H13.4186H13.4174H13.4162H13.4151H13.4139H13.4128H13.4116H13.4104H13.4093H13.4081H13.4069H13.4058H13.4046H13.4034H13.4023H13.4011H13.4H13.3988H13.3976H13.3965H13.3953H13.3941H13.393H13.3918H13.3906H13.3895H13.3883H13.3872H13.386H13.3848H13.3837H13.3825H13.3813H13.3802H13.379H13.3779H13.3767H13.3755H13.3744H13.3732H13.372H13.3709H13.3697H13.3686H13.3674H13.3662H13.3651H13.3639H13.3628H13.3616H13.3604H13.3593H13.3581H13.357H13.3558H13.3546H13.3535H13.3523H13.3512H13.35H13.3489H13.3477H13.3465H13.3454H13.3442H13.3431H13.3419H13.3408H13.3396H13.3385H13.3373H13.3361H13.335H13.3338H13.3327H13.3315H13.3304H13.3292H13.3281H13.3269H13.3258H13.3246H13.3235H13.3223H13.3212H13.32H13.3189H13.3177H13.3166H13.3154H13.3143H13.3131H13.312H13.3108H13.3097H13.3086H13.3074H13.3063H13.3051H13.304H13.3028H13.3017H13.3006H13.2994H13.2983H13.2971H13.296H13.2949H13.2937H13.2926H13.2914H13.2903H13.2892H13.288H13.2869H13.2858H13.2846H13.2835H13.2824H13.2812H13.2801H13.279H13.2778H13.2767H13.2756H13.2744H13.2733H13.2722H13.2711H13.2699H13.2688H13.2677H13.2665H13.2654H13.2643H13.2632H13.2621H13.2609H13.2598H13.2587H13.2576H13.2564H13.2553H13.2542H13.2531H13.252H13.2509H13.2497H13.2486H13.2475H13.2464H13.2453H13.2442H13.2431H13.242H13.2409H13.2397H13.2386H13.2375H13.2364H13.2353H13.2342H13.2331H13.232H13.2309H13.2298H13.2287H13.2276H13.2265H13.2254H13.2243H13.2232H13.2221H13.221H13.2199H13.2188H13.2177H13.2166H13.2155H13.2145H13.2134H13.2123H13.2112H13.2101H13.209H13.2079H13.2069H13.2058H13.2047H13.2036H13.2025H13.2014H13.2004H13.1993H13.1982H13.1971H13.1961H13.1958C13.0947 15.5855 12.9958 15.5714 12.9267 15.5616C12.9218 15.5609 12.917 15.5602 12.9124 15.5596C12.8018 15.5438 12.7501 15.5348 12.716 15.5234L12.6999 15.5181L12.6834 15.5138C11.2487 15.1418 9.9692 14.4553 8.84237 13.5002C8.76212 13.3939 8.6747 13.3101 8.60202 13.244C8.56714 13.2123 8.53741 13.1861 8.51027 13.1621C8.4604 13.1181 8.41926 13.0818 8.37093 13.0334L8.1439 12.8064L8.1382 12.8007L8.13232 12.7952C7.28024 11.9964 6.63915 11.0925 6.15502 10.0783L6.10793 9.93698L6.10136 9.91725L6.09316 9.89813C5.94405 9.5502 5.84981 9.1633 5.84981 8.78969C5.84981 8.29337 6.02834 7.78409 6.35267 7.35816C6.4223 7.285 6.47484 7.2149 6.51154 7.16594L6.51602 7.15996C6.5405 7.12732 6.55847 7.1037 6.57445 7.08431C6.63425 7.04684 6.6854 7.00836 6.71893 6.98313C6.72219 6.98068 6.72527 6.97836 6.72819 6.97617C6.75812 6.95372 6.77817 6.93877 6.79658 6.92612C6.8051 6.92026 6.81145 6.91617 6.81607 6.91335C6.82021 6.91083 6.82215 6.90983 6.82215 6.90983L6.8877 6.87705C6.90747 6.87254 6.9242 6.8683 6.93707 6.86504C6.94059 6.86415 6.94382 6.86333 6.94675 6.8626C6.9844 6.85318 7.00016 6.85005 7.00414 6.84915H7.00473H7.00573H7.00673H7.00772H7.00872H7.00972H7.01072H7.01171H7.01271H7.01371H7.0147H7.0157H7.0167H7.0177H7.01869H7.01969H7.02069H7.02168H7.02268H7.02368H7.02467H7.02567H7.02667H7.02766H7.02866H7.02966H7.03065H7.03165H7.03264H7.03364H7.03464H7.03563H7.03663H7.03762H7.03862H7.03961H7.04061H7.0416H7.0426H7.04359H7.04459H7.04558H7.04658H7.04757H7.04857H7.04956H7.05055H7.05155H7.05254H7.05353H7.05453H7.05552H7.05651H7.05751H7.0585H7.05949H7.06048H7.06148H7.06247H7.06346H7.06445H7.06544H7.06644H7.06743H7.06842H7.06941H7.0704H7.07139H7.07238H7.07337H7.07436H7.07535H7.07634H7.07733H7.07832H7.07931H7.08029H7.08128H7.08227H7.08326H7.08425H7.08523H7.08622H7.08721H7.0882H7.08918H7.09017H7.09115H7.09214H7.09313H7.09411H7.0951H7.09608H7.09707H7.09805H7.09903H7.10002H7.101H7.10199H7.10297H7.10395H7.10493H7.10592H7.1069H7.10788H7.10886H7.10984H7.11082H7.1118H7.11278H7.11376H7.11474H7.11572H7.1167H7.11768H7.11866H7.11964H7.12061H7.12159H7.12257H7.12354H7.12452H7.1255H7.12647H7.12745H7.12842H7.1294H7.13037H7.13135H7.13232H7.13329H7.13427H7.13524H7.13621H7.13718H7.13815H7.13913H7.1401H7.14107H7.14204H7.14301H7.14398H7.14495H7.14591H7.14688H7.14785H7.14882H7.14978H7.15075H7.15172H7.15268H7.15365H7.15461H7.15558H7.15654H7.15751H7.15847H7.15943H7.16039H7.16136H7.16232H7.16328H7.16424H7.1652H7.16616H7.16712H7.16808H7.16904H7.17H7.17095H7.17191H7.17287H7.17382H7.17478H7.17574H7.17669H7.17764H7.1786H7.17955H7.18051H7.18146H7.18241H7.18336H7.18431H7.18526H7.18621H7.18716H7.18811H7.18906H7.19001H7.19096H7.1919H7.19285H7.1938H7.19474H7.19569H7.19663H7.19758H7.19852H7.19946H7.20041H7.20135H7.20229H7.20323H7.20417H7.20511H7.20605H7.20699H7.20793H7.20886H7.2098H7.21074H7.21167H7.21261H7.21354H7.21448H7.21541H7.21635H7.21728H7.21821H7.21914H7.22007H7.221H7.22193H7.22286H7.22379H7.22472H7.22565H7.22657H7.2275H7.22842H7.22935H7.23027H7.2312H7.23212H7.23304H7.23396H7.23489H7.23581H7.23673H7.23765H7.23856H7.23948H7.2404H7.24132H7.24223H7.24315H7.24406H7.24498H7.24589H7.2468H7.24772H7.24863H7.24954H7.25045H7.25136H7.25227H7.25318H7.25408H7.25499H7.2559H7.2568H7.25771H7.25861H7.25951H7.26042H7.26132H7.26222H7.26312H7.26402H7.26492H7.26582H7.26672H7.26761H7.26851H7.26941H7.2703H7.27119H7.27209H7.27298H7.27387H7.27477H7.27566H7.27655H7.27743H7.27832H7.27921H7.2801H7.28098H7.28187H7.28275H7.28364H7.28452H7.2854H7.28628H7.28717H7.28805H7.28892H7.2898H7.29068H7.29156H7.29243H7.29331H7.29418H7.29506H7.29593H7.2968H7.29767H7.29854H7.29941H7.30028H7.30115H7.30202H7.30289H7.30375H7.30462H7.30548H7.30634H7.30721H7.30807H7.30893H7.30979H7.31065H7.31151H7.31236H7.31322H7.31408H7.31493H7.31578H7.31664H7.31749H7.31834H7.31919H7.32004H7.32089H7.32174H7.32259H7.32343H7.32428H7.32512H7.32597H7.32681H7.32765H7.32849H7.32933H7.33017H7.33101H7.33185H7.33268H7.33352H7.33435H7.33519H7.33602H7.33685H7.33768H7.33851H7.33934H7.34017H7.341H7.34182H7.34265H7.34347H7.3443H7.34512H7.34594H7.34676H7.34758H7.3484H7.34922H7.35003H7.35085H7.35167H7.35248H7.35329H7.3541H7.35492H7.35573H7.35653H7.35734H7.35815H7.35896H7.35976H7.36057H7.36137H7.36217H7.36297H7.36377H7.36457H7.36537H7.36617H7.36696H7.36776H7.36855H7.36935H7.37014H7.37093H7.37172H7.37251H7.3733H7.37408H7.37487H7.37565H7.37644H7.37722H7.378H7.37878H7.37956H7.38034H7.38112H7.3819H7.38267H7.38345H7.38422H7.38499H7.38576H7.38653H7.3873H7.38807H7.38884H7.3896H7.39037H7.39113H7.39189H7.39266H7.39342H7.39418H7.39493H7.39569H7.39645H7.3972H7.39796H7.39871H7.39946H7.40021H7.40096H7.40171H7.40245H7.4032H7.40394H7.40469H7.40543H7.40617H7.40691H7.40765H7.40839H7.40913H7.40986H7.4106H7.41133H7.41206H7.41279H7.41352H7.41425H7.41498H7.41571H7.41643H7.41715H7.41788H7.4186H7.41932H7.42004H7.42076H7.42147H7.42219H7.4229H7.42362H7.42433H7.42504H7.42575H7.42646H7.42716H7.42787H7.42858H7.42928H7.42998H7.43068H7.43138H7.43208H7.43278H7.43347H7.43417H7.43486H7.43556H7.43625H7.43694H7.43763H7.43831H7.439H7.43968H7.44037H7.44105H7.44173H7.44241H7.44309H7.44377H7.44444H7.44512H7.44579H7.44646H7.44713H7.4478H7.44847H7.44914H7.44981H7.53198C7.55064 6.857 7.55858 6.86178 7.56266 6.86449C7.56269 6.86452 7.56275 6.86455 7.56282 6.86459C7.56409 6.86537 7.57146 6.86988 7.58609 6.88886C7.67415 7.06965 7.8689 7.49887 8.05479 7.9304C8.1531 8.15862 8.24663 8.38216 8.31845 8.56429C8.35445 8.65556 8.38378 8.73338 8.40518 8.79458C8.426 8.8541 8.43356 8.88182 8.43495 8.88693C8.43516 8.88769 8.43523 8.88795 8.43519 8.88774L8.4413 8.91827L8.44775 8.93764C8.44771 8.94238 8.44714 8.95255 8.44368 8.96871C8.43786 8.99586 8.42656 9.02612 8.41136 9.05423C8.33476 9.14224 8.28008 9.23379 8.24806 9.2874C8.24569 9.29136 8.24345 9.29512 8.24133 9.29865C8.21869 9.33639 8.205 9.3589 8.1918 9.37821C8.1798 9.39575 8.17438 9.40125 8.1746 9.40102C8.07421 9.50142 7.96397 9.62794 7.88399 9.72246C7.84282 9.77112 7.80732 9.81409 7.78204 9.84498L7.7521 9.88179L7.75195 9.88197C7.62934 10.02 7.59767 10.1786 7.58625 10.2585C7.57396 10.3446 7.57406 10.4332 7.57412 10.4831C7.57413 10.4863 7.57413 10.4895 7.57413 10.4924V10.6104L7.62692 10.716C7.63715 10.7365 7.64053 10.7453 7.64807 10.7652C7.65231 10.7763 7.65785 10.7909 7.66665 10.8129C7.68478 10.8582 7.71365 10.9241 7.76616 10.9945L7.79719 11.0565L7.80205 11.0663L7.80732 11.0757C8.12394 11.6457 8.55845 12.1379 8.96922 12.5486C9.04595 12.6254 9.13568 12.6971 9.20052 12.7489L9.20908 12.7558C9.28564 12.817 9.33317 12.8558 9.36652 12.8892C9.87849 13.4012 10.5046 13.7717 11.1591 14.0692L11.1696 14.074L11.1803 14.0782L11.3924 14.1631C11.4434 14.2005 11.495 14.2304 11.5397 14.2528C11.5975 14.2817 11.7271 14.341 11.8768 14.341H11.9336C12.1874 14.341 12.4646 14.2217 12.6263 13.9627C13.0023 13.5331 13.2056 13.3027 13.3147 13.18Z" stroke="#4F4F4F"/>
</svg>
