<svg width="473" height="932" viewBox="0 0 473 932" fill="none" xmlns="http://www.w3.org/2000/svg">
<g opacity="0.5">
<path d="M424.639 130.548C419.048 126.95 411.565 128.542 407.945 134.169C404.347 139.76 405.94 147.243 411.567 150.864C417.158 154.461 424.641 152.869 428.262 147.242C431.883 141.615 430.23 134.145 424.639 130.548Z" fill="#F7F5F9"/>
<path d="M309.932 280.717C307.556 279.189 304.434 279.866 302.906 282.241C301.377 284.616 302.055 287.739 304.43 289.267C306.805 290.796 309.928 290.118 311.456 287.743C312.961 285.404 312.307 282.245 309.932 280.717Z" fill="#F7F5F9"/>
<path d="M430.126 217.985C427.751 216.457 424.605 217.171 423.1 219.509C421.572 221.884 422.286 225.03 424.625 226.535C427 228.063 430.146 227.35 431.651 225.011C433.155 222.672 432.501 219.513 430.126 217.985Z" fill="#F7F5F9"/>
<path d="M474.316 -4.31989C471.941 -5.84817 468.795 -5.13421 467.29 -2.79568C465.762 -0.420616 466.44 2.70207 468.815 4.23036C471.19 5.75864 474.313 5.08122 475.841 2.70616C477.369 0.331094 476.655 -2.81511 474.316 -4.31989Z" fill="#F7F5F9"/>
<path d="M483.206 346.532C477.615 342.935 470.132 344.527 466.511 350.154C462.914 355.745 464.506 363.227 470.134 366.848C475.725 370.446 483.208 368.854 486.828 363.227C490.449 357.6 488.833 350.153 483.206 346.532Z" fill="#F7F5F9"/>
<path d="M469.943 191.372L450.068 190.361L449.661 198.389L469.535 199.399L469.943 191.372Z" fill="#F7F5F9"/>
<path d="M359.5 267.04L357.159 286.82L365.166 287.787L367.507 268.007L359.5 267.04Z" fill="#F7F5F9"/>
<path d="M420.09 69.1357L412.107 68.186L409.758 87.9475L417.74 88.8971L420.09 69.1357Z" fill="#F7F5F9"/>
<path d="M417.844 346.216L397.971 345.159L397.544 353.186L417.417 354.243L417.844 346.216Z" fill="#F7F5F9"/>
<path d="M559.99 234.583L575.003 224.661L570.591 217.947L559.597 225.236L545.903 217.769L532.893 226.345L519.2 218.877L506.203 227.513L492.51 220.046L479.5 228.621L467.947 222.325L464.096 229.354L479.929 237.991L492.903 229.392L506.596 236.86L519.606 228.284L533.3 235.751L546.297 227.115L559.99 234.583Z" fill="#F7F5F9"/>
<path d="M438.621 311.749L447.201 307.97L434.655 299.122L436.608 283.639L423.878 274.673L425.51 261.618L417.55 260.578L415.275 278.489L428.028 287.418L426.074 302.901L438.621 311.749Z" fill="#F7F5F9"/>
<path d="M428.106 31.9251L433.184 24.0326L417.833 23.5586L416.886 21.6576L411.808 29.5501L412.755 31.4511L428.106 31.9251Z" fill="#F7F5F9"/>
<path d="M492.458 124.481L483.872 137.505L492.518 153.298L499.579 149.471L493.268 137.919L501.854 124.895L494.387 111.204L502.95 98.2171L495.483 84.526L504.07 71.5024L496.579 57.8478L503.873 46.8339L497.159 42.411L487.22 57.4573L494.71 71.1119L486.087 84.112L493.591 97.8266L484.968 110.827L492.458 124.481Z" fill="#F7F5F9"/>
<path d="M368.912 188.1L361.085 189.932L366.423 212.735L374.25 210.903L368.912 188.1Z" fill="#F7F5F9"/>
<path d="M287.572 545.382C293.163 548.979 300.646 547.387 304.267 541.76C307.864 536.17 306.272 528.687 300.644 525.066C295.053 521.469 287.57 523.061 283.949 528.688C280.365 534.338 281.981 541.785 287.572 545.382Z" fill="#F7F5F9"/>
<path d="M280.313 345.462C285.904 349.06 293.387 347.468 297.007 341.841C300.604 336.25 299.012 328.767 293.384 325.146C287.793 321.549 280.31 323.141 276.69 328.768C273.069 334.395 274.685 341.842 280.313 345.462Z" fill="#F7F5F9"/>
<path d="M162.474 537.999C156.883 534.402 149.4 535.994 145.78 541.621C142.182 547.211 143.775 554.694 149.402 558.315C154.993 561.912 162.476 560.321 166.097 554.693C169.718 549.066 168.065 541.597 162.474 537.999Z" fill="#F7F5F9"/>
<path d="M320.638 792.647C315.047 789.05 307.564 790.642 303.944 796.269C300.347 801.859 301.939 809.342 307.566 812.963C313.157 816.561 320.64 814.969 324.261 809.342C327.882 803.714 326.229 796.245 320.638 792.647Z" fill="#F7F5F9"/>
<path d="M231.795 683.145C229.42 681.617 226.274 682.33 224.769 684.669C223.241 687.044 223.918 690.167 226.294 691.695C228.669 693.223 231.792 692.546 233.32 690.171C234.848 687.796 234.17 684.673 231.795 683.145Z" fill="#F7F5F9"/>
<path d="M47.7442 688.205C45.3689 686.677 42.2462 687.354 40.7181 689.729C39.1899 692.104 39.8675 695.227 42.2427 696.755C44.618 698.283 47.7407 697.606 49.2689 695.231C50.7971 692.856 50.1194 689.733 47.7442 688.205Z" fill="#F7F5F9"/>
<path d="M307.322 597.563C309.697 599.091 312.843 598.377 314.348 596.038C315.876 593.663 315.162 590.517 312.823 589.012C310.448 587.484 307.325 588.161 305.797 590.537C304.269 592.912 304.983 596.058 307.322 597.563Z" fill="#F7F5F9"/>
<path d="M469.221 831.468C468.257 832.966 468.192 834.835 468.867 836.355L473.499 829.157C471.859 829.135 470.209 829.933 469.221 831.468Z" fill="#F7F5F9"/>
<path d="M167.939 625.473C165.563 623.945 162.417 624.659 160.912 626.997C159.384 629.372 160.098 632.518 162.437 634.023C164.812 635.551 167.959 634.837 169.463 632.499C170.968 630.16 170.314 627.001 167.939 625.473Z" fill="#F7F5F9"/>
<path d="M388.299 449.303C390.675 450.831 393.821 450.117 395.326 447.779C396.854 445.403 396.14 442.257 393.801 440.753C391.426 439.224 388.303 439.902 386.775 442.277C385.27 444.615 385.924 447.774 388.299 449.303Z" fill="#F7F5F9"/>
<path d="M372.266 744.129C369.89 742.601 366.744 743.315 365.24 745.653C363.711 748.028 364.426 751.175 366.764 752.679C369.14 754.208 372.286 753.494 373.79 751.155C375.295 748.817 374.641 745.657 372.266 744.129Z" fill="#F7F5F9"/>
<path d="M212.152 403.132C209.777 401.603 206.631 402.317 205.126 404.656C203.598 407.031 204.276 410.153 206.651 411.682C209.026 413.21 212.149 412.533 213.677 410.158C215.182 407.819 214.491 404.636 212.152 403.132Z" fill="#F7F5F9"/>
<path d="M221.042 753.984C215.451 750.386 207.968 751.978 204.347 757.605C200.75 763.196 202.342 770.679 207.97 774.3C213.561 777.897 221.044 776.305 224.664 770.678C228.285 765.051 226.669 757.605 221.042 753.984Z" fill="#F7F5F9"/>
<path d="M207.772 598.842L187.897 597.832L187.49 605.859L207.364 606.87L207.772 598.842Z" fill="#F7F5F9"/>
<path d="M97.335 674.492L94.9937 694.272L103.001 695.239L105.342 675.459L97.335 674.492Z" fill="#F7F5F9"/>
<path d="M157.888 476.591L149.905 475.641L147.556 495.403L155.538 496.353L157.888 476.591Z" fill="#F7F5F9"/>
<path d="M464.901 454.001L467.242 434.221L459.235 433.254L456.894 453.034L464.901 454.001Z" fill="#F7F5F9"/>
<path d="M318.288 679.98L310.283 679.24L308.452 699.055L316.457 699.795L318.288 679.98Z" fill="#F7F5F9"/>
<path d="M421.588 896.505L427.678 900.372L432.027 893.612L425.937 889.746L421.588 896.505Z" fill="#F7F5F9"/>
<path d="M224.9 346.062L217.658 349.55L226.297 367.48L233.539 363.991L224.9 346.062Z" fill="#F7F5F9"/>
<path d="M428.494 722.751L448.374 723.815L448.798 715.769L428.917 714.705L428.494 722.751Z" fill="#F7F5F9"/>
<path d="M449.194 768.974L441.573 771.532L447.908 790.397L455.528 787.839L449.194 768.974Z" fill="#F7F5F9"/>
<path d="M379.231 542.698L359.358 541.633L358.928 549.659L378.801 550.725L379.231 542.698Z" fill="#F7F5F9"/>
<path d="M374.474 614.701L354.602 613.635L354.172 621.662L374.044 622.728L374.474 614.701Z" fill="#F7F5F9"/>
<path d="M297.803 642.071L312.839 632.112L308.403 625.435L297.433 632.688L283.739 625.22L270.706 633.833L257.012 626.365L244.039 634.965L230.346 627.497L217.312 636.109L205.783 629.776L201.908 636.842L217.742 645.479L230.715 636.88L244.409 644.348L257.442 635.735L271.136 643.203L284.109 634.604L297.803 642.071Z" fill="#F7F5F9"/>
<path d="M176.433 719.237L185.014 715.458L172.467 706.61L174.42 691.127L161.691 682.161L163.346 669.069L155.362 668.066L153.11 685.94L165.84 694.906L163.887 710.389L176.433 719.237Z" fill="#F7F5F9"/>
<path d="M293.124 767.711L280.541 758.84L282.531 743.38L269.765 734.391L271.433 721.359L263.473 720.319L261.184 738.17L273.95 747.159L271.96 762.619L284.507 771.467L293.124 767.711Z" fill="#F7F5F9"/>
<path d="M391.811 669.182L407.104 666.053L411.443 651.279L405.075 644.391L400.759 659.129L385.467 662.258L381.107 677.226L368.193 679.87L369.816 687.787L387.451 684.15L391.811 669.182Z" fill="#F7F5F9"/>
<path d="M436.294 846.345L420.727 845.886L414.917 834.036L407.707 837.613L415.648 853.779L431.216 854.237L438.122 868.239L448.178 868.509L453.257 860.617L443.2 860.346L436.294 846.345Z" fill="#F7F5F9"/>
<path d="M165.941 439.377L171.019 431.484L155.644 431.047L154.721 429.109L149.643 437.002L150.566 438.939L165.941 439.377Z" fill="#F7F5F9"/>
<path d="M313.003 391.503L325.732 400.468L339.648 393.457L350.415 401.056L355.056 394.484L340.351 384.093L326.412 391.141L313.706 382.139L299.994 389.075L299.291 398.439L313.003 391.503Z" fill="#F7F5F9"/>
<path d="M230.271 531.969L221.685 544.993L230.331 560.786L237.392 556.959L231.081 545.407L239.667 532.383L232.2 518.692L240.786 505.669L233.296 492.014L241.882 478.99L234.415 465.299L241.685 454.322L234.972 449.899L225.056 464.909L232.523 478.6L223.9 491.6L231.427 505.278L222.804 518.278L230.271 531.969Z" fill="#F7F5F9"/>
<path d="M476.802 649.519L461.36 647.178L450.64 661.671L457.082 666.435L464.936 655.834L480.355 658.211L489.648 645.694L505.054 648.012L514.347 635.495L529.766 637.872L539.023 625.332L552.06 627.314L553.256 619.352L535.47 616.639L526.177 629.156L510.771 626.839L501.477 639.356L486.059 636.978L476.802 649.519Z" fill="#F7F5F9"/>
<path d="M400.052 491.429L402.231 506.833L416.878 512.175L419.058 527.579L433.705 532.922L435.921 548.35L450.532 553.669L452.383 566.692L460.344 565.562L457.86 547.74L443.189 542.434L441.033 526.994L426.362 521.688L424.206 506.247L409.536 500.941L407.38 485.5L390.417 479.34L387.697 486.941L400.052 491.429Z" fill="#F7F5F9"/>
<path d="M389.714 865.818L382.247 852.127L390.87 839.127L383.379 825.473L391.966 812.449L384.499 798.758L391.732 787.757L385.019 783.334L375.103 798.344L382.57 812.035L373.983 825.059L381.45 838.75L372.887 851.737L380.354 865.428L371.768 878.452L380.414 894.245L387.439 890.395L381.127 878.842L389.714 865.818Z" fill="#F7F5F9"/>
<path d="M439.246 606.703L433.898 583.938L426.057 585.764L431.442 608.553L439.246 606.703Z" fill="#F7F5F9"/>
<path d="M300.73 438.157L292.903 439.988L298.242 462.792L306.068 460.96L300.73 438.157Z" fill="#F7F5F9"/>
<path d="M106.753 595.577L98.9258 597.409L104.264 620.212L112.091 618.381L106.753 595.577Z" fill="#F7F5F9"/>
</g>
</svg>
