<svg width="244" height="843" viewBox="0 0 244 843" fill="none" xmlns="http://www.w3.org/2000/svg">
<path d="M104.184 337.682C97.9351 337.682 92.8301 342.746 92.8301 349.035C92.8301 355.283 97.8943 360.387 104.184 360.387C110.432 360.387 115.537 355.323 115.537 349.035C115.537 342.746 110.432 337.682 104.184 337.682Z" fill="white"/>
<path d="M203.588 197.121C203.588 199.775 205.752 201.899 208.366 201.899C211.021 201.899 213.144 199.734 213.144 197.121C213.144 194.466 211.021 192.343 208.366 192.343C205.752 192.302 203.588 194.466 203.588 197.121Z" fill="white"/>
<path d="M101.079 9.55588C103.734 9.55588 105.857 7.39152 105.857 4.77795C105.857 2.12353 103.693 0 101.079 0C98.4245 0 96.3008 2.16437 96.3008 4.77795C96.3008 7.39152 98.4245 9.55588 101.079 9.55588Z" fill="white"/>
<path d="M120.315 273.118C117.661 273.118 115.537 275.283 115.537 277.896C115.537 280.551 117.702 282.674 120.315 282.674C122.97 282.674 125.094 280.51 125.094 277.896C125.094 275.242 122.97 273.118 120.315 273.118Z" fill="white"/>
<path d="M145.351 73.5067C151.599 73.5067 156.704 68.4429 156.704 62.154C156.704 55.8651 151.64 50.8013 145.351 50.8013C139.102 50.8013 133.997 55.8651 133.997 62.154C133.997 68.4429 139.102 73.5067 145.351 73.5067Z" fill="white"/>
<path d="M45.003 249.833L38.2998 253.318L46.9302 269.912L53.6333 266.426L45.003 249.833Z" fill="white"/>
<path d="M72.7804 389.274L60.0293 402.957L65.5569 408.107L78.308 394.424L72.7804 389.274Z" fill="white"/>
<path d="M153.886 227.585L170.141 218.315L166.383 211.74L150.129 221.01L153.886 227.585Z" fill="white"/>
<path d="M193.735 253.62L189.013 259.518L203.614 271.207L208.336 265.31L193.735 253.62Z" fill="white"/>
<path d="M146.56 386.06L130.312 395.326L134.054 401.889L150.303 392.623L146.56 386.06Z" fill="white"/>
<path d="M56.2723 169.691L40.0234 178.955L43.7657 185.518L60.0145 176.254L56.2723 169.691Z" fill="white"/>
<path d="M69.7547 331.965L55.2973 331.352L49.0079 318.121L34.3463 317.508L29.0371 306.36L22.2168 309.627L29.4863 324.9L44.148 325.512L50.4373 338.744L64.8539 339.356L69.7547 331.965Z" fill="white"/>
<path d="M97.6482 203.9L108.144 193.649L104.06 179.806L95.5245 177.56L99.6085 191.444L89.1126 201.694L93.2783 215.742L84.416 224.4L89.7252 229.79L101.814 217.947L97.6482 203.9Z" fill="white"/>
<path d="M220.21 135.783L209.592 129.413L205.671 135.865L220.21 144.604L232.748 137.049L243.571 143.583V134.762L232.748 128.229L220.21 135.783Z" fill="white"/>
<path d="M185.456 28.382L185.823 43.0425L198.769 49.4947L206.202 44.7576L193.256 38.3054L192.888 23.6449L179.779 17.1109L179.493 4.7373L171.938 4.94149L172.346 21.848L185.456 28.382Z" fill="white"/>
<path d="M154.825 145.176L141.43 151.138L140.327 168.045L147.842 168.535L148.659 156.202L162.054 150.199L163.034 135.579L176.389 129.576L177.369 114.997L190.765 108.994L191.704 94.3744L203.017 89.3106L199.913 82.4092L184.475 89.3515L183.495 103.971L170.14 109.933L169.16 124.553L155.765 130.556L154.825 145.176Z" fill="white"/>
<path d="M13.7631 59.2139L23.3198 70.3216L37.6138 67.0546L47.1704 78.1623L61.4645 74.8953L71.0619 86.003L85.3151 82.7361L93.4015 92.0878L99.1191 87.1873L88.0923 74.3644L73.7982 77.5906L64.2416 66.5237L49.9475 69.7499L40.3909 58.683L26.0969 61.9091L16.5403 50.8423L0 54.5993L1.71529 61.95L13.7631 59.2139Z" fill="white"/>
<path d="M195.992 360.387L183.128 353.363L183.332 338.744L170.467 331.72L170.631 317.059L157.766 310.076L157.889 297.702L150.333 297.58L150.129 314.527L162.994 321.51L162.83 336.171L175.695 343.195L175.531 357.855L188.396 364.839L188.233 379.499L203.099 387.585L206.693 380.969L195.829 375.048L195.992 360.387Z" fill="white"/>
<path d="M103.367 130.434L87.5613 115.12L82.293 120.551L98.1389 135.865L103.367 130.434Z" fill="white"/>
<path d="M104.184 793.097C97.9351 793.097 92.8301 798.161 92.8301 804.45C92.8301 810.698 97.8943 815.803 104.184 815.803C110.432 815.803 115.537 810.739 115.537 804.45C115.537 798.161 110.432 793.097 104.184 793.097Z" fill="white"/>
<path d="M241.365 748.217C241.365 749.892 242.264 751.403 243.571 752.26V744.215C242.264 745.032 241.365 746.502 241.365 748.217Z" fill="white"/>
<path d="M203.588 652.495C203.588 655.149 205.752 657.273 208.366 657.273C211.021 657.273 213.144 655.109 213.144 652.495C213.144 649.841 211.021 647.717 208.366 647.717C205.752 647.717 203.588 649.841 203.588 652.495Z" fill="white"/>
<path d="M101.079 464.93C103.734 464.93 105.857 462.766 105.857 460.152C105.857 457.498 103.693 455.375 101.079 455.375C98.4245 455.375 96.3008 457.539 96.3008 460.152C96.3008 462.807 98.4245 464.93 101.079 464.93Z" fill="white"/>
<path d="M120.315 728.493C117.661 728.493 115.537 730.657 115.537 733.271C115.537 735.925 117.702 738.049 120.315 738.049C122.97 738.049 125.094 735.884 125.094 733.271C125.094 730.657 122.97 728.493 120.315 728.493Z" fill="white"/>
<path d="M145.351 528.922C151.599 528.922 156.704 523.858 156.704 517.569C156.704 511.321 151.64 506.217 145.351 506.217C139.102 506.217 133.997 511.28 133.997 517.569C133.997 523.817 139.102 528.922 145.351 528.922Z" fill="white"/>
<path d="M45.0274 705.241L38.3242 708.727L46.9546 725.32L53.6577 721.834L45.0274 705.241Z" fill="white"/>
<path d="M236.791 823.848L243.57 823.807V816.252L236.791 816.293V823.848Z" fill="white"/>
<path d="M217.991 445.292L214.041 451.732L229.985 461.51L233.935 455.07L217.991 445.292Z" fill="white"/>
<path d="M153.886 683.001L170.141 673.731L166.383 667.156L150.129 676.426L153.886 683.001Z" fill="white"/>
<path d="M193.753 709.008L189.031 714.905L203.632 726.595L208.354 720.697L193.753 709.008Z" fill="white"/>
<path d="M56.2381 625.071L39.9893 634.335L43.7315 640.898L59.9803 631.634L56.2381 625.071Z" fill="white"/>
<path d="M69.7547 787.38L55.2973 786.767L49.0079 773.536L34.3463 772.924L29.0371 761.775L22.2168 765.001L29.4863 780.274L44.148 780.887L50.4373 794.118L64.8539 794.731L69.7547 787.38Z" fill="white"/>
<path d="M97.6482 659.315L108.144 649.065L104.06 635.18L95.5245 632.975L99.6085 646.819L89.1126 657.069L93.2783 671.117L84.416 679.774L89.7252 685.206L101.814 673.363L97.6482 659.315Z" fill="white"/>
<path d="M222.905 776.721L210.367 784.276L199.749 777.865L195.869 784.358L210.367 793.097L222.905 785.542L235.484 793.097L243.57 788.197V779.376L235.484 784.276L222.905 776.721Z" fill="white"/>
<path d="M220.21 591.198L209.592 584.787L205.671 591.28L220.21 600.019L232.748 592.464L243.571 598.958V590.137L232.748 583.644L220.21 591.198Z" fill="white"/>
<path d="M185.456 483.797L185.823 498.458L198.769 504.869L206.202 500.132L193.256 493.72L192.888 479.06L179.779 472.526L179.493 460.152L171.938 460.357L172.346 477.263L185.456 483.797Z" fill="white"/>
<path d="M154.825 600.55L141.43 606.553L140.327 623.46L147.842 623.95L148.659 611.576L162.054 605.614L163.034 590.994L176.389 584.991L177.369 570.372L190.765 564.409L191.704 549.79L203.017 544.726L199.913 537.824L184.475 544.726L183.495 559.346L170.14 565.349L169.16 579.968L155.765 585.931L154.825 600.55Z" fill="white"/>
<path d="M13.7631 514.629L23.3198 525.696L37.6138 522.47L47.1704 533.537L61.4645 530.31L71.0619 541.377L85.3151 538.151L93.4015 547.503L99.1191 542.562L88.0923 529.739L73.7982 533.006L64.2416 521.898L49.9475 525.165L40.3909 514.057L26.0969 517.324L16.5403 506.217L0 509.974L1.71529 517.365L13.7631 514.629Z" fill="white"/>
<path d="M195.992 815.803L183.128 808.778L183.332 794.118L170.467 787.135L170.631 772.474L157.766 765.45L157.889 753.077L150.333 752.995L150.129 769.902L162.994 776.926L162.83 791.586L175.695 798.61L175.531 813.23L188.396 820.254L188.233 834.914L203.099 843L206.693 836.384L195.829 830.463L195.992 815.803Z" fill="white"/>
<path d="M103.367 585.808L87.5613 570.535L82.293 575.967L98.1389 591.24L103.367 585.808Z" fill="white"/>
</svg>
