<svg width="172" height="338" viewBox="0 0 172 338" fill="none" xmlns="http://www.w3.org/2000/svg">
<path fill-rule="evenodd" clip-rule="evenodd" d="M3.76392 7.49783C5.57539 7.49783 7.05751 6.02071 7.05751 4.20424C7.05751 2.38278 5.57539 0.910645 3.76392 0.910645C1.94745 0.910645 0.465332 2.38278 0.465332 4.20424C0.465332 6.02071 1.94745 7.49783 3.76392 7.49783Z" fill="#F7F5F9"/>
<path fill-rule="evenodd" clip-rule="evenodd" d="M36.7466 7.49783C38.5681 7.49783 40.0452 6.02071 40.0452 4.20424C40.0452 2.38278 38.5681 0.910645 36.7466 0.910645C34.9351 0.910645 33.458 2.38278 33.458 4.20424C33.458 6.02071 34.9351 7.49783 36.7466 7.49783Z" fill="#F7F5F9"/>
<path fill-rule="evenodd" clip-rule="evenodd" d="M69.7389 7.49783C71.5554 7.49783 73.0325 6.02071 73.0325 4.20424C73.0325 2.38278 71.5554 0.910645 69.7389 0.910645C67.9224 0.910645 66.4453 2.38278 66.4453 4.20424C66.4453 6.02071 67.9224 7.49783 69.7389 7.49783Z" fill="#F7F5F9"/>
<path fill-rule="evenodd" clip-rule="evenodd" d="M102.727 7.49783C104.543 7.49783 106.02 6.02071 106.02 4.20424C106.02 2.38278 104.543 0.910645 102.727 0.910645C100.915 0.910645 99.4331 2.38278 99.4331 4.20424C99.4331 6.02071 100.915 7.49783 102.727 7.49783Z" fill="#F7F5F9"/>
<path fill-rule="evenodd" clip-rule="evenodd" d="M135.719 7.49783C137.531 7.49783 139.008 6.02071 139.008 4.20424C139.008 2.38278 137.531 0.910645 135.719 0.910645C133.903 0.910645 132.421 2.38278 132.421 4.20424C132.421 6.02071 133.903 7.49783 135.719 7.49783Z" fill="#F7F5F9"/>
<path fill-rule="evenodd" clip-rule="evenodd" d="M168.706 7.49783C170.523 7.49783 172 6.02071 172 4.20424C172 2.38278 170.523 0.910645 168.706 0.910645C166.89 0.910645 165.413 2.38278 165.413 4.20424C165.413 6.02071 166.89 7.49783 168.706 7.49783Z" fill="#F7F5F9"/>
<path fill-rule="evenodd" clip-rule="evenodd" d="M3.76392 40.4807C5.57539 40.4807 7.05751 39.0086 7.05751 37.1871C7.05751 35.3757 5.57539 33.8936 3.76392 33.8936C1.94745 33.8936 0.465332 35.3757 0.465332 37.1871C0.465332 39.0086 1.94745 40.4807 3.76392 40.4807Z" fill="#F7F5F9"/>
<path fill-rule="evenodd" clip-rule="evenodd" d="M36.7466 40.4807C38.5681 40.4807 40.0452 39.0086 40.0452 37.1871C40.0452 35.3757 38.5681 33.8936 36.7466 33.8936C34.9351 33.8936 33.458 35.3757 33.458 37.1871C33.458 39.0086 34.9351 40.4807 36.7466 40.4807Z" fill="#F7F5F9"/>
<path fill-rule="evenodd" clip-rule="evenodd" d="M69.7389 40.4807C71.5554 40.4807 73.0325 39.0086 73.0325 37.1871C73.0325 35.3757 71.5554 33.8936 69.7389 33.8936C67.9224 33.8936 66.4453 35.3757 66.4453 37.1871C66.4453 39.0086 67.9224 40.4807 69.7389 40.4807Z" fill="#F7F5F9"/>
<path fill-rule="evenodd" clip-rule="evenodd" d="M102.727 40.4807C104.543 40.4807 106.02 39.0086 106.02 37.1871C106.02 35.3757 104.543 33.8936 102.727 33.8936C100.915 33.8936 99.4331 35.3757 99.4331 37.1871C99.4331 39.0086 100.915 40.4807 102.727 40.4807Z" fill="#F7F5F9"/>
<path fill-rule="evenodd" clip-rule="evenodd" d="M135.719 40.4807C137.531 40.4807 139.008 39.0086 139.008 37.1871C139.008 35.3757 137.531 33.8936 135.719 33.8936C133.903 33.8936 132.421 35.3757 132.421 37.1871C132.421 39.0086 133.903 40.4807 135.719 40.4807Z" fill="#F7F5F9"/>
<path fill-rule="evenodd" clip-rule="evenodd" d="M168.706 40.4807C170.523 40.4807 172 39.0086 172 37.1871C172 35.3757 170.523 33.8936 168.706 33.8936C166.89 33.8936 165.413 35.3757 165.413 37.1871C165.413 39.0086 166.89 40.4807 168.706 40.4807Z" fill="#F7F5F9"/>
<path fill-rule="evenodd" clip-rule="evenodd" d="M3.76392 73.4729C5.57539 73.4729 7.05751 72.0008 7.05751 70.1793C7.05751 68.3579 5.57539 66.8857 3.76392 66.8857C1.94745 66.8857 0.465332 68.3579 0.465332 70.1793C0.465332 72.0008 1.94745 73.4729 3.76392 73.4729Z" fill="#F7F5F9"/>
<path fill-rule="evenodd" clip-rule="evenodd" d="M36.7466 73.4729C38.5681 73.4729 40.0452 72.0008 40.0452 70.1793C40.0452 68.3579 38.5681 66.8857 36.7466 66.8857C34.9351 66.8857 33.458 68.3579 33.458 70.1793C33.458 72.0008 34.9351 73.4729 36.7466 73.4729Z" fill="#F7F5F9"/>
<path fill-rule="evenodd" clip-rule="evenodd" d="M69.7389 73.4729C71.5554 73.4729 73.0325 72.0008 73.0325 70.1793C73.0325 68.3579 71.5554 66.8857 69.7389 66.8857C67.9224 66.8857 66.4453 68.3579 66.4453 70.1793C66.4453 72.0008 67.9224 73.4729 69.7389 73.4729Z" fill="#F7F5F9"/>
<path fill-rule="evenodd" clip-rule="evenodd" d="M102.727 73.4729C104.543 73.4729 106.02 72.0008 106.02 70.1793C106.02 68.3579 104.543 66.8857 102.727 66.8857C100.915 66.8857 99.4331 68.3579 99.4331 70.1793C99.4331 72.0008 100.915 73.4729 102.727 73.4729Z" fill="#F7F5F9"/>
<path fill-rule="evenodd" clip-rule="evenodd" d="M135.719 73.4729C137.531 73.4729 139.008 72.0008 139.008 70.1793C139.008 68.3579 137.531 66.8857 135.719 66.8857C133.903 66.8857 132.421 68.3579 132.421 70.1793C132.421 72.0008 133.903 73.4729 135.719 73.4729Z" fill="#F7F5F9"/>
<path fill-rule="evenodd" clip-rule="evenodd" d="M168.706 73.4729C170.523 73.4729 172 72.0008 172 70.1793C172 68.3579 170.523 66.8857 168.706 66.8857C166.89 66.8857 165.413 68.3579 165.413 70.1793C165.413 72.0008 166.89 73.4729 168.706 73.4729Z" fill="#F7F5F9"/>
<path fill-rule="evenodd" clip-rule="evenodd" d="M3.76392 106.461C5.57539 106.461 7.05751 104.983 7.05751 103.172C7.05751 101.351 5.57539 99.8784 3.76392 99.8784C1.94745 99.8784 0.465332 101.351 0.465332 103.172C0.465332 104.983 1.94745 106.461 3.76392 106.461Z" fill="#F7F5F9"/>
<path fill-rule="evenodd" clip-rule="evenodd" d="M36.7466 106.461C38.5681 106.461 40.0452 104.983 40.0452 103.172C40.0452 101.351 38.5681 99.8784 36.7466 99.8784C34.9351 99.8784 33.458 101.351 33.458 103.172C33.458 104.983 34.9351 106.461 36.7466 106.461Z" fill="#F7F5F9"/>
<path fill-rule="evenodd" clip-rule="evenodd" d="M69.7389 106.461C71.5554 106.461 73.0325 104.983 73.0325 103.172C73.0325 101.351 71.5554 99.8784 69.7389 99.8784C67.9224 99.8784 66.4453 101.351 66.4453 103.172C66.4453 104.983 67.9224 106.461 69.7389 106.461Z" fill="#F7F5F9"/>
<path fill-rule="evenodd" clip-rule="evenodd" d="M102.727 106.461C104.543 106.461 106.02 104.983 106.02 103.172C106.02 101.351 104.543 99.8784 102.727 99.8784C100.915 99.8784 99.4331 101.351 99.4331 103.172C99.4331 104.983 100.915 106.461 102.727 106.461Z" fill="#F7F5F9"/>
<path fill-rule="evenodd" clip-rule="evenodd" d="M135.719 106.461C137.531 106.461 139.008 104.983 139.008 103.172C139.008 101.351 137.531 99.8784 135.719 99.8784C133.903 99.8784 132.421 101.351 132.421 103.172C132.421 104.983 133.903 106.461 135.719 106.461Z" fill="#F7F5F9"/>
<path fill-rule="evenodd" clip-rule="evenodd" d="M168.706 106.461C170.523 106.461 172 104.983 172 103.172C172 101.351 170.523 99.8784 168.706 99.8784C166.89 99.8784 165.413 101.351 165.413 103.172C165.413 104.983 166.89 106.461 168.706 106.461Z" fill="#F7F5F9"/>
<path fill-rule="evenodd" clip-rule="evenodd" d="M3.76392 139.449C5.57539 139.449 7.05751 137.976 7.05751 136.155C7.05751 134.338 5.57539 132.861 3.76392 132.861C1.94745 132.861 0.465332 134.338 0.465332 136.155C0.465332 137.976 1.94745 139.449 3.76392 139.449Z" fill="#F7F5F9"/>
<path fill-rule="evenodd" clip-rule="evenodd" d="M36.7466 139.449C38.5681 139.449 40.0452 137.976 40.0452 136.155C40.0452 134.338 38.5681 132.861 36.7466 132.861C34.9351 132.861 33.458 134.338 33.458 136.155C33.458 137.976 34.9351 139.449 36.7466 139.449Z" fill="#F7F5F9"/>
<path fill-rule="evenodd" clip-rule="evenodd" d="M69.7389 139.449C71.5554 139.449 73.0325 137.976 73.0325 136.155C73.0325 134.338 71.5554 132.861 69.7389 132.861C67.9224 132.861 66.4453 134.338 66.4453 136.155C66.4453 137.976 67.9224 139.449 69.7389 139.449Z" fill="#F7F5F9"/>
<path fill-rule="evenodd" clip-rule="evenodd" d="M102.727 139.449C104.543 139.449 106.02 137.976 106.02 136.155C106.02 134.338 104.543 132.861 102.727 132.861C100.915 132.861 99.4331 134.338 99.4331 136.155C99.4331 137.976 100.915 139.449 102.727 139.449Z" fill="#F7F5F9"/>
<path fill-rule="evenodd" clip-rule="evenodd" d="M135.719 139.449C137.531 139.449 139.008 137.976 139.008 136.155C139.008 134.338 137.531 132.861 135.719 132.861C133.903 132.861 132.421 134.338 132.421 136.155C132.421 137.976 133.903 139.449 135.719 139.449Z" fill="#F7F5F9"/>
<path fill-rule="evenodd" clip-rule="evenodd" d="M168.706 139.449C170.523 139.449 172 137.976 172 136.155C172 134.338 170.523 132.861 168.706 132.861C166.89 132.861 165.413 134.338 165.413 136.155C165.413 137.976 166.89 139.449 168.706 139.449Z" fill="#F7F5F9"/>
<path fill-rule="evenodd" clip-rule="evenodd" d="M3.76392 172.441C5.57539 172.441 7.05751 170.969 7.05751 169.147C7.05751 167.326 5.57539 165.854 3.76392 165.854C1.94745 165.854 0.465332 167.326 0.465332 169.147C0.465332 170.969 1.94745 172.441 3.76392 172.441Z" fill="#F7F5F9"/>
<path fill-rule="evenodd" clip-rule="evenodd" d="M36.7466 172.441C38.5681 172.441 40.0452 170.969 40.0452 169.147C40.0452 167.326 38.5681 165.854 36.7466 165.854C34.9351 165.854 33.458 167.326 33.458 169.147C33.458 170.969 34.9351 172.441 36.7466 172.441Z" fill="#F7F5F9"/>
<path fill-rule="evenodd" clip-rule="evenodd" d="M69.7389 172.441C71.5554 172.441 73.0325 170.969 73.0325 169.147C73.0325 167.326 71.5554 165.854 69.7389 165.854C67.9224 165.854 66.4453 167.326 66.4453 169.147C66.4453 170.969 67.9224 172.441 69.7389 172.441Z" fill="#F7F5F9"/>
<path fill-rule="evenodd" clip-rule="evenodd" d="M102.727 172.441C104.543 172.441 106.02 170.969 106.02 169.147C106.02 167.326 104.543 165.854 102.727 165.854C100.915 165.854 99.4331 167.326 99.4331 169.147C99.4331 170.969 100.915 172.441 102.727 172.441Z" fill="#F7F5F9"/>
<path fill-rule="evenodd" clip-rule="evenodd" d="M135.719 172.441C137.531 172.441 139.008 170.969 139.008 169.147C139.008 167.326 137.531 165.854 135.719 165.854C133.903 165.854 132.421 167.326 132.421 169.147C132.421 170.969 133.903 172.441 135.719 172.441Z" fill="#F7F5F9"/>
<path fill-rule="evenodd" clip-rule="evenodd" d="M168.706 172.441C170.523 172.441 172 170.969 172 169.147C172 167.326 170.523 165.854 168.706 165.854C166.89 165.854 165.413 167.326 165.413 169.147C165.413 170.969 166.89 172.441 168.706 172.441Z" fill="#F7F5F9"/>
<path fill-rule="evenodd" clip-rule="evenodd" d="M3.76392 205.428C5.57539 205.428 7.05751 203.951 7.05751 202.135C7.05751 200.318 5.57539 198.841 3.76392 198.841C1.94745 198.841 0.465332 200.318 0.465332 202.135C0.465332 203.951 1.94745 205.428 3.76392 205.428Z" fill="#F7F5F9"/>
<path fill-rule="evenodd" clip-rule="evenodd" d="M36.7466 205.428C38.5681 205.428 40.0452 203.951 40.0452 202.135C40.0452 200.318 38.5681 198.841 36.7466 198.841C34.9351 198.841 33.458 200.318 33.458 202.135C33.458 203.951 34.9351 205.428 36.7466 205.428Z" fill="#F7F5F9"/>
<path fill-rule="evenodd" clip-rule="evenodd" d="M69.7389 205.428C71.5554 205.428 73.0325 203.951 73.0325 202.135C73.0325 200.318 71.5554 198.841 69.7389 198.841C67.9224 198.841 66.4453 200.318 66.4453 202.135C66.4453 203.951 67.9224 205.428 69.7389 205.428Z" fill="#F7F5F9"/>
<path fill-rule="evenodd" clip-rule="evenodd" d="M102.727 205.428C104.543 205.428 106.02 203.951 106.02 202.135C106.02 200.318 104.543 198.841 102.727 198.841C100.915 198.841 99.4331 200.318 99.4331 202.135C99.4331 203.951 100.915 205.428 102.727 205.428Z" fill="#F7F5F9"/>
<path fill-rule="evenodd" clip-rule="evenodd" d="M135.719 205.428C137.531 205.428 139.008 203.951 139.008 202.135C139.008 200.318 137.531 198.841 135.719 198.841C133.903 198.841 132.421 200.318 132.421 202.135C132.421 203.951 133.903 205.428 135.719 205.428Z" fill="#F7F5F9"/>
<path fill-rule="evenodd" clip-rule="evenodd" d="M168.706 205.428C170.523 205.428 172 203.951 172 202.135C172 200.318 170.523 198.841 168.706 198.841C166.89 198.841 165.413 200.318 165.413 202.135C165.413 203.951 166.89 205.428 168.706 205.428Z" fill="#F7F5F9"/>
<path fill-rule="evenodd" clip-rule="evenodd" d="M3.76392 238.416C5.57539 238.416 7.05751 236.944 7.05751 235.122C7.05751 233.301 5.57539 231.829 3.76392 231.829C1.94745 231.829 0.465332 233.301 0.465332 235.122C0.465332 236.944 1.94745 238.416 3.76392 238.416Z" fill="#F7F5F9"/>
<path fill-rule="evenodd" clip-rule="evenodd" d="M36.7466 238.416C38.5681 238.416 40.0452 236.944 40.0452 235.122C40.0452 233.301 38.5681 231.829 36.7466 231.829C34.9351 231.829 33.458 233.301 33.458 235.122C33.458 236.944 34.9351 238.416 36.7466 238.416Z" fill="#F7F5F9"/>
<path fill-rule="evenodd" clip-rule="evenodd" d="M69.7389 238.416C71.5554 238.416 73.0325 236.944 73.0325 235.122C73.0325 233.301 71.5554 231.829 69.7389 231.829C67.9224 231.829 66.4453 233.301 66.4453 235.122C66.4453 236.944 67.9224 238.416 69.7389 238.416Z" fill="#F7F5F9"/>
<path fill-rule="evenodd" clip-rule="evenodd" d="M102.727 238.416C104.543 238.416 106.02 236.944 106.02 235.122C106.02 233.301 104.543 231.829 102.727 231.829C100.915 231.829 99.4331 233.301 99.4331 235.122C99.4331 236.944 100.915 238.416 102.727 238.416Z" fill="#F7F5F9"/>
<path fill-rule="evenodd" clip-rule="evenodd" d="M135.719 238.416C137.531 238.416 139.008 236.944 139.008 235.122C139.008 233.301 137.531 231.829 135.719 231.829C133.903 231.829 132.421 233.301 132.421 235.122C132.421 236.944 133.903 238.416 135.719 238.416Z" fill="#F7F5F9"/>
<path fill-rule="evenodd" clip-rule="evenodd" d="M168.706 238.416C170.523 238.416 172 236.944 172 235.122C172 233.301 170.523 231.829 168.706 231.829C166.89 231.829 165.413 233.301 165.413 235.122C165.413 236.944 166.89 238.416 168.706 238.416Z" fill="#F7F5F9"/>
<path fill-rule="evenodd" clip-rule="evenodd" d="M3.76392 271.409C5.57539 271.409 7.05751 269.932 7.05751 268.115C7.05751 266.294 5.57539 264.822 3.76392 264.822C1.94745 264.822 0.465332 266.294 0.465332 268.115C0.465332 269.932 1.94745 271.409 3.76392 271.409Z" fill="#F7F5F9"/>
<path fill-rule="evenodd" clip-rule="evenodd" d="M36.7466 271.409C38.5681 271.409 40.0452 269.932 40.0452 268.115C40.0452 266.294 38.5681 264.822 36.7466 264.822C34.9351 264.822 33.458 266.294 33.458 268.115C33.458 269.932 34.9351 271.409 36.7466 271.409Z" fill="#F7F5F9"/>
<path fill-rule="evenodd" clip-rule="evenodd" d="M69.7389 271.409C71.5554 271.409 73.0325 269.932 73.0325 268.115C73.0325 266.294 71.5554 264.822 69.7389 264.822C67.9224 264.822 66.4453 266.294 66.4453 268.115C66.4453 269.932 67.9224 271.409 69.7389 271.409Z" fill="#F7F5F9"/>
<path fill-rule="evenodd" clip-rule="evenodd" d="M102.727 271.409C104.543 271.409 106.02 269.932 106.02 268.115C106.02 266.294 104.543 264.822 102.727 264.822C100.915 264.822 99.4331 266.294 99.4331 268.115C99.4331 269.932 100.915 271.409 102.727 271.409Z" fill="#F7F5F9"/>
<path fill-rule="evenodd" clip-rule="evenodd" d="M135.719 271.409C137.531 271.409 139.008 269.932 139.008 268.115C139.008 266.294 137.531 264.822 135.719 264.822C133.903 264.822 132.421 266.294 132.421 268.115C132.421 269.932 133.903 271.409 135.719 271.409Z" fill="#F7F5F9"/>
<path fill-rule="evenodd" clip-rule="evenodd" d="M168.706 271.409C170.523 271.409 172 269.932 172 268.115C172 266.294 170.523 264.822 168.706 264.822C166.89 264.822 165.413 266.294 165.413 268.115C165.413 269.932 166.89 271.409 168.706 271.409Z" fill="#F7F5F9"/>
<path fill-rule="evenodd" clip-rule="evenodd" d="M3.76392 304.391C5.57539 304.391 7.05751 302.919 7.05751 301.097C7.05751 299.286 5.57539 297.804 3.76392 297.804C1.94745 297.804 0.465332 299.286 0.465332 301.097C0.465332 302.919 1.94745 304.391 3.76392 304.391Z" fill="#F7F5F9"/>
<path fill-rule="evenodd" clip-rule="evenodd" d="M36.7466 304.391C38.5681 304.391 40.0452 302.919 40.0452 301.097C40.0452 299.286 38.5681 297.804 36.7466 297.804C34.9351 297.804 33.458 299.286 33.458 301.097C33.458 302.919 34.9351 304.391 36.7466 304.391Z" fill="#F7F5F9"/>
<path fill-rule="evenodd" clip-rule="evenodd" d="M69.7389 304.391C71.5554 304.391 73.0325 302.919 73.0325 301.097C73.0325 299.286 71.5554 297.804 69.7389 297.804C67.9224 297.804 66.4453 299.286 66.4453 301.097C66.4453 302.919 67.9224 304.391 69.7389 304.391Z" fill="#F7F5F9"/>
<path fill-rule="evenodd" clip-rule="evenodd" d="M102.727 304.391C104.543 304.391 106.02 302.919 106.02 301.097C106.02 299.286 104.543 297.804 102.727 297.804C100.915 297.804 99.4331 299.286 99.4331 301.097C99.4331 302.919 100.915 304.391 102.727 304.391Z" fill="#F7F5F9"/>
<path fill-rule="evenodd" clip-rule="evenodd" d="M135.719 304.391C137.531 304.391 139.008 302.919 139.008 301.097C139.008 299.286 137.531 297.804 135.719 297.804C133.903 297.804 132.421 299.286 132.421 301.097C132.421 302.919 133.903 304.391 135.719 304.391Z" fill="#F7F5F9"/>
<path fill-rule="evenodd" clip-rule="evenodd" d="M168.706 304.391C170.523 304.391 172 302.919 172 301.097C172 299.286 170.523 297.804 168.706 297.804C166.89 297.804 165.413 299.286 165.413 301.097C165.413 302.919 166.89 304.391 168.706 304.391Z" fill="#F7F5F9"/>
<path fill-rule="evenodd" clip-rule="evenodd" d="M3.76392 337.384C5.57539 337.384 7.05751 335.912 7.05751 334.09C7.05751 332.269 5.57539 330.797 3.76392 330.797C1.94745 330.797 0.465332 332.269 0.465332 334.09C0.465332 335.912 1.94745 337.384 3.76392 337.384Z" fill="#F7F5F9"/>
<path fill-rule="evenodd" clip-rule="evenodd" d="M36.7466 337.384C38.5681 337.384 40.0452 335.912 40.0452 334.09C40.0452 332.269 38.5681 330.797 36.7466 330.797C34.9351 330.797 33.458 332.269 33.458 334.09C33.458 335.912 34.9351 337.384 36.7466 337.384Z" fill="#F7F5F9"/>
<path fill-rule="evenodd" clip-rule="evenodd" d="M69.7389 337.384C71.5554 337.384 73.0325 335.912 73.0325 334.09C73.0325 332.269 71.5554 330.797 69.7389 330.797C67.9224 330.797 66.4453 332.269 66.4453 334.09C66.4453 335.912 67.9224 337.384 69.7389 337.384Z" fill="#F7F5F9"/>
<path fill-rule="evenodd" clip-rule="evenodd" d="M102.727 337.384C104.543 337.384 106.02 335.912 106.02 334.09C106.02 332.269 104.543 330.797 102.727 330.797C100.915 330.797 99.4331 332.269 99.4331 334.09C99.4331 335.912 100.915 337.384 102.727 337.384Z" fill="#F7F5F9"/>
<path fill-rule="evenodd" clip-rule="evenodd" d="M135.719 337.384C137.531 337.384 139.008 335.912 139.008 334.09C139.008 332.269 137.531 330.797 135.719 330.797C133.903 330.797 132.421 332.269 132.421 334.09C132.421 335.912 133.903 337.384 135.719 337.384Z" fill="#F7F5F9"/>
<path fill-rule="evenodd" clip-rule="evenodd" d="M168.706 337.384C170.523 337.384 172 335.912 172 334.09C172 332.269 170.523 330.797 168.706 330.797C166.89 330.797 165.413 332.269 165.413 334.09C165.413 335.912 166.89 337.384 168.706 337.384Z" fill="#F7F5F9"/>
</svg>
