<svg width="681" height="1047" viewBox="0 0 681 1047" fill="none" xmlns="http://www.w3.org/2000/svg">
<g opacity="0.5">
<path d="M549.737 252.93C555.328 256.528 562.811 254.936 566.431 249.309C570.029 243.718 568.436 236.235 562.809 232.615C557.218 229.017 549.735 230.609 546.114 236.236C542.553 241.85 544.146 249.333 549.737 252.93Z" fill="#F7F5F9"/>
<path d="M542.501 52.9744C548.091 56.5718 555.575 54.9799 559.195 49.3528C562.792 43.7623 561.2 36.2793 555.572 32.6585C549.981 29.0611 542.498 30.653 538.878 36.28C535.257 41.9071 536.873 49.3535 542.501 52.9744Z" fill="#F7F5F9"/>
<path d="M424.639 245.548C419.048 241.95 411.565 243.542 407.945 249.169C404.347 254.76 405.94 262.243 411.567 265.864C417.158 269.461 424.641 267.869 428.262 262.242C431.883 256.615 430.23 249.145 424.639 245.548Z" fill="#F7F5F9"/>
<path d="M582.827 500.159C577.236 496.562 569.753 498.154 566.132 503.781C562.535 509.371 564.127 516.854 569.755 520.475C575.346 524.072 582.829 522.481 586.45 516.853C590.07 511.226 588.418 503.757 582.827 500.159Z" fill="#F7F5F9"/>
<path d="M493.983 390.657C491.608 389.129 488.461 389.843 486.957 392.181C485.429 394.556 486.106 397.679 488.482 399.207C490.857 400.735 493.98 400.058 495.508 397.683C497.012 395.344 496.358 392.185 493.983 390.657Z" fill="#F7F5F9"/>
<path d="M309.932 395.717C307.557 394.189 304.434 394.866 302.906 397.241C301.378 399.616 302.056 402.739 304.431 404.267C306.806 405.796 309.929 405.118 311.457 402.743C312.962 400.404 312.307 397.245 309.932 395.717Z" fill="#F7F5F9"/>
<path d="M569.486 305.111C571.862 306.639 575.008 305.925 576.513 303.587C578.041 301.212 577.327 298.066 574.988 296.561C572.613 295.032 569.49 295.71 567.962 298.085C566.457 300.423 567.148 303.606 569.486 305.111Z" fill="#F7F5F9"/>
<path d="M430.127 332.985C427.751 331.457 424.605 332.17 423.1 334.509C421.572 336.884 422.286 340.03 424.625 341.535C427 343.063 430.147 342.349 431.651 340.011C433.156 337.672 432.502 334.513 430.127 332.985Z" fill="#F7F5F9"/>
<path d="M650.488 156.815C652.864 158.343 656.01 157.629 657.515 155.29C659.043 152.915 658.328 149.769 655.99 148.264C653.615 146.736 650.492 147.413 648.964 149.789C647.435 152.164 648.113 155.286 650.488 156.815Z" fill="#F7F5F9"/>
<path d="M634.431 451.678C632.055 450.149 628.909 450.863 627.405 453.202C625.876 455.577 626.591 458.723 628.929 460.228C631.305 461.756 634.451 461.042 635.955 458.704C637.484 456.329 636.806 453.206 634.431 451.678Z" fill="#F7F5F9"/>
<path d="M474.317 110.68C471.942 109.152 468.795 109.866 467.291 112.204C465.763 114.579 466.44 117.702 468.815 119.23C471.191 120.759 474.313 120.081 475.842 117.706C477.37 115.331 476.656 112.185 474.317 110.68Z" fill="#F7F5F9"/>
<path d="M483.206 461.532C477.615 457.935 470.132 459.527 466.511 465.154C462.914 470.744 464.507 478.227 470.134 481.848C475.725 485.446 483.208 483.854 486.829 478.227C490.45 472.6 488.834 465.153 483.206 461.532Z" fill="#F7F5F9"/>
<path d="M469.944 306.372L450.069 305.361L449.662 313.389L469.536 314.399L469.944 306.372Z" fill="#F7F5F9"/>
<path d="M359.5 382.04L357.159 401.82L365.166 402.787L367.507 383.007L359.5 382.04Z" fill="#F7F5F9"/>
<path d="M420.09 184.136L412.107 183.186L409.758 202.947L417.74 203.897L420.09 184.136Z" fill="#F7F5F9"/>
<path d="M580.45 387.484L572.445 386.744L570.614 406.56L578.619 407.3L580.45 387.484Z" fill="#F7F5F9"/>
<path d="M525.026 528.243L505.739 533.145L507.72 540.935L527.007 536.033L525.026 528.243Z" fill="#F7F5F9"/>
<path d="M487.075 53.5516L479.833 57.0403L488.471 74.9696L495.713 71.4809L487.075 53.5516Z" fill="#F7F5F9"/>
<path d="M417.844 461.216L397.971 460.159L397.545 468.186L417.418 469.243L417.844 461.216Z" fill="#F7F5F9"/>
<path d="M641.413 250.261L621.541 249.195L621.111 257.222L640.983 258.288L641.413 250.261Z" fill="#F7F5F9"/>
<path d="M592.892 567.843L573.019 566.779L572.59 574.806L592.463 575.87L592.892 567.843Z" fill="#F7F5F9"/>
<path d="M636.672 322.265L616.8 321.199L616.37 329.225L636.242 330.291L636.672 322.265Z" fill="#F7F5F9"/>
<path d="M559.991 349.583L575.004 339.661L570.591 332.947L559.597 340.236L545.904 332.769L532.894 341.345L519.2 333.877L506.203 342.513L492.51 335.046L479.5 343.621L467.947 337.325L464.096 344.353L479.93 352.991L492.903 344.392L506.597 351.859L519.607 343.284L533.3 350.751L546.297 342.115L559.991 349.583Z" fill="#F7F5F9"/>
<path d="M438.621 426.749L447.202 422.97L434.655 414.122L436.608 398.639L423.879 389.673L425.51 376.618L417.55 375.578L415.275 393.489L428.028 402.418L426.075 417.901L438.621 426.749Z" fill="#F7F5F9"/>
<path d="M555.313 475.223L542.73 466.352L544.72 450.892L531.954 441.903L533.622 428.871L525.638 427.868L523.35 445.719L536.116 454.708L534.126 470.167L546.673 479.015L555.313 475.223Z" fill="#F7F5F9"/>
<path d="M654 376.694L669.292 373.565L673.608 358.827L667.264 351.903L662.924 366.678L647.632 369.807L643.272 384.775L630.358 387.419L632.005 395.299L649.639 391.662L654 376.694Z" fill="#F7F5F9"/>
<path d="M428.106 146.925L433.184 139.033L417.833 138.559L416.886 136.658L411.808 144.55L412.755 146.451L428.106 146.925Z" fill="#F7F5F9"/>
<path d="M575.191 99.015L587.897 108.017L601.836 100.969L612.603 108.568L617.221 102.033L602.539 91.6047L588.6 98.6527L575.894 89.6507L562.182 96.5866L561.479 105.951L575.191 99.015Z" fill="#F7F5F9"/>
<path d="M492.459 239.481L483.873 252.505L492.519 268.298L499.58 264.471L493.269 252.919L501.855 239.895L494.388 226.204L502.951 213.217L495.484 199.526L504.07 186.502L496.58 172.848L503.873 161.834L497.16 157.411L487.22 172.457L494.711 186.112L486.088 199.112L493.591 212.827L484.968 225.827L492.459 239.481Z" fill="#F7F5F9"/>
<path d="M662.24 198.941L664.396 214.381L679.066 219.687L681.222 235.128L695.893 240.434L698.086 255.898L712.72 261.181L714.571 274.204L722.508 273.111L720.024 255.289L705.377 249.946L703.198 234.542L688.55 229.2L686.371 213.796L671.724 208.453L669.544 193.049L652.582 186.888L649.885 194.453L662.24 198.941Z" fill="#F7F5F9"/>
<path d="M651.902 573.331L644.435 559.639L653.034 546.676L645.567 532.985L654.154 519.961L646.663 506.307L653.896 495.306L647.207 490.846L637.267 505.893L644.758 519.547L636.171 532.571L643.638 546.262L635.052 559.286L642.542 572.94L633.956 585.964L642.602 601.757L649.627 597.907L643.315 586.354L651.902 573.331Z" fill="#F7F5F9"/>
<path d="M701.411 314.251L696.085 291.45L688.245 293.276L693.607 316.101L701.411 314.251Z" fill="#F7F5F9"/>
<path d="M562.891 145.68L555.064 147.511L560.402 170.315L568.229 168.483L562.891 145.68Z" fill="#F7F5F9"/>
<path d="M368.913 303.1L361.086 304.932L366.424 327.735L374.251 325.903L368.913 303.1Z" fill="#F7F5F9"/>
<path d="M287.573 660.382C293.164 663.979 300.647 662.387 304.267 656.76C307.864 651.17 306.272 643.687 300.645 640.066C295.054 636.469 287.571 638.061 283.95 643.688C280.366 649.338 281.982 656.785 287.573 660.382Z" fill="#F7F5F9"/>
<path d="M280.313 460.462C285.904 464.06 293.387 462.468 297.007 456.841C300.604 451.25 299.012 443.767 293.384 440.146C287.793 436.549 280.31 438.141 276.69 443.768C273.069 449.395 274.685 456.842 280.313 460.462Z" fill="#F7F5F9"/>
<path d="M162.475 652.999C156.884 649.402 149.401 650.994 145.781 656.621C142.183 662.211 143.776 669.694 149.403 673.315C154.994 676.912 162.477 675.321 166.098 669.693C169.719 664.066 168.066 656.597 162.475 652.999Z" fill="#F7F5F9"/>
<path d="M320.639 907.647C315.048 904.05 307.565 905.642 303.944 911.269C300.347 916.859 301.939 924.342 307.567 927.963C313.158 931.561 320.641 929.969 324.262 924.342C327.882 918.714 326.23 911.245 320.639 907.647Z" fill="#F7F5F9"/>
<path d="M231.795 798.145C229.42 796.617 226.274 797.33 224.769 799.669C223.241 802.044 223.919 805.167 226.294 806.695C228.669 808.223 231.792 807.546 233.32 805.171C234.848 802.796 234.171 799.673 231.795 798.145Z" fill="#F7F5F9"/>
<path d="M47.7442 803.205C45.3689 801.677 42.2462 802.354 40.7181 804.729C39.1899 807.104 39.8675 810.227 42.2427 811.755C44.618 813.283 47.7407 812.606 49.2689 810.231C50.7971 807.856 50.1194 804.733 47.7442 803.205Z" fill="#F7F5F9"/>
<path d="M307.322 712.563C309.698 714.091 312.844 713.377 314.348 711.038C315.877 708.663 315.162 705.517 312.824 704.012C310.449 702.484 307.326 703.161 305.798 705.537C304.269 707.912 304.984 711.058 307.322 712.563Z" fill="#F7F5F9"/>
<path d="M469.222 946.468C468.258 947.966 468.192 949.835 468.868 951.355L473.499 944.157C471.86 944.135 470.209 944.933 469.222 946.468Z" fill="#F7F5F9"/>
<path d="M167.939 740.473C165.563 738.945 162.417 739.659 160.912 741.997C159.384 744.372 160.098 747.518 162.437 749.023C164.812 750.551 167.959 749.837 169.463 747.499C170.968 745.16 170.314 742.001 167.939 740.473Z" fill="#F7F5F9"/>
<path d="M490.529 839.07C489.001 841.446 489.715 844.592 492.054 846.097C494.429 847.625 497.575 846.911 499.08 844.572C500.608 842.197 499.93 839.074 497.555 837.546C495.217 836.041 492.057 836.695 490.529 839.07Z" fill="#F7F5F9"/>
<path d="M506.791 612.229C509.166 613.758 512.313 613.044 513.817 610.705C515.345 608.33 514.631 605.184 512.293 603.679C509.917 602.151 506.771 602.865 505.266 605.203C503.738 607.578 504.416 610.701 506.791 612.229Z" fill="#F7F5F9"/>
<path d="M388.3 564.303C390.676 565.831 393.822 565.117 395.327 562.779C396.855 560.403 396.14 557.257 393.802 555.753C391.427 554.224 388.304 554.902 386.776 557.277C385.271 559.615 385.925 562.774 388.3 564.303Z" fill="#F7F5F9"/>
<path d="M372.267 859.129C369.891 857.601 366.745 858.315 365.241 860.653C363.712 863.028 364.427 866.175 366.765 867.679C369.141 869.208 372.287 868.494 373.791 866.155C375.296 863.817 374.642 860.657 372.267 859.129Z" fill="#F7F5F9"/>
<path d="M212.153 518.132C209.778 516.603 206.631 517.317 205.127 519.656C203.599 522.031 204.276 525.153 206.651 526.682C209.027 528.21 212.149 527.533 213.678 525.158C215.182 522.819 214.492 519.636 212.153 518.132Z" fill="#F7F5F9"/>
<path d="M221.042 868.984C215.451 865.386 207.968 866.978 204.347 872.605C200.75 878.196 202.342 885.679 207.97 889.3C213.561 892.897 221.044 891.305 224.664 885.678C228.285 880.051 226.669 872.605 221.042 868.984Z" fill="#F7F5F9"/>
<path d="M509.562 694.974C515.153 698.571 522.636 696.979 526.257 691.352C529.854 685.762 528.261 678.279 522.634 674.658C517.043 671.06 509.56 672.652 505.939 678.279C502.342 683.87 503.971 691.376 509.562 694.974Z" fill="#F7F5F9"/>
<path d="M207.772 713.842L187.898 712.832L187.49 720.859L207.365 721.87L207.772 713.842Z" fill="#F7F5F9"/>
<path d="M97.3354 789.492L94.9942 809.272L103.001 810.239L105.342 790.459L97.3354 789.492Z" fill="#F7F5F9"/>
<path d="M157.888 591.591L149.906 590.641L147.556 610.403L155.539 611.353L157.888 591.591Z" fill="#F7F5F9"/>
<path d="M464.901 569.001L467.243 549.221L459.236 548.254L456.894 568.034L464.901 569.001Z" fill="#F7F5F9"/>
<path d="M318.288 794.98L310.284 794.24L308.453 814.055L316.457 814.795L318.288 794.98Z" fill="#F7F5F9"/>
<path d="M421.588 1011.51L427.678 1015.37L432.027 1008.61L425.937 1004.75L421.588 1011.51Z" fill="#F7F5F9"/>
<path d="M224.901 461.062L217.659 464.551L226.297 482.48L233.539 478.991L224.901 461.062Z" fill="#F7F5F9"/>
<path d="M622.705 661.965L615.463 665.453L624.1 683.381L631.341 679.893L622.705 661.965Z" fill="#F7F5F9"/>
<path d="M428.495 837.751L448.375 838.815L448.799 830.769L428.918 829.705L428.495 837.751Z" fill="#F7F5F9"/>
<path d="M449.195 883.974L441.574 886.532L447.909 905.397L455.529 902.839L449.195 883.974Z" fill="#F7F5F9"/>
<path d="M379.231 657.698L359.358 656.633L358.928 664.659L378.801 665.725L379.231 657.698Z" fill="#F7F5F9"/>
<path d="M374.474 729.701L354.602 728.635L354.172 736.662L374.044 737.728L374.474 729.701Z" fill="#F7F5F9"/>
<path d="M297.803 757.071L312.839 747.112L308.403 740.435L297.433 747.688L283.739 740.22L270.706 748.833L257.012 741.365L244.039 749.965L230.346 742.497L217.312 751.109L205.783 744.776L201.908 751.842L217.742 760.479L230.715 751.88L244.409 759.348L257.442 750.735L271.136 758.203L284.109 749.604L297.803 757.071Z" fill="#F7F5F9"/>
<path d="M176.434 834.237L185.014 830.458L172.467 821.61L174.421 806.127L161.691 797.161L163.346 784.069L155.363 783.066L153.111 800.94L165.84 809.906L163.887 825.389L176.434 834.237Z" fill="#F7F5F9"/>
<path d="M293.125 882.711L280.542 873.84L282.532 858.38L269.766 849.391L271.434 836.359L263.474 835.319L261.185 853.17L273.951 862.159L271.961 877.619L284.508 886.467L293.125 882.711Z" fill="#F7F5F9"/>
<path d="M391.812 784.182L407.105 781.053L411.444 766.279L405.076 759.391L400.76 774.129L385.468 777.258L381.108 792.226L368.194 794.87L369.817 802.787L387.452 799.15L391.812 784.182Z" fill="#F7F5F9"/>
<path d="M436.294 961.345L420.727 960.886L414.917 949.036L407.707 952.613L415.648 968.779L431.216 969.237L438.122 983.239L448.178 983.509L453.257 975.617L443.2 975.346L436.294 961.345Z" fill="#F7F5F9"/>
<path d="M540.691 793.794L534.881 781.944L527.635 785.497L535.613 801.687L551.18 802.145L557.126 814.186L562.204 806.293L556.259 794.253L540.691 793.794Z" fill="#F7F5F9"/>
<path d="M165.942 554.377L171.02 546.484L155.645 546.047L154.722 544.109L149.644 552.002L150.567 553.939L165.942 554.377Z" fill="#F7F5F9"/>
<path d="M571.425 677.687L563.314 691.016L571.207 704.206L580.585 704.246L572.692 691.056L580.803 677.727L572.835 664.333L579.703 653.097L572.825 648.93L563.457 664.293L571.425 677.687Z" fill="#F7F5F9"/>
<path d="M313.003 506.503L325.733 515.468L339.648 508.457L350.415 516.056L355.057 509.484L340.351 499.093L326.413 506.141L313.707 497.139L299.995 504.075L299.292 513.439L313.003 506.503Z" fill="#F7F5F9"/>
<path d="M230.271 646.969L221.685 659.993L230.331 675.786L237.392 671.959L231.081 660.407L239.667 647.383L232.2 633.692L240.786 620.669L233.296 607.014L241.882 593.99L234.415 580.299L241.685 569.322L234.972 564.899L225.056 579.909L232.523 593.6L223.9 606.6L231.427 620.278L222.804 633.278L230.271 646.969Z" fill="#F7F5F9"/>
<path d="M476.803 764.519L461.361 762.178L450.641 776.671L457.083 781.435L464.937 770.834L480.356 773.211L489.649 760.694L505.055 763.012L514.348 750.495L529.767 752.872L539.024 740.332L552.061 742.314L553.257 734.352L535.471 731.639L526.177 744.156L510.772 741.839L501.478 754.356L486.06 751.978L476.803 764.519Z" fill="#F7F5F9"/>
<path d="M400.052 606.429L402.231 621.833L416.878 627.175L419.058 642.579L433.705 647.922L435.921 663.35L450.532 668.669L452.383 681.692L460.344 680.562L457.86 662.74L443.189 657.434L441.033 641.994L426.362 636.688L424.206 621.247L409.536 615.941L407.38 600.5L390.417 594.34L387.697 601.941L400.052 606.429Z" fill="#F7F5F9"/>
<path d="M389.714 980.818L382.247 967.127L390.87 954.127L383.379 940.473L391.966 927.449L384.499 913.758L391.732 902.757L385.019 898.334L375.103 913.344L382.57 927.035L373.983 940.059L381.45 953.75L372.887 966.737L380.354 980.428L371.768 993.452L380.414 1009.24L387.439 1005.39L381.127 993.842L389.714 980.818Z" fill="#F7F5F9"/>
<path d="M439.246 721.703L433.898 698.938L426.057 700.764L431.442 723.553L439.246 721.703Z" fill="#F7F5F9"/>
<path d="M300.731 553.157L292.904 554.988L298.243 577.792L306.069 575.96L300.731 553.157Z" fill="#F7F5F9"/>
<path d="M106.753 710.577L98.9258 712.409L104.264 735.212L112.091 733.381L106.753 710.577Z" fill="#F7F5F9"/>
</g>
</svg>
