<svg width="107" height="569" viewBox="0 0 107 569" fill="none" xmlns="http://www.w3.org/2000/svg">
<path fill-rule="evenodd" clip-rule="evenodd" d="M103.237 7.5701C101.425 7.5701 99.943 6.09796 99.943 4.27651C99.943 2.46004 101.425 0.98291 103.237 0.98291C105.053 0.98291 106.535 2.46004 106.535 4.27651C106.535 6.09796 105.053 7.5701 103.237 7.5701" fill="#F7F5F9"/>
<path fill-rule="evenodd" clip-rule="evenodd" d="M70.2534 7.5701C68.4319 7.5701 66.9548 6.09796 66.9548 4.27651C66.9548 2.46004 68.4319 0.98291 70.2534 0.98291C72.0649 0.98291 73.542 2.46004 73.542 4.27651C73.542 6.09796 72.0649 7.5701 70.2534 7.5701" fill="#F7F5F9"/>
<path fill-rule="evenodd" clip-rule="evenodd" d="M37.2611 7.5701C35.4446 7.5701 33.9675 6.09796 33.9675 4.27651C33.9675 2.46004 35.4446 0.98291 37.2611 0.98291C39.0776 0.98291 40.5547 2.46004 40.5547 4.27651C40.5547 6.09796 39.0776 7.5701 37.2611 7.5701" fill="#F7F5F9"/>
<path fill-rule="evenodd" clip-rule="evenodd" d="M4.27281 7.5701C2.45634 7.5701 0.979216 6.09796 0.979216 4.27651C0.979216 2.46004 2.45634 0.98291 4.27281 0.98291C6.08429 0.98291 7.56641 2.46004 7.56641 4.27651C7.56641 6.09796 6.08429 7.5701 4.27281 7.5701" fill="#F7F5F9"/>
<path fill-rule="evenodd" clip-rule="evenodd" d="M103.237 40.5624C101.425 40.5624 99.943 39.0903 99.943 37.2688C99.943 35.4474 101.425 33.9752 103.237 33.9752C105.053 33.9752 106.535 35.4474 106.535 37.2688C106.535 39.0903 105.053 40.5624 103.237 40.5624" fill="#F7F5F9"/>
<path fill-rule="evenodd" clip-rule="evenodd" d="M70.2534 40.5624C68.4319 40.5624 66.9548 39.0903 66.9548 37.2688C66.9548 35.4474 68.4319 33.9752 70.2534 33.9752C72.0649 33.9752 73.542 35.4474 73.542 37.2688C73.542 39.0903 72.0649 40.5624 70.2534 40.5624" fill="#F7F5F9"/>
<path fill-rule="evenodd" clip-rule="evenodd" d="M37.2611 40.5624C35.4446 40.5624 33.9675 39.0903 33.9675 37.2688C33.9675 35.4474 35.4446 33.9752 37.2611 33.9752C39.0776 33.9752 40.5547 35.4474 40.5547 37.2688C40.5547 39.0903 39.0776 40.5624 37.2611 40.5624" fill="#F7F5F9"/>
<path fill-rule="evenodd" clip-rule="evenodd" d="M4.27281 40.5624C2.45634 40.5624 0.979216 39.0903 0.979216 37.2688C0.979216 35.4474 2.45634 33.9752 4.27281 33.9752C6.08429 33.9752 7.56641 35.4474 7.56641 37.2688C7.56641 39.0903 6.08429 40.5624 4.27281 40.5624" fill="#F7F5F9"/>
<path fill-rule="evenodd" clip-rule="evenodd" d="M103.237 73.5503C101.425 73.5503 99.943 72.0732 99.943 70.2567C99.943 68.4403 101.425 66.9681 103.237 66.9681C105.053 66.9681 106.535 68.4403 106.535 70.2567C106.535 72.0732 105.053 73.5503 103.237 73.5503" fill="#F7F5F9"/>
<path fill-rule="evenodd" clip-rule="evenodd" d="M70.2534 73.5503C68.4319 73.5503 66.9548 72.0732 66.9548 70.2567C66.9548 68.4403 68.4319 66.9681 70.2534 66.9681C72.0649 66.9681 73.542 68.4403 73.542 70.2567C73.542 72.0732 72.0649 73.5503 70.2534 73.5503" fill="#F7F5F9"/>
<path fill-rule="evenodd" clip-rule="evenodd" d="M37.2611 73.5503C35.4446 73.5503 33.9675 72.0732 33.9675 70.2567C33.9675 68.4403 35.4446 66.9681 37.2611 66.9681C39.0776 66.9681 40.5547 68.4403 40.5547 70.2567C40.5547 72.0732 39.0776 73.5503 37.2611 73.5503" fill="#F7F5F9"/>
<path fill-rule="evenodd" clip-rule="evenodd" d="M4.27281 73.5503C2.45634 73.5503 0.979216 72.0732 0.979216 70.2567C0.979216 68.4403 2.45634 66.9681 4.27281 66.9681C6.08429 66.9681 7.56641 68.4403 7.56641 70.2567C7.56641 72.0732 6.08429 73.5503 4.27281 73.5503" fill="#F7F5F9"/>
<path fill-rule="evenodd" clip-rule="evenodd" d="M103.237 106.538C101.425 106.538 99.943 105.065 99.943 103.244C99.943 101.428 101.425 99.9504 103.237 99.9504C105.053 99.9504 106.535 101.428 106.535 103.244C106.535 105.065 105.053 106.538 103.237 106.538" fill="#F7F5F9"/>
<path fill-rule="evenodd" clip-rule="evenodd" d="M70.2534 106.538C68.4319 106.538 66.9548 105.065 66.9548 103.244C66.9548 101.428 68.4319 99.9504 70.2534 99.9504C72.0649 99.9504 73.542 101.428 73.542 103.244C73.542 105.065 72.0649 106.538 70.2534 106.538" fill="#F7F5F9"/>
<path fill-rule="evenodd" clip-rule="evenodd" d="M37.2611 106.538C35.4446 106.538 33.9675 105.065 33.9675 103.244C33.9675 101.428 35.4446 99.9504 37.2611 99.9504C39.0776 99.9504 40.5547 101.428 40.5547 103.244C40.5547 105.065 39.0776 106.538 37.2611 106.538" fill="#F7F5F9"/>
<path fill-rule="evenodd" clip-rule="evenodd" d="M4.27281 106.538C2.45634 106.538 0.979216 105.065 0.979216 103.244C0.979216 101.428 2.45634 99.9504 4.27281 99.9504C6.08429 99.9504 7.56641 101.428 7.56641 103.244C7.56641 105.065 6.08429 106.538 4.27281 106.538" fill="#F7F5F9"/>
<path fill-rule="evenodd" clip-rule="evenodd" d="M103.237 139.53C101.425 139.53 99.943 138.058 99.943 136.236C99.943 134.415 101.425 132.943 103.237 132.943C105.053 132.943 106.535 134.415 106.535 136.236C106.535 138.058 105.053 139.53 103.237 139.53" fill="#F7F5F9"/>
<path fill-rule="evenodd" clip-rule="evenodd" d="M70.2534 139.53C68.4319 139.53 66.9548 138.058 66.9548 136.236C66.9548 134.415 68.4319 132.943 70.2534 132.943C72.0649 132.943 73.542 134.415 73.542 136.236C73.542 138.058 72.0649 139.53 70.2534 139.53" fill="#F7F5F9"/>
<path fill-rule="evenodd" clip-rule="evenodd" d="M37.2611 139.53C35.4446 139.53 33.9675 138.058 33.9675 136.236C33.9675 134.415 35.4446 132.943 37.2611 132.943C39.0776 132.943 40.5547 134.415 40.5547 136.236C40.5547 138.058 39.0776 139.53 37.2611 139.53" fill="#F7F5F9"/>
<path fill-rule="evenodd" clip-rule="evenodd" d="M4.27281 139.53C2.45634 139.53 0.979216 138.058 0.979216 136.236C0.979216 134.415 2.45634 132.943 4.27281 132.943C6.08429 132.943 7.56641 134.415 7.56641 136.236C7.56641 138.058 6.08429 139.53 4.27281 139.53" fill="#F7F5F9"/>
<path fill-rule="evenodd" clip-rule="evenodd" d="M103.237 172.518C101.425 172.518 99.943 171.041 99.943 169.224C99.943 167.408 101.425 165.931 103.237 165.931C105.053 165.931 106.535 167.408 106.535 169.224C106.535 171.041 105.053 172.518 103.237 172.518" fill="#F7F5F9"/>
<path fill-rule="evenodd" clip-rule="evenodd" d="M70.2534 172.518C68.4319 172.518 66.9548 171.041 66.9548 169.224C66.9548 167.408 68.4319 165.931 70.2534 165.931C72.0649 165.931 73.542 167.408 73.542 169.224C73.542 171.041 72.0649 172.518 70.2534 172.518" fill="#F7F5F9"/>
<path fill-rule="evenodd" clip-rule="evenodd" d="M37.2611 172.518C35.4446 172.518 33.9675 171.041 33.9675 169.224C33.9675 167.408 35.4446 165.931 37.2611 165.931C39.0776 165.931 40.5547 167.408 40.5547 169.224C40.5547 171.041 39.0776 172.518 37.2611 172.518" fill="#F7F5F9"/>
<path fill-rule="evenodd" clip-rule="evenodd" d="M4.27281 172.518C2.45634 172.518 0.979216 171.041 0.979216 169.224C0.979216 167.408 2.45634 165.931 4.27281 165.931C6.08429 165.931 7.56641 167.408 7.56641 169.224C7.56641 171.041 6.08429 172.518 4.27281 172.518" fill="#F7F5F9"/>
<path fill-rule="evenodd" clip-rule="evenodd" d="M103.237 205.505C101.425 205.505 99.943 204.033 99.943 202.212C99.943 200.39 101.425 198.918 103.237 198.918C105.053 198.918 106.535 200.39 106.535 202.212C106.535 204.033 105.053 205.505 103.237 205.505" fill="#F7F5F9"/>
<path fill-rule="evenodd" clip-rule="evenodd" d="M70.2534 205.505C68.4319 205.505 66.9548 204.033 66.9548 202.212C66.9548 200.39 68.4319 198.918 70.2534 198.918C72.0649 198.918 73.542 200.39 73.542 202.212C73.542 204.033 72.0649 205.505 70.2534 205.505" fill="#F7F5F9"/>
<path fill-rule="evenodd" clip-rule="evenodd" d="M37.2611 205.505C35.4446 205.505 33.9675 204.033 33.9675 202.212C33.9675 200.39 35.4446 198.918 37.2611 198.918C39.0776 198.918 40.5547 200.39 40.5547 202.212C40.5547 204.033 39.0776 205.505 37.2611 205.505" fill="#F7F5F9"/>
<path fill-rule="evenodd" clip-rule="evenodd" d="M4.27281 205.505C2.45634 205.505 0.979216 204.033 0.979216 202.212C0.979216 200.39 2.45634 198.918 4.27281 198.918C6.08429 198.918 7.56641 200.39 7.56641 202.212C7.56641 204.033 6.08429 205.505 4.27281 205.505" fill="#F7F5F9"/>
<path fill-rule="evenodd" clip-rule="evenodd" d="M103.237 238.498C101.425 238.498 99.943 237.021 99.943 235.204C99.943 233.383 101.425 231.911 103.237 231.911C105.053 231.911 106.535 233.383 106.535 235.204C106.535 237.021 105.053 238.498 103.237 238.498" fill="#F7F5F9"/>
<path fill-rule="evenodd" clip-rule="evenodd" d="M70.2534 238.498C68.4319 238.498 66.9548 237.021 66.9548 235.204C66.9548 233.383 68.4319 231.911 70.2534 231.911C72.0649 231.911 73.542 233.383 73.542 235.204C73.542 237.021 72.0649 238.498 70.2534 238.498" fill="#F7F5F9"/>
<path fill-rule="evenodd" clip-rule="evenodd" d="M37.2611 238.498C35.4446 238.498 33.9675 237.021 33.9675 235.204C33.9675 233.383 35.4446 231.911 37.2611 231.911C39.0776 231.911 40.5547 233.383 40.5547 235.204C40.5547 237.021 39.0776 238.498 37.2611 238.498" fill="#F7F5F9"/>
<path fill-rule="evenodd" clip-rule="evenodd" d="M4.27281 238.498C2.45634 238.498 0.979216 237.021 0.979216 235.204C0.979216 233.383 2.45634 231.911 4.27281 231.911C6.08429 231.911 7.56641 233.383 7.56641 235.204C7.56641 237.021 6.08429 238.498 4.27281 238.498" fill="#F7F5F9"/>
<path fill-rule="evenodd" clip-rule="evenodd" d="M103.237 271.481C101.425 271.481 99.943 270.009 99.943 268.187C99.943 266.376 101.425 264.894 103.237 264.894C105.053 264.894 106.535 266.376 106.535 268.187C106.535 270.009 105.053 271.481 103.237 271.481" fill="#F7F5F9"/>
<path fill-rule="evenodd" clip-rule="evenodd" d="M70.2534 271.481C68.4319 271.481 66.9548 270.009 66.9548 268.187C66.9548 266.376 68.4319 264.894 70.2534 264.894C72.0649 264.894 73.542 266.376 73.542 268.187C73.542 270.009 72.0649 271.481 70.2534 271.481" fill="#F7F5F9"/>
<path fill-rule="evenodd" clip-rule="evenodd" d="M37.2611 271.481C35.4446 271.481 33.9675 270.009 33.9675 268.187C33.9675 266.376 35.4446 264.894 37.2611 264.894C39.0776 264.894 40.5547 266.376 40.5547 268.187C40.5547 270.009 39.0776 271.481 37.2611 271.481" fill="#F7F5F9"/>
<path fill-rule="evenodd" clip-rule="evenodd" d="M4.27281 271.481C2.45634 271.481 0.979216 270.009 0.979216 268.187C0.979216 266.376 2.45634 264.894 4.27281 264.894C6.08429 264.894 7.56641 266.376 7.56641 268.187C7.56641 270.009 6.08429 271.481 4.27281 271.481" fill="#F7F5F9"/>
<path fill-rule="evenodd" clip-rule="evenodd" d="M103.237 304.473C101.425 304.473 99.943 303.001 99.943 301.18C99.943 299.358 101.425 297.886 103.237 297.886C105.053 297.886 106.535 299.358 106.535 301.18C106.535 303.001 105.053 304.473 103.237 304.473" fill="#F7F5F9"/>
<path fill-rule="evenodd" clip-rule="evenodd" d="M70.2534 304.473C68.4319 304.473 66.9548 303.001 66.9548 301.18C66.9548 299.358 68.4319 297.886 70.2534 297.886C72.0649 297.886 73.542 299.358 73.542 301.18C73.542 303.001 72.0649 304.473 70.2534 304.473" fill="#F7F5F9"/>
<path fill-rule="evenodd" clip-rule="evenodd" d="M37.2611 304.473C35.4446 304.473 33.9675 303.001 33.9675 301.18C33.9675 299.358 35.4446 297.886 37.2611 297.886C39.0776 297.886 40.5547 299.358 40.5547 301.18C40.5547 303.001 39.0776 304.473 37.2611 304.473" fill="#F7F5F9"/>
<path fill-rule="evenodd" clip-rule="evenodd" d="M4.27281 304.473C2.45634 304.473 0.979216 303.001 0.979216 301.18C0.979216 299.358 2.45634 297.886 4.27281 297.886C6.08429 297.886 7.56641 299.358 7.56641 301.18C7.56641 303.001 6.08429 304.473 4.27281 304.473" fill="#F7F5F9"/>
<path fill-rule="evenodd" clip-rule="evenodd" d="M103.237 337.461C101.425 337.461 99.943 335.983 99.943 334.172C99.943 332.351 101.425 330.878 103.237 330.878C105.053 330.878 106.535 332.351 106.535 334.172C106.535 335.983 105.053 337.461 103.237 337.461Z" fill="#F7F5F9"/>
<path fill-rule="evenodd" clip-rule="evenodd" d="M70.2534 337.461C68.4319 337.461 66.9548 335.983 66.9548 334.172C66.9548 332.351 68.4319 330.878 70.2534 330.878C72.0649 330.878 73.542 332.351 73.542 334.172C73.542 335.983 72.0649 337.461 70.2534 337.461" fill="#F7F5F9"/>
<path fill-rule="evenodd" clip-rule="evenodd" d="M37.2611 337.461C35.4446 337.461 33.9675 335.983 33.9675 334.172C33.9675 332.351 35.4446 330.878 37.2611 330.878C39.0776 330.878 40.5547 332.351 40.5547 334.172C40.5547 335.983 39.0776 337.461 37.2611 337.461" fill="#F7F5F9"/>
<path fill-rule="evenodd" clip-rule="evenodd" d="M4.27281 337.461C2.45634 337.461 0.979216 335.983 0.979216 334.172C0.979216 332.351 2.45634 330.878 4.27281 330.878C6.08429 330.878 7.56641 332.351 7.56641 334.172C7.56641 335.983 6.08429 337.461 4.27281 337.461" fill="#F7F5F9"/>
<path fill-rule="evenodd" clip-rule="evenodd" d="M103.237 370.448C101.425 370.448 99.943 368.976 99.943 367.155C99.943 365.338 101.425 363.861 103.237 363.861C105.053 363.861 106.535 365.338 106.535 367.155C106.535 368.976 105.053 370.448 103.237 370.448" fill="#F7F5F9"/>
<path fill-rule="evenodd" clip-rule="evenodd" d="M70.2534 370.448C68.4319 370.448 66.9548 368.976 66.9548 367.155C66.9548 365.338 68.4319 363.861 70.2534 363.861C72.0649 363.861 73.542 365.338 73.542 367.155C73.542 368.976 72.0649 370.448 70.2534 370.448" fill="#F7F5F9"/>
<path fill-rule="evenodd" clip-rule="evenodd" d="M37.2611 370.448C35.4446 370.448 33.9675 368.976 33.9675 367.155C33.9675 365.338 35.4446 363.861 37.2611 363.861C39.0776 363.861 40.5547 365.338 40.5547 367.155C40.5547 368.976 39.0776 370.448 37.2611 370.448" fill="#F7F5F9"/>
<path fill-rule="evenodd" clip-rule="evenodd" d="M4.27281 370.448C2.45634 370.448 0.979216 368.976 0.979216 367.155C0.979216 365.338 2.45634 363.861 4.27281 363.861C6.08429 363.861 7.56641 365.338 7.56641 367.155C7.56641 368.976 6.08429 370.448 4.27281 370.448" fill="#F7F5F9"/>
<path fill-rule="evenodd" clip-rule="evenodd" d="M103.237 403.441C101.425 403.441 99.943 401.969 99.943 400.147C99.943 398.326 101.425 396.854 103.237 396.854C105.053 396.854 106.535 398.326 106.535 400.147C106.535 401.969 105.053 403.441 103.237 403.441" fill="#F7F5F9"/>
<path fill-rule="evenodd" clip-rule="evenodd" d="M70.2534 403.441C68.4319 403.441 66.9548 401.969 66.9548 400.147C66.9548 398.326 68.4319 396.854 70.2534 396.854C72.0649 396.854 73.542 398.326 73.542 400.147C73.542 401.969 72.0649 403.441 70.2534 403.441" fill="#F7F5F9"/>
<path fill-rule="evenodd" clip-rule="evenodd" d="M37.2611 403.441C35.4446 403.441 33.9675 401.969 33.9675 400.147C33.9675 398.326 35.4446 396.854 37.2611 396.854C39.0776 396.854 40.5547 398.326 40.5547 400.147C40.5547 401.969 39.0776 403.441 37.2611 403.441" fill="#F7F5F9"/>
<path fill-rule="evenodd" clip-rule="evenodd" d="M4.27281 403.441C2.45634 403.441 0.979216 401.969 0.979216 400.147C0.979216 398.326 2.45634 396.854 4.27281 396.854C6.08429 396.854 7.56641 398.326 7.56641 400.147C7.56641 401.969 6.08429 403.441 4.27281 403.441" fill="#F7F5F9"/>
<path fill-rule="evenodd" clip-rule="evenodd" d="M103.237 436.429C101.425 436.429 99.943 434.951 99.943 433.135C99.943 431.319 101.425 429.841 103.237 429.841C105.053 429.841 106.535 431.319 106.535 433.135C106.535 434.951 105.053 436.429 103.237 436.429" fill="#F7F5F9"/>
<path fill-rule="evenodd" clip-rule="evenodd" d="M70.2534 436.429C68.4319 436.429 66.9548 434.951 66.9548 433.135C66.9548 431.319 68.4319 429.841 70.2534 429.841C72.0649 429.841 73.542 431.319 73.542 433.135C73.542 434.951 72.0649 436.429 70.2534 436.429" fill="#F7F5F9"/>
<path fill-rule="evenodd" clip-rule="evenodd" d="M37.2611 436.429C35.4446 436.429 33.9675 434.951 33.9675 433.135C33.9675 431.319 35.4446 429.841 37.2611 429.841C39.0776 429.841 40.5547 431.319 40.5547 433.135C40.5547 434.951 39.0776 436.429 37.2611 436.429" fill="#F7F5F9"/>
<path fill-rule="evenodd" clip-rule="evenodd" d="M4.27281 436.429C2.45634 436.429 0.979216 434.951 0.979216 433.135C0.979216 431.319 2.45634 429.841 4.27281 429.841C6.08429 429.841 7.56641 431.319 7.56641 433.135C7.56641 434.951 6.08429 436.429 4.27281 436.429" fill="#F7F5F9"/>
<path fill-rule="evenodd" clip-rule="evenodd" d="M103.237 469.416C101.425 469.416 99.943 467.944 99.943 466.122C99.943 464.301 101.425 462.829 103.237 462.829C105.053 462.829 106.535 464.301 106.535 466.122C106.535 467.944 105.053 469.416 103.237 469.416" fill="#F7F5F9"/>
<path fill-rule="evenodd" clip-rule="evenodd" d="M70.2534 469.416C68.4319 469.416 66.9548 467.944 66.9548 466.122C66.9548 464.301 68.4319 462.829 70.2534 462.829C72.0649 462.829 73.542 464.301 73.542 466.122C73.542 467.944 72.0649 469.416 70.2534 469.416" fill="#F7F5F9"/>
<path fill-rule="evenodd" clip-rule="evenodd" d="M37.2611 469.416C35.4446 469.416 33.9675 467.944 33.9675 466.122C33.9675 464.301 35.4446 462.829 37.2611 462.829C39.0776 462.829 40.5547 464.301 40.5547 466.122C40.5547 467.944 39.0776 469.416 37.2611 469.416" fill="#F7F5F9"/>
<path fill-rule="evenodd" clip-rule="evenodd" d="M4.27281 469.416C2.45634 469.416 0.979216 467.944 0.979216 466.122C0.979216 464.301 2.45634 462.829 4.27281 462.829C6.08429 462.829 7.56641 464.301 7.56641 466.122C7.56641 467.944 6.08429 469.416 4.27281 469.416" fill="#F7F5F9"/>
<path fill-rule="evenodd" clip-rule="evenodd" d="M103.237 502.409C101.425 502.409 99.943 500.932 99.943 499.115C99.943 497.294 101.425 495.822 103.237 495.822C105.053 495.822 106.535 497.294 106.535 499.115C106.535 500.932 105.053 502.409 103.237 502.409" fill="#F7F5F9"/>
<path fill-rule="evenodd" clip-rule="evenodd" d="M70.2534 502.409C68.4319 502.409 66.9548 500.932 66.9548 499.115C66.9548 497.294 68.4319 495.822 70.2534 495.822C72.0649 495.822 73.542 497.294 73.542 499.115C73.542 500.932 72.0649 502.409 70.2534 502.409" fill="#F7F5F9"/>
<path fill-rule="evenodd" clip-rule="evenodd" d="M37.2611 502.409C35.4446 502.409 33.9675 500.932 33.9675 499.115C33.9675 497.294 35.4446 495.822 37.2611 495.822C39.0776 495.822 40.5547 497.294 40.5547 499.115C40.5547 500.932 39.0776 502.409 37.2611 502.409" fill="#F7F5F9"/>
<path fill-rule="evenodd" clip-rule="evenodd" d="M4.27281 502.409C2.45634 502.409 0.979216 500.932 0.979216 499.115C0.979216 497.294 2.45634 495.822 4.27281 495.822C6.08429 495.822 7.56641 497.294 7.56641 499.115C7.56641 500.932 6.08429 502.409 4.27281 502.409" fill="#F7F5F9"/>
<path fill-rule="evenodd" clip-rule="evenodd" d="M103.237 535.391C101.425 535.391 99.943 533.919 99.943 532.098C99.943 530.286 101.425 528.804 103.237 528.804C105.053 528.804 106.535 530.286 106.535 532.098C106.535 533.919 105.053 535.391 103.237 535.391" fill="#F7F5F9"/>
<path fill-rule="evenodd" clip-rule="evenodd" d="M70.2534 535.391C68.4319 535.391 66.9548 533.919 66.9548 532.098C66.9548 530.286 68.4319 528.804 70.2534 528.804C72.0649 528.804 73.542 530.286 73.542 532.098C73.542 533.919 72.0649 535.391 70.2534 535.391" fill="#F7F5F9"/>
<path fill-rule="evenodd" clip-rule="evenodd" d="M37.2611 535.391C35.4446 535.391 33.9675 533.919 33.9675 532.098C33.9675 530.286 35.4446 528.804 37.2611 528.804C39.0776 528.804 40.5547 530.286 40.5547 532.098C40.5547 533.919 39.0776 535.391 37.2611 535.391" fill="#F7F5F9"/>
<path fill-rule="evenodd" clip-rule="evenodd" d="M4.27281 535.391C2.45634 535.391 0.979216 533.919 0.979216 532.098C0.979216 530.286 2.45634 528.804 4.27281 528.804C6.08429 528.804 7.56641 530.286 7.56641 532.098C7.56641 533.919 6.08429 535.391 4.27281 535.391" fill="#F7F5F9"/>
<path fill-rule="evenodd" clip-rule="evenodd" d="M103.237 568.384C101.425 568.384 99.943 566.912 99.943 565.09C99.943 563.269 101.425 561.797 103.237 561.797C105.053 561.797 106.535 563.269 106.535 565.09C106.535 566.912 105.053 568.384 103.237 568.384" fill="#F7F5F9"/>
<path fill-rule="evenodd" clip-rule="evenodd" d="M70.2534 568.384C68.4319 568.384 66.9548 566.912 66.9548 565.09C66.9548 563.269 68.4319 561.797 70.2534 561.797C72.0649 561.797 73.542 563.269 73.542 565.09C73.542 566.912 72.0649 568.384 70.2534 568.384" fill="#F7F5F9"/>
<path fill-rule="evenodd" clip-rule="evenodd" d="M37.2611 568.384C35.4446 568.384 33.9675 566.912 33.9675 565.09C33.9675 563.269 35.4446 561.797 37.2611 561.797C39.0776 561.797 40.5547 563.269 40.5547 565.09C40.5547 566.912 39.0776 568.384 37.2611 568.384" fill="#F7F5F9"/>
<path fill-rule="evenodd" clip-rule="evenodd" d="M4.27281 568.384C2.45634 568.384 0.979216 566.912 0.979216 565.09C0.979216 563.269 2.45634 561.797 4.27281 561.797C6.08429 561.797 7.56641 563.269 7.56641 565.09C7.56641 566.912 6.08429 568.384 4.27281 568.384" fill="#F7F5F9"/>
</svg>
