<svg width="193" height="1486" viewBox="0 0 193 1486" fill="none" xmlns="http://www.w3.org/2000/svg">
<path fill-rule="evenodd" clip-rule="evenodd" d="M190.237 1094.79C188.425 1094.79 186.943 1096.27 186.943 1098.09C186.943 1099.91 188.425 1101.38 190.237 1101.38C192.053 1101.38 193.535 1099.91 193.535 1098.09C193.535 1096.27 192.053 1094.79 190.237 1094.79" fill="#F7F5F9"/>
<path fill-rule="evenodd" clip-rule="evenodd" d="M157.253 1094.79C155.432 1094.79 153.955 1096.27 153.955 1098.09C153.955 1099.91 155.432 1101.38 157.253 1101.38C159.065 1101.38 160.542 1099.91 160.542 1098.09C160.542 1096.27 159.065 1094.79 157.253 1094.79" fill="#F7F5F9"/>
<path fill-rule="evenodd" clip-rule="evenodd" d="M124.261 1094.79C122.445 1094.79 120.967 1096.27 120.967 1098.09C120.967 1099.91 122.445 1101.38 124.261 1101.38C126.078 1101.38 127.555 1099.91 127.555 1098.09C127.555 1096.27 126.078 1094.79 124.261 1094.79" fill="#F7F5F9"/>
<path fill-rule="evenodd" clip-rule="evenodd" d="M91.2738 1094.79C89.4573 1094.79 87.9802 1096.27 87.9802 1098.09C87.9802 1099.91 89.4573 1101.38 91.2738 1101.38C93.0853 1101.38 94.5674 1099.91 94.5674 1098.09C94.5674 1096.27 93.0853 1094.79 91.2738 1094.79" fill="#F7F5F9"/>
<path fill-rule="evenodd" clip-rule="evenodd" d="M58.2815 1094.79C56.47 1094.79 54.9929 1096.27 54.9929 1098.09C54.9929 1099.91 56.47 1101.38 58.2815 1101.38C60.098 1101.38 61.5801 1099.91 61.5801 1098.09C61.5801 1096.27 60.098 1094.79 58.2815 1094.79" fill="#F7F5F9"/>
<path fill-rule="evenodd" clip-rule="evenodd" d="M25.2943 1094.79C23.4778 1094.79 22.0007 1096.27 22.0007 1098.09C22.0007 1099.91 23.4778 1101.38 25.2943 1101.38C27.1108 1101.38 28.5879 1099.91 28.5879 1098.09C28.5879 1096.27 27.1108 1094.79 25.2943 1094.79" fill="#F7F5F9"/>
<path fill-rule="evenodd" clip-rule="evenodd" d="M190.237 1061.81C188.425 1061.81 186.943 1063.28 186.943 1065.1C186.943 1066.92 188.425 1068.4 190.237 1068.4C192.053 1068.4 193.535 1066.92 193.535 1065.1C193.535 1063.28 192.053 1061.81 190.237 1061.81" fill="#F7F5F9"/>
<path fill-rule="evenodd" clip-rule="evenodd" d="M157.253 1061.81C155.432 1061.81 153.955 1063.28 153.955 1065.1C153.955 1066.92 155.432 1068.4 157.253 1068.4C159.065 1068.4 160.542 1066.92 160.542 1065.1C160.542 1063.28 159.065 1061.81 157.253 1061.81" fill="#F7F5F9"/>
<path fill-rule="evenodd" clip-rule="evenodd" d="M124.261 1061.81C122.445 1061.81 120.967 1063.28 120.967 1065.1C120.967 1066.92 122.445 1068.4 124.261 1068.4C126.078 1068.4 127.555 1066.92 127.555 1065.1C127.555 1063.28 126.078 1061.81 124.261 1061.81" fill="#F7F5F9"/>
<path fill-rule="evenodd" clip-rule="evenodd" d="M91.2738 1061.81C89.4573 1061.81 87.9802 1063.28 87.9802 1065.1C87.9802 1066.92 89.4573 1068.4 91.2738 1068.4C93.0853 1068.4 94.5674 1066.92 94.5674 1065.1C94.5674 1063.28 93.0853 1061.81 91.2738 1061.81" fill="#F7F5F9"/>
<path fill-rule="evenodd" clip-rule="evenodd" d="M58.2815 1061.81C56.47 1061.81 54.9929 1063.28 54.9929 1065.1C54.9929 1066.92 56.47 1068.4 58.2815 1068.4C60.098 1068.4 61.5801 1066.92 61.5801 1065.1C61.5801 1063.28 60.098 1061.81 58.2815 1061.81" fill="#F7F5F9"/>
<path fill-rule="evenodd" clip-rule="evenodd" d="M25.2943 1061.81C23.4778 1061.81 22.0007 1063.28 22.0007 1065.1C22.0007 1066.92 23.4778 1068.4 25.2943 1068.4C27.1108 1068.4 28.5879 1066.92 28.5879 1065.1C28.5879 1063.28 27.1108 1061.81 25.2943 1061.81" fill="#F7F5F9"/>
<path fill-rule="evenodd" clip-rule="evenodd" d="M190.237 1028.82C188.425 1028.82 186.943 1030.29 186.943 1032.11C186.943 1033.93 188.425 1035.41 190.237 1035.41C192.053 1035.41 193.535 1033.93 193.535 1032.11C193.535 1030.29 192.053 1028.82 190.237 1028.82" fill="#F7F5F9"/>
<path fill-rule="evenodd" clip-rule="evenodd" d="M157.253 1028.82C155.432 1028.82 153.955 1030.29 153.955 1032.11C153.955 1033.93 155.432 1035.41 157.253 1035.41C159.065 1035.41 160.542 1033.93 160.542 1032.11C160.542 1030.29 159.065 1028.82 157.253 1028.82" fill="#F7F5F9"/>
<path fill-rule="evenodd" clip-rule="evenodd" d="M124.261 1028.82C122.445 1028.82 120.967 1030.29 120.967 1032.11C120.967 1033.93 122.445 1035.41 124.261 1035.41C126.078 1035.41 127.555 1033.93 127.555 1032.11C127.555 1030.29 126.078 1028.82 124.261 1028.82" fill="#F7F5F9"/>
<path fill-rule="evenodd" clip-rule="evenodd" d="M91.2738 1028.82C89.4573 1028.82 87.9802 1030.29 87.9802 1032.11C87.9802 1033.93 89.4573 1035.41 91.2738 1035.41C93.0853 1035.41 94.5674 1033.93 94.5674 1032.11C94.5674 1030.29 93.0853 1028.82 91.2738 1028.82" fill="#F7F5F9"/>
<path fill-rule="evenodd" clip-rule="evenodd" d="M58.2815 1028.82C56.47 1028.82 54.9929 1030.29 54.9929 1032.11C54.9929 1033.93 56.47 1035.41 58.2815 1035.41C60.098 1035.41 61.5801 1033.93 61.5801 1032.11C61.5801 1030.29 60.098 1028.82 58.2815 1028.82" fill="#F7F5F9"/>
<path fill-rule="evenodd" clip-rule="evenodd" d="M25.2943 1028.82C23.4778 1028.82 22.0007 1030.29 22.0007 1032.11C22.0007 1033.93 23.4778 1035.41 25.2943 1035.41C27.1108 1035.41 28.5879 1033.93 28.5879 1032.11C28.5879 1030.29 27.1108 1028.82 25.2943 1028.82" fill="#F7F5F9"/>
<path fill-rule="evenodd" clip-rule="evenodd" d="M190.237 995.831C188.425 995.831 186.943 997.308 186.943 999.124C186.943 1000.94 188.425 1002.41 190.237 1002.41C192.053 1002.41 193.535 1000.94 193.535 999.124C193.535 997.308 192.053 995.831 190.237 995.831" fill="#F7F5F9"/>
<path fill-rule="evenodd" clip-rule="evenodd" d="M157.253 995.831C155.432 995.831 153.955 997.308 153.955 999.124C153.955 1000.94 155.432 1002.41 157.253 1002.41C159.065 1002.41 160.542 1000.94 160.542 999.124C160.542 997.308 159.065 995.831 157.253 995.831" fill="#F7F5F9"/>
<path fill-rule="evenodd" clip-rule="evenodd" d="M124.261 995.831C122.445 995.831 120.967 997.308 120.967 999.124C120.967 1000.94 122.445 1002.41 124.261 1002.41C126.078 1002.41 127.555 1000.94 127.555 999.124C127.555 997.308 126.078 995.831 124.261 995.831" fill="#F7F5F9"/>
<path fill-rule="evenodd" clip-rule="evenodd" d="M91.2738 995.831C89.4573 995.831 87.9802 997.308 87.9802 999.124C87.9802 1000.94 89.4573 1002.41 91.2738 1002.41C93.0853 1002.41 94.5674 1000.94 94.5674 999.124C94.5674 997.308 93.0853 995.831 91.2738 995.831" fill="#F7F5F9"/>
<path fill-rule="evenodd" clip-rule="evenodd" d="M58.2815 995.831C56.47 995.831 54.9929 997.308 54.9929 999.124C54.9929 1000.94 56.47 1002.41 58.2815 1002.41C60.098 1002.41 61.5801 1000.94 61.5801 999.124C61.5801 997.308 60.098 995.831 58.2815 995.831" fill="#F7F5F9"/>
<path fill-rule="evenodd" clip-rule="evenodd" d="M25.2943 995.831C23.4778 995.831 22.0007 997.308 22.0007 999.124C22.0007 1000.94 23.4778 1002.41 25.2943 1002.41C27.1108 1002.41 28.5879 1000.94 28.5879 999.124C28.5879 997.308 27.1108 995.831 25.2943 995.831" fill="#F7F5F9"/>
<path fill-rule="evenodd" clip-rule="evenodd" d="M190.237 962.843C188.425 962.843 186.943 964.316 186.943 966.137C186.943 967.954 188.425 969.431 190.237 969.431C192.053 969.431 193.535 967.954 193.535 966.137C193.535 964.316 192.053 962.843 190.237 962.843" fill="#F7F5F9"/>
<path fill-rule="evenodd" clip-rule="evenodd" d="M157.253 962.843C155.432 962.843 153.955 964.316 153.955 966.137C153.955 967.954 155.432 969.431 157.253 969.431C159.065 969.431 160.542 967.954 160.542 966.137C160.542 964.316 159.065 962.843 157.253 962.843" fill="#F7F5F9"/>
<path fill-rule="evenodd" clip-rule="evenodd" d="M124.261 962.843C122.445 962.843 120.967 964.316 120.967 966.137C120.967 967.954 122.445 969.431 124.261 969.431C126.078 969.431 127.555 967.954 127.555 966.137C127.555 964.316 126.078 962.843 124.261 962.843" fill="#F7F5F9"/>
<path fill-rule="evenodd" clip-rule="evenodd" d="M91.2738 962.843C89.4573 962.843 87.9802 964.316 87.9802 966.137C87.9802 967.954 89.4573 969.431 91.2738 969.431C93.0853 969.431 94.5674 967.954 94.5674 966.137C94.5674 964.316 93.0853 962.843 91.2738 962.843" fill="#F7F5F9"/>
<path fill-rule="evenodd" clip-rule="evenodd" d="M58.2815 962.843C56.47 962.843 54.9929 964.316 54.9929 966.137C54.9929 967.954 56.47 969.431 58.2815 969.431C60.098 969.431 61.5801 967.954 61.5801 966.137C61.5801 964.316 60.098 962.843 58.2815 962.843" fill="#F7F5F9"/>
<path fill-rule="evenodd" clip-rule="evenodd" d="M25.2943 962.843C23.4778 962.843 22.0007 964.316 22.0007 966.137C22.0007 967.954 23.4778 969.431 25.2943 969.431C27.1108 969.431 28.5879 967.954 28.5879 966.137C28.5879 964.316 27.1108 962.843 25.2943 962.843" fill="#F7F5F9"/>
<path fill-rule="evenodd" clip-rule="evenodd" d="M190.237 929.851C188.425 929.851 186.943 931.323 186.943 933.144C186.943 934.966 188.425 936.438 190.237 936.438C192.053 936.438 193.535 934.966 193.535 933.144C193.535 931.323 192.053 929.851 190.237 929.851" fill="#F7F5F9"/>
<path fill-rule="evenodd" clip-rule="evenodd" d="M157.253 929.851C155.432 929.851 153.955 931.323 153.955 933.144C153.955 934.966 155.432 936.438 157.253 936.438C159.065 936.438 160.542 934.966 160.542 933.144C160.542 931.323 159.065 929.851 157.253 929.851" fill="#F7F5F9"/>
<path fill-rule="evenodd" clip-rule="evenodd" d="M124.261 929.851C122.445 929.851 120.967 931.323 120.967 933.144C120.967 934.966 122.445 936.438 124.261 936.438C126.078 936.438 127.555 934.966 127.555 933.144C127.555 931.323 126.078 929.851 124.261 929.851" fill="#F7F5F9"/>
<path fill-rule="evenodd" clip-rule="evenodd" d="M91.2738 929.851C89.4573 929.851 87.9802 931.323 87.9802 933.144C87.9802 934.966 89.4573 936.438 91.2738 936.438C93.0853 936.438 94.5674 934.966 94.5674 933.144C94.5674 931.323 93.0853 929.851 91.2738 929.851" fill="#F7F5F9"/>
<path fill-rule="evenodd" clip-rule="evenodd" d="M58.2815 929.851C56.47 929.851 54.9929 931.323 54.9929 933.144C54.9929 934.966 56.47 936.438 58.2815 936.438C60.098 936.438 61.5801 934.966 61.5801 933.144C61.5801 931.323 60.098 929.851 58.2815 929.851" fill="#F7F5F9"/>
<path fill-rule="evenodd" clip-rule="evenodd" d="M25.2943 929.851C23.4778 929.851 22.0007 931.323 22.0007 933.144C22.0007 934.966 23.4778 936.438 25.2943 936.438C27.1108 936.438 28.5879 934.966 28.5879 933.144C28.5879 931.323 27.1108 929.851 25.2943 929.851" fill="#F7F5F9"/>
<path fill-rule="evenodd" clip-rule="evenodd" d="M190.237 896.863C188.425 896.863 186.943 898.34 186.943 900.157C186.943 901.973 188.425 903.45 190.237 903.45C192.053 903.45 193.535 901.973 193.535 900.157C193.535 898.34 192.053 896.863 190.237 896.863" fill="#F7F5F9"/>
<path fill-rule="evenodd" clip-rule="evenodd" d="M157.253 896.863C155.432 896.863 153.955 898.34 153.955 900.157C153.955 901.973 155.432 903.45 157.253 903.45C159.065 903.45 160.542 901.973 160.542 900.157C160.542 898.34 159.065 896.863 157.253 896.863" fill="#F7F5F9"/>
<path fill-rule="evenodd" clip-rule="evenodd" d="M124.261 896.863C122.445 896.863 120.967 898.34 120.967 900.157C120.967 901.973 122.445 903.45 124.261 903.45C126.078 903.45 127.555 901.973 127.555 900.157C127.555 898.34 126.078 896.863 124.261 896.863" fill="#F7F5F9"/>
<path fill-rule="evenodd" clip-rule="evenodd" d="M91.2738 896.863C89.4573 896.863 87.9802 898.34 87.9802 900.157C87.9802 901.973 89.4573 903.45 91.2738 903.45C93.0853 903.45 94.5674 901.973 94.5674 900.157C94.5674 898.34 93.0853 896.863 91.2738 896.863" fill="#F7F5F9"/>
<path fill-rule="evenodd" clip-rule="evenodd" d="M58.2815 896.863C56.47 896.863 54.9929 898.34 54.9929 900.157C54.9929 901.973 56.47 903.45 58.2815 903.45C60.098 903.45 61.5801 901.973 61.5801 900.157C61.5801 898.34 60.098 896.863 58.2815 896.863" fill="#F7F5F9"/>
<path fill-rule="evenodd" clip-rule="evenodd" d="M25.2943 896.863C23.4778 896.863 22.0007 898.34 22.0007 900.157C22.0007 901.973 23.4778 903.45 25.2943 903.45C27.1108 903.45 28.5879 901.973 28.5879 900.157C28.5879 898.34 27.1108 896.863 25.2943 896.863" fill="#F7F5F9"/>
<path fill-rule="evenodd" clip-rule="evenodd" d="M190.237 863.876C188.425 863.876 186.943 865.348 186.943 867.169C186.943 868.991 188.425 870.463 190.237 870.463C192.053 870.463 193.535 868.991 193.535 867.169C193.535 865.348 192.053 863.876 190.237 863.876" fill="#F7F5F9"/>
<path fill-rule="evenodd" clip-rule="evenodd" d="M157.253 863.876C155.432 863.876 153.955 865.348 153.955 867.169C153.955 868.991 155.432 870.463 157.253 870.463C159.065 870.463 160.542 868.991 160.542 867.169C160.542 865.348 159.065 863.876 157.253 863.876" fill="#F7F5F9"/>
<path fill-rule="evenodd" clip-rule="evenodd" d="M124.261 863.876C122.445 863.876 120.967 865.348 120.967 867.169C120.967 868.991 122.445 870.463 124.261 870.463C126.078 870.463 127.555 868.991 127.555 867.169C127.555 865.348 126.078 863.876 124.261 863.876" fill="#F7F5F9"/>
<path fill-rule="evenodd" clip-rule="evenodd" d="M91.2738 863.876C89.4573 863.876 87.9802 865.348 87.9802 867.169C87.9802 868.991 89.4573 870.463 91.2738 870.463C93.0853 870.463 94.5674 868.991 94.5674 867.169C94.5674 865.348 93.0853 863.876 91.2738 863.876" fill="#F7F5F9"/>
<path fill-rule="evenodd" clip-rule="evenodd" d="M58.2815 863.876C56.47 863.876 54.9929 865.348 54.9929 867.169C54.9929 868.991 56.47 870.463 58.2815 870.463C60.098 870.463 61.5801 868.991 61.5801 867.169C61.5801 865.348 60.098 863.876 58.2815 863.876" fill="#F7F5F9"/>
<path fill-rule="evenodd" clip-rule="evenodd" d="M25.2943 863.876C23.4778 863.876 22.0007 865.348 22.0007 867.169C22.0007 868.991 23.4778 870.463 25.2943 870.463C27.1108 870.463 28.5879 868.991 28.5879 867.169C28.5879 865.348 27.1108 863.876 25.2943 863.876" fill="#F7F5F9"/>
<path fill-rule="evenodd" clip-rule="evenodd" d="M190.237 830.883C188.425 830.883 186.943 832.36 186.943 834.177C186.943 835.998 188.425 837.47 190.237 837.47C192.053 837.47 193.535 835.998 193.535 834.177C193.535 832.36 192.053 830.883 190.237 830.883" fill="#F7F5F9"/>
<path fill-rule="evenodd" clip-rule="evenodd" d="M157.253 830.883C155.432 830.883 153.955 832.36 153.955 834.177C153.955 835.998 155.432 837.47 157.253 837.47C159.065 837.47 160.542 835.998 160.542 834.177C160.542 832.36 159.065 830.883 157.253 830.883" fill="#F7F5F9"/>
<path fill-rule="evenodd" clip-rule="evenodd" d="M124.261 830.883C122.445 830.883 120.967 832.36 120.967 834.177C120.967 835.998 122.445 837.47 124.261 837.47C126.078 837.47 127.555 835.998 127.555 834.177C127.555 832.36 126.078 830.883 124.261 830.883" fill="#F7F5F9"/>
<path fill-rule="evenodd" clip-rule="evenodd" d="M91.2738 830.883C89.4573 830.883 87.9802 832.36 87.9802 834.177C87.9802 835.998 89.4573 837.47 91.2738 837.47C93.0853 837.47 94.5674 835.998 94.5674 834.177C94.5674 832.36 93.0853 830.883 91.2738 830.883" fill="#F7F5F9"/>
<path fill-rule="evenodd" clip-rule="evenodd" d="M58.2815 830.883C56.47 830.883 54.9929 832.36 54.9929 834.177C54.9929 835.998 56.47 837.47 58.2815 837.47C60.098 837.47 61.5801 835.998 61.5801 834.177C61.5801 832.36 60.098 830.883 58.2815 830.883" fill="#F7F5F9"/>
<path fill-rule="evenodd" clip-rule="evenodd" d="M25.2943 830.883C23.4778 830.883 22.0007 832.36 22.0007 834.177C22.0007 835.998 23.4778 837.47 25.2943 837.47C27.1108 837.47 28.5879 835.998 28.5879 834.177C28.5879 832.36 27.1108 830.883 25.2943 830.883" fill="#F7F5F9"/>
<path fill-rule="evenodd" clip-rule="evenodd" d="M190.237 797.9C188.425 797.9 186.943 799.372 186.943 801.194C186.943 803.005 188.425 804.487 190.237 804.487C192.053 804.487 193.535 803.005 193.535 801.194C193.535 799.372 192.053 797.9 190.237 797.9" fill="#F7F5F9"/>
<path fill-rule="evenodd" clip-rule="evenodd" d="M157.253 797.9C155.432 797.9 153.955 799.372 153.955 801.194C153.955 803.005 155.432 804.487 157.253 804.487C159.065 804.487 160.542 803.005 160.542 801.194C160.542 799.372 159.065 797.9 157.253 797.9" fill="#F7F5F9"/>
<path fill-rule="evenodd" clip-rule="evenodd" d="M124.261 797.9C122.445 797.9 120.967 799.372 120.967 801.194C120.967 803.005 122.445 804.487 124.261 804.487C126.078 804.487 127.555 803.005 127.555 801.194C127.555 799.372 126.078 797.9 124.261 797.9" fill="#F7F5F9"/>
<path fill-rule="evenodd" clip-rule="evenodd" d="M91.2738 797.9C89.4573 797.9 87.9802 799.372 87.9802 801.194C87.9802 803.005 89.4573 804.487 91.2738 804.487C93.0853 804.487 94.5674 803.005 94.5674 801.194C94.5674 799.372 93.0853 797.9 91.2738 797.9" fill="#F7F5F9"/>
<path fill-rule="evenodd" clip-rule="evenodd" d="M58.2815 797.9C56.47 797.9 54.9929 799.372 54.9929 801.194C54.9929 803.005 56.47 804.487 58.2815 804.487C60.098 804.487 61.5801 803.005 61.5801 801.194C61.5801 799.372 60.098 797.9 58.2815 797.9" fill="#F7F5F9"/>
<path fill-rule="evenodd" clip-rule="evenodd" d="M25.2943 797.9C23.4778 797.9 22.0007 799.372 22.0007 801.194C22.0007 803.005 23.4778 804.487 25.2943 804.487C27.1108 804.487 28.5879 803.005 28.5879 801.194C28.5879 799.372 27.1108 797.9 25.2943 797.9" fill="#F7F5F9"/>
<path fill-rule="evenodd" clip-rule="evenodd" d="M190.237 764.908C188.425 764.908 186.943 766.38 186.943 768.201C186.943 770.023 188.425 771.495 190.237 771.495C192.053 771.495 193.535 770.023 193.535 768.201C193.535 766.38 192.053 764.908 190.237 764.908" fill="#F7F5F9"/>
<path fill-rule="evenodd" clip-rule="evenodd" d="M157.253 764.908C155.432 764.908 153.955 766.38 153.955 768.201C153.955 770.023 155.432 771.495 157.253 771.495C159.065 771.495 160.542 770.023 160.542 768.201C160.542 766.38 159.065 764.908 157.253 764.908" fill="#F7F5F9"/>
<path fill-rule="evenodd" clip-rule="evenodd" d="M124.261 764.908C122.445 764.908 120.967 766.38 120.967 768.201C120.967 770.023 122.445 771.495 124.261 771.495C126.078 771.495 127.555 770.023 127.555 768.201C127.555 766.38 126.078 764.908 124.261 764.908" fill="#F7F5F9"/>
<path fill-rule="evenodd" clip-rule="evenodd" d="M91.2738 764.908C89.4573 764.908 87.9802 766.38 87.9802 768.201C87.9802 770.023 89.4573 771.495 91.2738 771.495C93.0853 771.495 94.5674 770.023 94.5674 768.201C94.5674 766.38 93.0853 764.908 91.2738 764.908" fill="#F7F5F9"/>
<path fill-rule="evenodd" clip-rule="evenodd" d="M58.2815 764.908C56.47 764.908 54.9929 766.38 54.9929 768.201C54.9929 770.023 56.47 771.495 58.2815 771.495C60.098 771.495 61.5801 770.023 61.5801 768.201C61.5801 766.38 60.098 764.908 58.2815 764.908" fill="#F7F5F9"/>
<path fill-rule="evenodd" clip-rule="evenodd" d="M25.2943 764.908C23.4778 764.908 22.0007 766.38 22.0007 768.201C22.0007 770.023 23.4778 771.495 25.2943 771.495C27.1108 771.495 28.5879 770.023 28.5879 768.201C28.5879 766.38 27.1108 764.908 25.2943 764.908" fill="#F7F5F9"/>
<path fill-rule="evenodd" clip-rule="evenodd" d="M190.237 731.92C188.425 731.92 186.943 733.397 186.943 735.209C186.943 737.03 188.425 738.502 190.237 738.502C192.053 738.502 193.535 737.03 193.535 735.209C193.535 733.397 192.053 731.92 190.237 731.92" fill="#F7F5F9"/>
<path fill-rule="evenodd" clip-rule="evenodd" d="M157.253 731.92C155.432 731.92 153.955 733.397 153.955 735.209C153.955 737.03 155.432 738.502 157.253 738.502C159.065 738.502 160.542 737.03 160.542 735.209C160.542 733.397 159.065 731.92 157.253 731.92" fill="#F7F5F9"/>
<path fill-rule="evenodd" clip-rule="evenodd" d="M124.261 731.92C122.445 731.92 120.967 733.397 120.967 735.209C120.967 737.03 122.445 738.502 124.261 738.502C126.078 738.502 127.555 737.03 127.555 735.209C127.555 733.397 126.078 731.92 124.261 731.92" fill="#F7F5F9"/>
<path fill-rule="evenodd" clip-rule="evenodd" d="M91.2738 731.92C89.4573 731.92 87.9802 733.397 87.9802 735.209C87.9802 737.03 89.4573 738.502 91.2738 738.502C93.0853 738.502 94.5674 737.03 94.5674 735.209C94.5674 733.397 93.0853 731.92 91.2738 731.92" fill="#F7F5F9"/>
<path fill-rule="evenodd" clip-rule="evenodd" d="M58.2815 731.92C56.47 731.92 54.9929 733.397 54.9929 735.209C54.9929 737.03 56.47 738.502 58.2815 738.502C60.098 738.502 61.5801 737.03 61.5801 735.209C61.5801 733.397 60.098 731.92 58.2815 731.92" fill="#F7F5F9"/>
<path fill-rule="evenodd" clip-rule="evenodd" d="M25.2943 731.92C23.4778 731.92 22.0007 733.397 22.0007 735.209C22.0007 737.03 23.4778 738.502 25.2943 738.502C27.1108 738.502 28.5879 737.03 28.5879 735.209C28.5879 733.397 27.1108 731.92 25.2943 731.92" fill="#F7F5F9"/>
<path fill-rule="evenodd" clip-rule="evenodd" d="M190.237 698.932C188.425 698.932 186.943 700.404 186.943 702.226C186.943 704.042 188.425 705.52 190.237 705.52C192.053 705.52 193.535 704.042 193.535 702.226C193.535 700.404 192.053 698.932 190.237 698.932" fill="#F7F5F9"/>
<path fill-rule="evenodd" clip-rule="evenodd" d="M157.253 698.932C155.432 698.932 153.955 700.404 153.955 702.226C153.955 704.042 155.432 705.52 157.253 705.52C159.065 705.52 160.542 704.042 160.542 702.226C160.542 700.404 159.065 698.932 157.253 698.932" fill="#F7F5F9"/>
<path fill-rule="evenodd" clip-rule="evenodd" d="M124.261 698.932C122.445 698.932 120.967 700.404 120.967 702.226C120.967 704.042 122.445 705.52 124.261 705.52C126.078 705.52 127.555 704.042 127.555 702.226C127.555 700.404 126.078 698.932 124.261 698.932" fill="#F7F5F9"/>
<path fill-rule="evenodd" clip-rule="evenodd" d="M91.2738 698.932C89.4573 698.932 87.9802 700.404 87.9802 702.226C87.9802 704.042 89.4573 705.52 91.2738 705.52C93.0853 705.52 94.5674 704.042 94.5674 702.226C94.5674 700.404 93.0853 698.932 91.2738 698.932" fill="#F7F5F9"/>
<path fill-rule="evenodd" clip-rule="evenodd" d="M58.2815 698.932C56.47 698.932 54.9929 700.404 54.9929 702.226C54.9929 704.042 56.47 705.52 58.2815 705.52C60.098 705.52 61.5801 704.042 61.5801 702.226C61.5801 700.404 60.098 698.932 58.2815 698.932" fill="#F7F5F9"/>
<path fill-rule="evenodd" clip-rule="evenodd" d="M25.2943 698.932C23.4778 698.932 22.0007 700.404 22.0007 702.226C22.0007 704.042 23.4778 705.52 25.2943 705.52C27.1108 705.52 28.5879 704.042 28.5879 702.226C28.5879 700.404 27.1108 698.932 25.2943 698.932" fill="#F7F5F9"/>
<path fill-rule="evenodd" clip-rule="evenodd" d="M190.237 665.94C188.425 665.94 186.943 667.412 186.943 669.234C186.943 671.055 188.425 672.527 190.237 672.527C192.053 672.527 193.535 671.055 193.535 669.234C193.535 667.412 192.053 665.94 190.237 665.94" fill="#F7F5F9"/>
<path fill-rule="evenodd" clip-rule="evenodd" d="M157.253 665.94C155.432 665.94 153.955 667.412 153.955 669.234C153.955 671.055 155.432 672.527 157.253 672.527C159.065 672.527 160.542 671.055 160.542 669.234C160.542 667.412 159.065 665.94 157.253 665.94" fill="#F7F5F9"/>
<path fill-rule="evenodd" clip-rule="evenodd" d="M124.261 665.94C122.445 665.94 120.967 667.412 120.967 669.234C120.967 671.055 122.445 672.527 124.261 672.527C126.078 672.527 127.555 671.055 127.555 669.234C127.555 667.412 126.078 665.94 124.261 665.94" fill="#F7F5F9"/>
<path fill-rule="evenodd" clip-rule="evenodd" d="M91.2738 665.94C89.4573 665.94 87.9802 667.412 87.9802 669.234C87.9802 671.055 89.4573 672.527 91.2738 672.527C93.0853 672.527 94.5674 671.055 94.5674 669.234C94.5674 667.412 93.0853 665.94 91.2738 665.94" fill="#F7F5F9"/>
<path fill-rule="evenodd" clip-rule="evenodd" d="M58.2815 665.94C56.47 665.94 54.9929 667.412 54.9929 669.234C54.9929 671.055 56.47 672.527 58.2815 672.527C60.098 672.527 61.5801 671.055 61.5801 669.234C61.5801 667.412 60.098 665.94 58.2815 665.94" fill="#F7F5F9"/>
<path fill-rule="evenodd" clip-rule="evenodd" d="M25.2943 665.94C23.4778 665.94 22.0007 667.412 22.0007 669.234C22.0007 671.055 23.4778 672.527 25.2943 672.527C27.1108 672.527 28.5879 671.055 28.5879 669.234C28.5879 667.412 27.1108 665.94 25.2943 665.94" fill="#F7F5F9"/>
<path fill-rule="evenodd" clip-rule="evenodd" d="M190.237 632.952C188.425 632.952 186.943 634.429 186.943 636.246C186.943 638.062 188.425 639.54 190.237 639.54C192.053 639.54 193.535 638.062 193.535 636.246C193.535 634.429 192.053 632.952 190.237 632.952" fill="#F7F5F9"/>
<path fill-rule="evenodd" clip-rule="evenodd" d="M157.253 632.952C155.432 632.952 153.955 634.429 153.955 636.246C153.955 638.062 155.432 639.54 157.253 639.54C159.065 639.54 160.542 638.062 160.542 636.246C160.542 634.429 159.065 632.952 157.253 632.952" fill="#F7F5F9"/>
<path fill-rule="evenodd" clip-rule="evenodd" d="M124.261 632.952C122.445 632.952 120.967 634.429 120.967 636.246C120.967 638.062 122.445 639.54 124.261 639.54C126.078 639.54 127.555 638.062 127.555 636.246C127.555 634.429 126.078 632.952 124.261 632.952" fill="#F7F5F9"/>
<path fill-rule="evenodd" clip-rule="evenodd" d="M91.2738 632.952C89.4573 632.952 87.9802 634.429 87.9802 636.246C87.9802 638.062 89.4573 639.54 91.2738 639.54C93.0853 639.54 94.5674 638.062 94.5674 636.246C94.5674 634.429 93.0853 632.952 91.2738 632.952" fill="#F7F5F9"/>
<path fill-rule="evenodd" clip-rule="evenodd" d="M58.2815 632.952C56.47 632.952 54.9929 634.429 54.9929 636.246C54.9929 638.062 56.47 639.54 58.2815 639.54C60.098 639.54 61.5801 638.062 61.5801 636.246C61.5801 634.429 60.098 632.952 58.2815 632.952" fill="#F7F5F9"/>
<path fill-rule="evenodd" clip-rule="evenodd" d="M25.2943 632.952C23.4778 632.952 22.0007 634.429 22.0007 636.246C22.0007 638.062 23.4778 639.54 25.2943 639.54C27.1108 639.54 28.5879 638.062 28.5879 636.246C28.5879 634.429 27.1108 632.952 25.2943 632.952" fill="#F7F5F9"/>
<path fill-rule="evenodd" clip-rule="evenodd" d="M190.237 599.965C188.425 599.965 186.943 601.437 186.943 603.259C186.943 605.08 188.425 606.552 190.237 606.552C192.053 606.552 193.535 605.08 193.535 603.259C193.535 601.437 192.053 599.965 190.237 599.965" fill="#F7F5F9"/>
<path fill-rule="evenodd" clip-rule="evenodd" d="M157.253 599.965C155.432 599.965 153.955 601.437 153.955 603.259C153.955 605.08 155.432 606.552 157.253 606.552C159.065 606.552 160.542 605.08 160.542 603.259C160.542 601.437 159.065 599.965 157.253 599.965" fill="#F7F5F9"/>
<path fill-rule="evenodd" clip-rule="evenodd" d="M124.261 599.965C122.445 599.965 120.967 601.437 120.967 603.259C120.967 605.08 122.445 606.552 124.261 606.552C126.078 606.552 127.555 605.08 127.555 603.259C127.555 601.437 126.078 599.965 124.261 599.965" fill="#F7F5F9"/>
<path fill-rule="evenodd" clip-rule="evenodd" d="M91.2738 599.965C89.4573 599.965 87.9802 601.437 87.9802 603.259C87.9802 605.08 89.4573 606.552 91.2738 606.552C93.0853 606.552 94.5674 605.08 94.5674 603.259C94.5674 601.437 93.0853 599.965 91.2738 599.965" fill="#F7F5F9"/>
<path fill-rule="evenodd" clip-rule="evenodd" d="M58.2815 599.965C56.47 599.965 54.9929 601.437 54.9929 603.259C54.9929 605.08 56.47 606.552 58.2815 606.552C60.098 606.552 61.5801 605.08 61.5801 603.259C61.5801 601.437 60.098 599.965 58.2815 599.965" fill="#F7F5F9"/>
<path fill-rule="evenodd" clip-rule="evenodd" d="M25.2943 599.965C23.4778 599.965 22.0007 601.437 22.0007 603.259C22.0007 605.08 23.4778 606.552 25.2943 606.552C27.1108 606.552 28.5879 605.08 28.5879 603.259C28.5879 601.437 27.1108 599.965 25.2943 599.965" fill="#F7F5F9"/>
<path fill-rule="evenodd" clip-rule="evenodd" d="M90.7014 567.413C88.8899 567.413 87.4078 568.89 87.4078 570.706C87.4078 572.528 88.8899 574 90.7014 574C92.5179 574 94 572.528 94 570.706C94 568.89 92.5179 567.413 90.7014 567.413" fill="#F7F5F9"/>
<path fill-rule="evenodd" clip-rule="evenodd" d="M157.253 566.972C155.432 566.972 153.955 568.449 153.955 570.266C153.955 572.087 155.432 573.559 157.253 573.559C159.065 573.559 160.542 572.087 160.542 570.266C160.542 568.449 159.065 566.972 157.253 566.972" fill="#F7F5F9"/>
<path fill-rule="evenodd" clip-rule="evenodd" d="M124.261 566.972C122.445 566.972 120.967 568.449 120.967 570.266C120.967 572.087 122.445 573.559 124.261 573.559C126.078 573.559 127.555 572.087 127.555 570.266C127.555 568.449 126.078 566.972 124.261 566.972" fill="#F7F5F9"/>
<path fill-rule="evenodd" clip-rule="evenodd" d="M91.2738 566.972C89.4573 566.972 87.9802 568.449 87.9802 570.266C87.9802 572.087 89.4573 573.559 91.2738 573.559C93.0853 573.559 94.5674 572.087 94.5674 570.266C94.5674 568.449 93.0853 566.972 91.2738 566.972" fill="#F7F5F9"/>
<path fill-rule="evenodd" clip-rule="evenodd" d="M57.7014 567.413C55.8899 567.413 54.4128 568.89 54.4128 570.706C54.4128 572.528 55.8899 574 57.7014 574C59.5179 574 61 572.528 61 570.706C61 568.89 59.5179 567.413 57.7014 567.413" fill="#F7F5F9"/>
<path fill-rule="evenodd" clip-rule="evenodd" d="M25.2943 567.413C23.4778 567.413 22.0007 568.89 22.0007 570.706C22.0007 572.528 23.4778 574 25.2943 574C27.1108 574 28.5879 572.528 28.5879 570.706C28.5879 568.89 27.1108 567.413 25.2943 567.413" fill="#F7F5F9"/>
<path fill-rule="evenodd" clip-rule="evenodd" d="M190.237 533.99C188.425 533.99 186.943 535.462 186.943 537.284C186.943 539.095 188.425 540.577 190.237 540.577C192.053 540.577 193.535 539.095 193.535 537.284C193.535 535.462 192.053 533.99 190.237 533.99" fill="#F7F5F9"/>
<path fill-rule="evenodd" clip-rule="evenodd" d="M157.253 533.99C155.432 533.99 153.955 535.462 153.955 537.284C153.955 539.095 155.432 540.577 157.253 540.577C159.065 540.577 160.542 539.095 160.542 537.284C160.542 535.462 159.065 533.99 157.253 533.99" fill="#F7F5F9"/>
<path fill-rule="evenodd" clip-rule="evenodd" d="M124.261 533.99C122.445 533.99 120.967 535.462 120.967 537.284C120.967 539.095 122.445 540.577 124.261 540.577C126.078 540.577 127.555 539.095 127.555 537.284C127.555 535.462 126.078 533.99 124.261 533.99" fill="#F7F5F9"/>
<path fill-rule="evenodd" clip-rule="evenodd" d="M91.2738 533.99C89.4573 533.99 87.9802 535.462 87.9802 537.284C87.9802 539.095 89.4573 540.577 91.2738 540.577C93.0853 540.577 94.5674 539.095 94.5674 537.284C94.5674 535.462 93.0853 533.99 91.2738 533.99" fill="#F7F5F9"/>
<path fill-rule="evenodd" clip-rule="evenodd" d="M58.2815 533.99C56.47 533.99 54.9929 535.462 54.9929 537.284C54.9929 539.095 56.47 540.577 58.2815 540.577C60.098 540.577 61.5801 539.095 61.5801 537.284C61.5801 535.462 60.098 533.99 58.2815 533.99" fill="#F7F5F9"/>
<path fill-rule="evenodd" clip-rule="evenodd" d="M25.2943 533.99C23.4778 533.99 22.0007 535.462 22.0007 537.284C22.0007 539.095 23.4778 540.577 25.2943 540.577C27.1108 540.577 28.5879 539.095 28.5879 537.284C28.5879 535.462 27.1108 533.99 25.2943 533.99" fill="#F7F5F9"/>
<path fill-rule="evenodd" clip-rule="evenodd" d="M156.701 501.413C154.89 501.413 153.408 502.885 153.408 504.706C153.408 506.528 154.89 508 156.701 508C158.518 508 160 506.528 160 504.706C160 502.885 158.518 501.413 156.701 501.413" fill="#F7F5F9"/>
<path fill-rule="evenodd" clip-rule="evenodd" d="M123.711 501.413C121.89 501.413 120.413 502.885 120.413 504.706C120.413 506.528 121.89 508 123.711 508C125.523 508 127 506.528 127 504.706C127 502.885 125.523 501.413 123.711 501.413" fill="#F7F5F9"/>
<path fill-rule="evenodd" clip-rule="evenodd" d="M90.7064 501.413C88.8899 501.413 87.4128 502.885 87.4128 504.706C87.4128 506.528 88.8899 508 90.7064 508C92.5229 508 94 506.528 94 504.706C94 502.885 92.5229 501.413 90.7064 501.413" fill="#F7F5F9"/>
<path fill-rule="evenodd" clip-rule="evenodd" d="M57.7064 501.413C55.8899 501.413 54.4128 502.885 54.4128 504.706C54.4128 506.528 55.8899 508 57.7064 508C59.5179 508 61 506.528 61 504.706C61 502.885 59.5179 501.413 57.7064 501.413" fill="#F7F5F9"/>
<path fill-rule="evenodd" clip-rule="evenodd" d="M58.2815 500.997C56.47 500.997 54.9929 502.469 54.9929 504.29C54.9929 506.112 56.47 507.584 58.2815 507.584C60.098 507.584 61.5801 506.112 61.5801 504.29C61.5801 502.469 60.098 500.997 58.2815 500.997" fill="#F7F5F9"/>
<path fill-rule="evenodd" clip-rule="evenodd" d="M25.2943 501.413C23.4778 501.413 22.0007 502.885 22.0007 504.706C22.0007 506.528 23.4778 508 25.2943 508C27.1108 508 28.5879 506.528 28.5879 504.706C28.5879 502.885 27.1108 501.413 25.2943 501.413" fill="#F7F5F9"/>
<mask id="mask0" mask-type="alpha" maskUnits="userSpaceOnUse" x="0" y="70" width="207" height="16">
<path fill-rule="evenodd" clip-rule="evenodd" d="M207 85.6509H0.610286V70.4754H207V85.6509Z" fill="white"/>
</mask>
<g mask="url(#mask0)">
<path fill-rule="evenodd" clip-rule="evenodd" d="M75.0288 85.6509H75.0228C68.8443 85.6509 63.0666 83.4701 58.7542 79.5128C55.4287 76.4637 51.0087 74.787 46.3015 74.787V74.787C41.5944 74.787 37.1684 76.4637 33.8429 79.5128C29.5245 83.4701 23.7408 85.6509 17.5623 85.6509H17.5503C11.3719 85.6509 5.59412 83.4701 1.28174 79.5128C0.324762 78.6295 0.396526 77.2622 1.46116 76.4637C2.51384 75.6703 4.15267 75.7302 5.10964 76.6085C8.42916 79.6575 12.8492 81.3343 17.5503 81.3343H17.5623C22.2635 81.3343 26.6895 79.6575 30.021 76.6085C34.3393 72.6512 40.123 70.4754 46.3015 70.4754V70.4754C52.486 70.4754 58.2637 72.6512 62.5821 76.6085C65.9016 79.6575 70.3157 81.3343 75.0228 81.3343H75.0288C79.7359 81.3343 84.1619 79.6575 87.4934 76.6085C91.8118 72.6512 97.5895 70.4754 103.774 70.4754H103.78C109.958 70.4754 115.742 72.6512 120.061 76.6085C126.718 82.7066 138.327 82.7066 144.996 76.6085C149.308 72.6512 155.098 70.4754 161.282 70.4754V70.4754C167.467 70.4754 173.257 72.6512 177.575 76.6085C180.894 79.6575 185.32 81.3343 190.034 81.3343H190.039C194.747 81.3343 199.173 79.6575 202.504 76.6085C203.473 75.7302 205.106 75.6603 206.159 76.4687C207.211 77.2672 207.289 78.6345 206.326 79.5128C202.002 83.4701 196.218 85.6509 190.039 85.6509H190.034C183.849 85.6509 178.065 83.4701 173.741 79.5128C170.421 76.4637 165.995 74.787 161.282 74.787V74.787C156.569 74.787 152.143 76.4637 148.812 79.5128C140.175 87.4224 124.875 87.4224 116.239 79.5128C112.907 76.4637 108.487 74.787 103.78 74.787H103.774C99.0669 74.787 94.6468 76.4637 91.3094 79.5128C86.991 83.4701 81.2132 85.6509 75.0288 85.6509" fill="#F7F5F9"/>
</g>
<path fill-rule="evenodd" clip-rule="evenodd" d="M75.0278 50.3491H75.0218C68.8433 50.3491 63.0656 48.1684 58.7532 44.2111C55.4277 41.162 51.0077 39.4852 46.3006 39.4852V39.4852C41.5934 39.4852 37.1674 41.162 33.8419 44.2111C29.5235 48.1684 23.7398 50.3491 17.5613 50.3491H17.5494C11.3709 50.3491 5.59314 48.1684 1.28076 44.2111C0.323785 43.3278 0.39555 41.9604 1.46019 41.162C2.51286 40.3685 4.15169 40.4284 5.10867 41.3067C8.42818 44.3558 12.8482 46.0325 17.5494 46.0325H17.5613C22.2625 46.0325 26.6885 44.3558 30.02 41.3067C34.3383 37.3494 40.1221 35.1736 46.3006 35.1736V35.1736C52.485 35.1736 58.2628 37.3494 62.5811 41.3067C65.9006 44.3558 70.3147 46.0325 75.0218 46.0325H75.0278C79.7349 46.0325 84.161 44.3558 87.4924 41.3067C91.8108 37.3494 97.5885 35.1736 103.773 35.1736H103.779C109.957 35.1736 115.741 37.3494 120.06 41.3067C126.717 47.4048 138.326 47.4048 144.995 41.3067C149.307 37.3494 155.097 35.1736 161.281 35.1736V35.1736C167.466 35.1736 173.256 37.3494 177.574 41.3067C180.893 44.3558 185.319 46.0325 190.033 46.0325H190.039C194.746 46.0325 199.172 44.3558 202.503 41.3067C203.472 40.4284 205.105 40.3586 206.158 41.167C207.21 41.9654 207.288 43.3328 206.325 44.2111C202.001 48.1684 196.217 50.3491 190.039 50.3491H190.033C183.848 50.3491 178.064 48.1684 173.74 44.2111C170.42 41.162 165.994 39.4852 161.281 39.4852V39.4852C156.568 39.4852 152.142 41.162 148.811 44.2111C140.174 52.1207 124.874 52.1207 116.238 44.2111C112.906 41.162 108.486 39.4852 103.779 39.4852H103.773C99.0659 39.4852 94.6458 41.162 91.3084 44.2111C86.99 48.1684 81.2123 50.3491 75.0278 50.3491" fill="#F7F5F9"/>
<path fill-rule="evenodd" clip-rule="evenodd" d="M75.0278 15.1755H75.0218C68.8433 15.1755 63.0656 12.9948 58.7532 9.03747C55.4277 5.9884 51.0077 4.31166 46.3006 4.31166V4.31166C41.5934 4.31166 37.1674 5.9884 33.8419 9.03747C29.5235 12.9948 23.7398 15.1755 17.5613 15.1755H17.5494C11.3709 15.1755 5.59314 12.9948 1.28076 9.03747C0.323785 8.15419 0.39555 6.78685 1.46019 5.9884C2.51286 5.19495 4.15169 5.25483 5.10867 6.13312C8.42818 9.18219 12.8482 10.8589 17.5494 10.8589H17.5613C22.2625 10.8589 26.6885 9.18219 30.02 6.13312C34.3383 2.17582 40.1221 5.00542e-05 46.3006 5.00542e-05V5.00542e-05C52.485 5.00542e-05 58.2628 2.17582 62.5811 6.13312C65.9006 9.18219 70.3147 10.8589 75.0218 10.8589H75.0278C79.7349 10.8589 84.161 9.18219 87.4924 6.13312C91.8108 2.17582 97.5885 5.00542e-05 103.773 5.00542e-05H103.779C109.957 5.00542e-05 115.741 2.17582 120.06 6.13312C126.717 12.2313 138.326 12.2313 144.995 6.13312C149.307 2.17582 155.097 5.00542e-05 161.281 5.00542e-05V5.00542e-05C167.466 5.00542e-05 173.256 2.17582 177.574 6.13312C180.893 9.18219 185.319 10.8589 190.033 10.8589H190.039C194.746 10.8589 199.172 9.18219 202.503 6.13312C203.472 5.25483 205.105 5.18497 206.158 5.99339C207.21 6.79184 207.288 8.15918 206.325 9.03747C202.001 12.9948 196.217 15.1755 190.039 15.1755H190.033C183.848 15.1755 178.064 12.9948 173.74 9.03747C170.42 5.9884 165.994 4.31166 161.281 4.31166V4.31166C156.568 4.31166 152.142 5.9884 148.811 9.03747C140.174 16.9471 124.874 16.9471 116.238 9.03747C112.906 5.9884 108.486 4.31166 103.779 4.31166H103.773C99.0659 4.31166 94.6458 5.9884 91.3084 9.03747C86.99 12.9948 81.2123 15.1755 75.0278 15.1755" fill="#F7F5F9"/>
<mask id="mask1" mask-type="alpha" maskUnits="userSpaceOnUse" x="0" y="1113" width="207" height="16">
<path fill-rule="evenodd" clip-rule="evenodd" d="M207 1113.7H0.610291V1128.87H207V1113.7Z" fill="white"/>
</mask>
<g mask="url(#mask1)">
<path fill-rule="evenodd" clip-rule="evenodd" d="M75.0288 1113.7H75.0228C68.8443 1113.7 63.0666 1115.88 58.7542 1119.84C55.4287 1122.89 51.0087 1124.56 46.3015 1124.56C41.5944 1124.56 37.1684 1122.89 33.8429 1119.84C29.5245 1115.88 23.7408 1113.7 17.5623 1113.7H17.5503C11.3719 1113.7 5.59412 1115.88 1.28174 1119.84C0.324768 1120.72 0.39653 1122.09 1.46117 1122.89C2.51384 1123.68 4.15266 1123.62 5.10965 1122.74C8.42915 1119.69 12.8492 1118.01 17.5503 1118.01H17.5623C22.2635 1118.01 26.6895 1119.69 30.021 1122.74C34.3393 1126.7 40.123 1128.87 46.3015 1128.87C52.486 1128.87 58.2637 1126.7 62.5821 1122.74C65.9016 1119.69 70.3157 1118.01 75.0228 1118.01H75.0288C79.7359 1118.01 84.1619 1119.69 87.4934 1122.74C91.8118 1126.7 97.5895 1128.87 103.774 1128.87H103.78C109.958 1128.87 115.742 1126.7 120.061 1122.74C126.718 1116.64 138.327 1116.64 144.996 1122.74C149.308 1126.7 155.098 1128.87 161.282 1128.87C167.467 1128.87 173.257 1126.7 177.575 1122.74C180.894 1119.69 185.32 1118.01 190.034 1118.01H190.039C194.747 1118.01 199.173 1119.69 202.504 1122.74C203.473 1123.62 205.106 1123.69 206.159 1122.88C207.211 1122.08 207.289 1120.71 206.326 1119.84C202.002 1115.88 196.218 1113.7 190.039 1113.7H190.034C183.849 1113.7 178.065 1115.88 173.741 1119.84C170.421 1122.89 165.995 1124.56 161.282 1124.56C156.569 1124.56 152.143 1122.89 148.812 1119.84C140.175 1111.93 124.875 1111.93 116.239 1119.84C112.907 1122.89 108.487 1124.56 103.78 1124.56H103.774C99.0669 1124.56 94.6468 1122.89 91.3094 1119.84C86.991 1115.88 81.2132 1113.7 75.0288 1113.7Z" fill="#F7F5F9"/>
</g>
<path fill-rule="evenodd" clip-rule="evenodd" d="M75.0278 1149H75.0218C68.8434 1149 63.0656 1151.18 58.7532 1155.14C55.4277 1158.19 51.0077 1159.86 46.3006 1159.86C41.5934 1159.86 37.1674 1158.19 33.8419 1155.14C29.5235 1151.18 23.7398 1149 17.5613 1149H17.5494C11.3709 1149 5.59314 1151.18 1.28076 1155.14C0.323785 1156.02 0.395553 1157.39 1.46019 1158.19C2.51286 1158.98 4.1517 1158.92 5.10867 1158.04C8.42819 1154.99 12.8482 1153.32 17.5494 1153.32H17.5613C22.2625 1153.32 26.6885 1154.99 30.02 1158.04C34.3383 1162 40.1221 1164.17 46.3006 1164.17C52.485 1164.17 58.2628 1162 62.5811 1158.04C65.9006 1154.99 70.3147 1153.32 75.0218 1153.32H75.0278C79.7349 1153.32 84.161 1154.99 87.4924 1158.04C91.8108 1162 97.5885 1164.17 103.773 1164.17H103.779C109.957 1164.17 115.741 1162 120.06 1158.04C126.717 1151.94 138.326 1151.94 144.995 1158.04C149.307 1162 155.097 1164.17 161.281 1164.17C167.466 1164.17 173.256 1162 177.574 1158.04C180.893 1154.99 185.319 1153.32 190.033 1153.32H190.039C194.746 1153.32 199.172 1154.99 202.503 1158.04C203.472 1158.92 205.105 1158.99 206.158 1158.18C207.21 1157.38 207.288 1156.02 206.325 1155.14C202.001 1151.18 196.217 1149 190.039 1149H190.033C183.848 1149 178.064 1151.18 173.74 1155.14C170.42 1158.19 165.994 1159.86 161.281 1159.86C156.568 1159.86 152.142 1158.19 148.811 1155.14C140.174 1147.23 124.874 1147.23 116.238 1155.14C112.906 1158.19 108.486 1159.86 103.779 1159.86H103.773C99.0659 1159.86 94.6458 1158.19 91.3084 1155.14C86.99 1151.18 81.2123 1149 75.0278 1149Z" fill="#F7F5F9"/>
<path fill-rule="evenodd" clip-rule="evenodd" d="M75.0278 1184.17H75.0218C68.8434 1184.17 63.0656 1186.35 58.7532 1190.31C55.4277 1193.36 51.0077 1195.04 46.3006 1195.04C41.5934 1195.04 37.1674 1193.36 33.8419 1190.31C29.5235 1186.35 23.7398 1184.17 17.5613 1184.17H17.5494C11.3709 1184.17 5.59314 1186.35 1.28076 1190.31C0.323792 1191.19 0.395554 1192.56 1.46019 1193.36C2.51286 1194.15 4.15169 1194.09 5.10867 1193.21C8.42818 1190.17 12.8482 1188.49 17.5494 1188.49H17.5613C22.2625 1188.49 26.6885 1190.17 30.02 1193.21C34.3383 1197.17 40.1221 1199.35 46.3006 1199.35C52.485 1199.35 58.2628 1197.17 62.5811 1193.21C65.9006 1190.17 70.3147 1188.49 75.0218 1188.49H75.0278C79.7349 1188.49 84.161 1190.17 87.4924 1193.21C91.8108 1197.17 97.5885 1199.35 103.773 1199.35H103.779C109.957 1199.35 115.741 1197.17 120.06 1193.21C126.717 1187.12 138.326 1187.12 144.995 1193.21C149.307 1197.17 155.097 1199.35 161.281 1199.35C167.466 1199.35 173.256 1197.17 177.574 1193.21C180.893 1190.17 185.319 1188.49 190.033 1188.49H190.039C194.746 1188.49 199.172 1190.17 202.503 1193.21C203.472 1194.09 205.105 1194.16 206.158 1193.35C207.21 1192.56 207.288 1191.19 206.325 1190.31C202.001 1186.35 196.217 1184.17 190.039 1184.17H190.033C183.848 1184.17 178.064 1186.35 173.74 1190.31C170.42 1193.36 165.994 1195.04 161.281 1195.04C156.568 1195.04 152.142 1193.36 148.811 1190.31C140.174 1182.4 124.874 1182.4 116.238 1190.31C112.906 1193.36 108.486 1195.04 103.779 1195.04H103.773C99.0659 1195.04 94.6458 1193.36 91.3084 1190.31C86.99 1186.35 81.2123 1184.17 75.0278 1184.17Z" fill="#F7F5F9"/>
<mask id="mask2" mask-type="alpha" maskUnits="userSpaceOnUse" x="0" y="1399" width="207" height="16">
<path fill-rule="evenodd" clip-rule="evenodd" d="M207 1399.7H0.610291V1414.87H207V1399.7Z" fill="white"/>
</mask>
<g mask="url(#mask2)">
<path fill-rule="evenodd" clip-rule="evenodd" d="M75.0288 1399.7H75.0228C68.8443 1399.7 63.0666 1401.88 58.7542 1405.84C55.4287 1408.89 51.0087 1410.56 46.3015 1410.56C41.5944 1410.56 37.1684 1408.89 33.8429 1405.84C29.5245 1401.88 23.7408 1399.7 17.5623 1399.7H17.5503C11.3719 1399.7 5.59412 1401.88 1.28174 1405.84C0.324768 1406.72 0.39653 1408.09 1.46117 1408.89C2.51384 1409.68 4.15266 1409.62 5.10965 1408.74C8.42915 1405.69 12.8492 1404.01 17.5503 1404.01H17.5623C22.2635 1404.01 26.6895 1405.69 30.021 1408.74C34.3393 1412.7 40.123 1414.87 46.3015 1414.87C52.486 1414.87 58.2637 1412.7 62.5821 1408.74C65.9016 1405.69 70.3157 1404.01 75.0228 1404.01H75.0288C79.7359 1404.01 84.1619 1405.69 87.4934 1408.74C91.8118 1412.7 97.5895 1414.87 103.774 1414.87H103.78C109.958 1414.87 115.742 1412.7 120.061 1408.74C126.718 1402.64 138.327 1402.64 144.996 1408.74C149.308 1412.7 155.098 1414.87 161.282 1414.87C167.467 1414.87 173.257 1412.7 177.575 1408.74C180.894 1405.69 185.32 1404.01 190.034 1404.01H190.039C194.747 1404.01 199.173 1405.69 202.504 1408.74C203.473 1409.62 205.106 1409.69 206.159 1408.88C207.211 1408.08 207.289 1406.71 206.326 1405.84C202.002 1401.88 196.218 1399.7 190.039 1399.7H190.034C183.849 1399.7 178.065 1401.88 173.741 1405.84C170.421 1408.89 165.995 1410.56 161.282 1410.56C156.569 1410.56 152.143 1408.89 148.812 1405.84C140.175 1397.93 124.875 1397.93 116.239 1405.84C112.907 1408.89 108.487 1410.56 103.78 1410.56H103.774C99.0669 1410.56 94.6468 1408.89 91.3094 1405.84C86.991 1401.88 81.2132 1399.7 75.0288 1399.7Z" fill="#F7F5F9"/>
</g>
<path fill-rule="evenodd" clip-rule="evenodd" d="M75.0278 1435H75.0218C68.8434 1435 63.0656 1437.18 58.7532 1441.14C55.4277 1444.19 51.0077 1445.86 46.3006 1445.86C41.5934 1445.86 37.1674 1444.19 33.8419 1441.14C29.5235 1437.18 23.7398 1435 17.5613 1435H17.5494C11.3709 1435 5.59314 1437.18 1.28076 1441.14C0.323792 1442.02 0.395554 1443.39 1.46019 1444.19C2.51286 1444.98 4.15169 1444.92 5.10867 1444.04C8.42818 1440.99 12.8482 1439.32 17.5494 1439.32H17.5613C22.2625 1439.32 26.6885 1440.99 30.02 1444.04C34.3383 1448 40.1221 1450.17 46.3006 1450.17C52.485 1450.17 58.2628 1448 62.5811 1444.04C65.9006 1440.99 70.3147 1439.32 75.0218 1439.32H75.0278C79.7349 1439.32 84.161 1440.99 87.4924 1444.04C91.8108 1448 97.5885 1450.17 103.773 1450.17H103.779C109.957 1450.17 115.741 1448 120.06 1444.04C126.717 1437.94 138.326 1437.94 144.995 1444.04C149.307 1448 155.097 1450.17 161.281 1450.17C167.466 1450.17 173.256 1448 177.574 1444.04C180.893 1440.99 185.319 1439.32 190.033 1439.32H190.039C194.746 1439.32 199.172 1440.99 202.503 1444.04C203.472 1444.92 205.105 1444.99 206.158 1444.18C207.21 1443.38 207.288 1442.02 206.325 1441.14C202.001 1437.18 196.217 1435 190.039 1435H190.033C183.848 1435 178.064 1437.18 173.74 1441.14C170.42 1444.19 165.994 1445.86 161.281 1445.86C156.568 1445.86 152.142 1444.19 148.811 1441.14C140.174 1433.23 124.874 1433.23 116.238 1441.14C112.906 1444.19 108.486 1445.86 103.779 1445.86H103.773C99.0659 1445.86 94.6458 1444.19 91.3084 1441.14C86.99 1437.18 81.2123 1435 75.0278 1435Z" fill="#F7F5F9"/>
<path fill-rule="evenodd" clip-rule="evenodd" d="M75.0278 1470.17H75.0218C68.8434 1470.17 63.0656 1472.35 58.7532 1476.31C55.4277 1479.36 51.0077 1481.04 46.3006 1481.04C41.5934 1481.04 37.1674 1479.36 33.8419 1476.31C29.5235 1472.35 23.7398 1470.17 17.5613 1470.17H17.5494C11.3709 1470.17 5.59314 1472.35 1.28076 1476.31C0.323792 1477.19 0.395554 1478.56 1.46019 1479.36C2.51286 1480.15 4.15169 1480.09 5.10867 1479.21C8.42818 1476.17 12.8482 1474.49 17.5494 1474.49H17.5613C22.2625 1474.49 26.6885 1476.17 30.02 1479.21C34.3383 1483.17 40.1221 1485.35 46.3006 1485.35C52.485 1485.35 58.2628 1483.17 62.5811 1479.21C65.9006 1476.17 70.3147 1474.49 75.0218 1474.49H75.0278C79.7349 1474.49 84.161 1476.17 87.4924 1479.21C91.8108 1483.17 97.5885 1485.35 103.773 1485.35H103.779C109.957 1485.35 115.741 1483.17 120.06 1479.21C126.717 1473.12 138.326 1473.12 144.995 1479.21C149.307 1483.17 155.097 1485.35 161.281 1485.35C167.466 1485.35 173.256 1483.17 177.574 1479.21C180.893 1476.17 185.319 1474.49 190.033 1474.49H190.039C194.746 1474.49 199.172 1476.17 202.503 1479.21C203.472 1480.09 205.105 1480.16 206.158 1479.35C207.21 1478.56 207.288 1477.19 206.325 1476.31C202.001 1472.35 196.217 1470.17 190.039 1470.17H190.033C183.848 1470.17 178.064 1472.35 173.74 1476.31C170.42 1479.36 165.994 1481.04 161.281 1481.04C156.568 1481.04 152.142 1479.36 148.811 1476.31C140.174 1468.4 124.874 1468.4 116.238 1476.31C112.906 1479.36 108.486 1481.04 103.779 1481.04H103.773C99.0659 1481.04 94.6458 1479.36 91.3084 1476.31C86.99 1472.35 81.2123 1470.17 75.0278 1470.17Z" fill="#F7F5F9"/>
</svg>
