<svg width="1400" height="902" viewBox="0 0 1400 902" fill="none" xmlns="http://www.w3.org/2000/svg">
<g opacity="0.456808">
<path fill-rule="evenodd" clip-rule="evenodd" d="M1250.76 6.58719C1252.57 6.58719 1254.06 5.11006 1254.06 3.2936C1254.06 1.47214 1252.57 0 1250.76 0C1248.95 0 1247.46 1.47214 1247.46 3.2936C1247.46 5.11006 1248.95 6.58719 1250.76 6.58719Z" fill="#F7F5F9"/>
<path fill-rule="evenodd" clip-rule="evenodd" d="M1283.75 6.58719C1285.57 6.58719 1287.05 5.11006 1287.05 3.2936C1287.05 1.47214 1285.57 0 1283.75 0C1281.94 0 1280.46 1.47214 1280.46 3.2936C1280.46 5.11006 1281.94 6.58719 1283.75 6.58719Z" fill="#F7F5F9"/>
<path fill-rule="evenodd" clip-rule="evenodd" d="M1316.74 6.58719C1318.56 6.58719 1320.03 5.11006 1320.03 3.2936C1320.03 1.47214 1318.56 0 1316.74 0C1314.92 0 1313.45 1.47214 1313.45 3.2936C1313.45 5.11006 1314.92 6.58719 1316.74 6.58719Z" fill="#F7F5F9"/>
<path fill-rule="evenodd" clip-rule="evenodd" d="M1349.73 6.58719C1351.54 6.58719 1353.02 5.11006 1353.02 3.2936C1353.02 1.47214 1351.54 0 1349.73 0C1347.92 0 1346.43 1.47214 1346.43 3.2936C1346.43 5.11006 1347.92 6.58719 1349.73 6.58719Z" fill="#F7F5F9"/>
<path fill-rule="evenodd" clip-rule="evenodd" d="M1382.72 6.58719C1384.53 6.58719 1386.01 5.11006 1386.01 3.2936C1386.01 1.47214 1384.53 0 1382.72 0C1380.9 0 1379.42 1.47214 1379.42 3.2936C1379.42 5.11006 1380.9 6.58719 1382.72 6.58719Z" fill="#F7F5F9"/>
<path fill-rule="evenodd" clip-rule="evenodd" d="M1250.76 39.5701C1252.57 39.5701 1254.06 38.098 1254.06 36.2765C1254.06 34.46 1252.57 32.9829 1250.76 32.9829C1248.95 32.9829 1247.46 34.46 1247.46 36.2765C1247.46 38.098 1248.95 39.5701 1250.76 39.5701Z" fill="#F7F5F9"/>
<path fill-rule="evenodd" clip-rule="evenodd" d="M1283.75 39.5701C1285.57 39.5701 1287.05 38.098 1287.05 36.2765C1287.05 34.46 1285.57 32.9829 1283.75 32.9829C1281.94 32.9829 1280.46 34.46 1280.46 36.2765C1280.46 38.098 1281.94 39.5701 1283.75 39.5701Z" fill="#F7F5F9"/>
<path fill-rule="evenodd" clip-rule="evenodd" d="M1316.74 39.5701C1318.56 39.5701 1320.03 38.098 1320.03 36.2765C1320.03 34.46 1318.56 32.9829 1316.74 32.9829C1314.92 32.9829 1313.45 34.46 1313.45 36.2765C1313.45 38.098 1314.92 39.5701 1316.74 39.5701Z" fill="#F7F5F9"/>
<path fill-rule="evenodd" clip-rule="evenodd" d="M1349.73 39.5701C1351.54 39.5701 1353.02 38.098 1353.02 36.2765C1353.02 34.46 1351.54 32.9829 1349.73 32.9829C1347.92 32.9829 1346.43 34.46 1346.43 36.2765C1346.43 38.098 1347.92 39.5701 1349.73 39.5701Z" fill="#F7F5F9"/>
<path fill-rule="evenodd" clip-rule="evenodd" d="M1382.72 39.5701C1384.53 39.5701 1386.01 38.098 1386.01 36.2765C1386.01 34.46 1384.53 32.9829 1382.72 32.9829C1380.9 32.9829 1379.42 34.46 1379.42 36.2765C1379.42 38.098 1380.9 39.5701 1382.72 39.5701Z" fill="#F7F5F9"/>
<path fill-rule="evenodd" clip-rule="evenodd" d="M1250.76 72.5623C1252.57 72.5623 1254.06 71.0902 1254.06 69.2687C1254.06 67.4472 1252.57 65.9751 1250.76 65.9751C1248.95 65.9751 1247.46 67.4472 1247.46 69.2687C1247.46 71.0902 1248.95 72.5623 1250.76 72.5623Z" fill="#F7F5F9"/>
<path fill-rule="evenodd" clip-rule="evenodd" d="M1283.75 72.5623C1285.57 72.5623 1287.05 71.0902 1287.05 69.2687C1287.05 67.4472 1285.57 65.9751 1283.75 65.9751C1281.94 65.9751 1280.46 67.4472 1280.46 69.2687C1280.46 71.0902 1281.94 72.5623 1283.75 72.5623Z" fill="#F7F5F9"/>
<path fill-rule="evenodd" clip-rule="evenodd" d="M1316.74 72.5623C1318.56 72.5623 1320.03 71.0902 1320.03 69.2687C1320.03 67.4472 1318.56 65.9751 1316.74 65.9751C1314.92 65.9751 1313.45 67.4472 1313.45 69.2687C1313.45 71.0902 1314.92 72.5623 1316.74 72.5623Z" fill="#F7F5F9"/>
<path fill-rule="evenodd" clip-rule="evenodd" d="M1349.73 72.5623C1351.54 72.5623 1353.02 71.0902 1353.02 69.2687C1353.02 67.4472 1351.54 65.9751 1349.73 65.9751C1347.92 65.9751 1346.43 67.4472 1346.43 69.2687C1346.43 71.0902 1347.92 72.5623 1349.73 72.5623Z" fill="#F7F5F9"/>
<path fill-rule="evenodd" clip-rule="evenodd" d="M1382.72 72.5623C1384.53 72.5623 1386.01 71.0902 1386.01 69.2687C1386.01 67.4472 1384.53 65.9751 1382.72 65.9751C1380.9 65.9751 1379.42 67.4472 1379.42 69.2687C1379.42 71.0902 1380.9 72.5623 1382.72 72.5623Z" fill="#F7F5F9"/>
<path fill-rule="evenodd" clip-rule="evenodd" d="M1250.76 105.55C1252.57 105.55 1254.06 104.073 1254.06 102.257C1254.06 100.44 1252.57 98.9683 1250.76 98.9683C1248.95 98.9683 1247.46 100.44 1247.46 102.257C1247.46 104.073 1248.95 105.55 1250.76 105.55Z" fill="#F7F5F9"/>
<path fill-rule="evenodd" clip-rule="evenodd" d="M1283.75 105.55C1285.57 105.55 1287.05 104.073 1287.05 102.257C1287.05 100.44 1285.57 98.9683 1283.75 98.9683C1281.94 98.9683 1280.46 100.44 1280.46 102.257C1280.46 104.073 1281.94 105.55 1283.75 105.55Z" fill="#F7F5F9"/>
<path fill-rule="evenodd" clip-rule="evenodd" d="M1316.74 105.55C1318.56 105.55 1320.03 104.073 1320.03 102.257C1320.03 100.44 1318.56 98.9683 1316.74 98.9683C1314.92 98.9683 1313.45 100.44 1313.45 102.257C1313.45 104.073 1314.92 105.55 1316.74 105.55Z" fill="#F7F5F9"/>
<path fill-rule="evenodd" clip-rule="evenodd" d="M1349.73 105.55C1351.54 105.55 1353.02 104.073 1353.02 102.257C1353.02 100.44 1351.54 98.9683 1349.73 98.9683C1347.92 98.9683 1346.43 100.44 1346.43 102.257C1346.43 104.073 1347.92 105.55 1349.73 105.55Z" fill="#F7F5F9"/>
<path fill-rule="evenodd" clip-rule="evenodd" d="M1382.72 105.55C1384.53 105.55 1386.01 104.073 1386.01 102.257C1386.01 100.44 1384.53 98.9683 1382.72 98.9683C1380.9 98.9683 1379.42 100.44 1379.42 102.257C1379.42 104.073 1380.9 105.55 1382.72 105.55Z" fill="#F7F5F9"/>
<path fill-rule="evenodd" clip-rule="evenodd" d="M1250.76 138.537C1252.57 138.537 1254.06 137.065 1254.06 135.244C1254.06 133.427 1252.57 131.95 1250.76 131.95C1248.95 131.95 1247.46 133.427 1247.46 135.244C1247.46 137.065 1248.95 138.537 1250.76 138.537Z" fill="#F7F5F9"/>
<path fill-rule="evenodd" clip-rule="evenodd" d="M1283.75 138.537C1285.57 138.537 1287.05 137.065 1287.05 135.244C1287.05 133.427 1285.57 131.95 1283.75 131.95C1281.94 131.95 1280.46 133.427 1280.46 135.244C1280.46 137.065 1281.94 138.537 1283.75 138.537Z" fill="#F7F5F9"/>
<path fill-rule="evenodd" clip-rule="evenodd" d="M1316.74 138.537C1318.56 138.537 1320.03 137.065 1320.03 135.244C1320.03 133.427 1318.56 131.95 1316.74 131.95C1314.92 131.95 1313.45 133.427 1313.45 135.244C1313.45 137.065 1314.92 138.537 1316.74 138.537Z" fill="#F7F5F9"/>
<path fill-rule="evenodd" clip-rule="evenodd" d="M1349.73 138.537C1351.54 138.537 1353.02 137.065 1353.02 135.244C1353.02 133.427 1351.54 131.95 1349.73 131.95C1347.92 131.95 1346.43 133.427 1346.43 135.244C1346.43 137.065 1347.92 138.537 1349.73 138.537Z" fill="#F7F5F9"/>
<path fill-rule="evenodd" clip-rule="evenodd" d="M1382.72 138.537C1384.53 138.537 1386.01 137.065 1386.01 135.244C1386.01 133.427 1384.53 131.95 1382.72 131.95C1380.9 131.95 1379.42 133.427 1379.42 135.244C1379.42 137.065 1380.9 138.537 1382.72 138.537Z" fill="#F7F5F9"/>
<path fill-rule="evenodd" clip-rule="evenodd" d="M1250.76 171.53C1252.57 171.53 1254.06 170.058 1254.06 168.236C1254.06 166.415 1252.57 164.943 1250.76 164.943C1248.95 164.943 1247.46 166.415 1247.46 168.236C1247.46 170.058 1248.95 171.53 1250.76 171.53Z" fill="#F7F5F9"/>
<path fill-rule="evenodd" clip-rule="evenodd" d="M1283.75 171.53C1285.57 171.53 1287.05 170.058 1287.05 168.236C1287.05 166.415 1285.57 164.943 1283.75 164.943C1281.94 164.943 1280.46 166.415 1280.46 168.236C1280.46 170.058 1281.94 171.53 1283.75 171.53Z" fill="#F7F5F9"/>
<path fill-rule="evenodd" clip-rule="evenodd" d="M1316.74 171.53C1318.56 171.53 1320.03 170.058 1320.03 168.236C1320.03 166.415 1318.56 164.943 1316.74 164.943C1314.92 164.943 1313.45 166.415 1313.45 168.236C1313.45 170.058 1314.92 171.53 1316.74 171.53Z" fill="#F7F5F9"/>
<path fill-rule="evenodd" clip-rule="evenodd" d="M1349.73 171.53C1351.54 171.53 1353.02 170.058 1353.02 168.236C1353.02 166.415 1351.54 164.943 1349.73 164.943C1347.92 164.943 1346.43 166.415 1346.43 168.236C1346.43 170.058 1347.92 171.53 1349.73 171.53Z" fill="#F7F5F9"/>
<path fill-rule="evenodd" clip-rule="evenodd" d="M1382.72 171.53C1384.53 171.53 1386.01 170.058 1386.01 168.236C1386.01 166.415 1384.53 164.943 1382.72 164.943C1380.9 164.943 1379.42 166.415 1379.42 168.236C1379.42 170.058 1380.9 171.53 1382.72 171.53Z" fill="#F7F5F9"/>
<path fill-rule="evenodd" clip-rule="evenodd" d="M1250.76 204.518C1252.57 204.518 1254.06 203.041 1254.06 201.224C1254.06 199.408 1252.57 197.931 1250.76 197.931C1248.95 197.931 1247.46 199.408 1247.46 201.224C1247.46 203.041 1248.95 204.518 1250.76 204.518Z" fill="#F7F5F9"/>
<path fill-rule="evenodd" clip-rule="evenodd" d="M1283.75 204.518C1285.57 204.518 1287.05 203.041 1287.05 201.224C1287.05 199.408 1285.57 197.931 1283.75 197.931C1281.94 197.931 1280.46 199.408 1280.46 201.224C1280.46 203.041 1281.94 204.518 1283.75 204.518Z" fill="#F7F5F9"/>
<path fill-rule="evenodd" clip-rule="evenodd" d="M1316.74 204.518C1318.56 204.518 1320.03 203.041 1320.03 201.224C1320.03 199.408 1318.56 197.931 1316.74 197.931C1314.92 197.931 1313.45 199.408 1313.45 201.224C1313.45 203.041 1314.92 204.518 1316.74 204.518Z" fill="#F7F5F9"/>
<path fill-rule="evenodd" clip-rule="evenodd" d="M1349.73 204.518C1351.54 204.518 1353.02 203.041 1353.02 201.224C1353.02 199.408 1351.54 197.931 1349.73 197.931C1347.92 197.931 1346.43 199.408 1346.43 201.224C1346.43 203.041 1347.92 204.518 1349.73 204.518Z" fill="#F7F5F9"/>
<path fill-rule="evenodd" clip-rule="evenodd" d="M1382.72 204.518C1384.53 204.518 1386.01 203.041 1386.01 201.224C1386.01 199.408 1384.53 197.931 1382.72 197.931C1380.9 197.931 1379.42 199.408 1379.42 201.224C1379.42 203.041 1380.9 204.518 1382.72 204.518Z" fill="#F7F5F9"/>
<path fill-rule="evenodd" clip-rule="evenodd" d="M1250.76 237.505C1252.57 237.505 1254.06 236.033 1254.06 234.212C1254.06 232.39 1252.57 230.918 1250.76 230.918C1248.95 230.918 1247.46 232.39 1247.46 234.212C1247.46 236.033 1248.95 237.505 1250.76 237.505Z" fill="#F7F5F9"/>
<path fill-rule="evenodd" clip-rule="evenodd" d="M1283.75 237.505C1285.57 237.505 1287.05 236.033 1287.05 234.212C1287.05 232.39 1285.57 230.918 1283.75 230.918C1281.94 230.918 1280.46 232.39 1280.46 234.212C1280.46 236.033 1281.94 237.505 1283.75 237.505Z" fill="#F7F5F9"/>
<path fill-rule="evenodd" clip-rule="evenodd" d="M1316.74 237.505C1318.56 237.505 1320.03 236.033 1320.03 234.212C1320.03 232.39 1318.56 230.918 1316.74 230.918C1314.92 230.918 1313.45 232.39 1313.45 234.212C1313.45 236.033 1314.92 237.505 1316.74 237.505Z" fill="#F7F5F9"/>
<path fill-rule="evenodd" clip-rule="evenodd" d="M1349.73 237.505C1351.54 237.505 1353.02 236.033 1353.02 234.212C1353.02 232.39 1351.54 230.918 1349.73 230.918C1347.92 230.918 1346.43 232.39 1346.43 234.212C1346.43 236.033 1347.92 237.505 1349.73 237.505Z" fill="#F7F5F9"/>
<path fill-rule="evenodd" clip-rule="evenodd" d="M1382.72 237.505C1384.53 237.505 1386.01 236.033 1386.01 234.212C1386.01 232.39 1384.53 230.918 1382.72 230.918C1380.9 230.918 1379.42 232.39 1379.42 234.212C1379.42 236.033 1380.9 237.505 1382.72 237.505Z" fill="#F7F5F9"/>
<path fill-rule="evenodd" clip-rule="evenodd" d="M1250.76 270.498C1252.57 270.498 1254.06 269.021 1254.06 267.204C1254.06 265.383 1252.57 263.911 1250.76 263.911C1248.95 263.911 1247.46 265.383 1247.46 267.204C1247.46 269.021 1248.95 270.498 1250.76 270.498Z" fill="#F7F5F9"/>
<path fill-rule="evenodd" clip-rule="evenodd" d="M1283.75 270.498C1285.57 270.498 1287.05 269.021 1287.05 267.204C1287.05 265.383 1285.57 263.911 1283.75 263.911C1281.94 263.911 1280.46 265.383 1280.46 267.204C1280.46 269.021 1281.94 270.498 1283.75 270.498Z" fill="#F7F5F9"/>
<path fill-rule="evenodd" clip-rule="evenodd" d="M1316.74 270.498C1318.56 270.498 1320.03 269.021 1320.03 267.204C1320.03 265.383 1318.56 263.911 1316.74 263.911C1314.92 263.911 1313.45 265.383 1313.45 267.204C1313.45 269.021 1314.92 270.498 1316.74 270.498Z" fill="#F7F5F9"/>
<path fill-rule="evenodd" clip-rule="evenodd" d="M1349.73 270.498C1351.54 270.498 1353.02 269.021 1353.02 267.204C1353.02 265.383 1351.54 263.911 1349.73 263.911C1347.92 263.911 1346.43 265.383 1346.43 267.204C1346.43 269.021 1347.92 270.498 1349.73 270.498Z" fill="#F7F5F9"/>
<path fill-rule="evenodd" clip-rule="evenodd" d="M1382.72 270.498C1384.53 270.498 1386.01 269.021 1386.01 267.204C1386.01 265.383 1384.53 263.911 1382.72 263.911C1380.9 263.911 1379.42 265.383 1379.42 267.204C1379.42 269.021 1380.9 270.498 1382.72 270.498Z" fill="#F7F5F9"/>
<path fill-rule="evenodd" clip-rule="evenodd" d="M1250.76 303.481C1252.57 303.481 1254.06 302.009 1254.06 300.187C1254.06 298.376 1252.57 296.894 1250.76 296.894C1248.95 296.894 1247.46 298.376 1247.46 300.187C1247.46 302.009 1248.95 303.481 1250.76 303.481Z" fill="#F7F5F9"/>
<path fill-rule="evenodd" clip-rule="evenodd" d="M1283.75 303.481C1285.57 303.481 1287.05 302.009 1287.05 300.187C1287.05 298.376 1285.57 296.894 1283.75 296.894C1281.94 296.894 1280.46 298.376 1280.46 300.187C1280.46 302.009 1281.94 303.481 1283.75 303.481Z" fill="#F7F5F9"/>
<path fill-rule="evenodd" clip-rule="evenodd" d="M1316.74 303.481C1318.56 303.481 1320.03 302.009 1320.03 300.187C1320.03 298.376 1318.56 296.894 1316.74 296.894C1314.92 296.894 1313.45 298.376 1313.45 300.187C1313.45 302.009 1314.92 303.481 1316.74 303.481Z" fill="#F7F5F9"/>
<path fill-rule="evenodd" clip-rule="evenodd" d="M1349.73 303.481C1351.54 303.481 1353.02 302.009 1353.02 300.187C1353.02 298.376 1351.54 296.894 1349.73 296.894C1347.92 296.894 1346.43 298.376 1346.43 300.187C1346.43 302.009 1347.92 303.481 1349.73 303.481Z" fill="#F7F5F9"/>
<path fill-rule="evenodd" clip-rule="evenodd" d="M1382.72 303.481C1384.53 303.481 1386.01 302.009 1386.01 300.187C1386.01 298.376 1384.53 296.894 1382.72 296.894C1380.9 296.894 1379.42 298.376 1379.42 300.187C1379.42 302.009 1380.9 303.481 1382.72 303.481Z" fill="#F7F5F9"/>
<path fill-rule="evenodd" clip-rule="evenodd" d="M1250.76 336.473C1252.57 336.473 1254.06 335.001 1254.06 333.18C1254.06 331.358 1252.57 329.886 1250.76 329.886C1248.95 329.886 1247.46 331.358 1247.46 333.18C1247.46 335.001 1248.95 336.473 1250.76 336.473Z" fill="#F7F5F9"/>
<path fill-rule="evenodd" clip-rule="evenodd" d="M1283.75 336.473C1285.57 336.473 1287.05 335.001 1287.05 333.18C1287.05 331.358 1285.57 329.886 1283.75 329.886C1281.94 329.886 1280.46 331.358 1280.46 333.18C1280.46 335.001 1281.94 336.473 1283.75 336.473Z" fill="#F7F5F9"/>
<path fill-rule="evenodd" clip-rule="evenodd" d="M1316.74 336.473C1318.56 336.473 1320.03 335.001 1320.03 333.18C1320.03 331.358 1318.56 329.886 1316.74 329.886C1314.92 329.886 1313.45 331.358 1313.45 333.18C1313.45 335.001 1314.92 336.473 1316.74 336.473Z" fill="#F7F5F9"/>
<path fill-rule="evenodd" clip-rule="evenodd" d="M1349.73 336.473C1351.54 336.473 1353.02 335.001 1353.02 333.18C1353.02 331.358 1351.54 329.886 1349.73 329.886C1347.92 329.886 1346.43 331.358 1346.43 333.18C1346.43 335.001 1347.92 336.473 1349.73 336.473Z" fill="#F7F5F9"/>
<path fill-rule="evenodd" clip-rule="evenodd" d="M1382.72 336.473C1384.53 336.473 1386.01 335.001 1386.01 333.18C1386.01 331.358 1384.53 329.886 1382.72 329.886C1380.9 329.886 1379.42 331.358 1379.42 333.18C1379.42 335.001 1380.9 336.473 1382.72 336.473Z" fill="#F7F5F9"/>
<path fill-rule="evenodd" clip-rule="evenodd" d="M1250.76 369.461C1252.57 369.461 1254.06 367.983 1254.06 366.172C1254.06 364.351 1252.57 362.878 1250.76 362.878C1248.95 362.878 1247.46 364.351 1247.46 366.172C1247.46 367.983 1248.95 369.461 1250.76 369.461Z" fill="#F7F5F9"/>
<path fill-rule="evenodd" clip-rule="evenodd" d="M1283.75 369.461C1285.57 369.461 1287.05 367.983 1287.05 366.172C1287.05 364.351 1285.57 362.878 1283.75 362.878C1281.94 362.878 1280.46 364.351 1280.46 366.172C1280.46 367.983 1281.94 369.461 1283.75 369.461Z" fill="#F7F5F9"/>
<path fill-rule="evenodd" clip-rule="evenodd" d="M1316.74 369.461C1318.56 369.461 1320.03 367.983 1320.03 366.172C1320.03 364.351 1318.56 362.878 1316.74 362.878C1314.92 362.878 1313.45 364.351 1313.45 366.172C1313.45 367.983 1314.92 369.461 1316.74 369.461Z" fill="#F7F5F9"/>
<path fill-rule="evenodd" clip-rule="evenodd" d="M1349.73 369.461C1351.54 369.461 1353.02 367.983 1353.02 366.172C1353.02 364.351 1351.54 362.878 1349.73 362.878C1347.92 362.878 1346.43 364.351 1346.43 366.172C1346.43 367.983 1347.92 369.461 1349.73 369.461Z" fill="#F7F5F9"/>
<path fill-rule="evenodd" clip-rule="evenodd" d="M1382.72 369.461C1384.53 369.461 1386.01 367.983 1386.01 366.172C1386.01 364.351 1384.53 362.878 1382.72 362.878C1380.9 362.878 1379.42 364.351 1379.42 366.172C1379.42 367.983 1380.9 369.461 1382.72 369.461Z" fill="#F7F5F9"/>
<path fill-rule="evenodd" clip-rule="evenodd" d="M1250.76 402.448C1252.57 402.448 1254.06 400.976 1254.06 399.155C1254.06 397.338 1252.57 395.861 1250.76 395.861C1248.95 395.861 1247.46 397.338 1247.46 399.155C1247.46 400.976 1248.95 402.448 1250.76 402.448Z" fill="#F7F5F9"/>
<path fill-rule="evenodd" clip-rule="evenodd" d="M1283.75 402.448C1285.57 402.448 1287.05 400.976 1287.05 399.155C1287.05 397.338 1285.57 395.861 1283.75 395.861C1281.94 395.861 1280.46 397.338 1280.46 399.155C1280.46 400.976 1281.94 402.448 1283.75 402.448Z" fill="#F7F5F9"/>
<path fill-rule="evenodd" clip-rule="evenodd" d="M1316.74 402.448C1318.56 402.448 1320.03 400.976 1320.03 399.155C1320.03 397.338 1318.56 395.861 1316.74 395.861C1314.92 395.861 1313.45 397.338 1313.45 399.155C1313.45 400.976 1314.92 402.448 1316.74 402.448Z" fill="#F7F5F9"/>
<path fill-rule="evenodd" clip-rule="evenodd" d="M1349.73 402.448C1351.54 402.448 1353.02 400.976 1353.02 399.155C1353.02 397.338 1351.54 395.861 1349.73 395.861C1347.92 395.861 1346.43 397.338 1346.43 399.155C1346.43 400.976 1347.92 402.448 1349.73 402.448Z" fill="#F7F5F9"/>
<path fill-rule="evenodd" clip-rule="evenodd" d="M1382.72 402.448C1384.53 402.448 1386.01 400.976 1386.01 399.155C1386.01 397.338 1384.53 395.861 1382.72 395.861C1380.9 395.861 1379.42 397.338 1379.42 399.155C1379.42 400.976 1380.9 402.448 1382.72 402.448Z" fill="#F7F5F9"/>
<path fill-rule="evenodd" clip-rule="evenodd" d="M1250.76 435.441C1252.57 435.441 1254.06 433.969 1254.06 432.147C1254.06 430.326 1252.57 428.854 1250.76 428.854C1248.95 428.854 1247.46 430.326 1247.46 432.147C1247.46 433.969 1248.95 435.441 1250.76 435.441Z" fill="#F7F5F9"/>
<path fill-rule="evenodd" clip-rule="evenodd" d="M1283.75 435.441C1285.57 435.441 1287.05 433.969 1287.05 432.147C1287.05 430.326 1285.57 428.854 1283.75 428.854C1281.94 428.854 1280.46 430.326 1280.46 432.147C1280.46 433.969 1281.94 435.441 1283.75 435.441Z" fill="#F7F5F9"/>
<path fill-rule="evenodd" clip-rule="evenodd" d="M1316.74 435.441C1318.56 435.441 1320.03 433.969 1320.03 432.147C1320.03 430.326 1318.56 428.854 1316.74 428.854C1314.92 428.854 1313.45 430.326 1313.45 432.147C1313.45 433.969 1314.92 435.441 1316.74 435.441Z" fill="#F7F5F9"/>
<path fill-rule="evenodd" clip-rule="evenodd" d="M1349.73 435.441C1351.54 435.441 1353.02 433.969 1353.02 432.147C1353.02 430.326 1351.54 428.854 1349.73 428.854C1347.92 428.854 1346.43 430.326 1346.43 432.147C1346.43 433.969 1347.92 435.441 1349.73 435.441Z" fill="#F7F5F9"/>
<path fill-rule="evenodd" clip-rule="evenodd" d="M1382.72 435.441C1384.53 435.441 1386.01 433.969 1386.01 432.147C1386.01 430.326 1384.53 428.854 1382.72 428.854C1380.9 428.854 1379.42 430.326 1379.42 432.147C1379.42 433.969 1380.9 435.441 1382.72 435.441Z" fill="#F7F5F9"/>
<path fill-rule="evenodd" clip-rule="evenodd" d="M1250.76 468.428C1252.57 468.428 1254.06 466.951 1254.06 465.135C1254.06 463.318 1252.57 461.841 1250.76 461.841C1248.95 461.841 1247.46 463.318 1247.46 465.135C1247.46 466.951 1248.95 468.428 1250.76 468.428Z" fill="#F7F5F9"/>
<path fill-rule="evenodd" clip-rule="evenodd" d="M1283.75 468.428C1285.57 468.428 1287.05 466.951 1287.05 465.135C1287.05 463.318 1285.57 461.841 1283.75 461.841C1281.94 461.841 1280.46 463.318 1280.46 465.135C1280.46 466.951 1281.94 468.428 1283.75 468.428Z" fill="#F7F5F9"/>
<path fill-rule="evenodd" clip-rule="evenodd" d="M1316.74 468.428C1318.56 468.428 1320.03 466.951 1320.03 465.135C1320.03 463.318 1318.56 461.841 1316.74 461.841C1314.92 461.841 1313.45 463.318 1313.45 465.135C1313.45 466.951 1314.92 468.428 1316.74 468.428Z" fill="#F7F5F9"/>
<path fill-rule="evenodd" clip-rule="evenodd" d="M1349.73 468.428C1351.54 468.428 1353.02 466.951 1353.02 465.135C1353.02 463.318 1351.54 461.841 1349.73 461.841C1347.92 461.841 1346.43 463.318 1346.43 465.135C1346.43 466.951 1347.92 468.428 1349.73 468.428Z" fill="#F7F5F9"/>
<path fill-rule="evenodd" clip-rule="evenodd" d="M1382.72 468.428C1384.53 468.428 1386.01 466.951 1386.01 465.135C1386.01 463.318 1384.53 461.841 1382.72 461.841C1380.9 461.841 1379.42 463.318 1379.42 465.135C1379.42 466.951 1380.9 468.428 1382.72 468.428Z" fill="#F7F5F9"/>
<path fill-rule="evenodd" clip-rule="evenodd" d="M1250.76 501.416C1252.57 501.416 1254.06 499.944 1254.06 498.122C1254.06 496.301 1252.57 494.829 1250.76 494.829C1248.95 494.829 1247.46 496.301 1247.46 498.122C1247.46 499.944 1248.95 501.416 1250.76 501.416Z" fill="#F7F5F9"/>
<path fill-rule="evenodd" clip-rule="evenodd" d="M1283.75 501.416C1285.57 501.416 1287.05 499.944 1287.05 498.122C1287.05 496.301 1285.57 494.829 1283.75 494.829C1281.94 494.829 1280.46 496.301 1280.46 498.122C1280.46 499.944 1281.94 501.416 1283.75 501.416Z" fill="#F7F5F9"/>
<path fill-rule="evenodd" clip-rule="evenodd" d="M1316.74 501.416C1318.56 501.416 1320.03 499.944 1320.03 498.122C1320.03 496.301 1318.56 494.829 1316.74 494.829C1314.92 494.829 1313.45 496.301 1313.45 498.122C1313.45 499.944 1314.92 501.416 1316.74 501.416Z" fill="#F7F5F9"/>
<path fill-rule="evenodd" clip-rule="evenodd" d="M1349.73 501.416C1351.54 501.416 1353.02 499.944 1353.02 498.122C1353.02 496.301 1351.54 494.829 1349.73 494.829C1347.92 494.829 1346.43 496.301 1346.43 498.122C1346.43 499.944 1347.92 501.416 1349.73 501.416Z" fill="#F7F5F9"/>
<path fill-rule="evenodd" clip-rule="evenodd" d="M1382.72 501.416C1384.53 501.416 1386.01 499.944 1386.01 498.122C1386.01 496.301 1384.53 494.829 1382.72 494.829C1380.9 494.829 1379.42 496.301 1379.42 498.122C1379.42 499.944 1380.9 501.416 1382.72 501.416Z" fill="#F7F5F9"/>
<path fill-rule="evenodd" clip-rule="evenodd" d="M1250.76 534.409C1252.57 534.409 1254.06 532.932 1254.06 531.115C1254.06 529.294 1252.57 527.822 1250.76 527.822C1248.95 527.822 1247.46 529.294 1247.46 531.115C1247.46 532.932 1248.95 534.409 1250.76 534.409Z" fill="#F7F5F9"/>
<path fill-rule="evenodd" clip-rule="evenodd" d="M1283.75 534.409C1285.57 534.409 1287.05 532.932 1287.05 531.115C1287.05 529.294 1285.57 527.822 1283.75 527.822C1281.94 527.822 1280.46 529.294 1280.46 531.115C1280.46 532.932 1281.94 534.409 1283.75 534.409Z" fill="#F7F5F9"/>
<path fill-rule="evenodd" clip-rule="evenodd" d="M1316.74 534.409C1318.56 534.409 1320.03 532.932 1320.03 531.115C1320.03 529.294 1318.56 527.822 1316.74 527.822C1314.92 527.822 1313.45 529.294 1313.45 531.115C1313.45 532.932 1314.92 534.409 1316.74 534.409Z" fill="#F7F5F9"/>
<path fill-rule="evenodd" clip-rule="evenodd" d="M1349.73 534.409C1351.54 534.409 1353.02 532.932 1353.02 531.115C1353.02 529.294 1351.54 527.822 1349.73 527.822C1347.92 527.822 1346.43 529.294 1346.43 531.115C1346.43 532.932 1347.92 534.409 1349.73 534.409Z" fill="#F7F5F9"/>
<path fill-rule="evenodd" clip-rule="evenodd" d="M1382.72 534.409C1384.53 534.409 1386.01 532.932 1386.01 531.115C1386.01 529.294 1384.53 527.822 1382.72 527.822C1380.9 527.822 1379.42 529.294 1379.42 531.115C1379.42 532.932 1380.9 534.409 1382.72 534.409Z" fill="#F7F5F9"/>
<path fill-rule="evenodd" clip-rule="evenodd" d="M1250.76 567.391C1252.57 567.391 1254.06 565.919 1254.06 564.097C1254.06 562.286 1252.57 560.804 1250.76 560.804C1248.95 560.804 1247.46 562.286 1247.46 564.097C1247.46 565.919 1248.95 567.391 1250.76 567.391Z" fill="#F7F5F9"/>
<path fill-rule="evenodd" clip-rule="evenodd" d="M1283.75 567.391C1285.57 567.391 1287.05 565.919 1287.05 564.097C1287.05 562.286 1285.57 560.804 1283.75 560.804C1281.94 560.804 1280.46 562.286 1280.46 564.097C1280.46 565.919 1281.94 567.391 1283.75 567.391Z" fill="#F7F5F9"/>
<path fill-rule="evenodd" clip-rule="evenodd" d="M1316.74 567.391C1318.56 567.391 1320.03 565.919 1320.03 564.097C1320.03 562.286 1318.56 560.804 1316.74 560.804C1314.92 560.804 1313.45 562.286 1313.45 564.097C1313.45 565.919 1314.92 567.391 1316.74 567.391Z" fill="#F7F5F9"/>
<path fill-rule="evenodd" clip-rule="evenodd" d="M1349.73 567.391C1351.54 567.391 1353.02 565.919 1353.02 564.097C1353.02 562.286 1351.54 560.804 1349.73 560.804C1347.92 560.804 1346.43 562.286 1346.43 564.097C1346.43 565.919 1347.92 567.391 1349.73 567.391Z" fill="#F7F5F9"/>
<path fill-rule="evenodd" clip-rule="evenodd" d="M1382.72 567.391C1384.53 567.391 1386.01 565.919 1386.01 564.097C1386.01 562.286 1384.53 560.804 1382.72 560.804C1380.9 560.804 1379.42 562.286 1379.42 564.097C1379.42 565.919 1380.9 567.391 1382.72 567.391Z" fill="#F7F5F9"/>
<path fill-rule="evenodd" clip-rule="evenodd" d="M1250.76 600.384C1252.57 600.384 1254.06 598.912 1254.06 597.09C1254.06 595.269 1252.57 593.797 1250.76 593.797C1248.95 593.797 1247.46 595.269 1247.46 597.09C1247.46 598.912 1248.95 600.384 1250.76 600.384Z" fill="#F7F5F9"/>
<path fill-rule="evenodd" clip-rule="evenodd" d="M1283.75 600.384C1285.57 600.384 1287.05 598.912 1287.05 597.09C1287.05 595.269 1285.57 593.797 1283.75 593.797C1281.94 593.797 1280.46 595.269 1280.46 597.09C1280.46 598.912 1281.94 600.384 1283.75 600.384Z" fill="#F7F5F9"/>
<path fill-rule="evenodd" clip-rule="evenodd" d="M1316.74 600.384C1318.56 600.384 1320.03 598.912 1320.03 597.09C1320.03 595.269 1318.56 593.797 1316.74 593.797C1314.92 593.797 1313.45 595.269 1313.45 597.09C1313.45 598.912 1314.92 600.384 1316.74 600.384Z" fill="#F7F5F9"/>
<path fill-rule="evenodd" clip-rule="evenodd" d="M1349.73 600.384C1351.54 600.384 1353.02 598.912 1353.02 597.09C1353.02 595.269 1351.54 593.797 1349.73 593.797C1347.92 593.797 1346.43 595.269 1346.43 597.09C1346.43 598.912 1347.92 600.384 1349.73 600.384Z" fill="#F7F5F9"/>
<path fill-rule="evenodd" clip-rule="evenodd" d="M1382.72 600.384C1384.53 600.384 1386.01 598.912 1386.01 597.09C1386.01 595.269 1384.53 593.797 1382.72 593.797C1380.9 593.797 1379.42 595.269 1379.42 597.09C1379.42 598.912 1380.9 600.384 1382.72 600.384Z" fill="#F7F5F9"/>
<mask id="mask0" mask-type="alpha" maskUnits="userSpaceOnUse" x="-21" y="815" width="207" height="16">
<path fill-rule="evenodd" clip-rule="evenodd" d="M-21 815.698H185.39V830.874H-21V815.698Z" fill="white"/>
</mask>
<g mask="url(#mask0)">
<path fill-rule="evenodd" clip-rule="evenodd" d="M110.971 815.698H110.977C117.156 815.698 122.933 817.879 127.246 821.836C130.571 824.885 134.991 826.562 139.698 826.562C144.406 826.562 148.832 824.885 152.157 821.836C156.475 817.879 162.259 815.698 168.438 815.698H168.45C174.628 815.698 180.406 817.879 184.718 821.836C185.675 822.72 185.603 824.087 184.539 824.885C183.486 825.679 181.847 825.619 180.89 824.741C177.571 821.692 173.151 820.015 168.45 820.015H168.438C163.737 820.015 159.311 821.692 155.979 824.741C151.661 828.698 145.877 830.874 139.698 830.874C133.514 830.874 127.736 828.698 123.418 824.741C120.098 821.692 115.684 820.015 110.977 820.015H110.971C106.264 820.015 101.838 821.692 98.5066 824.741C94.1882 828.698 88.4105 830.874 82.226 830.874H82.22C76.0415 830.874 70.2578 828.698 65.9395 824.741C59.2825 818.643 47.6731 818.643 41.0042 824.741C36.6918 828.698 30.9021 830.874 24.7177 830.874C18.5332 830.874 12.7435 828.698 8.42513 824.741C5.10561 821.692 0.679594 820.015 -4.03352 820.015H-4.0395C-8.74663 820.015 -13.1727 821.692 -16.5041 824.741C-17.4731 825.619 -19.1059 825.689 -20.1586 824.88C-21.2113 824.082 -21.289 822.715 -20.3261 821.836C-16.0017 817.879 -10.218 815.698 -4.0395 815.698H-4.03352C2.15095 815.698 7.93468 817.879 12.259 821.836C15.5785 824.885 20.0046 826.562 24.7177 826.562C29.4308 826.562 33.8568 824.885 37.1883 821.836C45.825 813.927 61.1247 813.927 69.7614 821.836C73.0929 824.885 77.5129 826.562 82.22 826.562H82.226C86.9331 826.562 91.3532 824.885 94.6906 821.836C99.009 817.879 104.787 815.698 110.971 815.698Z" fill="#F7F5F9"/>
</g>
<path fill-rule="evenodd" clip-rule="evenodd" d="M110.972 850.999H110.978C117.157 850.999 122.934 853.18 127.247 857.137C130.572 860.186 134.992 861.863 139.699 861.863C144.407 861.863 148.833 860.186 152.158 857.137C156.476 853.18 162.26 850.999 168.439 850.999H168.451C174.629 850.999 180.407 853.18 184.719 857.137C185.676 858.02 185.604 859.388 184.54 860.186C183.487 860.98 181.848 860.92 180.891 860.041C177.572 856.992 173.152 855.316 168.451 855.316H168.439C163.738 855.316 159.311 856.992 155.98 860.041C151.662 863.999 145.878 866.175 139.699 866.175C133.515 866.175 127.737 863.999 123.419 860.041C120.099 856.992 115.685 855.316 110.978 855.316H110.972C106.265 855.316 101.839 856.992 98.5076 860.041C94.1892 863.999 88.4115 866.175 82.227 866.175H82.221C76.0425 866.175 70.2588 863.999 65.9404 860.041C59.2835 853.943 47.6741 853.943 41.0052 860.041C36.6928 863.999 30.9031 866.175 24.7186 866.175C18.5342 866.175 12.7445 863.999 8.42611 860.041C5.10659 856.992 0.680571 855.316 -4.03254 855.316H-4.03852C-8.74565 855.316 -13.1717 856.992 -16.5032 860.041C-17.4721 860.92 -19.1049 860.99 -20.1576 860.181C-21.2103 859.383 -21.288 858.015 -20.3251 857.137C-16.0007 853.18 -10.217 850.999 -4.03852 850.999H-4.03254C2.15192 850.999 7.93565 853.18 12.26 857.137C15.5795 860.186 20.0055 861.863 24.7186 861.863C29.4318 861.863 33.8578 860.186 37.1892 857.137C45.826 849.227 61.1256 849.227 69.7624 857.137C73.0938 860.186 77.5139 861.863 82.221 861.863H82.227C86.9341 861.863 91.3542 860.186 94.6916 857.137C99.01 853.18 104.788 850.999 110.972 850.999Z" fill="#F7F5F9"/>
<path fill-rule="evenodd" clip-rule="evenodd" d="M110.972 886.172H110.978C117.157 886.172 122.934 888.353 127.247 892.31C130.572 895.359 134.992 897.036 139.699 897.036V897.036C144.407 897.036 148.833 895.359 152.158 892.31C156.476 888.353 162.26 886.172 168.439 886.172H168.451C174.629 886.172 180.407 888.353 184.719 892.31C185.676 893.193 185.604 894.561 184.54 895.359C183.487 896.152 181.848 896.093 180.891 895.214C177.572 892.165 173.152 890.488 168.451 890.488H168.439C163.738 890.488 159.311 892.165 155.98 895.214C151.662 899.172 145.878 901.347 139.699 901.347V901.347C133.515 901.347 127.737 899.172 123.419 895.214C120.099 892.165 115.685 890.488 110.978 890.488H110.972C106.265 890.488 101.839 892.165 98.5076 895.214C94.1892 899.172 88.4115 901.347 82.227 901.347H82.221C76.0425 901.347 70.2588 899.172 65.9404 895.214C59.2835 889.116 47.6741 889.116 41.0052 895.214C36.6928 899.172 30.9031 901.347 24.7186 901.347V901.347C18.5342 901.347 12.7445 899.172 8.42611 895.214C5.10659 892.165 0.680571 890.488 -4.03254 890.488H-4.03852C-8.74565 890.488 -13.1717 892.165 -16.5032 895.214C-17.4721 896.093 -19.1049 896.162 -20.1576 895.354C-21.2103 894.556 -21.288 893.188 -20.3251 892.31C-16.0007 888.353 -10.217 886.172 -4.03852 886.172H-4.03254C2.15192 886.172 7.93565 888.353 12.26 892.31C15.5795 895.359 20.0055 897.036 24.7186 897.036V897.036C29.4318 897.036 33.8578 895.359 37.1892 892.31C45.826 884.4 61.1256 884.4 69.7624 892.31C73.0938 895.359 77.5139 897.036 82.221 897.036H82.227C86.9341 897.036 91.3542 895.359 94.6916 892.31C99.01 888.353 104.788 886.172 110.972 886.172" fill="#F7F5F9"/>
</g>
</svg>
