<svg width="222" height="218" viewBox="0 0 222 218" fill="none" xmlns="http://www.w3.org/2000/svg">
<rect width="222" height="218" fill="white"/>
<path d="M38.9141 67.3242V64.2305H41.5332V67.3242C44.2168 67.5 46.3379 68.4844 47.8965 70.2773C49.4668 72.0703 50.252 74.3086 50.252 76.9922C50.252 79.6758 49.4785 81.9199 47.9316 83.7246C46.3848 85.5176 44.252 86.502 41.5332 86.6777V90H38.9141V86.6777C36.4062 86.5605 34.3203 85.6348 32.6562 83.9004C31.0039 82.1543 30.1777 79.8516 30.1777 76.9922C30.1777 74.1328 31.0039 71.8359 32.6562 70.1016C34.3203 68.3672 36.4062 67.4414 38.9141 67.3242ZM41.5332 70.2422V83.7422C43.2559 83.6133 44.6562 82.998 45.7344 81.8965C46.8242 80.7949 47.3691 79.1602 47.3691 76.9922C47.3691 74.9531 46.8477 73.3477 45.8047 72.1758C44.7734 71.0039 43.3496 70.3594 41.5332 70.2422ZM38.9141 70.2598C37.168 70.3535 35.7559 70.9863 34.6777 72.1582C33.5996 73.3184 33.0605 74.9297 33.0605 76.9922C33.0605 79.0547 33.5996 80.6719 34.6777 81.8438C35.7559 83.0156 37.168 83.6426 38.9141 83.7246V70.2598ZM53.6438 77.4492C53.6438 73.0547 54.6106 69.6797 56.5442 67.3242C58.4778 64.957 60.886 63.7734 63.7688 63.7734C65.6321 63.7734 67.3313 64.3008 68.8665 65.3555C70.4016 66.4102 71.6145 67.9453 72.5052 69.9609C73.4075 71.9648 73.8587 74.3555 73.8587 77.1328C73.8587 80.9531 72.9915 84.0645 71.2571 86.4668C69.347 89.1152 66.845 90.4395 63.7512 90.4395C60.6341 90.4395 58.1262 89.0801 56.2278 86.3613C54.5052 83.9004 53.6438 80.9297 53.6438 77.4492ZM56.5266 77.502C56.5266 80.6777 57.2239 83.1445 58.6184 84.9023C60.0247 86.6484 61.7298 87.5215 63.7337 87.5215C65.7845 87.5215 67.5012 86.6367 68.8841 84.8672C70.2786 83.0977 70.9759 80.4961 70.9759 77.0625C70.9759 74.8477 70.6184 72.8672 69.9036 71.1211C69.3528 69.7852 68.5208 68.7188 67.4075 67.9219C66.3059 67.1133 65.0989 66.709 63.7864 66.709C61.677 66.709 59.9368 67.5879 58.5657 69.3457C57.2063 71.1035 56.5266 73.8223 56.5266 77.502ZM83.5611 90V67.2715H76.6002V64.2305H93.3521V67.2715H86.356V90H83.5611ZM96.1112 77.4492C96.1112 73.0547 97.078 69.6797 99.0116 67.3242C100.945 64.957 103.353 63.7734 106.236 63.7734C108.099 63.7734 109.799 64.3008 111.334 65.3555C112.869 66.4102 114.082 67.9453 114.973 69.9609C115.875 71.9648 116.326 74.3555 116.326 77.1328C116.326 80.9531 115.459 84.0645 113.724 86.4668C111.814 89.1152 109.312 90.4395 106.219 90.4395C103.101 90.4395 100.594 89.0801 98.6952 86.3613C96.9725 83.9004 96.1112 80.9297 96.1112 77.4492ZM98.994 77.502C98.994 80.6777 99.6913 83.1445 101.086 84.9023C102.492 86.6484 104.197 87.5215 106.201 87.5215C108.252 87.5215 109.969 86.6367 111.351 84.8672C112.746 83.0977 113.443 80.4961 113.443 77.0625C113.443 74.8477 113.086 72.8672 112.371 71.1211C111.82 69.7852 110.988 68.7188 109.875 67.9219C108.773 67.1133 107.566 66.709 106.254 66.709C104.144 66.709 102.404 67.5879 101.033 69.3457C99.6737 71.1035 98.994 73.8223 98.994 77.502ZM129.596 64.2305H132.127V84.6387L143.377 64.2305H146.19V90H143.659V69.6445L132.391 90H129.596V64.2305ZM153.045 64.2305H166.281V90H163.468V67.2715H155.84V80.543C155.84 83.1797 155.734 85.1367 155.523 86.4141C155.324 87.6797 154.884 88.6699 154.205 89.3848C153.537 90.0879 152.711 90.4395 151.726 90.4395C151.082 90.4395 150.332 90.293 149.476 90L149.951 86.9941C150.408 87.2285 150.8 87.3457 151.129 87.3457C151.75 87.3457 152.224 87.0645 152.552 86.502C152.881 85.9395 153.045 84.5625 153.045 82.3711V64.2305ZM171.642 64.2305H174.173V84.6387L185.423 64.2305H188.235V90H185.704V69.6445L174.436 90H171.642V64.2305ZM32.8145 96.2305H46.0508V122H43.2383V99.2715H35.6094V112.543C35.6094 115.18 35.5039 117.137 35.293 118.414C35.0938 119.68 34.6543 120.67 33.9746 121.385C33.3066 122.088 32.4805 122.439 31.4961 122.439C30.8516 122.439 30.1016 122.293 29.2461 122L29.7207 118.994C30.1777 119.229 30.5703 119.346 30.8984 119.346C31.5195 119.346 31.9941 119.064 32.3223 118.502C32.6504 117.939 32.8145 116.562 32.8145 114.371V96.2305ZM50.5852 109.449C50.5852 105.055 51.552 101.68 53.4856 99.3242C55.4192 96.957 57.8274 95.7734 60.7102 95.7734C62.5735 95.7734 64.2727 96.3008 65.8079 97.3555C67.343 98.4102 68.5559 99.9453 69.4466 101.961C70.3489 103.965 70.8001 106.355 70.8001 109.133C70.8001 112.953 69.9329 116.064 68.1985 118.467C66.2884 121.115 63.7864 122.439 60.6927 122.439C57.5755 122.439 55.0677 121.08 53.1692 118.361C51.4466 115.9 50.5852 112.93 50.5852 109.449ZM53.468 109.502C53.468 112.678 54.1653 115.145 55.5598 116.902C56.9661 118.648 58.6712 119.521 60.6751 119.521C62.7259 119.521 64.4427 118.637 65.8255 116.867C67.22 115.098 67.9173 112.496 67.9173 109.062C67.9173 106.848 67.5598 104.867 66.845 103.121C66.2942 101.785 65.4622 100.719 64.3489 99.9219C63.2473 99.1133 62.0403 98.709 60.7278 98.709C58.6184 98.709 56.8782 99.5879 55.5071 101.346C54.1477 103.104 53.468 105.822 53.468 109.502ZM75.1236 96.2129H87.938V99.2715H77.9185V122H75.1236V96.2129ZM90.8026 109.449C90.8026 105.055 91.7694 101.68 93.703 99.3242C95.6366 96.957 98.0448 95.7734 100.928 95.7734C102.791 95.7734 104.49 96.3008 106.025 97.3555C107.56 98.4102 108.773 99.9453 109.664 101.961C110.566 103.965 111.017 106.355 111.017 109.133C111.017 112.953 110.15 116.064 108.416 118.467C106.506 121.115 104.004 122.439 100.91 122.439C97.7928 122.439 95.285 121.08 93.3866 118.361C91.6639 115.9 90.8026 112.93 90.8026 109.449ZM93.6854 109.502C93.6854 112.678 94.3827 115.145 95.7772 116.902C97.1834 118.648 98.8885 119.521 100.892 119.521C102.943 119.521 104.66 118.637 106.043 116.867C107.437 115.098 108.135 112.496 108.135 109.062C108.135 106.848 107.777 104.867 107.062 103.121C106.512 101.785 105.68 100.719 104.566 99.9219C103.465 99.1133 102.258 98.709 100.945 98.709C98.8358 98.709 97.0955 99.5879 95.7245 101.346C94.3651 103.104 93.6854 105.822 93.6854 109.502ZM124.235 122V96.2305H127.03V106.812H138.016V96.2305H140.811V122H138.016V109.854H127.03V122H124.235ZM146.33 122V96.2305H161.605V99.2715H149.125V107.164H160.814V110.188H149.125V118.959H162.097V122H146.33ZM31.2676 154V128.23H34.0625V138.812H45.0488V128.23H47.8438V154H45.0488V141.854H34.0625V154H31.2676ZM50.9895 154L59.1106 128.23H62.1165L70.7649 154H67.5657L65.1048 146.195H56.2805L53.9602 154H50.9895ZM57.0891 143.418H64.2434L62.0462 136.281C61.3665 134.09 60.8684 132.309 60.552 130.938C60.2825 132.59 59.9016 134.23 59.4095 135.859L57.0891 143.418ZM73.7525 128.23H76.5474V150.959H83.5611V128.23H86.3736V150.959H93.3873V128.23H96.1822V154H73.7525V128.23ZM103.037 128.23H116.273V154H113.461V131.271H105.832V144.543C105.832 147.18 105.726 149.137 105.515 150.414C105.316 151.68 104.877 152.67 104.197 153.385C103.529 154.088 102.703 154.439 101.719 154.439C101.074 154.439 100.324 154.293 99.4686 154L99.9432 150.994C100.4 151.229 100.793 151.346 101.121 151.346C101.742 151.346 102.217 151.064 102.545 150.502C102.873 149.939 103.037 148.562 103.037 146.371V128.23ZM120.808 141.449C120.808 137.055 121.775 133.68 123.708 131.324C125.642 128.957 128.05 127.773 130.933 127.773C132.796 127.773 134.495 128.301 136.03 129.355C137.566 130.41 138.778 131.945 139.669 133.961C140.571 135.965 141.023 138.355 141.023 141.133C141.023 144.953 140.155 148.064 138.421 150.467C136.511 153.115 134.009 154.439 130.915 154.439C127.798 154.439 125.29 153.08 123.392 150.361C121.669 147.9 120.808 144.93 120.808 141.449ZM123.691 141.502C123.691 144.678 124.388 147.145 125.782 148.902C127.189 150.648 128.894 151.521 130.898 151.521C132.948 151.521 134.665 150.637 136.048 148.867C137.442 147.098 138.14 144.496 138.14 141.062C138.14 138.848 137.782 136.867 137.067 135.121C136.517 133.785 135.685 132.719 134.571 131.922C133.47 131.113 132.263 130.709 130.95 130.709C128.841 130.709 127.101 131.588 125.73 133.346C124.37 135.104 123.691 137.822 123.691 141.502ZM160.305 144.965L163.118 145.826C162.496 148.721 161.407 150.883 159.848 152.312C158.301 153.73 156.414 154.439 154.188 154.439C152.231 154.439 150.555 153.965 149.161 153.016C147.778 152.055 146.641 150.52 145.75 148.41C144.871 146.301 144.432 143.811 144.432 140.939C144.432 138.104 144.871 135.707 145.75 133.75C146.641 131.781 147.842 130.299 149.354 129.303C150.866 128.295 152.553 127.791 154.416 127.791C156.455 127.791 158.207 128.43 159.672 129.707C161.137 130.973 162.162 132.836 162.748 135.297L160.006 136.088C159.069 132.502 157.188 130.709 154.364 130.709C152.957 130.709 151.739 131.072 150.707 131.799C149.676 132.514 148.85 133.633 148.229 135.156C147.62 136.68 147.315 138.607 147.315 140.939C147.315 144.467 147.936 147.115 149.178 148.885C150.42 150.643 152.073 151.521 154.135 151.521C155.659 151.521 156.971 150.982 158.073 149.904C159.186 148.814 159.93 147.168 160.305 144.965ZM167.424 128.23H170.218V139.234H175.263C177.115 139.234 178.591 139.451 179.693 139.885C180.795 140.318 181.679 141.133 182.347 142.328C183.015 143.512 183.349 144.906 183.349 146.512C183.349 148.492 182.793 150.238 181.679 151.75C180.578 153.25 178.504 154 175.457 154H167.424V128.23ZM170.218 151.1H175.334C177.068 151.1 178.334 150.748 179.131 150.045C179.939 149.33 180.343 148.152 180.343 146.512C180.343 145.434 180.103 144.549 179.623 143.857C179.154 143.154 178.55 142.697 177.812 142.486C177.074 142.275 175.791 142.17 173.963 142.17H170.218V151.1Z" fill="#4F4F4F"/>
</svg>
