<svg width="185" height="742" viewBox="0 0 185 742" fill="none" xmlns="http://www.w3.org/2000/svg">
<path fill-rule="evenodd" clip-rule="evenodd" d="M135.253 99.9651C133.432 99.9651 131.955 101.437 131.955 103.259C131.955 105.08 133.432 106.552 135.253 106.552C137.065 106.552 138.542 105.08 138.542 103.259C138.542 101.437 137.065 99.9651 135.253 99.9651Z" fill="#F7F5F9"/>
<path fill-rule="evenodd" clip-rule="evenodd" d="M102.261 99.9651C100.445 99.9651 98.9675 101.437 98.9675 103.259C98.9675 105.08 100.445 106.552 102.261 106.552C104.078 106.552 105.555 105.08 105.555 103.259C105.555 101.437 104.078 99.9651 102.261 99.9651Z" fill="#F7F5F9"/>
<path fill-rule="evenodd" clip-rule="evenodd" d="M69.2733 99.9651C67.4568 99.9651 65.9797 101.437 65.9797 103.259C65.9797 105.08 67.4568 106.552 69.2733 106.552C71.0848 106.552 72.5669 105.08 72.5669 103.259C72.5669 101.437 71.0848 99.9651 69.2733 99.9651Z" fill="#F7F5F9"/>
<path fill-rule="evenodd" clip-rule="evenodd" d="M36.2805 99.9651C34.469 99.9651 32.9919 101.437 32.9919 103.259C32.9919 105.08 34.469 106.552 36.2805 106.552C38.097 106.552 39.5791 105.08 39.5791 103.259C39.5791 101.437 38.097 99.9651 36.2805 99.9651Z" fill="#F7F5F9"/>
<path fill-rule="evenodd" clip-rule="evenodd" d="M3.29332 99.9651C1.47685 99.9651 -0.000276089 101.437 -0.000276089 103.259C-0.000276089 105.08 1.47685 106.552 3.29332 106.552C5.10979 106.552 6.58691 105.08 6.58691 103.259C6.58691 101.437 5.10979 99.9651 3.29332 99.9651Z" fill="#F7F5F9"/>
<path fill-rule="evenodd" clip-rule="evenodd" d="M168.236 66.9721C166.425 66.9721 164.942 68.4493 164.942 70.2657C164.942 72.0872 166.425 73.5593 168.236 73.5593C170.053 73.5593 171.535 72.0872 171.535 70.2657C171.535 68.4493 170.053 66.9721 168.236 66.9721Z" fill="#F7F5F9"/>
<path fill-rule="evenodd" clip-rule="evenodd" d="M135.253 66.9721C133.432 66.9721 131.955 68.4493 131.955 70.2657C131.955 72.0872 133.432 73.5593 135.253 73.5593C137.065 73.5593 138.542 72.0872 138.542 70.2657C138.542 68.4493 137.065 66.9721 135.253 66.9721Z" fill="#F7F5F9"/>
<path fill-rule="evenodd" clip-rule="evenodd" d="M102.261 66.9721C100.445 66.9721 98.9675 68.4493 98.9675 70.2657C98.9675 72.0872 100.445 73.5593 102.261 73.5593C104.078 73.5593 105.555 72.0872 105.555 70.2657C105.555 68.4493 104.078 66.9721 102.261 66.9721Z" fill="#F7F5F9"/>
<path fill-rule="evenodd" clip-rule="evenodd" d="M69.2733 66.9721C67.4568 66.9721 65.9797 68.4493 65.9797 70.2657C65.9797 72.0872 67.4568 73.5593 69.2733 73.5593C71.0848 73.5593 72.5669 72.0872 72.5669 70.2657C72.5669 68.4493 71.0848 66.9721 69.2733 66.9721Z" fill="#F7F5F9"/>
<path fill-rule="evenodd" clip-rule="evenodd" d="M36.2805 66.9721C34.469 66.9721 32.9919 68.4493 32.9919 70.2657C32.9919 72.0872 34.469 73.5593 36.2805 73.5593C38.097 73.5593 39.5791 72.0872 39.5791 70.2657C39.5791 68.4493 38.097 66.9721 36.2805 66.9721Z" fill="#F7F5F9"/>
<path fill-rule="evenodd" clip-rule="evenodd" d="M3.29332 66.9721C1.47685 66.9721 -0.000276089 68.4493 -0.000276089 70.2657C-0.000276089 72.0872 1.47685 73.5593 3.29332 73.5593C5.10979 73.5593 6.58691 72.0872 6.58691 70.2657C6.58691 68.4493 5.10979 66.9721 3.29332 66.9721Z" fill="#F7F5F9"/>
<path fill-rule="evenodd" clip-rule="evenodd" d="M168.236 33.99C166.425 33.99 164.942 35.4621 164.942 37.2836C164.942 39.095 166.425 40.5771 168.236 40.5771C170.053 40.5771 171.535 39.095 171.535 37.2836C171.535 35.4621 170.053 33.99 168.236 33.99Z" fill="#F7F5F9"/>
<path fill-rule="evenodd" clip-rule="evenodd" d="M135.253 33.99C133.432 33.99 131.955 35.4621 131.955 37.2836C131.955 39.095 133.432 40.5771 135.253 40.5771C137.065 40.5771 138.542 39.095 138.542 37.2836C138.542 35.4621 137.065 33.99 135.253 33.99Z" fill="#F7F5F9"/>
<path fill-rule="evenodd" clip-rule="evenodd" d="M102.261 33.99C100.445 33.99 98.9675 35.4621 98.9675 37.2836C98.9675 39.095 100.445 40.5771 102.261 40.5771C104.078 40.5771 105.555 39.095 105.555 37.2836C105.555 35.4621 104.078 33.99 102.261 33.99Z" fill="#F7F5F9"/>
<path fill-rule="evenodd" clip-rule="evenodd" d="M69.2733 33.99C67.4568 33.99 65.9797 35.4621 65.9797 37.2836C65.9797 39.095 67.4568 40.5771 69.2733 40.5771C71.0848 40.5771 72.5669 39.095 72.5669 37.2836C72.5669 35.4621 71.0848 33.99 69.2733 33.99Z" fill="#F7F5F9"/>
<path fill-rule="evenodd" clip-rule="evenodd" d="M36.2805 33.99C34.469 33.99 32.9919 35.4621 32.9919 37.2836C32.9919 39.095 34.469 40.5771 36.2805 40.5771C38.097 40.5771 39.5791 39.095 39.5791 37.2836C39.5791 35.4621 38.097 33.99 36.2805 33.99Z" fill="#F7F5F9"/>
<path fill-rule="evenodd" clip-rule="evenodd" d="M3.29332 33.99C1.47685 33.99 -0.000276089 35.4621 -0.000276089 37.2836C-0.000276089 39.095 1.47685 40.5771 3.29332 40.5771C5.10979 40.5771 6.58691 39.095 6.58691 37.2836C6.58691 35.4621 5.10979 33.99 3.29332 33.99Z" fill="#F7F5F9"/>
<path fill-rule="evenodd" clip-rule="evenodd" d="M168.236 0.996794C166.425 0.996794 164.942 2.46893 164.942 4.29039C164.942 6.11185 166.425 7.58398 168.236 7.58398C170.053 7.58398 171.535 6.11185 171.535 4.29039C171.535 2.46893 170.053 0.996794 168.236 0.996794Z" fill="#F7F5F9"/>
<path fill-rule="evenodd" clip-rule="evenodd" d="M135.253 0.996794C133.432 0.996794 131.955 2.46893 131.955 4.29039C131.955 6.11185 133.432 7.58398 135.253 7.58398C137.065 7.58398 138.542 6.11185 138.542 4.29039C138.542 2.46893 137.065 0.996794 135.253 0.996794Z" fill="#F7F5F9"/>
<path fill-rule="evenodd" clip-rule="evenodd" d="M102.261 0.996794C100.445 0.996794 98.9675 2.46893 98.9675 4.29039C98.9675 6.11185 100.445 7.58398 102.261 7.58398C104.078 7.58398 105.555 6.11185 105.555 4.29039C105.555 2.46893 104.078 0.996794 102.261 0.996794Z" fill="#F7F5F9"/>
<path fill-rule="evenodd" clip-rule="evenodd" d="M69.2733 0.996794C67.4568 0.996794 65.9797 2.46893 65.9797 4.29039C65.9797 6.11185 67.4568 7.58398 69.2733 7.58398C71.0848 7.58398 72.5669 6.11185 72.5669 4.29039C72.5669 2.46893 71.0848 0.996794 69.2733 0.996794Z" fill="#F7F5F9"/>
<path fill-rule="evenodd" clip-rule="evenodd" d="M36.2805 0.996794C34.469 0.996794 32.9919 2.46893 32.9919 4.29039C32.9919 6.11185 34.469 7.58398 36.2805 7.58398C38.097 7.58398 39.5791 6.11185 39.5791 4.29039C39.5791 2.46893 38.097 0.996794 36.2805 0.996794Z" fill="#F7F5F9"/>
<path fill-rule="evenodd" clip-rule="evenodd" d="M3.29332 0.996794C1.47685 0.996794 -0.000276089 2.46893 -0.000276089 4.29039C-0.000276089 6.11185 1.47685 7.58398 3.29332 7.58398C5.10979 7.58398 6.58691 6.11185 6.58691 4.29039C6.58691 2.46893 5.10979 0.996794 3.29332 0.996794Z" fill="#F7F5F9"/>
<path fill-rule="evenodd" clip-rule="evenodd" d="M16.7639 147.587C18.5754 147.587 20.0575 146.11 20.0575 144.294C20.0575 142.472 18.5754 141 16.7639 141C14.9474 141 13.4653 142.472 13.4653 144.294C13.4653 146.11 14.9474 147.587 16.7639 147.587Z" fill="#F7F5F9"/>
<path fill-rule="evenodd" clip-rule="evenodd" d="M49.7466 147.587C51.5681 147.587 53.0452 146.11 53.0452 144.294C53.0452 142.472 51.5681 141 49.7466 141C47.9351 141 46.458 142.472 46.458 144.294C46.458 146.11 47.9351 147.587 49.7466 147.587Z" fill="#F7F5F9"/>
<path fill-rule="evenodd" clip-rule="evenodd" d="M82.7389 147.587C84.5554 147.587 86.0325 146.11 86.0325 144.294C86.0325 142.472 84.5554 141 82.7389 141C80.9224 141 79.4453 142.472 79.4453 144.294C79.4453 146.11 80.9224 147.587 82.7389 147.587Z" fill="#F7F5F9"/>
<path fill-rule="evenodd" clip-rule="evenodd" d="M115.727 147.587C117.543 147.587 119.02 146.11 119.02 144.294C119.02 142.472 117.543 141 115.727 141C113.915 141 112.433 142.472 112.433 144.294C112.433 146.11 113.915 147.587 115.727 147.587Z" fill="#F7F5F9"/>
<path fill-rule="evenodd" clip-rule="evenodd" d="M148.719 147.587C150.531 147.587 152.008 146.11 152.008 144.294C152.008 142.472 150.531 141 148.719 141C146.903 141 145.421 142.472 145.421 144.294C145.421 146.11 146.903 147.587 148.719 147.587Z" fill="#F7F5F9"/>
<path fill-rule="evenodd" clip-rule="evenodd" d="M181.706 147.587C183.523 147.587 185 146.11 185 144.294C185 142.472 183.523 141 181.706 141C179.89 141 178.413 142.472 178.413 144.294C178.413 146.11 179.89 147.587 181.706 147.587Z" fill="#F7F5F9"/>
<path fill-rule="evenodd" clip-rule="evenodd" d="M16.7639 180.57C18.5754 180.57 20.0575 179.098 20.0575 177.277C20.0575 175.46 18.5754 173.983 16.7639 173.983C14.9474 173.983 13.4653 175.46 13.4653 177.277C13.4653 179.098 14.9474 180.57 16.7639 180.57Z" fill="#F7F5F9"/>
<path fill-rule="evenodd" clip-rule="evenodd" d="M49.7466 180.57C51.5681 180.57 53.0452 179.098 53.0452 177.277C53.0452 175.46 51.5681 173.983 49.7466 173.983C47.9351 173.983 46.458 175.46 46.458 177.277C46.458 179.098 47.9351 180.57 49.7466 180.57Z" fill="#F7F5F9"/>
<path fill-rule="evenodd" clip-rule="evenodd" d="M82.7389 180.57C84.5554 180.57 86.0325 179.098 86.0325 177.277C86.0325 175.46 84.5554 173.983 82.7389 173.983C80.9224 173.983 79.4453 175.46 79.4453 177.277C79.4453 179.098 80.9224 180.57 82.7389 180.57Z" fill="#F7F5F9"/>
<path fill-rule="evenodd" clip-rule="evenodd" d="M115.727 180.57C117.543 180.57 119.02 179.098 119.02 177.277C119.02 175.46 117.543 173.983 115.727 173.983C113.915 173.983 112.433 175.46 112.433 177.277C112.433 179.098 113.915 180.57 115.727 180.57Z" fill="#F7F5F9"/>
<path fill-rule="evenodd" clip-rule="evenodd" d="M148.719 180.57C150.531 180.57 152.008 179.098 152.008 177.277C152.008 175.46 150.531 173.983 148.719 173.983C146.903 173.983 145.421 175.46 145.421 177.277C145.421 179.098 146.903 180.57 148.719 180.57Z" fill="#F7F5F9"/>
<path fill-rule="evenodd" clip-rule="evenodd" d="M181.706 180.57C183.523 180.57 185 179.098 185 177.277C185 175.46 183.523 173.983 181.706 173.983C179.89 173.983 178.413 175.46 178.413 177.277C178.413 179.098 179.89 180.57 181.706 180.57Z" fill="#F7F5F9"/>
<path fill-rule="evenodd" clip-rule="evenodd" d="M16.7639 213.562C18.5754 213.562 20.0575 212.09 20.0575 210.269C20.0575 208.447 18.5754 206.975 16.7639 206.975C14.9474 206.975 13.4653 208.447 13.4653 210.269C13.4653 212.09 14.9474 213.562 16.7639 213.562Z" fill="#F7F5F9"/>
<path fill-rule="evenodd" clip-rule="evenodd" d="M49.7466 213.562C51.5681 213.562 53.0452 212.09 53.0452 210.269C53.0452 208.447 51.5681 206.975 49.7466 206.975C47.9351 206.975 46.458 208.447 46.458 210.269C46.458 212.09 47.9351 213.562 49.7466 213.562Z" fill="#F7F5F9"/>
<path fill-rule="evenodd" clip-rule="evenodd" d="M82.7389 213.562C84.5554 213.562 86.0325 212.09 86.0325 210.269C86.0325 208.447 84.5554 206.975 82.7389 206.975C80.9224 206.975 79.4453 208.447 79.4453 210.269C79.4453 212.09 80.9224 213.562 82.7389 213.562Z" fill="#F7F5F9"/>
<path fill-rule="evenodd" clip-rule="evenodd" d="M115.727 213.562C117.543 213.562 119.02 212.09 119.02 210.269C119.02 208.447 117.543 206.975 115.727 206.975C113.915 206.975 112.433 208.447 112.433 210.269C112.433 212.09 113.915 213.562 115.727 213.562Z" fill="#F7F5F9"/>
<path fill-rule="evenodd" clip-rule="evenodd" d="M148.719 213.562C150.531 213.562 152.008 212.09 152.008 210.269C152.008 208.447 150.531 206.975 148.719 206.975C146.903 206.975 145.421 208.447 145.421 210.269C145.421 212.09 146.903 213.562 148.719 213.562Z" fill="#F7F5F9"/>
<path fill-rule="evenodd" clip-rule="evenodd" d="M181.706 213.562C183.523 213.562 185 212.09 185 210.269C185 208.447 183.523 206.975 181.706 206.975C179.89 206.975 178.413 208.447 178.413 210.269C178.413 212.09 179.89 213.562 181.706 213.562Z" fill="#F7F5F9"/>
<path fill-rule="evenodd" clip-rule="evenodd" d="M16.7639 246.55C18.5754 246.55 20.0575 245.073 20.0575 243.257C20.0575 241.44 18.5754 239.968 16.7639 239.968C14.9474 239.968 13.4653 241.44 13.4653 243.257C13.4653 245.073 14.9474 246.55 16.7639 246.55Z" fill="#F7F5F9"/>
<path fill-rule="evenodd" clip-rule="evenodd" d="M49.7466 246.55C51.5681 246.55 53.0452 245.073 53.0452 243.257C53.0452 241.44 51.5681 239.968 49.7466 239.968C47.9351 239.968 46.458 241.44 46.458 243.257C46.458 245.073 47.9351 246.55 49.7466 246.55Z" fill="#F7F5F9"/>
<path fill-rule="evenodd" clip-rule="evenodd" d="M82.7389 246.55C84.5554 246.55 86.0325 245.073 86.0325 243.257C86.0325 241.44 84.5554 239.968 82.7389 239.968C80.9224 239.968 79.4453 241.44 79.4453 243.257C79.4453 245.073 80.9224 246.55 82.7389 246.55Z" fill="#F7F5F9"/>
<path fill-rule="evenodd" clip-rule="evenodd" d="M115.727 246.55C117.543 246.55 119.02 245.073 119.02 243.257C119.02 241.44 117.543 239.968 115.727 239.968C113.915 239.968 112.433 241.44 112.433 243.257C112.433 245.073 113.915 246.55 115.727 246.55Z" fill="#F7F5F9"/>
<path fill-rule="evenodd" clip-rule="evenodd" d="M148.719 246.55C150.531 246.55 152.008 245.073 152.008 243.257C152.008 241.44 150.531 239.968 148.719 239.968C146.903 239.968 145.421 241.44 145.421 243.257C145.421 245.073 146.903 246.55 148.719 246.55Z" fill="#F7F5F9"/>
<path fill-rule="evenodd" clip-rule="evenodd" d="M181.706 246.55C183.523 246.55 185 245.073 185 243.257C185 241.44 183.523 239.968 181.706 239.968C179.89 239.968 178.413 241.44 178.413 243.257C178.413 245.073 179.89 246.55 181.706 246.55Z" fill="#F7F5F9"/>
<path fill-rule="evenodd" clip-rule="evenodd" d="M16.7639 279.538C18.5754 279.538 20.0575 278.065 20.0575 276.244C20.0575 274.428 18.5754 272.95 16.7639 272.95C14.9474 272.95 13.4653 274.428 13.4653 276.244C13.4653 278.065 14.9474 279.538 16.7639 279.538Z" fill="#F7F5F9"/>
<path fill-rule="evenodd" clip-rule="evenodd" d="M49.7466 279.538C51.5681 279.538 53.0452 278.065 53.0452 276.244C53.0452 274.428 51.5681 272.95 49.7466 272.95C47.9351 272.95 46.458 274.428 46.458 276.244C46.458 278.065 47.9351 279.538 49.7466 279.538Z" fill="#F7F5F9"/>
<path fill-rule="evenodd" clip-rule="evenodd" d="M82.7389 279.538C84.5554 279.538 86.0325 278.065 86.0325 276.244C86.0325 274.428 84.5554 272.95 82.7389 272.95C80.9224 272.95 79.4453 274.428 79.4453 276.244C79.4453 278.065 80.9224 279.538 82.7389 279.538Z" fill="#F7F5F9"/>
<path fill-rule="evenodd" clip-rule="evenodd" d="M115.727 279.538C117.543 279.538 119.02 278.065 119.02 276.244C119.02 274.428 117.543 272.95 115.727 272.95C113.915 272.95 112.433 274.428 112.433 276.244C112.433 278.065 113.915 279.538 115.727 279.538Z" fill="#F7F5F9"/>
<path fill-rule="evenodd" clip-rule="evenodd" d="M148.719 279.538C150.531 279.538 152.008 278.065 152.008 276.244C152.008 274.428 150.531 272.95 148.719 272.95C146.903 272.95 145.421 274.428 145.421 276.244C145.421 278.065 146.903 279.538 148.719 279.538Z" fill="#F7F5F9"/>
<path fill-rule="evenodd" clip-rule="evenodd" d="M181.706 279.538C183.523 279.538 185 278.065 185 276.244C185 274.428 183.523 272.95 181.706 272.95C179.89 272.95 178.413 274.428 178.413 276.244C178.413 278.065 179.89 279.538 181.706 279.538Z" fill="#F7F5F9"/>
<path fill-rule="evenodd" clip-rule="evenodd" d="M16.7639 312.53C18.5754 312.53 20.0575 311.058 20.0575 309.236C20.0575 307.415 18.5754 305.943 16.7639 305.943C14.9474 305.943 13.4653 307.415 13.4653 309.236C13.4653 311.058 14.9474 312.53 16.7639 312.53Z" fill="#F7F5F9"/>
<path fill-rule="evenodd" clip-rule="evenodd" d="M49.7466 312.53C51.5681 312.53 53.0452 311.058 53.0452 309.236C53.0452 307.415 51.5681 305.943 49.7466 305.943C47.9351 305.943 46.458 307.415 46.458 309.236C46.458 311.058 47.9351 312.53 49.7466 312.53Z" fill="#F7F5F9"/>
<path fill-rule="evenodd" clip-rule="evenodd" d="M82.7389 312.53C84.5554 312.53 86.0325 311.058 86.0325 309.236C86.0325 307.415 84.5554 305.943 82.7389 305.943C80.9224 305.943 79.4453 307.415 79.4453 309.236C79.4453 311.058 80.9224 312.53 82.7389 312.53Z" fill="#F7F5F9"/>
<path fill-rule="evenodd" clip-rule="evenodd" d="M115.727 312.53C117.543 312.53 119.02 311.058 119.02 309.236C119.02 307.415 117.543 305.943 115.727 305.943C113.915 305.943 112.433 307.415 112.433 309.236C112.433 311.058 113.915 312.53 115.727 312.53Z" fill="#F7F5F9"/>
<path fill-rule="evenodd" clip-rule="evenodd" d="M148.719 312.53C150.531 312.53 152.008 311.058 152.008 309.236C152.008 307.415 150.531 305.943 148.719 305.943C146.903 305.943 145.421 307.415 145.421 309.236C145.421 311.058 146.903 312.53 148.719 312.53Z" fill="#F7F5F9"/>
<path fill-rule="evenodd" clip-rule="evenodd" d="M181.706 312.53C183.523 312.53 185 311.058 185 309.236C185 307.415 183.523 305.943 181.706 305.943C179.89 305.943 178.413 307.415 178.413 309.236C178.413 311.058 179.89 312.53 181.706 312.53Z" fill="#F7F5F9"/>
<path fill-rule="evenodd" clip-rule="evenodd" d="M16.7639 345.518C18.5754 345.518 20.0575 344.041 20.0575 342.224C20.0575 340.408 18.5754 338.931 16.7639 338.931C14.9474 338.931 13.4653 340.408 13.4653 342.224C13.4653 344.041 14.9474 345.518 16.7639 345.518Z" fill="#F7F5F9"/>
<path fill-rule="evenodd" clip-rule="evenodd" d="M49.7466 345.518C51.5681 345.518 53.0452 344.041 53.0452 342.224C53.0452 340.408 51.5681 338.931 49.7466 338.931C47.9351 338.931 46.458 340.408 46.458 342.224C46.458 344.041 47.9351 345.518 49.7466 345.518Z" fill="#F7F5F9"/>
<path fill-rule="evenodd" clip-rule="evenodd" d="M82.7389 345.518C84.5554 345.518 86.0325 344.041 86.0325 342.224C86.0325 340.408 84.5554 338.931 82.7389 338.931C80.9224 338.931 79.4453 340.408 79.4453 342.224C79.4453 344.041 80.9224 345.518 82.7389 345.518Z" fill="#F7F5F9"/>
<path fill-rule="evenodd" clip-rule="evenodd" d="M115.727 345.518C117.543 345.518 119.02 344.041 119.02 342.224C119.02 340.408 117.543 338.931 115.727 338.931C113.915 338.931 112.433 340.408 112.433 342.224C112.433 344.041 113.915 345.518 115.727 345.518Z" fill="#F7F5F9"/>
<path fill-rule="evenodd" clip-rule="evenodd" d="M148.719 345.518C150.531 345.518 152.008 344.041 152.008 342.224C152.008 340.408 150.531 338.931 148.719 338.931C146.903 338.931 145.421 340.408 145.421 342.224C145.421 344.041 146.903 345.518 148.719 345.518Z" fill="#F7F5F9"/>
<path fill-rule="evenodd" clip-rule="evenodd" d="M181.706 345.518C183.523 345.518 185 344.041 185 342.224C185 340.408 183.523 338.931 181.706 338.931C179.89 338.931 178.413 340.408 178.413 342.224C178.413 344.041 179.89 345.518 181.706 345.518Z" fill="#F7F5F9"/>
<path fill-rule="evenodd" clip-rule="evenodd" d="M16.7639 378.505C18.5754 378.505 20.0575 377.033 20.0575 375.212C20.0575 373.39 18.5754 371.918 16.7639 371.918C14.9474 371.918 13.4653 373.39 13.4653 375.212C13.4653 377.033 14.9474 378.505 16.7639 378.505Z" fill="#F7F5F9"/>
<path fill-rule="evenodd" clip-rule="evenodd" d="M49.7466 378.505C51.5681 378.505 53.0452 377.033 53.0452 375.212C53.0452 373.39 51.5681 371.918 49.7466 371.918C47.9351 371.918 46.458 373.39 46.458 375.212C46.458 377.033 47.9351 378.505 49.7466 378.505Z" fill="#F7F5F9"/>
<path fill-rule="evenodd" clip-rule="evenodd" d="M82.7389 378.505C84.5554 378.505 86.0325 377.033 86.0325 375.212C86.0325 373.39 84.5554 371.918 82.7389 371.918C80.9224 371.918 79.4453 373.39 79.4453 375.212C79.4453 377.033 80.9224 378.505 82.7389 378.505Z" fill="#F7F5F9"/>
<path fill-rule="evenodd" clip-rule="evenodd" d="M115.727 378.505C117.543 378.505 119.02 377.033 119.02 375.212C119.02 373.39 117.543 371.918 115.727 371.918C113.915 371.918 112.433 373.39 112.433 375.212C112.433 377.033 113.915 378.505 115.727 378.505Z" fill="#F7F5F9"/>
<path fill-rule="evenodd" clip-rule="evenodd" d="M148.719 378.505C150.531 378.505 152.008 377.033 152.008 375.212C152.008 373.39 150.531 371.918 148.719 371.918C146.903 371.918 145.421 373.39 145.421 375.212C145.421 377.033 146.903 378.505 148.719 378.505Z" fill="#F7F5F9"/>
<path fill-rule="evenodd" clip-rule="evenodd" d="M181.706 378.505C183.523 378.505 185 377.033 185 375.212C185 373.39 183.523 371.918 181.706 371.918C179.89 371.918 178.413 373.39 178.413 375.212C178.413 377.033 179.89 378.505 181.706 378.505Z" fill="#F7F5F9"/>
<path fill-rule="evenodd" clip-rule="evenodd" d="M16.7639 411.498C18.5754 411.498 20.0575 410.021 20.0575 408.204C20.0575 406.383 18.5754 404.911 16.7639 404.911C14.9474 404.911 13.4653 406.383 13.4653 408.204C13.4653 410.021 14.9474 411.498 16.7639 411.498Z" fill="#F7F5F9"/>
<path fill-rule="evenodd" clip-rule="evenodd" d="M49.7466 411.498C51.5681 411.498 53.0452 410.021 53.0452 408.204C53.0452 406.383 51.5681 404.911 49.7466 404.911C47.9351 404.911 46.458 406.383 46.458 408.204C46.458 410.021 47.9351 411.498 49.7466 411.498Z" fill="#F7F5F9"/>
<path fill-rule="evenodd" clip-rule="evenodd" d="M82.7389 411.498C84.5554 411.498 86.0325 410.021 86.0325 408.204C86.0325 406.383 84.5554 404.911 82.7389 404.911C80.9224 404.911 79.4453 406.383 79.4453 408.204C79.4453 410.021 80.9224 411.498 82.7389 411.498Z" fill="#F7F5F9"/>
<path fill-rule="evenodd" clip-rule="evenodd" d="M115.727 411.498C117.543 411.498 119.02 410.021 119.02 408.204C119.02 406.383 117.543 404.911 115.727 404.911C113.915 404.911 112.433 406.383 112.433 408.204C112.433 410.021 113.915 411.498 115.727 411.498Z" fill="#F7F5F9"/>
<path fill-rule="evenodd" clip-rule="evenodd" d="M148.719 411.498C150.531 411.498 152.008 410.021 152.008 408.204C152.008 406.383 150.531 404.911 148.719 404.911C146.903 404.911 145.421 406.383 145.421 408.204C145.421 410.021 146.903 411.498 148.719 411.498Z" fill="#F7F5F9"/>
<path fill-rule="evenodd" clip-rule="evenodd" d="M181.706 411.498C183.523 411.498 185 410.021 185 408.204C185 406.383 183.523 404.911 181.706 404.911C179.89 404.911 178.413 406.383 178.413 408.204C178.413 410.021 179.89 411.498 181.706 411.498Z" fill="#F7F5F9"/>
<path fill-rule="evenodd" clip-rule="evenodd" d="M16.7639 444.481C18.5754 444.481 20.0575 443.009 20.0575 441.187C20.0575 439.376 18.5754 437.894 16.7639 437.894C14.9474 437.894 13.4653 439.376 13.4653 441.187C13.4653 443.009 14.9474 444.481 16.7639 444.481Z" fill="#F7F5F9"/>
<path fill-rule="evenodd" clip-rule="evenodd" d="M49.7466 444.481C51.5681 444.481 53.0452 443.009 53.0452 441.187C53.0452 439.376 51.5681 437.894 49.7466 437.894C47.9351 437.894 46.458 439.376 46.458 441.187C46.458 443.009 47.9351 444.481 49.7466 444.481Z" fill="#F7F5F9"/>
<path fill-rule="evenodd" clip-rule="evenodd" d="M82.7389 444.481C84.5554 444.481 86.0325 443.009 86.0325 441.187C86.0325 439.376 84.5554 437.894 82.7389 437.894C80.9224 437.894 79.4453 439.376 79.4453 441.187C79.4453 443.009 80.9224 444.481 82.7389 444.481Z" fill="#F7F5F9"/>
<path fill-rule="evenodd" clip-rule="evenodd" d="M115.727 444.481C117.543 444.481 119.02 443.009 119.02 441.187C119.02 439.376 117.543 437.894 115.727 437.894C113.915 437.894 112.433 439.376 112.433 441.187C112.433 443.009 113.915 444.481 115.727 444.481Z" fill="#F7F5F9"/>
<path fill-rule="evenodd" clip-rule="evenodd" d="M148.719 444.481C150.531 444.481 152.008 443.009 152.008 441.187C152.008 439.376 150.531 437.894 148.719 437.894C146.903 437.894 145.421 439.376 145.421 441.187C145.421 443.009 146.903 444.481 148.719 444.481Z" fill="#F7F5F9"/>
<path fill-rule="evenodd" clip-rule="evenodd" d="M181.706 444.481C183.523 444.481 185 443.009 185 441.187C185 439.376 183.523 437.894 181.706 437.894C179.89 437.894 178.413 439.376 178.413 441.187C178.413 443.009 179.89 444.481 181.706 444.481Z" fill="#F7F5F9"/>
<path fill-rule="evenodd" clip-rule="evenodd" d="M16.7639 477.473C18.5754 477.473 20.0575 476.001 20.0575 474.18C20.0575 472.358 18.5754 470.886 16.7639 470.886C14.9474 470.886 13.4653 472.358 13.4653 474.18C13.4653 476.001 14.9474 477.473 16.7639 477.473Z" fill="#F7F5F9"/>
<path fill-rule="evenodd" clip-rule="evenodd" d="M49.7466 477.473C51.5681 477.473 53.0452 476.001 53.0452 474.18C53.0452 472.358 51.5681 470.886 49.7466 470.886C47.9351 470.886 46.458 472.358 46.458 474.18C46.458 476.001 47.9351 477.473 49.7466 477.473Z" fill="#F7F5F9"/>
<path fill-rule="evenodd" clip-rule="evenodd" d="M82.7389 477.473C84.5554 477.473 86.0325 476.001 86.0325 474.18C86.0325 472.358 84.5554 470.886 82.7389 470.886C80.9224 470.886 79.4453 472.358 79.4453 474.18C79.4453 476.001 80.9224 477.473 82.7389 477.473Z" fill="#F7F5F9"/>
<path fill-rule="evenodd" clip-rule="evenodd" d="M115.727 477.473C117.543 477.473 119.02 476.001 119.02 474.18C119.02 472.358 117.543 470.886 115.727 470.886C113.915 470.886 112.433 472.358 112.433 474.18C112.433 476.001 113.915 477.473 115.727 477.473Z" fill="#F7F5F9"/>
<path fill-rule="evenodd" clip-rule="evenodd" d="M148.719 477.473C150.531 477.473 152.008 476.001 152.008 474.18C152.008 472.358 150.531 470.886 148.719 470.886C146.903 470.886 145.421 472.358 145.421 474.18C145.421 476.001 146.903 477.473 148.719 477.473Z" fill="#F7F5F9"/>
<path fill-rule="evenodd" clip-rule="evenodd" d="M181.706 477.473C183.523 477.473 185 476.001 185 474.18C185 472.358 183.523 470.886 181.706 470.886C179.89 470.886 178.413 472.358 178.413 474.18C178.413 476.001 179.89 477.473 181.706 477.473Z" fill="#F7F5F9"/>
<path fill-rule="evenodd" clip-rule="evenodd" d="M16.7639 510.461C18.5754 510.461 20.0575 508.983 20.0575 507.172C20.0575 505.351 18.5754 503.878 16.7639 503.878C14.9474 503.878 13.4653 505.351 13.4653 507.172C13.4653 508.983 14.9474 510.461 16.7639 510.461Z" fill="#F7F5F9"/>
<path fill-rule="evenodd" clip-rule="evenodd" d="M49.7466 510.461C51.5681 510.461 53.0452 508.983 53.0452 507.172C53.0452 505.351 51.5681 503.878 49.7466 503.878C47.9351 503.878 46.458 505.351 46.458 507.172C46.458 508.983 47.9351 510.461 49.7466 510.461Z" fill="#F7F5F9"/>
<path fill-rule="evenodd" clip-rule="evenodd" d="M82.7389 510.461C84.5554 510.461 86.0325 508.983 86.0325 507.172C86.0325 505.351 84.5554 503.878 82.7389 503.878C80.9224 503.878 79.4453 505.351 79.4453 507.172C79.4453 508.983 80.9224 510.461 82.7389 510.461Z" fill="#F7F5F9"/>
<path fill-rule="evenodd" clip-rule="evenodd" d="M115.727 510.461C117.543 510.461 119.02 508.983 119.02 507.172C119.02 505.351 117.543 503.878 115.727 503.878C113.915 503.878 112.433 505.351 112.433 507.172C112.433 508.983 113.915 510.461 115.727 510.461Z" fill="#F7F5F9"/>
<path fill-rule="evenodd" clip-rule="evenodd" d="M148.719 510.461C150.531 510.461 152.008 508.983 152.008 507.172C152.008 505.351 150.531 503.878 148.719 503.878C146.903 503.878 145.421 505.351 145.421 507.172C145.421 508.983 146.903 510.461 148.719 510.461Z" fill="#F7F5F9"/>
<path fill-rule="evenodd" clip-rule="evenodd" d="M181.706 510.461C183.523 510.461 185 508.983 185 507.172C185 505.351 183.523 503.878 181.706 503.878C179.89 503.878 178.413 505.351 178.413 507.172C178.413 508.983 179.89 510.461 181.706 510.461Z" fill="#F7F5F9"/>
<path fill-rule="evenodd" clip-rule="evenodd" d="M16.7639 543.448C18.5754 543.448 20.0575 541.976 20.0575 540.155C20.0575 538.338 18.5754 536.861 16.7639 536.861C14.9474 536.861 13.4653 538.338 13.4653 540.155C13.4653 541.976 14.9474 543.448 16.7639 543.448Z" fill="#F7F5F9"/>
<path fill-rule="evenodd" clip-rule="evenodd" d="M49.7466 543.448C51.5681 543.448 53.0452 541.976 53.0452 540.155C53.0452 538.338 51.5681 536.861 49.7466 536.861C47.9351 536.861 46.458 538.338 46.458 540.155C46.458 541.976 47.9351 543.448 49.7466 543.448Z" fill="#F7F5F9"/>
<path fill-rule="evenodd" clip-rule="evenodd" d="M82.7389 543.448C84.5554 543.448 86.0325 541.976 86.0325 540.155C86.0325 538.338 84.5554 536.861 82.7389 536.861C80.9224 536.861 79.4453 538.338 79.4453 540.155C79.4453 541.976 80.9224 543.448 82.7389 543.448Z" fill="#F7F5F9"/>
<path fill-rule="evenodd" clip-rule="evenodd" d="M115.727 543.448C117.543 543.448 119.02 541.976 119.02 540.155C119.02 538.338 117.543 536.861 115.727 536.861C113.915 536.861 112.433 538.338 112.433 540.155C112.433 541.976 113.915 543.448 115.727 543.448Z" fill="#F7F5F9"/>
<path fill-rule="evenodd" clip-rule="evenodd" d="M148.719 543.448C150.531 543.448 152.008 541.976 152.008 540.155C152.008 538.338 150.531 536.861 148.719 536.861C146.903 536.861 145.421 538.338 145.421 540.155C145.421 541.976 146.903 543.448 148.719 543.448Z" fill="#F7F5F9"/>
<path fill-rule="evenodd" clip-rule="evenodd" d="M181.706 543.448C183.523 543.448 185 541.976 185 540.155C185 538.338 183.523 536.861 181.706 536.861C179.89 536.861 178.413 538.338 178.413 540.155C178.413 541.976 179.89 543.448 181.706 543.448Z" fill="#F7F5F9"/>
<path fill-rule="evenodd" clip-rule="evenodd" d="M16.7639 576.441C18.5754 576.441 20.0575 574.969 20.0575 573.147C20.0575 571.326 18.5754 569.854 16.7639 569.854C14.9474 569.854 13.4653 571.326 13.4653 573.147C13.4653 574.969 14.9474 576.441 16.7639 576.441Z" fill="#F7F5F9"/>
<path fill-rule="evenodd" clip-rule="evenodd" d="M49.7466 576.441C51.5681 576.441 53.0452 574.969 53.0452 573.147C53.0452 571.326 51.5681 569.854 49.7466 569.854C47.9351 569.854 46.458 571.326 46.458 573.147C46.458 574.969 47.9351 576.441 49.7466 576.441Z" fill="#F7F5F9"/>
<path fill-rule="evenodd" clip-rule="evenodd" d="M82.7389 576.441C84.5554 576.441 86.0325 574.969 86.0325 573.147C86.0325 571.326 84.5554 569.854 82.7389 569.854C80.9224 569.854 79.4453 571.326 79.4453 573.147C79.4453 574.969 80.9224 576.441 82.7389 576.441Z" fill="#F7F5F9"/>
<path fill-rule="evenodd" clip-rule="evenodd" d="M115.727 576.441C117.543 576.441 119.02 574.969 119.02 573.147C119.02 571.326 117.543 569.854 115.727 569.854C113.915 569.854 112.433 571.326 112.433 573.147C112.433 574.969 113.915 576.441 115.727 576.441Z" fill="#F7F5F9"/>
<path fill-rule="evenodd" clip-rule="evenodd" d="M148.719 576.441C150.531 576.441 152.008 574.969 152.008 573.147C152.008 571.326 150.531 569.854 148.719 569.854C146.903 569.854 145.421 571.326 145.421 573.147C145.421 574.969 146.903 576.441 148.719 576.441Z" fill="#F7F5F9"/>
<path fill-rule="evenodd" clip-rule="evenodd" d="M181.706 576.441C183.523 576.441 185 574.969 185 573.147C185 571.326 183.523 569.854 181.706 569.854C179.89 569.854 178.413 571.326 178.413 573.147C178.413 574.969 179.89 576.441 181.706 576.441Z" fill="#F7F5F9"/>
<path fill-rule="evenodd" clip-rule="evenodd" d="M16.7639 609.428C18.5754 609.428 20.0575 607.951 20.0575 606.135C20.0575 604.318 18.5754 602.841 16.7639 602.841C14.9474 602.841 13.4653 604.318 13.4653 606.135C13.4653 607.951 14.9474 609.428 16.7639 609.428Z" fill="#F7F5F9"/>
<path fill-rule="evenodd" clip-rule="evenodd" d="M49.7466 609.428C51.5681 609.428 53.0452 607.951 53.0452 606.135C53.0452 604.318 51.5681 602.841 49.7466 602.841C47.9351 602.841 46.458 604.318 46.458 606.135C46.458 607.951 47.9351 609.428 49.7466 609.428Z" fill="#F7F5F9"/>
<path fill-rule="evenodd" clip-rule="evenodd" d="M82.7389 609.428C84.5554 609.428 86.0325 607.951 86.0325 606.135C86.0325 604.318 84.5554 602.841 82.7389 602.841C80.9224 602.841 79.4453 604.318 79.4453 606.135C79.4453 607.951 80.9224 609.428 82.7389 609.428Z" fill="#F7F5F9"/>
<path fill-rule="evenodd" clip-rule="evenodd" d="M115.727 609.428C117.543 609.428 119.02 607.951 119.02 606.135C119.02 604.318 117.543 602.841 115.727 602.841C113.915 602.841 112.433 604.318 112.433 606.135C112.433 607.951 113.915 609.428 115.727 609.428Z" fill="#F7F5F9"/>
<path fill-rule="evenodd" clip-rule="evenodd" d="M148.719 609.428C150.531 609.428 152.008 607.951 152.008 606.135C152.008 604.318 150.531 602.841 148.719 602.841C146.903 602.841 145.421 604.318 145.421 606.135C145.421 607.951 146.903 609.428 148.719 609.428Z" fill="#F7F5F9"/>
<path fill-rule="evenodd" clip-rule="evenodd" d="M181.706 609.428C183.523 609.428 185 607.951 185 606.135C185 604.318 183.523 602.841 181.706 602.841C179.89 602.841 178.413 604.318 178.413 606.135C178.413 607.951 179.89 609.428 181.706 609.428Z" fill="#F7F5F9"/>
<path fill-rule="evenodd" clip-rule="evenodd" d="M16.7639 642.416C18.5754 642.416 20.0575 640.944 20.0575 639.122C20.0575 637.301 18.5754 635.829 16.7639 635.829C14.9474 635.829 13.4653 637.301 13.4653 639.122C13.4653 640.944 14.9474 642.416 16.7639 642.416Z" fill="#F7F5F9"/>
<path fill-rule="evenodd" clip-rule="evenodd" d="M49.7466 642.416C51.5681 642.416 53.0452 640.944 53.0452 639.122C53.0452 637.301 51.5681 635.829 49.7466 635.829C47.9351 635.829 46.458 637.301 46.458 639.122C46.458 640.944 47.9351 642.416 49.7466 642.416Z" fill="#F7F5F9"/>
<path fill-rule="evenodd" clip-rule="evenodd" d="M82.7389 642.416C84.5554 642.416 86.0325 640.944 86.0325 639.122C86.0325 637.301 84.5554 635.829 82.7389 635.829C80.9224 635.829 79.4453 637.301 79.4453 639.122C79.4453 640.944 80.9224 642.416 82.7389 642.416Z" fill="#F7F5F9"/>
<path fill-rule="evenodd" clip-rule="evenodd" d="M115.727 642.416C117.543 642.416 119.02 640.944 119.02 639.122C119.02 637.301 117.543 635.829 115.727 635.829C113.915 635.829 112.433 637.301 112.433 639.122C112.433 640.944 113.915 642.416 115.727 642.416Z" fill="#F7F5F9"/>
<path fill-rule="evenodd" clip-rule="evenodd" d="M148.719 642.416C150.531 642.416 152.008 640.944 152.008 639.122C152.008 637.301 150.531 635.829 148.719 635.829C146.903 635.829 145.421 637.301 145.421 639.122C145.421 640.944 146.903 642.416 148.719 642.416Z" fill="#F7F5F9"/>
<path fill-rule="evenodd" clip-rule="evenodd" d="M181.706 642.416C183.523 642.416 185 640.944 185 639.122C185 637.301 183.523 635.829 181.706 635.829C179.89 635.829 178.413 637.301 178.413 639.122C178.413 640.944 179.89 642.416 181.706 642.416Z" fill="#F7F5F9"/>
<path fill-rule="evenodd" clip-rule="evenodd" d="M16.7639 675.409C18.5754 675.409 20.0575 673.932 20.0575 672.115C20.0575 670.294 18.5754 668.822 16.7639 668.822C14.9474 668.822 13.4653 670.294 13.4653 672.115C13.4653 673.932 14.9474 675.409 16.7639 675.409Z" fill="#F7F5F9"/>
<path fill-rule="evenodd" clip-rule="evenodd" d="M49.7466 675.409C51.5681 675.409 53.0452 673.932 53.0452 672.115C53.0452 670.294 51.5681 668.822 49.7466 668.822C47.9351 668.822 46.458 670.294 46.458 672.115C46.458 673.932 47.9351 675.409 49.7466 675.409Z" fill="#F7F5F9"/>
<path fill-rule="evenodd" clip-rule="evenodd" d="M82.7389 675.409C84.5554 675.409 86.0325 673.932 86.0325 672.115C86.0325 670.294 84.5554 668.822 82.7389 668.822C80.9224 668.822 79.4453 670.294 79.4453 672.115C79.4453 673.932 80.9224 675.409 82.7389 675.409Z" fill="#F7F5F9"/>
<path fill-rule="evenodd" clip-rule="evenodd" d="M115.727 675.409C117.543 675.409 119.02 673.932 119.02 672.115C119.02 670.294 117.543 668.822 115.727 668.822C113.915 668.822 112.433 670.294 112.433 672.115C112.433 673.932 113.915 675.409 115.727 675.409Z" fill="#F7F5F9"/>
<path fill-rule="evenodd" clip-rule="evenodd" d="M148.719 675.409C150.531 675.409 152.008 673.932 152.008 672.115C152.008 670.294 150.531 668.822 148.719 668.822C146.903 668.822 145.421 670.294 145.421 672.115C145.421 673.932 146.903 675.409 148.719 675.409Z" fill="#F7F5F9"/>
<path fill-rule="evenodd" clip-rule="evenodd" d="M181.706 675.409C183.523 675.409 185 673.932 185 672.115C185 670.294 183.523 668.822 181.706 668.822C179.89 668.822 178.413 670.294 178.413 672.115C178.413 673.932 179.89 675.409 181.706 675.409Z" fill="#F7F5F9"/>
<path fill-rule="evenodd" clip-rule="evenodd" d="M16.7639 708.391C18.5754 708.391 20.0575 706.919 20.0575 705.097C20.0575 703.286 18.5754 701.804 16.7639 701.804C14.9474 701.804 13.4653 703.286 13.4653 705.097C13.4653 706.919 14.9474 708.391 16.7639 708.391Z" fill="#F7F5F9"/>
<path fill-rule="evenodd" clip-rule="evenodd" d="M49.7466 708.391C51.5681 708.391 53.0452 706.919 53.0452 705.097C53.0452 703.286 51.5681 701.804 49.7466 701.804C47.9351 701.804 46.458 703.286 46.458 705.097C46.458 706.919 47.9351 708.391 49.7466 708.391Z" fill="#F7F5F9"/>
<path fill-rule="evenodd" clip-rule="evenodd" d="M82.7389 708.391C84.5554 708.391 86.0325 706.919 86.0325 705.097C86.0325 703.286 84.5554 701.804 82.7389 701.804C80.9224 701.804 79.4453 703.286 79.4453 705.097C79.4453 706.919 80.9224 708.391 82.7389 708.391Z" fill="#F7F5F9"/>
<path fill-rule="evenodd" clip-rule="evenodd" d="M115.727 708.391C117.543 708.391 119.02 706.919 119.02 705.097C119.02 703.286 117.543 701.804 115.727 701.804C113.915 701.804 112.433 703.286 112.433 705.097C112.433 706.919 113.915 708.391 115.727 708.391Z" fill="#F7F5F9"/>
<path fill-rule="evenodd" clip-rule="evenodd" d="M148.719 708.391C150.531 708.391 152.008 706.919 152.008 705.097C152.008 703.286 150.531 701.804 148.719 701.804C146.903 701.804 145.421 703.286 145.421 705.097C145.421 706.919 146.903 708.391 148.719 708.391Z" fill="#F7F5F9"/>
<path fill-rule="evenodd" clip-rule="evenodd" d="M181.706 708.391C183.523 708.391 185 706.919 185 705.097C185 703.286 183.523 701.804 181.706 701.804C179.89 701.804 178.413 703.286 178.413 705.097C178.413 706.919 179.89 708.391 181.706 708.391Z" fill="#F7F5F9"/>
<path fill-rule="evenodd" clip-rule="evenodd" d="M16.7639 741.384C18.5754 741.384 20.0575 739.912 20.0575 738.09C20.0575 736.269 18.5754 734.797 16.7639 734.797C14.9474 734.797 13.4653 736.269 13.4653 738.09C13.4653 739.912 14.9474 741.384 16.7639 741.384Z" fill="#F7F5F9"/>
<path fill-rule="evenodd" clip-rule="evenodd" d="M49.7466 741.384C51.5681 741.384 53.0452 739.912 53.0452 738.09C53.0452 736.269 51.5681 734.797 49.7466 734.797C47.9351 734.797 46.458 736.269 46.458 738.09C46.458 739.912 47.9351 741.384 49.7466 741.384Z" fill="#F7F5F9"/>
<path fill-rule="evenodd" clip-rule="evenodd" d="M82.7389 741.384C84.5554 741.384 86.0325 739.912 86.0325 738.09C86.0325 736.269 84.5554 734.797 82.7389 734.797C80.9224 734.797 79.4453 736.269 79.4453 738.09C79.4453 739.912 80.9224 741.384 82.7389 741.384Z" fill="#F7F5F9"/>
<path fill-rule="evenodd" clip-rule="evenodd" d="M115.727 741.384C117.543 741.384 119.02 739.912 119.02 738.09C119.02 736.269 117.543 734.797 115.727 734.797C113.915 734.797 112.433 736.269 112.433 738.09C112.433 739.912 113.915 741.384 115.727 741.384Z" fill="#F7F5F9"/>
<path fill-rule="evenodd" clip-rule="evenodd" d="M148.719 741.384C150.531 741.384 152.008 739.912 152.008 738.09C152.008 736.269 150.531 734.797 148.719 734.797C146.903 734.797 145.421 736.269 145.421 738.09C145.421 739.912 146.903 741.384 148.719 741.384Z" fill="#F7F5F9"/>
<path fill-rule="evenodd" clip-rule="evenodd" d="M181.706 741.384C183.523 741.384 185 739.912 185 738.09C185 736.269 183.523 734.797 181.706 734.797C179.89 734.797 178.413 736.269 178.413 738.09C178.413 739.912 179.89 741.384 181.706 741.384Z" fill="#F7F5F9"/>
</svg>
