<svg width="154" height="600" viewBox="0 0 154 600" fill="none" xmlns="http://www.w3.org/2000/svg">
<path fill-rule="evenodd" clip-rule="evenodd" d="M3.76392 5.58719C5.57539 5.58719 7.05751 4.11006 7.05751 2.2936C7.05751 0.472137 5.57539 -1 3.76392 -1C1.94745 -1 0.465332 0.472137 0.465332 2.2936C0.465332 4.11006 1.94745 5.58719 3.76392 5.58719Z" fill="#F7F5F9"/>
<path fill-rule="evenodd" clip-rule="evenodd" d="M36.7466 5.58719C38.5681 5.58719 40.0452 4.11006 40.0452 2.2936C40.0452 0.472137 38.5681 -1 36.7466 -1C34.9351 -1 33.458 0.472137 33.458 2.2936C33.458 4.11006 34.9351 5.58719 36.7466 5.58719Z" fill="#F7F5F9"/>
<path fill-rule="evenodd" clip-rule="evenodd" d="M69.7389 5.58719C71.5554 5.58719 73.0325 4.11006 73.0325 2.2936C73.0325 0.472137 71.5554 -1 69.7389 -1C67.9224 -1 66.4453 0.472137 66.4453 2.2936C66.4453 4.11006 67.9224 5.58719 69.7389 5.58719Z" fill="#F7F5F9"/>
<path fill-rule="evenodd" clip-rule="evenodd" d="M102.727 5.58719C104.543 5.58719 106.02 4.11006 106.02 2.2936C106.02 0.472137 104.543 -1 102.727 -1C100.915 -1 99.4331 0.472137 99.4331 2.2936C99.4331 4.11006 100.915 5.58719 102.727 5.58719Z" fill="#F7F5F9"/>
<path fill-rule="evenodd" clip-rule="evenodd" d="M135.719 5.58719C137.531 5.58719 139.008 4.11006 139.008 2.2936C139.008 0.472137 137.531 -1 135.719 -1C133.903 -1 132.421 0.472137 132.421 2.2936C132.421 4.11006 133.903 5.58719 135.719 5.58719Z" fill="#F7F5F9"/>
<path fill-rule="evenodd" clip-rule="evenodd" d="M3.76392 38.5701C5.57539 38.5701 7.05751 37.098 7.05751 35.2765C7.05751 33.46 5.57539 31.9829 3.76392 31.9829C1.94745 31.9829 0.465332 33.46 0.465332 35.2765C0.465332 37.098 1.94745 38.5701 3.76392 38.5701Z" fill="#F7F5F9"/>
<path fill-rule="evenodd" clip-rule="evenodd" d="M36.7466 38.5701C38.5681 38.5701 40.0452 37.098 40.0452 35.2765C40.0452 33.46 38.5681 31.9829 36.7466 31.9829C34.9351 31.9829 33.458 33.46 33.458 35.2765C33.458 37.098 34.9351 38.5701 36.7466 38.5701Z" fill="#F7F5F9"/>
<path fill-rule="evenodd" clip-rule="evenodd" d="M69.7389 38.5701C71.5554 38.5701 73.0325 37.098 73.0325 35.2765C73.0325 33.46 71.5554 31.9829 69.7389 31.9829C67.9224 31.9829 66.4453 33.46 66.4453 35.2765C66.4453 37.098 67.9224 38.5701 69.7389 38.5701Z" fill="#F7F5F9"/>
<path fill-rule="evenodd" clip-rule="evenodd" d="M102.727 38.5701C104.543 38.5701 106.02 37.098 106.02 35.2765C106.02 33.46 104.543 31.9829 102.727 31.9829C100.915 31.9829 99.4331 33.46 99.4331 35.2765C99.4331 37.098 100.915 38.5701 102.727 38.5701Z" fill="#F7F5F9"/>
<path fill-rule="evenodd" clip-rule="evenodd" d="M135.719 38.5701C137.531 38.5701 139.008 37.098 139.008 35.2765C139.008 33.46 137.531 31.9829 135.719 31.9829C133.903 31.9829 132.421 33.46 132.421 35.2765C132.421 37.098 133.903 38.5701 135.719 38.5701Z" fill="#F7F5F9"/>
<path fill-rule="evenodd" clip-rule="evenodd" d="M3.76392 71.5623C5.57539 71.5623 7.05751 70.0902 7.05751 68.2687C7.05751 66.4472 5.57539 64.9751 3.76392 64.9751C1.94745 64.9751 0.465332 66.4472 0.465332 68.2687C0.465332 70.0902 1.94745 71.5623 3.76392 71.5623Z" fill="#F7F5F9"/>
<path fill-rule="evenodd" clip-rule="evenodd" d="M36.7466 71.5623C38.5681 71.5623 40.0452 70.0902 40.0452 68.2687C40.0452 66.4472 38.5681 64.9751 36.7466 64.9751C34.9351 64.9751 33.458 66.4472 33.458 68.2687C33.458 70.0902 34.9351 71.5623 36.7466 71.5623Z" fill="#F7F5F9"/>
<path fill-rule="evenodd" clip-rule="evenodd" d="M69.7389 71.5623C71.5554 71.5623 73.0325 70.0902 73.0325 68.2687C73.0325 66.4472 71.5554 64.9751 69.7389 64.9751C67.9224 64.9751 66.4453 66.4472 66.4453 68.2687C66.4453 70.0902 67.9224 71.5623 69.7389 71.5623Z" fill="#F7F5F9"/>
<path fill-rule="evenodd" clip-rule="evenodd" d="M102.727 71.5623C104.543 71.5623 106.02 70.0902 106.02 68.2687C106.02 66.4472 104.543 64.9751 102.727 64.9751C100.915 64.9751 99.4331 66.4472 99.4331 68.2687C99.4331 70.0902 100.915 71.5623 102.727 71.5623Z" fill="#F7F5F9"/>
<path fill-rule="evenodd" clip-rule="evenodd" d="M135.719 71.5623C137.531 71.5623 139.008 70.0902 139.008 68.2687C139.008 66.4472 137.531 64.9751 135.719 64.9751C133.903 64.9751 132.421 66.4472 132.421 68.2687C132.421 70.0902 133.903 71.5623 135.719 71.5623Z" fill="#F7F5F9"/>
<path fill-rule="evenodd" clip-rule="evenodd" d="M3.76392 104.55C5.57539 104.55 7.05751 103.073 7.05751 101.257C7.05751 99.4404 5.57539 97.9683 3.76392 97.9683C1.94745 97.9683 0.465332 99.4404 0.465332 101.257C0.465332 103.073 1.94745 104.55 3.76392 104.55Z" fill="#F7F5F9"/>
<path fill-rule="evenodd" clip-rule="evenodd" d="M36.7466 104.55C38.5681 104.55 40.0452 103.073 40.0452 101.257C40.0452 99.4404 38.5681 97.9683 36.7466 97.9683C34.9351 97.9683 33.458 99.4404 33.458 101.257C33.458 103.073 34.9351 104.55 36.7466 104.55Z" fill="#F7F5F9"/>
<path fill-rule="evenodd" clip-rule="evenodd" d="M69.7389 104.55C71.5554 104.55 73.0325 103.073 73.0325 101.257C73.0325 99.4404 71.5554 97.9683 69.7389 97.9683C67.9224 97.9683 66.4453 99.4404 66.4453 101.257C66.4453 103.073 67.9224 104.55 69.7389 104.55Z" fill="#F7F5F9"/>
<path fill-rule="evenodd" clip-rule="evenodd" d="M102.727 104.55C104.543 104.55 106.02 103.073 106.02 101.257C106.02 99.4404 104.543 97.9683 102.727 97.9683C100.915 97.9683 99.4331 99.4404 99.4331 101.257C99.4331 103.073 100.915 104.55 102.727 104.55Z" fill="#F7F5F9"/>
<path fill-rule="evenodd" clip-rule="evenodd" d="M135.719 104.55C137.531 104.55 139.008 103.073 139.008 101.257C139.008 99.4404 137.531 97.9683 135.719 97.9683C133.903 97.9683 132.421 99.4404 132.421 101.257C132.421 103.073 133.903 104.55 135.719 104.55Z" fill="#F7F5F9"/>
<path fill-rule="evenodd" clip-rule="evenodd" d="M3.76392 137.537C5.57539 137.537 7.05751 136.065 7.05751 134.244C7.05751 132.427 5.57539 130.95 3.76392 130.95C1.94745 130.95 0.465332 132.427 0.465332 134.244C0.465332 136.065 1.94745 137.537 3.76392 137.537Z" fill="#F7F5F9"/>
<path fill-rule="evenodd" clip-rule="evenodd" d="M36.7466 137.537C38.5681 137.537 40.0452 136.065 40.0452 134.244C40.0452 132.427 38.5681 130.95 36.7466 130.95C34.9351 130.95 33.458 132.427 33.458 134.244C33.458 136.065 34.9351 137.537 36.7466 137.537Z" fill="#F7F5F9"/>
<path fill-rule="evenodd" clip-rule="evenodd" d="M69.7389 137.537C71.5554 137.537 73.0325 136.065 73.0325 134.244C73.0325 132.427 71.5554 130.95 69.7389 130.95C67.9224 130.95 66.4453 132.427 66.4453 134.244C66.4453 136.065 67.9224 137.537 69.7389 137.537Z" fill="#F7F5F9"/>
<path fill-rule="evenodd" clip-rule="evenodd" d="M102.727 137.537C104.543 137.537 106.02 136.065 106.02 134.244C106.02 132.427 104.543 130.95 102.727 130.95C100.915 130.95 99.4331 132.427 99.4331 134.244C99.4331 136.065 100.915 137.537 102.727 137.537Z" fill="#F7F5F9"/>
<path fill-rule="evenodd" clip-rule="evenodd" d="M135.719 137.537C137.531 137.537 139.008 136.065 139.008 134.244C139.008 132.427 137.531 130.95 135.719 130.95C133.903 130.95 132.421 132.427 132.421 134.244C132.421 136.065 133.903 137.537 135.719 137.537Z" fill="#F7F5F9"/>
<path fill-rule="evenodd" clip-rule="evenodd" d="M3.76392 170.53C5.57539 170.53 7.05751 169.058 7.05751 167.236C7.05751 165.415 5.57539 163.943 3.76392 163.943C1.94745 163.943 0.465332 165.415 0.465332 167.236C0.465332 169.058 1.94745 170.53 3.76392 170.53Z" fill="#F7F5F9"/>
<path fill-rule="evenodd" clip-rule="evenodd" d="M36.7466 170.53C38.5681 170.53 40.0452 169.058 40.0452 167.236C40.0452 165.415 38.5681 163.943 36.7466 163.943C34.9351 163.943 33.458 165.415 33.458 167.236C33.458 169.058 34.9351 170.53 36.7466 170.53Z" fill="#F7F5F9"/>
<path fill-rule="evenodd" clip-rule="evenodd" d="M69.7389 170.53C71.5554 170.53 73.0325 169.058 73.0325 167.236C73.0325 165.415 71.5554 163.943 69.7389 163.943C67.9224 163.943 66.4453 165.415 66.4453 167.236C66.4453 169.058 67.9224 170.53 69.7389 170.53Z" fill="#F7F5F9"/>
<path fill-rule="evenodd" clip-rule="evenodd" d="M102.727 170.53C104.543 170.53 106.02 169.058 106.02 167.236C106.02 165.415 104.543 163.943 102.727 163.943C100.915 163.943 99.4331 165.415 99.4331 167.236C99.4331 169.058 100.915 170.53 102.727 170.53Z" fill="#F7F5F9"/>
<path fill-rule="evenodd" clip-rule="evenodd" d="M135.719 170.53C137.531 170.53 139.008 169.058 139.008 167.236C139.008 165.415 137.531 163.943 135.719 163.943C133.903 163.943 132.421 165.415 132.421 167.236C132.421 169.058 133.903 170.53 135.719 170.53Z" fill="#F7F5F9"/>
<path fill-rule="evenodd" clip-rule="evenodd" d="M3.76392 203.518C5.57539 203.518 7.05751 202.041 7.05751 200.224C7.05751 198.408 5.57539 196.931 3.76392 196.931C1.94745 196.931 0.465332 198.408 0.465332 200.224C0.465332 202.041 1.94745 203.518 3.76392 203.518Z" fill="#F7F5F9"/>
<path fill-rule="evenodd" clip-rule="evenodd" d="M36.7466 203.518C38.5681 203.518 40.0452 202.041 40.0452 200.224C40.0452 198.408 38.5681 196.931 36.7466 196.931C34.9351 196.931 33.458 198.408 33.458 200.224C33.458 202.041 34.9351 203.518 36.7466 203.518Z" fill="#F7F5F9"/>
<path fill-rule="evenodd" clip-rule="evenodd" d="M69.7389 203.518C71.5554 203.518 73.0325 202.041 73.0325 200.224C73.0325 198.408 71.5554 196.931 69.7389 196.931C67.9224 196.931 66.4453 198.408 66.4453 200.224C66.4453 202.041 67.9224 203.518 69.7389 203.518Z" fill="#F7F5F9"/>
<path fill-rule="evenodd" clip-rule="evenodd" d="M102.727 203.518C104.543 203.518 106.02 202.041 106.02 200.224C106.02 198.408 104.543 196.931 102.727 196.931C100.915 196.931 99.4331 198.408 99.4331 200.224C99.4331 202.041 100.915 203.518 102.727 203.518Z" fill="#F7F5F9"/>
<path fill-rule="evenodd" clip-rule="evenodd" d="M135.719 203.518C137.531 203.518 139.008 202.041 139.008 200.224C139.008 198.408 137.531 196.931 135.719 196.931C133.903 196.931 132.421 198.408 132.421 200.224C132.421 202.041 133.903 203.518 135.719 203.518Z" fill="#F7F5F9"/>
<path fill-rule="evenodd" clip-rule="evenodd" d="M3.76392 236.505C5.57539 236.505 7.05751 235.033 7.05751 233.212C7.05751 231.39 5.57539 229.918 3.76392 229.918C1.94745 229.918 0.465332 231.39 0.465332 233.212C0.465332 235.033 1.94745 236.505 3.76392 236.505Z" fill="#F7F5F9"/>
<path fill-rule="evenodd" clip-rule="evenodd" d="M36.7466 236.505C38.5681 236.505 40.0452 235.033 40.0452 233.212C40.0452 231.39 38.5681 229.918 36.7466 229.918C34.9351 229.918 33.458 231.39 33.458 233.212C33.458 235.033 34.9351 236.505 36.7466 236.505Z" fill="#F7F5F9"/>
<path fill-rule="evenodd" clip-rule="evenodd" d="M69.7389 236.505C71.5554 236.505 73.0325 235.033 73.0325 233.212C73.0325 231.39 71.5554 229.918 69.7389 229.918C67.9224 229.918 66.4453 231.39 66.4453 233.212C66.4453 235.033 67.9224 236.505 69.7389 236.505Z" fill="#F7F5F9"/>
<path fill-rule="evenodd" clip-rule="evenodd" d="M102.727 236.505C104.543 236.505 106.02 235.033 106.02 233.212C106.02 231.39 104.543 229.918 102.727 229.918C100.915 229.918 99.4331 231.39 99.4331 233.212C99.4331 235.033 100.915 236.505 102.727 236.505Z" fill="#F7F5F9"/>
<path fill-rule="evenodd" clip-rule="evenodd" d="M135.719 236.505C137.531 236.505 139.008 235.033 139.008 233.212C139.008 231.39 137.531 229.918 135.719 229.918C133.903 229.918 132.421 231.39 132.421 233.212C132.421 235.033 133.903 236.505 135.719 236.505Z" fill="#F7F5F9"/>
<path fill-rule="evenodd" clip-rule="evenodd" d="M3.76392 269.498C5.57539 269.498 7.05751 268.021 7.05751 266.204C7.05751 264.383 5.57539 262.911 3.76392 262.911C1.94745 262.911 0.465332 264.383 0.465332 266.204C0.465332 268.021 1.94745 269.498 3.76392 269.498Z" fill="#F7F5F9"/>
<path fill-rule="evenodd" clip-rule="evenodd" d="M36.7466 269.498C38.5681 269.498 40.0452 268.021 40.0452 266.204C40.0452 264.383 38.5681 262.911 36.7466 262.911C34.9351 262.911 33.458 264.383 33.458 266.204C33.458 268.021 34.9351 269.498 36.7466 269.498Z" fill="#F7F5F9"/>
<path fill-rule="evenodd" clip-rule="evenodd" d="M69.7389 269.498C71.5554 269.498 73.0325 268.021 73.0325 266.204C73.0325 264.383 71.5554 262.911 69.7389 262.911C67.9224 262.911 66.4453 264.383 66.4453 266.204C66.4453 268.021 67.9224 269.498 69.7389 269.498Z" fill="#F7F5F9"/>
<path fill-rule="evenodd" clip-rule="evenodd" d="M102.727 269.498C104.543 269.498 106.02 268.021 106.02 266.204C106.02 264.383 104.543 262.911 102.727 262.911C100.915 262.911 99.4331 264.383 99.4331 266.204C99.4331 268.021 100.915 269.498 102.727 269.498Z" fill="#F7F5F9"/>
<path fill-rule="evenodd" clip-rule="evenodd" d="M135.719 269.498C137.531 269.498 139.008 268.021 139.008 266.204C139.008 264.383 137.531 262.911 135.719 262.911C133.903 262.911 132.421 264.383 132.421 266.204C132.421 268.021 133.903 269.498 135.719 269.498Z" fill="#F7F5F9"/>
<path fill-rule="evenodd" clip-rule="evenodd" d="M3.76392 302.481C5.57539 302.481 7.05751 301.009 7.05751 299.187C7.05751 297.376 5.57539 295.894 3.76392 295.894C1.94745 295.894 0.465332 297.376 0.465332 299.187C0.465332 301.009 1.94745 302.481 3.76392 302.481Z" fill="#F7F5F9"/>
<path fill-rule="evenodd" clip-rule="evenodd" d="M36.7466 302.481C38.5681 302.481 40.0452 301.009 40.0452 299.187C40.0452 297.376 38.5681 295.894 36.7466 295.894C34.9351 295.894 33.458 297.376 33.458 299.187C33.458 301.009 34.9351 302.481 36.7466 302.481Z" fill="#F7F5F9"/>
<path fill-rule="evenodd" clip-rule="evenodd" d="M69.7389 302.481C71.5554 302.481 73.0325 301.009 73.0325 299.187C73.0325 297.376 71.5554 295.894 69.7389 295.894C67.9224 295.894 66.4453 297.376 66.4453 299.187C66.4453 301.009 67.9224 302.481 69.7389 302.481Z" fill="#F7F5F9"/>
<path fill-rule="evenodd" clip-rule="evenodd" d="M102.727 302.481C104.543 302.481 106.02 301.009 106.02 299.187C106.02 297.376 104.543 295.894 102.727 295.894C100.915 295.894 99.4331 297.376 99.4331 299.187C99.4331 301.009 100.915 302.481 102.727 302.481Z" fill="#F7F5F9"/>
<path fill-rule="evenodd" clip-rule="evenodd" d="M135.719 302.481C137.531 302.481 139.008 301.009 139.008 299.187C139.008 297.376 137.531 295.894 135.719 295.894C133.903 295.894 132.421 297.376 132.421 299.187C132.421 301.009 133.903 302.481 135.719 302.481Z" fill="#F7F5F9"/>
<path fill-rule="evenodd" clip-rule="evenodd" d="M3.76392 335.473C5.57539 335.473 7.05751 334.001 7.05751 332.18C7.05751 330.358 5.57539 328.886 3.76392 328.886C1.94745 328.886 0.465332 330.358 0.465332 332.18C0.465332 334.001 1.94745 335.473 3.76392 335.473Z" fill="#F7F5F9"/>
<path fill-rule="evenodd" clip-rule="evenodd" d="M36.7466 335.473C38.5681 335.473 40.0452 334.001 40.0452 332.18C40.0452 330.358 38.5681 328.886 36.7466 328.886C34.9351 328.886 33.458 330.358 33.458 332.18C33.458 334.001 34.9351 335.473 36.7466 335.473Z" fill="#F7F5F9"/>
<path fill-rule="evenodd" clip-rule="evenodd" d="M69.7389 335.473C71.5554 335.473 73.0325 334.001 73.0325 332.18C73.0325 330.358 71.5554 328.886 69.7389 328.886C67.9224 328.886 66.4453 330.358 66.4453 332.18C66.4453 334.001 67.9224 335.473 69.7389 335.473Z" fill="#F7F5F9"/>
<path fill-rule="evenodd" clip-rule="evenodd" d="M102.727 335.473C104.543 335.473 106.02 334.001 106.02 332.18C106.02 330.358 104.543 328.886 102.727 328.886C100.915 328.886 99.4331 330.358 99.4331 332.18C99.4331 334.001 100.915 335.473 102.727 335.473Z" fill="#F7F5F9"/>
<path fill-rule="evenodd" clip-rule="evenodd" d="M135.719 335.473C137.531 335.473 139.008 334.001 139.008 332.18C139.008 330.358 137.531 328.886 135.719 328.886C133.903 328.886 132.421 330.358 132.421 332.18C132.421 334.001 133.903 335.473 135.719 335.473Z" fill="#F7F5F9"/>
<path fill-rule="evenodd" clip-rule="evenodd" d="M3.76392 368.461C5.57539 368.461 7.05751 366.983 7.05751 365.172C7.05751 363.351 5.57539 361.878 3.76392 361.878C1.94745 361.878 0.465332 363.351 0.465332 365.172C0.465332 366.983 1.94745 368.461 3.76392 368.461Z" fill="#F7F5F9"/>
<path fill-rule="evenodd" clip-rule="evenodd" d="M36.7466 368.461C38.5681 368.461 40.0452 366.983 40.0452 365.172C40.0452 363.351 38.5681 361.878 36.7466 361.878C34.9351 361.878 33.458 363.351 33.458 365.172C33.458 366.983 34.9351 368.461 36.7466 368.461Z" fill="#F7F5F9"/>
<path fill-rule="evenodd" clip-rule="evenodd" d="M69.7389 368.461C71.5554 368.461 73.0325 366.983 73.0325 365.172C73.0325 363.351 71.5554 361.878 69.7389 361.878C67.9224 361.878 66.4453 363.351 66.4453 365.172C66.4453 366.983 67.9224 368.461 69.7389 368.461Z" fill="#F7F5F9"/>
<path fill-rule="evenodd" clip-rule="evenodd" d="M102.727 368.461C104.543 368.461 106.02 366.983 106.02 365.172C106.02 363.351 104.543 361.878 102.727 361.878C100.915 361.878 99.4331 363.351 99.4331 365.172C99.4331 366.983 100.915 368.461 102.727 368.461Z" fill="#F7F5F9"/>
<path fill-rule="evenodd" clip-rule="evenodd" d="M135.719 368.461C137.531 368.461 139.008 366.983 139.008 365.172C139.008 363.351 137.531 361.878 135.719 361.878C133.903 361.878 132.421 363.351 132.421 365.172C132.421 366.983 133.903 368.461 135.719 368.461Z" fill="#F7F5F9"/>
<path fill-rule="evenodd" clip-rule="evenodd" d="M3.76392 401.448C5.57539 401.448 7.05751 399.976 7.05751 398.155C7.05751 396.338 5.57539 394.861 3.76392 394.861C1.94745 394.861 0.465332 396.338 0.465332 398.155C0.465332 399.976 1.94745 401.448 3.76392 401.448Z" fill="#F7F5F9"/>
<path fill-rule="evenodd" clip-rule="evenodd" d="M36.7466 401.448C38.5681 401.448 40.0452 399.976 40.0452 398.155C40.0452 396.338 38.5681 394.861 36.7466 394.861C34.9351 394.861 33.458 396.338 33.458 398.155C33.458 399.976 34.9351 401.448 36.7466 401.448Z" fill="#F7F5F9"/>
<path fill-rule="evenodd" clip-rule="evenodd" d="M69.7389 401.448C71.5554 401.448 73.0325 399.976 73.0325 398.155C73.0325 396.338 71.5554 394.861 69.7389 394.861C67.9224 394.861 66.4453 396.338 66.4453 398.155C66.4453 399.976 67.9224 401.448 69.7389 401.448Z" fill="#F7F5F9"/>
<path fill-rule="evenodd" clip-rule="evenodd" d="M102.727 401.448C104.543 401.448 106.02 399.976 106.02 398.155C106.02 396.338 104.543 394.861 102.727 394.861C100.915 394.861 99.4331 396.338 99.4331 398.155C99.4331 399.976 100.915 401.448 102.727 401.448Z" fill="#F7F5F9"/>
<path fill-rule="evenodd" clip-rule="evenodd" d="M135.719 401.448C137.531 401.448 139.008 399.976 139.008 398.155C139.008 396.338 137.531 394.861 135.719 394.861C133.903 394.861 132.421 396.338 132.421 398.155C132.421 399.976 133.903 401.448 135.719 401.448Z" fill="#F7F5F9"/>
<path fill-rule="evenodd" clip-rule="evenodd" d="M3.76392 434.441C5.57539 434.441 7.05751 432.969 7.05751 431.147C7.05751 429.326 5.57539 427.854 3.76392 427.854C1.94745 427.854 0.465332 429.326 0.465332 431.147C0.465332 432.969 1.94745 434.441 3.76392 434.441Z" fill="#F7F5F9"/>
<path fill-rule="evenodd" clip-rule="evenodd" d="M36.7466 434.441C38.5681 434.441 40.0452 432.969 40.0452 431.147C40.0452 429.326 38.5681 427.854 36.7466 427.854C34.9351 427.854 33.458 429.326 33.458 431.147C33.458 432.969 34.9351 434.441 36.7466 434.441Z" fill="#F7F5F9"/>
<path fill-rule="evenodd" clip-rule="evenodd" d="M69.7389 434.441C71.5554 434.441 73.0325 432.969 73.0325 431.147C73.0325 429.326 71.5554 427.854 69.7389 427.854C67.9224 427.854 66.4453 429.326 66.4453 431.147C66.4453 432.969 67.9224 434.441 69.7389 434.441Z" fill="#F7F5F9"/>
<path fill-rule="evenodd" clip-rule="evenodd" d="M102.727 434.441C104.543 434.441 106.02 432.969 106.02 431.147C106.02 429.326 104.543 427.854 102.727 427.854C100.915 427.854 99.4331 429.326 99.4331 431.147C99.4331 432.969 100.915 434.441 102.727 434.441Z" fill="#F7F5F9"/>
<path fill-rule="evenodd" clip-rule="evenodd" d="M135.719 434.441C137.531 434.441 139.008 432.969 139.008 431.147C139.008 429.326 137.531 427.854 135.719 427.854C133.903 427.854 132.421 429.326 132.421 431.147C132.421 432.969 133.903 434.441 135.719 434.441Z" fill="#F7F5F9"/>
<path fill-rule="evenodd" clip-rule="evenodd" d="M3.76392 467.428C5.57539 467.428 7.05751 465.951 7.05751 464.135C7.05751 462.318 5.57539 460.841 3.76392 460.841C1.94745 460.841 0.465332 462.318 0.465332 464.135C0.465332 465.951 1.94745 467.428 3.76392 467.428Z" fill="#F7F5F9"/>
<path fill-rule="evenodd" clip-rule="evenodd" d="M36.7466 467.428C38.5681 467.428 40.0452 465.951 40.0452 464.135C40.0452 462.318 38.5681 460.841 36.7466 460.841C34.9351 460.841 33.458 462.318 33.458 464.135C33.458 465.951 34.9351 467.428 36.7466 467.428Z" fill="#F7F5F9"/>
<path fill-rule="evenodd" clip-rule="evenodd" d="M69.7389 467.428C71.5554 467.428 73.0325 465.951 73.0325 464.135C73.0325 462.318 71.5554 460.841 69.7389 460.841C67.9224 460.841 66.4453 462.318 66.4453 464.135C66.4453 465.951 67.9224 467.428 69.7389 467.428Z" fill="#F7F5F9"/>
<path fill-rule="evenodd" clip-rule="evenodd" d="M102.727 467.428C104.543 467.428 106.02 465.951 106.02 464.135C106.02 462.318 104.543 460.841 102.727 460.841C100.915 460.841 99.4331 462.318 99.4331 464.135C99.4331 465.951 100.915 467.428 102.727 467.428Z" fill="#F7F5F9"/>
<path fill-rule="evenodd" clip-rule="evenodd" d="M135.719 467.428C137.531 467.428 139.008 465.951 139.008 464.135C139.008 462.318 137.531 460.841 135.719 460.841C133.903 460.841 132.421 462.318 132.421 464.135C132.421 465.951 133.903 467.428 135.719 467.428Z" fill="#F7F5F9"/>
<path fill-rule="evenodd" clip-rule="evenodd" d="M3.76392 500.416C5.57539 500.416 7.05751 498.944 7.05751 497.122C7.05751 495.301 5.57539 493.829 3.76392 493.829C1.94745 493.829 0.465332 495.301 0.465332 497.122C0.465332 498.944 1.94745 500.416 3.76392 500.416Z" fill="#F7F5F9"/>
<path fill-rule="evenodd" clip-rule="evenodd" d="M36.7466 500.416C38.5681 500.416 40.0452 498.944 40.0452 497.122C40.0452 495.301 38.5681 493.829 36.7466 493.829C34.9351 493.829 33.458 495.301 33.458 497.122C33.458 498.944 34.9351 500.416 36.7466 500.416Z" fill="#F7F5F9"/>
<path fill-rule="evenodd" clip-rule="evenodd" d="M69.7389 500.416C71.5554 500.416 73.0325 498.944 73.0325 497.122C73.0325 495.301 71.5554 493.829 69.7389 493.829C67.9224 493.829 66.4453 495.301 66.4453 497.122C66.4453 498.944 67.9224 500.416 69.7389 500.416Z" fill="#F7F5F9"/>
<path fill-rule="evenodd" clip-rule="evenodd" d="M102.727 500.416C104.543 500.416 106.02 498.944 106.02 497.122C106.02 495.301 104.543 493.829 102.727 493.829C100.915 493.829 99.4331 495.301 99.4331 497.122C99.4331 498.944 100.915 500.416 102.727 500.416Z" fill="#F7F5F9"/>
<path fill-rule="evenodd" clip-rule="evenodd" d="M135.719 500.416C137.531 500.416 139.008 498.944 139.008 497.122C139.008 495.301 137.531 493.829 135.719 493.829C133.903 493.829 132.421 495.301 132.421 497.122C132.421 498.944 133.903 500.416 135.719 500.416Z" fill="#F7F5F9"/>
<path fill-rule="evenodd" clip-rule="evenodd" d="M3.76392 533.409C5.57539 533.409 7.05751 531.932 7.05751 530.115C7.05751 528.294 5.57539 526.822 3.76392 526.822C1.94745 526.822 0.465332 528.294 0.465332 530.115C0.465332 531.932 1.94745 533.409 3.76392 533.409Z" fill="#F7F5F9"/>
<path fill-rule="evenodd" clip-rule="evenodd" d="M36.7466 533.409C38.5681 533.409 40.0452 531.932 40.0452 530.115C40.0452 528.294 38.5681 526.822 36.7466 526.822C34.9351 526.822 33.458 528.294 33.458 530.115C33.458 531.932 34.9351 533.409 36.7466 533.409Z" fill="#F7F5F9"/>
<path fill-rule="evenodd" clip-rule="evenodd" d="M69.7389 533.409C71.5554 533.409 73.0325 531.932 73.0325 530.115C73.0325 528.294 71.5554 526.822 69.7389 526.822C67.9224 526.822 66.4453 528.294 66.4453 530.115C66.4453 531.932 67.9224 533.409 69.7389 533.409Z" fill="#F7F5F9"/>
<path fill-rule="evenodd" clip-rule="evenodd" d="M102.727 533.409C104.543 533.409 106.02 531.932 106.02 530.115C106.02 528.294 104.543 526.822 102.727 526.822C100.915 526.822 99.4331 528.294 99.4331 530.115C99.4331 531.932 100.915 533.409 102.727 533.409Z" fill="#F7F5F9"/>
<path fill-rule="evenodd" clip-rule="evenodd" d="M135.719 533.409C137.531 533.409 139.008 531.932 139.008 530.115C139.008 528.294 137.531 526.822 135.719 526.822C133.903 526.822 132.421 528.294 132.421 530.115C132.421 531.932 133.903 533.409 135.719 533.409Z" fill="#F7F5F9"/>
<path fill-rule="evenodd" clip-rule="evenodd" d="M3.76392 566.391C5.57539 566.391 7.05751 564.919 7.05751 563.097C7.05751 561.286 5.57539 559.804 3.76392 559.804C1.94745 559.804 0.465332 561.286 0.465332 563.097C0.465332 564.919 1.94745 566.391 3.76392 566.391Z" fill="#F7F5F9"/>
<path fill-rule="evenodd" clip-rule="evenodd" d="M36.7466 566.391C38.5681 566.391 40.0452 564.919 40.0452 563.097C40.0452 561.286 38.5681 559.804 36.7466 559.804C34.9351 559.804 33.458 561.286 33.458 563.097C33.458 564.919 34.9351 566.391 36.7466 566.391Z" fill="#F7F5F9"/>
<path fill-rule="evenodd" clip-rule="evenodd" d="M69.7389 566.391C71.5554 566.391 73.0325 564.919 73.0325 563.097C73.0325 561.286 71.5554 559.804 69.7389 559.804C67.9224 559.804 66.4453 561.286 66.4453 563.097C66.4453 564.919 67.9224 566.391 69.7389 566.391Z" fill="#F7F5F9"/>
<path fill-rule="evenodd" clip-rule="evenodd" d="M102.727 566.391C104.543 566.391 106.02 564.919 106.02 563.097C106.02 561.286 104.543 559.804 102.727 559.804C100.915 559.804 99.4331 561.286 99.4331 563.097C99.4331 564.919 100.915 566.391 102.727 566.391Z" fill="#F7F5F9"/>
<path fill-rule="evenodd" clip-rule="evenodd" d="M135.719 566.391C137.531 566.391 139.008 564.919 139.008 563.097C139.008 561.286 137.531 559.804 135.719 559.804C133.903 559.804 132.421 561.286 132.421 563.097C132.421 564.919 133.903 566.391 135.719 566.391Z" fill="#F7F5F9"/>
<path fill-rule="evenodd" clip-rule="evenodd" d="M3.76392 599.384C5.57539 599.384 7.05751 597.912 7.05751 596.09C7.05751 594.269 5.57539 592.797 3.76392 592.797C1.94745 592.797 0.465332 594.269 0.465332 596.09C0.465332 597.912 1.94745 599.384 3.76392 599.384Z" fill="#F7F5F9"/>
<path fill-rule="evenodd" clip-rule="evenodd" d="M36.7466 599.384C38.5681 599.384 40.0452 597.912 40.0452 596.09C40.0452 594.269 38.5681 592.797 36.7466 592.797C34.9351 592.797 33.458 594.269 33.458 596.09C33.458 597.912 34.9351 599.384 36.7466 599.384Z" fill="#F7F5F9"/>
<path fill-rule="evenodd" clip-rule="evenodd" d="M69.7389 599.384C71.5554 599.384 73.0325 597.912 73.0325 596.09C73.0325 594.269 71.5554 592.797 69.7389 592.797C67.9224 592.797 66.4453 594.269 66.4453 596.09C66.4453 597.912 67.9224 599.384 69.7389 599.384Z" fill="#F7F5F9"/>
<path fill-rule="evenodd" clip-rule="evenodd" d="M102.727 599.384C104.543 599.384 106.02 597.912 106.02 596.09C106.02 594.269 104.543 592.797 102.727 592.797C100.915 592.797 99.4331 594.269 99.4331 596.09C99.4331 597.912 100.915 599.384 102.727 599.384Z" fill="#F7F5F9"/>
<path fill-rule="evenodd" clip-rule="evenodd" d="M135.719 599.384C137.531 599.384 139.008 597.912 139.008 596.09C139.008 594.269 137.531 592.797 135.719 592.797C133.903 592.797 132.421 594.269 132.421 596.09C132.421 597.912 133.903 599.384 135.719 599.384Z" fill="#F7F5F9"/>
</svg>
