<svg width="193" height="1102" viewBox="0 0 193 1102" fill="none" xmlns="http://www.w3.org/2000/svg">
<g opacity="0.456808">
<path fill-rule="evenodd" clip-rule="evenodd" d="M190.236 1094.79C188.425 1094.79 186.943 1096.27 186.943 1098.09C186.943 1099.91 188.425 1101.38 190.236 1101.38C192.053 1101.38 193.535 1099.91 193.535 1098.09C193.535 1096.27 192.053 1094.79 190.236 1094.79Z" fill="#F7F5F9"/>
<path fill-rule="evenodd" clip-rule="evenodd" d="M157.253 1094.79C155.432 1094.79 153.955 1096.27 153.955 1098.09C153.955 1099.91 155.432 1101.38 157.253 1101.38C159.065 1101.38 160.542 1099.91 160.542 1098.09C160.542 1096.27 159.065 1094.79 157.253 1094.79Z" fill="#F7F5F9"/>
<path fill-rule="evenodd" clip-rule="evenodd" d="M124.261 1094.79C122.445 1094.79 120.967 1096.27 120.967 1098.09C120.967 1099.91 122.445 1101.38 124.261 1101.38C126.078 1101.38 127.555 1099.91 127.555 1098.09C127.555 1096.27 126.078 1094.79 124.261 1094.79Z" fill="#F7F5F9"/>
<path fill-rule="evenodd" clip-rule="evenodd" d="M91.2733 1094.79C89.4568 1094.79 87.9797 1096.27 87.9797 1098.09C87.9797 1099.91 89.4568 1101.38 91.2733 1101.38C93.0848 1101.38 94.5669 1099.91 94.5669 1098.09C94.5669 1096.27 93.0848 1094.79 91.2733 1094.79Z" fill="#F7F5F9"/>
<path fill-rule="evenodd" clip-rule="evenodd" d="M58.281 1094.79C56.4695 1094.79 54.9924 1096.27 54.9924 1098.09C54.9924 1099.91 56.4695 1101.38 58.281 1101.38C60.0975 1101.38 61.5796 1099.91 61.5796 1098.09C61.5796 1096.27 60.0975 1094.79 58.281 1094.79Z" fill="#F7F5F9"/>
<path fill-rule="evenodd" clip-rule="evenodd" d="M25.2938 1094.79C23.4773 1094.79 22.0002 1096.27 22.0002 1098.09C22.0002 1099.91 23.4773 1101.38 25.2938 1101.38C27.1103 1101.38 28.5874 1099.91 28.5874 1098.09C28.5874 1096.27 27.1103 1094.79 25.2938 1094.79Z" fill="#F7F5F9"/>
<path fill-rule="evenodd" clip-rule="evenodd" d="M190.236 1061.81C188.425 1061.81 186.943 1063.28 186.943 1065.1C186.943 1066.92 188.425 1068.4 190.236 1068.4C192.053 1068.4 193.535 1066.92 193.535 1065.1C193.535 1063.28 192.053 1061.81 190.236 1061.81Z" fill="#F7F5F9"/>
<path fill-rule="evenodd" clip-rule="evenodd" d="M157.253 1061.81C155.432 1061.81 153.955 1063.28 153.955 1065.1C153.955 1066.92 155.432 1068.4 157.253 1068.4C159.065 1068.4 160.542 1066.92 160.542 1065.1C160.542 1063.28 159.065 1061.81 157.253 1061.81Z" fill="#F7F5F9"/>
<path fill-rule="evenodd" clip-rule="evenodd" d="M124.261 1061.81C122.445 1061.81 120.967 1063.28 120.967 1065.1C120.967 1066.92 122.445 1068.4 124.261 1068.4C126.078 1068.4 127.555 1066.92 127.555 1065.1C127.555 1063.28 126.078 1061.81 124.261 1061.81Z" fill="#F7F5F9"/>
<path fill-rule="evenodd" clip-rule="evenodd" d="M91.2733 1061.81C89.4568 1061.81 87.9797 1063.28 87.9797 1065.1C87.9797 1066.92 89.4568 1068.4 91.2733 1068.4C93.0848 1068.4 94.5669 1066.92 94.5669 1065.1C94.5669 1063.28 93.0848 1061.81 91.2733 1061.81Z" fill="#F7F5F9"/>
<path fill-rule="evenodd" clip-rule="evenodd" d="M58.281 1061.81C56.4695 1061.81 54.9924 1063.28 54.9924 1065.1C54.9924 1066.92 56.4695 1068.4 58.281 1068.4C60.0975 1068.4 61.5796 1066.92 61.5796 1065.1C61.5796 1063.28 60.0975 1061.81 58.281 1061.81Z" fill="#F7F5F9"/>
<path fill-rule="evenodd" clip-rule="evenodd" d="M25.2938 1061.81C23.4773 1061.81 22.0002 1063.28 22.0002 1065.1C22.0002 1066.92 23.4773 1068.4 25.2938 1068.4C27.1103 1068.4 28.5874 1066.92 28.5874 1065.1C28.5874 1063.28 27.1103 1061.81 25.2938 1061.81Z" fill="#F7F5F9"/>
<path fill-rule="evenodd" clip-rule="evenodd" d="M190.236 1028.82C188.425 1028.82 186.943 1030.29 186.943 1032.11C186.943 1033.93 188.425 1035.41 190.236 1035.41C192.053 1035.41 193.535 1033.93 193.535 1032.11C193.535 1030.29 192.053 1028.82 190.236 1028.82Z" fill="#F7F5F9"/>
<path fill-rule="evenodd" clip-rule="evenodd" d="M157.253 1028.82C155.432 1028.82 153.955 1030.29 153.955 1032.11C153.955 1033.93 155.432 1035.41 157.253 1035.41C159.065 1035.41 160.542 1033.93 160.542 1032.11C160.542 1030.29 159.065 1028.82 157.253 1028.82Z" fill="#F7F5F9"/>
<path fill-rule="evenodd" clip-rule="evenodd" d="M124.261 1028.82C122.445 1028.82 120.967 1030.29 120.967 1032.11C120.967 1033.93 122.445 1035.41 124.261 1035.41C126.078 1035.41 127.555 1033.93 127.555 1032.11C127.555 1030.29 126.078 1028.82 124.261 1028.82Z" fill="#F7F5F9"/>
<path fill-rule="evenodd" clip-rule="evenodd" d="M91.2733 1028.82C89.4568 1028.82 87.9797 1030.29 87.9797 1032.11C87.9797 1033.93 89.4568 1035.41 91.2733 1035.41C93.0848 1035.41 94.5669 1033.93 94.5669 1032.11C94.5669 1030.29 93.0848 1028.82 91.2733 1028.82Z" fill="#F7F5F9"/>
<path fill-rule="evenodd" clip-rule="evenodd" d="M58.281 1028.82C56.4695 1028.82 54.9924 1030.29 54.9924 1032.11C54.9924 1033.93 56.4695 1035.41 58.281 1035.41C60.0975 1035.41 61.5796 1033.93 61.5796 1032.11C61.5796 1030.29 60.0975 1028.82 58.281 1028.82Z" fill="#F7F5F9"/>
<path fill-rule="evenodd" clip-rule="evenodd" d="M25.2938 1028.82C23.4773 1028.82 22.0002 1030.29 22.0002 1032.11C22.0002 1033.93 23.4773 1035.41 25.2938 1035.41C27.1103 1035.41 28.5874 1033.93 28.5874 1032.11C28.5874 1030.29 27.1103 1028.82 25.2938 1028.82Z" fill="#F7F5F9"/>
<path fill-rule="evenodd" clip-rule="evenodd" d="M190.236 995.831C188.425 995.831 186.943 997.308 186.943 999.124C186.943 1000.94 188.425 1002.41 190.236 1002.41C192.053 1002.41 193.535 1000.94 193.535 999.124C193.535 997.308 192.053 995.831 190.236 995.831Z" fill="#F7F5F9"/>
<path fill-rule="evenodd" clip-rule="evenodd" d="M157.253 995.831C155.432 995.831 153.955 997.308 153.955 999.124C153.955 1000.94 155.432 1002.41 157.253 1002.41C159.065 1002.41 160.542 1000.94 160.542 999.124C160.542 997.308 159.065 995.831 157.253 995.831Z" fill="#F7F5F9"/>
<path fill-rule="evenodd" clip-rule="evenodd" d="M124.261 995.831C122.445 995.831 120.967 997.308 120.967 999.124C120.967 1000.94 122.445 1002.41 124.261 1002.41C126.078 1002.41 127.555 1000.94 127.555 999.124C127.555 997.308 126.078 995.831 124.261 995.831Z" fill="#F7F5F9"/>
<path fill-rule="evenodd" clip-rule="evenodd" d="M91.2733 995.831C89.4568 995.831 87.9797 997.308 87.9797 999.124C87.9797 1000.94 89.4568 1002.41 91.2733 1002.41C93.0848 1002.41 94.5669 1000.94 94.5669 999.124C94.5669 997.308 93.0848 995.831 91.2733 995.831Z" fill="#F7F5F9"/>
<path fill-rule="evenodd" clip-rule="evenodd" d="M58.281 995.831C56.4695 995.831 54.9924 997.308 54.9924 999.124C54.9924 1000.94 56.4695 1002.41 58.281 1002.41C60.0975 1002.41 61.5796 1000.94 61.5796 999.124C61.5796 997.308 60.0975 995.831 58.281 995.831Z" fill="#F7F5F9"/>
<path fill-rule="evenodd" clip-rule="evenodd" d="M25.2938 995.831C23.4773 995.831 22.0002 997.308 22.0002 999.124C22.0002 1000.94 23.4773 1002.41 25.2938 1002.41C27.1103 1002.41 28.5874 1000.94 28.5874 999.124C28.5874 997.308 27.1103 995.831 25.2938 995.831Z" fill="#F7F5F9"/>
<path fill-rule="evenodd" clip-rule="evenodd" d="M190.236 962.843C188.425 962.843 186.943 964.316 186.943 966.137C186.943 967.954 188.425 969.431 190.236 969.431C192.053 969.431 193.535 967.954 193.535 966.137C193.535 964.316 192.053 962.843 190.236 962.843Z" fill="#F7F5F9"/>
<path fill-rule="evenodd" clip-rule="evenodd" d="M157.253 962.843C155.432 962.843 153.955 964.316 153.955 966.137C153.955 967.954 155.432 969.431 157.253 969.431C159.065 969.431 160.542 967.954 160.542 966.137C160.542 964.316 159.065 962.843 157.253 962.843Z" fill="#F7F5F9"/>
<path fill-rule="evenodd" clip-rule="evenodd" d="M124.261 962.843C122.445 962.843 120.967 964.316 120.967 966.137C120.967 967.954 122.445 969.431 124.261 969.431C126.078 969.431 127.555 967.954 127.555 966.137C127.555 964.316 126.078 962.843 124.261 962.843Z" fill="#F7F5F9"/>
<path fill-rule="evenodd" clip-rule="evenodd" d="M91.2733 962.843C89.4568 962.843 87.9797 964.316 87.9797 966.137C87.9797 967.954 89.4568 969.431 91.2733 969.431C93.0848 969.431 94.5669 967.954 94.5669 966.137C94.5669 964.316 93.0848 962.843 91.2733 962.843Z" fill="#F7F5F9"/>
<path fill-rule="evenodd" clip-rule="evenodd" d="M58.281 962.843C56.4695 962.843 54.9924 964.316 54.9924 966.137C54.9924 967.954 56.4695 969.431 58.281 969.431C60.0975 969.431 61.5796 967.954 61.5796 966.137C61.5796 964.316 60.0975 962.843 58.281 962.843Z" fill="#F7F5F9"/>
<path fill-rule="evenodd" clip-rule="evenodd" d="M25.2938 962.843C23.4773 962.843 22.0002 964.316 22.0002 966.137C22.0002 967.954 23.4773 969.431 25.2938 969.431C27.1103 969.431 28.5874 967.954 28.5874 966.137C28.5874 964.316 27.1103 962.843 25.2938 962.843Z" fill="#F7F5F9"/>
<path fill-rule="evenodd" clip-rule="evenodd" d="M190.236 929.851C188.425 929.851 186.943 931.323 186.943 933.144C186.943 934.966 188.425 936.438 190.236 936.438C192.053 936.438 193.535 934.966 193.535 933.144C193.535 931.323 192.053 929.851 190.236 929.851Z" fill="#F7F5F9"/>
<path fill-rule="evenodd" clip-rule="evenodd" d="M157.253 929.851C155.432 929.851 153.955 931.323 153.955 933.144C153.955 934.966 155.432 936.438 157.253 936.438C159.065 936.438 160.542 934.966 160.542 933.144C160.542 931.323 159.065 929.851 157.253 929.851Z" fill="#F7F5F9"/>
<path fill-rule="evenodd" clip-rule="evenodd" d="M124.261 929.851C122.445 929.851 120.967 931.323 120.967 933.144C120.967 934.966 122.445 936.438 124.261 936.438C126.078 936.438 127.555 934.966 127.555 933.144C127.555 931.323 126.078 929.851 124.261 929.851Z" fill="#F7F5F9"/>
<path fill-rule="evenodd" clip-rule="evenodd" d="M91.2733 929.851C89.4568 929.851 87.9797 931.323 87.9797 933.144C87.9797 934.966 89.4568 936.438 91.2733 936.438C93.0848 936.438 94.5669 934.966 94.5669 933.144C94.5669 931.323 93.0848 929.851 91.2733 929.851Z" fill="#F7F5F9"/>
<path fill-rule="evenodd" clip-rule="evenodd" d="M58.281 929.851C56.4695 929.851 54.9924 931.323 54.9924 933.144C54.9924 934.966 56.4695 936.438 58.281 936.438C60.0975 936.438 61.5796 934.966 61.5796 933.144C61.5796 931.323 60.0975 929.851 58.281 929.851Z" fill="#F7F5F9"/>
<path fill-rule="evenodd" clip-rule="evenodd" d="M25.2938 929.851C23.4773 929.851 22.0002 931.323 22.0002 933.144C22.0002 934.966 23.4773 936.438 25.2938 936.438C27.1103 936.438 28.5874 934.966 28.5874 933.144C28.5874 931.323 27.1103 929.851 25.2938 929.851Z" fill="#F7F5F9"/>
<path fill-rule="evenodd" clip-rule="evenodd" d="M190.236 896.863C188.425 896.863 186.943 898.34 186.943 900.157C186.943 901.973 188.425 903.45 190.236 903.45C192.053 903.45 193.535 901.973 193.535 900.157C193.535 898.34 192.053 896.863 190.236 896.863Z" fill="#F7F5F9"/>
<path fill-rule="evenodd" clip-rule="evenodd" d="M157.253 896.863C155.432 896.863 153.955 898.34 153.955 900.157C153.955 901.973 155.432 903.45 157.253 903.45C159.065 903.45 160.542 901.973 160.542 900.157C160.542 898.34 159.065 896.863 157.253 896.863Z" fill="#F7F5F9"/>
<path fill-rule="evenodd" clip-rule="evenodd" d="M124.261 896.863C122.445 896.863 120.967 898.34 120.967 900.157C120.967 901.973 122.445 903.45 124.261 903.45C126.078 903.45 127.555 901.973 127.555 900.157C127.555 898.34 126.078 896.863 124.261 896.863Z" fill="#F7F5F9"/>
<path fill-rule="evenodd" clip-rule="evenodd" d="M91.2733 896.863C89.4568 896.863 87.9797 898.34 87.9797 900.157C87.9797 901.973 89.4568 903.45 91.2733 903.45C93.0848 903.45 94.5669 901.973 94.5669 900.157C94.5669 898.34 93.0848 896.863 91.2733 896.863Z" fill="#F7F5F9"/>
<path fill-rule="evenodd" clip-rule="evenodd" d="M58.281 896.863C56.4695 896.863 54.9924 898.34 54.9924 900.157C54.9924 901.973 56.4695 903.45 58.281 903.45C60.0975 903.45 61.5796 901.973 61.5796 900.157C61.5796 898.34 60.0975 896.863 58.281 896.863Z" fill="#F7F5F9"/>
<path fill-rule="evenodd" clip-rule="evenodd" d="M25.2938 896.863C23.4773 896.863 22.0002 898.34 22.0002 900.157C22.0002 901.973 23.4773 903.45 25.2938 903.45C27.1103 903.45 28.5874 901.973 28.5874 900.157C28.5874 898.34 27.1103 896.863 25.2938 896.863Z" fill="#F7F5F9"/>
<path fill-rule="evenodd" clip-rule="evenodd" d="M190.236 863.876C188.425 863.876 186.943 865.348 186.943 867.169C186.943 868.991 188.425 870.463 190.236 870.463C192.053 870.463 193.535 868.991 193.535 867.169C193.535 865.348 192.053 863.876 190.236 863.876Z" fill="#F7F5F9"/>
<path fill-rule="evenodd" clip-rule="evenodd" d="M157.253 863.876C155.432 863.876 153.955 865.348 153.955 867.169C153.955 868.991 155.432 870.463 157.253 870.463C159.065 870.463 160.542 868.991 160.542 867.169C160.542 865.348 159.065 863.876 157.253 863.876Z" fill="#F7F5F9"/>
<path fill-rule="evenodd" clip-rule="evenodd" d="M124.261 863.876C122.445 863.876 120.967 865.348 120.967 867.169C120.967 868.991 122.445 870.463 124.261 870.463C126.078 870.463 127.555 868.991 127.555 867.169C127.555 865.348 126.078 863.876 124.261 863.876Z" fill="#F7F5F9"/>
<path fill-rule="evenodd" clip-rule="evenodd" d="M91.2733 863.876C89.4568 863.876 87.9797 865.348 87.9797 867.169C87.9797 868.991 89.4568 870.463 91.2733 870.463C93.0848 870.463 94.5669 868.991 94.5669 867.169C94.5669 865.348 93.0848 863.876 91.2733 863.876Z" fill="#F7F5F9"/>
<path fill-rule="evenodd" clip-rule="evenodd" d="M58.281 863.876C56.4695 863.876 54.9924 865.348 54.9924 867.169C54.9924 868.991 56.4695 870.463 58.281 870.463C60.0975 870.463 61.5796 868.991 61.5796 867.169C61.5796 865.348 60.0975 863.876 58.281 863.876Z" fill="#F7F5F9"/>
<path fill-rule="evenodd" clip-rule="evenodd" d="M25.2938 863.876C23.4773 863.876 22.0002 865.348 22.0002 867.169C22.0002 868.991 23.4773 870.463 25.2938 870.463C27.1103 870.463 28.5874 868.991 28.5874 867.169C28.5874 865.348 27.1103 863.876 25.2938 863.876Z" fill="#F7F5F9"/>
<path fill-rule="evenodd" clip-rule="evenodd" d="M190.236 830.883C188.425 830.883 186.943 832.36 186.943 834.177C186.943 835.998 188.425 837.47 190.236 837.47C192.053 837.47 193.535 835.998 193.535 834.177C193.535 832.36 192.053 830.883 190.236 830.883Z" fill="#F7F5F9"/>
<path fill-rule="evenodd" clip-rule="evenodd" d="M157.253 830.883C155.432 830.883 153.955 832.36 153.955 834.177C153.955 835.998 155.432 837.47 157.253 837.47C159.065 837.47 160.542 835.998 160.542 834.177C160.542 832.36 159.065 830.883 157.253 830.883Z" fill="#F7F5F9"/>
<path fill-rule="evenodd" clip-rule="evenodd" d="M124.261 830.883C122.445 830.883 120.967 832.36 120.967 834.177C120.967 835.998 122.445 837.47 124.261 837.47C126.078 837.47 127.555 835.998 127.555 834.177C127.555 832.36 126.078 830.883 124.261 830.883Z" fill="#F7F5F9"/>
<path fill-rule="evenodd" clip-rule="evenodd" d="M91.2733 830.883C89.4568 830.883 87.9797 832.36 87.9797 834.177C87.9797 835.998 89.4568 837.47 91.2733 837.47C93.0848 837.47 94.5669 835.998 94.5669 834.177C94.5669 832.36 93.0848 830.883 91.2733 830.883Z" fill="#F7F5F9"/>
<path fill-rule="evenodd" clip-rule="evenodd" d="M58.281 830.883C56.4695 830.883 54.9924 832.36 54.9924 834.177C54.9924 835.998 56.4695 837.47 58.281 837.47C60.0975 837.47 61.5796 835.998 61.5796 834.177C61.5796 832.36 60.0975 830.883 58.281 830.883Z" fill="#F7F5F9"/>
<path fill-rule="evenodd" clip-rule="evenodd" d="M25.2938 830.883C23.4773 830.883 22.0002 832.36 22.0002 834.177C22.0002 835.998 23.4773 837.47 25.2938 837.47C27.1103 837.47 28.5874 835.998 28.5874 834.177C28.5874 832.36 27.1103 830.883 25.2938 830.883Z" fill="#F7F5F9"/>
<path fill-rule="evenodd" clip-rule="evenodd" d="M190.236 797.9C188.425 797.9 186.943 799.372 186.943 801.194C186.943 803.005 188.425 804.487 190.236 804.487C192.053 804.487 193.535 803.005 193.535 801.194C193.535 799.372 192.053 797.9 190.236 797.9Z" fill="#F7F5F9"/>
<path fill-rule="evenodd" clip-rule="evenodd" d="M157.253 797.9C155.432 797.9 153.955 799.372 153.955 801.194C153.955 803.005 155.432 804.487 157.253 804.487C159.065 804.487 160.542 803.005 160.542 801.194C160.542 799.372 159.065 797.9 157.253 797.9Z" fill="#F7F5F9"/>
<path fill-rule="evenodd" clip-rule="evenodd" d="M124.261 797.9C122.445 797.9 120.967 799.372 120.967 801.194C120.967 803.005 122.445 804.487 124.261 804.487C126.078 804.487 127.555 803.005 127.555 801.194C127.555 799.372 126.078 797.9 124.261 797.9Z" fill="#F7F5F9"/>
<path fill-rule="evenodd" clip-rule="evenodd" d="M91.2733 797.9C89.4568 797.9 87.9797 799.372 87.9797 801.194C87.9797 803.005 89.4568 804.487 91.2733 804.487C93.0848 804.487 94.5669 803.005 94.5669 801.194C94.5669 799.372 93.0848 797.9 91.2733 797.9Z" fill="#F7F5F9"/>
<path fill-rule="evenodd" clip-rule="evenodd" d="M58.281 797.9C56.4695 797.9 54.9924 799.372 54.9924 801.194C54.9924 803.005 56.4695 804.487 58.281 804.487C60.0975 804.487 61.5796 803.005 61.5796 801.194C61.5796 799.372 60.0975 797.9 58.281 797.9Z" fill="#F7F5F9"/>
<path fill-rule="evenodd" clip-rule="evenodd" d="M25.2938 797.9C23.4773 797.9 22.0002 799.372 22.0002 801.194C22.0002 803.005 23.4773 804.487 25.2938 804.487C27.1103 804.487 28.5874 803.005 28.5874 801.194C28.5874 799.372 27.1103 797.9 25.2938 797.9Z" fill="#F7F5F9"/>
<path fill-rule="evenodd" clip-rule="evenodd" d="M190.236 764.908C188.425 764.908 186.943 766.38 186.943 768.201C186.943 770.023 188.425 771.495 190.236 771.495C192.053 771.495 193.535 770.023 193.535 768.201C193.535 766.38 192.053 764.908 190.236 764.908Z" fill="#F7F5F9"/>
<path fill-rule="evenodd" clip-rule="evenodd" d="M157.253 764.908C155.432 764.908 153.955 766.38 153.955 768.201C153.955 770.023 155.432 771.495 157.253 771.495C159.065 771.495 160.542 770.023 160.542 768.201C160.542 766.38 159.065 764.908 157.253 764.908Z" fill="#F7F5F9"/>
<path fill-rule="evenodd" clip-rule="evenodd" d="M124.261 764.908C122.445 764.908 120.967 766.38 120.967 768.201C120.967 770.023 122.445 771.495 124.261 771.495C126.078 771.495 127.555 770.023 127.555 768.201C127.555 766.38 126.078 764.908 124.261 764.908Z" fill="#F7F5F9"/>
<path fill-rule="evenodd" clip-rule="evenodd" d="M91.2733 764.908C89.4568 764.908 87.9797 766.38 87.9797 768.201C87.9797 770.023 89.4568 771.495 91.2733 771.495C93.0848 771.495 94.5669 770.023 94.5669 768.201C94.5669 766.38 93.0848 764.908 91.2733 764.908Z" fill="#F7F5F9"/>
<path fill-rule="evenodd" clip-rule="evenodd" d="M58.281 764.908C56.4695 764.908 54.9924 766.38 54.9924 768.201C54.9924 770.023 56.4695 771.495 58.281 771.495C60.0975 771.495 61.5796 770.023 61.5796 768.201C61.5796 766.38 60.0975 764.908 58.281 764.908Z" fill="#F7F5F9"/>
<path fill-rule="evenodd" clip-rule="evenodd" d="M25.2938 764.908C23.4773 764.908 22.0002 766.38 22.0002 768.201C22.0002 770.023 23.4773 771.495 25.2938 771.495C27.1103 771.495 28.5874 770.023 28.5874 768.201C28.5874 766.38 27.1103 764.908 25.2938 764.908Z" fill="#F7F5F9"/>
<path fill-rule="evenodd" clip-rule="evenodd" d="M190.236 731.92C188.425 731.92 186.943 733.397 186.943 735.209C186.943 737.03 188.425 738.502 190.236 738.502C192.053 738.502 193.535 737.03 193.535 735.209C193.535 733.397 192.053 731.92 190.236 731.92Z" fill="#F7F5F9"/>
<path fill-rule="evenodd" clip-rule="evenodd" d="M157.253 731.92C155.432 731.92 153.955 733.397 153.955 735.209C153.955 737.03 155.432 738.502 157.253 738.502C159.065 738.502 160.542 737.03 160.542 735.209C160.542 733.397 159.065 731.92 157.253 731.92Z" fill="#F7F5F9"/>
<path fill-rule="evenodd" clip-rule="evenodd" d="M124.261 731.92C122.445 731.92 120.967 733.397 120.967 735.209C120.967 737.03 122.445 738.502 124.261 738.502C126.078 738.502 127.555 737.03 127.555 735.209C127.555 733.397 126.078 731.92 124.261 731.92Z" fill="#F7F5F9"/>
<path fill-rule="evenodd" clip-rule="evenodd" d="M91.2733 731.92C89.4568 731.92 87.9797 733.397 87.9797 735.209C87.9797 737.03 89.4568 738.502 91.2733 738.502C93.0848 738.502 94.5669 737.03 94.5669 735.209C94.5669 733.397 93.0848 731.92 91.2733 731.92Z" fill="#F7F5F9"/>
<path fill-rule="evenodd" clip-rule="evenodd" d="M58.281 731.92C56.4695 731.92 54.9924 733.397 54.9924 735.209C54.9924 737.03 56.4695 738.502 58.281 738.502C60.0975 738.502 61.5796 737.03 61.5796 735.209C61.5796 733.397 60.0975 731.92 58.281 731.92Z" fill="#F7F5F9"/>
<path fill-rule="evenodd" clip-rule="evenodd" d="M25.2938 731.92C23.4773 731.92 22.0002 733.397 22.0002 735.209C22.0002 737.03 23.4773 738.502 25.2938 738.502C27.1103 738.502 28.5874 737.03 28.5874 735.209C28.5874 733.397 27.1103 731.92 25.2938 731.92Z" fill="#F7F5F9"/>
<path fill-rule="evenodd" clip-rule="evenodd" d="M190.236 698.932C188.425 698.932 186.943 700.404 186.943 702.226C186.943 704.042 188.425 705.52 190.236 705.52C192.053 705.52 193.535 704.042 193.535 702.226C193.535 700.404 192.053 698.932 190.236 698.932Z" fill="#F7F5F9"/>
<path fill-rule="evenodd" clip-rule="evenodd" d="M157.253 698.932C155.432 698.932 153.955 700.404 153.955 702.226C153.955 704.042 155.432 705.52 157.253 705.52C159.065 705.52 160.542 704.042 160.542 702.226C160.542 700.404 159.065 698.932 157.253 698.932Z" fill="#F7F5F9"/>
<path fill-rule="evenodd" clip-rule="evenodd" d="M124.261 698.932C122.445 698.932 120.967 700.404 120.967 702.226C120.967 704.042 122.445 705.52 124.261 705.52C126.078 705.52 127.555 704.042 127.555 702.226C127.555 700.404 126.078 698.932 124.261 698.932Z" fill="#F7F5F9"/>
<path fill-rule="evenodd" clip-rule="evenodd" d="M91.2733 698.932C89.4568 698.932 87.9797 700.404 87.9797 702.226C87.9797 704.042 89.4568 705.52 91.2733 705.52C93.0848 705.52 94.5669 704.042 94.5669 702.226C94.5669 700.404 93.0848 698.932 91.2733 698.932Z" fill="#F7F5F9"/>
<path fill-rule="evenodd" clip-rule="evenodd" d="M58.281 698.932C56.4695 698.932 54.9924 700.404 54.9924 702.226C54.9924 704.042 56.4695 705.52 58.281 705.52C60.0975 705.52 61.5796 704.042 61.5796 702.226C61.5796 700.404 60.0975 698.932 58.281 698.932Z" fill="#F7F5F9"/>
<path fill-rule="evenodd" clip-rule="evenodd" d="M25.2938 698.932C23.4773 698.932 22.0002 700.404 22.0002 702.226C22.0002 704.042 23.4773 705.52 25.2938 705.52C27.1103 705.52 28.5874 704.042 28.5874 702.226C28.5874 700.404 27.1103 698.932 25.2938 698.932Z" fill="#F7F5F9"/>
<path fill-rule="evenodd" clip-rule="evenodd" d="M190.236 665.94C188.425 665.94 186.943 667.412 186.943 669.234C186.943 671.055 188.425 672.527 190.236 672.527C192.053 672.527 193.535 671.055 193.535 669.234C193.535 667.412 192.053 665.94 190.236 665.94Z" fill="#F7F5F9"/>
<path fill-rule="evenodd" clip-rule="evenodd" d="M157.253 665.94C155.432 665.94 153.955 667.412 153.955 669.234C153.955 671.055 155.432 672.527 157.253 672.527C159.065 672.527 160.542 671.055 160.542 669.234C160.542 667.412 159.065 665.94 157.253 665.94Z" fill="#F7F5F9"/>
<path fill-rule="evenodd" clip-rule="evenodd" d="M124.261 665.94C122.445 665.94 120.967 667.412 120.967 669.234C120.967 671.055 122.445 672.527 124.261 672.527C126.078 672.527 127.555 671.055 127.555 669.234C127.555 667.412 126.078 665.94 124.261 665.94Z" fill="#F7F5F9"/>
<path fill-rule="evenodd" clip-rule="evenodd" d="M91.2733 665.94C89.4568 665.94 87.9797 667.412 87.9797 669.234C87.9797 671.055 89.4568 672.527 91.2733 672.527C93.0848 672.527 94.5669 671.055 94.5669 669.234C94.5669 667.412 93.0848 665.94 91.2733 665.94Z" fill="#F7F5F9"/>
<path fill-rule="evenodd" clip-rule="evenodd" d="M58.281 665.94C56.4695 665.94 54.9924 667.412 54.9924 669.234C54.9924 671.055 56.4695 672.527 58.281 672.527C60.0975 672.527 61.5796 671.055 61.5796 669.234C61.5796 667.412 60.0975 665.94 58.281 665.94Z" fill="#F7F5F9"/>
<path fill-rule="evenodd" clip-rule="evenodd" d="M25.2938 665.94C23.4773 665.94 22.0002 667.412 22.0002 669.234C22.0002 671.055 23.4773 672.527 25.2938 672.527C27.1103 672.527 28.5874 671.055 28.5874 669.234C28.5874 667.412 27.1103 665.94 25.2938 665.94Z" fill="#F7F5F9"/>
<path fill-rule="evenodd" clip-rule="evenodd" d="M190.236 632.952C188.425 632.952 186.943 634.429 186.943 636.246C186.943 638.062 188.425 639.54 190.236 639.54C192.053 639.54 193.535 638.062 193.535 636.246C193.535 634.429 192.053 632.952 190.236 632.952Z" fill="#F7F5F9"/>
<path fill-rule="evenodd" clip-rule="evenodd" d="M157.253 632.952C155.432 632.952 153.955 634.429 153.955 636.246C153.955 638.062 155.432 639.54 157.253 639.54C159.065 639.54 160.542 638.062 160.542 636.246C160.542 634.429 159.065 632.952 157.253 632.952Z" fill="#F7F5F9"/>
<path fill-rule="evenodd" clip-rule="evenodd" d="M124.261 632.952C122.445 632.952 120.967 634.429 120.967 636.246C120.967 638.062 122.445 639.54 124.261 639.54C126.078 639.54 127.555 638.062 127.555 636.246C127.555 634.429 126.078 632.952 124.261 632.952Z" fill="#F7F5F9"/>
<path fill-rule="evenodd" clip-rule="evenodd" d="M91.2733 632.952C89.4568 632.952 87.9797 634.429 87.9797 636.246C87.9797 638.062 89.4568 639.54 91.2733 639.54C93.0848 639.54 94.5669 638.062 94.5669 636.246C94.5669 634.429 93.0848 632.952 91.2733 632.952Z" fill="#F7F5F9"/>
<path fill-rule="evenodd" clip-rule="evenodd" d="M58.281 632.952C56.4695 632.952 54.9924 634.429 54.9924 636.246C54.9924 638.062 56.4695 639.54 58.281 639.54C60.0975 639.54 61.5796 638.062 61.5796 636.246C61.5796 634.429 60.0975 632.952 58.281 632.952Z" fill="#F7F5F9"/>
<path fill-rule="evenodd" clip-rule="evenodd" d="M25.2938 632.952C23.4773 632.952 22.0002 634.429 22.0002 636.246C22.0002 638.062 23.4773 639.54 25.2938 639.54C27.1103 639.54 28.5874 638.062 28.5874 636.246C28.5874 634.429 27.1103 632.952 25.2938 632.952Z" fill="#F7F5F9"/>
<path fill-rule="evenodd" clip-rule="evenodd" d="M190.236 599.965C188.425 599.965 186.943 601.437 186.943 603.259C186.943 605.08 188.425 606.552 190.236 606.552C192.053 606.552 193.535 605.08 193.535 603.259C193.535 601.437 192.053 599.965 190.236 599.965Z" fill="#F7F5F9"/>
<path fill-rule="evenodd" clip-rule="evenodd" d="M157.253 599.965C155.432 599.965 153.955 601.437 153.955 603.259C153.955 605.08 155.432 606.552 157.253 606.552C159.065 606.552 160.542 605.08 160.542 603.259C160.542 601.437 159.065 599.965 157.253 599.965Z" fill="#F7F5F9"/>
<path fill-rule="evenodd" clip-rule="evenodd" d="M124.261 599.965C122.445 599.965 120.967 601.437 120.967 603.259C120.967 605.08 122.445 606.552 124.261 606.552C126.078 606.552 127.555 605.08 127.555 603.259C127.555 601.437 126.078 599.965 124.261 599.965Z" fill="#F7F5F9"/>
<path fill-rule="evenodd" clip-rule="evenodd" d="M91.2733 599.965C89.4568 599.965 87.9797 601.437 87.9797 603.259C87.9797 605.08 89.4568 606.552 91.2733 606.552C93.0848 606.552 94.5669 605.08 94.5669 603.259C94.5669 601.437 93.0848 599.965 91.2733 599.965Z" fill="#F7F5F9"/>
<path fill-rule="evenodd" clip-rule="evenodd" d="M58.281 599.965C56.4695 599.965 54.9924 601.437 54.9924 603.259C54.9924 605.08 56.4695 606.552 58.281 606.552C60.0975 606.552 61.5796 605.08 61.5796 603.259C61.5796 601.437 60.0975 599.965 58.281 599.965Z" fill="#F7F5F9"/>
<path fill-rule="evenodd" clip-rule="evenodd" d="M25.2938 599.965C23.4773 599.965 22.0002 601.437 22.0002 603.259C22.0002 605.08 23.4773 606.552 25.2938 606.552C27.1103 606.552 28.5874 605.08 28.5874 603.259C28.5874 601.437 27.1103 599.965 25.2938 599.965Z" fill="#F7F5F9"/>
<path fill-rule="evenodd" clip-rule="evenodd" d="M190.236 566.972C188.425 566.972 186.943 568.449 186.943 570.266C186.943 572.087 188.425 573.559 190.236 573.559C192.053 573.559 193.535 572.087 193.535 570.266C193.535 568.449 192.053 566.972 190.236 566.972Z" fill="#F7F5F9"/>
<path fill-rule="evenodd" clip-rule="evenodd" d="M157.253 566.972C155.432 566.972 153.955 568.449 153.955 570.266C153.955 572.087 155.432 573.559 157.253 573.559C159.065 573.559 160.542 572.087 160.542 570.266C160.542 568.449 159.065 566.972 157.253 566.972Z" fill="#F7F5F9"/>
<path fill-rule="evenodd" clip-rule="evenodd" d="M124.261 566.972C122.445 566.972 120.967 568.449 120.967 570.266C120.967 572.087 122.445 573.559 124.261 573.559C126.078 573.559 127.555 572.087 127.555 570.266C127.555 568.449 126.078 566.972 124.261 566.972Z" fill="#F7F5F9"/>
<path fill-rule="evenodd" clip-rule="evenodd" d="M91.2733 566.972C89.4568 566.972 87.9797 568.449 87.9797 570.266C87.9797 572.087 89.4568 573.559 91.2733 573.559C93.0848 573.559 94.5669 572.087 94.5669 570.266C94.5669 568.449 93.0848 566.972 91.2733 566.972Z" fill="#F7F5F9"/>
<path fill-rule="evenodd" clip-rule="evenodd" d="M58.281 566.972C56.4695 566.972 54.9924 568.449 54.9924 570.266C54.9924 572.087 56.4695 573.559 58.281 573.559C60.0975 573.559 61.5796 572.087 61.5796 570.266C61.5796 568.449 60.0975 566.972 58.281 566.972Z" fill="#F7F5F9"/>
<path fill-rule="evenodd" clip-rule="evenodd" d="M25.2938 566.972C23.4773 566.972 22.0002 568.449 22.0002 570.266C22.0002 572.087 23.4773 573.559 25.2938 573.559C27.1103 573.559 28.5874 572.087 28.5874 570.266C28.5874 568.449 27.1103 566.972 25.2938 566.972Z" fill="#F7F5F9"/>
<path fill-rule="evenodd" clip-rule="evenodd" d="M190.236 533.99C188.425 533.99 186.943 535.462 186.943 537.284C186.943 539.095 188.425 540.577 190.236 540.577C192.053 540.577 193.535 539.095 193.535 537.284C193.535 535.462 192.053 533.99 190.236 533.99Z" fill="#F7F5F9"/>
<path fill-rule="evenodd" clip-rule="evenodd" d="M157.253 533.99C155.432 533.99 153.955 535.462 153.955 537.284C153.955 539.095 155.432 540.577 157.253 540.577C159.065 540.577 160.542 539.095 160.542 537.284C160.542 535.462 159.065 533.99 157.253 533.99Z" fill="#F7F5F9"/>
<path fill-rule="evenodd" clip-rule="evenodd" d="M124.261 533.99C122.445 533.99 120.967 535.462 120.967 537.284C120.967 539.095 122.445 540.577 124.261 540.577C126.078 540.577 127.555 539.095 127.555 537.284C127.555 535.462 126.078 533.99 124.261 533.99Z" fill="#F7F5F9"/>
<path fill-rule="evenodd" clip-rule="evenodd" d="M91.2733 533.99C89.4568 533.99 87.9797 535.462 87.9797 537.284C87.9797 539.095 89.4568 540.577 91.2733 540.577C93.0848 540.577 94.5669 539.095 94.5669 537.284C94.5669 535.462 93.0848 533.99 91.2733 533.99Z" fill="#F7F5F9"/>
<path fill-rule="evenodd" clip-rule="evenodd" d="M58.281 533.99C56.4695 533.99 54.9924 535.462 54.9924 537.284C54.9924 539.095 56.4695 540.577 58.281 540.577C60.0975 540.577 61.5796 539.095 61.5796 537.284C61.5796 535.462 60.0975 533.99 58.281 533.99Z" fill="#F7F5F9"/>
<path fill-rule="evenodd" clip-rule="evenodd" d="M25.2938 533.99C23.4773 533.99 22.0002 535.462 22.0002 537.284C22.0002 539.095 23.4773 540.577 25.2938 540.577C27.1103 540.577 28.5874 539.095 28.5874 537.284C28.5874 535.462 27.1103 533.99 25.2938 533.99Z" fill="#F7F5F9"/>
<path fill-rule="evenodd" clip-rule="evenodd" d="M190.236 500.997C188.425 500.997 186.943 502.469 186.943 504.29C186.943 506.112 188.425 507.584 190.236 507.584C192.053 507.584 193.535 506.112 193.535 504.29C193.535 502.469 192.053 500.997 190.236 500.997Z" fill="#F7F5F9"/>
<path fill-rule="evenodd" clip-rule="evenodd" d="M157.253 500.997C155.432 500.997 153.955 502.469 153.955 504.29C153.955 506.112 155.432 507.584 157.253 507.584C159.065 507.584 160.542 506.112 160.542 504.29C160.542 502.469 159.065 500.997 157.253 500.997Z" fill="#F7F5F9"/>
<path fill-rule="evenodd" clip-rule="evenodd" d="M124.261 500.997C122.445 500.997 120.967 502.469 120.967 504.29C120.967 506.112 122.445 507.584 124.261 507.584C126.078 507.584 127.555 506.112 127.555 504.29C127.555 502.469 126.078 500.997 124.261 500.997Z" fill="#F7F5F9"/>
<path fill-rule="evenodd" clip-rule="evenodd" d="M91.2733 500.997C89.4568 500.997 87.9797 502.469 87.9797 504.29C87.9797 506.112 89.4568 507.584 91.2733 507.584C93.0848 507.584 94.5669 506.112 94.5669 504.29C94.5669 502.469 93.0848 500.997 91.2733 500.997Z" fill="#F7F5F9"/>
<path fill-rule="evenodd" clip-rule="evenodd" d="M58.281 500.997C56.4695 500.997 54.9924 502.469 54.9924 504.29C54.9924 506.112 56.4695 507.584 58.281 507.584C60.0975 507.584 61.5796 506.112 61.5796 504.29C61.5796 502.469 60.0975 500.997 58.281 500.997Z" fill="#F7F5F9"/>
<path fill-rule="evenodd" clip-rule="evenodd" d="M25.2938 500.997C23.4773 500.997 22.0002 502.469 22.0002 504.29C22.0002 506.112 23.4773 507.584 25.2938 507.584C27.1103 507.584 28.5874 506.112 28.5874 504.29C28.5874 502.469 27.1103 500.997 25.2938 500.997Z" fill="#F7F5F9"/>
<mask id="mask0" mask-type="alpha" maskUnits="userSpaceOnUse" x="0" y="70" width="207" height="16">
<path fill-rule="evenodd" clip-rule="evenodd" d="M207 85.6509H0.609802V70.4754H207V85.6509Z" fill="white"/>
</mask>
<g mask="url(#mask0)">
<path fill-rule="evenodd" clip-rule="evenodd" d="M75.028 85.6509H75.0221C68.8436 85.6509 63.0658 83.4701 58.7535 79.5128C55.428 76.4637 51.0079 74.787 46.3008 74.787C41.5937 74.787 37.1676 76.4637 33.8421 79.5128C29.5238 83.4701 23.7401 85.6509 17.5616 85.6509H17.5496C11.3711 85.6509 5.59338 83.4701 1.28101 79.5128C0.324036 78.6295 0.395798 77.2622 1.46043 76.4637C2.51311 75.6703 4.15193 75.7302 5.10892 76.6085C8.42842 79.6575 12.8485 81.3343 17.5496 81.3343H17.5616C22.2627 81.3343 26.6888 79.6575 30.0202 76.6085C34.3386 72.6512 40.1223 70.4754 46.3008 70.4754C52.4853 70.4754 58.263 72.6512 62.5814 76.6085C65.9009 79.6575 70.3149 81.3343 75.0221 81.3343H75.028C79.7352 81.3343 84.1612 79.6575 87.4927 76.6085C91.811 72.6512 97.5888 70.4754 103.773 70.4754H103.779C109.958 70.4754 115.741 72.6512 120.06 76.6085C126.717 82.7066 138.326 82.7066 144.995 76.6085C149.307 72.6512 155.097 70.4754 161.282 70.4754C167.466 70.4754 173.256 72.6512 177.574 76.6085C180.894 79.6575 185.32 81.3343 190.033 81.3343H190.039C194.746 81.3343 199.172 79.6575 202.503 76.6085C203.472 75.7302 205.105 75.6603 206.158 76.4687C207.211 77.2672 207.288 78.6345 206.325 79.5128C202.001 83.4701 196.217 85.6509 190.039 85.6509H190.033C183.848 85.6509 178.065 83.4701 173.74 79.5128C170.421 76.4637 165.995 74.787 161.282 74.787C156.568 74.787 152.142 76.4637 148.811 79.5128C140.174 87.4224 124.875 87.4224 116.238 79.5128C112.906 76.4637 108.486 74.787 103.779 74.787H103.773C99.0661 74.787 94.6461 76.4637 91.3086 79.5128C86.9903 83.4701 81.2125 85.6509 75.028 85.6509Z" fill="#F7F5F9"/>
</g>
<path fill-rule="evenodd" clip-rule="evenodd" d="M75.0278 50.3491H75.0218C68.8434 50.3491 63.0656 48.1684 58.7532 44.2111C55.4277 41.162 51.0077 39.4852 46.3006 39.4852C41.5934 39.4852 37.1674 41.162 33.8419 44.2111C29.5235 48.1684 23.7398 50.3491 17.5613 50.3491H17.5494C11.3709 50.3491 5.59314 48.1684 1.28076 44.2111C0.323792 43.3278 0.395554 41.9604 1.46019 41.162C2.51286 40.3685 4.15169 40.4284 5.10867 41.3067C8.42818 44.3558 12.8482 46.0325 17.5494 46.0325H17.5613C22.2625 46.0325 26.6885 44.3558 30.02 41.3067C34.3383 37.3494 40.1221 35.1736 46.3006 35.1736C52.485 35.1736 58.2628 37.3494 62.5811 41.3067C65.9006 44.3558 70.3147 46.0325 75.0218 46.0325H75.0278C79.7349 46.0325 84.161 44.3558 87.4924 41.3067C91.8108 37.3494 97.5885 35.1736 103.773 35.1736H103.779C109.957 35.1736 115.741 37.3494 120.06 41.3067C126.717 47.4048 138.326 47.4048 144.995 41.3067C149.307 37.3494 155.097 35.1736 161.281 35.1736C167.466 35.1736 173.256 37.3494 177.574 41.3067C180.893 44.3558 185.319 46.0325 190.033 46.0325H190.039C194.746 46.0325 199.172 44.3558 202.503 41.3067C203.472 40.4284 205.105 40.3586 206.158 41.167C207.21 41.9654 207.288 43.3328 206.325 44.2111C202.001 48.1684 196.217 50.3491 190.039 50.3491H190.033C183.848 50.3491 178.064 48.1684 173.74 44.2111C170.42 41.162 165.994 39.4852 161.281 39.4852C156.568 39.4852 152.142 41.162 148.811 44.2111C140.174 52.1207 124.874 52.1207 116.238 44.2111C112.906 41.162 108.486 39.4852 103.779 39.4852H103.773C99.0659 39.4852 94.6458 41.162 91.3084 44.2111C86.99 48.1684 81.2123 50.3491 75.0278 50.3491Z" fill="#F7F5F9"/>
<path fill-rule="evenodd" clip-rule="evenodd" d="M75.0278 15.1755H75.0218C68.8434 15.1755 63.0656 12.9948 58.7532 9.03747C55.4277 5.9884 51.0077 4.31166 46.3006 4.31166C41.5934 4.31166 37.1674 5.9884 33.8419 9.03747C29.5235 12.9948 23.7398 15.1755 17.5613 15.1755H17.5494C11.3709 15.1755 5.59314 12.9948 1.28076 9.03747C0.323792 8.15419 0.395554 6.78685 1.46019 5.9884C2.51286 5.19495 4.15169 5.25483 5.10867 6.13312C8.42818 9.18219 12.8482 10.8589 17.5494 10.8589H17.5613C22.2625 10.8589 26.6885 9.18219 30.02 6.13312C34.3383 2.17582 40.1221 4.95911e-05 46.3006 4.95911e-05C52.485 4.95911e-05 58.2628 2.17582 62.5811 6.13312C65.9006 9.18219 70.3147 10.8589 75.0218 10.8589H75.0278C79.7349 10.8589 84.161 9.18219 87.4924 6.13312C91.8108 2.17582 97.5885 4.95911e-05 103.773 4.95911e-05H103.779C109.957 4.95911e-05 115.741 2.17582 120.06 6.13312C126.717 12.2313 138.326 12.2313 144.995 6.13312C149.307 2.17582 155.097 4.95911e-05 161.281 4.95911e-05C167.466 4.95911e-05 173.256 2.17582 177.574 6.13312C180.893 9.18219 185.319 10.8589 190.033 10.8589H190.039C194.746 10.8589 199.172 9.18219 202.503 6.13312C203.472 5.25483 205.105 5.18497 206.158 5.99339C207.21 6.79184 207.288 8.15918 206.325 9.03747C202.001 12.9948 196.217 15.1755 190.039 15.1755H190.033C183.848 15.1755 178.064 12.9948 173.74 9.03747C170.42 5.9884 165.994 4.31166 161.281 4.31166C156.568 4.31166 152.142 5.9884 148.811 9.03747C140.174 16.9471 124.874 16.9471 116.238 9.03747C112.906 5.9884 108.486 4.31166 103.779 4.31166H103.773C99.0659 4.31166 94.6458 5.9884 91.3084 9.03747C86.99 12.9948 81.2123 15.1755 75.0278 15.1755Z" fill="#F7F5F9"/>
</g>
</svg>
