<svg width="179" height="1490" viewBox="0 0 179 1490" fill="none" xmlns="http://www.w3.org/2000/svg">
<path fill-rule="evenodd" clip-rule="evenodd" d="M103.972 1214.69H103.978C110.156 1214.69 115.934 1216.88 120.247 1220.83C123.572 1223.88 127.992 1225.56 132.699 1225.56C137.406 1225.56 141.832 1223.88 145.158 1220.83C149.476 1216.88 155.26 1214.69 161.438 1214.69H161.45C167.629 1214.69 173.407 1216.88 177.719 1220.83C178.676 1221.72 178.604 1223.08 177.54 1223.88C176.487 1224.68 174.848 1224.62 173.891 1223.74C170.572 1220.69 166.152 1219.01 161.45 1219.01H161.438C156.737 1219.01 152.311 1220.69 148.98 1223.74C144.661 1227.69 138.878 1229.87 132.699 1229.87C126.515 1229.87 120.737 1227.69 116.419 1223.74C113.099 1220.69 108.685 1219.01 103.978 1219.01H103.972C99.2648 1219.01 94.8388 1220.69 91.5073 1223.74C87.189 1227.69 81.4112 1229.87 75.2267 1229.87H75.2208C69.0423 1229.87 63.2585 1227.69 58.9402 1223.74C52.2832 1217.64 40.6739 1217.64 34.005 1223.74C29.6926 1227.69 23.9029 1229.87 17.7184 1229.87C11.5339 1229.87 5.74422 1227.69 1.42586 1223.74C-1.89365 1220.69 -6.31967 1219.01 -11.0328 1219.01H-11.0388C-15.7459 1219.01 -20.1719 1220.69 -23.5034 1223.74C-24.4723 1224.62 -26.1052 1224.69 -27.1579 1223.88C-28.2105 1223.08 -28.2883 1221.71 -27.3253 1220.83C-23.001 1216.88 -17.2173 1214.69 -11.0388 1214.69H-11.0328C-4.84832 1214.69 0.93541 1216.88 5.25975 1220.83C8.57927 1223.88 13.0053 1225.56 17.7184 1225.56C22.4315 1225.56 26.8575 1223.88 30.189 1220.83C38.8257 1212.92 54.1254 1212.92 62.7621 1220.83C66.0936 1223.88 70.5136 1225.56 75.2208 1225.56H75.2267C79.9339 1225.56 84.3539 1223.88 87.6914 1220.83C92.0097 1216.88 97.7875 1214.69 103.972 1214.69Z" fill="#F7F5F9"/>
<path fill-rule="evenodd" clip-rule="evenodd" d="M103.972 1250H103.978C110.157 1250 115.934 1252.18 120.247 1256.13C123.572 1259.18 127.992 1260.86 132.699 1260.86C137.407 1260.86 141.833 1259.18 145.158 1256.13C149.476 1252.18 155.26 1250 161.439 1250H161.451C167.629 1250 173.407 1252.18 177.719 1256.13C178.676 1257.02 178.604 1258.38 177.54 1259.18C176.487 1259.98 174.848 1259.92 173.891 1259.04C170.572 1255.99 166.152 1254.31 161.451 1254.31H161.439C156.738 1254.31 152.311 1255.99 148.98 1259.04C144.662 1263 138.878 1265.17 132.699 1265.17C126.515 1265.17 120.737 1263 116.419 1259.04C113.099 1255.99 108.685 1254.31 103.978 1254.31H103.972C99.2651 1254.31 94.839 1255.99 91.5076 1259.04C87.1892 1263 81.4115 1265.17 75.227 1265.17H75.221C69.0425 1265.17 63.2588 1263 58.9404 1259.04C52.2835 1252.94 40.6741 1252.94 34.0052 1259.04C29.6928 1263 23.9031 1265.17 17.7186 1265.17C11.5342 1265.17 5.74446 1263 1.42611 1259.04C-1.89341 1255.99 -6.31943 1254.31 -11.0325 1254.31H-11.0385C-15.7457 1254.31 -20.1717 1255.99 -23.5032 1259.04C-24.4721 1259.92 -26.1049 1259.99 -27.1576 1259.18C-28.2103 1258.38 -28.288 1257.01 -27.3251 1256.13C-23.0007 1252.18 -17.217 1250 -11.0385 1250H-11.0325C-4.84808 1250 0.935654 1252.18 5.25999 1256.13C8.57951 1259.18 13.0055 1260.86 17.7186 1260.86C22.4318 1260.86 26.8578 1259.18 30.1892 1256.13C38.826 1248.22 54.1256 1248.22 62.7624 1256.13C66.0938 1259.18 70.5139 1260.86 75.221 1260.86H75.227C79.9341 1260.86 84.3542 1259.18 87.6916 1256.13C92.01 1252.18 97.7877 1250 103.972 1250Z" fill="#F7F5F9"/>
<path fill-rule="evenodd" clip-rule="evenodd" d="M103.972 1285.17H103.978C110.157 1285.17 115.934 1287.35 120.247 1291.31C123.572 1294.36 127.992 1296.03 132.699 1296.03C137.407 1296.03 141.833 1294.36 145.158 1291.31C149.476 1287.35 155.26 1285.17 161.439 1285.17H161.451C167.629 1285.17 173.407 1287.35 177.719 1291.31C178.676 1292.19 178.604 1293.56 177.54 1294.36C176.487 1295.15 174.848 1295.09 173.891 1294.21C170.572 1291.16 166.152 1289.49 161.451 1289.49H161.439C156.738 1289.49 152.311 1291.16 148.98 1294.21C144.662 1298.17 138.878 1300.34 132.699 1300.34C126.515 1300.34 120.737 1298.17 116.419 1294.21C113.099 1291.16 108.685 1289.49 103.978 1289.49H103.972C99.2651 1289.49 94.839 1291.16 91.5076 1294.21C87.1892 1298.17 81.4115 1300.34 75.227 1300.34H75.221C69.0425 1300.34 63.2588 1298.17 58.9404 1294.21C52.2835 1288.11 40.6741 1288.11 34.0052 1294.21C29.6928 1298.17 23.9031 1300.34 17.7186 1300.34C11.5342 1300.34 5.74446 1298.17 1.42611 1294.21C-1.89341 1291.16 -6.31943 1289.49 -11.0325 1289.49H-11.0385C-15.7457 1289.49 -20.1717 1291.16 -23.5032 1294.21C-24.4721 1295.09 -26.1049 1295.16 -27.1576 1294.35C-28.2103 1293.55 -28.288 1292.18 -27.3251 1291.31C-23.0007 1287.35 -17.217 1285.17 -11.0385 1285.17H-11.0325C-4.84808 1285.17 0.935654 1287.35 5.25999 1291.31C8.57951 1294.36 13.0055 1296.03 17.7186 1296.03C22.4318 1296.03 26.8578 1294.36 30.1892 1291.31C38.826 1283.4 54.1256 1283.4 62.7624 1291.31C66.0938 1294.36 70.5139 1296.03 75.221 1296.03H75.227C79.9341 1296.03 84.3542 1294.36 87.6916 1291.31C92.01 1287.35 97.7877 1285.17 103.972 1285.17Z" fill="#F7F5F9"/>
<path fill-rule="evenodd" clip-rule="evenodd" d="M103.972 0.698242H103.978C110.156 0.698242 115.934 2.879 120.247 6.83631C123.572 9.88538 127.992 11.5621 132.699 11.5621C137.406 11.5621 141.832 9.88538 145.158 6.83631C149.476 2.879 155.26 0.698242 161.438 0.698242H161.45C167.629 0.698242 173.407 2.879 177.719 6.83631C178.676 7.71959 178.604 9.08693 177.54 9.88538C176.487 10.6788 174.848 10.6189 173.891 9.74066C170.572 6.69159 166.152 5.01485 161.45 5.01485H161.438C156.737 5.01485 152.311 6.69159 148.98 9.74066C144.661 13.698 138.878 15.8737 132.699 15.8737C126.515 15.8737 120.737 13.698 116.419 9.74066C113.099 6.69159 108.685 5.01485 103.978 5.01485H103.972C99.2648 5.01485 94.8388 6.69159 91.5073 9.74066C87.189 13.698 81.4112 15.8737 75.2267 15.8737H75.2208C69.0423 15.8737 63.2585 13.698 58.9402 9.74066C52.2832 3.64252 40.6739 3.64252 34.005 9.74066C29.6926 13.698 23.9029 15.8737 17.7184 15.8737C11.5339 15.8737 5.74422 13.698 1.42586 9.74066C-1.89365 6.69159 -6.31967 5.01485 -11.0328 5.01485H-11.0388C-15.7459 5.01485 -20.1719 6.69159 -23.5034 9.74066C-24.4723 10.6189 -26.1052 10.6888 -27.1579 9.88039C-28.2105 9.08194 -28.2883 7.7146 -27.3253 6.83631C-23.001 2.879 -17.2173 0.698242 -11.0388 0.698242H-11.0328C-4.84832 0.698242 0.93541 2.879 5.25975 6.83631C8.57927 9.88538 13.0053 11.5621 17.7184 11.5621C22.4315 11.5621 26.8575 9.88538 30.189 6.83631C38.8257 -1.07331 54.1254 -1.07331 62.7621 6.83631C66.0936 9.88538 70.5136 11.5621 75.2208 11.5621H75.2267C79.9339 11.5621 84.3539 9.88538 87.6914 6.83631C92.0097 2.879 97.7875 0.698242 103.972 0.698242Z" fill="#F7F5F9"/>
<path fill-rule="evenodd" clip-rule="evenodd" d="M103.972 35.999H103.978C110.157 35.999 115.934 38.1798 120.247 42.1371C123.572 45.1862 127.992 46.8629 132.699 46.8629C137.407 46.8629 141.833 45.1862 145.158 42.1371C149.476 38.1798 155.26 35.999 161.439 35.999H161.451C167.629 35.999 173.407 38.1798 177.719 42.1371C178.676 43.0204 178.604 44.3877 177.54 45.1862C176.487 45.9796 174.848 45.9197 173.891 45.0414C170.572 41.9924 166.152 40.3156 161.451 40.3156H161.439C156.738 40.3156 152.311 41.9924 148.98 45.0414C144.662 48.9987 138.878 51.1745 132.699 51.1745C126.515 51.1745 120.737 48.9987 116.419 45.0414C113.099 41.9924 108.685 40.3156 103.978 40.3156H103.972C99.2651 40.3156 94.839 41.9924 91.5076 45.0414C87.1892 48.9987 81.4115 51.1745 75.227 51.1745H75.221C69.0425 51.1745 63.2588 48.9987 58.9404 45.0414C52.2835 38.9433 40.6741 38.9433 34.0052 45.0414C29.6928 48.9987 23.9031 51.1745 17.7186 51.1745C11.5342 51.1745 5.74446 48.9987 1.42611 45.0414C-1.89341 41.9924 -6.31943 40.3156 -11.0325 40.3156H-11.0385C-15.7457 40.3156 -20.1717 41.9924 -23.5032 45.0414C-24.4721 45.9197 -26.1049 45.9896 -27.1576 45.1812C-28.2103 44.3827 -28.288 43.0154 -27.3251 42.1371C-23.0007 38.1798 -17.217 35.999 -11.0385 35.999H-11.0325C-4.84808 35.999 0.935654 38.1798 5.25999 42.1371C8.57951 45.1862 13.0055 46.8629 17.7186 46.8629C22.4318 46.8629 26.8578 45.1862 30.1892 42.1371C38.826 34.2275 54.1256 34.2275 62.7624 42.1371C66.0938 45.1862 70.5139 46.8629 75.221 46.8629H75.227C79.9341 46.8629 84.3542 45.1862 87.6916 42.1371C92.01 38.1798 97.7877 35.999 103.972 35.999Z" fill="#F7F5F9"/>
<path fill-rule="evenodd" clip-rule="evenodd" d="M103.972 71.1719H103.978C110.157 71.1719 115.934 73.3526 120.247 77.3099C123.572 80.359 127.992 82.0357 132.699 82.0357C137.407 82.0357 141.833 80.359 145.158 77.3099C149.476 73.3526 155.26 71.1719 161.439 71.1719H161.451C167.629 71.1719 173.407 73.3526 177.719 77.3099C178.676 78.1932 178.604 79.5606 177.54 80.359C176.487 81.1525 174.848 81.0926 173.891 80.2143C170.572 77.1652 166.152 75.4885 161.451 75.4885H161.439C156.738 75.4885 152.311 77.1652 148.98 80.2143C144.662 84.1716 138.878 86.3474 132.699 86.3474C126.515 86.3474 120.737 84.1716 116.419 80.2143C113.099 77.1652 108.685 75.4885 103.978 75.4885H103.972C99.2651 75.4885 94.839 77.1652 91.5076 80.2143C87.1892 84.1716 81.4115 86.3474 75.227 86.3474H75.221C69.0425 86.3474 63.2588 84.1716 58.9404 80.2143C52.2835 74.1161 40.6741 74.1161 34.0052 80.2143C29.6928 84.1716 23.9031 86.3474 17.7186 86.3474C11.5342 86.3474 5.74446 84.1716 1.42611 80.2143C-1.89341 77.1652 -6.31943 75.4885 -11.0325 75.4885H-11.0385C-15.7457 75.4885 -20.1717 77.1652 -23.5032 80.2143C-24.4721 81.0926 -26.1049 81.1624 -27.1576 80.354C-28.2103 79.5556 -28.288 78.1882 -27.3251 77.3099C-23.0007 73.3526 -17.217 71.1719 -11.0385 71.1719H-11.0325C-4.84808 71.1719 0.935654 73.3526 5.25999 77.3099C8.57951 80.359 13.0055 82.0357 17.7186 82.0357C22.4318 82.0357 26.8578 80.359 30.1892 77.3099C38.826 69.4003 54.1256 69.4003 62.7624 77.3099C66.0938 80.359 70.5139 82.0357 75.221 82.0357H75.227C79.9341 82.0357 84.3542 80.359 87.6916 77.3099C92.01 73.3526 97.7877 71.1719 103.972 71.1719Z" fill="#F7F5F9"/>
<path fill-rule="evenodd" clip-rule="evenodd" d="M103.972 1046.7H103.978C110.156 1046.7 115.934 1048.88 120.247 1052.84C123.572 1055.89 127.992 1057.56 132.699 1057.56C137.406 1057.56 141.832 1055.89 145.158 1052.84C149.476 1048.88 155.26 1046.7 161.438 1046.7H161.45C167.629 1046.7 173.407 1048.88 177.719 1052.84C178.676 1053.72 178.604 1055.09 177.54 1055.89C176.487 1056.68 174.848 1056.62 173.891 1055.74C170.572 1052.69 166.152 1051.01 161.45 1051.01H161.438C156.737 1051.01 152.311 1052.69 148.98 1055.74C144.661 1059.7 138.878 1061.87 132.699 1061.87C126.515 1061.87 120.737 1059.7 116.419 1055.74C113.099 1052.69 108.685 1051.01 103.978 1051.01H103.972C99.2648 1051.01 94.8388 1052.69 91.5073 1055.74C87.189 1059.7 81.4112 1061.87 75.2267 1061.87H75.2208C69.0423 1061.87 63.2585 1059.7 58.9402 1055.74C52.2832 1049.64 40.6739 1049.64 34.005 1055.74C29.6926 1059.7 23.9029 1061.87 17.7184 1061.87C11.5339 1061.87 5.74422 1059.7 1.42586 1055.74C-1.89365 1052.69 -6.31967 1051.01 -11.0328 1051.01H-11.0388C-15.7459 1051.01 -20.1719 1052.69 -23.5034 1055.74C-24.4723 1056.62 -26.1052 1056.69 -27.1579 1055.88C-28.2105 1055.08 -28.2883 1053.71 -27.3253 1052.84C-23.001 1048.88 -17.2173 1046.7 -11.0388 1046.7H-11.0328C-4.84832 1046.7 0.93541 1048.88 5.25975 1052.84C8.57927 1055.89 13.0053 1057.56 17.7184 1057.56C22.4315 1057.56 26.8575 1055.89 30.189 1052.84C38.8257 1044.93 54.1254 1044.93 62.7621 1052.84C66.0936 1055.89 70.5136 1057.56 75.2208 1057.56H75.2267C79.9339 1057.56 84.3539 1055.89 87.6914 1052.84C92.0097 1048.88 97.7875 1046.7 103.972 1046.7Z" fill="#F7F5F9"/>
<path fill-rule="evenodd" clip-rule="evenodd" d="M103.972 1082H103.978C110.157 1082 115.934 1084.18 120.247 1088.14C123.572 1091.19 127.992 1092.86 132.699 1092.86C137.407 1092.86 141.833 1091.19 145.158 1088.14C149.476 1084.18 155.26 1082 161.439 1082H161.451C167.629 1082 173.407 1084.18 177.719 1088.14C178.676 1089.02 178.604 1090.39 177.54 1091.19C176.487 1091.98 174.848 1091.92 173.891 1091.04C170.572 1087.99 166.152 1086.32 161.451 1086.32H161.439C156.738 1086.32 152.311 1087.99 148.98 1091.04C144.662 1095 138.878 1097.17 132.699 1097.17C126.515 1097.17 120.737 1095 116.419 1091.04C113.099 1087.99 108.685 1086.32 103.978 1086.32H103.972C99.2651 1086.32 94.839 1087.99 91.5076 1091.04C87.1892 1095 81.4115 1097.17 75.227 1097.17H75.221C69.0425 1097.17 63.2588 1095 58.9404 1091.04C52.2835 1084.94 40.6741 1084.94 34.0052 1091.04C29.6928 1095 23.9031 1097.17 17.7186 1097.17C11.5342 1097.17 5.74446 1095 1.42611 1091.04C-1.89341 1087.99 -6.31943 1086.32 -11.0325 1086.32H-11.0385C-15.7457 1086.32 -20.1717 1087.99 -23.5032 1091.04C-24.4721 1091.92 -26.1049 1091.99 -27.1576 1091.18C-28.2103 1090.38 -28.288 1089.02 -27.3251 1088.14C-23.0007 1084.18 -17.217 1082 -11.0385 1082H-11.0325C-4.84808 1082 0.935654 1084.18 5.25999 1088.14C8.57951 1091.19 13.0055 1092.86 17.7186 1092.86C22.4318 1092.86 26.8578 1091.19 30.1892 1088.14C38.826 1080.23 54.1256 1080.23 62.7624 1088.14C66.0938 1091.19 70.5139 1092.86 75.221 1092.86H75.227C79.9341 1092.86 84.3542 1091.19 87.6916 1088.14C92.01 1084.18 97.7877 1082 103.972 1082Z" fill="#F7F5F9"/>
<path fill-rule="evenodd" clip-rule="evenodd" d="M103.972 1117.17H103.978C110.157 1117.17 115.934 1119.35 120.247 1123.31C123.572 1126.36 127.992 1128.04 132.699 1128.04C137.407 1128.04 141.833 1126.36 145.158 1123.31C149.476 1119.35 155.26 1117.17 161.439 1117.17H161.451C167.629 1117.17 173.407 1119.35 177.719 1123.31C178.676 1124.19 178.604 1125.56 177.54 1126.36C176.487 1127.15 174.848 1127.09 173.891 1126.21C170.572 1123.17 166.152 1121.49 161.451 1121.49H161.439C156.738 1121.49 152.311 1123.17 148.98 1126.21C144.662 1130.17 138.878 1132.35 132.699 1132.35C126.515 1132.35 120.737 1130.17 116.419 1126.21C113.099 1123.17 108.685 1121.49 103.978 1121.49H103.972C99.2651 1121.49 94.839 1123.17 91.5076 1126.21C87.1892 1130.17 81.4115 1132.35 75.227 1132.35H75.221C69.0425 1132.35 63.2588 1130.17 58.9404 1126.21C52.2835 1120.12 40.6741 1120.12 34.0052 1126.21C29.6928 1130.17 23.9031 1132.35 17.7186 1132.35C11.5342 1132.35 5.74446 1130.17 1.42611 1126.21C-1.89341 1123.17 -6.31943 1121.49 -11.0325 1121.49H-11.0385C-15.7457 1121.49 -20.1717 1123.17 -23.5032 1126.21C-24.4721 1127.09 -26.1049 1127.16 -27.1576 1126.35C-28.2103 1125.56 -28.288 1124.19 -27.3251 1123.31C-23.0007 1119.35 -17.217 1117.17 -11.0385 1117.17H-11.0325C-4.84808 1117.17 0.935654 1119.35 5.25999 1123.31C8.57951 1126.36 13.0055 1128.04 17.7186 1128.04C22.4318 1128.04 26.8578 1126.36 30.1892 1123.31C38.826 1115.4 54.1256 1115.4 62.7624 1123.31C66.0938 1126.36 70.5139 1128.04 75.221 1128.04H75.227C79.9341 1128.04 84.3542 1126.36 87.6916 1123.31C92.01 1119.35 97.7877 1117.17 103.972 1117.17Z" fill="#F7F5F9"/>
<path fill-rule="evenodd" clip-rule="evenodd" d="M107.253 708.587C105.432 708.587 103.955 707.11 103.955 705.294C103.955 703.472 105.432 702 107.253 702C109.065 702 110.542 703.472 110.542 705.294C110.542 707.11 109.065 708.587 107.253 708.587Z" fill="#F7F5F9"/>
<path fill-rule="evenodd" clip-rule="evenodd" d="M74.2611 708.587C72.4446 708.587 70.9675 707.11 70.9675 705.294C70.9675 703.472 72.4446 702 74.2611 702C76.0776 702 77.5547 703.472 77.5547 705.294C77.5547 707.11 76.0776 708.587 74.2611 708.587Z" fill="#F7F5F9"/>
<path fill-rule="evenodd" clip-rule="evenodd" d="M41.2733 708.587C39.4568 708.587 37.9797 707.11 37.9797 705.294C37.9797 703.472 39.4568 702 41.2733 702C43.0848 702 44.5669 703.472 44.5669 705.294C44.5669 707.11 43.0848 708.587 41.2733 708.587Z" fill="#F7F5F9"/>
<path fill-rule="evenodd" clip-rule="evenodd" d="M8.28076 708.587C6.46928 708.587 4.99216 707.11 4.99216 705.294C4.99216 703.472 6.46928 702 8.28076 702C10.0972 702 11.5793 703.472 11.5793 705.294C11.5793 707.11 10.0972 708.587 8.28076 708.587Z" fill="#F7F5F9"/>
<path fill-rule="evenodd" clip-rule="evenodd" d="M107.253 741.57C105.432 741.57 103.955 740.098 103.955 738.277C103.955 736.46 105.432 734.983 107.253 734.983C109.065 734.983 110.542 736.46 110.542 738.277C110.542 740.098 109.065 741.57 107.253 741.57Z" fill="#F7F5F9"/>
<path fill-rule="evenodd" clip-rule="evenodd" d="M74.2611 741.57C72.4446 741.57 70.9675 740.098 70.9675 738.277C70.9675 736.46 72.4446 734.983 74.2611 734.983C76.0776 734.983 77.5547 736.46 77.5547 738.277C77.5547 740.098 76.0776 741.57 74.2611 741.57Z" fill="#F7F5F9"/>
<path fill-rule="evenodd" clip-rule="evenodd" d="M41.2733 741.57C39.4568 741.57 37.9797 740.098 37.9797 738.277C37.9797 736.46 39.4568 734.983 41.2733 734.983C43.0848 734.983 44.5669 736.46 44.5669 738.277C44.5669 740.098 43.0848 741.57 41.2733 741.57Z" fill="#F7F5F9"/>
<path fill-rule="evenodd" clip-rule="evenodd" d="M8.28076 741.57C6.46928 741.57 4.99216 740.098 4.99216 738.277C4.99216 736.46 6.46928 734.983 8.28076 734.983C10.0972 734.983 11.5793 736.46 11.5793 738.277C11.5793 740.098 10.0972 741.57 8.28076 741.57Z" fill="#F7F5F9"/>
<path fill-rule="evenodd" clip-rule="evenodd" d="M107.253 774.562C105.432 774.562 103.955 773.09 103.955 771.269C103.955 769.447 105.432 767.975 107.253 767.975C109.065 767.975 110.542 769.447 110.542 771.269C110.542 773.09 109.065 774.562 107.253 774.562Z" fill="#F7F5F9"/>
<path fill-rule="evenodd" clip-rule="evenodd" d="M74.2611 774.562C72.4446 774.562 70.9675 773.09 70.9675 771.269C70.9675 769.447 72.4446 767.975 74.2611 767.975C76.0776 767.975 77.5547 769.447 77.5547 771.269C77.5547 773.09 76.0776 774.562 74.2611 774.562Z" fill="#F7F5F9"/>
<path fill-rule="evenodd" clip-rule="evenodd" d="M41.2733 774.562C39.4568 774.562 37.9797 773.09 37.9797 771.269C37.9797 769.447 39.4568 767.975 41.2733 767.975C43.0848 767.975 44.5669 769.447 44.5669 771.269C44.5669 773.09 43.0848 774.562 41.2733 774.562Z" fill="#F7F5F9"/>
<path fill-rule="evenodd" clip-rule="evenodd" d="M8.28076 774.562C6.46928 774.562 4.99216 773.09 4.99216 771.269C4.99216 769.447 6.46928 767.975 8.28076 767.975C10.0972 767.975 11.5793 769.447 11.5793 771.269C11.5793 773.09 10.0972 774.562 8.28076 774.562Z" fill="#F7F5F9"/>
<path fill-rule="evenodd" clip-rule="evenodd" d="M107.253 807.55C105.432 807.55 103.955 806.073 103.955 804.257C103.955 802.44 105.432 800.968 107.253 800.968C109.065 800.968 110.542 802.44 110.542 804.257C110.542 806.073 109.065 807.55 107.253 807.55Z" fill="#F7F5F9"/>
<path fill-rule="evenodd" clip-rule="evenodd" d="M74.2611 807.55C72.4446 807.55 70.9675 806.073 70.9675 804.257C70.9675 802.44 72.4446 800.968 74.2611 800.968C76.0776 800.968 77.5547 802.44 77.5547 804.257C77.5547 806.073 76.0776 807.55 74.2611 807.55Z" fill="#F7F5F9"/>
<path fill-rule="evenodd" clip-rule="evenodd" d="M41.2733 807.55C39.4568 807.55 37.9797 806.073 37.9797 804.257C37.9797 802.44 39.4568 800.968 41.2733 800.968C43.0848 800.968 44.5669 802.44 44.5669 804.257C44.5669 806.073 43.0848 807.55 41.2733 807.55Z" fill="#F7F5F9"/>
<path fill-rule="evenodd" clip-rule="evenodd" d="M8.28076 807.55C6.46928 807.55 4.99216 806.073 4.99216 804.257C4.99216 802.44 6.46928 800.968 8.28076 800.968C10.0972 800.968 11.5793 802.44 11.5793 804.257C11.5793 806.073 10.0972 807.55 8.28076 807.55Z" fill="#F7F5F9"/>
<path fill-rule="evenodd" clip-rule="evenodd" d="M107.253 840.538C105.432 840.538 103.955 839.065 103.955 837.244C103.955 835.428 105.432 833.95 107.253 833.95C109.065 833.95 110.542 835.428 110.542 837.244C110.542 839.065 109.065 840.538 107.253 840.538Z" fill="#F7F5F9"/>
<path fill-rule="evenodd" clip-rule="evenodd" d="M74.2611 840.538C72.4446 840.538 70.9675 839.065 70.9675 837.244C70.9675 835.428 72.4446 833.95 74.2611 833.95C76.0776 833.95 77.5547 835.428 77.5547 837.244C77.5547 839.065 76.0776 840.538 74.2611 840.538Z" fill="#F7F5F9"/>
<path fill-rule="evenodd" clip-rule="evenodd" d="M41.2733 840.538C39.4568 840.538 37.9797 839.065 37.9797 837.244C37.9797 835.428 39.4568 833.95 41.2733 833.95C43.0848 833.95 44.5669 835.428 44.5669 837.244C44.5669 839.065 43.0848 840.538 41.2733 840.538Z" fill="#F7F5F9"/>
<path fill-rule="evenodd" clip-rule="evenodd" d="M8.28076 840.538C6.46928 840.538 4.99216 839.065 4.99216 837.244C4.99216 835.428 6.46928 833.95 8.28076 833.95C10.0972 833.95 11.5793 835.428 11.5793 837.244C11.5793 839.065 10.0972 840.538 8.28076 840.538Z" fill="#F7F5F9"/>
<path fill-rule="evenodd" clip-rule="evenodd" d="M107.253 873.53C105.432 873.53 103.955 872.058 103.955 870.236C103.955 868.415 105.432 866.943 107.253 866.943C109.065 866.943 110.542 868.415 110.542 870.236C110.542 872.058 109.065 873.53 107.253 873.53Z" fill="#F7F5F9"/>
<path fill-rule="evenodd" clip-rule="evenodd" d="M74.2611 873.53C72.4446 873.53 70.9675 872.058 70.9675 870.236C70.9675 868.415 72.4446 866.943 74.2611 866.943C76.0776 866.943 77.5547 868.415 77.5547 870.236C77.5547 872.058 76.0776 873.53 74.2611 873.53Z" fill="#F7F5F9"/>
<path fill-rule="evenodd" clip-rule="evenodd" d="M41.2733 873.53C39.4568 873.53 37.9797 872.058 37.9797 870.236C37.9797 868.415 39.4568 866.943 41.2733 866.943C43.0848 866.943 44.5669 868.415 44.5669 870.236C44.5669 872.058 43.0848 873.53 41.2733 873.53Z" fill="#F7F5F9"/>
<path fill-rule="evenodd" clip-rule="evenodd" d="M8.28076 873.53C6.46928 873.53 4.99216 872.058 4.99216 870.236C4.99216 868.415 6.46928 866.943 8.28076 866.943C10.0972 866.943 11.5793 868.415 11.5793 870.236C11.5793 872.058 10.0972 873.53 8.28076 873.53Z" fill="#F7F5F9"/>
<path fill-rule="evenodd" clip-rule="evenodd" d="M107.253 906.518C105.432 906.518 103.955 905.041 103.955 903.224C103.955 901.408 105.432 899.931 107.253 899.931C109.065 899.931 110.542 901.408 110.542 903.224C110.542 905.041 109.065 906.518 107.253 906.518Z" fill="#F7F5F9"/>
<path fill-rule="evenodd" clip-rule="evenodd" d="M74.2611 906.518C72.4446 906.518 70.9675 905.041 70.9675 903.224C70.9675 901.408 72.4446 899.931 74.2611 899.931C76.0776 899.931 77.5547 901.408 77.5547 903.224C77.5547 905.041 76.0776 906.518 74.2611 906.518Z" fill="#F7F5F9"/>
<path fill-rule="evenodd" clip-rule="evenodd" d="M41.2733 906.518C39.4568 906.518 37.9797 905.041 37.9797 903.224C37.9797 901.408 39.4568 899.931 41.2733 899.931C43.0848 899.931 44.5669 901.408 44.5669 903.224C44.5669 905.041 43.0848 906.518 41.2733 906.518Z" fill="#F7F5F9"/>
<path fill-rule="evenodd" clip-rule="evenodd" d="M8.28076 906.518C6.46928 906.518 4.99216 905.041 4.99216 903.224C4.99216 901.408 6.46928 899.931 8.28076 899.931C10.0972 899.931 11.5793 901.408 11.5793 903.224C11.5793 905.041 10.0972 906.518 8.28076 906.518Z" fill="#F7F5F9"/>
<path fill-rule="evenodd" clip-rule="evenodd" d="M107.253 939.505C105.432 939.505 103.955 938.033 103.955 936.212C103.955 934.39 105.432 932.918 107.253 932.918C109.065 932.918 110.542 934.39 110.542 936.212C110.542 938.033 109.065 939.505 107.253 939.505Z" fill="#F7F5F9"/>
<path fill-rule="evenodd" clip-rule="evenodd" d="M74.2611 939.505C72.4446 939.505 70.9675 938.033 70.9675 936.212C70.9675 934.39 72.4446 932.918 74.2611 932.918C76.0776 932.918 77.5547 934.39 77.5547 936.212C77.5547 938.033 76.0776 939.505 74.2611 939.505Z" fill="#F7F5F9"/>
<path fill-rule="evenodd" clip-rule="evenodd" d="M41.2733 939.505C39.4568 939.505 37.9797 938.033 37.9797 936.212C37.9797 934.39 39.4568 932.918 41.2733 932.918C43.0848 932.918 44.5669 934.39 44.5669 936.212C44.5669 938.033 43.0848 939.505 41.2733 939.505Z" fill="#F7F5F9"/>
<path fill-rule="evenodd" clip-rule="evenodd" d="M8.28076 939.505C6.46928 939.505 4.99216 938.033 4.99216 936.212C4.99216 934.39 6.46928 932.918 8.28076 932.918C10.0972 932.918 11.5793 934.39 11.5793 936.212C11.5793 938.033 10.0972 939.505 8.28076 939.505Z" fill="#F7F5F9"/>
<path fill-rule="evenodd" clip-rule="evenodd" d="M107.253 972.498C105.432 972.498 103.955 971.021 103.955 969.204C103.955 967.383 105.432 965.911 107.253 965.911C109.065 965.911 110.542 967.383 110.542 969.204C110.542 971.021 109.065 972.498 107.253 972.498Z" fill="#F7F5F9"/>
<path fill-rule="evenodd" clip-rule="evenodd" d="M74.2611 972.498C72.4446 972.498 70.9675 971.021 70.9675 969.204C70.9675 967.383 72.4446 965.911 74.2611 965.911C76.0776 965.911 77.5547 967.383 77.5547 969.204C77.5547 971.021 76.0776 972.498 74.2611 972.498Z" fill="#F7F5F9"/>
<path fill-rule="evenodd" clip-rule="evenodd" d="M41.2733 972.498C39.4568 972.498 37.9797 971.021 37.9797 969.204C37.9797 967.383 39.4568 965.911 41.2733 965.911C43.0848 965.911 44.5669 967.383 44.5669 969.204C44.5669 971.021 43.0848 972.498 41.2733 972.498Z" fill="#F7F5F9"/>
<path fill-rule="evenodd" clip-rule="evenodd" d="M8.28076 972.498C6.46928 972.498 4.99216 971.021 4.99216 969.204C4.99216 967.383 6.46928 965.911 8.28076 965.911C10.0972 965.911 11.5793 967.383 11.5793 969.204C11.5793 971.021 10.0972 972.498 8.28076 972.498Z" fill="#F7F5F9"/>
<path fill-rule="evenodd" clip-rule="evenodd" d="M107.253 1005.48C105.432 1005.48 103.955 1004.01 103.955 1002.19C103.955 1000.38 105.432 998.894 107.253 998.894C109.065 998.894 110.542 1000.38 110.542 1002.19C110.542 1004.01 109.065 1005.48 107.253 1005.48Z" fill="#F7F5F9"/>
<path fill-rule="evenodd" clip-rule="evenodd" d="M74.2611 1005.48C72.4446 1005.48 70.9675 1004.01 70.9675 1002.19C70.9675 1000.38 72.4446 998.894 74.2611 998.894C76.0776 998.894 77.5547 1000.38 77.5547 1002.19C77.5547 1004.01 76.0776 1005.48 74.2611 1005.48Z" fill="#F7F5F9"/>
<path fill-rule="evenodd" clip-rule="evenodd" d="M41.2733 1005.48C39.4568 1005.48 37.9797 1004.01 37.9797 1002.19C37.9797 1000.38 39.4568 998.894 41.2733 998.894C43.0848 998.894 44.5669 1000.38 44.5669 1002.19C44.5669 1004.01 43.0848 1005.48 41.2733 1005.48Z" fill="#F7F5F9"/>
<path fill-rule="evenodd" clip-rule="evenodd" d="M8.28076 1005.48C6.46928 1005.48 4.99216 1004.01 4.99216 1002.19C4.99216 1000.38 6.46928 998.894 8.28076 998.894C10.0972 998.894 11.5793 1000.38 11.5793 1002.19C11.5793 1004.01 10.0972 1005.48 8.28076 1005.48Z" fill="#F7F5F9"/>
<path fill-rule="evenodd" clip-rule="evenodd" d="M107.253 1038.47C105.432 1038.47 103.955 1037 103.955 1035.18C103.955 1033.36 105.432 1031.89 107.253 1031.89C109.065 1031.89 110.542 1033.36 110.542 1035.18C110.542 1037 109.065 1038.47 107.253 1038.47Z" fill="#F7F5F9"/>
<path fill-rule="evenodd" clip-rule="evenodd" d="M74.2611 1038.47C72.4446 1038.47 70.9675 1037 70.9675 1035.18C70.9675 1033.36 72.4446 1031.89 74.2611 1031.89C76.0776 1031.89 77.5547 1033.36 77.5547 1035.18C77.5547 1037 76.0776 1038.47 74.2611 1038.47Z" fill="#F7F5F9"/>
<path fill-rule="evenodd" clip-rule="evenodd" d="M41.2733 1038.47C39.4568 1038.47 37.9797 1037 37.9797 1035.18C37.9797 1033.36 39.4568 1031.89 41.2733 1031.89C43.0848 1031.89 44.5669 1033.36 44.5669 1035.18C44.5669 1037 43.0848 1038.47 41.2733 1038.47Z" fill="#F7F5F9"/>
<path fill-rule="evenodd" clip-rule="evenodd" d="M8.28076 1038.47C6.46928 1038.47 4.99216 1037 4.99216 1035.18C4.99216 1033.36 6.46928 1031.89 8.28076 1031.89C10.0972 1031.89 11.5793 1033.36 11.5793 1035.18C11.5793 1037 10.0972 1038.47 8.28076 1038.47Z" fill="#F7F5F9"/>
<path fill-rule="evenodd" clip-rule="evenodd" d="M107.253 1071.46C105.432 1071.46 103.955 1069.98 103.955 1068.17C103.955 1066.35 105.432 1064.88 107.253 1064.88C109.065 1064.88 110.542 1066.35 110.542 1068.17C110.542 1069.98 109.065 1071.46 107.253 1071.46Z" fill="#F7F5F9"/>
<path fill-rule="evenodd" clip-rule="evenodd" d="M74.2611 1071.46C72.4446 1071.46 70.9675 1069.98 70.9675 1068.17C70.9675 1066.35 72.4446 1064.88 74.2611 1064.88C76.0776 1064.88 77.5547 1066.35 77.5547 1068.17C77.5547 1069.98 76.0776 1071.46 74.2611 1071.46Z" fill="#F7F5F9"/>
<path fill-rule="evenodd" clip-rule="evenodd" d="M41.2733 1071.46C39.4568 1071.46 37.9797 1069.98 37.9797 1068.17C37.9797 1066.35 39.4568 1064.88 41.2733 1064.88C43.0848 1064.88 44.5669 1066.35 44.5669 1068.17C44.5669 1069.98 43.0848 1071.46 41.2733 1071.46Z" fill="#F7F5F9"/>
<path fill-rule="evenodd" clip-rule="evenodd" d="M8.28076 1071.46C6.46928 1071.46 4.99216 1069.98 4.99216 1068.17C4.99216 1066.35 6.46928 1064.88 8.28076 1064.88C10.0972 1064.88 11.5793 1066.35 11.5793 1068.17C11.5793 1069.98 10.0972 1071.46 8.28076 1071.46Z" fill="#F7F5F9"/>
<path fill-rule="evenodd" clip-rule="evenodd" d="M107.253 1104.45C105.432 1104.45 103.955 1102.98 103.955 1101.15C103.955 1099.34 105.432 1097.86 107.253 1097.86C109.065 1097.86 110.542 1099.34 110.542 1101.15C110.542 1102.98 109.065 1104.45 107.253 1104.45Z" fill="#F7F5F9"/>
<path fill-rule="evenodd" clip-rule="evenodd" d="M74.2611 1104.45C72.4446 1104.45 70.9675 1102.98 70.9675 1101.15C70.9675 1099.34 72.4446 1097.86 74.2611 1097.86C76.0776 1097.86 77.5547 1099.34 77.5547 1101.15C77.5547 1102.98 76.0776 1104.45 74.2611 1104.45Z" fill="#F7F5F9"/>
<path fill-rule="evenodd" clip-rule="evenodd" d="M41.2733 1104.45C39.4568 1104.45 37.9797 1102.98 37.9797 1101.15C37.9797 1099.34 39.4568 1097.86 41.2733 1097.86C43.0848 1097.86 44.5669 1099.34 44.5669 1101.15C44.5669 1102.98 43.0848 1104.45 41.2733 1104.45Z" fill="#F7F5F9"/>
<path fill-rule="evenodd" clip-rule="evenodd" d="M8.28076 1104.45C6.46928 1104.45 4.99216 1102.98 4.99216 1101.15C4.99216 1099.34 6.46928 1097.86 8.28076 1097.86C10.0972 1097.86 11.5793 1099.34 11.5793 1101.15C11.5793 1102.98 10.0972 1104.45 8.28076 1104.45Z" fill="#F7F5F9"/>
<path fill-rule="evenodd" clip-rule="evenodd" d="M107.253 1137.44C105.432 1137.44 103.955 1135.97 103.955 1134.15C103.955 1132.33 105.432 1130.85 107.253 1130.85C109.065 1130.85 110.542 1132.33 110.542 1134.15C110.542 1135.97 109.065 1137.44 107.253 1137.44Z" fill="#F7F5F9"/>
<path fill-rule="evenodd" clip-rule="evenodd" d="M74.2611 1137.44C72.4446 1137.44 70.9675 1135.97 70.9675 1134.15C70.9675 1132.33 72.4446 1130.85 74.2611 1130.85C76.0776 1130.85 77.5547 1132.33 77.5547 1134.15C77.5547 1135.97 76.0776 1137.44 74.2611 1137.44Z" fill="#F7F5F9"/>
<path fill-rule="evenodd" clip-rule="evenodd" d="M8.28076 1137.44C6.46928 1137.44 4.99216 1135.97 4.99216 1134.15C4.99216 1132.33 6.46928 1130.85 8.28076 1130.85C10.0972 1130.85 11.5793 1132.33 11.5793 1134.15C11.5793 1135.97 10.0972 1137.44 8.28076 1137.44Z" fill="#F7F5F9"/>
<path fill-rule="evenodd" clip-rule="evenodd" d="M107.253 1170.43C105.432 1170.43 103.955 1168.95 103.955 1167.13C103.955 1165.32 105.432 1163.84 107.253 1163.84C109.065 1163.84 110.542 1165.32 110.542 1167.13C110.542 1168.95 109.065 1170.43 107.253 1170.43Z" fill="#F7F5F9"/>
<path fill-rule="evenodd" clip-rule="evenodd" d="M74.2611 1170.43C72.4446 1170.43 70.9675 1168.95 70.9675 1167.13C70.9675 1165.32 72.4446 1163.84 74.2611 1163.84C76.0776 1163.84 77.5547 1165.32 77.5547 1167.13C77.5547 1168.95 76.0776 1170.43 74.2611 1170.43Z" fill="#F7F5F9"/>
<path fill-rule="evenodd" clip-rule="evenodd" d="M41.2733 1170.43C39.4568 1170.43 37.9797 1168.95 37.9797 1167.13C37.9797 1165.32 39.4568 1163.84 41.2733 1163.84C43.0848 1163.84 44.5669 1165.32 44.5669 1167.13C44.5669 1168.95 43.0848 1170.43 41.2733 1170.43Z" fill="#F7F5F9"/>
<path fill-rule="evenodd" clip-rule="evenodd" d="M8.28076 1170.43C6.46928 1170.43 4.99216 1168.95 4.99216 1167.13C4.99216 1165.32 6.46928 1163.84 8.28076 1163.84C10.0972 1163.84 11.5793 1165.32 11.5793 1167.13C11.5793 1168.95 10.0972 1170.43 8.28076 1170.43Z" fill="#F7F5F9"/>
<path fill-rule="evenodd" clip-rule="evenodd" d="M107.253 1203.42C105.432 1203.42 103.955 1201.94 103.955 1200.12C103.955 1198.3 105.432 1196.83 107.253 1196.83C109.065 1196.83 110.542 1198.3 110.542 1200.12C110.542 1201.94 109.065 1203.42 107.253 1203.42Z" fill="#F7F5F9"/>
<path fill-rule="evenodd" clip-rule="evenodd" d="M74.2611 1203.42C72.4446 1203.42 70.9675 1201.94 70.9675 1200.12C70.9675 1198.3 72.4446 1196.83 74.2611 1196.83C76.0776 1196.83 77.5547 1198.3 77.5547 1200.12C77.5547 1201.94 76.0776 1203.42 74.2611 1203.42Z" fill="#F7F5F9"/>
<path fill-rule="evenodd" clip-rule="evenodd" d="M41.2733 1203.42C39.4568 1203.42 37.9797 1201.94 37.9797 1200.12C37.9797 1198.3 39.4568 1196.83 41.2733 1196.83C43.0848 1196.83 44.5669 1198.3 44.5669 1200.12C44.5669 1201.94 43.0848 1203.42 41.2733 1203.42Z" fill="#F7F5F9"/>
<path fill-rule="evenodd" clip-rule="evenodd" d="M8.28076 1203.42C6.46928 1203.42 4.99216 1201.94 4.99216 1200.12C4.99216 1198.3 6.46928 1196.83 8.28076 1196.83C10.0972 1196.83 11.5793 1198.3 11.5793 1200.12C11.5793 1201.94 10.0972 1203.42 8.28076 1203.42Z" fill="#F7F5F9"/>
<path fill-rule="evenodd" clip-rule="evenodd" d="M107.253 1236.41C105.432 1236.41 103.955 1234.93 103.955 1233.12C103.955 1231.29 105.432 1229.82 107.253 1229.82C109.065 1229.82 110.542 1231.29 110.542 1233.12C110.542 1234.93 109.065 1236.41 107.253 1236.41Z" fill="#F7F5F9"/>
<path fill-rule="evenodd" clip-rule="evenodd" d="M74.2611 1236.41C72.4446 1236.41 70.9675 1234.93 70.9675 1233.12C70.9675 1231.29 72.4446 1229.82 74.2611 1229.82C76.0776 1229.82 77.5547 1231.29 77.5547 1233.12C77.5547 1234.93 76.0776 1236.41 74.2611 1236.41Z" fill="#F7F5F9"/>
<path fill-rule="evenodd" clip-rule="evenodd" d="M41.2733 1236.41C39.4568 1236.41 37.9797 1234.93 37.9797 1233.12C37.9797 1231.29 39.4568 1229.82 41.2733 1229.82C43.0848 1229.82 44.5669 1231.29 44.5669 1233.12C44.5669 1234.93 43.0848 1236.41 41.2733 1236.41Z" fill="#F7F5F9"/>
<path fill-rule="evenodd" clip-rule="evenodd" d="M8.28076 1236.41C6.46928 1236.41 4.99216 1234.93 4.99216 1233.12C4.99216 1231.29 6.46928 1229.82 8.28076 1229.82C10.0972 1229.82 11.5793 1231.29 11.5793 1233.12C11.5793 1234.93 10.0972 1236.41 8.28076 1236.41Z" fill="#F7F5F9"/>
<path fill-rule="evenodd" clip-rule="evenodd" d="M107.253 1269.39C105.432 1269.39 103.955 1267.92 103.955 1266.1C103.955 1264.29 105.432 1262.8 107.253 1262.8C109.065 1262.8 110.542 1264.29 110.542 1266.1C110.542 1267.92 109.065 1269.39 107.253 1269.39Z" fill="#F7F5F9"/>
<path fill-rule="evenodd" clip-rule="evenodd" d="M74.2611 1269.39C72.4446 1269.39 70.9675 1267.92 70.9675 1266.1C70.9675 1264.29 72.4446 1262.8 74.2611 1262.8C76.0776 1262.8 77.5547 1264.29 77.5547 1266.1C77.5547 1267.92 76.0776 1269.39 74.2611 1269.39Z" fill="#F7F5F9"/>
<path fill-rule="evenodd" clip-rule="evenodd" d="M41.2733 1269.39C39.4568 1269.39 37.9797 1267.92 37.9797 1266.1C37.9797 1264.29 39.4568 1262.8 41.2733 1262.8C43.0848 1262.8 44.5669 1264.29 44.5669 1266.1C44.5669 1267.92 43.0848 1269.39 41.2733 1269.39Z" fill="#F7F5F9"/>
<path fill-rule="evenodd" clip-rule="evenodd" d="M8.28076 1269.39C6.46928 1269.39 4.99216 1267.92 4.99216 1266.1C4.99216 1264.29 6.46928 1262.8 8.28076 1262.8C10.0972 1262.8 11.5793 1264.29 11.5793 1266.1C11.5793 1267.92 10.0972 1269.39 8.28076 1269.39Z" fill="#F7F5F9"/>
<path fill-rule="evenodd" clip-rule="evenodd" d="M107.253 1302.38C105.432 1302.38 103.955 1300.91 103.955 1299.09C103.955 1297.27 105.432 1295.8 107.253 1295.8C109.065 1295.8 110.542 1297.27 110.542 1299.09C110.542 1300.91 109.065 1302.38 107.253 1302.38Z" fill="#F7F5F9"/>
<path fill-rule="evenodd" clip-rule="evenodd" d="M74.2611 1302.38C72.4446 1302.38 70.9675 1300.91 70.9675 1299.09C70.9675 1297.27 72.4446 1295.8 74.2611 1295.8C76.0776 1295.8 77.5547 1297.27 77.5547 1299.09C77.5547 1300.91 76.0776 1302.38 74.2611 1302.38Z" fill="#F7F5F9"/>
<path fill-rule="evenodd" clip-rule="evenodd" d="M41.2733 1302.38C39.4568 1302.38 37.9797 1300.91 37.9797 1299.09C37.9797 1297.27 39.4568 1295.8 41.2733 1295.8C43.0848 1295.8 44.5669 1297.27 44.5669 1299.09C44.5669 1300.91 43.0848 1302.38 41.2733 1302.38Z" fill="#F7F5F9"/>
<path fill-rule="evenodd" clip-rule="evenodd" d="M8.28076 1302.38C6.46928 1302.38 4.99216 1300.91 4.99216 1299.09C4.99216 1297.27 6.46928 1295.8 8.28076 1295.8C10.0972 1295.8 11.5793 1297.27 11.5793 1299.09C11.5793 1300.91 10.0972 1302.38 8.28076 1302.38Z" fill="#F7F5F9"/>
<path fill-rule="evenodd" clip-rule="evenodd" d="M74.2611 994.587C72.4446 994.587 70.9675 993.11 70.9675 991.294C70.9675 989.472 72.4446 988 74.2611 988C76.0776 988 77.5547 989.472 77.5547 991.294C77.5547 993.11 76.0776 994.587 74.2611 994.587Z" fill="#F7F5F9"/>
<path fill-rule="evenodd" clip-rule="evenodd" d="M41.2733 994.587C39.4568 994.587 37.9797 993.11 37.9797 991.294C37.9797 989.472 39.4568 988 41.2733 988C43.0848 988 44.5669 989.472 44.5669 991.294C44.5669 993.11 43.0848 994.587 41.2733 994.587Z" fill="#F7F5F9"/>
<path fill-rule="evenodd" clip-rule="evenodd" d="M8.28076 994.587C6.46928 994.587 4.99216 993.11 4.99216 991.294C4.99216 989.472 6.46928 988 8.28076 988C10.0972 988 11.5793 989.472 11.5793 991.294C11.5793 993.11 10.0972 994.587 8.28076 994.587Z" fill="#F7F5F9"/>
<path fill-rule="evenodd" clip-rule="evenodd" d="M107.253 1027.57C105.432 1027.57 103.955 1026.1 103.955 1024.28C103.955 1022.46 105.432 1020.98 107.253 1020.98C109.065 1020.98 110.542 1022.46 110.542 1024.28C110.542 1026.1 109.065 1027.57 107.253 1027.57Z" fill="#F7F5F9"/>
<path fill-rule="evenodd" clip-rule="evenodd" d="M74.2611 1027.57C72.4446 1027.57 70.9675 1026.1 70.9675 1024.28C70.9675 1022.46 72.4446 1020.98 74.2611 1020.98C76.0776 1020.98 77.5547 1022.46 77.5547 1024.28C77.5547 1026.1 76.0776 1027.57 74.2611 1027.57Z" fill="#F7F5F9"/>
<path fill-rule="evenodd" clip-rule="evenodd" d="M41.2733 1027.57C39.4568 1027.57 37.9797 1026.1 37.9797 1024.28C37.9797 1022.46 39.4568 1020.98 41.2733 1020.98C43.0848 1020.98 44.5669 1022.46 44.5669 1024.28C44.5669 1026.1 43.0848 1027.57 41.2733 1027.57Z" fill="#F7F5F9"/>
<path fill-rule="evenodd" clip-rule="evenodd" d="M8.28076 1027.57C6.46928 1027.57 4.99216 1026.1 4.99216 1024.28C4.99216 1022.46 6.46928 1020.98 8.28076 1020.98C10.0972 1020.98 11.5793 1022.46 11.5793 1024.28C11.5793 1026.1 10.0972 1027.57 8.28076 1027.57Z" fill="#F7F5F9"/>
<path fill-rule="evenodd" clip-rule="evenodd" d="M107.253 1060.56C105.432 1060.56 103.955 1059.09 103.955 1057.27C103.955 1055.45 105.432 1053.98 107.253 1053.98C109.065 1053.98 110.542 1055.45 110.542 1057.27C110.542 1059.09 109.065 1060.56 107.253 1060.56Z" fill="#F7F5F9"/>
<path fill-rule="evenodd" clip-rule="evenodd" d="M74.2611 1060.56C72.4446 1060.56 70.9675 1059.09 70.9675 1057.27C70.9675 1055.45 72.4446 1053.98 74.2611 1053.98C76.0776 1053.98 77.5547 1055.45 77.5547 1057.27C77.5547 1059.09 76.0776 1060.56 74.2611 1060.56Z" fill="#F7F5F9"/>
<path fill-rule="evenodd" clip-rule="evenodd" d="M41.2733 1060.56C39.4568 1060.56 37.9797 1059.09 37.9797 1057.27C37.9797 1055.45 39.4568 1053.98 41.2733 1053.98C43.0848 1053.98 44.5669 1055.45 44.5669 1057.27C44.5669 1059.09 43.0848 1060.56 41.2733 1060.56Z" fill="#F7F5F9"/>
<path fill-rule="evenodd" clip-rule="evenodd" d="M8.28076 1060.56C6.46928 1060.56 4.99216 1059.09 4.99216 1057.27C4.99216 1055.45 6.46928 1053.98 8.28076 1053.98C10.0972 1053.98 11.5793 1055.45 11.5793 1057.27C11.5793 1059.09 10.0972 1060.56 8.28076 1060.56Z" fill="#F7F5F9"/>
<path fill-rule="evenodd" clip-rule="evenodd" d="M107.253 1093.55C105.432 1093.55 103.955 1092.07 103.955 1090.26C103.955 1088.44 105.432 1086.97 107.253 1086.97C109.065 1086.97 110.542 1088.44 110.542 1090.26C110.542 1092.07 109.065 1093.55 107.253 1093.55Z" fill="#F7F5F9"/>
<path fill-rule="evenodd" clip-rule="evenodd" d="M74.2611 1093.55C72.4446 1093.55 70.9675 1092.07 70.9675 1090.26C70.9675 1088.44 72.4446 1086.97 74.2611 1086.97C76.0776 1086.97 77.5547 1088.44 77.5547 1090.26C77.5547 1092.07 76.0776 1093.55 74.2611 1093.55Z" fill="#F7F5F9"/>
<path fill-rule="evenodd" clip-rule="evenodd" d="M41.2733 1093.55C39.4568 1093.55 37.9797 1092.07 37.9797 1090.26C37.9797 1088.44 39.4568 1086.97 41.2733 1086.97C43.0848 1086.97 44.5669 1088.44 44.5669 1090.26C44.5669 1092.07 43.0848 1093.55 41.2733 1093.55Z" fill="#F7F5F9"/>
<path fill-rule="evenodd" clip-rule="evenodd" d="M8.28076 1093.55C6.46928 1093.55 4.99216 1092.07 4.99216 1090.26C4.99216 1088.44 6.46928 1086.97 8.28076 1086.97C10.0972 1086.97 11.5793 1088.44 11.5793 1090.26C11.5793 1092.07 10.0972 1093.55 8.28076 1093.55Z" fill="#F7F5F9"/>
<path fill-rule="evenodd" clip-rule="evenodd" d="M107.253 1126.54C105.432 1126.54 103.955 1125.07 103.955 1123.24C103.955 1121.43 105.432 1119.95 107.253 1119.95C109.065 1119.95 110.542 1121.43 110.542 1123.24C110.542 1125.07 109.065 1126.54 107.253 1126.54Z" fill="#F7F5F9"/>
<path fill-rule="evenodd" clip-rule="evenodd" d="M74.2611 1126.54C72.4446 1126.54 70.9675 1125.07 70.9675 1123.24C70.9675 1121.43 72.4446 1119.95 74.2611 1119.95C76.0776 1119.95 77.5547 1121.43 77.5547 1123.24C77.5547 1125.07 76.0776 1126.54 74.2611 1126.54Z" fill="#F7F5F9"/>
<path fill-rule="evenodd" clip-rule="evenodd" d="M41.2733 1126.54C39.4568 1126.54 37.9797 1125.07 37.9797 1123.24C37.9797 1121.43 39.4568 1119.95 41.2733 1119.95C43.0848 1119.95 44.5669 1121.43 44.5669 1123.24C44.5669 1125.07 43.0848 1126.54 41.2733 1126.54Z" fill="#F7F5F9"/>
<path fill-rule="evenodd" clip-rule="evenodd" d="M107.253 1159.53C105.432 1159.53 103.955 1158.06 103.955 1156.24C103.955 1154.41 105.432 1152.94 107.253 1152.94C109.065 1152.94 110.542 1154.41 110.542 1156.24C110.542 1158.06 109.065 1159.53 107.253 1159.53Z" fill="#F7F5F9"/>
<path fill-rule="evenodd" clip-rule="evenodd" d="M74.2611 1159.53C72.4446 1159.53 70.9675 1158.06 70.9675 1156.24C70.9675 1154.41 72.4446 1152.94 74.2611 1152.94C76.0776 1152.94 77.5547 1154.41 77.5547 1156.24C77.5547 1158.06 76.0776 1159.53 74.2611 1159.53Z" fill="#F7F5F9"/>
<path fill-rule="evenodd" clip-rule="evenodd" d="M41.2733 1159.53C39.4568 1159.53 37.9797 1158.06 37.9797 1156.24C37.9797 1154.41 39.4568 1152.94 41.2733 1152.94C43.0848 1152.94 44.5669 1154.41 44.5669 1156.24C44.5669 1158.06 43.0848 1159.53 41.2733 1159.53Z" fill="#F7F5F9"/>
<path fill-rule="evenodd" clip-rule="evenodd" d="M8.28076 1159.53C6.46928 1159.53 4.99216 1158.06 4.99216 1156.24C4.99216 1154.41 6.46928 1152.94 8.28076 1152.94C10.0972 1152.94 11.5793 1154.41 11.5793 1156.24C11.5793 1158.06 10.0972 1159.53 8.28076 1159.53Z" fill="#F7F5F9"/>
<path fill-rule="evenodd" clip-rule="evenodd" d="M107.253 1192.52C105.432 1192.52 103.955 1191.04 103.955 1189.22C103.955 1187.41 105.432 1185.93 107.253 1185.93C109.065 1185.93 110.542 1187.41 110.542 1189.22C110.542 1191.04 109.065 1192.52 107.253 1192.52Z" fill="#F7F5F9"/>
<path fill-rule="evenodd" clip-rule="evenodd" d="M74.2611 1192.52C72.4446 1192.52 70.9675 1191.04 70.9675 1189.22C70.9675 1187.41 72.4446 1185.93 74.2611 1185.93C76.0776 1185.93 77.5547 1187.41 77.5547 1189.22C77.5547 1191.04 76.0776 1192.52 74.2611 1192.52Z" fill="#F7F5F9"/>
<path fill-rule="evenodd" clip-rule="evenodd" d="M41.2733 1192.52C39.4568 1192.52 37.9797 1191.04 37.9797 1189.22C37.9797 1187.41 39.4568 1185.93 41.2733 1185.93C43.0848 1185.93 44.5669 1187.41 44.5669 1189.22C44.5669 1191.04 43.0848 1192.52 41.2733 1192.52Z" fill="#F7F5F9"/>
<path fill-rule="evenodd" clip-rule="evenodd" d="M8.28076 1192.52C6.46928 1192.52 4.99216 1191.04 4.99216 1189.22C4.99216 1187.41 6.46928 1185.93 8.28076 1185.93C10.0972 1185.93 11.5793 1187.41 11.5793 1189.22C11.5793 1191.04 10.0972 1192.52 8.28076 1192.52Z" fill="#F7F5F9"/>
<path fill-rule="evenodd" clip-rule="evenodd" d="M107.253 1225.51C105.432 1225.51 103.955 1224.03 103.955 1222.21C103.955 1220.39 105.432 1218.92 107.253 1218.92C109.065 1218.92 110.542 1220.39 110.542 1222.21C110.542 1224.03 109.065 1225.51 107.253 1225.51Z" fill="#F7F5F9"/>
<path fill-rule="evenodd" clip-rule="evenodd" d="M74.2611 1225.51C72.4446 1225.51 70.9675 1224.03 70.9675 1222.21C70.9675 1220.39 72.4446 1218.92 74.2611 1218.92C76.0776 1218.92 77.5547 1220.39 77.5547 1222.21C77.5547 1224.03 76.0776 1225.51 74.2611 1225.51Z" fill="#F7F5F9"/>
<path fill-rule="evenodd" clip-rule="evenodd" d="M41.2733 1225.51C39.4568 1225.51 37.9797 1224.03 37.9797 1222.21C37.9797 1220.39 39.4568 1218.92 41.2733 1218.92C43.0848 1218.92 44.5669 1220.39 44.5669 1222.21C44.5669 1224.03 43.0848 1225.51 41.2733 1225.51Z" fill="#F7F5F9"/>
<path fill-rule="evenodd" clip-rule="evenodd" d="M8.28076 1225.51C6.46928 1225.51 4.99216 1224.03 4.99216 1222.21C4.99216 1220.39 6.46928 1218.92 8.28076 1218.92C10.0972 1218.92 11.5793 1220.39 11.5793 1222.21C11.5793 1224.03 10.0972 1225.51 8.28076 1225.51Z" fill="#F7F5F9"/>
<path fill-rule="evenodd" clip-rule="evenodd" d="M107.253 1258.5C105.432 1258.5 103.955 1257.02 103.955 1255.2C103.955 1253.38 105.432 1251.91 107.253 1251.91C109.065 1251.91 110.542 1253.38 110.542 1255.2C110.542 1257.02 109.065 1258.5 107.253 1258.5Z" fill="#F7F5F9"/>
<path fill-rule="evenodd" clip-rule="evenodd" d="M107.253 1291.48C105.432 1291.48 103.955 1290.01 103.955 1288.19C103.955 1286.38 105.432 1284.89 107.253 1284.89C109.065 1284.89 110.542 1286.38 110.542 1288.19C110.542 1290.01 109.065 1291.48 107.253 1291.48Z" fill="#F7F5F9"/>
<path fill-rule="evenodd" clip-rule="evenodd" d="M74.2611 1291.48C72.4446 1291.48 70.9675 1290.01 70.9675 1288.19C70.9675 1286.38 72.4446 1284.89 74.2611 1284.89C76.0776 1284.89 77.5547 1286.38 77.5547 1288.19C77.5547 1290.01 76.0776 1291.48 74.2611 1291.48Z" fill="#F7F5F9"/>
<path fill-rule="evenodd" clip-rule="evenodd" d="M41.2733 1291.48C39.4568 1291.48 37.9797 1290.01 37.9797 1288.19C37.9797 1286.38 39.4568 1284.89 41.2733 1284.89C43.0848 1284.89 44.5669 1286.38 44.5669 1288.19C44.5669 1290.01 43.0848 1291.48 41.2733 1291.48Z" fill="#F7F5F9"/>
<path fill-rule="evenodd" clip-rule="evenodd" d="M8.28076 1291.48C6.46928 1291.48 4.99216 1290.01 4.99216 1288.19C4.99216 1286.38 6.46928 1284.89 8.28076 1284.89C10.0972 1284.89 11.5793 1286.38 11.5793 1288.19C11.5793 1290.01 10.0972 1291.48 8.28076 1291.48Z" fill="#F7F5F9"/>
<path fill-rule="evenodd" clip-rule="evenodd" d="M107.253 1324.47C105.432 1324.47 103.955 1323 103.955 1321.18C103.955 1319.36 105.432 1317.89 107.253 1317.89C109.065 1317.89 110.542 1319.36 110.542 1321.18C110.542 1323 109.065 1324.47 107.253 1324.47Z" fill="#F7F5F9"/>
<path fill-rule="evenodd" clip-rule="evenodd" d="M74.2611 1324.47C72.4446 1324.47 70.9675 1323 70.9675 1321.18C70.9675 1319.36 72.4446 1317.89 74.2611 1317.89C76.0776 1317.89 77.5547 1319.36 77.5547 1321.18C77.5547 1323 76.0776 1324.47 74.2611 1324.47Z" fill="#F7F5F9"/>
<path fill-rule="evenodd" clip-rule="evenodd" d="M41.2733 1324.47C39.4568 1324.47 37.9797 1323 37.9797 1321.18C37.9797 1319.36 39.4568 1317.89 41.2733 1317.89C43.0848 1317.89 44.5669 1319.36 44.5669 1321.18C44.5669 1323 43.0848 1324.47 41.2733 1324.47Z" fill="#F7F5F9"/>
<path fill-rule="evenodd" clip-rule="evenodd" d="M8.28076 1324.47C6.46928 1324.47 4.99216 1323 4.99216 1321.18C4.99216 1319.36 6.46928 1317.89 8.28076 1317.89C10.0972 1317.89 11.5793 1319.36 11.5793 1321.18C11.5793 1323 10.0972 1324.47 8.28076 1324.47Z" fill="#F7F5F9"/>
<path fill-rule="evenodd" clip-rule="evenodd" d="M107.253 1357.46C105.432 1357.46 103.955 1355.98 103.955 1354.17C103.955 1352.35 105.432 1350.88 107.253 1350.88C109.065 1350.88 110.542 1352.35 110.542 1354.17C110.542 1355.98 109.065 1357.46 107.253 1357.46Z" fill="#F7F5F9"/>
<path fill-rule="evenodd" clip-rule="evenodd" d="M74.2611 1357.46C72.4446 1357.46 70.9675 1355.98 70.9675 1354.17C70.9675 1352.35 72.4446 1350.88 74.2611 1350.88C76.0776 1350.88 77.5547 1352.35 77.5547 1354.17C77.5547 1355.98 76.0776 1357.46 74.2611 1357.46Z" fill="#F7F5F9"/>
<path fill-rule="evenodd" clip-rule="evenodd" d="M41.2733 1357.46C39.4568 1357.46 37.9797 1355.98 37.9797 1354.17C37.9797 1352.35 39.4568 1350.88 41.2733 1350.88C43.0848 1350.88 44.5669 1352.35 44.5669 1354.17C44.5669 1355.98 43.0848 1357.46 41.2733 1357.46Z" fill="#F7F5F9"/>
<path fill-rule="evenodd" clip-rule="evenodd" d="M8.28076 1357.46C6.46928 1357.46 4.99216 1355.98 4.99216 1354.17C4.99216 1352.35 6.46928 1350.88 8.28076 1350.88C10.0972 1350.88 11.5793 1352.35 11.5793 1354.17C11.5793 1355.98 10.0972 1357.46 8.28076 1357.46Z" fill="#F7F5F9"/>
<path fill-rule="evenodd" clip-rule="evenodd" d="M107.253 1390.45C105.432 1390.45 103.955 1388.98 103.955 1387.15C103.955 1385.34 105.432 1383.86 107.253 1383.86C109.065 1383.86 110.542 1385.34 110.542 1387.15C110.542 1388.98 109.065 1390.45 107.253 1390.45Z" fill="#F7F5F9"/>
<path fill-rule="evenodd" clip-rule="evenodd" d="M74.2611 1390.45C72.4446 1390.45 70.9675 1388.98 70.9675 1387.15C70.9675 1385.34 72.4446 1383.86 74.2611 1383.86C76.0776 1383.86 77.5547 1385.34 77.5547 1387.15C77.5547 1388.98 76.0776 1390.45 74.2611 1390.45Z" fill="#F7F5F9"/>
<path fill-rule="evenodd" clip-rule="evenodd" d="M41.2733 1390.45C39.4568 1390.45 37.9797 1388.98 37.9797 1387.15C37.9797 1385.34 39.4568 1383.86 41.2733 1383.86C43.0848 1383.86 44.5669 1385.34 44.5669 1387.15C44.5669 1388.98 43.0848 1390.45 41.2733 1390.45Z" fill="#F7F5F9"/>
<path fill-rule="evenodd" clip-rule="evenodd" d="M8.28076 1390.45C6.46928 1390.45 4.99216 1388.98 4.99216 1387.15C4.99216 1385.34 6.46928 1383.86 8.28076 1383.86C10.0972 1383.86 11.5793 1385.34 11.5793 1387.15C11.5793 1388.98 10.0972 1390.45 8.28076 1390.45Z" fill="#F7F5F9"/>
<path fill-rule="evenodd" clip-rule="evenodd" d="M107.253 1423.44C105.432 1423.44 103.955 1421.97 103.955 1420.15C103.955 1418.33 105.432 1416.85 107.253 1416.85C109.065 1416.85 110.542 1418.33 110.542 1420.15C110.542 1421.97 109.065 1423.44 107.253 1423.44Z" fill="#F7F5F9"/>
<path fill-rule="evenodd" clip-rule="evenodd" d="M74.2611 1423.44C72.4446 1423.44 70.9675 1421.97 70.9675 1420.15C70.9675 1418.33 72.4446 1416.85 74.2611 1416.85C76.0776 1416.85 77.5547 1418.33 77.5547 1420.15C77.5547 1421.97 76.0776 1423.44 74.2611 1423.44Z" fill="#F7F5F9"/>
<path fill-rule="evenodd" clip-rule="evenodd" d="M41.2733 1423.44C39.4568 1423.44 37.9797 1421.97 37.9797 1420.15C37.9797 1418.33 39.4568 1416.85 41.2733 1416.85C43.0848 1416.85 44.5669 1418.33 44.5669 1420.15C44.5669 1421.97 43.0848 1423.44 41.2733 1423.44Z" fill="#F7F5F9"/>
<path fill-rule="evenodd" clip-rule="evenodd" d="M8.28076 1423.44C6.46928 1423.44 4.99216 1421.97 4.99216 1420.15C4.99216 1418.33 6.46928 1416.85 8.28076 1416.85C10.0972 1416.85 11.5793 1418.33 11.5793 1420.15C11.5793 1421.97 10.0972 1423.44 8.28076 1423.44Z" fill="#F7F5F9"/>
<path fill-rule="evenodd" clip-rule="evenodd" d="M107.253 1456.43C105.432 1456.43 103.955 1454.95 103.955 1453.13C103.955 1451.32 105.432 1449.84 107.253 1449.84C109.065 1449.84 110.542 1451.32 110.542 1453.13C110.542 1454.95 109.065 1456.43 107.253 1456.43Z" fill="#F7F5F9"/>
<path fill-rule="evenodd" clip-rule="evenodd" d="M74.2611 1456.43C72.4446 1456.43 70.9675 1454.95 70.9675 1453.13C70.9675 1451.32 72.4446 1449.84 74.2611 1449.84C76.0776 1449.84 77.5547 1451.32 77.5547 1453.13C77.5547 1454.95 76.0776 1456.43 74.2611 1456.43Z" fill="#F7F5F9"/>
<path fill-rule="evenodd" clip-rule="evenodd" d="M41.2733 1456.43C39.4568 1456.43 37.9797 1454.95 37.9797 1453.13C37.9797 1451.32 39.4568 1449.84 41.2733 1449.84C43.0848 1449.84 44.5669 1451.32 44.5669 1453.13C44.5669 1454.95 43.0848 1456.43 41.2733 1456.43Z" fill="#F7F5F9"/>
<path fill-rule="evenodd" clip-rule="evenodd" d="M8.28076 1456.43C6.46928 1456.43 4.99216 1454.95 4.99216 1453.13C4.99216 1451.32 6.46928 1449.84 8.28076 1449.84C10.0972 1449.84 11.5793 1451.32 11.5793 1453.13C11.5793 1454.95 10.0972 1456.43 8.28076 1456.43Z" fill="#F7F5F9"/>
<path fill-rule="evenodd" clip-rule="evenodd" d="M140.236 1489.42C138.425 1489.42 136.943 1487.94 136.943 1486.12C136.943 1484.3 138.425 1482.83 140.236 1482.83C142.053 1482.83 143.535 1484.3 143.535 1486.12C143.535 1487.94 142.053 1489.42 140.236 1489.42Z" fill="#F7F5F9"/>
<path fill-rule="evenodd" clip-rule="evenodd" d="M107.253 1489.42C105.432 1489.42 103.955 1487.94 103.955 1486.12C103.955 1484.3 105.432 1482.83 107.253 1482.83C109.065 1482.83 110.542 1484.3 110.542 1486.12C110.542 1487.94 109.065 1489.42 107.253 1489.42Z" fill="#F7F5F9"/>
<path fill-rule="evenodd" clip-rule="evenodd" d="M74.2611 1489.42C72.4446 1489.42 70.9675 1487.94 70.9675 1486.12C70.9675 1484.3 72.4446 1482.83 74.2611 1482.83C76.0776 1482.83 77.5547 1484.3 77.5547 1486.12C77.5547 1487.94 76.0776 1489.42 74.2611 1489.42Z" fill="#F7F5F9"/>
<path fill-rule="evenodd" clip-rule="evenodd" d="M41.2733 1489.42C39.4568 1489.42 37.9797 1487.94 37.9797 1486.12C37.9797 1484.3 39.4568 1482.83 41.2733 1482.83C43.0848 1482.83 44.5669 1484.3 44.5669 1486.12C44.5669 1487.94 43.0848 1489.42 41.2733 1489.42Z" fill="#F7F5F9"/>
<path fill-rule="evenodd" clip-rule="evenodd" d="M8.28076 1489.42C6.46928 1489.42 4.99216 1487.94 4.99216 1486.12C4.99216 1484.3 6.46928 1482.83 8.28076 1482.83C10.0972 1482.83 11.5793 1484.3 11.5793 1486.12C11.5793 1487.94 10.0972 1489.42 8.28076 1489.42Z" fill="#F7F5F9"/>
</svg>
