<svg width="151" height="602" viewBox="0 0 151 602" fill="none" xmlns="http://www.w3.org/2000/svg">
<path fill-rule="evenodd" clip-rule="evenodd" d="M147.237 594.764C145.425 594.764 143.943 596.241 143.943 598.057C143.943 599.879 145.425 601.351 147.237 601.351C149.053 601.351 150.535 599.879 150.535 598.057C150.535 596.241 149.053 594.764 147.237 594.764Z" fill="#F7F5F9"/>
<path fill-rule="evenodd" clip-rule="evenodd" d="M114.253 594.764C112.432 594.764 110.955 596.241 110.955 598.057C110.955 599.879 112.432 601.351 114.253 601.351C116.065 601.351 117.542 599.879 117.542 598.057C117.542 596.241 116.065 594.764 114.253 594.764Z" fill="#F7F5F9"/>
<path fill-rule="evenodd" clip-rule="evenodd" d="M81.2611 594.764C79.4446 594.764 77.9675 596.241 77.9675 598.057C77.9675 599.879 79.4446 601.351 81.2611 601.351C83.0776 601.351 84.5547 599.879 84.5547 598.057C84.5547 596.241 83.0776 594.764 81.2611 594.764Z" fill="#F7F5F9"/>
<path fill-rule="evenodd" clip-rule="evenodd" d="M48.2738 594.764C46.4573 594.764 44.9802 596.241 44.9802 598.057C44.9802 599.879 46.4573 601.351 48.2738 601.351C50.0853 601.351 51.5674 599.879 51.5674 598.057C51.5674 596.241 50.0853 594.764 48.2738 594.764Z" fill="#F7F5F9"/>
<path fill-rule="evenodd" clip-rule="evenodd" d="M15.2805 594.764C13.469 594.764 11.9919 596.241 11.9919 598.057C11.9919 599.879 13.469 601.351 15.2805 601.351C17.097 601.351 18.5791 599.879 18.5791 598.057C18.5791 596.241 17.097 594.764 15.2805 594.764Z" fill="#F7F5F9"/>
<path fill-rule="evenodd" clip-rule="evenodd" d="M147.237 561.781C145.425 561.781 143.943 563.253 143.943 565.075C143.943 566.891 145.425 568.368 147.237 568.368C149.053 568.368 150.535 566.891 150.535 565.075C150.535 563.253 149.053 561.781 147.237 561.781Z" fill="#F7F5F9"/>
<path fill-rule="evenodd" clip-rule="evenodd" d="M114.253 561.781C112.432 561.781 110.955 563.253 110.955 565.075C110.955 566.891 112.432 568.368 114.253 568.368C116.065 568.368 117.542 566.891 117.542 565.075C117.542 563.253 116.065 561.781 114.253 561.781Z" fill="#F7F5F9"/>
<path fill-rule="evenodd" clip-rule="evenodd" d="M81.2611 561.781C79.4446 561.781 77.9675 563.253 77.9675 565.075C77.9675 566.891 79.4446 568.368 81.2611 568.368C83.0776 568.368 84.5547 566.891 84.5547 565.075C84.5547 563.253 83.0776 561.781 81.2611 561.781Z" fill="#F7F5F9"/>
<path fill-rule="evenodd" clip-rule="evenodd" d="M48.2738 561.781C46.4573 561.781 44.9802 563.253 44.9802 565.075C44.9802 566.891 46.4573 568.368 48.2738 568.368C50.0853 568.368 51.5674 566.891 51.5674 565.075C51.5674 563.253 50.0853 561.781 48.2738 561.781Z" fill="#F7F5F9"/>
<path fill-rule="evenodd" clip-rule="evenodd" d="M15.2805 561.781C13.469 561.781 11.9919 563.253 11.9919 565.075C11.9919 566.891 13.469 568.368 15.2805 568.368C17.097 568.368 18.5791 566.891 18.5791 565.075C18.5791 563.253 17.097 561.781 15.2805 561.781Z" fill="#F7F5F9"/>
<path fill-rule="evenodd" clip-rule="evenodd" d="M147.237 528.789C145.425 528.789 143.943 530.261 143.943 532.082C143.943 533.904 145.425 535.376 147.237 535.376C149.053 535.376 150.535 533.904 150.535 532.082C150.535 530.261 149.053 528.789 147.237 528.789Z" fill="#F7F5F9"/>
<path fill-rule="evenodd" clip-rule="evenodd" d="M114.253 528.789C112.432 528.789 110.955 530.261 110.955 532.082C110.955 533.904 112.432 535.376 114.253 535.376C116.065 535.376 117.542 533.904 117.542 532.082C117.542 530.261 116.065 528.789 114.253 528.789Z" fill="#F7F5F9"/>
<path fill-rule="evenodd" clip-rule="evenodd" d="M81.2611 528.789C79.4446 528.789 77.9675 530.261 77.9675 532.082C77.9675 533.904 79.4446 535.376 81.2611 535.376C83.0776 535.376 84.5547 533.904 84.5547 532.082C84.5547 530.261 83.0776 528.789 81.2611 528.789Z" fill="#F7F5F9"/>
<path fill-rule="evenodd" clip-rule="evenodd" d="M48.2738 528.789C46.4573 528.789 44.9802 530.261 44.9802 532.082C44.9802 533.904 46.4573 535.376 48.2738 535.376C50.0853 535.376 51.5674 533.904 51.5674 532.082C51.5674 530.261 50.0853 528.789 48.2738 528.789Z" fill="#F7F5F9"/>
<path fill-rule="evenodd" clip-rule="evenodd" d="M15.2805 528.789C13.469 528.789 11.9919 530.261 11.9919 532.082C11.9919 533.904 13.469 535.376 15.2805 535.376C17.097 535.376 18.5791 533.904 18.5791 532.082C18.5791 530.261 17.097 528.789 15.2805 528.789Z" fill="#F7F5F9"/>
<path fill-rule="evenodd" clip-rule="evenodd" d="M147.237 495.801C145.425 495.801 143.943 497.278 143.943 499.094C143.943 500.911 145.425 502.383 147.237 502.383C149.053 502.383 150.535 500.911 150.535 499.094C150.535 497.278 149.053 495.801 147.237 495.801Z" fill="#F7F5F9"/>
<path fill-rule="evenodd" clip-rule="evenodd" d="M114.253 495.801C112.432 495.801 110.955 497.278 110.955 499.094C110.955 500.911 112.432 502.383 114.253 502.383C116.065 502.383 117.542 500.911 117.542 499.094C117.542 497.278 116.065 495.801 114.253 495.801Z" fill="#F7F5F9"/>
<path fill-rule="evenodd" clip-rule="evenodd" d="M81.2611 495.801C79.4446 495.801 77.9675 497.278 77.9675 499.094C77.9675 500.911 79.4446 502.383 81.2611 502.383C83.0776 502.383 84.5547 500.911 84.5547 499.094C84.5547 497.278 83.0776 495.801 81.2611 495.801Z" fill="#F7F5F9"/>
<path fill-rule="evenodd" clip-rule="evenodd" d="M48.2738 495.801C46.4573 495.801 44.9802 497.278 44.9802 499.094C44.9802 500.911 46.4573 502.383 48.2738 502.383C50.0853 502.383 51.5674 500.911 51.5674 499.094C51.5674 497.278 50.0853 495.801 48.2738 495.801Z" fill="#F7F5F9"/>
<path fill-rule="evenodd" clip-rule="evenodd" d="M15.2805 495.801C13.469 495.801 11.9919 497.278 11.9919 499.094C11.9919 500.911 13.469 502.383 15.2805 502.383C17.097 502.383 18.5791 500.911 18.5791 499.094C18.5791 497.278 17.097 495.801 15.2805 495.801Z" fill="#F7F5F9"/>
<path fill-rule="evenodd" clip-rule="evenodd" d="M147.237 462.813C145.425 462.813 143.943 464.286 143.943 466.107C143.943 467.923 145.425 469.401 147.237 469.401C149.053 469.401 150.535 467.923 150.535 466.107C150.535 464.286 149.053 462.813 147.237 462.813Z" fill="#F7F5F9"/>
<path fill-rule="evenodd" clip-rule="evenodd" d="M114.253 462.813C112.432 462.813 110.955 464.285 110.955 466.107C110.955 467.923 112.432 469.401 114.253 469.401C116.065 469.401 117.542 467.923 117.542 466.107C117.542 464.285 116.065 462.813 114.253 462.813Z" fill="#F7F5F9"/>
<path fill-rule="evenodd" clip-rule="evenodd" d="M81.2611 462.813C79.4446 462.813 77.9675 464.286 77.9675 466.107C77.9675 467.923 79.4446 469.401 81.2611 469.401C83.0776 469.401 84.5547 467.923 84.5547 466.107C84.5547 464.286 83.0776 462.813 81.2611 462.813Z" fill="#F7F5F9"/>
<path fill-rule="evenodd" clip-rule="evenodd" d="M48.2738 462.813C46.4573 462.813 44.9802 464.286 44.9802 466.107C44.9802 467.923 46.4573 469.401 48.2738 469.401C50.0853 469.401 51.5674 467.923 51.5674 466.107C51.5674 464.286 50.0853 462.813 48.2738 462.813Z" fill="#F7F5F9"/>
<path fill-rule="evenodd" clip-rule="evenodd" d="M15.2805 462.813C13.469 462.813 11.9919 464.286 11.9919 466.107C11.9919 467.923 13.469 469.401 15.2805 469.401C17.097 469.401 18.5791 467.923 18.5791 466.107C18.5791 464.286 17.097 462.813 15.2805 462.813Z" fill="#F7F5F9"/>
<path fill-rule="evenodd" clip-rule="evenodd" d="M147.237 429.821C145.425 429.821 143.943 431.293 143.943 433.115C143.943 434.936 145.425 436.408 147.237 436.408C149.053 436.408 150.535 434.936 150.535 433.115C150.535 431.293 149.053 429.821 147.237 429.821Z" fill="#F7F5F9"/>
<path fill-rule="evenodd" clip-rule="evenodd" d="M114.253 429.821C112.432 429.821 110.955 431.293 110.955 433.115C110.955 434.936 112.432 436.408 114.253 436.408C116.065 436.408 117.542 434.936 117.542 433.115C117.542 431.293 116.065 429.821 114.253 429.821Z" fill="#F7F5F9"/>
<path fill-rule="evenodd" clip-rule="evenodd" d="M81.2611 429.821C79.4446 429.821 77.9675 431.293 77.9675 433.115C77.9675 434.936 79.4446 436.408 81.2611 436.408C83.0776 436.408 84.5547 434.936 84.5547 433.115C84.5547 431.293 83.0776 429.821 81.2611 429.821Z" fill="#F7F5F9"/>
<path fill-rule="evenodd" clip-rule="evenodd" d="M48.2738 429.821C46.4573 429.821 44.9802 431.293 44.9802 433.115C44.9802 434.936 46.4573 436.408 48.2738 436.408C50.0853 436.408 51.5674 434.936 51.5674 433.115C51.5674 431.293 50.0853 429.821 48.2738 429.821Z" fill="#F7F5F9"/>
<path fill-rule="evenodd" clip-rule="evenodd" d="M15.2805 429.821C13.469 429.821 11.9919 431.293 11.9919 433.115C11.9919 434.936 13.469 436.408 15.2805 436.408C17.097 436.408 18.5791 434.936 18.5791 433.115C18.5791 431.293 17.097 429.821 15.2805 429.821Z" fill="#F7F5F9"/>
<path fill-rule="evenodd" clip-rule="evenodd" d="M147.237 396.833C145.425 396.833 143.943 398.31 143.943 400.127C143.943 401.943 145.425 403.42 147.237 403.42C149.053 403.42 150.535 401.943 150.535 400.127C150.535 398.31 149.053 396.833 147.237 396.833Z" fill="#F7F5F9"/>
<path fill-rule="evenodd" clip-rule="evenodd" d="M114.253 396.833C112.432 396.833 110.955 398.31 110.955 400.127C110.955 401.943 112.432 403.42 114.253 403.42C116.065 403.42 117.542 401.943 117.542 400.127C117.542 398.31 116.065 396.833 114.253 396.833Z" fill="#F7F5F9"/>
<path fill-rule="evenodd" clip-rule="evenodd" d="M81.2611 396.833C79.4446 396.833 77.9675 398.31 77.9675 400.127C77.9675 401.943 79.4446 403.42 81.2611 403.42C83.0776 403.42 84.5547 401.943 84.5547 400.127C84.5547 398.31 83.0776 396.833 81.2611 396.833Z" fill="#F7F5F9"/>
<path fill-rule="evenodd" clip-rule="evenodd" d="M48.2738 396.833C46.4573 396.833 44.9802 398.31 44.9802 400.127C44.9802 401.943 46.4573 403.42 48.2738 403.42C50.0853 403.42 51.5674 401.943 51.5674 400.127C51.5674 398.31 50.0853 396.833 48.2738 396.833Z" fill="#F7F5F9"/>
<path fill-rule="evenodd" clip-rule="evenodd" d="M15.2805 396.833C13.469 396.833 11.9919 398.31 11.9919 400.127C11.9919 401.943 13.469 403.42 15.2805 403.42C17.097 403.42 18.5791 401.943 18.5791 400.127C18.5791 398.31 17.097 396.833 15.2805 396.833Z" fill="#F7F5F9"/>
<path fill-rule="evenodd" clip-rule="evenodd" d="M147.237 363.846C145.425 363.846 143.943 365.318 143.943 367.139C143.943 368.961 145.425 370.433 147.237 370.433C149.053 370.433 150.535 368.961 150.535 367.139C150.535 365.318 149.053 363.846 147.237 363.846Z" fill="#F7F5F9"/>
<path fill-rule="evenodd" clip-rule="evenodd" d="M114.253 363.846C112.432 363.846 110.955 365.318 110.955 367.139C110.955 368.961 112.432 370.433 114.253 370.433C116.065 370.433 117.542 368.961 117.542 367.139C117.542 365.318 116.065 363.846 114.253 363.846Z" fill="#F7F5F9"/>
<path fill-rule="evenodd" clip-rule="evenodd" d="M81.2611 363.846C79.4446 363.846 77.9675 365.318 77.9675 367.139C77.9675 368.961 79.4446 370.433 81.2611 370.433C83.0776 370.433 84.5547 368.961 84.5547 367.139C84.5547 365.318 83.0776 363.846 81.2611 363.846Z" fill="#F7F5F9"/>
<path fill-rule="evenodd" clip-rule="evenodd" d="M48.2738 363.846C46.4573 363.846 44.9802 365.318 44.9802 367.139C44.9802 368.961 46.4573 370.433 48.2738 370.433C50.0853 370.433 51.5674 368.961 51.5674 367.139C51.5674 365.318 50.0853 363.846 48.2738 363.846Z" fill="#F7F5F9"/>
<path fill-rule="evenodd" clip-rule="evenodd" d="M15.2805 363.846C13.469 363.846 11.9919 365.318 11.9919 367.139C11.9919 368.961 13.469 370.433 15.2805 370.433C17.097 370.433 18.5791 368.961 18.5791 367.139C18.5791 365.318 17.097 363.846 15.2805 363.846Z" fill="#F7F5F9"/>
<path fill-rule="evenodd" clip-rule="evenodd" d="M147.237 330.853C145.425 330.853 143.943 332.33 143.943 334.147C143.943 335.968 145.425 337.44 147.237 337.44C149.053 337.44 150.535 335.968 150.535 334.147C150.535 332.33 149.053 330.853 147.237 330.853Z" fill="#F7F5F9"/>
<path fill-rule="evenodd" clip-rule="evenodd" d="M114.253 330.853C112.432 330.853 110.955 332.33 110.955 334.147C110.955 335.968 112.432 337.44 114.253 337.44C116.065 337.44 117.542 335.968 117.542 334.147C117.542 332.33 116.065 330.853 114.253 330.853Z" fill="#F7F5F9"/>
<path fill-rule="evenodd" clip-rule="evenodd" d="M81.2611 330.853C79.4446 330.853 77.9675 332.33 77.9675 334.147C77.9675 335.968 79.4446 337.44 81.2611 337.44C83.0776 337.44 84.5547 335.968 84.5547 334.147C84.5547 332.33 83.0776 330.853 81.2611 330.853Z" fill="#F7F5F9"/>
<path fill-rule="evenodd" clip-rule="evenodd" d="M48.2738 330.853C46.4573 330.853 44.9802 332.33 44.9802 334.147C44.9802 335.968 46.4573 337.44 48.2738 337.44C50.0853 337.44 51.5674 335.968 51.5674 334.147C51.5674 332.33 50.0853 330.853 48.2738 330.853Z" fill="#F7F5F9"/>
<path fill-rule="evenodd" clip-rule="evenodd" d="M15.2805 330.853C13.469 330.853 11.9919 332.33 11.9919 334.147C11.9919 335.968 13.469 337.44 15.2805 337.44C17.097 337.44 18.5791 335.968 18.5791 334.147C18.5791 332.33 17.097 330.853 15.2805 330.853Z" fill="#F7F5F9"/>
<path fill-rule="evenodd" clip-rule="evenodd" d="M147.237 297.87C145.425 297.87 143.943 299.342 143.943 301.164C143.943 302.975 145.425 304.457 147.237 304.457C149.053 304.457 150.535 302.975 150.535 301.164C150.535 299.342 149.053 297.87 147.237 297.87Z" fill="#F7F5F9"/>
<path fill-rule="evenodd" clip-rule="evenodd" d="M114.253 297.87C112.432 297.87 110.955 299.342 110.955 301.164C110.955 302.975 112.432 304.457 114.253 304.457C116.065 304.457 117.542 302.975 117.542 301.164C117.542 299.342 116.065 297.87 114.253 297.87Z" fill="#F7F5F9"/>
<path fill-rule="evenodd" clip-rule="evenodd" d="M81.2611 297.87C79.4446 297.87 77.9675 299.342 77.9675 301.164C77.9675 302.975 79.4446 304.457 81.2611 304.457C83.0776 304.457 84.5547 302.975 84.5547 301.164C84.5547 299.342 83.0776 297.87 81.2611 297.87Z" fill="#F7F5F9"/>
<path fill-rule="evenodd" clip-rule="evenodd" d="M48.2738 297.87C46.4573 297.87 44.9802 299.342 44.9802 301.164C44.9802 302.975 46.4573 304.457 48.2738 304.457C50.0853 304.457 51.5674 302.975 51.5674 301.164C51.5674 299.342 50.0853 297.87 48.2738 297.87Z" fill="#F7F5F9"/>
<path fill-rule="evenodd" clip-rule="evenodd" d="M15.2805 297.87C13.469 297.87 11.9919 299.342 11.9919 301.164C11.9919 302.975 13.469 304.457 15.2805 304.457C17.097 304.457 18.5791 302.975 18.5791 301.164C18.5791 299.342 17.097 297.87 15.2805 297.87Z" fill="#F7F5F9"/>
<path fill-rule="evenodd" clip-rule="evenodd" d="M147.237 264.878C145.425 264.878 143.943 266.35 143.943 268.171C143.943 269.993 145.425 271.465 147.237 271.465C149.053 271.465 150.535 269.993 150.535 268.171C150.535 266.35 149.053 264.878 147.237 264.878Z" fill="#F7F5F9"/>
<path fill-rule="evenodd" clip-rule="evenodd" d="M114.253 264.878C112.432 264.878 110.955 266.35 110.955 268.171C110.955 269.993 112.432 271.465 114.253 271.465C116.065 271.465 117.542 269.993 117.542 268.171C117.542 266.35 116.065 264.878 114.253 264.878Z" fill="#F7F5F9"/>
<path fill-rule="evenodd" clip-rule="evenodd" d="M81.2611 264.878C79.4446 264.878 77.9675 266.35 77.9675 268.171C77.9675 269.993 79.4446 271.465 81.2611 271.465C83.0776 271.465 84.5547 269.993 84.5547 268.171C84.5547 266.35 83.0776 264.878 81.2611 264.878Z" fill="#F7F5F9"/>
<path fill-rule="evenodd" clip-rule="evenodd" d="M48.2738 264.878C46.4573 264.878 44.9802 266.35 44.9802 268.171C44.9802 269.993 46.4573 271.465 48.2738 271.465C50.0853 271.465 51.5674 269.993 51.5674 268.171C51.5674 266.35 50.0853 264.878 48.2738 264.878Z" fill="#F7F5F9"/>
<path fill-rule="evenodd" clip-rule="evenodd" d="M15.2805 264.878C13.469 264.878 11.9919 266.35 11.9919 268.171C11.9919 269.993 13.469 271.465 15.2805 271.465C17.097 271.465 18.5791 269.993 18.5791 268.171C18.5791 266.35 17.097 264.878 15.2805 264.878Z" fill="#F7F5F9"/>
<path fill-rule="evenodd" clip-rule="evenodd" d="M147.237 231.89C145.425 231.89 143.943 233.368 143.943 235.179C143.943 237.001 145.425 238.473 147.237 238.473C149.053 238.473 150.535 237.001 150.535 235.179C150.535 233.368 149.053 231.89 147.237 231.89Z" fill="#F7F5F9"/>
<path fill-rule="evenodd" clip-rule="evenodd" d="M114.253 231.89C112.432 231.89 110.955 233.368 110.955 235.179C110.955 237.001 112.432 238.473 114.253 238.473C116.065 238.473 117.542 237.001 117.542 235.179C117.542 233.368 116.065 231.89 114.253 231.89Z" fill="#F7F5F9"/>
<path fill-rule="evenodd" clip-rule="evenodd" d="M81.2611 231.89C79.4446 231.89 77.9675 233.368 77.9675 235.179C77.9675 237.001 79.4446 238.473 81.2611 238.473C83.0776 238.473 84.5547 237.001 84.5547 235.179C84.5547 233.368 83.0776 231.89 81.2611 231.89Z" fill="#F7F5F9"/>
<path fill-rule="evenodd" clip-rule="evenodd" d="M48.2738 231.89C46.4573 231.89 44.9802 233.368 44.9802 235.179C44.9802 237.001 46.4573 238.473 48.2738 238.473C50.0853 238.473 51.5674 237.001 51.5674 235.179C51.5674 233.368 50.0853 231.89 48.2738 231.89Z" fill="#F7F5F9"/>
<path fill-rule="evenodd" clip-rule="evenodd" d="M15.2805 231.89C13.469 231.89 11.9919 233.368 11.9919 235.179C11.9919 237 13.469 238.473 15.2805 238.473C17.097 238.473 18.5791 237 18.5791 235.179C18.5791 233.368 17.097 231.89 15.2805 231.89Z" fill="#F7F5F9"/>
<path fill-rule="evenodd" clip-rule="evenodd" d="M147.237 198.903C145.425 198.903 143.943 200.375 143.943 202.196C143.943 204.013 145.425 205.49 147.237 205.49C149.053 205.49 150.535 204.013 150.535 202.196C150.535 200.375 149.053 198.903 147.237 198.903Z" fill="#F7F5F9"/>
<path fill-rule="evenodd" clip-rule="evenodd" d="M114.253 198.903C112.432 198.903 110.955 200.375 110.955 202.196C110.955 204.013 112.432 205.49 114.253 205.49C116.065 205.49 117.542 204.013 117.542 202.196C117.542 200.375 116.065 198.903 114.253 198.903Z" fill="#F7F5F9"/>
<path fill-rule="evenodd" clip-rule="evenodd" d="M81.2611 198.903C79.4446 198.903 77.9675 200.375 77.9675 202.196C77.9675 204.013 79.4446 205.49 81.2611 205.49C83.0776 205.49 84.5547 204.013 84.5547 202.196C84.5547 200.375 83.0776 198.903 81.2611 198.903Z" fill="#F7F5F9"/>
<path fill-rule="evenodd" clip-rule="evenodd" d="M48.2738 198.903C46.4573 198.903 44.9802 200.375 44.9802 202.196C44.9802 204.013 46.4573 205.49 48.2738 205.49C50.0853 205.49 51.5674 204.013 51.5674 202.196C51.5674 200.375 50.0853 198.903 48.2738 198.903Z" fill="#F7F5F9"/>
<path fill-rule="evenodd" clip-rule="evenodd" d="M15.2805 198.903C13.469 198.903 11.9919 200.375 11.9919 202.196C11.9919 204.013 13.469 205.49 15.2805 205.49C17.097 205.49 18.5791 204.013 18.5791 202.196C18.5791 200.375 17.097 198.903 15.2805 198.903Z" fill="#F7F5F9"/>
<path fill-rule="evenodd" clip-rule="evenodd" d="M147.237 165.91C145.425 165.91 143.943 167.382 143.943 169.204C143.943 171.025 145.425 172.497 147.237 172.497C149.053 172.497 150.535 171.025 150.535 169.204C150.535 167.382 149.053 165.91 147.237 165.91Z" fill="#F7F5F9"/>
<path fill-rule="evenodd" clip-rule="evenodd" d="M114.253 165.91C112.432 165.91 110.955 167.382 110.955 169.204C110.955 171.025 112.432 172.497 114.253 172.497C116.065 172.497 117.542 171.025 117.542 169.204C117.542 167.382 116.065 165.91 114.253 165.91Z" fill="#F7F5F9"/>
<path fill-rule="evenodd" clip-rule="evenodd" d="M81.2611 165.91C79.4446 165.91 77.9675 167.382 77.9675 169.204C77.9675 171.025 79.4446 172.497 81.2611 172.497C83.0776 172.497 84.5547 171.025 84.5547 169.204C84.5547 167.382 83.0776 165.91 81.2611 165.91Z" fill="#F7F5F9"/>
<path fill-rule="evenodd" clip-rule="evenodd" d="M48.2738 165.91C46.4573 165.91 44.9802 167.382 44.9802 169.204C44.9802 171.025 46.4573 172.497 48.2738 172.497C50.0853 172.497 51.5674 171.025 51.5674 169.204C51.5674 167.382 50.0853 165.91 48.2738 165.91Z" fill="#F7F5F9"/>
<path fill-rule="evenodd" clip-rule="evenodd" d="M15.2805 165.91C13.469 165.91 11.9919 167.382 11.9919 169.204C11.9919 171.025 13.469 172.497 15.2805 172.497C17.097 172.497 18.5791 171.025 18.5791 169.204C18.5791 167.382 17.097 165.91 15.2805 165.91Z" fill="#F7F5F9"/>
<path fill-rule="evenodd" clip-rule="evenodd" d="M147.237 132.922C145.425 132.922 143.943 134.4 143.943 136.216C143.943 138.033 145.425 139.51 147.237 139.51C149.053 139.51 150.535 138.033 150.535 136.216C150.535 134.4 149.053 132.922 147.237 132.922Z" fill="#F7F5F9"/>
<path fill-rule="evenodd" clip-rule="evenodd" d="M114.253 132.922C112.432 132.922 110.955 134.4 110.955 136.216C110.955 138.033 112.432 139.51 114.253 139.51C116.065 139.51 117.542 138.033 117.542 136.216C117.542 134.4 116.065 132.922 114.253 132.922Z" fill="#F7F5F9"/>
<path fill-rule="evenodd" clip-rule="evenodd" d="M81.2611 132.922C79.4446 132.922 77.9675 134.4 77.9675 136.216C77.9675 138.033 79.4446 139.51 81.2611 139.51C83.0776 139.51 84.5547 138.033 84.5547 136.216C84.5547 134.4 83.0776 132.922 81.2611 132.922Z" fill="#F7F5F9"/>
<path fill-rule="evenodd" clip-rule="evenodd" d="M48.2738 132.922C46.4573 132.922 44.9802 134.4 44.9802 136.216C44.9802 138.033 46.4573 139.51 48.2738 139.51C50.0853 139.51 51.5674 138.033 51.5674 136.216C51.5674 134.4 50.0853 132.922 48.2738 132.922Z" fill="#F7F5F9"/>
<path fill-rule="evenodd" clip-rule="evenodd" d="M15.2805 132.922C13.469 132.922 11.9919 134.4 11.9919 136.216C11.9919 138.032 13.469 139.51 15.2805 139.51C17.097 139.51 18.5791 138.032 18.5791 136.216C18.5791 134.4 17.097 132.922 15.2805 132.922Z" fill="#F7F5F9"/>
<path fill-rule="evenodd" clip-rule="evenodd" d="M147.237 99.9351C145.425 99.9351 143.943 101.407 143.943 103.229C143.943 105.05 145.425 106.522 147.237 106.522C149.053 106.522 150.535 105.05 150.535 103.229C150.535 101.407 149.053 99.9351 147.237 99.9351Z" fill="#F7F5F9"/>
<path fill-rule="evenodd" clip-rule="evenodd" d="M114.253 99.9351C112.432 99.9351 110.955 101.407 110.955 103.229C110.955 105.05 112.432 106.522 114.253 106.522C116.065 106.522 117.542 105.05 117.542 103.229C117.542 101.407 116.065 99.9351 114.253 99.9351Z" fill="#F7F5F9"/>
<path fill-rule="evenodd" clip-rule="evenodd" d="M81.2611 99.9351C79.4446 99.9351 77.9675 101.407 77.9675 103.229C77.9675 105.05 79.4446 106.522 81.2611 106.522C83.0776 106.522 84.5547 105.05 84.5547 103.229C84.5547 101.407 83.0776 99.9351 81.2611 99.9351Z" fill="#F7F5F9"/>
<path fill-rule="evenodd" clip-rule="evenodd" d="M48.2738 99.9351C46.4573 99.9351 44.9802 101.407 44.9802 103.229C44.9802 105.05 46.4573 106.522 48.2738 106.522C50.0853 106.522 51.5674 105.05 51.5674 103.229C51.5674 101.407 50.0853 99.9351 48.2738 99.9351Z" fill="#F7F5F9"/>
<path fill-rule="evenodd" clip-rule="evenodd" d="M15.2805 99.9351C13.469 99.9351 11.9919 101.407 11.9919 103.229C11.9919 105.05 13.469 106.522 15.2805 106.522C17.097 106.522 18.5791 105.05 18.5791 103.229C18.5791 101.407 17.097 99.9351 15.2805 99.9351Z" fill="#F7F5F9"/>
<path fill-rule="evenodd" clip-rule="evenodd" d="M147.237 66.9422C145.425 66.9422 143.943 68.4194 143.943 70.2358C143.943 72.0573 145.425 73.5294 147.237 73.5294C149.053 73.5294 150.535 72.0573 150.535 70.2358C150.535 68.4194 149.053 66.9422 147.237 66.9422Z" fill="#F7F5F9"/>
<path fill-rule="evenodd" clip-rule="evenodd" d="M114.253 66.9422C112.432 66.9422 110.955 68.4194 110.955 70.2358C110.955 72.0573 112.432 73.5294 114.253 73.5294C116.065 73.5294 117.542 72.0573 117.542 70.2358C117.542 68.4194 116.065 66.9422 114.253 66.9422Z" fill="#F7F5F9"/>
<path fill-rule="evenodd" clip-rule="evenodd" d="M81.2611 66.9422C79.4446 66.9422 77.9675 68.4194 77.9675 70.2358C77.9675 72.0573 79.4446 73.5294 81.2611 73.5294C83.0776 73.5294 84.5547 72.0573 84.5547 70.2358C84.5547 68.4194 83.0776 66.9422 81.2611 66.9422Z" fill="#F7F5F9"/>
<path fill-rule="evenodd" clip-rule="evenodd" d="M48.2738 66.9422C46.4573 66.9422 44.9802 68.4194 44.9802 70.2358C44.9802 72.0573 46.4573 73.5294 48.2738 73.5294C50.0853 73.5294 51.5674 72.0573 51.5674 70.2358C51.5674 68.4194 50.0853 66.9422 48.2738 66.9422Z" fill="#F7F5F9"/>
<path fill-rule="evenodd" clip-rule="evenodd" d="M15.2805 66.9422C13.469 66.9422 11.9919 68.4194 11.9919 70.2358C11.9919 72.0573 13.469 73.5294 15.2805 73.5294C17.097 73.5294 18.5791 72.0573 18.5791 70.2358C18.5791 68.4194 17.097 66.9422 15.2805 66.9422Z" fill="#F7F5F9"/>
<path fill-rule="evenodd" clip-rule="evenodd" d="M147.237 33.9599C145.425 33.9599 143.943 35.4321 143.943 37.2535C143.943 39.065 145.425 40.5471 147.237 40.5471C149.053 40.5471 150.535 39.065 150.535 37.2535C150.535 35.4321 149.053 33.9599 147.237 33.9599Z" fill="#F7F5F9"/>
<path fill-rule="evenodd" clip-rule="evenodd" d="M114.253 33.9599C112.432 33.9599 110.955 35.4321 110.955 37.2535C110.955 39.065 112.432 40.5471 114.253 40.5471C116.065 40.5471 117.542 39.065 117.542 37.2535C117.542 35.4321 116.065 33.9599 114.253 33.9599Z" fill="#F7F5F9"/>
<path fill-rule="evenodd" clip-rule="evenodd" d="M81.2611 33.9599C79.4446 33.9599 77.9675 35.4321 77.9675 37.2535C77.9675 39.065 79.4446 40.5471 81.2611 40.5471C83.0776 40.5471 84.5547 39.065 84.5547 37.2535C84.5547 35.4321 83.0776 33.9599 81.2611 33.9599Z" fill="#F7F5F9"/>
<path fill-rule="evenodd" clip-rule="evenodd" d="M48.2738 33.9599C46.4573 33.9599 44.9802 35.4321 44.9802 37.2535C44.9802 39.065 46.4573 40.5471 48.2738 40.5471C50.0853 40.5471 51.5674 39.065 51.5674 37.2535C51.5674 35.4321 50.0853 33.9599 48.2738 33.9599Z" fill="#F7F5F9"/>
<path fill-rule="evenodd" clip-rule="evenodd" d="M15.2805 33.9599C13.469 33.9599 11.9919 35.4321 11.9919 37.2535C11.9919 39.065 13.469 40.5471 15.2805 40.5471C17.097 40.5471 18.5791 39.065 18.5791 37.2535C18.5791 35.4321 17.097 33.9599 15.2805 33.9599Z" fill="#F7F5F9"/>
<path fill-rule="evenodd" clip-rule="evenodd" d="M147.237 0.967009C145.425 0.967009 143.943 2.43915 143.943 4.2606C143.943 6.08206 145.425 7.5542 147.237 7.5542C149.053 7.5542 150.535 6.08206 150.535 4.2606C150.535 2.43915 149.053 0.967009 147.237 0.967009Z" fill="#F7F5F9"/>
<path fill-rule="evenodd" clip-rule="evenodd" d="M114.253 0.967009C112.432 0.967009 110.955 2.43915 110.955 4.2606C110.955 6.08206 112.432 7.5542 114.253 7.5542C116.065 7.5542 117.542 6.08206 117.542 4.2606C117.542 2.43915 116.065 0.967009 114.253 0.967009Z" fill="#F7F5F9"/>
<path fill-rule="evenodd" clip-rule="evenodd" d="M81.2611 0.967009C79.4446 0.967009 77.9675 2.43915 77.9675 4.2606C77.9675 6.08206 79.4446 7.5542 81.2611 7.5542C83.0776 7.5542 84.5547 6.08206 84.5547 4.2606C84.5547 2.43915 83.0776 0.967009 81.2611 0.967009Z" fill="#F7F5F9"/>
<path fill-rule="evenodd" clip-rule="evenodd" d="M48.2738 0.967009C46.4573 0.967009 44.9802 2.43915 44.9802 4.2606C44.9802 6.08206 46.4573 7.5542 48.2738 7.5542C50.0853 7.5542 51.5674 6.08206 51.5674 4.2606C51.5674 2.43915 50.0853 0.967009 48.2738 0.967009Z" fill="#F7F5F9"/>
<path fill-rule="evenodd" clip-rule="evenodd" d="M15.2805 0.967009C13.469 0.967009 11.9919 2.43915 11.9919 4.2606C11.9919 6.08206 13.469 7.5542 15.2805 7.5542C17.097 7.5542 18.5791 6.08206 18.5791 4.2606C18.5791 2.43915 17.097 0.967009 15.2805 0.967009Z" fill="#F7F5F9"/>
</svg>
