<svg width="153" height="602" viewBox="0 0 153 602" fill="none" xmlns="http://www.w3.org/2000/svg">
<path fill-rule="evenodd" clip-rule="evenodd" d="M3.76343 7.58377C5.57491 7.58377 7.05702 6.10664 7.05702 4.29018C7.05702 2.46872 5.57491 0.996582 3.76343 0.996582C1.94696 0.996582 0.464844 2.46872 0.464844 4.29018C0.464844 6.10664 1.94696 7.58377 3.76343 7.58377Z" fill="#F7F5F9"/>
<path fill-rule="evenodd" clip-rule="evenodd" d="M36.7466 7.58377C38.5681 7.58377 40.0452 6.10664 40.0452 4.29018C40.0452 2.46872 38.5681 0.996582 36.7466 0.996582C34.9351 0.996582 33.458 2.46872 33.458 4.29018C33.458 6.10664 34.9351 7.58377 36.7466 7.58377Z" fill="#F7F5F9"/>
<path fill-rule="evenodd" clip-rule="evenodd" d="M69.7389 7.58377C71.5554 7.58377 73.0325 6.10664 73.0325 4.29018C73.0325 2.46872 71.5554 0.996582 69.7389 0.996582C67.9224 0.996582 66.4453 2.46872 66.4453 4.29018C66.4453 6.10664 67.9224 7.58377 69.7389 7.58377Z" fill="#F7F5F9"/>
<path fill-rule="evenodd" clip-rule="evenodd" d="M102.727 7.58377C104.544 7.58377 106.021 6.10664 106.021 4.29018C106.021 2.46872 104.544 0.996582 102.727 0.996582C100.916 0.996582 99.4336 2.46872 99.4336 4.29018C99.4336 6.10664 100.916 7.58377 102.727 7.58377Z" fill="#F7F5F9"/>
<path fill-rule="evenodd" clip-rule="evenodd" d="M135.719 7.58377C137.531 7.58377 139.008 6.10664 139.008 4.29018C139.008 2.46872 137.531 0.996582 135.719 0.996582C133.903 0.996582 132.421 2.46872 132.421 4.29018C132.421 6.10664 133.903 7.58377 135.719 7.58377Z" fill="#F7F5F9"/>
<path fill-rule="evenodd" clip-rule="evenodd" d="M3.76343 40.5667C5.57491 40.5667 7.05702 39.0945 7.05702 37.2731C7.05702 35.4566 5.57491 33.9795 3.76343 33.9795C1.94696 33.9795 0.464844 35.4566 0.464844 37.2731C0.464844 39.0945 1.94696 40.5667 3.76343 40.5667Z" fill="#F7F5F9"/>
<path fill-rule="evenodd" clip-rule="evenodd" d="M36.7466 40.5667C38.5681 40.5667 40.0452 39.0945 40.0452 37.2731C40.0452 35.4566 38.5681 33.9795 36.7466 33.9795C34.9351 33.9795 33.458 35.4566 33.458 37.2731C33.458 39.0945 34.9351 40.5667 36.7466 40.5667Z" fill="#F7F5F9"/>
<path fill-rule="evenodd" clip-rule="evenodd" d="M69.7389 40.5667C71.5554 40.5667 73.0325 39.0945 73.0325 37.2731C73.0325 35.4566 71.5554 33.9795 69.7389 33.9795C67.9224 33.9795 66.4453 35.4566 66.4453 37.2731C66.4453 39.0945 67.9224 40.5667 69.7389 40.5667Z" fill="#F7F5F9"/>
<path fill-rule="evenodd" clip-rule="evenodd" d="M102.727 40.5667C104.544 40.5667 106.021 39.0945 106.021 37.2731C106.021 35.4566 104.544 33.9795 102.727 33.9795C100.916 33.9795 99.4336 35.4566 99.4336 37.2731C99.4336 39.0945 100.916 40.5667 102.727 40.5667Z" fill="#F7F5F9"/>
<path fill-rule="evenodd" clip-rule="evenodd" d="M135.719 40.5667C137.531 40.5667 139.008 39.0945 139.008 37.2731C139.008 35.4566 137.531 33.9795 135.719 33.9795C133.903 33.9795 132.421 35.4566 132.421 37.2731C132.421 39.0945 133.903 40.5667 135.719 40.5667Z" fill="#F7F5F9"/>
<path fill-rule="evenodd" clip-rule="evenodd" d="M3.76343 73.5589C5.57491 73.5589 7.05702 72.0867 7.05702 70.2653C7.05702 68.4438 5.57491 66.9717 3.76343 66.9717C1.94696 66.9717 0.464844 68.4438 0.464844 70.2653C0.464844 72.0867 1.94696 73.5589 3.76343 73.5589Z" fill="#F7F5F9"/>
<path fill-rule="evenodd" clip-rule="evenodd" d="M36.7466 73.5589C38.5681 73.5589 40.0452 72.0867 40.0452 70.2653C40.0452 68.4438 38.5681 66.9717 36.7466 66.9717C34.9351 66.9717 33.458 68.4438 33.458 70.2653C33.458 72.0867 34.9351 73.5589 36.7466 73.5589Z" fill="#F7F5F9"/>
<path fill-rule="evenodd" clip-rule="evenodd" d="M69.7389 73.5589C71.5554 73.5589 73.0325 72.0867 73.0325 70.2653C73.0325 68.4438 71.5554 66.9717 69.7389 66.9717C67.9224 66.9717 66.4453 68.4438 66.4453 70.2653C66.4453 72.0867 67.9224 73.5589 69.7389 73.5589Z" fill="#F7F5F9"/>
<path fill-rule="evenodd" clip-rule="evenodd" d="M102.727 73.5589C104.544 73.5589 106.021 72.0867 106.021 70.2653C106.021 68.4438 104.544 66.9717 102.727 66.9717C100.916 66.9717 99.4336 68.4438 99.4336 70.2653C99.4336 72.0867 100.916 73.5589 102.727 73.5589Z" fill="#F7F5F9"/>
<path fill-rule="evenodd" clip-rule="evenodd" d="M135.719 73.5589C137.531 73.5589 139.008 72.0867 139.008 70.2653C139.008 68.4438 137.531 66.9717 135.719 66.9717C133.903 66.9717 132.421 68.4438 132.421 70.2653C132.421 72.0867 133.903 73.5589 135.719 73.5589Z" fill="#F7F5F9"/>
<path fill-rule="evenodd" clip-rule="evenodd" d="M3.76343 106.547C5.57491 106.547 7.05702 105.07 7.05702 103.253C7.05702 101.437 5.57491 99.9646 3.76343 99.9646C1.94696 99.9646 0.464844 101.437 0.464844 103.253C0.464844 105.07 1.94696 106.547 3.76343 106.547Z" fill="#F7F5F9"/>
<path fill-rule="evenodd" clip-rule="evenodd" d="M36.7466 106.547C38.5681 106.547 40.0452 105.07 40.0452 103.253C40.0452 101.437 38.5681 99.9646 36.7466 99.9646C34.9351 99.9646 33.458 101.437 33.458 103.253C33.458 105.07 34.9351 106.547 36.7466 106.547Z" fill="#F7F5F9"/>
<path fill-rule="evenodd" clip-rule="evenodd" d="M69.7389 106.547C71.5554 106.547 73.0325 105.07 73.0325 103.253C73.0325 101.437 71.5554 99.9646 69.7389 99.9646C67.9224 99.9646 66.4453 101.437 66.4453 103.253C66.4453 105.07 67.9224 106.547 69.7389 106.547Z" fill="#F7F5F9"/>
<path fill-rule="evenodd" clip-rule="evenodd" d="M102.727 106.547C104.544 106.547 106.021 105.07 106.021 103.253C106.021 101.437 104.544 99.9646 102.727 99.9646C100.916 99.9646 99.4336 101.437 99.4336 103.253C99.4336 105.07 100.916 106.547 102.727 106.547Z" fill="#F7F5F9"/>
<path fill-rule="evenodd" clip-rule="evenodd" d="M135.719 106.547C137.531 106.547 139.008 105.07 139.008 103.253C139.008 101.437 137.531 99.9646 135.719 99.9646C133.903 99.9646 132.421 101.437 132.421 103.253C132.421 105.07 133.903 106.547 135.719 106.547Z" fill="#F7F5F9"/>
<path fill-rule="evenodd" clip-rule="evenodd" d="M3.76343 139.534C5.57491 139.534 7.05702 138.062 7.05702 136.241C7.05702 134.424 5.57491 132.947 3.76343 132.947C1.94696 132.947 0.464844 134.424 0.464844 136.241C0.464844 138.062 1.94696 139.534 3.76343 139.534Z" fill="#F7F5F9"/>
<path fill-rule="evenodd" clip-rule="evenodd" d="M36.7466 139.534C38.5681 139.534 40.0452 138.062 40.0452 136.241C40.0452 134.424 38.5681 132.947 36.7466 132.947C34.9351 132.947 33.458 134.424 33.458 136.241C33.458 138.062 34.9351 139.534 36.7466 139.534Z" fill="#F7F5F9"/>
<path fill-rule="evenodd" clip-rule="evenodd" d="M69.7389 139.534C71.5554 139.534 73.0325 138.062 73.0325 136.241C73.0325 134.424 71.5554 132.947 69.7389 132.947C67.9224 132.947 66.4453 134.424 66.4453 136.241C66.4453 138.062 67.9224 139.534 69.7389 139.534Z" fill="#F7F5F9"/>
<path fill-rule="evenodd" clip-rule="evenodd" d="M102.727 139.534C104.544 139.534 106.021 138.062 106.021 136.241C106.021 134.424 104.544 132.947 102.727 132.947C100.916 132.947 99.4336 134.424 99.4336 136.241C99.4336 138.062 100.916 139.534 102.727 139.534Z" fill="#F7F5F9"/>
<path fill-rule="evenodd" clip-rule="evenodd" d="M135.719 139.534C137.531 139.534 139.008 138.062 139.008 136.241C139.008 134.424 137.531 132.947 135.719 132.947C133.903 132.947 132.421 134.424 132.421 136.241C132.421 138.062 133.903 139.534 135.719 139.534Z" fill="#F7F5F9"/>
<path fill-rule="evenodd" clip-rule="evenodd" d="M3.76343 172.526C5.57491 172.526 7.05702 171.054 7.05702 169.233C7.05702 167.411 5.57491 165.939 3.76343 165.939C1.94696 165.939 0.464844 167.411 0.464844 169.233C0.464844 171.054 1.94696 172.526 3.76343 172.526Z" fill="#F7F5F9"/>
<path fill-rule="evenodd" clip-rule="evenodd" d="M36.7466 172.526C38.5681 172.526 40.0452 171.054 40.0452 169.233C40.0452 167.411 38.5681 165.939 36.7466 165.939C34.9351 165.939 33.458 167.411 33.458 169.233C33.458 171.054 34.9351 172.526 36.7466 172.526Z" fill="#F7F5F9"/>
<path fill-rule="evenodd" clip-rule="evenodd" d="M69.7389 172.526C71.5554 172.526 73.0325 171.054 73.0325 169.233C73.0325 167.411 71.5554 165.939 69.7389 165.939C67.9224 165.939 66.4453 167.411 66.4453 169.233C66.4453 171.054 67.9224 172.526 69.7389 172.526Z" fill="#F7F5F9"/>
<path fill-rule="evenodd" clip-rule="evenodd" d="M102.727 172.526C104.544 172.526 106.021 171.054 106.021 169.233C106.021 167.411 104.544 165.939 102.727 165.939C100.916 165.939 99.4336 167.411 99.4336 169.233C99.4336 171.054 100.916 172.526 102.727 172.526Z" fill="#F7F5F9"/>
<path fill-rule="evenodd" clip-rule="evenodd" d="M135.719 172.526C137.531 172.526 139.008 171.054 139.008 169.233C139.008 167.411 137.531 165.939 135.719 165.939C133.903 165.939 132.421 167.411 132.421 169.233C132.421 171.054 133.903 172.526 135.719 172.526Z" fill="#F7F5F9"/>
<path fill-rule="evenodd" clip-rule="evenodd" d="M3.76343 205.514C5.57491 205.514 7.05702 204.037 7.05702 202.221C7.05702 200.404 5.57491 198.927 3.76343 198.927C1.94696 198.927 0.464844 200.404 0.464844 202.221C0.464844 204.037 1.94696 205.514 3.76343 205.514Z" fill="#F7F5F9"/>
<path fill-rule="evenodd" clip-rule="evenodd" d="M36.7466 205.514C38.5681 205.514 40.0452 204.037 40.0452 202.221C40.0452 200.404 38.5681 198.927 36.7466 198.927C34.9351 198.927 33.458 200.404 33.458 202.221C33.458 204.037 34.9351 205.514 36.7466 205.514Z" fill="#F7F5F9"/>
<path fill-rule="evenodd" clip-rule="evenodd" d="M69.7389 205.514C71.5554 205.514 73.0325 204.037 73.0325 202.221C73.0325 200.404 71.5554 198.927 69.7389 198.927C67.9224 198.927 66.4453 200.404 66.4453 202.221C66.4453 204.037 67.9224 205.514 69.7389 205.514Z" fill="#F7F5F9"/>
<path fill-rule="evenodd" clip-rule="evenodd" d="M102.727 205.514C104.544 205.514 106.021 204.037 106.021 202.221C106.021 200.404 104.544 198.927 102.727 198.927C100.916 198.927 99.4336 200.404 99.4336 202.221C99.4336 204.037 100.916 205.514 102.727 205.514Z" fill="#F7F5F9"/>
<path fill-rule="evenodd" clip-rule="evenodd" d="M135.719 205.514C137.531 205.514 139.008 204.037 139.008 202.221C139.008 200.404 137.531 198.927 135.719 198.927C133.903 198.927 132.421 200.404 132.421 202.221C132.421 204.037 133.903 205.514 135.719 205.514Z" fill="#F7F5F9"/>
<path fill-rule="evenodd" clip-rule="evenodd" d="M3.76343 238.502C5.57491 238.502 7.05702 237.03 7.05702 235.208C7.05702 233.387 5.57491 231.915 3.76343 231.915C1.94696 231.915 0.464844 233.387 0.464844 235.208C0.464844 237.03 1.94696 238.502 3.76343 238.502Z" fill="#F7F5F9"/>
<path fill-rule="evenodd" clip-rule="evenodd" d="M36.7466 238.502C38.5681 238.502 40.0452 237.03 40.0452 235.208C40.0452 233.387 38.5681 231.915 36.7466 231.915C34.9351 231.915 33.458 233.387 33.458 235.208C33.458 237.03 34.9351 238.502 36.7466 238.502Z" fill="#F7F5F9"/>
<path fill-rule="evenodd" clip-rule="evenodd" d="M69.7389 238.502C71.5554 238.502 73.0325 237.03 73.0325 235.208C73.0325 233.387 71.5554 231.915 69.7389 231.915C67.9224 231.915 66.4453 233.387 66.4453 235.208C66.4453 237.03 67.9224 238.502 69.7389 238.502Z" fill="#F7F5F9"/>
<path fill-rule="evenodd" clip-rule="evenodd" d="M102.727 238.502C104.544 238.502 106.021 237.03 106.021 235.208C106.021 233.387 104.544 231.915 102.727 231.915C100.916 231.915 99.4336 233.387 99.4336 235.208C99.4336 237.03 100.916 238.502 102.727 238.502Z" fill="#F7F5F9"/>
<path fill-rule="evenodd" clip-rule="evenodd" d="M135.719 238.502C137.531 238.502 139.008 237.03 139.008 235.208C139.008 233.387 137.531 231.915 135.719 231.915C133.903 231.915 132.421 233.387 132.421 235.208C132.421 237.03 133.903 238.502 135.719 238.502Z" fill="#F7F5F9"/>
<path fill-rule="evenodd" clip-rule="evenodd" d="M3.76343 271.494C5.57491 271.494 7.05702 270.017 7.05702 268.201C7.05702 266.379 5.57491 264.907 3.76343 264.907C1.94696 264.907 0.464844 266.379 0.464844 268.201C0.464844 270.017 1.94696 271.494 3.76343 271.494Z" fill="#F7F5F9"/>
<path fill-rule="evenodd" clip-rule="evenodd" d="M36.7466 271.494C38.5681 271.494 40.0452 270.017 40.0452 268.201C40.0452 266.379 38.5681 264.907 36.7466 264.907C34.9351 264.907 33.458 266.379 33.458 268.201C33.458 270.017 34.9351 271.494 36.7466 271.494Z" fill="#F7F5F9"/>
<path fill-rule="evenodd" clip-rule="evenodd" d="M69.7389 271.494C71.5554 271.494 73.0325 270.017 73.0325 268.201C73.0325 266.379 71.5554 264.907 69.7389 264.907C67.9224 264.907 66.4453 266.379 66.4453 268.201C66.4453 270.017 67.9224 271.494 69.7389 271.494Z" fill="#F7F5F9"/>
<path fill-rule="evenodd" clip-rule="evenodd" d="M102.727 271.494C104.544 271.494 106.021 270.017 106.021 268.201C106.021 266.379 104.544 264.907 102.727 264.907C100.916 264.907 99.4336 266.379 99.4336 268.201C99.4336 270.017 100.916 271.494 102.727 271.494Z" fill="#F7F5F9"/>
<path fill-rule="evenodd" clip-rule="evenodd" d="M135.719 271.494C137.531 271.494 139.008 270.017 139.008 268.201C139.008 266.379 137.531 264.907 135.719 264.907C133.903 264.907 132.421 266.379 132.421 268.201C132.421 270.017 133.903 271.494 135.719 271.494Z" fill="#F7F5F9"/>
<path fill-rule="evenodd" clip-rule="evenodd" d="M3.76343 304.477C5.57491 304.477 7.05702 303.005 7.05702 301.184C7.05702 299.372 5.57491 297.89 3.76343 297.89C1.94696 297.89 0.464844 299.372 0.464844 301.184C0.464844 303.005 1.94696 304.477 3.76343 304.477Z" fill="#F7F5F9"/>
<path fill-rule="evenodd" clip-rule="evenodd" d="M36.7466 304.477C38.5681 304.477 40.0452 303.005 40.0452 301.184C40.0452 299.372 38.5681 297.89 36.7466 297.89C34.9351 297.89 33.458 299.372 33.458 301.184C33.458 303.005 34.9351 304.477 36.7466 304.477Z" fill="#F7F5F9"/>
<path fill-rule="evenodd" clip-rule="evenodd" d="M69.7389 304.477C71.5554 304.477 73.0325 303.005 73.0325 301.184C73.0325 299.372 71.5554 297.89 69.7389 297.89C67.9224 297.89 66.4453 299.372 66.4453 301.184C66.4453 303.005 67.9224 304.477 69.7389 304.477Z" fill="#F7F5F9"/>
<path fill-rule="evenodd" clip-rule="evenodd" d="M102.727 304.477C104.544 304.477 106.021 303.005 106.021 301.184C106.021 299.372 104.544 297.89 102.727 297.89C100.916 297.89 99.4336 299.372 99.4336 301.184C99.4336 303.005 100.916 304.477 102.727 304.477Z" fill="#F7F5F9"/>
<path fill-rule="evenodd" clip-rule="evenodd" d="M135.719 304.477C137.531 304.477 139.008 303.005 139.008 301.184C139.008 299.372 137.531 297.89 135.719 297.89C133.903 297.89 132.421 299.372 132.421 301.184C132.421 303.005 133.903 304.477 135.719 304.477Z" fill="#F7F5F9"/>
<path fill-rule="evenodd" clip-rule="evenodd" d="M3.76343 337.47C5.57491 337.47 7.05702 335.998 7.05702 334.176C7.05702 332.355 5.57491 330.883 3.76343 330.883C1.94696 330.883 0.464844 332.355 0.464844 334.176C0.464844 335.998 1.94696 337.47 3.76343 337.47Z" fill="#F7F5F9"/>
<path fill-rule="evenodd" clip-rule="evenodd" d="M36.7466 337.47C38.5681 337.47 40.0452 335.998 40.0452 334.176C40.0452 332.355 38.5681 330.883 36.7466 330.883C34.9351 330.883 33.458 332.355 33.458 334.176C33.458 335.998 34.9351 337.47 36.7466 337.47Z" fill="#F7F5F9"/>
<path fill-rule="evenodd" clip-rule="evenodd" d="M69.7389 337.47C71.5554 337.47 73.0325 335.998 73.0325 334.176C73.0325 332.355 71.5554 330.883 69.7389 330.883C67.9224 330.883 66.4453 332.355 66.4453 334.176C66.4453 335.998 67.9224 337.47 69.7389 337.47Z" fill="#F7F5F9"/>
<path fill-rule="evenodd" clip-rule="evenodd" d="M102.727 337.47C104.544 337.47 106.021 335.998 106.021 334.176C106.021 332.355 104.544 330.883 102.727 330.883C100.916 330.883 99.4336 332.355 99.4336 334.176C99.4336 335.998 100.916 337.47 102.727 337.47Z" fill="#F7F5F9"/>
<path fill-rule="evenodd" clip-rule="evenodd" d="M135.719 337.47C137.531 337.47 139.008 335.998 139.008 334.176C139.008 332.355 137.531 330.883 135.719 330.883C133.903 330.883 132.421 332.355 132.421 334.176C132.421 335.998 133.903 337.47 135.719 337.47Z" fill="#F7F5F9"/>
<path fill-rule="evenodd" clip-rule="evenodd" d="M3.76343 370.457C5.57491 370.457 7.05702 368.98 7.05702 367.169C7.05702 365.347 5.57491 363.875 3.76343 363.875C1.94696 363.875 0.464844 365.347 0.464844 367.169C0.464844 368.98 1.94696 370.457 3.76343 370.457Z" fill="#F7F5F9"/>
<path fill-rule="evenodd" clip-rule="evenodd" d="M36.7466 370.457C38.5681 370.457 40.0452 368.98 40.0452 367.169C40.0452 365.347 38.5681 363.875 36.7466 363.875C34.9351 363.875 33.458 365.347 33.458 367.169C33.458 368.98 34.9351 370.457 36.7466 370.457Z" fill="#F7F5F9"/>
<path fill-rule="evenodd" clip-rule="evenodd" d="M69.7389 370.457C71.5554 370.457 73.0325 368.98 73.0325 367.169C73.0325 365.347 71.5554 363.875 69.7389 363.875C67.9224 363.875 66.4453 365.347 66.4453 367.169C66.4453 368.98 67.9224 370.457 69.7389 370.457Z" fill="#F7F5F9"/>
<path fill-rule="evenodd" clip-rule="evenodd" d="M102.727 370.457C104.544 370.457 106.021 368.98 106.021 367.169C106.021 365.347 104.544 363.875 102.727 363.875C100.916 363.875 99.4336 365.347 99.4336 367.169C99.4336 368.98 100.916 370.457 102.727 370.457Z" fill="#F7F5F9"/>
<path fill-rule="evenodd" clip-rule="evenodd" d="M135.719 370.457C137.531 370.457 139.008 368.98 139.008 367.169C139.008 365.347 137.531 363.875 135.719 363.875C133.903 363.875 132.421 365.347 132.421 367.169C132.421 368.98 133.903 370.457 135.719 370.457Z" fill="#F7F5F9"/>
<path fill-rule="evenodd" clip-rule="evenodd" d="M3.76343 403.445C5.57491 403.445 7.05702 401.973 7.05702 400.151C7.05702 398.335 5.57491 396.858 3.76343 396.858C1.94696 396.858 0.464844 398.335 0.464844 400.151C0.464844 401.973 1.94696 403.445 3.76343 403.445Z" fill="#F7F5F9"/>
<path fill-rule="evenodd" clip-rule="evenodd" d="M36.7466 403.445C38.5681 403.445 40.0452 401.973 40.0452 400.151C40.0452 398.335 38.5681 396.858 36.7466 396.858C34.9351 396.858 33.458 398.335 33.458 400.151C33.458 401.973 34.9351 403.445 36.7466 403.445Z" fill="#F7F5F9"/>
<path fill-rule="evenodd" clip-rule="evenodd" d="M69.7389 403.445C71.5554 403.445 73.0325 401.973 73.0325 400.151C73.0325 398.335 71.5554 396.858 69.7389 396.858C67.9224 396.858 66.4453 398.335 66.4453 400.151C66.4453 401.973 67.9224 403.445 69.7389 403.445Z" fill="#F7F5F9"/>
<path fill-rule="evenodd" clip-rule="evenodd" d="M102.727 403.445C104.544 403.445 106.021 401.973 106.021 400.151C106.021 398.335 104.544 396.858 102.727 396.858C100.916 396.858 99.4336 398.335 99.4336 400.151C99.4336 401.973 100.916 403.445 102.727 403.445Z" fill="#F7F5F9"/>
<path fill-rule="evenodd" clip-rule="evenodd" d="M135.719 403.445C137.531 403.445 139.008 401.973 139.008 400.151C139.008 398.335 137.531 396.858 135.719 396.858C133.903 396.858 132.421 398.335 132.421 400.151C132.421 401.973 133.903 403.445 135.719 403.445Z" fill="#F7F5F9"/>
<path fill-rule="evenodd" clip-rule="evenodd" d="M3.76343 436.437C5.57491 436.437 7.05702 434.965 7.05702 433.144C7.05702 431.322 5.57491 429.85 3.76343 429.85C1.94696 429.85 0.464844 431.322 0.464844 433.144C0.464844 434.965 1.94696 436.437 3.76343 436.437Z" fill="#F7F5F9"/>
<path fill-rule="evenodd" clip-rule="evenodd" d="M36.7466 436.437C38.5681 436.437 40.0452 434.965 40.0452 433.144C40.0452 431.322 38.5681 429.85 36.7466 429.85C34.9351 429.85 33.458 431.322 33.458 433.144C33.458 434.965 34.9351 436.437 36.7466 436.437Z" fill="#F7F5F9"/>
<path fill-rule="evenodd" clip-rule="evenodd" d="M69.7389 436.437C71.5554 436.437 73.0325 434.965 73.0325 433.144C73.0325 431.322 71.5554 429.85 69.7389 429.85C67.9224 429.85 66.4453 431.322 66.4453 433.144C66.4453 434.965 67.9224 436.437 69.7389 436.437Z" fill="#F7F5F9"/>
<path fill-rule="evenodd" clip-rule="evenodd" d="M102.727 436.437C104.544 436.437 106.021 434.965 106.021 433.144C106.021 431.322 104.544 429.85 102.727 429.85C100.916 429.85 99.4336 431.322 99.4336 433.144C99.4336 434.965 100.916 436.437 102.727 436.437Z" fill="#F7F5F9"/>
<path fill-rule="evenodd" clip-rule="evenodd" d="M135.719 436.437C137.531 436.437 139.008 434.965 139.008 433.144C139.008 431.322 137.531 429.85 135.719 429.85C133.903 429.85 132.421 431.322 132.421 433.144C132.421 434.965 133.903 436.437 135.719 436.437Z" fill="#F7F5F9"/>
<path fill-rule="evenodd" clip-rule="evenodd" d="M3.76343 469.425C5.57491 469.425 7.05702 467.948 7.05702 466.131C7.05702 464.315 5.57491 462.838 3.76343 462.838C1.94696 462.838 0.464844 464.315 0.464844 466.131C0.464844 467.948 1.94696 469.425 3.76343 469.425Z" fill="#F7F5F9"/>
<path fill-rule="evenodd" clip-rule="evenodd" d="M36.7466 469.425C38.5681 469.425 40.0452 467.948 40.0452 466.131C40.0452 464.315 38.5681 462.838 36.7466 462.838C34.9351 462.838 33.458 464.315 33.458 466.131C33.458 467.948 34.9351 469.425 36.7466 469.425Z" fill="#F7F5F9"/>
<path fill-rule="evenodd" clip-rule="evenodd" d="M69.7389 469.425C71.5554 469.425 73.0325 467.948 73.0325 466.131C73.0325 464.315 71.5554 462.838 69.7389 462.838C67.9224 462.838 66.4453 464.315 66.4453 466.131C66.4453 467.948 67.9224 469.425 69.7389 469.425Z" fill="#F7F5F9"/>
<path fill-rule="evenodd" clip-rule="evenodd" d="M102.727 469.425C104.544 469.425 106.021 467.948 106.021 466.131C106.021 464.315 104.544 462.838 102.727 462.838C100.916 462.838 99.4336 464.315 99.4336 466.131C99.4336 467.948 100.916 469.425 102.727 469.425Z" fill="#F7F5F9"/>
<path fill-rule="evenodd" clip-rule="evenodd" d="M135.719 469.425C137.531 469.425 139.008 467.948 139.008 466.131C139.008 464.315 137.531 462.838 135.719 462.838C133.903 462.838 132.421 464.315 132.421 466.131C132.421 467.948 133.903 469.425 135.719 469.425Z" fill="#F7F5F9"/>
<path fill-rule="evenodd" clip-rule="evenodd" d="M3.76343 502.412C5.57491 502.412 7.05702 500.94 7.05702 499.119C7.05702 497.297 5.57491 495.825 3.76343 495.825C1.94696 495.825 0.464844 497.297 0.464844 499.119C0.464844 500.94 1.94696 502.412 3.76343 502.412Z" fill="#F7F5F9"/>
<path fill-rule="evenodd" clip-rule="evenodd" d="M36.7466 502.412C38.5681 502.412 40.0452 500.94 40.0452 499.119C40.0452 497.297 38.5681 495.825 36.7466 495.825C34.9351 495.825 33.458 497.297 33.458 499.119C33.458 500.94 34.9351 502.412 36.7466 502.412Z" fill="#F7F5F9"/>
<path fill-rule="evenodd" clip-rule="evenodd" d="M69.7389 502.412C71.5554 502.412 73.0325 500.94 73.0325 499.119C73.0325 497.297 71.5554 495.825 69.7389 495.825C67.9224 495.825 66.4453 497.297 66.4453 499.119C66.4453 500.94 67.9224 502.412 69.7389 502.412Z" fill="#F7F5F9"/>
<path fill-rule="evenodd" clip-rule="evenodd" d="M102.727 502.412C104.544 502.412 106.021 500.94 106.021 499.119C106.021 497.297 104.544 495.825 102.727 495.825C100.916 495.825 99.4336 497.297 99.4336 499.119C99.4336 500.94 100.916 502.412 102.727 502.412Z" fill="#F7F5F9"/>
<path fill-rule="evenodd" clip-rule="evenodd" d="M135.719 502.412C137.531 502.412 139.008 500.94 139.008 499.119C139.008 497.297 137.531 495.825 135.719 495.825C133.903 495.825 132.421 497.297 132.421 499.119C132.421 500.94 133.903 502.412 135.719 502.412Z" fill="#F7F5F9"/>
<path fill-rule="evenodd" clip-rule="evenodd" d="M3.76343 535.405C5.57491 535.405 7.05702 533.928 7.05702 532.112C7.05702 530.29 5.57491 528.818 3.76343 528.818C1.94696 528.818 0.464844 530.29 0.464844 532.112C0.464844 533.928 1.94696 535.405 3.76343 535.405Z" fill="#F7F5F9"/>
<path fill-rule="evenodd" clip-rule="evenodd" d="M36.7466 535.405C38.5681 535.405 40.0452 533.928 40.0452 532.112C40.0452 530.29 38.5681 528.818 36.7466 528.818C34.9351 528.818 33.458 530.29 33.458 532.112C33.458 533.928 34.9351 535.405 36.7466 535.405Z" fill="#F7F5F9"/>
<path fill-rule="evenodd" clip-rule="evenodd" d="M69.7389 535.405C71.5554 535.405 73.0325 533.928 73.0325 532.112C73.0325 530.29 71.5554 528.818 69.7389 528.818C67.9224 528.818 66.4453 530.29 66.4453 532.112C66.4453 533.928 67.9224 535.405 69.7389 535.405Z" fill="#F7F5F9"/>
<path fill-rule="evenodd" clip-rule="evenodd" d="M102.727 535.405C104.544 535.405 106.021 533.928 106.021 532.112C106.021 530.29 104.544 528.818 102.727 528.818C100.916 528.818 99.4336 530.29 99.4336 532.112C99.4336 533.928 100.916 535.405 102.727 535.405Z" fill="#F7F5F9"/>
<path fill-rule="evenodd" clip-rule="evenodd" d="M135.719 535.405C137.531 535.405 139.008 533.928 139.008 532.112C139.008 530.29 137.531 528.818 135.719 528.818C133.903 528.818 132.421 530.29 132.421 532.112C132.421 533.928 133.903 535.405 135.719 535.405Z" fill="#F7F5F9"/>
<path fill-rule="evenodd" clip-rule="evenodd" d="M3.76343 568.387C5.57491 568.387 7.05702 566.915 7.05702 565.094C7.05702 563.282 5.57491 561.8 3.76343 561.8C1.94696 561.8 0.464844 563.282 0.464844 565.094C0.464844 566.915 1.94696 568.387 3.76343 568.387Z" fill="#F7F5F9"/>
<path fill-rule="evenodd" clip-rule="evenodd" d="M36.7466 568.387C38.5681 568.387 40.0452 566.915 40.0452 565.094C40.0452 563.282 38.5681 561.8 36.7466 561.8C34.9351 561.8 33.458 563.282 33.458 565.094C33.458 566.915 34.9351 568.387 36.7466 568.387Z" fill="#F7F5F9"/>
<path fill-rule="evenodd" clip-rule="evenodd" d="M69.7389 568.387C71.5554 568.387 73.0325 566.915 73.0325 565.094C73.0325 563.282 71.5554 561.8 69.7389 561.8C67.9224 561.8 66.4453 563.282 66.4453 565.094C66.4453 566.915 67.9224 568.387 69.7389 568.387Z" fill="#F7F5F9"/>
<path fill-rule="evenodd" clip-rule="evenodd" d="M102.727 568.387C104.544 568.387 106.021 566.915 106.021 565.094C106.021 563.282 104.544 561.8 102.727 561.8C100.916 561.8 99.4336 563.282 99.4336 565.094C99.4336 566.915 100.916 568.387 102.727 568.387Z" fill="#F7F5F9"/>
<path fill-rule="evenodd" clip-rule="evenodd" d="M135.719 568.387C137.531 568.387 139.008 566.915 139.008 565.094C139.008 563.282 137.531 561.8 135.719 561.8C133.903 561.8 132.421 563.282 132.421 565.094C132.421 566.915 133.903 568.387 135.719 568.387Z" fill="#F7F5F9"/>
<path fill-rule="evenodd" clip-rule="evenodd" d="M3.76343 601.381C5.57491 601.381 7.05702 599.909 7.05702 598.087C7.05702 596.266 5.57491 594.793 3.76343 594.793C1.94696 594.793 0.464844 596.266 0.464844 598.087C0.464844 599.909 1.94696 601.381 3.76343 601.381Z" fill="#F7F5F9"/>
<path fill-rule="evenodd" clip-rule="evenodd" d="M36.7466 601.381C38.5681 601.381 40.0452 599.909 40.0452 598.087C40.0452 596.266 38.5681 594.793 36.7466 594.793C34.9351 594.793 33.458 596.266 33.458 598.087C33.458 599.909 34.9351 601.381 36.7466 601.381Z" fill="#F7F5F9"/>
<path fill-rule="evenodd" clip-rule="evenodd" d="M69.7389 601.381C71.5554 601.381 73.0325 599.909 73.0325 598.087C73.0325 596.266 71.5554 594.793 69.7389 594.793C67.9224 594.793 66.4453 596.266 66.4453 598.087C66.4453 599.909 67.9224 601.381 69.7389 601.381Z" fill="#F7F5F9"/>
<path fill-rule="evenodd" clip-rule="evenodd" d="M102.727 601.381C104.544 601.381 106.021 599.909 106.021 598.087C106.021 596.266 104.544 594.793 102.727 594.793C100.916 594.793 99.4336 596.266 99.4336 598.087C99.4336 599.909 100.916 601.381 102.727 601.381Z" fill="#F7F5F9"/>
<path fill-rule="evenodd" clip-rule="evenodd" d="M135.719 601.381C137.531 601.381 139.008 599.909 139.008 598.087C139.008 596.266 137.531 594.793 135.719 594.793C133.903 594.793 132.421 596.266 132.421 598.087C132.421 599.909 133.903 601.381 135.719 601.381Z" fill="#F7F5F9"/>
</svg>
