<svg width="187" height="16" viewBox="0 0 187 16" fill="none" xmlns="http://www.w3.org/2000/svg">
<path fill-rule="evenodd" clip-rule="evenodd" d="M111.972 0.168457H111.978C118.157 0.168457 123.934 2.34922 128.247 6.30652C131.572 9.35559 135.992 11.0323 140.699 11.0323C145.407 11.0323 149.833 9.35559 153.158 6.30652C157.476 2.34922 163.26 0.168457 169.439 0.168457H169.451C175.629 0.168457 181.407 2.34922 185.719 6.30652C186.676 7.1898 186.604 8.55714 185.54 9.35559C184.487 10.149 182.848 10.0892 181.891 9.21087C178.572 6.1618 174.152 4.48506 169.451 4.48506H169.439C164.738 4.48506 160.311 6.1618 156.98 9.21087C152.662 13.1682 146.878 15.3439 140.699 15.3439C134.515 15.3439 128.737 13.1682 124.419 9.21087C121.099 6.1618 116.685 4.48506 111.978 4.48506H111.972C107.265 4.48506 102.839 6.1618 99.5076 9.21087C95.1892 13.1682 89.4115 15.3439 83.227 15.3439H83.221C77.0425 15.3439 71.2588 13.1682 66.9404 9.21087C60.2835 3.11273 48.6741 3.11273 42.0052 9.21087C37.6928 13.1682 31.9031 15.3439 25.7186 15.3439C19.5342 15.3439 13.7445 13.1682 9.42611 9.21087C6.10659 6.1618 1.68057 4.48506 -3.03254 4.48506H-3.03852C-7.74565 4.48506 -12.1717 6.1618 -15.5032 9.21087C-16.4721 10.0892 -18.1049 10.159 -19.1576 9.3506C-20.2103 8.55215 -20.288 7.18481 -19.3251 6.30652C-15.0007 2.34922 -9.21701 0.168457 -3.03852 0.168457H-3.03254C3.15192 0.168457 8.93565 2.34922 13.26 6.30652C16.5795 9.35559 21.0055 11.0323 25.7186 11.0323C30.4318 11.0323 34.8578 9.35559 38.1892 6.30652C46.826 -1.6031 62.1256 -1.6031 70.7624 6.30652C74.0938 9.35559 78.5139 11.0323 83.221 11.0323H83.227C87.9341 11.0323 92.3542 9.35559 95.6916 6.30652C100.01 2.34922 105.788 0.168457 111.972 0.168457Z" fill="#F7F5F9"/>
</svg>
