<svg width="152" height="601" viewBox="0 0 152 601" fill="none" xmlns="http://www.w3.org/2000/svg">
<path fill-rule="evenodd" clip-rule="evenodd" d="M148.236 6.58719C146.425 6.58719 144.942 5.11006 144.942 3.2936C144.942 1.47214 146.425 0 148.236 0C150.053 0 151.535 1.47214 151.535 3.2936C151.535 5.11006 150.053 6.58719 148.236 6.58719Z" fill="#F7F5F9"/>
<path fill-rule="evenodd" clip-rule="evenodd" d="M115.253 6.58719C113.432 6.58719 111.955 5.11006 111.955 3.2936C111.955 1.47214 113.432 0 115.253 0C117.065 0 118.542 1.47214 118.542 3.2936C118.542 5.11006 117.065 6.58719 115.253 6.58719Z" fill="#F7F5F9"/>
<path fill-rule="evenodd" clip-rule="evenodd" d="M82.2611 6.58719C80.4446 6.58719 78.9675 5.11006 78.9675 3.2936C78.9675 1.47214 80.4446 0 82.2611 0C84.0776 0 85.5547 1.47214 85.5547 3.2936C85.5547 5.11006 84.0776 6.58719 82.2611 6.58719Z" fill="#F7F5F9"/>
<path fill-rule="evenodd" clip-rule="evenodd" d="M49.2733 6.58719C47.4568 6.58719 45.9797 5.11006 45.9797 3.2936C45.9797 1.47214 47.4568 0 49.2733 0C51.0848 0 52.5669 1.47214 52.5669 3.2936C52.5669 5.11006 51.0848 6.58719 49.2733 6.58719Z" fill="#F7F5F9"/>
<path fill-rule="evenodd" clip-rule="evenodd" d="M16.2805 6.58719C14.469 6.58719 12.9919 5.11006 12.9919 3.2936C12.9919 1.47214 14.469 0 16.2805 0C18.097 0 19.5791 1.47214 19.5791 3.2936C19.5791 5.11006 18.097 6.58719 16.2805 6.58719Z" fill="#F7F5F9"/>
<path fill-rule="evenodd" clip-rule="evenodd" d="M148.236 39.5701C146.425 39.5701 144.942 38.098 144.942 36.2765C144.942 34.46 146.425 32.9829 148.236 32.9829C150.053 32.9829 151.535 34.46 151.535 36.2765C151.535 38.098 150.053 39.5701 148.236 39.5701Z" fill="#F7F5F9"/>
<path fill-rule="evenodd" clip-rule="evenodd" d="M115.253 39.5701C113.432 39.5701 111.955 38.098 111.955 36.2765C111.955 34.46 113.432 32.9829 115.253 32.9829C117.065 32.9829 118.542 34.46 118.542 36.2765C118.542 38.098 117.065 39.5701 115.253 39.5701Z" fill="#F7F5F9"/>
<path fill-rule="evenodd" clip-rule="evenodd" d="M82.2611 39.5701C80.4446 39.5701 78.9675 38.098 78.9675 36.2765C78.9675 34.46 80.4446 32.9829 82.2611 32.9829C84.0776 32.9829 85.5547 34.46 85.5547 36.2765C85.5547 38.098 84.0776 39.5701 82.2611 39.5701Z" fill="#F7F5F9"/>
<path fill-rule="evenodd" clip-rule="evenodd" d="M49.2733 39.5701C47.4568 39.5701 45.9797 38.098 45.9797 36.2765C45.9797 34.46 47.4568 32.9829 49.2733 32.9829C51.0848 32.9829 52.5669 34.46 52.5669 36.2765C52.5669 38.098 51.0848 39.5701 49.2733 39.5701Z" fill="#F7F5F9"/>
<path fill-rule="evenodd" clip-rule="evenodd" d="M16.2805 39.5701C14.469 39.5701 12.9919 38.098 12.9919 36.2765C12.9919 34.46 14.469 32.9829 16.2805 32.9829C18.097 32.9829 19.5791 34.46 19.5791 36.2765C19.5791 38.098 18.097 39.5701 16.2805 39.5701Z" fill="#F7F5F9"/>
<path fill-rule="evenodd" clip-rule="evenodd" d="M148.236 72.5624C146.425 72.5624 144.942 71.0903 144.942 69.2688C144.942 67.4474 146.425 65.9752 148.236 65.9752C150.053 65.9752 151.535 67.4474 151.535 69.2688C151.535 71.0903 150.053 72.5624 148.236 72.5624Z" fill="#F7F5F9"/>
<path fill-rule="evenodd" clip-rule="evenodd" d="M115.253 72.5624C113.432 72.5624 111.955 71.0903 111.955 69.2688C111.955 67.4474 113.432 65.9752 115.253 65.9752C117.065 65.9752 118.542 67.4474 118.542 69.2688C118.542 71.0903 117.065 72.5624 115.253 72.5624Z" fill="#F7F5F9"/>
<path fill-rule="evenodd" clip-rule="evenodd" d="M82.2611 72.5624C80.4446 72.5624 78.9675 71.0903 78.9675 69.2688C78.9675 67.4474 80.4446 65.9752 82.2611 65.9752C84.0776 65.9752 85.5547 67.4474 85.5547 69.2688C85.5547 71.0903 84.0776 72.5624 82.2611 72.5624Z" fill="#F7F5F9"/>
<path fill-rule="evenodd" clip-rule="evenodd" d="M49.2733 72.5624C47.4568 72.5624 45.9797 71.0903 45.9797 69.2688C45.9797 67.4474 47.4568 65.9752 49.2733 65.9752C51.0848 65.9752 52.5669 67.4474 52.5669 69.2688C52.5669 71.0903 51.0848 72.5624 49.2733 72.5624Z" fill="#F7F5F9"/>
<path fill-rule="evenodd" clip-rule="evenodd" d="M16.2805 72.5624C14.469 72.5624 12.9919 71.0903 12.9919 69.2688C12.9919 67.4474 14.469 65.9752 16.2805 65.9752C18.097 65.9752 19.5791 67.4474 19.5791 69.2688C19.5791 71.0903 18.097 72.5624 16.2805 72.5624Z" fill="#F7F5F9"/>
<path fill-rule="evenodd" clip-rule="evenodd" d="M148.236 105.55C146.425 105.55 144.942 104.073 144.942 102.257C144.942 100.44 146.425 98.968 148.236 98.968C150.053 98.968 151.535 100.44 151.535 102.257C151.535 104.073 150.053 105.55 148.236 105.55Z" fill="#F7F5F9"/>
<path fill-rule="evenodd" clip-rule="evenodd" d="M115.253 105.55C113.432 105.55 111.955 104.073 111.955 102.257C111.955 100.44 113.432 98.968 115.253 98.968C117.065 98.968 118.542 100.44 118.542 102.257C118.542 104.073 117.065 105.55 115.253 105.55Z" fill="#F7F5F9"/>
<path fill-rule="evenodd" clip-rule="evenodd" d="M82.2611 105.55C80.4446 105.55 78.9675 104.073 78.9675 102.257C78.9675 100.44 80.4446 98.968 82.2611 98.968C84.0776 98.968 85.5547 100.44 85.5547 102.257C85.5547 104.073 84.0776 105.55 82.2611 105.55Z" fill="#F7F5F9"/>
<path fill-rule="evenodd" clip-rule="evenodd" d="M49.2733 105.55C47.4568 105.55 45.9797 104.073 45.9797 102.257C45.9797 100.44 47.4568 98.968 49.2733 98.968C51.0848 98.968 52.5669 100.44 52.5669 102.257C52.5669 104.073 51.0848 105.55 49.2733 105.55Z" fill="#F7F5F9"/>
<path fill-rule="evenodd" clip-rule="evenodd" d="M16.2805 105.55C14.469 105.55 12.9919 104.073 12.9919 102.257C12.9919 100.44 14.469 98.968 16.2805 98.968C18.097 98.968 19.5791 100.44 19.5791 102.257C19.5791 104.073 18.097 105.55 16.2805 105.55Z" fill="#F7F5F9"/>
<path fill-rule="evenodd" clip-rule="evenodd" d="M148.236 138.538C146.425 138.538 144.942 137.065 144.942 135.244C144.942 133.428 146.425 131.95 148.236 131.95C150.053 131.95 151.535 133.428 151.535 135.244C151.535 137.065 150.053 138.538 148.236 138.538Z" fill="#F7F5F9"/>
<path fill-rule="evenodd" clip-rule="evenodd" d="M115.253 138.538C113.432 138.538 111.955 137.065 111.955 135.244C111.955 133.428 113.432 131.95 115.253 131.95C117.065 131.95 118.542 133.428 118.542 135.244C118.542 137.065 117.065 138.538 115.253 138.538Z" fill="#F7F5F9"/>
<path fill-rule="evenodd" clip-rule="evenodd" d="M82.2611 138.538C80.4446 138.538 78.9675 137.065 78.9675 135.244C78.9675 133.428 80.4446 131.95 82.2611 131.95C84.0776 131.95 85.5547 133.428 85.5547 135.244C85.5547 137.065 84.0776 138.538 82.2611 138.538Z" fill="#F7F5F9"/>
<path fill-rule="evenodd" clip-rule="evenodd" d="M49.2733 138.538C47.4568 138.538 45.9797 137.065 45.9797 135.244C45.9797 133.428 47.4568 131.95 49.2733 131.95C51.0848 131.95 52.5669 133.428 52.5669 135.244C52.5669 137.065 51.0848 138.538 49.2733 138.538Z" fill="#F7F5F9"/>
<path fill-rule="evenodd" clip-rule="evenodd" d="M16.2805 138.538C14.469 138.538 12.9919 137.065 12.9919 135.244C12.9919 133.428 14.469 131.95 16.2805 131.95C18.097 131.95 19.5791 133.428 19.5791 135.244C19.5791 137.065 18.097 138.538 16.2805 138.538Z" fill="#F7F5F9"/>
<path fill-rule="evenodd" clip-rule="evenodd" d="M148.236 171.53C146.425 171.53 144.942 170.058 144.942 168.236C144.942 166.415 146.425 164.943 148.236 164.943C150.053 164.943 151.535 166.415 151.535 168.236C151.535 170.058 150.053 171.53 148.236 171.53Z" fill="#F7F5F9"/>
<path fill-rule="evenodd" clip-rule="evenodd" d="M115.253 171.53C113.432 171.53 111.955 170.058 111.955 168.236C111.955 166.415 113.432 164.943 115.253 164.943C117.065 164.943 118.542 166.415 118.542 168.236C118.542 170.058 117.065 171.53 115.253 171.53Z" fill="#F7F5F9"/>
<path fill-rule="evenodd" clip-rule="evenodd" d="M82.2611 171.53C80.4446 171.53 78.9675 170.058 78.9675 168.236C78.9675 166.415 80.4446 164.943 82.2611 164.943C84.0776 164.943 85.5547 166.415 85.5547 168.236C85.5547 170.058 84.0776 171.53 82.2611 171.53Z" fill="#F7F5F9"/>
<path fill-rule="evenodd" clip-rule="evenodd" d="M49.2733 171.53C47.4568 171.53 45.9797 170.058 45.9797 168.236C45.9797 166.415 47.4568 164.943 49.2733 164.943C51.0848 164.943 52.5669 166.415 52.5669 168.236C52.5669 170.058 51.0848 171.53 49.2733 171.53Z" fill="#F7F5F9"/>
<path fill-rule="evenodd" clip-rule="evenodd" d="M16.2805 171.53C14.469 171.53 12.9919 170.058 12.9919 168.236C12.9919 166.415 14.469 164.943 16.2805 164.943C18.097 164.943 19.5791 166.415 19.5791 168.236C19.5791 170.058 18.097 171.53 16.2805 171.53Z" fill="#F7F5F9"/>
<path fill-rule="evenodd" clip-rule="evenodd" d="M148.236 204.518C146.425 204.518 144.942 203.041 144.942 201.224C144.942 199.408 146.425 197.931 148.236 197.931C150.053 197.931 151.535 199.408 151.535 201.224C151.535 203.041 150.053 204.518 148.236 204.518Z" fill="#F7F5F9"/>
<path fill-rule="evenodd" clip-rule="evenodd" d="M115.253 204.518C113.432 204.518 111.955 203.041 111.955 201.224C111.955 199.408 113.432 197.931 115.253 197.931C117.065 197.931 118.542 199.408 118.542 201.224C118.542 203.041 117.065 204.518 115.253 204.518Z" fill="#F7F5F9"/>
<path fill-rule="evenodd" clip-rule="evenodd" d="M82.2611 204.518C80.4446 204.518 78.9675 203.041 78.9675 201.224C78.9675 199.408 80.4446 197.931 82.2611 197.931C84.0776 197.931 85.5547 199.408 85.5547 201.224C85.5547 203.041 84.0776 204.518 82.2611 204.518Z" fill="#F7F5F9"/>
<path fill-rule="evenodd" clip-rule="evenodd" d="M49.2733 204.518C47.4568 204.518 45.9797 203.041 45.9797 201.224C45.9797 199.408 47.4568 197.931 49.2733 197.931C51.0848 197.931 52.5669 199.408 52.5669 201.224C52.5669 203.041 51.0848 204.518 49.2733 204.518Z" fill="#F7F5F9"/>
<path fill-rule="evenodd" clip-rule="evenodd" d="M16.2805 204.518C14.469 204.518 12.9919 203.041 12.9919 201.224C12.9919 199.408 14.469 197.931 16.2805 197.931C18.097 197.931 19.5791 199.408 19.5791 201.224C19.5791 203.041 18.097 204.518 16.2805 204.518Z" fill="#F7F5F9"/>
<path fill-rule="evenodd" clip-rule="evenodd" d="M148.236 237.505C146.425 237.505 144.942 236.033 144.942 234.211C144.942 232.39 146.425 230.918 148.236 230.918C150.053 230.918 151.535 232.39 151.535 234.211C151.535 236.033 150.053 237.505 148.236 237.505Z" fill="#F7F5F9"/>
<path fill-rule="evenodd" clip-rule="evenodd" d="M115.253 237.505C113.432 237.505 111.955 236.033 111.955 234.211C111.955 232.39 113.432 230.918 115.253 230.918C117.065 230.918 118.542 232.39 118.542 234.211C118.542 236.033 117.065 237.505 115.253 237.505Z" fill="#F7F5F9"/>
<path fill-rule="evenodd" clip-rule="evenodd" d="M82.2611 237.505C80.4446 237.505 78.9675 236.033 78.9675 234.211C78.9675 232.39 80.4446 230.918 82.2611 230.918C84.0776 230.918 85.5547 232.39 85.5547 234.211C85.5547 236.033 84.0776 237.505 82.2611 237.505Z" fill="#F7F5F9"/>
<path fill-rule="evenodd" clip-rule="evenodd" d="M49.2733 237.505C47.4568 237.505 45.9797 236.033 45.9797 234.211C45.9797 232.39 47.4568 230.918 49.2733 230.918C51.0848 230.918 52.5669 232.39 52.5669 234.211C52.5669 236.033 51.0848 237.505 49.2733 237.505Z" fill="#F7F5F9"/>
<path fill-rule="evenodd" clip-rule="evenodd" d="M16.2805 237.505C14.469 237.505 12.9919 236.033 12.9919 234.211C12.9919 232.39 14.469 230.918 16.2805 230.918C18.097 230.918 19.5791 232.39 19.5791 234.211C19.5791 236.033 18.097 237.505 16.2805 237.505Z" fill="#F7F5F9"/>
<path fill-rule="evenodd" clip-rule="evenodd" d="M148.236 270.498C146.425 270.498 144.942 269.021 144.942 267.204C144.942 265.383 146.425 263.911 148.236 263.911C150.053 263.911 151.535 265.383 151.535 267.204C151.535 269.021 150.053 270.498 148.236 270.498Z" fill="#F7F5F9"/>
<path fill-rule="evenodd" clip-rule="evenodd" d="M115.253 270.498C113.432 270.498 111.955 269.021 111.955 267.204C111.955 265.383 113.432 263.911 115.253 263.911C117.065 263.911 118.542 265.383 118.542 267.204C118.542 269.021 117.065 270.498 115.253 270.498Z" fill="#F7F5F9"/>
<path fill-rule="evenodd" clip-rule="evenodd" d="M82.2611 270.498C80.4446 270.498 78.9675 269.021 78.9675 267.204C78.9675 265.383 80.4446 263.911 82.2611 263.911C84.0776 263.911 85.5547 265.383 85.5547 267.204C85.5547 269.021 84.0776 270.498 82.2611 270.498Z" fill="#F7F5F9"/>
<path fill-rule="evenodd" clip-rule="evenodd" d="M49.2733 270.498C47.4568 270.498 45.9797 269.021 45.9797 267.204C45.9797 265.383 47.4568 263.911 49.2733 263.911C51.0848 263.911 52.5669 265.383 52.5669 267.204C52.5669 269.021 51.0848 270.498 49.2733 270.498Z" fill="#F7F5F9"/>
<path fill-rule="evenodd" clip-rule="evenodd" d="M16.2805 270.498C14.469 270.498 12.9919 269.021 12.9919 267.204C12.9919 265.383 14.469 263.911 16.2805 263.911C18.097 263.911 19.5791 265.383 19.5791 267.204C19.5791 269.021 18.097 270.498 16.2805 270.498Z" fill="#F7F5F9"/>
<path fill-rule="evenodd" clip-rule="evenodd" d="M148.236 303.481C146.425 303.481 144.942 302.009 144.942 300.187C144.942 298.376 146.425 296.894 148.236 296.894C150.053 296.894 151.535 298.376 151.535 300.187C151.535 302.009 150.053 303.481 148.236 303.481Z" fill="#F7F5F9"/>
<path fill-rule="evenodd" clip-rule="evenodd" d="M115.253 303.481C113.432 303.481 111.955 302.009 111.955 300.187C111.955 298.376 113.432 296.894 115.253 296.894C117.065 296.894 118.542 298.376 118.542 300.187C118.542 302.009 117.065 303.481 115.253 303.481Z" fill="#F7F5F9"/>
<path fill-rule="evenodd" clip-rule="evenodd" d="M82.2611 303.481C80.4446 303.481 78.9675 302.009 78.9675 300.187C78.9675 298.376 80.4446 296.894 82.2611 296.894C84.0776 296.894 85.5547 298.376 85.5547 300.187C85.5547 302.009 84.0776 303.481 82.2611 303.481Z" fill="#F7F5F9"/>
<path fill-rule="evenodd" clip-rule="evenodd" d="M49.2733 303.481C47.4568 303.481 45.9797 302.009 45.9797 300.187C45.9797 298.376 47.4568 296.894 49.2733 296.894C51.0848 296.894 52.5669 298.376 52.5669 300.187C52.5669 302.009 51.0848 303.481 49.2733 303.481Z" fill="#F7F5F9"/>
<path fill-rule="evenodd" clip-rule="evenodd" d="M16.2805 303.481C14.469 303.481 12.9919 302.009 12.9919 300.187C12.9919 298.376 14.469 296.894 16.2805 296.894C18.097 296.894 19.5791 298.376 19.5791 300.187C19.5791 302.009 18.097 303.481 16.2805 303.481Z" fill="#F7F5F9"/>
<path fill-rule="evenodd" clip-rule="evenodd" d="M148.236 336.473C146.425 336.473 144.942 335.001 144.942 333.18C144.942 331.358 146.425 329.886 148.236 329.886C150.053 329.886 151.535 331.358 151.535 333.18C151.535 335.001 150.053 336.473 148.236 336.473Z" fill="#F7F5F9"/>
<path fill-rule="evenodd" clip-rule="evenodd" d="M115.253 336.473C113.432 336.473 111.955 335.001 111.955 333.18C111.955 331.358 113.432 329.886 115.253 329.886C117.065 329.886 118.542 331.358 118.542 333.18C118.542 335.001 117.065 336.473 115.253 336.473Z" fill="#F7F5F9"/>
<path fill-rule="evenodd" clip-rule="evenodd" d="M82.2611 336.473C80.4446 336.473 78.9675 335.001 78.9675 333.18C78.9675 331.358 80.4446 329.886 82.2611 329.886C84.0776 329.886 85.5547 331.358 85.5547 333.18C85.5547 335.001 84.0776 336.473 82.2611 336.473Z" fill="#F7F5F9"/>
<path fill-rule="evenodd" clip-rule="evenodd" d="M49.2733 336.473C47.4568 336.473 45.9797 335.001 45.9797 333.18C45.9797 331.358 47.4568 329.886 49.2733 329.886C51.0848 329.886 52.5669 331.358 52.5669 333.18C52.5669 335.001 51.0848 336.473 49.2733 336.473Z" fill="#F7F5F9"/>
<path fill-rule="evenodd" clip-rule="evenodd" d="M16.2805 336.473C14.469 336.473 12.9919 335.001 12.9919 333.18C12.9919 331.358 14.469 329.886 16.2805 329.886C18.097 329.886 19.5791 331.358 19.5791 333.18C19.5791 335.001 18.097 336.473 16.2805 336.473Z" fill="#F7F5F9"/>
<path fill-rule="evenodd" clip-rule="evenodd" d="M148.236 369.46C146.425 369.46 144.942 367.983 144.942 366.172C144.942 364.35 146.425 362.878 148.236 362.878C150.053 362.878 151.535 364.35 151.535 366.172C151.535 367.983 150.053 369.46 148.236 369.46Z" fill="#F7F5F9"/>
<path fill-rule="evenodd" clip-rule="evenodd" d="M115.253 369.46C113.432 369.46 111.955 367.983 111.955 366.172C111.955 364.35 113.432 362.878 115.253 362.878C117.065 362.878 118.542 364.35 118.542 366.172C118.542 367.983 117.065 369.46 115.253 369.46Z" fill="#F7F5F9"/>
<path fill-rule="evenodd" clip-rule="evenodd" d="M82.2611 369.46C80.4446 369.46 78.9675 367.983 78.9675 366.172C78.9675 364.35 80.4446 362.878 82.2611 362.878C84.0776 362.878 85.5547 364.35 85.5547 366.172C85.5547 367.983 84.0776 369.46 82.2611 369.46Z" fill="#F7F5F9"/>
<path fill-rule="evenodd" clip-rule="evenodd" d="M49.2733 369.46C47.4568 369.46 45.9797 367.983 45.9797 366.172C45.9797 364.35 47.4568 362.878 49.2733 362.878C51.0848 362.878 52.5669 364.35 52.5669 366.172C52.5669 367.983 51.0848 369.46 49.2733 369.46Z" fill="#F7F5F9"/>
<path fill-rule="evenodd" clip-rule="evenodd" d="M16.2805 369.46C14.469 369.46 12.9919 367.983 12.9919 366.172C12.9919 364.35 14.469 362.878 16.2805 362.878C18.097 362.878 19.5791 364.35 19.5791 366.172C19.5791 367.983 18.097 369.46 16.2805 369.46Z" fill="#F7F5F9"/>
<path fill-rule="evenodd" clip-rule="evenodd" d="M148.236 402.448C146.425 402.448 144.942 400.976 144.942 399.155C144.942 397.338 146.425 395.861 148.236 395.861C150.053 395.861 151.535 397.338 151.535 399.155C151.535 400.976 150.053 402.448 148.236 402.448Z" fill="#F7F5F9"/>
<path fill-rule="evenodd" clip-rule="evenodd" d="M115.253 402.448C113.432 402.448 111.955 400.976 111.955 399.155C111.955 397.338 113.432 395.861 115.253 395.861C117.065 395.861 118.542 397.338 118.542 399.155C118.542 400.976 117.065 402.448 115.253 402.448Z" fill="#F7F5F9"/>
<path fill-rule="evenodd" clip-rule="evenodd" d="M82.2611 402.448C80.4446 402.448 78.9675 400.976 78.9675 399.155C78.9675 397.338 80.4446 395.861 82.2611 395.861C84.0776 395.861 85.5547 397.338 85.5547 399.155C85.5547 400.976 84.0776 402.448 82.2611 402.448Z" fill="#F7F5F9"/>
<path fill-rule="evenodd" clip-rule="evenodd" d="M49.2733 402.448C47.4568 402.448 45.9797 400.976 45.9797 399.155C45.9797 397.338 47.4568 395.861 49.2733 395.861C51.0848 395.861 52.5669 397.338 52.5669 399.155C52.5669 400.976 51.0848 402.448 49.2733 402.448Z" fill="#F7F5F9"/>
<path fill-rule="evenodd" clip-rule="evenodd" d="M16.2805 402.448C14.469 402.448 12.9919 400.976 12.9919 399.155C12.9919 397.338 14.469 395.861 16.2805 395.861C18.097 395.861 19.5791 397.338 19.5791 399.155C19.5791 400.976 18.097 402.448 16.2805 402.448Z" fill="#F7F5F9"/>
<path fill-rule="evenodd" clip-rule="evenodd" d="M148.236 435.441C146.425 435.441 144.942 433.969 144.942 432.147C144.942 430.326 146.425 428.854 148.236 428.854C150.053 428.854 151.535 430.326 151.535 432.147C151.535 433.969 150.053 435.441 148.236 435.441Z" fill="#F7F5F9"/>
<path fill-rule="evenodd" clip-rule="evenodd" d="M115.253 435.441C113.432 435.441 111.955 433.969 111.955 432.147C111.955 430.326 113.432 428.854 115.253 428.854C117.065 428.854 118.542 430.326 118.542 432.147C118.542 433.969 117.065 435.441 115.253 435.441Z" fill="#F7F5F9"/>
<path fill-rule="evenodd" clip-rule="evenodd" d="M82.2611 435.441C80.4446 435.441 78.9675 433.969 78.9675 432.147C78.9675 430.326 80.4446 428.854 82.2611 428.854C84.0776 428.854 85.5547 430.326 85.5547 432.147C85.5547 433.969 84.0776 435.441 82.2611 435.441Z" fill="#F7F5F9"/>
<path fill-rule="evenodd" clip-rule="evenodd" d="M49.2733 435.441C47.4568 435.441 45.9797 433.969 45.9797 432.147C45.9797 430.326 47.4568 428.854 49.2733 428.854C51.0848 428.854 52.5669 430.326 52.5669 432.147C52.5669 433.969 51.0848 435.441 49.2733 435.441Z" fill="#F7F5F9"/>
<path fill-rule="evenodd" clip-rule="evenodd" d="M16.2805 435.441C14.469 435.441 12.9919 433.969 12.9919 432.147C12.9919 430.326 14.469 428.854 16.2805 428.854C18.097 428.854 19.5791 430.326 19.5791 432.147C19.5791 433.969 18.097 435.441 16.2805 435.441Z" fill="#F7F5F9"/>
<path fill-rule="evenodd" clip-rule="evenodd" d="M148.236 468.428C146.425 468.428 144.942 466.951 144.942 465.135C144.942 463.318 146.425 461.841 148.236 461.841C150.053 461.841 151.535 463.318 151.535 465.135C151.535 466.951 150.053 468.428 148.236 468.428Z" fill="#F7F5F9"/>
<path fill-rule="evenodd" clip-rule="evenodd" d="M115.253 468.428C113.432 468.428 111.955 466.951 111.955 465.135C111.955 463.318 113.432 461.841 115.253 461.841C117.065 461.841 118.542 463.318 118.542 465.135C118.542 466.951 117.065 468.428 115.253 468.428Z" fill="#F7F5F9"/>
<path fill-rule="evenodd" clip-rule="evenodd" d="M82.2611 468.428C80.4446 468.428 78.9675 466.951 78.9675 465.135C78.9675 463.318 80.4446 461.841 82.2611 461.841C84.0776 461.841 85.5547 463.318 85.5547 465.135C85.5547 466.951 84.0776 468.428 82.2611 468.428Z" fill="#F7F5F9"/>
<path fill-rule="evenodd" clip-rule="evenodd" d="M49.2733 468.428C47.4568 468.428 45.9797 466.951 45.9797 465.135C45.9797 463.318 47.4568 461.841 49.2733 461.841C51.0848 461.841 52.5669 463.318 52.5669 465.135C52.5669 466.951 51.0848 468.428 49.2733 468.428Z" fill="#F7F5F9"/>
<path fill-rule="evenodd" clip-rule="evenodd" d="M16.2805 468.428C14.469 468.428 12.9919 466.951 12.9919 465.135C12.9919 463.318 14.469 461.841 16.2805 461.841C18.097 461.841 19.5791 463.318 19.5791 465.135C19.5791 466.951 18.097 468.428 16.2805 468.428Z" fill="#F7F5F9"/>
<path fill-rule="evenodd" clip-rule="evenodd" d="M148.236 501.416C146.425 501.416 144.942 499.944 144.942 498.122C144.942 496.301 146.425 494.829 148.236 494.829C150.053 494.829 151.535 496.301 151.535 498.122C151.535 499.944 150.053 501.416 148.236 501.416Z" fill="#F7F5F9"/>
<path fill-rule="evenodd" clip-rule="evenodd" d="M115.253 501.416C113.432 501.416 111.955 499.944 111.955 498.122C111.955 496.301 113.432 494.829 115.253 494.829C117.065 494.829 118.542 496.301 118.542 498.122C118.542 499.944 117.065 501.416 115.253 501.416Z" fill="#F7F5F9"/>
<path fill-rule="evenodd" clip-rule="evenodd" d="M82.2611 501.416C80.4446 501.416 78.9675 499.944 78.9675 498.122C78.9675 496.301 80.4446 494.829 82.2611 494.829C84.0776 494.829 85.5547 496.301 85.5547 498.122C85.5547 499.944 84.0776 501.416 82.2611 501.416Z" fill="#F7F5F9"/>
<path fill-rule="evenodd" clip-rule="evenodd" d="M49.2733 501.416C47.4568 501.416 45.9797 499.944 45.9797 498.122C45.9797 496.301 47.4568 494.829 49.2733 494.829C51.0848 494.829 52.5669 496.301 52.5669 498.122C52.5669 499.944 51.0848 501.416 49.2733 501.416Z" fill="#F7F5F9"/>
<path fill-rule="evenodd" clip-rule="evenodd" d="M16.2805 501.416C14.469 501.416 12.9919 499.944 12.9919 498.122C12.9919 496.301 14.469 494.829 16.2805 494.829C18.097 494.829 19.5791 496.301 19.5791 498.122C19.5791 499.944 18.097 501.416 16.2805 501.416Z" fill="#F7F5F9"/>
<path fill-rule="evenodd" clip-rule="evenodd" d="M148.236 534.409C146.425 534.409 144.942 532.932 144.942 531.115C144.942 529.294 146.425 527.822 148.236 527.822C150.053 527.822 151.535 529.294 151.535 531.115C151.535 532.932 150.053 534.409 148.236 534.409Z" fill="#F7F5F9"/>
<path fill-rule="evenodd" clip-rule="evenodd" d="M115.253 534.409C113.432 534.409 111.955 532.932 111.955 531.115C111.955 529.294 113.432 527.822 115.253 527.822C117.065 527.822 118.542 529.294 118.542 531.115C118.542 532.932 117.065 534.409 115.253 534.409Z" fill="#F7F5F9"/>
<path fill-rule="evenodd" clip-rule="evenodd" d="M82.2611 534.409C80.4446 534.409 78.9675 532.932 78.9675 531.115C78.9675 529.294 80.4446 527.822 82.2611 527.822C84.0776 527.822 85.5547 529.294 85.5547 531.115C85.5547 532.932 84.0776 534.409 82.2611 534.409Z" fill="#F7F5F9"/>
<path fill-rule="evenodd" clip-rule="evenodd" d="M49.2733 534.409C47.4568 534.409 45.9797 532.932 45.9797 531.115C45.9797 529.294 47.4568 527.822 49.2733 527.822C51.0848 527.822 52.5669 529.294 52.5669 531.115C52.5669 532.932 51.0848 534.409 49.2733 534.409Z" fill="#F7F5F9"/>
<path fill-rule="evenodd" clip-rule="evenodd" d="M16.2805 534.409C14.469 534.409 12.9919 532.932 12.9919 531.115C12.9919 529.294 14.469 527.822 16.2805 527.822C18.097 527.822 19.5791 529.294 19.5791 531.115C19.5791 532.932 18.097 534.409 16.2805 534.409Z" fill="#F7F5F9"/>
<path fill-rule="evenodd" clip-rule="evenodd" d="M148.236 567.391C146.425 567.391 144.942 565.919 144.942 564.097C144.942 562.286 146.425 560.804 148.236 560.804C150.053 560.804 151.535 562.286 151.535 564.097C151.535 565.919 150.053 567.391 148.236 567.391Z" fill="#F7F5F9"/>
<path fill-rule="evenodd" clip-rule="evenodd" d="M115.253 567.391C113.432 567.391 111.955 565.919 111.955 564.097C111.955 562.286 113.432 560.804 115.253 560.804C117.065 560.804 118.542 562.286 118.542 564.097C118.542 565.919 117.065 567.391 115.253 567.391Z" fill="#F7F5F9"/>
<path fill-rule="evenodd" clip-rule="evenodd" d="M82.2611 567.391C80.4446 567.391 78.9675 565.919 78.9675 564.097C78.9675 562.286 80.4446 560.804 82.2611 560.804C84.0776 560.804 85.5547 562.286 85.5547 564.097C85.5547 565.919 84.0776 567.391 82.2611 567.391Z" fill="#F7F5F9"/>
<path fill-rule="evenodd" clip-rule="evenodd" d="M49.2733 567.391C47.4568 567.391 45.9797 565.919 45.9797 564.097C45.9797 562.286 47.4568 560.804 49.2733 560.804C51.0848 560.804 52.5669 562.286 52.5669 564.097C52.5669 565.919 51.0848 567.391 49.2733 567.391Z" fill="#F7F5F9"/>
<path fill-rule="evenodd" clip-rule="evenodd" d="M16.2805 567.391C14.469 567.391 12.9919 565.919 12.9919 564.097C12.9919 562.286 14.469 560.804 16.2805 560.804C18.097 560.804 19.5791 562.286 19.5791 564.097C19.5791 565.919 18.097 567.391 16.2805 567.391Z" fill="#F7F5F9"/>
<path fill-rule="evenodd" clip-rule="evenodd" d="M148.236 600.384C146.425 600.384 144.942 598.912 144.942 597.09C144.942 595.269 146.425 593.797 148.236 593.797C150.053 593.797 151.535 595.269 151.535 597.09C151.535 598.912 150.053 600.384 148.236 600.384Z" fill="#F7F5F9"/>
<path fill-rule="evenodd" clip-rule="evenodd" d="M115.253 600.384C113.432 600.384 111.955 598.912 111.955 597.09C111.955 595.269 113.432 593.797 115.253 593.797C117.065 593.797 118.542 595.269 118.542 597.09C118.542 598.912 117.065 600.384 115.253 600.384Z" fill="#F7F5F9"/>
<path fill-rule="evenodd" clip-rule="evenodd" d="M82.2611 600.384C80.4446 600.384 78.9675 598.912 78.9675 597.09C78.9675 595.269 80.4446 593.797 82.2611 593.797C84.0776 593.797 85.5547 595.269 85.5547 597.09C85.5547 598.912 84.0776 600.384 82.2611 600.384Z" fill="#F7F5F9"/>
<path fill-rule="evenodd" clip-rule="evenodd" d="M49.2733 600.384C47.4568 600.384 45.9797 598.912 45.9797 597.09C45.9797 595.269 47.4568 593.797 49.2733 593.797C51.0848 593.797 52.5669 595.269 52.5669 597.09C52.5669 598.912 51.0848 600.384 49.2733 600.384Z" fill="#F7F5F9"/>
<path fill-rule="evenodd" clip-rule="evenodd" d="M16.2805 600.384C14.469 600.384 12.9919 598.912 12.9919 597.09C12.9919 595.269 14.469 593.797 16.2805 593.797C18.097 593.797 19.5791 595.269 19.5791 597.09C19.5791 598.912 18.097 600.384 16.2805 600.384Z" fill="#F7F5F9"/>
</svg>
