<svg width="165" height="602" viewBox="0 0 165 602" fill="none" xmlns="http://www.w3.org/2000/svg">
<path fill-rule="evenodd" clip-rule="evenodd" d="M168.236 594.794C166.425 594.794 164.943 596.271 164.943 598.087C164.943 599.909 166.425 601.381 168.236 601.381C170.053 601.381 171.535 599.909 171.535 598.087C171.535 596.271 170.053 594.794 168.236 594.794Z" fill="#F7F5F9"/>
<path fill-rule="evenodd" clip-rule="evenodd" d="M135.253 594.794C133.432 594.794 131.955 596.271 131.955 598.087C131.955 599.909 133.432 601.381 135.253 601.381C137.065 601.381 138.542 599.909 138.542 598.087C138.542 596.271 137.065 594.794 135.253 594.794Z" fill="#F7F5F9"/>
<path fill-rule="evenodd" clip-rule="evenodd" d="M102.261 594.794C100.445 594.794 98.9675 596.271 98.9675 598.087C98.9675 599.909 100.445 601.381 102.261 601.381C104.078 601.381 105.555 599.909 105.555 598.087C105.555 596.271 104.078 594.794 102.261 594.794Z" fill="#F7F5F9"/>
<path fill-rule="evenodd" clip-rule="evenodd" d="M69.2733 594.794C67.4568 594.794 65.9797 596.271 65.9797 598.087C65.9797 599.909 67.4568 601.381 69.2733 601.381C71.0848 601.381 72.5669 599.909 72.5669 598.087C72.5669 596.271 71.0848 594.794 69.2733 594.794Z" fill="#F7F5F9"/>
<path fill-rule="evenodd" clip-rule="evenodd" d="M36.281 594.794C34.4695 594.794 32.9924 596.271 32.9924 598.087C32.9924 599.909 34.4695 601.381 36.281 601.381C38.0975 601.381 39.5796 599.909 39.5796 598.087C39.5796 596.271 38.0975 594.794 36.281 594.794Z" fill="#F7F5F9"/>
<path fill-rule="evenodd" clip-rule="evenodd" d="M3.29381 594.794C1.47734 594.794 0.000212193 596.271 0.000212193 598.087C0.000212193 599.909 1.47734 601.381 3.29381 601.381C5.11027 601.381 6.5874 599.909 6.5874 598.087C6.5874 596.271 5.11027 594.794 3.29381 594.794Z" fill="#F7F5F9"/>
<path fill-rule="evenodd" clip-rule="evenodd" d="M168.236 561.811C166.425 561.811 164.943 563.283 164.943 565.104C164.943 566.921 166.425 568.398 168.236 568.398C170.053 568.398 171.535 566.921 171.535 565.104C171.535 563.283 170.053 561.811 168.236 561.811Z" fill="#F7F5F9"/>
<path fill-rule="evenodd" clip-rule="evenodd" d="M135.253 561.811C133.432 561.811 131.955 563.283 131.955 565.104C131.955 566.921 133.432 568.398 135.253 568.398C137.065 568.398 138.542 566.921 138.542 565.104C138.542 563.283 137.065 561.811 135.253 561.811Z" fill="#F7F5F9"/>
<path fill-rule="evenodd" clip-rule="evenodd" d="M102.261 561.811C100.445 561.811 98.9675 563.283 98.9675 565.104C98.9675 566.921 100.445 568.398 102.261 568.398C104.078 568.398 105.555 566.921 105.555 565.104C105.555 563.283 104.078 561.811 102.261 561.811Z" fill="#F7F5F9"/>
<path fill-rule="evenodd" clip-rule="evenodd" d="M69.2733 561.811C67.4568 561.811 65.9797 563.283 65.9797 565.104C65.9797 566.921 67.4568 568.398 69.2733 568.398C71.0848 568.398 72.5669 566.921 72.5669 565.104C72.5669 563.283 71.0848 561.811 69.2733 561.811Z" fill="#F7F5F9"/>
<path fill-rule="evenodd" clip-rule="evenodd" d="M36.281 561.811C34.4695 561.811 32.9924 563.283 32.9924 565.104C32.9924 566.921 34.4695 568.398 36.281 568.398C38.0975 568.398 39.5796 566.921 39.5796 565.104C39.5796 563.283 38.0975 561.811 36.281 561.811Z" fill="#F7F5F9"/>
<path fill-rule="evenodd" clip-rule="evenodd" d="M3.29381 561.811C1.47734 561.811 0.000212193 563.283 0.000212193 565.104C0.000212193 566.921 1.47734 568.398 3.29381 568.398C5.11027 568.398 6.5874 566.921 6.5874 565.104C6.5874 563.283 5.11027 561.811 3.29381 561.811Z" fill="#F7F5F9"/>
<path fill-rule="evenodd" clip-rule="evenodd" d="M168.236 528.819C166.425 528.819 164.943 530.291 164.943 532.112C164.943 533.934 166.425 535.406 168.236 535.406C170.053 535.406 171.535 533.934 171.535 532.112C171.535 530.291 170.053 528.819 168.236 528.819Z" fill="#F7F5F9"/>
<path fill-rule="evenodd" clip-rule="evenodd" d="M135.253 528.819C133.432 528.819 131.955 530.291 131.955 532.112C131.955 533.934 133.432 535.406 135.253 535.406C137.065 535.406 138.542 533.934 138.542 532.112C138.542 530.291 137.065 528.819 135.253 528.819Z" fill="#F7F5F9"/>
<path fill-rule="evenodd" clip-rule="evenodd" d="M102.261 528.819C100.445 528.819 98.9675 530.291 98.9675 532.112C98.9675 533.934 100.445 535.406 102.261 535.406C104.078 535.406 105.555 533.934 105.555 532.112C105.555 530.291 104.078 528.819 102.261 528.819Z" fill="#F7F5F9"/>
<path fill-rule="evenodd" clip-rule="evenodd" d="M69.2733 528.819C67.4568 528.819 65.9797 530.291 65.9797 532.112C65.9797 533.934 67.4568 535.406 69.2733 535.406C71.0848 535.406 72.5669 533.934 72.5669 532.112C72.5669 530.291 71.0848 528.819 69.2733 528.819Z" fill="#F7F5F9"/>
<path fill-rule="evenodd" clip-rule="evenodd" d="M36.281 528.819C34.4695 528.819 32.9924 530.291 32.9924 532.112C32.9924 533.934 34.4695 535.406 36.281 535.406C38.0975 535.406 39.5796 533.934 39.5796 532.112C39.5796 530.291 38.0975 528.819 36.281 528.819Z" fill="#F7F5F9"/>
<path fill-rule="evenodd" clip-rule="evenodd" d="M3.29381 528.819C1.47734 528.819 0.000212193 530.291 0.000212193 532.112C0.000212193 533.934 1.47734 535.406 3.29381 535.406C5.11027 535.406 6.5874 533.934 6.5874 532.112C6.5874 530.291 5.11027 528.819 3.29381 528.819Z" fill="#F7F5F9"/>
<path fill-rule="evenodd" clip-rule="evenodd" d="M168.236 495.831C166.425 495.831 164.943 497.308 164.943 499.124C164.943 500.941 166.425 502.413 168.236 502.413C170.053 502.413 171.535 500.941 171.535 499.124C171.535 497.308 170.053 495.831 168.236 495.831Z" fill="#F7F5F9"/>
<path fill-rule="evenodd" clip-rule="evenodd" d="M135.253 495.831C133.432 495.831 131.955 497.308 131.955 499.124C131.955 500.941 133.432 502.413 135.253 502.413C137.065 502.413 138.542 500.941 138.542 499.124C138.542 497.308 137.065 495.831 135.253 495.831Z" fill="#F7F5F9"/>
<path fill-rule="evenodd" clip-rule="evenodd" d="M102.261 495.831C100.445 495.831 98.9675 497.308 98.9675 499.124C98.9675 500.941 100.445 502.413 102.261 502.413C104.078 502.413 105.555 500.941 105.555 499.124C105.555 497.308 104.078 495.831 102.261 495.831Z" fill="#F7F5F9"/>
<path fill-rule="evenodd" clip-rule="evenodd" d="M69.2733 495.831C67.4568 495.831 65.9797 497.308 65.9797 499.124C65.9797 500.941 67.4568 502.413 69.2733 502.413C71.0848 502.413 72.5669 500.941 72.5669 499.124C72.5669 497.308 71.0848 495.831 69.2733 495.831Z" fill="#F7F5F9"/>
<path fill-rule="evenodd" clip-rule="evenodd" d="M36.281 495.831C34.4695 495.831 32.9924 497.308 32.9924 499.124C32.9924 500.941 34.4695 502.413 36.281 502.413C38.0975 502.413 39.5796 500.941 39.5796 499.124C39.5796 497.308 38.0975 495.831 36.281 495.831Z" fill="#F7F5F9"/>
<path fill-rule="evenodd" clip-rule="evenodd" d="M3.29381 495.831C1.47734 495.831 0.000212193 497.308 0.000212193 499.124C0.000212193 500.941 1.47734 502.413 3.29381 502.413C5.11027 502.413 6.5874 500.941 6.5874 499.124C6.5874 497.308 5.11027 495.831 3.29381 495.831Z" fill="#F7F5F9"/>
<path fill-rule="evenodd" clip-rule="evenodd" d="M168.236 462.843C166.425 462.843 164.943 464.316 164.943 466.137C164.943 467.954 166.425 469.431 168.236 469.431C170.053 469.431 171.535 467.954 171.535 466.137C171.535 464.316 170.053 462.843 168.236 462.843Z" fill="#F7F5F9"/>
<path fill-rule="evenodd" clip-rule="evenodd" d="M135.253 462.843C133.432 462.843 131.955 464.316 131.955 466.137C131.955 467.954 133.432 469.431 135.253 469.431C137.065 469.431 138.542 467.954 138.542 466.137C138.542 464.316 137.065 462.843 135.253 462.843Z" fill="#F7F5F9"/>
<path fill-rule="evenodd" clip-rule="evenodd" d="M102.261 462.843C100.445 462.843 98.9675 464.316 98.9675 466.137C98.9675 467.954 100.445 469.431 102.261 469.431C104.078 469.431 105.555 467.954 105.555 466.137C105.555 464.316 104.078 462.843 102.261 462.843Z" fill="#F7F5F9"/>
<path fill-rule="evenodd" clip-rule="evenodd" d="M69.2733 462.843C67.4568 462.843 65.9797 464.316 65.9797 466.137C65.9797 467.954 67.4568 469.431 69.2733 469.431C71.0848 469.431 72.5669 467.954 72.5669 466.137C72.5669 464.316 71.0848 462.843 69.2733 462.843Z" fill="#F7F5F9"/>
<path fill-rule="evenodd" clip-rule="evenodd" d="M36.281 462.843C34.4695 462.843 32.9924 464.316 32.9924 466.137C32.9924 467.954 34.4695 469.431 36.281 469.431C38.0975 469.431 39.5796 467.954 39.5796 466.137C39.5796 464.316 38.0975 462.843 36.281 462.843Z" fill="#F7F5F9"/>
<path fill-rule="evenodd" clip-rule="evenodd" d="M3.29381 462.843C1.47734 462.843 0.000212193 464.316 0.000212193 466.137C0.000212193 467.954 1.47734 469.431 3.29381 469.431C5.11027 469.431 6.5874 467.954 6.5874 466.137C6.5874 464.316 5.11027 462.843 3.29381 462.843Z" fill="#F7F5F9"/>
<path fill-rule="evenodd" clip-rule="evenodd" d="M168.236 429.851C166.425 429.851 164.943 431.323 164.943 433.144C164.943 434.966 166.425 436.438 168.236 436.438C170.053 436.438 171.535 434.966 171.535 433.144C171.535 431.323 170.053 429.851 168.236 429.851Z" fill="#F7F5F9"/>
<path fill-rule="evenodd" clip-rule="evenodd" d="M135.253 429.851C133.432 429.851 131.955 431.323 131.955 433.144C131.955 434.966 133.432 436.438 135.253 436.438C137.065 436.438 138.542 434.966 138.542 433.144C138.542 431.323 137.065 429.851 135.253 429.851Z" fill="#F7F5F9"/>
<path fill-rule="evenodd" clip-rule="evenodd" d="M102.261 429.851C100.445 429.851 98.9675 431.323 98.9675 433.144C98.9675 434.966 100.445 436.438 102.261 436.438C104.078 436.438 105.555 434.966 105.555 433.144C105.555 431.323 104.078 429.851 102.261 429.851Z" fill="#F7F5F9"/>
<path fill-rule="evenodd" clip-rule="evenodd" d="M69.2733 429.851C67.4568 429.851 65.9797 431.323 65.9797 433.144C65.9797 434.966 67.4568 436.438 69.2733 436.438C71.0848 436.438 72.5669 434.966 72.5669 433.144C72.5669 431.323 71.0848 429.851 69.2733 429.851Z" fill="#F7F5F9"/>
<path fill-rule="evenodd" clip-rule="evenodd" d="M36.281 429.851C34.4695 429.851 32.9924 431.323 32.9924 433.144C32.9924 434.966 34.4695 436.438 36.281 436.438C38.0975 436.438 39.5796 434.966 39.5796 433.144C39.5796 431.323 38.0975 429.851 36.281 429.851Z" fill="#F7F5F9"/>
<path fill-rule="evenodd" clip-rule="evenodd" d="M3.29381 429.851C1.47734 429.851 0.000212193 431.323 0.000212193 433.144C0.000212193 434.966 1.47734 436.438 3.29381 436.438C5.11027 436.438 6.5874 434.966 6.5874 433.144C6.5874 431.323 5.11027 429.851 3.29381 429.851Z" fill="#F7F5F9"/>
<path fill-rule="evenodd" clip-rule="evenodd" d="M168.236 396.863C166.425 396.863 164.943 398.34 164.943 400.157C164.943 401.973 166.425 403.45 168.236 403.45C170.053 403.45 171.535 401.973 171.535 400.157C171.535 398.34 170.053 396.863 168.236 396.863Z" fill="#F7F5F9"/>
<path fill-rule="evenodd" clip-rule="evenodd" d="M135.253 396.863C133.432 396.863 131.955 398.34 131.955 400.157C131.955 401.973 133.432 403.45 135.253 403.45C137.065 403.45 138.542 401.973 138.542 400.157C138.542 398.34 137.065 396.863 135.253 396.863Z" fill="#F7F5F9"/>
<path fill-rule="evenodd" clip-rule="evenodd" d="M102.261 396.863C100.445 396.863 98.9675 398.34 98.9675 400.157C98.9675 401.973 100.445 403.45 102.261 403.45C104.078 403.45 105.555 401.973 105.555 400.157C105.555 398.34 104.078 396.863 102.261 396.863Z" fill="#F7F5F9"/>
<path fill-rule="evenodd" clip-rule="evenodd" d="M69.2733 396.863C67.4568 396.863 65.9797 398.34 65.9797 400.157C65.9797 401.973 67.4568 403.45 69.2733 403.45C71.0848 403.45 72.5669 401.973 72.5669 400.157C72.5669 398.34 71.0848 396.863 69.2733 396.863Z" fill="#F7F5F9"/>
<path fill-rule="evenodd" clip-rule="evenodd" d="M36.281 396.863C34.4695 396.863 32.9924 398.34 32.9924 400.157C32.9924 401.973 34.4695 403.45 36.281 403.45C38.0975 403.45 39.5796 401.973 39.5796 400.157C39.5796 398.34 38.0975 396.863 36.281 396.863Z" fill="#F7F5F9"/>
<path fill-rule="evenodd" clip-rule="evenodd" d="M3.29381 396.863C1.47734 396.863 0.000212193 398.34 0.000212193 400.157C0.000212193 401.973 1.47734 403.45 3.29381 403.45C5.11027 403.45 6.5874 401.973 6.5874 400.157C6.5874 398.34 5.11027 396.863 3.29381 396.863Z" fill="#F7F5F9"/>
<path fill-rule="evenodd" clip-rule="evenodd" d="M168.236 363.876C166.425 363.876 164.943 365.348 164.943 367.169C164.943 368.991 166.425 370.463 168.236 370.463C170.053 370.463 171.535 368.991 171.535 367.169C171.535 365.348 170.053 363.876 168.236 363.876Z" fill="#F7F5F9"/>
<path fill-rule="evenodd" clip-rule="evenodd" d="M135.253 363.876C133.432 363.876 131.955 365.348 131.955 367.169C131.955 368.991 133.432 370.463 135.253 370.463C137.065 370.463 138.542 368.991 138.542 367.169C138.542 365.348 137.065 363.876 135.253 363.876Z" fill="#F7F5F9"/>
<path fill-rule="evenodd" clip-rule="evenodd" d="M102.261 363.876C100.445 363.876 98.9675 365.348 98.9675 367.169C98.9675 368.991 100.445 370.463 102.261 370.463C104.078 370.463 105.555 368.991 105.555 367.169C105.555 365.348 104.078 363.876 102.261 363.876Z" fill="#F7F5F9"/>
<path fill-rule="evenodd" clip-rule="evenodd" d="M69.2733 363.876C67.4568 363.876 65.9797 365.348 65.9797 367.169C65.9797 368.991 67.4568 370.463 69.2733 370.463C71.0848 370.463 72.5669 368.991 72.5669 367.169C72.5669 365.348 71.0848 363.876 69.2733 363.876Z" fill="#F7F5F9"/>
<path fill-rule="evenodd" clip-rule="evenodd" d="M36.281 363.876C34.4695 363.876 32.9924 365.348 32.9924 367.169C32.9924 368.991 34.4695 370.463 36.281 370.463C38.0975 370.463 39.5796 368.991 39.5796 367.169C39.5796 365.348 38.0975 363.876 36.281 363.876Z" fill="#F7F5F9"/>
<path fill-rule="evenodd" clip-rule="evenodd" d="M3.29381 363.876C1.47734 363.876 0.000212193 365.348 0.000212193 367.169C0.000212193 368.991 1.47734 370.463 3.29381 370.463C5.11027 370.463 6.5874 368.991 6.5874 367.169C6.5874 365.348 5.11027 363.876 3.29381 363.876Z" fill="#F7F5F9"/>
<path fill-rule="evenodd" clip-rule="evenodd" d="M168.236 330.883C166.425 330.883 164.943 332.36 164.943 334.177C164.943 335.998 166.425 337.47 168.236 337.47C170.053 337.47 171.535 335.998 171.535 334.177C171.535 332.36 170.053 330.883 168.236 330.883Z" fill="#F7F5F9"/>
<path fill-rule="evenodd" clip-rule="evenodd" d="M135.253 330.883C133.432 330.883 131.955 332.36 131.955 334.177C131.955 335.998 133.432 337.47 135.253 337.47C137.065 337.47 138.542 335.998 138.542 334.177C138.542 332.36 137.065 330.883 135.253 330.883Z" fill="#F7F5F9"/>
<path fill-rule="evenodd" clip-rule="evenodd" d="M102.261 330.883C100.445 330.883 98.9675 332.36 98.9675 334.177C98.9675 335.998 100.445 337.47 102.261 337.47C104.078 337.47 105.555 335.998 105.555 334.177C105.555 332.36 104.078 330.883 102.261 330.883Z" fill="#F7F5F9"/>
<path fill-rule="evenodd" clip-rule="evenodd" d="M69.2733 330.883C67.4568 330.883 65.9797 332.36 65.9797 334.177C65.9797 335.998 67.4568 337.47 69.2733 337.47C71.0848 337.47 72.5669 335.998 72.5669 334.177C72.5669 332.36 71.0848 330.883 69.2733 330.883Z" fill="#F7F5F9"/>
<path fill-rule="evenodd" clip-rule="evenodd" d="M36.281 330.883C34.4695 330.883 32.9924 332.36 32.9924 334.177C32.9924 335.998 34.4695 337.47 36.281 337.47C38.0975 337.47 39.5796 335.998 39.5796 334.177C39.5796 332.36 38.0975 330.883 36.281 330.883Z" fill="#F7F5F9"/>
<path fill-rule="evenodd" clip-rule="evenodd" d="M3.29381 330.883C1.47734 330.883 0.000212193 332.36 0.000212193 334.177C0.000212193 335.998 1.47734 337.47 3.29381 337.47C5.11027 337.47 6.5874 335.998 6.5874 334.177C6.5874 332.36 5.11027 330.883 3.29381 330.883Z" fill="#F7F5F9"/>
<path fill-rule="evenodd" clip-rule="evenodd" d="M168.236 297.9C166.425 297.9 164.943 299.372 164.943 301.194C164.943 303.005 166.425 304.487 168.236 304.487C170.053 304.487 171.535 303.005 171.535 301.194C171.535 299.372 170.053 297.9 168.236 297.9Z" fill="#F7F5F9"/>
<path fill-rule="evenodd" clip-rule="evenodd" d="M135.253 297.9C133.432 297.9 131.955 299.372 131.955 301.194C131.955 303.005 133.432 304.487 135.253 304.487C137.065 304.487 138.542 303.005 138.542 301.194C138.542 299.372 137.065 297.9 135.253 297.9Z" fill="#F7F5F9"/>
<path fill-rule="evenodd" clip-rule="evenodd" d="M102.261 297.9C100.445 297.9 98.9675 299.372 98.9675 301.194C98.9675 303.005 100.445 304.487 102.261 304.487C104.078 304.487 105.555 303.005 105.555 301.194C105.555 299.372 104.078 297.9 102.261 297.9Z" fill="#F7F5F9"/>
<path fill-rule="evenodd" clip-rule="evenodd" d="M69.2733 297.9C67.4568 297.9 65.9797 299.372 65.9797 301.194C65.9797 303.005 67.4568 304.487 69.2733 304.487C71.0848 304.487 72.5669 303.005 72.5669 301.194C72.5669 299.372 71.0848 297.9 69.2733 297.9Z" fill="#F7F5F9"/>
<path fill-rule="evenodd" clip-rule="evenodd" d="M36.281 297.9C34.4695 297.9 32.9924 299.372 32.9924 301.194C32.9924 303.005 34.4695 304.487 36.281 304.487C38.0975 304.487 39.5796 303.005 39.5796 301.194C39.5796 299.372 38.0975 297.9 36.281 297.9Z" fill="#F7F5F9"/>
<path fill-rule="evenodd" clip-rule="evenodd" d="M3.29381 297.9C1.47734 297.9 0.000212193 299.372 0.000212193 301.194C0.000212193 303.005 1.47734 304.487 3.29381 304.487C5.11027 304.487 6.5874 303.005 6.5874 301.194C6.5874 299.372 5.11027 297.9 3.29381 297.9Z" fill="#F7F5F9"/>
<path fill-rule="evenodd" clip-rule="evenodd" d="M168.236 264.908C166.425 264.908 164.943 266.38 164.943 268.201C164.943 270.023 166.425 271.495 168.236 271.495C170.053 271.495 171.535 270.023 171.535 268.201C171.535 266.38 170.053 264.908 168.236 264.908Z" fill="#F7F5F9"/>
<path fill-rule="evenodd" clip-rule="evenodd" d="M135.253 264.908C133.432 264.908 131.955 266.38 131.955 268.201C131.955 270.023 133.432 271.495 135.253 271.495C137.065 271.495 138.542 270.023 138.542 268.201C138.542 266.38 137.065 264.908 135.253 264.908Z" fill="#F7F5F9"/>
<path fill-rule="evenodd" clip-rule="evenodd" d="M102.261 264.908C100.445 264.908 98.9675 266.38 98.9675 268.201C98.9675 270.023 100.445 271.495 102.261 271.495C104.078 271.495 105.555 270.023 105.555 268.201C105.555 266.38 104.078 264.908 102.261 264.908Z" fill="#F7F5F9"/>
<path fill-rule="evenodd" clip-rule="evenodd" d="M69.2733 264.908C67.4568 264.908 65.9797 266.38 65.9797 268.201C65.9797 270.023 67.4568 271.495 69.2733 271.495C71.0848 271.495 72.5669 270.023 72.5669 268.201C72.5669 266.38 71.0848 264.908 69.2733 264.908Z" fill="#F7F5F9"/>
<path fill-rule="evenodd" clip-rule="evenodd" d="M36.281 264.908C34.4695 264.908 32.9924 266.38 32.9924 268.201C32.9924 270.023 34.4695 271.495 36.281 271.495C38.0975 271.495 39.5796 270.023 39.5796 268.201C39.5796 266.38 38.0975 264.908 36.281 264.908Z" fill="#F7F5F9"/>
<path fill-rule="evenodd" clip-rule="evenodd" d="M3.29381 264.908C1.47734 264.908 0.000212193 266.38 0.000212193 268.201C0.000212193 270.023 1.47734 271.495 3.29381 271.495C5.11027 271.495 6.5874 270.023 6.5874 268.201C6.5874 266.38 5.11027 264.908 3.29381 264.908Z" fill="#F7F5F9"/>
<path fill-rule="evenodd" clip-rule="evenodd" d="M168.236 231.92C166.425 231.92 164.943 233.397 164.943 235.209C164.943 237.03 166.425 238.502 168.236 238.502C170.053 238.502 171.535 237.03 171.535 235.209C171.535 233.397 170.053 231.92 168.236 231.92Z" fill="#F7F5F9"/>
<path fill-rule="evenodd" clip-rule="evenodd" d="M135.253 231.92C133.432 231.92 131.955 233.397 131.955 235.209C131.955 237.03 133.432 238.502 135.253 238.502C137.065 238.502 138.542 237.03 138.542 235.209C138.542 233.397 137.065 231.92 135.253 231.92Z" fill="#F7F5F9"/>
<path fill-rule="evenodd" clip-rule="evenodd" d="M102.261 231.92C100.445 231.92 98.9675 233.397 98.9675 235.209C98.9675 237.03 100.445 238.502 102.261 238.502C104.078 238.502 105.555 237.03 105.555 235.209C105.555 233.397 104.078 231.92 102.261 231.92Z" fill="#F7F5F9"/>
<path fill-rule="evenodd" clip-rule="evenodd" d="M69.2733 231.92C67.4568 231.92 65.9797 233.397 65.9797 235.209C65.9797 237.03 67.4568 238.502 69.2733 238.502C71.0848 238.502 72.5669 237.03 72.5669 235.209C72.5669 233.397 71.0848 231.92 69.2733 231.92Z" fill="#F7F5F9"/>
<path fill-rule="evenodd" clip-rule="evenodd" d="M36.281 231.92C34.4695 231.92 32.9924 233.397 32.9924 235.209C32.9924 237.03 34.4695 238.502 36.281 238.502C38.0975 238.502 39.5796 237.03 39.5796 235.209C39.5796 233.397 38.0975 231.92 36.281 231.92Z" fill="#F7F5F9"/>
<path fill-rule="evenodd" clip-rule="evenodd" d="M3.29381 231.92C1.47734 231.92 0.000212193 233.397 0.000212193 235.209C0.000212193 237.03 1.47734 238.502 3.29381 238.502C5.11027 238.502 6.5874 237.03 6.5874 235.209C6.5874 233.397 5.11027 231.92 3.29381 231.92Z" fill="#F7F5F9"/>
<path fill-rule="evenodd" clip-rule="evenodd" d="M168.236 198.932C166.425 198.932 164.943 200.404 164.943 202.226C164.943 204.042 166.425 205.52 168.236 205.52C170.053 205.52 171.535 204.042 171.535 202.226C171.535 200.404 170.053 198.932 168.236 198.932Z" fill="#F7F5F9"/>
<path fill-rule="evenodd" clip-rule="evenodd" d="M135.253 198.932C133.432 198.932 131.955 200.404 131.955 202.226C131.955 204.042 133.432 205.52 135.253 205.52C137.065 205.52 138.542 204.042 138.542 202.226C138.542 200.404 137.065 198.932 135.253 198.932Z" fill="#F7F5F9"/>
<path fill-rule="evenodd" clip-rule="evenodd" d="M102.261 198.932C100.445 198.932 98.9675 200.404 98.9675 202.226C98.9675 204.042 100.445 205.52 102.261 205.52C104.078 205.52 105.555 204.042 105.555 202.226C105.555 200.404 104.078 198.932 102.261 198.932Z" fill="#F7F5F9"/>
<path fill-rule="evenodd" clip-rule="evenodd" d="M69.2733 198.932C67.4568 198.932 65.9797 200.404 65.9797 202.226C65.9797 204.042 67.4568 205.52 69.2733 205.52C71.0848 205.52 72.5669 204.042 72.5669 202.226C72.5669 200.404 71.0848 198.932 69.2733 198.932Z" fill="#F7F5F9"/>
<path fill-rule="evenodd" clip-rule="evenodd" d="M36.281 198.932C34.4695 198.932 32.9924 200.404 32.9924 202.226C32.9924 204.042 34.4695 205.52 36.281 205.52C38.0975 205.52 39.5796 204.042 39.5796 202.226C39.5796 200.404 38.0975 198.932 36.281 198.932Z" fill="#F7F5F9"/>
<path fill-rule="evenodd" clip-rule="evenodd" d="M3.29381 198.932C1.47734 198.932 0.000212193 200.404 0.000212193 202.226C0.000212193 204.042 1.47734 205.52 3.29381 205.52C5.11027 205.52 6.5874 204.042 6.5874 202.226C6.5874 200.404 5.11027 198.932 3.29381 198.932Z" fill="#F7F5F9"/>
<path fill-rule="evenodd" clip-rule="evenodd" d="M168.236 165.94C166.425 165.94 164.943 167.412 164.943 169.234C164.943 171.055 166.425 172.527 168.236 172.527C170.053 172.527 171.535 171.055 171.535 169.234C171.535 167.412 170.053 165.94 168.236 165.94Z" fill="#F7F5F9"/>
<path fill-rule="evenodd" clip-rule="evenodd" d="M135.253 165.94C133.432 165.94 131.955 167.412 131.955 169.234C131.955 171.055 133.432 172.527 135.253 172.527C137.065 172.527 138.542 171.055 138.542 169.234C138.542 167.412 137.065 165.94 135.253 165.94Z" fill="#F7F5F9"/>
<path fill-rule="evenodd" clip-rule="evenodd" d="M102.261 165.94C100.445 165.94 98.9675 167.412 98.9675 169.234C98.9675 171.055 100.445 172.527 102.261 172.527C104.078 172.527 105.555 171.055 105.555 169.234C105.555 167.412 104.078 165.94 102.261 165.94Z" fill="#F7F5F9"/>
<path fill-rule="evenodd" clip-rule="evenodd" d="M69.2733 165.94C67.4568 165.94 65.9797 167.412 65.9797 169.234C65.9797 171.055 67.4568 172.527 69.2733 172.527C71.0848 172.527 72.5669 171.055 72.5669 169.234C72.5669 167.412 71.0848 165.94 69.2733 165.94Z" fill="#F7F5F9"/>
<path fill-rule="evenodd" clip-rule="evenodd" d="M36.281 165.94C34.4695 165.94 32.9924 167.412 32.9924 169.234C32.9924 171.055 34.4695 172.527 36.281 172.527C38.0975 172.527 39.5796 171.055 39.5796 169.234C39.5796 167.412 38.0975 165.94 36.281 165.94Z" fill="#F7F5F9"/>
<path fill-rule="evenodd" clip-rule="evenodd" d="M3.29381 165.94C1.47734 165.94 0.000212193 167.412 0.000212193 169.234C0.000212193 171.055 1.47734 172.527 3.29381 172.527C5.11027 172.527 6.5874 171.055 6.5874 169.234C6.5874 167.412 5.11027 165.94 3.29381 165.94Z" fill="#F7F5F9"/>
<path fill-rule="evenodd" clip-rule="evenodd" d="M168.236 132.952C166.425 132.952 164.943 134.429 164.943 136.246C164.943 138.062 166.425 139.54 168.236 139.54C170.053 139.54 171.535 138.062 171.535 136.246C171.535 134.429 170.053 132.952 168.236 132.952Z" fill="#F7F5F9"/>
<path fill-rule="evenodd" clip-rule="evenodd" d="M135.253 132.952C133.432 132.952 131.955 134.429 131.955 136.246C131.955 138.062 133.432 139.54 135.253 139.54C137.065 139.54 138.542 138.062 138.542 136.246C138.542 134.429 137.065 132.952 135.253 132.952Z" fill="#F7F5F9"/>
<path fill-rule="evenodd" clip-rule="evenodd" d="M102.261 132.952C100.445 132.952 98.9675 134.429 98.9675 136.246C98.9675 138.062 100.445 139.54 102.261 139.54C104.078 139.54 105.555 138.062 105.555 136.246C105.555 134.429 104.078 132.952 102.261 132.952Z" fill="#F7F5F9"/>
<path fill-rule="evenodd" clip-rule="evenodd" d="M69.2733 132.952C67.4568 132.952 65.9797 134.429 65.9797 136.246C65.9797 138.062 67.4568 139.54 69.2733 139.54C71.0848 139.54 72.5669 138.062 72.5669 136.246C72.5669 134.429 71.0848 132.952 69.2733 132.952Z" fill="#F7F5F9"/>
<path fill-rule="evenodd" clip-rule="evenodd" d="M36.281 132.952C34.4695 132.952 32.9924 134.429 32.9924 136.246C32.9924 138.062 34.4695 139.54 36.281 139.54C38.0975 139.54 39.5796 138.062 39.5796 136.246C39.5796 134.429 38.0975 132.952 36.281 132.952Z" fill="#F7F5F9"/>
<path fill-rule="evenodd" clip-rule="evenodd" d="M3.29381 132.952C1.47734 132.952 0.000212193 134.429 0.000212193 136.246C0.000212193 138.062 1.47734 139.54 3.29381 139.54C5.11027 139.54 6.5874 138.062 6.5874 136.246C6.5874 134.429 5.11027 132.952 3.29381 132.952Z" fill="#F7F5F9"/>
<path fill-rule="evenodd" clip-rule="evenodd" d="M168.236 99.9651C166.425 99.9651 164.943 101.437 164.943 103.259C164.943 105.08 166.425 106.552 168.236 106.552C170.053 106.552 171.535 105.08 171.535 103.259C171.535 101.437 170.053 99.9651 168.236 99.9651Z" fill="#F7F5F9"/>
<path fill-rule="evenodd" clip-rule="evenodd" d="M135.253 99.9651C133.432 99.9651 131.955 101.437 131.955 103.259C131.955 105.08 133.432 106.552 135.253 106.552C137.065 106.552 138.542 105.08 138.542 103.259C138.542 101.437 137.065 99.9651 135.253 99.9651Z" fill="#F7F5F9"/>
<path fill-rule="evenodd" clip-rule="evenodd" d="M102.261 99.9651C100.445 99.9651 98.9675 101.437 98.9675 103.259C98.9675 105.08 100.445 106.552 102.261 106.552C104.078 106.552 105.555 105.08 105.555 103.259C105.555 101.437 104.078 99.9651 102.261 99.9651Z" fill="#F7F5F9"/>
<path fill-rule="evenodd" clip-rule="evenodd" d="M69.2733 99.9651C67.4568 99.9651 65.9797 101.437 65.9797 103.259C65.9797 105.08 67.4568 106.552 69.2733 106.552C71.0848 106.552 72.5669 105.08 72.5669 103.259C72.5669 101.437 71.0848 99.9651 69.2733 99.9651Z" fill="#F7F5F9"/>
<path fill-rule="evenodd" clip-rule="evenodd" d="M36.281 99.9651C34.4695 99.9651 32.9924 101.437 32.9924 103.259C32.9924 105.08 34.4695 106.552 36.281 106.552C38.0975 106.552 39.5796 105.08 39.5796 103.259C39.5796 101.437 38.0975 99.9651 36.281 99.9651Z" fill="#F7F5F9"/>
<path fill-rule="evenodd" clip-rule="evenodd" d="M3.29381 99.9651C1.47734 99.9651 0.000212193 101.437 0.000212193 103.259C0.000212193 105.08 1.47734 106.552 3.29381 106.552C5.11027 106.552 6.5874 105.08 6.5874 103.259C6.5874 101.437 5.11027 99.9651 3.29381 99.9651Z" fill="#F7F5F9"/>
<path fill-rule="evenodd" clip-rule="evenodd" d="M168.236 66.9721C166.425 66.9721 164.943 68.4493 164.943 70.2657C164.943 72.0872 166.425 73.5593 168.236 73.5593C170.053 73.5593 171.535 72.0872 171.535 70.2657C171.535 68.4493 170.053 66.9721 168.236 66.9721Z" fill="#F7F5F9"/>
<path fill-rule="evenodd" clip-rule="evenodd" d="M135.253 66.9721C133.432 66.9721 131.955 68.4493 131.955 70.2657C131.955 72.0872 133.432 73.5593 135.253 73.5593C137.065 73.5593 138.542 72.0872 138.542 70.2657C138.542 68.4493 137.065 66.9721 135.253 66.9721Z" fill="#F7F5F9"/>
<path fill-rule="evenodd" clip-rule="evenodd" d="M102.261 66.9721C100.445 66.9721 98.9675 68.4493 98.9675 70.2657C98.9675 72.0872 100.445 73.5593 102.261 73.5593C104.078 73.5593 105.555 72.0872 105.555 70.2657C105.555 68.4493 104.078 66.9721 102.261 66.9721Z" fill="#F7F5F9"/>
<path fill-rule="evenodd" clip-rule="evenodd" d="M69.2733 66.9721C67.4568 66.9721 65.9797 68.4493 65.9797 70.2657C65.9797 72.0872 67.4568 73.5593 69.2733 73.5593C71.0848 73.5593 72.5669 72.0872 72.5669 70.2657C72.5669 68.4493 71.0848 66.9721 69.2733 66.9721Z" fill="#F7F5F9"/>
<path fill-rule="evenodd" clip-rule="evenodd" d="M36.281 66.9721C34.4695 66.9721 32.9924 68.4493 32.9924 70.2657C32.9924 72.0872 34.4695 73.5593 36.281 73.5593C38.0975 73.5593 39.5796 72.0872 39.5796 70.2657C39.5796 68.4493 38.0975 66.9721 36.281 66.9721Z" fill="#F7F5F9"/>
<path fill-rule="evenodd" clip-rule="evenodd" d="M3.29381 66.9721C1.47734 66.9721 0.000212193 68.4493 0.000212193 70.2657C0.000212193 72.0872 1.47734 73.5593 3.29381 73.5593C5.11027 73.5593 6.5874 72.0872 6.5874 70.2657C6.5874 68.4493 5.11027 66.9721 3.29381 66.9721Z" fill="#F7F5F9"/>
<path fill-rule="evenodd" clip-rule="evenodd" d="M168.236 33.99C166.425 33.99 164.943 35.4621 164.943 37.2836C164.943 39.095 166.425 40.5771 168.236 40.5771C170.053 40.5771 171.535 39.095 171.535 37.2836C171.535 35.4621 170.053 33.99 168.236 33.99Z" fill="#F7F5F9"/>
<path fill-rule="evenodd" clip-rule="evenodd" d="M135.253 33.99C133.432 33.99 131.955 35.4621 131.955 37.2836C131.955 39.095 133.432 40.5771 135.253 40.5771C137.065 40.5771 138.542 39.095 138.542 37.2836C138.542 35.4621 137.065 33.99 135.253 33.99Z" fill="#F7F5F9"/>
<path fill-rule="evenodd" clip-rule="evenodd" d="M102.261 33.99C100.445 33.99 98.9675 35.4621 98.9675 37.2836C98.9675 39.095 100.445 40.5771 102.261 40.5771C104.078 40.5771 105.555 39.095 105.555 37.2836C105.555 35.4621 104.078 33.99 102.261 33.99Z" fill="#F7F5F9"/>
<path fill-rule="evenodd" clip-rule="evenodd" d="M69.2733 33.99C67.4568 33.99 65.9797 35.4621 65.9797 37.2836C65.9797 39.095 67.4568 40.5771 69.2733 40.5771C71.0848 40.5771 72.5669 39.095 72.5669 37.2836C72.5669 35.4621 71.0848 33.99 69.2733 33.99Z" fill="#F7F5F9"/>
<path fill-rule="evenodd" clip-rule="evenodd" d="M36.281 33.99C34.4695 33.99 32.9924 35.4621 32.9924 37.2836C32.9924 39.095 34.4695 40.5771 36.281 40.5771C38.0975 40.5771 39.5796 39.095 39.5796 37.2836C39.5796 35.4621 38.0975 33.99 36.281 33.99Z" fill="#F7F5F9"/>
<path fill-rule="evenodd" clip-rule="evenodd" d="M3.29381 33.99C1.47734 33.99 0.000212193 35.4621 0.000212193 37.2836C0.000212193 39.095 1.47734 40.5771 3.29381 40.5771C5.11027 40.5771 6.5874 39.095 6.5874 37.2836C6.5874 35.4621 5.11027 33.99 3.29381 33.99Z" fill="#F7F5F9"/>
<path fill-rule="evenodd" clip-rule="evenodd" d="M168.236 0.996794C166.425 0.996794 164.943 2.46893 164.943 4.29039C164.943 6.11185 166.425 7.58398 168.236 7.58398C170.053 7.58398 171.535 6.11185 171.535 4.29039C171.535 2.46893 170.053 0.996794 168.236 0.996794Z" fill="#F7F5F9"/>
<path fill-rule="evenodd" clip-rule="evenodd" d="M135.253 0.996794C133.432 0.996794 131.955 2.46893 131.955 4.29039C131.955 6.11185 133.432 7.58398 135.253 7.58398C137.065 7.58398 138.542 6.11185 138.542 4.29039C138.542 2.46893 137.065 0.996794 135.253 0.996794Z" fill="#F7F5F9"/>
<path fill-rule="evenodd" clip-rule="evenodd" d="M102.261 0.996794C100.445 0.996794 98.9675 2.46893 98.9675 4.29039C98.9675 6.11185 100.445 7.58398 102.261 7.58398C104.078 7.58398 105.555 6.11185 105.555 4.29039C105.555 2.46893 104.078 0.996794 102.261 0.996794Z" fill="#F7F5F9"/>
<path fill-rule="evenodd" clip-rule="evenodd" d="M69.2733 0.996794C67.4568 0.996794 65.9797 2.46893 65.9797 4.29039C65.9797 6.11185 67.4568 7.58398 69.2733 7.58398C71.0848 7.58398 72.5669 6.11185 72.5669 4.29039C72.5669 2.46893 71.0848 0.996794 69.2733 0.996794Z" fill="#F7F5F9"/>
<path fill-rule="evenodd" clip-rule="evenodd" d="M36.281 0.996794C34.4695 0.996794 32.9924 2.46893 32.9924 4.29039C32.9924 6.11185 34.4695 7.58398 36.281 7.58398C38.0975 7.58398 39.5796 6.11185 39.5796 4.29039C39.5796 2.46893 38.0975 0.996794 36.281 0.996794Z" fill="#F7F5F9"/>
<path fill-rule="evenodd" clip-rule="evenodd" d="M3.29381 0.996794C1.47734 0.996794 0.000212193 2.46893 0.000212193 4.29039C0.000212193 6.11185 1.47734 7.58398 3.29381 7.58398C5.11027 7.58398 6.5874 6.11185 6.5874 4.29039C6.5874 2.46893 5.11027 0.996794 3.29381 0.996794Z" fill="#F7F5F9"/>
</svg>
