<svg width="146" height="887" viewBox="0 0 146 887" fill="none" xmlns="http://www.w3.org/2000/svg">
<path fill-rule="evenodd" clip-rule="evenodd" d="M142.235 6.58719C140.424 6.58719 138.942 5.11006 138.942 3.2936C138.942 1.47214 140.424 0 142.235 0C144.052 0 145.534 1.47214 145.534 3.2936C145.534 5.11006 144.052 6.58719 142.235 6.58719Z" fill="#F7F5F9"/>
<path fill-rule="evenodd" clip-rule="evenodd" d="M109.252 6.58719C107.431 6.58719 105.954 5.11006 105.954 3.2936C105.954 1.47214 107.431 0 109.252 0C111.064 0 112.541 1.47214 112.541 3.2936C112.541 5.11006 111.064 6.58719 109.252 6.58719Z" fill="#F7F5F9"/>
<path fill-rule="evenodd" clip-rule="evenodd" d="M76.2601 6.58719C74.4436 6.58719 72.9665 5.11006 72.9665 3.2936C72.9665 1.47214 74.4436 0 76.2601 0C78.0766 0 79.5537 1.47214 79.5537 3.2936C79.5537 5.11006 78.0766 6.58719 76.2601 6.58719Z" fill="#F7F5F9"/>
<path fill-rule="evenodd" clip-rule="evenodd" d="M43.2723 6.58719C41.4559 6.58719 39.9787 5.11006 39.9787 3.2936C39.9787 1.47214 41.4559 0 43.2723 0C45.0838 0 46.5659 1.47214 46.5659 3.2936C46.5659 5.11006 45.0838 6.58719 43.2723 6.58719Z" fill="#F7F5F9"/>
<path fill-rule="evenodd" clip-rule="evenodd" d="M10.2795 6.58719C8.46806 6.58719 6.99093 5.11006 6.99093 3.2936C6.99093 1.47214 8.46806 0 10.2795 0C12.096 0 13.5781 1.47214 13.5781 3.2936C13.5781 5.11006 12.096 6.58719 10.2795 6.58719Z" fill="#F7F5F9"/>
<path fill-rule="evenodd" clip-rule="evenodd" d="M142.235 39.5701C140.424 39.5701 138.942 38.098 138.942 36.2765C138.942 34.46 140.424 32.9829 142.235 32.9829C144.052 32.9829 145.534 34.46 145.534 36.2765C145.534 38.098 144.052 39.5701 142.235 39.5701Z" fill="#F7F5F9"/>
<path fill-rule="evenodd" clip-rule="evenodd" d="M109.252 39.5701C107.431 39.5701 105.954 38.098 105.954 36.2765C105.954 34.46 107.431 32.9829 109.252 32.9829C111.064 32.9829 112.541 34.46 112.541 36.2765C112.541 38.098 111.064 39.5701 109.252 39.5701Z" fill="#F7F5F9"/>
<path fill-rule="evenodd" clip-rule="evenodd" d="M76.2601 39.5701C74.4436 39.5701 72.9665 38.098 72.9665 36.2765C72.9665 34.46 74.4436 32.9829 76.2601 32.9829C78.0766 32.9829 79.5537 34.46 79.5537 36.2765C79.5537 38.098 78.0766 39.5701 76.2601 39.5701Z" fill="#F7F5F9"/>
<path fill-rule="evenodd" clip-rule="evenodd" d="M43.2723 39.5701C41.4559 39.5701 39.9787 38.098 39.9787 36.2765C39.9787 34.46 41.4559 32.9829 43.2723 32.9829C45.0838 32.9829 46.5659 34.46 46.5659 36.2765C46.5659 38.098 45.0838 39.5701 43.2723 39.5701Z" fill="#F7F5F9"/>
<path fill-rule="evenodd" clip-rule="evenodd" d="M10.2795 39.5701C8.46806 39.5701 6.99093 38.098 6.99093 36.2765C6.99093 34.46 8.46806 32.9829 10.2795 32.9829C12.096 32.9829 13.5781 34.46 13.5781 36.2765C13.5781 38.098 12.096 39.5701 10.2795 39.5701Z" fill="#F7F5F9"/>
<path fill-rule="evenodd" clip-rule="evenodd" d="M142.235 72.5623C140.424 72.5623 138.942 71.0902 138.942 69.2687C138.942 67.4472 140.424 65.9751 142.235 65.9751C144.052 65.9751 145.534 67.4472 145.534 69.2687C145.534 71.0902 144.052 72.5623 142.235 72.5623Z" fill="#F7F5F9"/>
<path fill-rule="evenodd" clip-rule="evenodd" d="M109.252 72.5623C107.431 72.5623 105.954 71.0902 105.954 69.2687C105.954 67.4472 107.431 65.9751 109.252 65.9751C111.064 65.9751 112.541 67.4472 112.541 69.2687C112.541 71.0902 111.064 72.5623 109.252 72.5623Z" fill="#F7F5F9"/>
<path fill-rule="evenodd" clip-rule="evenodd" d="M76.2601 72.5623C74.4436 72.5623 72.9665 71.0902 72.9665 69.2687C72.9665 67.4472 74.4436 65.9751 76.2601 65.9751C78.0766 65.9751 79.5537 67.4472 79.5537 69.2687C79.5537 71.0902 78.0766 72.5623 76.2601 72.5623Z" fill="#F7F5F9"/>
<path fill-rule="evenodd" clip-rule="evenodd" d="M43.2723 72.5623C41.4559 72.5623 39.9787 71.0902 39.9787 69.2687C39.9787 67.4472 41.4559 65.9751 43.2723 65.9751C45.0838 65.9751 46.5659 67.4472 46.5659 69.2687C46.5659 71.0902 45.0838 72.5623 43.2723 72.5623Z" fill="#F7F5F9"/>
<path fill-rule="evenodd" clip-rule="evenodd" d="M10.2795 72.5623C8.46806 72.5623 6.99093 71.0902 6.99093 69.2687C6.99093 67.4472 8.46806 65.9751 10.2795 65.9751C12.096 65.9751 13.5781 67.4472 13.5781 69.2687C13.5781 71.0902 12.096 72.5623 10.2795 72.5623Z" fill="#F7F5F9"/>
<path fill-rule="evenodd" clip-rule="evenodd" d="M142.235 105.55C140.424 105.55 138.942 104.073 138.942 102.257C138.942 100.44 140.424 98.968 142.235 98.968C144.052 98.968 145.534 100.44 145.534 102.257C145.534 104.073 144.052 105.55 142.235 105.55Z" fill="#F7F5F9"/>
<path fill-rule="evenodd" clip-rule="evenodd" d="M109.252 105.55C107.431 105.55 105.954 104.073 105.954 102.257C105.954 100.44 107.431 98.968 109.252 98.968C111.064 98.968 112.541 100.44 112.541 102.257C112.541 104.073 111.064 105.55 109.252 105.55Z" fill="#F7F5F9"/>
<path fill-rule="evenodd" clip-rule="evenodd" d="M76.2601 105.55C74.4436 105.55 72.9665 104.073 72.9665 102.257C72.9665 100.44 74.4436 98.968 76.2601 98.968C78.0766 98.968 79.5537 100.44 79.5537 102.257C79.5537 104.073 78.0766 105.55 76.2601 105.55Z" fill="#F7F5F9"/>
<path fill-rule="evenodd" clip-rule="evenodd" d="M43.2723 105.55C41.4559 105.55 39.9787 104.073 39.9787 102.257C39.9787 100.44 41.4559 98.968 43.2723 98.968C45.0838 98.968 46.5659 100.44 46.5659 102.257C46.5659 104.073 45.0838 105.55 43.2723 105.55Z" fill="#F7F5F9"/>
<path fill-rule="evenodd" clip-rule="evenodd" d="M10.2795 105.55C8.46806 105.55 6.99093 104.073 6.99093 102.257C6.99093 100.44 8.46806 98.968 10.2795 98.968C12.096 98.968 13.5781 100.44 13.5781 102.257C13.5781 104.073 12.096 105.55 10.2795 105.55Z" fill="#F7F5F9"/>
<path fill-rule="evenodd" clip-rule="evenodd" d="M142.235 138.538C140.424 138.538 138.942 137.065 138.942 135.244C138.942 133.428 140.424 131.95 142.235 131.95C144.052 131.95 145.534 133.428 145.534 135.244C145.534 137.065 144.052 138.538 142.235 138.538Z" fill="#F7F5F9"/>
<path fill-rule="evenodd" clip-rule="evenodd" d="M109.252 138.538C107.431 138.538 105.954 137.065 105.954 135.244C105.954 133.428 107.431 131.95 109.252 131.95C111.064 131.95 112.541 133.428 112.541 135.244C112.541 137.065 111.064 138.538 109.252 138.538Z" fill="#F7F5F9"/>
<path fill-rule="evenodd" clip-rule="evenodd" d="M76.2601 138.538C74.4436 138.538 72.9665 137.065 72.9665 135.244C72.9665 133.428 74.4436 131.95 76.2601 131.95C78.0766 131.95 79.5537 133.428 79.5537 135.244C79.5537 137.065 78.0766 138.538 76.2601 138.538Z" fill="#F7F5F9"/>
<path fill-rule="evenodd" clip-rule="evenodd" d="M43.2723 138.538C41.4559 138.538 39.9787 137.065 39.9787 135.244C39.9787 133.428 41.4559 131.95 43.2723 131.95C45.0838 131.95 46.5659 133.428 46.5659 135.244C46.5659 137.065 45.0838 138.538 43.2723 138.538Z" fill="#F7F5F9"/>
<path fill-rule="evenodd" clip-rule="evenodd" d="M10.2795 138.538C8.46806 138.538 6.99093 137.065 6.99093 135.244C6.99093 133.428 8.46806 131.95 10.2795 131.95C12.096 131.95 13.5781 133.428 13.5781 135.244C13.5781 137.065 12.096 138.538 10.2795 138.538Z" fill="#F7F5F9"/>
<path fill-rule="evenodd" clip-rule="evenodd" d="M142.235 171.53C140.424 171.53 138.942 170.058 138.942 168.236C138.942 166.415 140.424 164.943 142.235 164.943C144.052 164.943 145.534 166.415 145.534 168.236C145.534 170.058 144.052 171.53 142.235 171.53Z" fill="#F7F5F9"/>
<path fill-rule="evenodd" clip-rule="evenodd" d="M109.252 171.53C107.431 171.53 105.954 170.058 105.954 168.236C105.954 166.415 107.431 164.943 109.252 164.943C111.064 164.943 112.541 166.415 112.541 168.236C112.541 170.058 111.064 171.53 109.252 171.53Z" fill="#F7F5F9"/>
<path fill-rule="evenodd" clip-rule="evenodd" d="M76.2601 171.53C74.4436 171.53 72.9665 170.058 72.9665 168.236C72.9665 166.415 74.4436 164.943 76.2601 164.943C78.0766 164.943 79.5537 166.415 79.5537 168.236C79.5537 170.058 78.0766 171.53 76.2601 171.53Z" fill="#F7F5F9"/>
<path fill-rule="evenodd" clip-rule="evenodd" d="M43.2723 171.53C41.4559 171.53 39.9787 170.058 39.9787 168.236C39.9787 166.415 41.4559 164.943 43.2723 164.943C45.0838 164.943 46.5659 166.415 46.5659 168.236C46.5659 170.058 45.0838 171.53 43.2723 171.53Z" fill="#F7F5F9"/>
<path fill-rule="evenodd" clip-rule="evenodd" d="M10.2795 171.53C8.46806 171.53 6.99093 170.058 6.99093 168.236C6.99093 166.415 8.46806 164.943 10.2795 164.943C12.096 164.943 13.5781 166.415 13.5781 168.236C13.5781 170.058 12.096 171.53 10.2795 171.53Z" fill="#F7F5F9"/>
<path fill-rule="evenodd" clip-rule="evenodd" d="M142.235 204.518C140.424 204.518 138.942 203.041 138.942 201.224C138.942 199.408 140.424 197.931 142.235 197.931C144.052 197.931 145.534 199.408 145.534 201.224C145.534 203.041 144.052 204.518 142.235 204.518Z" fill="#F7F5F9"/>
<path fill-rule="evenodd" clip-rule="evenodd" d="M109.252 204.518C107.431 204.518 105.954 203.041 105.954 201.224C105.954 199.408 107.431 197.931 109.252 197.931C111.064 197.931 112.541 199.408 112.541 201.224C112.541 203.041 111.064 204.518 109.252 204.518Z" fill="#F7F5F9"/>
<path fill-rule="evenodd" clip-rule="evenodd" d="M76.2601 204.518C74.4436 204.518 72.9665 203.041 72.9665 201.224C72.9665 199.408 74.4436 197.931 76.2601 197.931C78.0766 197.931 79.5537 199.408 79.5537 201.224C79.5537 203.041 78.0766 204.518 76.2601 204.518Z" fill="#F7F5F9"/>
<path fill-rule="evenodd" clip-rule="evenodd" d="M43.2723 204.518C41.4559 204.518 39.9787 203.041 39.9787 201.224C39.9787 199.408 41.4559 197.931 43.2723 197.931C45.0838 197.931 46.5659 199.408 46.5659 201.224C46.5659 203.041 45.0838 204.518 43.2723 204.518Z" fill="#F7F5F9"/>
<path fill-rule="evenodd" clip-rule="evenodd" d="M10.2795 204.518C8.46806 204.518 6.99093 203.041 6.99093 201.224C6.99093 199.408 8.46806 197.931 10.2795 197.931C12.096 197.931 13.5781 199.408 13.5781 201.224C13.5781 203.041 12.096 204.518 10.2795 204.518Z" fill="#F7F5F9"/>
<path fill-rule="evenodd" clip-rule="evenodd" d="M142.235 237.505C140.424 237.505 138.942 236.033 138.942 234.212C138.942 232.39 140.424 230.918 142.235 230.918C144.052 230.918 145.534 232.39 145.534 234.212C145.534 236.033 144.052 237.505 142.235 237.505Z" fill="#F7F5F9"/>
<path fill-rule="evenodd" clip-rule="evenodd" d="M109.252 237.505C107.431 237.505 105.954 236.033 105.954 234.212C105.954 232.39 107.431 230.918 109.252 230.918C111.064 230.918 112.541 232.39 112.541 234.212C112.541 236.033 111.064 237.505 109.252 237.505Z" fill="#F7F5F9"/>
<path fill-rule="evenodd" clip-rule="evenodd" d="M76.2601 237.505C74.4436 237.505 72.9665 236.033 72.9665 234.212C72.9665 232.39 74.4436 230.918 76.2601 230.918C78.0766 230.918 79.5537 232.39 79.5537 234.212C79.5537 236.033 78.0766 237.505 76.2601 237.505Z" fill="#F7F5F9"/>
<path fill-rule="evenodd" clip-rule="evenodd" d="M43.2723 237.505C41.4559 237.505 39.9787 236.033 39.9787 234.212C39.9787 232.39 41.4559 230.918 43.2723 230.918C45.0838 230.918 46.5659 232.39 46.5659 234.212C46.5659 236.033 45.0838 237.505 43.2723 237.505Z" fill="#F7F5F9"/>
<path fill-rule="evenodd" clip-rule="evenodd" d="M10.2795 237.505C8.46806 237.505 6.99093 236.033 6.99093 234.212C6.99093 232.39 8.46806 230.918 10.2795 230.918C12.096 230.918 13.5781 232.39 13.5781 234.212C13.5781 236.033 12.096 237.505 10.2795 237.505Z" fill="#F7F5F9"/>
<path fill-rule="evenodd" clip-rule="evenodd" d="M142.235 270.498C140.424 270.498 138.942 269.021 138.942 267.204C138.942 265.383 140.424 263.911 142.235 263.911C144.052 263.911 145.534 265.383 145.534 267.204C145.534 269.021 144.052 270.498 142.235 270.498Z" fill="#F7F5F9"/>
<path fill-rule="evenodd" clip-rule="evenodd" d="M109.252 270.498C107.431 270.498 105.954 269.021 105.954 267.204C105.954 265.383 107.431 263.911 109.252 263.911C111.064 263.911 112.541 265.383 112.541 267.204C112.541 269.021 111.064 270.498 109.252 270.498Z" fill="#F7F5F9"/>
<path fill-rule="evenodd" clip-rule="evenodd" d="M76.2601 270.498C74.4436 270.498 72.9665 269.021 72.9665 267.204C72.9665 265.383 74.4436 263.911 76.2601 263.911C78.0766 263.911 79.5537 265.383 79.5537 267.204C79.5537 269.021 78.0766 270.498 76.2601 270.498Z" fill="#F7F5F9"/>
<path fill-rule="evenodd" clip-rule="evenodd" d="M43.2723 270.498C41.4559 270.498 39.9787 269.021 39.9787 267.204C39.9787 265.383 41.4559 263.911 43.2723 263.911C45.0838 263.911 46.5659 265.383 46.5659 267.204C46.5659 269.021 45.0838 270.498 43.2723 270.498Z" fill="#F7F5F9"/>
<path fill-rule="evenodd" clip-rule="evenodd" d="M10.2795 270.498C8.46806 270.498 6.99093 269.021 6.99093 267.204C6.99093 265.383 8.46806 263.911 10.2795 263.911C12.096 263.911 13.5781 265.383 13.5781 267.204C13.5781 269.021 12.096 270.498 10.2795 270.498Z" fill="#F7F5F9"/>
<path fill-rule="evenodd" clip-rule="evenodd" d="M142.235 303.481C140.424 303.481 138.942 302.009 138.942 300.187C138.942 298.376 140.424 296.894 142.235 296.894C144.052 296.894 145.534 298.376 145.534 300.187C145.534 302.009 144.052 303.481 142.235 303.481Z" fill="#F7F5F9"/>
<path fill-rule="evenodd" clip-rule="evenodd" d="M109.252 303.481C107.431 303.481 105.954 302.009 105.954 300.187C105.954 298.376 107.431 296.894 109.252 296.894C111.064 296.894 112.541 298.376 112.541 300.187C112.541 302.009 111.064 303.481 109.252 303.481Z" fill="#F7F5F9"/>
<path fill-rule="evenodd" clip-rule="evenodd" d="M76.2601 303.481C74.4436 303.481 72.9665 302.009 72.9665 300.187C72.9665 298.376 74.4436 296.894 76.2601 296.894C78.0766 296.894 79.5537 298.376 79.5537 300.187C79.5537 302.009 78.0766 303.481 76.2601 303.481Z" fill="#F7F5F9"/>
<path fill-rule="evenodd" clip-rule="evenodd" d="M43.2723 303.481C41.4559 303.481 39.9787 302.009 39.9787 300.187C39.9787 298.376 41.4559 296.894 43.2723 296.894C45.0838 296.894 46.5659 298.376 46.5659 300.187C46.5659 302.009 45.0838 303.481 43.2723 303.481Z" fill="#F7F5F9"/>
<path fill-rule="evenodd" clip-rule="evenodd" d="M10.2795 303.481C8.46806 303.481 6.99093 302.009 6.99093 300.187C6.99093 298.376 8.46806 296.894 10.2795 296.894C12.096 296.894 13.5781 298.376 13.5781 300.187C13.5781 302.009 12.096 303.481 10.2795 303.481Z" fill="#F7F5F9"/>
<path fill-rule="evenodd" clip-rule="evenodd" d="M142.235 336.473C140.424 336.473 138.942 335.001 138.942 333.18C138.942 331.358 140.424 329.886 142.235 329.886C144.052 329.886 145.534 331.358 145.534 333.18C145.534 335.001 144.052 336.473 142.235 336.473Z" fill="#F7F5F9"/>
<path fill-rule="evenodd" clip-rule="evenodd" d="M109.252 336.473C107.431 336.473 105.954 335.001 105.954 333.18C105.954 331.358 107.431 329.886 109.252 329.886C111.064 329.886 112.541 331.358 112.541 333.18C112.541 335.001 111.064 336.473 109.252 336.473Z" fill="#F7F5F9"/>
<path fill-rule="evenodd" clip-rule="evenodd" d="M76.2601 336.473C74.4436 336.473 72.9665 335.001 72.9665 333.18C72.9665 331.358 74.4436 329.886 76.2601 329.886C78.0766 329.886 79.5537 331.358 79.5537 333.18C79.5537 335.001 78.0766 336.473 76.2601 336.473Z" fill="#F7F5F9"/>
<path fill-rule="evenodd" clip-rule="evenodd" d="M43.2723 336.473C41.4559 336.473 39.9787 335.001 39.9787 333.18C39.9787 331.358 41.4559 329.886 43.2723 329.886C45.0838 329.886 46.5659 331.358 46.5659 333.18C46.5659 335.001 45.0838 336.473 43.2723 336.473Z" fill="#F7F5F9"/>
<path fill-rule="evenodd" clip-rule="evenodd" d="M10.2795 336.473C8.46806 336.473 6.99093 335.001 6.99093 333.18C6.99093 331.358 8.46806 329.886 10.2795 329.886C12.096 329.886 13.5781 331.358 13.5781 333.18C13.5781 335.001 12.096 336.473 10.2795 336.473Z" fill="#F7F5F9"/>
<path fill-rule="evenodd" clip-rule="evenodd" d="M142.235 369.461C140.424 369.461 138.942 367.983 138.942 366.172C138.942 364.351 140.424 362.878 142.235 362.878C144.052 362.878 145.534 364.351 145.534 366.172C145.534 367.983 144.052 369.461 142.235 369.461Z" fill="#F7F5F9"/>
<path fill-rule="evenodd" clip-rule="evenodd" d="M109.252 369.461C107.431 369.461 105.954 367.983 105.954 366.172C105.954 364.351 107.431 362.878 109.252 362.878C111.064 362.878 112.541 364.351 112.541 366.172C112.541 367.983 111.064 369.461 109.252 369.461Z" fill="#F7F5F9"/>
<path fill-rule="evenodd" clip-rule="evenodd" d="M76.2601 369.461C74.4436 369.461 72.9665 367.983 72.9665 366.172C72.9665 364.351 74.4436 362.878 76.2601 362.878C78.0766 362.878 79.5537 364.351 79.5537 366.172C79.5537 367.983 78.0766 369.461 76.2601 369.461Z" fill="#F7F5F9"/>
<path fill-rule="evenodd" clip-rule="evenodd" d="M43.2723 369.461C41.4559 369.461 39.9787 367.983 39.9787 366.172C39.9787 364.351 41.4559 362.878 43.2723 362.878C45.0838 362.878 46.5659 364.351 46.5659 366.172C46.5659 367.983 45.0838 369.461 43.2723 369.461Z" fill="#F7F5F9"/>
<path fill-rule="evenodd" clip-rule="evenodd" d="M10.2795 369.461C8.46806 369.461 6.99093 367.983 6.99093 366.172C6.99093 364.351 8.46806 362.878 10.2795 362.878C12.096 362.878 13.5781 364.351 13.5781 366.172C13.5781 367.983 12.096 369.461 10.2795 369.461Z" fill="#F7F5F9"/>
<path fill-rule="evenodd" clip-rule="evenodd" d="M142.235 402.448C140.424 402.448 138.942 400.976 138.942 399.155C138.942 397.338 140.424 395.861 142.235 395.861C144.052 395.861 145.534 397.338 145.534 399.155C145.534 400.976 144.052 402.448 142.235 402.448Z" fill="#F7F5F9"/>
<path fill-rule="evenodd" clip-rule="evenodd" d="M109.252 402.448C107.431 402.448 105.954 400.976 105.954 399.155C105.954 397.338 107.431 395.861 109.252 395.861C111.064 395.861 112.541 397.338 112.541 399.155C112.541 400.976 111.064 402.448 109.252 402.448Z" fill="#F7F5F9"/>
<path fill-rule="evenodd" clip-rule="evenodd" d="M76.2601 402.448C74.4436 402.448 72.9665 400.976 72.9665 399.155C72.9665 397.338 74.4436 395.861 76.2601 395.861C78.0766 395.861 79.5537 397.338 79.5537 399.155C79.5537 400.976 78.0766 402.448 76.2601 402.448Z" fill="#F7F5F9"/>
<path fill-rule="evenodd" clip-rule="evenodd" d="M43.2723 402.448C41.4559 402.448 39.9787 400.976 39.9787 399.155C39.9787 397.338 41.4559 395.861 43.2723 395.861C45.0838 395.861 46.5659 397.338 46.5659 399.155C46.5659 400.976 45.0838 402.448 43.2723 402.448Z" fill="#F7F5F9"/>
<path fill-rule="evenodd" clip-rule="evenodd" d="M10.2795 402.448C8.46806 402.448 6.99093 400.976 6.99093 399.155C6.99093 397.338 8.46806 395.861 10.2795 395.861C12.096 395.861 13.5781 397.338 13.5781 399.155C13.5781 400.976 12.096 402.448 10.2795 402.448Z" fill="#F7F5F9"/>
<path fill-rule="evenodd" clip-rule="evenodd" d="M142.235 435.441C140.424 435.441 138.942 433.969 138.942 432.147C138.942 430.326 140.424 428.854 142.235 428.854C144.052 428.854 145.534 430.326 145.534 432.147C145.534 433.969 144.052 435.441 142.235 435.441Z" fill="#F7F5F9"/>
<path fill-rule="evenodd" clip-rule="evenodd" d="M109.252 435.441C107.431 435.441 105.954 433.969 105.954 432.147C105.954 430.326 107.431 428.854 109.252 428.854C111.064 428.854 112.541 430.326 112.541 432.147C112.541 433.969 111.064 435.441 109.252 435.441Z" fill="#F7F5F9"/>
<path fill-rule="evenodd" clip-rule="evenodd" d="M76.2601 435.441C74.4436 435.441 72.9665 433.969 72.9665 432.147C72.9665 430.326 74.4436 428.854 76.2601 428.854C78.0766 428.854 79.5537 430.326 79.5537 432.147C79.5537 433.969 78.0766 435.441 76.2601 435.441Z" fill="#F7F5F9"/>
<path fill-rule="evenodd" clip-rule="evenodd" d="M43.2723 435.441C41.4559 435.441 39.9787 433.969 39.9787 432.147C39.9787 430.326 41.4559 428.854 43.2723 428.854C45.0838 428.854 46.5659 430.326 46.5659 432.147C46.5659 433.969 45.0838 435.441 43.2723 435.441Z" fill="#F7F5F9"/>
<path fill-rule="evenodd" clip-rule="evenodd" d="M10.2795 435.441C8.46806 435.441 6.99093 433.969 6.99093 432.147C6.99093 430.326 8.46806 428.854 10.2795 428.854C12.096 428.854 13.5781 430.326 13.5781 432.147C13.5781 433.969 12.096 435.441 10.2795 435.441Z" fill="#F7F5F9"/>
<path fill-rule="evenodd" clip-rule="evenodd" d="M142.235 468.428C140.424 468.428 138.942 466.951 138.942 465.135C138.942 463.318 140.424 461.841 142.235 461.841C144.052 461.841 145.534 463.318 145.534 465.135C145.534 466.951 144.052 468.428 142.235 468.428Z" fill="#F7F5F9"/>
<path fill-rule="evenodd" clip-rule="evenodd" d="M109.252 468.428C107.431 468.428 105.954 466.951 105.954 465.135C105.954 463.318 107.431 461.841 109.252 461.841C111.064 461.841 112.541 463.318 112.541 465.135C112.541 466.951 111.064 468.428 109.252 468.428Z" fill="#F7F5F9"/>
<path fill-rule="evenodd" clip-rule="evenodd" d="M76.2601 468.428C74.4436 468.428 72.9665 466.951 72.9665 465.135C72.9665 463.318 74.4436 461.841 76.2601 461.841C78.0766 461.841 79.5537 463.318 79.5537 465.135C79.5537 466.951 78.0766 468.428 76.2601 468.428Z" fill="#F7F5F9"/>
<path fill-rule="evenodd" clip-rule="evenodd" d="M43.2723 468.428C41.4559 468.428 39.9787 466.951 39.9787 465.135C39.9787 463.318 41.4559 461.841 43.2723 461.841C45.0838 461.841 46.5659 463.318 46.5659 465.135C46.5659 466.951 45.0838 468.428 43.2723 468.428Z" fill="#F7F5F9"/>
<path fill-rule="evenodd" clip-rule="evenodd" d="M10.2795 468.428C8.46806 468.428 6.99093 466.951 6.99093 465.135C6.99093 463.318 8.46806 461.841 10.2795 461.841C12.096 461.841 13.5781 463.318 13.5781 465.135C13.5781 466.951 12.096 468.428 10.2795 468.428Z" fill="#F7F5F9"/>
<path fill-rule="evenodd" clip-rule="evenodd" d="M142.235 501.416C140.424 501.416 138.942 499.944 138.942 498.122C138.942 496.301 140.424 494.829 142.235 494.829C144.052 494.829 145.534 496.301 145.534 498.122C145.534 499.944 144.052 501.416 142.235 501.416Z" fill="#F7F5F9"/>
<path fill-rule="evenodd" clip-rule="evenodd" d="M109.252 501.416C107.431 501.416 105.954 499.944 105.954 498.122C105.954 496.301 107.431 494.829 109.252 494.829C111.064 494.829 112.541 496.301 112.541 498.122C112.541 499.944 111.064 501.416 109.252 501.416Z" fill="#F7F5F9"/>
<path fill-rule="evenodd" clip-rule="evenodd" d="M76.2601 501.416C74.4436 501.416 72.9665 499.944 72.9665 498.122C72.9665 496.301 74.4436 494.829 76.2601 494.829C78.0766 494.829 79.5537 496.301 79.5537 498.122C79.5537 499.944 78.0766 501.416 76.2601 501.416Z" fill="#F7F5F9"/>
<path fill-rule="evenodd" clip-rule="evenodd" d="M43.2723 501.416C41.4559 501.416 39.9787 499.944 39.9787 498.122C39.9787 496.301 41.4559 494.829 43.2723 494.829C45.0838 494.829 46.5659 496.301 46.5659 498.122C46.5659 499.944 45.0838 501.416 43.2723 501.416Z" fill="#F7F5F9"/>
<path fill-rule="evenodd" clip-rule="evenodd" d="M10.2795 501.416C8.46806 501.416 6.99093 499.944 6.99093 498.122C6.99093 496.301 8.46806 494.829 10.2795 494.829C12.096 494.829 13.5781 496.301 13.5781 498.122C13.5781 499.944 12.096 501.416 10.2795 501.416Z" fill="#F7F5F9"/>
<path fill-rule="evenodd" clip-rule="evenodd" d="M142.235 534.409C140.424 534.409 138.942 532.932 138.942 531.115C138.942 529.294 140.424 527.822 142.235 527.822C144.052 527.822 145.534 529.294 145.534 531.115C145.534 532.932 144.052 534.409 142.235 534.409Z" fill="#F7F5F9"/>
<path fill-rule="evenodd" clip-rule="evenodd" d="M109.252 534.409C107.431 534.409 105.954 532.932 105.954 531.115C105.954 529.294 107.431 527.822 109.252 527.822C111.064 527.822 112.541 529.294 112.541 531.115C112.541 532.932 111.064 534.409 109.252 534.409Z" fill="#F7F5F9"/>
<path fill-rule="evenodd" clip-rule="evenodd" d="M76.2601 534.409C74.4436 534.409 72.9665 532.932 72.9665 531.115C72.9665 529.294 74.4436 527.822 76.2601 527.822C78.0766 527.822 79.5537 529.294 79.5537 531.115C79.5537 532.932 78.0766 534.409 76.2601 534.409Z" fill="#F7F5F9"/>
<path fill-rule="evenodd" clip-rule="evenodd" d="M43.2723 534.409C41.4559 534.409 39.9787 532.932 39.9787 531.115C39.9787 529.294 41.4559 527.822 43.2723 527.822C45.0838 527.822 46.5659 529.294 46.5659 531.115C46.5659 532.932 45.0838 534.409 43.2723 534.409Z" fill="#F7F5F9"/>
<path fill-rule="evenodd" clip-rule="evenodd" d="M10.2795 534.409C8.46806 534.409 6.99093 532.932 6.99093 531.115C6.99093 529.294 8.46806 527.822 10.2795 527.822C12.096 527.822 13.5781 529.294 13.5781 531.115C13.5781 532.932 12.096 534.409 10.2795 534.409Z" fill="#F7F5F9"/>
<path fill-rule="evenodd" clip-rule="evenodd" d="M142.235 567.391C140.424 567.391 138.942 565.919 138.942 564.097C138.942 562.286 140.424 560.804 142.235 560.804C144.052 560.804 145.534 562.286 145.534 564.097C145.534 565.919 144.052 567.391 142.235 567.391Z" fill="#F7F5F9"/>
<path fill-rule="evenodd" clip-rule="evenodd" d="M109.252 567.391C107.431 567.391 105.954 565.919 105.954 564.097C105.954 562.286 107.431 560.804 109.252 560.804C111.064 560.804 112.541 562.286 112.541 564.097C112.541 565.919 111.064 567.391 109.252 567.391Z" fill="#F7F5F9"/>
<path fill-rule="evenodd" clip-rule="evenodd" d="M76.2601 567.391C74.4436 567.391 72.9665 565.919 72.9665 564.097C72.9665 562.286 74.4436 560.804 76.2601 560.804C78.0766 560.804 79.5537 562.286 79.5537 564.097C79.5537 565.919 78.0766 567.391 76.2601 567.391Z" fill="#F7F5F9"/>
<path fill-rule="evenodd" clip-rule="evenodd" d="M43.2723 567.391C41.4559 567.391 39.9787 565.919 39.9787 564.097C39.9787 562.286 41.4559 560.804 43.2723 560.804C45.0838 560.804 46.5659 562.286 46.5659 564.097C46.5659 565.919 45.0838 567.391 43.2723 567.391Z" fill="#F7F5F9"/>
<path fill-rule="evenodd" clip-rule="evenodd" d="M10.2795 567.391C8.46806 567.391 6.99093 565.919 6.99093 564.097C6.99093 562.286 8.46806 560.804 10.2795 560.804C12.096 560.804 13.5781 562.286 13.5781 564.097C13.5781 565.919 12.096 567.391 10.2795 567.391Z" fill="#F7F5F9"/>
<path fill-rule="evenodd" clip-rule="evenodd" d="M142.235 600.384C140.424 600.384 138.942 598.912 138.942 597.09C138.942 595.269 140.424 593.797 142.235 593.797C144.052 593.797 145.534 595.269 145.534 597.09C145.534 598.912 144.052 600.384 142.235 600.384Z" fill="#F7F5F9"/>
<path fill-rule="evenodd" clip-rule="evenodd" d="M109.252 600.384C107.431 600.384 105.954 598.912 105.954 597.09C105.954 595.269 107.431 593.797 109.252 593.797C111.064 593.797 112.541 595.269 112.541 597.09C112.541 598.912 111.064 600.384 109.252 600.384Z" fill="#F7F5F9"/>
<path fill-rule="evenodd" clip-rule="evenodd" d="M76.2601 600.384C74.4436 600.384 72.9665 598.912 72.9665 597.09C72.9665 595.269 74.4436 593.797 76.2601 593.797C78.0766 593.797 79.5537 595.269 79.5537 597.09C79.5537 598.912 78.0766 600.384 76.2601 600.384Z" fill="#F7F5F9"/>
<path fill-rule="evenodd" clip-rule="evenodd" d="M43.2723 600.384C41.4559 600.384 39.9787 598.912 39.9787 597.09C39.9787 595.269 41.4559 593.797 43.2723 593.797C45.0838 593.797 46.5659 595.269 46.5659 597.09C46.5659 598.912 45.0838 600.384 43.2723 600.384Z" fill="#F7F5F9"/>
<path fill-rule="evenodd" clip-rule="evenodd" d="M10.2795 600.384C8.46806 600.384 6.99093 598.912 6.99093 597.09C6.99093 595.269 8.46806 593.797 10.2795 593.797C12.096 593.797 13.5781 595.269 13.5781 597.09C13.5781 598.912 12.096 600.384 10.2795 600.384Z" fill="#F7F5F9"/>
<path fill-rule="evenodd" clip-rule="evenodd" d="M142.235 292.587C140.424 292.587 138.942 291.11 138.942 289.294C138.942 287.472 140.424 286 142.235 286C144.052 286 145.534 287.472 145.534 289.294C145.534 291.11 144.052 292.587 142.235 292.587Z" fill="#F7F5F9"/>
<path fill-rule="evenodd" clip-rule="evenodd" d="M109.252 292.587C107.431 292.587 105.954 291.11 105.954 289.294C105.954 287.472 107.431 286 109.252 286C111.064 286 112.541 287.472 112.541 289.294C112.541 291.11 111.064 292.587 109.252 292.587Z" fill="#F7F5F9"/>
<path fill-rule="evenodd" clip-rule="evenodd" d="M76.2601 292.587C74.4436 292.587 72.9665 291.11 72.9665 289.294C72.9665 287.472 74.4436 286 76.2601 286C78.0766 286 79.5537 287.472 79.5537 289.294C79.5537 291.11 78.0766 292.587 76.2601 292.587Z" fill="#F7F5F9"/>
<path fill-rule="evenodd" clip-rule="evenodd" d="M43.2723 292.587C41.4559 292.587 39.9787 291.11 39.9787 289.294C39.9787 287.472 41.4559 286 43.2723 286C45.0838 286 46.5659 287.472 46.5659 289.294C46.5659 291.11 45.0838 292.587 43.2723 292.587Z" fill="#F7F5F9"/>
<path fill-rule="evenodd" clip-rule="evenodd" d="M10.2795 292.587C8.46806 292.587 6.99093 291.11 6.99093 289.294C6.99093 287.472 8.46806 286 10.2795 286C12.096 286 13.5781 287.472 13.5781 289.294C13.5781 291.11 12.096 292.587 10.2795 292.587Z" fill="#F7F5F9"/>
<path fill-rule="evenodd" clip-rule="evenodd" d="M142.235 325.57C140.424 325.57 138.942 324.098 138.942 322.277C138.942 320.46 140.424 318.983 142.235 318.983C144.052 318.983 145.534 320.46 145.534 322.277C145.534 324.098 144.052 325.57 142.235 325.57Z" fill="#F7F5F9"/>
<path fill-rule="evenodd" clip-rule="evenodd" d="M109.252 325.57C107.431 325.57 105.954 324.098 105.954 322.277C105.954 320.46 107.431 318.983 109.252 318.983C111.064 318.983 112.541 320.46 112.541 322.277C112.541 324.098 111.064 325.57 109.252 325.57Z" fill="#F7F5F9"/>
<path fill-rule="evenodd" clip-rule="evenodd" d="M76.2601 325.57C74.4436 325.57 72.9665 324.098 72.9665 322.277C72.9665 320.46 74.4436 318.983 76.2601 318.983C78.0766 318.983 79.5537 320.46 79.5537 322.277C79.5537 324.098 78.0766 325.57 76.2601 325.57Z" fill="#F7F5F9"/>
<path fill-rule="evenodd" clip-rule="evenodd" d="M43.2723 325.57C41.4559 325.57 39.9787 324.098 39.9787 322.277C39.9787 320.46 41.4559 318.983 43.2723 318.983C45.0838 318.983 46.5659 320.46 46.5659 322.277C46.5659 324.098 45.0838 325.57 43.2723 325.57Z" fill="#F7F5F9"/>
<path fill-rule="evenodd" clip-rule="evenodd" d="M10.2795 325.57C8.46806 325.57 6.99093 324.098 6.99093 322.277C6.99093 320.46 8.46806 318.983 10.2795 318.983C12.096 318.983 13.5781 320.46 13.5781 322.277C13.5781 324.098 12.096 325.57 10.2795 325.57Z" fill="#F7F5F9"/>
<path fill-rule="evenodd" clip-rule="evenodd" d="M142.235 358.562C140.424 358.562 138.942 357.09 138.942 355.269C138.942 353.447 140.424 351.975 142.235 351.975C144.052 351.975 145.534 353.447 145.534 355.269C145.534 357.09 144.052 358.562 142.235 358.562Z" fill="#F7F5F9"/>
<path fill-rule="evenodd" clip-rule="evenodd" d="M109.252 358.562C107.431 358.562 105.954 357.09 105.954 355.269C105.954 353.447 107.431 351.975 109.252 351.975C111.064 351.975 112.541 353.447 112.541 355.269C112.541 357.09 111.064 358.562 109.252 358.562Z" fill="#F7F5F9"/>
<path fill-rule="evenodd" clip-rule="evenodd" d="M76.2601 358.562C74.4436 358.562 72.9665 357.09 72.9665 355.269C72.9665 353.447 74.4436 351.975 76.2601 351.975C78.0766 351.975 79.5537 353.447 79.5537 355.269C79.5537 357.09 78.0766 358.562 76.2601 358.562Z" fill="#F7F5F9"/>
<path fill-rule="evenodd" clip-rule="evenodd" d="M43.2723 358.562C41.4559 358.562 39.9787 357.09 39.9787 355.269C39.9787 353.447 41.4559 351.975 43.2723 351.975C45.0838 351.975 46.5659 353.447 46.5659 355.269C46.5659 357.09 45.0838 358.562 43.2723 358.562Z" fill="#F7F5F9"/>
<path fill-rule="evenodd" clip-rule="evenodd" d="M10.2795 358.562C8.46806 358.562 6.99093 357.09 6.99093 355.269C6.99093 353.447 8.46806 351.975 10.2795 351.975C12.096 351.975 13.5781 353.447 13.5781 355.269C13.5781 357.09 12.096 358.562 10.2795 358.562Z" fill="#F7F5F9"/>
<path fill-rule="evenodd" clip-rule="evenodd" d="M142.235 391.55C140.424 391.55 138.942 390.073 138.942 388.257C138.942 386.44 140.424 384.968 142.235 384.968C144.052 384.968 145.534 386.44 145.534 388.257C145.534 390.073 144.052 391.55 142.235 391.55Z" fill="#F7F5F9"/>
<path fill-rule="evenodd" clip-rule="evenodd" d="M109.252 391.55C107.431 391.55 105.954 390.073 105.954 388.257C105.954 386.44 107.431 384.968 109.252 384.968C111.064 384.968 112.541 386.44 112.541 388.257C112.541 390.073 111.064 391.55 109.252 391.55Z" fill="#F7F5F9"/>
<path fill-rule="evenodd" clip-rule="evenodd" d="M76.2601 391.55C74.4436 391.55 72.9665 390.073 72.9665 388.257C72.9665 386.44 74.4436 384.968 76.2601 384.968C78.0766 384.968 79.5537 386.44 79.5537 388.257C79.5537 390.073 78.0766 391.55 76.2601 391.55Z" fill="#F7F5F9"/>
<path fill-rule="evenodd" clip-rule="evenodd" d="M43.2723 391.55C41.4559 391.55 39.9787 390.073 39.9787 388.257C39.9787 386.44 41.4559 384.968 43.2723 384.968C45.0838 384.968 46.5659 386.44 46.5659 388.257C46.5659 390.073 45.0838 391.55 43.2723 391.55Z" fill="#F7F5F9"/>
<path fill-rule="evenodd" clip-rule="evenodd" d="M10.2795 391.55C8.46806 391.55 6.99093 390.073 6.99093 388.257C6.99093 386.44 8.46806 384.968 10.2795 384.968C12.096 384.968 13.5781 386.44 13.5781 388.257C13.5781 390.073 12.096 391.55 10.2795 391.55Z" fill="#F7F5F9"/>
<path fill-rule="evenodd" clip-rule="evenodd" d="M142.235 424.538C140.424 424.538 138.942 423.065 138.942 421.244C138.942 419.428 140.424 417.95 142.235 417.95C144.052 417.95 145.534 419.428 145.534 421.244C145.534 423.065 144.052 424.538 142.235 424.538Z" fill="#F7F5F9"/>
<path fill-rule="evenodd" clip-rule="evenodd" d="M109.252 424.538C107.431 424.538 105.954 423.065 105.954 421.244C105.954 419.428 107.431 417.95 109.252 417.95C111.064 417.95 112.541 419.428 112.541 421.244C112.541 423.065 111.064 424.538 109.252 424.538Z" fill="#F7F5F9"/>
<path fill-rule="evenodd" clip-rule="evenodd" d="M76.2601 424.538C74.4436 424.538 72.9665 423.065 72.9665 421.244C72.9665 419.428 74.4436 417.95 76.2601 417.95C78.0766 417.95 79.5537 419.428 79.5537 421.244C79.5537 423.065 78.0766 424.538 76.2601 424.538Z" fill="#F7F5F9"/>
<path fill-rule="evenodd" clip-rule="evenodd" d="M43.2723 424.538C41.4559 424.538 39.9787 423.065 39.9787 421.244C39.9787 419.428 41.4559 417.95 43.2723 417.95C45.0838 417.95 46.5659 419.428 46.5659 421.244C46.5659 423.065 45.0838 424.538 43.2723 424.538Z" fill="#F7F5F9"/>
<path fill-rule="evenodd" clip-rule="evenodd" d="M10.2795 424.538C8.46806 424.538 6.99093 423.065 6.99093 421.244C6.99093 419.428 8.46806 417.95 10.2795 417.95C12.096 417.95 13.5781 419.428 13.5781 421.244C13.5781 423.065 12.096 424.538 10.2795 424.538Z" fill="#F7F5F9"/>
<path fill-rule="evenodd" clip-rule="evenodd" d="M142.235 457.53C140.424 457.53 138.942 456.058 138.942 454.236C138.942 452.415 140.424 450.943 142.235 450.943C144.052 450.943 145.534 452.415 145.534 454.236C145.534 456.058 144.052 457.53 142.235 457.53Z" fill="#F7F5F9"/>
<path fill-rule="evenodd" clip-rule="evenodd" d="M109.252 457.53C107.431 457.53 105.954 456.058 105.954 454.236C105.954 452.415 107.431 450.943 109.252 450.943C111.064 450.943 112.541 452.415 112.541 454.236C112.541 456.058 111.064 457.53 109.252 457.53Z" fill="#F7F5F9"/>
<path fill-rule="evenodd" clip-rule="evenodd" d="M76.2601 457.53C74.4436 457.53 72.9665 456.058 72.9665 454.236C72.9665 452.415 74.4436 450.943 76.2601 450.943C78.0766 450.943 79.5537 452.415 79.5537 454.236C79.5537 456.058 78.0766 457.53 76.2601 457.53Z" fill="#F7F5F9"/>
<path fill-rule="evenodd" clip-rule="evenodd" d="M43.2723 457.53C41.4559 457.53 39.9787 456.058 39.9787 454.236C39.9787 452.415 41.4559 450.943 43.2723 450.943C45.0838 450.943 46.5659 452.415 46.5659 454.236C46.5659 456.058 45.0838 457.53 43.2723 457.53Z" fill="#F7F5F9"/>
<path fill-rule="evenodd" clip-rule="evenodd" d="M10.2795 457.53C8.46806 457.53 6.99093 456.058 6.99093 454.236C6.99093 452.415 8.46806 450.943 10.2795 450.943C12.096 450.943 13.5781 452.415 13.5781 454.236C13.5781 456.058 12.096 457.53 10.2795 457.53Z" fill="#F7F5F9"/>
<path fill-rule="evenodd" clip-rule="evenodd" d="M142.235 490.518C140.424 490.518 138.942 489.041 138.942 487.224C138.942 485.408 140.424 483.931 142.235 483.931C144.052 483.931 145.534 485.408 145.534 487.224C145.534 489.041 144.052 490.518 142.235 490.518Z" fill="#F7F5F9"/>
<path fill-rule="evenodd" clip-rule="evenodd" d="M109.252 490.518C107.431 490.518 105.954 489.041 105.954 487.224C105.954 485.408 107.431 483.931 109.252 483.931C111.064 483.931 112.541 485.408 112.541 487.224C112.541 489.041 111.064 490.518 109.252 490.518Z" fill="#F7F5F9"/>
<path fill-rule="evenodd" clip-rule="evenodd" d="M76.2601 490.518C74.4436 490.518 72.9665 489.041 72.9665 487.224C72.9665 485.408 74.4436 483.931 76.2601 483.931C78.0766 483.931 79.5537 485.408 79.5537 487.224C79.5537 489.041 78.0766 490.518 76.2601 490.518Z" fill="#F7F5F9"/>
<path fill-rule="evenodd" clip-rule="evenodd" d="M43.2723 490.518C41.4559 490.518 39.9787 489.041 39.9787 487.224C39.9787 485.408 41.4559 483.931 43.2723 483.931C45.0838 483.931 46.5659 485.408 46.5659 487.224C46.5659 489.041 45.0838 490.518 43.2723 490.518Z" fill="#F7F5F9"/>
<path fill-rule="evenodd" clip-rule="evenodd" d="M10.2795 490.518C8.46806 490.518 6.99093 489.041 6.99093 487.224C6.99093 485.408 8.46806 483.931 10.2795 483.931C12.096 483.931 13.5781 485.408 13.5781 487.224C13.5781 489.041 12.096 490.518 10.2795 490.518Z" fill="#F7F5F9"/>
<path fill-rule="evenodd" clip-rule="evenodd" d="M142.235 523.505C140.424 523.505 138.942 522.033 138.942 520.212C138.942 518.39 140.424 516.918 142.235 516.918C144.052 516.918 145.534 518.39 145.534 520.212C145.534 522.033 144.052 523.505 142.235 523.505Z" fill="#F7F5F9"/>
<path fill-rule="evenodd" clip-rule="evenodd" d="M109.252 523.505C107.431 523.505 105.954 522.033 105.954 520.212C105.954 518.39 107.431 516.918 109.252 516.918C111.064 516.918 112.541 518.39 112.541 520.212C112.541 522.033 111.064 523.505 109.252 523.505Z" fill="#F7F5F9"/>
<path fill-rule="evenodd" clip-rule="evenodd" d="M76.2601 523.505C74.4436 523.505 72.9665 522.033 72.9665 520.212C72.9665 518.39 74.4436 516.918 76.2601 516.918C78.0766 516.918 79.5537 518.39 79.5537 520.212C79.5537 522.033 78.0766 523.505 76.2601 523.505Z" fill="#F7F5F9"/>
<path fill-rule="evenodd" clip-rule="evenodd" d="M43.2723 523.505C41.4559 523.505 39.9787 522.033 39.9787 520.212C39.9787 518.39 41.4559 516.918 43.2723 516.918C45.0838 516.918 46.5659 518.39 46.5659 520.212C46.5659 522.033 45.0838 523.505 43.2723 523.505Z" fill="#F7F5F9"/>
<path fill-rule="evenodd" clip-rule="evenodd" d="M10.2795 523.505C8.46806 523.505 6.99093 522.033 6.99093 520.212C6.99093 518.39 8.46806 516.918 10.2795 516.918C12.096 516.918 13.5781 518.39 13.5781 520.212C13.5781 522.033 12.096 523.505 10.2795 523.505Z" fill="#F7F5F9"/>
<path fill-rule="evenodd" clip-rule="evenodd" d="M142.235 556.498C140.424 556.498 138.942 555.021 138.942 553.204C138.942 551.383 140.424 549.911 142.235 549.911C144.052 549.911 145.534 551.383 145.534 553.204C145.534 555.021 144.052 556.498 142.235 556.498Z" fill="#F7F5F9"/>
<path fill-rule="evenodd" clip-rule="evenodd" d="M109.252 556.498C107.431 556.498 105.954 555.021 105.954 553.204C105.954 551.383 107.431 549.911 109.252 549.911C111.064 549.911 112.541 551.383 112.541 553.204C112.541 555.021 111.064 556.498 109.252 556.498Z" fill="#F7F5F9"/>
<path fill-rule="evenodd" clip-rule="evenodd" d="M76.2601 556.498C74.4436 556.498 72.9665 555.021 72.9665 553.204C72.9665 551.383 74.4436 549.911 76.2601 549.911C78.0766 549.911 79.5537 551.383 79.5537 553.204C79.5537 555.021 78.0766 556.498 76.2601 556.498Z" fill="#F7F5F9"/>
<path fill-rule="evenodd" clip-rule="evenodd" d="M43.2723 556.498C41.4559 556.498 39.9787 555.021 39.9787 553.204C39.9787 551.383 41.4559 549.911 43.2723 549.911C45.0838 549.911 46.5659 551.383 46.5659 553.204C46.5659 555.021 45.0838 556.498 43.2723 556.498Z" fill="#F7F5F9"/>
<path fill-rule="evenodd" clip-rule="evenodd" d="M10.2795 556.498C8.46806 556.498 6.99093 555.021 6.99093 553.204C6.99093 551.383 8.46806 549.911 10.2795 549.911C12.096 549.911 13.5781 551.383 13.5781 553.204C13.5781 555.021 12.096 556.498 10.2795 556.498Z" fill="#F7F5F9"/>
<path fill-rule="evenodd" clip-rule="evenodd" d="M142.235 589.481C140.424 589.481 138.942 588.009 138.942 586.187C138.942 584.376 140.424 582.894 142.235 582.894C144.052 582.894 145.534 584.376 145.534 586.187C145.534 588.009 144.052 589.481 142.235 589.481Z" fill="#F7F5F9"/>
<path fill-rule="evenodd" clip-rule="evenodd" d="M109.252 589.481C107.431 589.481 105.954 588.009 105.954 586.187C105.954 584.376 107.431 582.894 109.252 582.894C111.064 582.894 112.541 584.376 112.541 586.187C112.541 588.009 111.064 589.481 109.252 589.481Z" fill="#F7F5F9"/>
<path fill-rule="evenodd" clip-rule="evenodd" d="M76.2601 589.481C74.4436 589.481 72.9665 588.009 72.9665 586.187C72.9665 584.376 74.4436 582.894 76.2601 582.894C78.0766 582.894 79.5537 584.376 79.5537 586.187C79.5537 588.009 78.0766 589.481 76.2601 589.481Z" fill="#F7F5F9"/>
<path fill-rule="evenodd" clip-rule="evenodd" d="M43.2723 589.481C41.4559 589.481 39.9787 588.009 39.9787 586.187C39.9787 584.376 41.4559 582.894 43.2723 582.894C45.0838 582.894 46.5659 584.376 46.5659 586.187C46.5659 588.009 45.0838 589.481 43.2723 589.481Z" fill="#F7F5F9"/>
<path fill-rule="evenodd" clip-rule="evenodd" d="M10.2795 589.481C8.46806 589.481 6.99093 588.009 6.99093 586.187C6.99093 584.376 8.46806 582.894 10.2795 582.894C12.096 582.894 13.5781 584.376 13.5781 586.187C13.5781 588.009 12.096 589.481 10.2795 589.481Z" fill="#F7F5F9"/>
<path fill-rule="evenodd" clip-rule="evenodd" d="M142.235 622.473C140.424 622.473 138.942 621.001 138.942 619.18C138.942 617.358 140.424 615.886 142.235 615.886C144.052 615.886 145.534 617.358 145.534 619.18C145.534 621.001 144.052 622.473 142.235 622.473Z" fill="#F7F5F9"/>
<path fill-rule="evenodd" clip-rule="evenodd" d="M109.252 622.473C107.431 622.473 105.954 621.001 105.954 619.18C105.954 617.358 107.431 615.886 109.252 615.886C111.064 615.886 112.541 617.358 112.541 619.18C112.541 621.001 111.064 622.473 109.252 622.473Z" fill="#F7F5F9"/>
<path fill-rule="evenodd" clip-rule="evenodd" d="M76.2601 622.473C74.4436 622.473 72.9665 621.001 72.9665 619.18C72.9665 617.358 74.4436 615.886 76.2601 615.886C78.0766 615.886 79.5537 617.358 79.5537 619.18C79.5537 621.001 78.0766 622.473 76.2601 622.473Z" fill="#F7F5F9"/>
<path fill-rule="evenodd" clip-rule="evenodd" d="M43.2723 622.473C41.4559 622.473 39.9787 621.001 39.9787 619.18C39.9787 617.358 41.4559 615.886 43.2723 615.886C45.0838 615.886 46.5659 617.358 46.5659 619.18C46.5659 621.001 45.0838 622.473 43.2723 622.473Z" fill="#F7F5F9"/>
<path fill-rule="evenodd" clip-rule="evenodd" d="M10.2795 622.473C8.46806 622.473 6.99093 621.001 6.99093 619.18C6.99093 617.358 8.46806 615.886 10.2795 615.886C12.096 615.886 13.5781 617.358 13.5781 619.18C13.5781 621.001 12.096 622.473 10.2795 622.473Z" fill="#F7F5F9"/>
<path fill-rule="evenodd" clip-rule="evenodd" d="M142.235 655.461C140.424 655.461 138.942 653.983 138.942 652.172C138.942 650.351 140.424 648.878 142.235 648.878C144.052 648.878 145.534 650.351 145.534 652.172C145.534 653.983 144.052 655.461 142.235 655.461Z" fill="#F7F5F9"/>
<path fill-rule="evenodd" clip-rule="evenodd" d="M109.252 655.461C107.431 655.461 105.954 653.983 105.954 652.172C105.954 650.351 107.431 648.878 109.252 648.878C111.064 648.878 112.541 650.351 112.541 652.172C112.541 653.983 111.064 655.461 109.252 655.461Z" fill="#F7F5F9"/>
<path fill-rule="evenodd" clip-rule="evenodd" d="M76.2601 655.461C74.4436 655.461 72.9665 653.983 72.9665 652.172C72.9665 650.351 74.4436 648.878 76.2601 648.878C78.0766 648.878 79.5537 650.351 79.5537 652.172C79.5537 653.983 78.0766 655.461 76.2601 655.461Z" fill="#F7F5F9"/>
<path fill-rule="evenodd" clip-rule="evenodd" d="M43.2723 655.461C41.4559 655.461 39.9787 653.983 39.9787 652.172C39.9787 650.351 41.4559 648.878 43.2723 648.878C45.0838 648.878 46.5659 650.351 46.5659 652.172C46.5659 653.983 45.0838 655.461 43.2723 655.461Z" fill="#F7F5F9"/>
<path fill-rule="evenodd" clip-rule="evenodd" d="M10.2795 655.461C8.46806 655.461 6.99093 653.983 6.99093 652.172C6.99093 650.351 8.46806 648.878 10.2795 648.878C12.096 648.878 13.5781 650.351 13.5781 652.172C13.5781 653.983 12.096 655.461 10.2795 655.461Z" fill="#F7F5F9"/>
<path fill-rule="evenodd" clip-rule="evenodd" d="M142.235 688.448C140.424 688.448 138.942 686.976 138.942 685.155C138.942 683.338 140.424 681.861 142.235 681.861C144.052 681.861 145.534 683.338 145.534 685.155C145.534 686.976 144.052 688.448 142.235 688.448Z" fill="#F7F5F9"/>
<path fill-rule="evenodd" clip-rule="evenodd" d="M109.252 688.448C107.431 688.448 105.954 686.976 105.954 685.155C105.954 683.338 107.431 681.861 109.252 681.861C111.064 681.861 112.541 683.338 112.541 685.155C112.541 686.976 111.064 688.448 109.252 688.448Z" fill="#F7F5F9"/>
<path fill-rule="evenodd" clip-rule="evenodd" d="M76.2601 688.448C74.4436 688.448 72.9665 686.976 72.9665 685.155C72.9665 683.338 74.4436 681.861 76.2601 681.861C78.0766 681.861 79.5537 683.338 79.5537 685.155C79.5537 686.976 78.0766 688.448 76.2601 688.448Z" fill="#F7F5F9"/>
<path fill-rule="evenodd" clip-rule="evenodd" d="M43.2723 688.448C41.4559 688.448 39.9787 686.976 39.9787 685.155C39.9787 683.338 41.4559 681.861 43.2723 681.861C45.0838 681.861 46.5659 683.338 46.5659 685.155C46.5659 686.976 45.0838 688.448 43.2723 688.448Z" fill="#F7F5F9"/>
<path fill-rule="evenodd" clip-rule="evenodd" d="M10.2795 688.448C8.46806 688.448 6.99093 686.976 6.99093 685.155C6.99093 683.338 8.46806 681.861 10.2795 681.861C12.096 681.861 13.5781 683.338 13.5781 685.155C13.5781 686.976 12.096 688.448 10.2795 688.448Z" fill="#F7F5F9"/>
<path fill-rule="evenodd" clip-rule="evenodd" d="M142.235 721.441C140.424 721.441 138.942 719.969 138.942 718.147C138.942 716.326 140.424 714.854 142.235 714.854C144.052 714.854 145.534 716.326 145.534 718.147C145.534 719.969 144.052 721.441 142.235 721.441Z" fill="#F7F5F9"/>
<path fill-rule="evenodd" clip-rule="evenodd" d="M109.252 721.441C107.431 721.441 105.954 719.969 105.954 718.147C105.954 716.326 107.431 714.854 109.252 714.854C111.064 714.854 112.541 716.326 112.541 718.147C112.541 719.969 111.064 721.441 109.252 721.441Z" fill="#F7F5F9"/>
<path fill-rule="evenodd" clip-rule="evenodd" d="M76.2601 721.441C74.4436 721.441 72.9665 719.969 72.9665 718.147C72.9665 716.326 74.4436 714.854 76.2601 714.854C78.0766 714.854 79.5537 716.326 79.5537 718.147C79.5537 719.969 78.0766 721.441 76.2601 721.441Z" fill="#F7F5F9"/>
<path fill-rule="evenodd" clip-rule="evenodd" d="M43.2723 721.441C41.4559 721.441 39.9787 719.969 39.9787 718.147C39.9787 716.326 41.4559 714.854 43.2723 714.854C45.0838 714.854 46.5659 716.326 46.5659 718.147C46.5659 719.969 45.0838 721.441 43.2723 721.441Z" fill="#F7F5F9"/>
<path fill-rule="evenodd" clip-rule="evenodd" d="M10.2795 721.441C8.46806 721.441 6.99093 719.969 6.99093 718.147C6.99093 716.326 8.46806 714.854 10.2795 714.854C12.096 714.854 13.5781 716.326 13.5781 718.147C13.5781 719.969 12.096 721.441 10.2795 721.441Z" fill="#F7F5F9"/>
<path fill-rule="evenodd" clip-rule="evenodd" d="M142.235 754.428C140.424 754.428 138.942 752.951 138.942 751.135C138.942 749.318 140.424 747.841 142.235 747.841C144.052 747.841 145.534 749.318 145.534 751.135C145.534 752.951 144.052 754.428 142.235 754.428Z" fill="#F7F5F9"/>
<path fill-rule="evenodd" clip-rule="evenodd" d="M109.252 754.428C107.431 754.428 105.954 752.951 105.954 751.135C105.954 749.318 107.431 747.841 109.252 747.841C111.064 747.841 112.541 749.318 112.541 751.135C112.541 752.951 111.064 754.428 109.252 754.428Z" fill="#F7F5F9"/>
<path fill-rule="evenodd" clip-rule="evenodd" d="M76.2601 754.428C74.4436 754.428 72.9665 752.951 72.9665 751.135C72.9665 749.318 74.4436 747.841 76.2601 747.841C78.0766 747.841 79.5537 749.318 79.5537 751.135C79.5537 752.951 78.0766 754.428 76.2601 754.428Z" fill="#F7F5F9"/>
<path fill-rule="evenodd" clip-rule="evenodd" d="M43.2723 754.428C41.4559 754.428 39.9787 752.951 39.9787 751.135C39.9787 749.318 41.4559 747.841 43.2723 747.841C45.0838 747.841 46.5659 749.318 46.5659 751.135C46.5659 752.951 45.0838 754.428 43.2723 754.428Z" fill="#F7F5F9"/>
<path fill-rule="evenodd" clip-rule="evenodd" d="M10.2795 754.428C8.46806 754.428 6.99093 752.951 6.99093 751.135C6.99093 749.318 8.46806 747.841 10.2795 747.841C12.096 747.841 13.5781 749.318 13.5781 751.135C13.5781 752.951 12.096 754.428 10.2795 754.428Z" fill="#F7F5F9"/>
<path fill-rule="evenodd" clip-rule="evenodd" d="M142.235 787.416C140.424 787.416 138.942 785.944 138.942 784.122C138.942 782.301 140.424 780.829 142.235 780.829C144.052 780.829 145.534 782.301 145.534 784.122C145.534 785.944 144.052 787.416 142.235 787.416Z" fill="#F7F5F9"/>
<path fill-rule="evenodd" clip-rule="evenodd" d="M109.252 787.416C107.431 787.416 105.954 785.944 105.954 784.122C105.954 782.301 107.431 780.829 109.252 780.829C111.064 780.829 112.541 782.301 112.541 784.122C112.541 785.944 111.064 787.416 109.252 787.416Z" fill="#F7F5F9"/>
<path fill-rule="evenodd" clip-rule="evenodd" d="M76.2601 787.416C74.4436 787.416 72.9665 785.944 72.9665 784.122C72.9665 782.301 74.4436 780.829 76.2601 780.829C78.0766 780.829 79.5537 782.301 79.5537 784.122C79.5537 785.944 78.0766 787.416 76.2601 787.416Z" fill="#F7F5F9"/>
<path fill-rule="evenodd" clip-rule="evenodd" d="M43.2723 787.416C41.4559 787.416 39.9787 785.944 39.9787 784.122C39.9787 782.301 41.4559 780.829 43.2723 780.829C45.0838 780.829 46.5659 782.301 46.5659 784.122C46.5659 785.944 45.0838 787.416 43.2723 787.416Z" fill="#F7F5F9"/>
<path fill-rule="evenodd" clip-rule="evenodd" d="M10.2795 787.416C8.46806 787.416 6.99093 785.944 6.99093 784.122C6.99093 782.301 8.46806 780.829 10.2795 780.829C12.096 780.829 13.5781 782.301 13.5781 784.122C13.5781 785.944 12.096 787.416 10.2795 787.416Z" fill="#F7F5F9"/>
<path fill-rule="evenodd" clip-rule="evenodd" d="M142.235 820.409C140.424 820.409 138.942 818.932 138.942 817.115C138.942 815.294 140.424 813.822 142.235 813.822C144.052 813.822 145.534 815.294 145.534 817.115C145.534 818.932 144.052 820.409 142.235 820.409Z" fill="#F7F5F9"/>
<path fill-rule="evenodd" clip-rule="evenodd" d="M109.252 820.409C107.431 820.409 105.954 818.932 105.954 817.115C105.954 815.294 107.431 813.822 109.252 813.822C111.064 813.822 112.541 815.294 112.541 817.115C112.541 818.932 111.064 820.409 109.252 820.409Z" fill="#F7F5F9"/>
<path fill-rule="evenodd" clip-rule="evenodd" d="M76.2601 820.409C74.4436 820.409 72.9665 818.932 72.9665 817.115C72.9665 815.294 74.4436 813.822 76.2601 813.822C78.0766 813.822 79.5537 815.294 79.5537 817.115C79.5537 818.932 78.0766 820.409 76.2601 820.409Z" fill="#F7F5F9"/>
<path fill-rule="evenodd" clip-rule="evenodd" d="M43.2723 820.409C41.4559 820.409 39.9787 818.932 39.9787 817.115C39.9787 815.294 41.4559 813.822 43.2723 813.822C45.0838 813.822 46.5659 815.294 46.5659 817.115C46.5659 818.932 45.0838 820.409 43.2723 820.409Z" fill="#F7F5F9"/>
<path fill-rule="evenodd" clip-rule="evenodd" d="M10.2795 820.409C8.46806 820.409 6.99093 818.932 6.99093 817.115C6.99093 815.294 8.46806 813.822 10.2795 813.822C12.096 813.822 13.5781 815.294 13.5781 817.115C13.5781 818.932 12.096 820.409 10.2795 820.409Z" fill="#F7F5F9"/>
<path fill-rule="evenodd" clip-rule="evenodd" d="M142.235 853.391C140.424 853.391 138.942 851.919 138.942 850.097C138.942 848.286 140.424 846.804 142.235 846.804C144.052 846.804 145.534 848.286 145.534 850.097C145.534 851.919 144.052 853.391 142.235 853.391Z" fill="#F7F5F9"/>
<path fill-rule="evenodd" clip-rule="evenodd" d="M109.252 853.391C107.431 853.391 105.954 851.919 105.954 850.097C105.954 848.286 107.431 846.804 109.252 846.804C111.064 846.804 112.541 848.286 112.541 850.097C112.541 851.919 111.064 853.391 109.252 853.391Z" fill="#F7F5F9"/>
<path fill-rule="evenodd" clip-rule="evenodd" d="M76.2601 853.391C74.4436 853.391 72.9665 851.919 72.9665 850.097C72.9665 848.286 74.4436 846.804 76.2601 846.804C78.0766 846.804 79.5537 848.286 79.5537 850.097C79.5537 851.919 78.0766 853.391 76.2601 853.391Z" fill="#F7F5F9"/>
<path fill-rule="evenodd" clip-rule="evenodd" d="M43.2723 853.391C41.4559 853.391 39.9787 851.919 39.9787 850.097C39.9787 848.286 41.4559 846.804 43.2723 846.804C45.0838 846.804 46.5659 848.286 46.5659 850.097C46.5659 851.919 45.0838 853.391 43.2723 853.391Z" fill="#F7F5F9"/>
<path fill-rule="evenodd" clip-rule="evenodd" d="M10.2795 853.391C8.46806 853.391 6.99093 851.919 6.99093 850.097C6.99093 848.286 8.46806 846.804 10.2795 846.804C12.096 846.804 13.5781 848.286 13.5781 850.097C13.5781 851.919 12.096 853.391 10.2795 853.391Z" fill="#F7F5F9"/>
<path fill-rule="evenodd" clip-rule="evenodd" d="M142.235 886.384C140.424 886.384 138.942 884.912 138.942 883.09C138.942 881.269 140.424 879.797 142.235 879.797C144.052 879.797 145.534 881.269 145.534 883.09C145.534 884.912 144.052 886.384 142.235 886.384Z" fill="#F7F5F9"/>
<path fill-rule="evenodd" clip-rule="evenodd" d="M109.252 886.384C107.431 886.384 105.954 884.912 105.954 883.09C105.954 881.269 107.431 879.797 109.252 879.797C111.064 879.797 112.541 881.269 112.541 883.09C112.541 884.912 111.064 886.384 109.252 886.384Z" fill="#F7F5F9"/>
<path fill-rule="evenodd" clip-rule="evenodd" d="M76.2601 886.384C74.4436 886.384 72.9665 884.912 72.9665 883.09C72.9665 881.269 74.4436 879.797 76.2601 879.797C78.0766 879.797 79.5537 881.269 79.5537 883.09C79.5537 884.912 78.0766 886.384 76.2601 886.384Z" fill="#F7F5F9"/>
<path fill-rule="evenodd" clip-rule="evenodd" d="M43.2723 886.384C41.4559 886.384 39.9787 884.912 39.9787 883.09C39.9787 881.269 41.4559 879.797 43.2723 879.797C45.0838 879.797 46.5659 881.269 46.5659 883.09C46.5659 884.912 45.0838 886.384 43.2723 886.384Z" fill="#F7F5F9"/>
<path fill-rule="evenodd" clip-rule="evenodd" d="M10.2795 886.384C8.46806 886.384 6.99093 884.912 6.99093 883.09C6.99093 881.269 8.46806 879.797 10.2795 879.797C12.096 879.797 13.5781 881.269 13.5781 883.09C13.5781 884.912 12.096 886.384 10.2795 886.384Z" fill="#F7F5F9"/>
</svg>
