<svg width="193" height="373" viewBox="0 0 193 373" fill="none" xmlns="http://www.w3.org/2000/svg">
<mask id="mask0" mask-type="alpha" maskUnits="userSpaceOnUse" x="0" y="0" width="207" height="16">
<path fill-rule="evenodd" clip-rule="evenodd" d="M207 0.698242H0.610291V15.8737H207V0.698242Z" fill="white"/>
</mask>
<g mask="url(#mask0)">
<path fill-rule="evenodd" clip-rule="evenodd" d="M75.0288 0.698242H75.0228C68.8443 0.698242 63.0666 2.879 58.7542 6.83631C55.4287 9.88538 51.0087 11.5621 46.3015 11.5621C41.5944 11.5621 37.1684 9.88538 33.8429 6.83631C29.5245 2.879 23.7408 0.698242 17.5623 0.698242H17.5503C11.3719 0.698242 5.59412 2.879 1.28174 6.83631C0.324768 7.71959 0.39653 9.08693 1.46117 9.88538C2.51384 10.6788 4.15266 10.6189 5.10965 9.74066C8.42915 6.69159 12.8492 5.01485 17.5503 5.01485H17.5623C22.2635 5.01485 26.6895 6.69159 30.021 9.74066C34.3393 13.698 40.123 15.8737 46.3015 15.8737C52.486 15.8737 58.2637 13.698 62.5821 9.74066C65.9016 6.69159 70.3157 5.01485 75.0228 5.01485H75.0288C79.7359 5.01485 84.1619 6.69159 87.4934 9.74066C91.8118 13.698 97.5895 15.8737 103.774 15.8737H103.78C109.958 15.8737 115.742 13.698 120.061 9.74066C126.718 3.64252 138.327 3.64252 144.996 9.74066C149.308 13.698 155.098 15.8737 161.282 15.8737C167.467 15.8737 173.257 13.698 177.575 9.74066C180.894 6.69159 185.32 5.01485 190.034 5.01485H190.039C194.747 5.01485 199.173 6.69159 202.504 9.74066C203.473 10.6189 205.106 10.6888 206.159 9.88039C207.211 9.08194 207.289 7.7146 206.326 6.83631C202.002 2.879 196.218 0.698242 190.039 0.698242H190.034C183.849 0.698242 178.065 2.879 173.741 6.83631C170.421 9.88538 165.995 11.5621 161.282 11.5621C156.569 11.5621 152.143 9.88538 148.812 6.83631C140.175 -1.07331 124.875 -1.07331 116.239 6.83631C112.907 9.88538 108.487 11.5621 103.78 11.5621H103.774C99.0669 11.5621 94.6468 9.88538 91.3094 6.83631C86.991 2.879 81.2132 0.698242 75.0288 0.698242Z" fill="#F7F5F9"/>
</g>
<path fill-rule="evenodd" clip-rule="evenodd" d="M75.0278 35.999H75.0218C68.8434 35.999 63.0656 38.1798 58.7532 42.1371C55.4277 45.1862 51.0077 46.8629 46.3006 46.8629C41.5934 46.8629 37.1674 45.1862 33.8419 42.1371C29.5235 38.1798 23.7398 35.999 17.5613 35.999H17.5494C11.3709 35.999 5.59314 38.1798 1.28076 42.1371C0.323792 43.0204 0.395554 44.3877 1.46019 45.1862C2.51286 45.9796 4.15169 45.9197 5.10867 45.0414C8.42818 41.9924 12.8482 40.3156 17.5494 40.3156H17.5613C22.2625 40.3156 26.6885 41.9924 30.02 45.0414C34.3383 48.9987 40.1221 51.1745 46.3006 51.1745C52.485 51.1745 58.2628 48.9987 62.5811 45.0414C65.9006 41.9924 70.3147 40.3156 75.0218 40.3156H75.0278C79.7349 40.3156 84.161 41.9924 87.4924 45.0414C91.8108 48.9987 97.5885 51.1745 103.773 51.1745H103.779C109.957 51.1745 115.741 48.9987 120.06 45.0414C126.717 38.9433 138.326 38.9433 144.995 45.0414C149.307 48.9987 155.097 51.1745 161.281 51.1745C167.466 51.1745 173.256 48.9987 177.574 45.0414C180.893 41.9924 185.319 40.3156 190.033 40.3156H190.039C194.746 40.3156 199.172 41.9924 202.503 45.0414C203.472 45.9197 205.105 45.9896 206.158 45.1812C207.21 44.3827 207.288 43.0154 206.325 42.1371C202.001 38.1798 196.217 35.999 190.039 35.999H190.033C183.848 35.999 178.064 38.1798 173.74 42.1371C170.42 45.1862 165.994 46.8629 161.281 46.8629C156.568 46.8629 152.142 45.1862 148.811 42.1371C140.174 34.2275 124.874 34.2275 116.238 42.1371C112.906 45.1862 108.486 46.8629 103.779 46.8629H103.773C99.0659 46.8629 94.6458 45.1862 91.3084 42.1371C86.99 38.1798 81.2123 35.999 75.0278 35.999Z" fill="#F7F5F9"/>
<path fill-rule="evenodd" clip-rule="evenodd" d="M75.0278 71.1719H75.0218C68.8434 71.1719 63.0656 73.3526 58.7532 77.3099C55.4277 80.359 51.0077 82.0357 46.3006 82.0357C41.5934 82.0357 37.1674 80.359 33.8419 77.3099C29.5235 73.3526 23.7398 71.1719 17.5613 71.1719H17.5494C11.3709 71.1719 5.59314 73.3526 1.28076 77.3099C0.323792 78.1932 0.395554 79.5606 1.46019 80.359C2.51286 81.1525 4.15169 81.0926 5.10867 80.2143C8.42818 77.1652 12.8482 75.4885 17.5494 75.4885H17.5613C22.2625 75.4885 26.6885 77.1652 30.02 80.2143C34.3383 84.1716 40.1221 86.3474 46.3006 86.3474C52.485 86.3474 58.2628 84.1716 62.5811 80.2143C65.9006 77.1652 70.3147 75.4885 75.0218 75.4885H75.0278C79.7349 75.4885 84.161 77.1652 87.4924 80.2143C91.8108 84.1716 97.5885 86.3474 103.773 86.3474H103.779C109.957 86.3474 115.741 84.1716 120.06 80.2143C126.717 74.1161 138.326 74.1161 144.995 80.2143C149.307 84.1716 155.097 86.3474 161.281 86.3474C167.466 86.3474 173.256 84.1716 177.574 80.2143C180.893 77.1652 185.319 75.4885 190.033 75.4885H190.039C194.746 75.4885 199.172 77.1652 202.503 80.2143C203.472 81.0926 205.105 81.1624 206.158 80.354C207.21 79.5556 207.288 78.1882 206.325 77.3099C202.001 73.3526 196.217 71.1719 190.039 71.1719H190.033C183.848 71.1719 178.064 73.3526 173.74 77.3099C170.42 80.359 165.994 82.0357 161.281 82.0357C156.568 82.0357 152.142 80.359 148.811 77.3099C140.174 69.4003 124.874 69.4003 116.238 77.3099C112.906 80.359 108.486 82.0357 103.779 82.0357H103.773C99.0659 82.0357 94.6458 80.359 91.3084 77.3099C86.99 73.3526 81.2123 71.1719 75.0278 71.1719Z" fill="#F7F5F9"/>
<mask id="mask1" mask-type="alpha" maskUnits="userSpaceOnUse" x="0" y="286" width="207" height="16">
<path fill-rule="evenodd" clip-rule="evenodd" d="M207 286.698H0.610291V301.874H207V286.698Z" fill="white"/>
</mask>
<g mask="url(#mask1)">
<path fill-rule="evenodd" clip-rule="evenodd" d="M75.0288 286.698H75.0228C68.8443 286.698 63.0666 288.879 58.7542 292.836C55.4287 295.885 51.0087 297.562 46.3015 297.562C41.5944 297.562 37.1684 295.885 33.8429 292.836C29.5245 288.879 23.7408 286.698 17.5623 286.698H17.5503C11.3719 286.698 5.59412 288.879 1.28174 292.836C0.324768 293.72 0.39653 295.087 1.46117 295.885C2.51384 296.679 4.15266 296.619 5.10965 295.741C8.42915 292.692 12.8492 291.015 17.5503 291.015H17.5623C22.2635 291.015 26.6895 292.692 30.021 295.741C34.3393 299.698 40.123 301.874 46.3015 301.874C52.486 301.874 58.2637 299.698 62.5821 295.741C65.9016 292.692 70.3157 291.015 75.0228 291.015H75.0288C79.7359 291.015 84.1619 292.692 87.4934 295.741C91.8118 299.698 97.5895 301.874 103.774 301.874H103.78C109.958 301.874 115.742 299.698 120.061 295.741C126.718 289.643 138.327 289.643 144.996 295.741C149.308 299.698 155.098 301.874 161.282 301.874C167.467 301.874 173.257 299.698 177.575 295.741C180.894 292.692 185.32 291.015 190.034 291.015H190.039C194.747 291.015 199.173 292.692 202.504 295.741C203.473 296.619 205.106 296.689 206.159 295.88C207.211 295.082 207.289 293.715 206.326 292.836C202.002 288.879 196.218 286.698 190.039 286.698H190.034C183.849 286.698 178.065 288.879 173.741 292.836C170.421 295.885 165.995 297.562 161.282 297.562C156.569 297.562 152.143 295.885 148.812 292.836C140.175 284.927 124.875 284.927 116.239 292.836C112.907 295.885 108.487 297.562 103.78 297.562H103.774C99.0669 297.562 94.6468 295.885 91.3094 292.836C86.991 288.879 81.2132 286.698 75.0288 286.698Z" fill="#F7F5F9"/>
</g>
<path fill-rule="evenodd" clip-rule="evenodd" d="M75.0278 321.999H75.0218C68.8434 321.999 63.0656 324.18 58.7532 328.137C55.4277 331.186 51.0077 332.863 46.3006 332.863C41.5934 332.863 37.1674 331.186 33.8419 328.137C29.5235 324.18 23.7398 321.999 17.5613 321.999H17.5494C11.3709 321.999 5.59314 324.18 1.28076 328.137C0.323792 329.02 0.395554 330.388 1.46019 331.186C2.51286 331.98 4.15169 331.92 5.10867 331.041C8.42818 327.992 12.8482 326.316 17.5494 326.316H17.5613C22.2625 326.316 26.6885 327.992 30.02 331.041C34.3383 334.999 40.1221 337.175 46.3006 337.175C52.485 337.175 58.2628 334.999 62.5811 331.041C65.9006 327.992 70.3147 326.316 75.0218 326.316H75.0278C79.7349 326.316 84.161 327.992 87.4924 331.041C91.8108 334.999 97.5885 337.175 103.773 337.175H103.779C109.957 337.175 115.741 334.999 120.06 331.041C126.717 324.943 138.326 324.943 144.995 331.041C149.307 334.999 155.097 337.175 161.281 337.175C167.466 337.175 173.256 334.999 177.574 331.041C180.893 327.992 185.319 326.316 190.033 326.316H190.039C194.746 326.316 199.172 327.992 202.503 331.041C203.472 331.92 205.105 331.99 206.158 331.181C207.21 330.383 207.288 329.015 206.325 328.137C202.001 324.18 196.217 321.999 190.039 321.999H190.033C183.848 321.999 178.064 324.18 173.74 328.137C170.42 331.186 165.994 332.863 161.281 332.863C156.568 332.863 152.142 331.186 148.811 328.137C140.174 320.227 124.874 320.227 116.238 328.137C112.906 331.186 108.486 332.863 103.779 332.863H103.773C99.0659 332.863 94.6458 331.186 91.3084 328.137C86.99 324.18 81.2123 321.999 75.0278 321.999Z" fill="#F7F5F9"/>
<path fill-rule="evenodd" clip-rule="evenodd" d="M75.0278 357.172H75.0218C68.8434 357.172 63.0656 359.353 58.7532 363.31C55.4277 366.359 51.0077 368.036 46.3006 368.036C41.5934 368.036 37.1674 366.359 33.8419 363.31C29.5235 359.353 23.7398 357.172 17.5613 357.172H17.5494C11.3709 357.172 5.59314 359.353 1.28076 363.31C0.323792 364.193 0.395554 365.561 1.46019 366.359C2.51286 367.152 4.15169 367.093 5.10867 366.214C8.42818 363.165 12.8482 361.488 17.5494 361.488H17.5613C22.2625 361.488 26.6885 363.165 30.02 366.214C34.3383 370.172 40.1221 372.347 46.3006 372.347C52.485 372.347 58.2628 370.172 62.5811 366.214C65.9006 363.165 70.3147 361.488 75.0218 361.488H75.0278C79.7349 361.488 84.161 363.165 87.4924 366.214C91.8108 370.172 97.5885 372.347 103.773 372.347H103.779C109.957 372.347 115.741 370.172 120.06 366.214C126.717 360.116 138.326 360.116 144.995 366.214C149.307 370.172 155.097 372.347 161.281 372.347C167.466 372.347 173.256 370.172 177.574 366.214C180.893 363.165 185.319 361.488 190.033 361.488H190.039C194.746 361.488 199.172 363.165 202.503 366.214C203.472 367.093 205.105 367.162 206.158 366.354C207.21 365.556 207.288 364.188 206.325 363.31C202.001 359.353 196.217 357.172 190.039 357.172H190.033C183.848 357.172 178.064 359.353 173.74 363.31C170.42 366.359 165.994 368.036 161.281 368.036C156.568 368.036 152.142 366.359 148.811 363.31C140.174 355.4 124.874 355.4 116.238 363.31C112.906 366.359 108.486 368.036 103.779 368.036H103.773C99.0659 368.036 94.6458 366.359 91.3084 363.31C86.99 359.353 81.2123 357.172 75.0278 357.172Z" fill="#F7F5F9"/>
</svg>
