<svg width="193" height="574" viewBox="0 0 193 574" fill="none" xmlns="http://www.w3.org/2000/svg">
<path fill-rule="evenodd" clip-rule="evenodd" d="M190.237 566.972C188.425 566.972 186.943 568.449 186.943 570.266C186.943 572.087 188.425 573.559 190.237 573.559C192.053 573.559 193.535 572.087 193.535 570.266C193.535 568.449 192.053 566.972 190.237 566.972Z" fill="#F7F5F9"/>
<path fill-rule="evenodd" clip-rule="evenodd" d="M157.253 566.972C155.432 566.972 153.955 568.449 153.955 570.266C153.955 572.087 155.432 573.559 157.253 573.559C159.065 573.559 160.542 572.087 160.542 570.266C160.542 568.449 159.065 566.972 157.253 566.972Z" fill="#F7F5F9"/>
<path fill-rule="evenodd" clip-rule="evenodd" d="M124.261 566.972C122.445 566.972 120.967 568.449 120.967 570.266C120.967 572.087 122.445 573.559 124.261 573.559C126.078 573.559 127.555 572.087 127.555 570.266C127.555 568.449 126.078 566.972 124.261 566.972Z" fill="#F7F5F9"/>
<path fill-rule="evenodd" clip-rule="evenodd" d="M91.2738 566.972C89.4573 566.972 87.9802 568.449 87.9802 570.266C87.9802 572.087 89.4573 573.559 91.2738 573.559C93.0853 573.559 94.5674 572.087 94.5674 570.266C94.5674 568.449 93.0853 566.972 91.2738 566.972Z" fill="#F7F5F9"/>
<path fill-rule="evenodd" clip-rule="evenodd" d="M58.281 566.972C56.4695 566.972 54.9924 568.449 54.9924 570.266C54.9924 572.087 56.4695 573.559 58.281 573.559C60.0975 573.559 61.5796 572.087 61.5796 570.266C61.5796 568.449 60.0975 566.972 58.281 566.972Z" fill="#F7F5F9"/>
<path fill-rule="evenodd" clip-rule="evenodd" d="M25.2943 566.972C23.4778 566.972 22.0007 568.449 22.0007 570.266C22.0007 572.087 23.4778 573.559 25.2943 573.559C27.1108 573.559 28.5879 572.087 28.5879 570.266C28.5879 568.449 27.1108 566.972 25.2943 566.972Z" fill="#F7F5F9"/>
<path fill-rule="evenodd" clip-rule="evenodd" d="M190.237 533.99C188.425 533.99 186.943 535.462 186.943 537.284C186.943 539.095 188.425 540.577 190.237 540.577C192.053 540.577 193.535 539.095 193.535 537.284C193.535 535.462 192.053 533.99 190.237 533.99Z" fill="#F7F5F9"/>
<path fill-rule="evenodd" clip-rule="evenodd" d="M157.253 533.99C155.432 533.99 153.955 535.462 153.955 537.284C153.955 539.095 155.432 540.577 157.253 540.577C159.065 540.577 160.542 539.095 160.542 537.284C160.542 535.462 159.065 533.99 157.253 533.99Z" fill="#F7F5F9"/>
<path fill-rule="evenodd" clip-rule="evenodd" d="M124.261 533.99C122.445 533.99 120.967 535.462 120.967 537.284C120.967 539.095 122.445 540.577 124.261 540.577C126.078 540.577 127.555 539.095 127.555 537.284C127.555 535.462 126.078 533.99 124.261 533.99Z" fill="#F7F5F9"/>
<path fill-rule="evenodd" clip-rule="evenodd" d="M91.2738 533.99C89.4573 533.99 87.9802 535.462 87.9802 537.284C87.9802 539.095 89.4573 540.577 91.2738 540.577C93.0853 540.577 94.5674 539.095 94.5674 537.284C94.5674 535.462 93.0853 533.99 91.2738 533.99Z" fill="#F7F5F9"/>
<path fill-rule="evenodd" clip-rule="evenodd" d="M58.281 533.99C56.4695 533.99 54.9924 535.462 54.9924 537.284C54.9924 539.095 56.4695 540.577 58.281 540.577C60.0975 540.577 61.5796 539.095 61.5796 537.284C61.5796 535.462 60.0975 533.99 58.281 533.99Z" fill="#F7F5F9"/>
<path fill-rule="evenodd" clip-rule="evenodd" d="M25.2943 533.99C23.4778 533.99 22.0007 535.462 22.0007 537.284C22.0007 539.095 23.4778 540.577 25.2943 540.577C27.1108 540.577 28.5879 539.095 28.5879 537.284C28.5879 535.462 27.1108 533.99 25.2943 533.99Z" fill="#F7F5F9"/>
<path fill-rule="evenodd" clip-rule="evenodd" d="M190.237 500.997C188.425 500.997 186.943 502.469 186.943 504.29C186.943 506.112 188.425 507.584 190.237 507.584C192.053 507.584 193.535 506.112 193.535 504.29C193.535 502.469 192.053 500.997 190.237 500.997Z" fill="#F7F5F9"/>
<path fill-rule="evenodd" clip-rule="evenodd" d="M157.253 500.997C155.432 500.997 153.955 502.469 153.955 504.29C153.955 506.112 155.432 507.584 157.253 507.584C159.065 507.584 160.542 506.112 160.542 504.29C160.542 502.469 159.065 500.997 157.253 500.997Z" fill="#F7F5F9"/>
<path fill-rule="evenodd" clip-rule="evenodd" d="M124.261 500.997C122.445 500.997 120.967 502.469 120.967 504.29C120.967 506.112 122.445 507.584 124.261 507.584C126.078 507.584 127.555 506.112 127.555 504.29C127.555 502.469 126.078 500.997 124.261 500.997Z" fill="#F7F5F9"/>
<path fill-rule="evenodd" clip-rule="evenodd" d="M91.2738 500.997C89.4573 500.997 87.9802 502.469 87.9802 504.29C87.9802 506.112 89.4573 507.584 91.2738 507.584C93.0853 507.584 94.5674 506.112 94.5674 504.29C94.5674 502.469 93.0853 500.997 91.2738 500.997Z" fill="#F7F5F9"/>
<path fill-rule="evenodd" clip-rule="evenodd" d="M58.281 500.997C56.4695 500.997 54.9924 502.469 54.9924 504.29C54.9924 506.112 56.4695 507.584 58.281 507.584C60.0975 507.584 61.5796 506.112 61.5796 504.29C61.5796 502.469 60.0975 500.997 58.281 500.997Z" fill="#F7F5F9"/>
<path fill-rule="evenodd" clip-rule="evenodd" d="M25.2943 500.997C23.4778 500.997 22.0007 502.469 22.0007 504.29C22.0007 506.112 23.4778 507.584 25.2943 507.584C27.1108 507.584 28.5879 506.112 28.5879 504.29C28.5879 502.469 27.1108 500.997 25.2943 500.997Z" fill="#F7F5F9"/>
<mask id="mask0" mask-type="alpha" maskUnits="userSpaceOnUse" x="0" y="70" width="207" height="16">
<path fill-rule="evenodd" clip-rule="evenodd" d="M207 85.6509H0.610291V70.4754H207V85.6509Z" fill="white"/>
</mask>
<g mask="url(#mask0)">
<path fill-rule="evenodd" clip-rule="evenodd" d="M75.0288 85.6509H75.0228C68.8443 85.6509 63.0666 83.4701 58.7542 79.5128C55.4287 76.4637 51.0087 74.787 46.3015 74.787C41.5944 74.787 37.1684 76.4637 33.8429 79.5128C29.5245 83.4701 23.7408 85.6509 17.5623 85.6509H17.5503C11.3719 85.6509 5.59412 83.4701 1.28174 79.5128C0.324768 78.6295 0.39653 77.2622 1.46117 76.4637C2.51384 75.6703 4.15266 75.7302 5.10965 76.6085C8.42915 79.6575 12.8492 81.3343 17.5503 81.3343H17.5623C22.2635 81.3343 26.6895 79.6575 30.021 76.6085C34.3393 72.6512 40.123 70.4754 46.3015 70.4754C52.486 70.4754 58.2637 72.6512 62.5821 76.6085C65.9016 79.6575 70.3157 81.3343 75.0228 81.3343H75.0288C79.7359 81.3343 84.1619 79.6575 87.4934 76.6085C91.8118 72.6512 97.5895 70.4754 103.774 70.4754H103.78C109.958 70.4754 115.742 72.6512 120.061 76.6085C126.718 82.7066 138.327 82.7066 144.996 76.6085C149.308 72.6512 155.098 70.4754 161.282 70.4754C167.467 70.4754 173.257 72.6512 177.575 76.6085C180.894 79.6575 185.32 81.3343 190.034 81.3343H190.039C194.747 81.3343 199.173 79.6575 202.504 76.6085C203.473 75.7302 205.106 75.6603 206.159 76.4687C207.211 77.2672 207.289 78.6345 206.326 79.5128C202.002 83.4701 196.218 85.6509 190.039 85.6509H190.034C183.849 85.6509 178.065 83.4701 173.741 79.5128C170.421 76.4637 165.995 74.787 161.282 74.787C156.569 74.787 152.143 76.4637 148.812 79.5128C140.175 87.4224 124.875 87.4224 116.239 79.5128C112.907 76.4637 108.487 74.787 103.78 74.787H103.774C99.0669 74.787 94.6468 76.4637 91.3094 79.5128C86.991 83.4701 81.2132 85.6509 75.0288 85.6509Z" fill="#F7F5F9"/>
</g>
<path fill-rule="evenodd" clip-rule="evenodd" d="M75.0278 50.3491H75.0218C68.8434 50.3491 63.0656 48.1684 58.7532 44.2111C55.4277 41.162 51.0077 39.4852 46.3006 39.4852C41.5934 39.4852 37.1674 41.162 33.8419 44.2111C29.5235 48.1684 23.7398 50.3491 17.5613 50.3491H17.5494C11.3709 50.3491 5.59314 48.1684 1.28076 44.2111C0.323792 43.3278 0.395554 41.9604 1.46019 41.162C2.51286 40.3685 4.15169 40.4284 5.10867 41.3067C8.42818 44.3558 12.8482 46.0325 17.5494 46.0325H17.5613C22.2625 46.0325 26.6885 44.3558 30.02 41.3067C34.3383 37.3494 40.1221 35.1736 46.3006 35.1736C52.485 35.1736 58.2628 37.3494 62.5811 41.3067C65.9006 44.3558 70.3147 46.0325 75.0218 46.0325H75.0278C79.7349 46.0325 84.161 44.3558 87.4924 41.3067C91.8108 37.3494 97.5885 35.1736 103.773 35.1736H103.779C109.957 35.1736 115.741 37.3494 120.06 41.3067C126.717 47.4048 138.326 47.4048 144.995 41.3067C149.307 37.3494 155.097 35.1736 161.281 35.1736C167.466 35.1736 173.256 37.3494 177.574 41.3067C180.893 44.3558 185.319 46.0325 190.033 46.0325H190.039C194.746 46.0325 199.172 44.3558 202.503 41.3067C203.472 40.4284 205.105 40.3586 206.158 41.167C207.21 41.9654 207.288 43.3328 206.325 44.2111C202.001 48.1684 196.217 50.3491 190.039 50.3491H190.033C183.848 50.3491 178.064 48.1684 173.74 44.2111C170.42 41.162 165.994 39.4852 161.281 39.4852C156.568 39.4852 152.142 41.162 148.811 44.2111C140.174 52.1207 124.874 52.1207 116.238 44.2111C112.906 41.162 108.486 39.4852 103.779 39.4852H103.773C99.0659 39.4852 94.6458 41.162 91.3084 44.2111C86.99 48.1684 81.2123 50.3491 75.0278 50.3491Z" fill="#F7F5F9"/>
<path fill-rule="evenodd" clip-rule="evenodd" d="M75.0278 15.1755H75.0218C68.8434 15.1755 63.0656 12.9948 58.7532 9.03747C55.4277 5.9884 51.0077 4.31166 46.3006 4.31166C41.5934 4.31166 37.1674 5.9884 33.8419 9.03747C29.5235 12.9948 23.7398 15.1755 17.5613 15.1755H17.5494C11.3709 15.1755 5.59314 12.9948 1.28076 9.03747C0.323792 8.15419 0.395554 6.78685 1.46019 5.9884C2.51286 5.19495 4.15169 5.25483 5.10867 6.13312C8.42818 9.18219 12.8482 10.8589 17.5494 10.8589H17.5613C22.2625 10.8589 26.6885 9.18219 30.02 6.13312C34.3383 2.17582 40.1221 4.95911e-05 46.3006 4.95911e-05C52.485 4.95911e-05 58.2628 2.17582 62.5811 6.13312C65.9006 9.18219 70.3147 10.8589 75.0218 10.8589H75.0278C79.7349 10.8589 84.161 9.18219 87.4924 6.13312C91.8108 2.17582 97.5885 4.95911e-05 103.773 4.95911e-05H103.779C109.957 4.95911e-05 115.741 2.17582 120.06 6.13312C126.717 12.2313 138.326 12.2313 144.995 6.13312C149.307 2.17582 155.097 4.95911e-05 161.281 4.95911e-05C167.466 4.95911e-05 173.256 2.17582 177.574 6.13312C180.893 9.18219 185.319 10.8589 190.033 10.8589H190.039C194.746 10.8589 199.172 9.18219 202.503 6.13312C203.472 5.25483 205.105 5.18497 206.158 5.99339C207.21 6.79184 207.288 8.15918 206.325 9.03747C202.001 12.9948 196.217 15.1755 190.039 15.1755H190.033C183.848 15.1755 178.064 12.9948 173.74 9.03747C170.42 5.9884 165.994 4.31166 161.281 4.31166C156.568 4.31166 152.142 5.9884 148.811 9.03747C140.174 16.9471 124.874 16.9471 116.238 9.03747C112.906 5.9884 108.486 4.31166 103.779 4.31166H103.773C99.0659 4.31166 94.6458 5.9884 91.3084 9.03747C86.99 12.9948 81.2123 15.1755 75.0278 15.1755Z" fill="#F7F5F9"/>
</svg>
