<svg width="146" height="887" viewBox="0 0 146 887" fill="none" xmlns="http://www.w3.org/2000/svg">
<path fill-rule="evenodd" clip-rule="evenodd" d="M142.236 6.58719C140.425 6.58719 138.942 5.11006 138.942 3.2936C138.942 1.47214 140.425 0 142.236 0C144.053 0 145.535 1.47214 145.535 3.2936C145.535 5.11006 144.053 6.58719 142.236 6.58719Z" fill="#F7F5F9"/>
<path fill-rule="evenodd" clip-rule="evenodd" d="M109.253 6.58719C107.432 6.58719 105.955 5.11006 105.955 3.2936C105.955 1.47214 107.432 0 109.253 0C111.065 0 112.542 1.47214 112.542 3.2936C112.542 5.11006 111.065 6.58719 109.253 6.58719Z" fill="#F7F5F9"/>
<path fill-rule="evenodd" clip-rule="evenodd" d="M76.2611 6.58719C74.4446 6.58719 72.9675 5.11006 72.9675 3.2936C72.9675 1.47214 74.4446 0 76.2611 0C78.0776 0 79.5547 1.47214 79.5547 3.2936C79.5547 5.11006 78.0776 6.58719 76.2611 6.58719Z" fill="#F7F5F9"/>
<path fill-rule="evenodd" clip-rule="evenodd" d="M43.2733 6.58719C41.4568 6.58719 39.9797 5.11006 39.9797 3.2936C39.9797 1.47214 41.4568 0 43.2733 0C45.0848 0 46.5669 1.47214 46.5669 3.2936C46.5669 5.11006 45.0848 6.58719 43.2733 6.58719Z" fill="#F7F5F9"/>
<path fill-rule="evenodd" clip-rule="evenodd" d="M10.2805 6.58719C8.46904 6.58719 6.99191 5.11006 6.99191 3.2936C6.99191 1.47214 8.46904 0 10.2805 0C12.097 0 13.5791 1.47214 13.5791 3.2936C13.5791 5.11006 12.097 6.58719 10.2805 6.58719Z" fill="#F7F5F9"/>
<path fill-rule="evenodd" clip-rule="evenodd" d="M142.236 39.5701C140.425 39.5701 138.942 38.098 138.942 36.2765C138.942 34.46 140.425 32.9829 142.236 32.9829C144.053 32.9829 145.535 34.46 145.535 36.2765C145.535 38.098 144.053 39.5701 142.236 39.5701Z" fill="#F7F5F9"/>
<path fill-rule="evenodd" clip-rule="evenodd" d="M109.253 39.5701C107.432 39.5701 105.955 38.098 105.955 36.2765C105.955 34.46 107.432 32.9829 109.253 32.9829C111.065 32.9829 112.542 34.46 112.542 36.2765C112.542 38.098 111.065 39.5701 109.253 39.5701Z" fill="#F7F5F9"/>
<path fill-rule="evenodd" clip-rule="evenodd" d="M76.2611 39.5701C74.4446 39.5701 72.9675 38.098 72.9675 36.2765C72.9675 34.46 74.4446 32.9829 76.2611 32.9829C78.0776 32.9829 79.5547 34.46 79.5547 36.2765C79.5547 38.098 78.0776 39.5701 76.2611 39.5701Z" fill="#F7F5F9"/>
<path fill-rule="evenodd" clip-rule="evenodd" d="M43.2733 39.5701C41.4568 39.5701 39.9797 38.098 39.9797 36.2765C39.9797 34.46 41.4568 32.9829 43.2733 32.9829C45.0848 32.9829 46.5669 34.46 46.5669 36.2765C46.5669 38.098 45.0848 39.5701 43.2733 39.5701Z" fill="#F7F5F9"/>
<path fill-rule="evenodd" clip-rule="evenodd" d="M10.2805 39.5701C8.46904 39.5701 6.99191 38.098 6.99191 36.2765C6.99191 34.46 8.46904 32.9829 10.2805 32.9829C12.097 32.9829 13.5791 34.46 13.5791 36.2765C13.5791 38.098 12.097 39.5701 10.2805 39.5701Z" fill="#F7F5F9"/>
<path fill-rule="evenodd" clip-rule="evenodd" d="M142.236 72.5623C140.425 72.5623 138.942 71.0902 138.942 69.2687C138.942 67.4472 140.425 65.9751 142.236 65.9751C144.053 65.9751 145.535 67.4472 145.535 69.2687C145.535 71.0902 144.053 72.5623 142.236 72.5623Z" fill="#F7F5F9"/>
<path fill-rule="evenodd" clip-rule="evenodd" d="M109.253 72.5623C107.432 72.5623 105.955 71.0902 105.955 69.2687C105.955 67.4472 107.432 65.9751 109.253 65.9751C111.065 65.9751 112.542 67.4472 112.542 69.2687C112.542 71.0902 111.065 72.5623 109.253 72.5623Z" fill="#F7F5F9"/>
<path fill-rule="evenodd" clip-rule="evenodd" d="M76.2611 72.5623C74.4446 72.5623 72.9675 71.0902 72.9675 69.2687C72.9675 67.4472 74.4446 65.9751 76.2611 65.9751C78.0776 65.9751 79.5547 67.4472 79.5547 69.2687C79.5547 71.0902 78.0776 72.5623 76.2611 72.5623Z" fill="#F7F5F9"/>
<path fill-rule="evenodd" clip-rule="evenodd" d="M43.2733 72.5623C41.4568 72.5623 39.9797 71.0902 39.9797 69.2687C39.9797 67.4472 41.4568 65.9751 43.2733 65.9751C45.0848 65.9751 46.5669 67.4472 46.5669 69.2687C46.5669 71.0902 45.0848 72.5623 43.2733 72.5623Z" fill="#F7F5F9"/>
<path fill-rule="evenodd" clip-rule="evenodd" d="M10.2805 72.5623C8.46904 72.5623 6.99191 71.0902 6.99191 69.2687C6.99191 67.4472 8.46904 65.9751 10.2805 65.9751C12.097 65.9751 13.5791 67.4472 13.5791 69.2687C13.5791 71.0902 12.097 72.5623 10.2805 72.5623Z" fill="#F7F5F9"/>
<path fill-rule="evenodd" clip-rule="evenodd" d="M142.236 105.55C140.425 105.55 138.942 104.073 138.942 102.257C138.942 100.44 140.425 98.968 142.236 98.968C144.053 98.968 145.535 100.44 145.535 102.257C145.535 104.073 144.053 105.55 142.236 105.55Z" fill="#F7F5F9"/>
<path fill-rule="evenodd" clip-rule="evenodd" d="M109.253 105.55C107.432 105.55 105.955 104.073 105.955 102.257C105.955 100.44 107.432 98.968 109.253 98.968C111.065 98.968 112.542 100.44 112.542 102.257C112.542 104.073 111.065 105.55 109.253 105.55Z" fill="#F7F5F9"/>
<path fill-rule="evenodd" clip-rule="evenodd" d="M76.2611 105.55C74.4446 105.55 72.9675 104.073 72.9675 102.257C72.9675 100.44 74.4446 98.968 76.2611 98.968C78.0776 98.968 79.5547 100.44 79.5547 102.257C79.5547 104.073 78.0776 105.55 76.2611 105.55Z" fill="#F7F5F9"/>
<path fill-rule="evenodd" clip-rule="evenodd" d="M43.2733 105.55C41.4568 105.55 39.9797 104.073 39.9797 102.257C39.9797 100.44 41.4568 98.968 43.2733 98.968C45.0848 98.968 46.5669 100.44 46.5669 102.257C46.5669 104.073 45.0848 105.55 43.2733 105.55Z" fill="#F7F5F9"/>
<path fill-rule="evenodd" clip-rule="evenodd" d="M10.2805 105.55C8.46904 105.55 6.99191 104.073 6.99191 102.257C6.99191 100.44 8.46904 98.968 10.2805 98.968C12.097 98.968 13.5791 100.44 13.5791 102.257C13.5791 104.073 12.097 105.55 10.2805 105.55Z" fill="#F7F5F9"/>
<path fill-rule="evenodd" clip-rule="evenodd" d="M142.236 138.538C140.425 138.538 138.942 137.065 138.942 135.244C138.942 133.428 140.425 131.95 142.236 131.95C144.053 131.95 145.535 133.428 145.535 135.244C145.535 137.065 144.053 138.538 142.236 138.538Z" fill="#F7F5F9"/>
<path fill-rule="evenodd" clip-rule="evenodd" d="M109.253 138.538C107.432 138.538 105.955 137.065 105.955 135.244C105.955 133.428 107.432 131.95 109.253 131.95C111.065 131.95 112.542 133.428 112.542 135.244C112.542 137.065 111.065 138.538 109.253 138.538Z" fill="#F7F5F9"/>
<path fill-rule="evenodd" clip-rule="evenodd" d="M76.2611 138.538C74.4446 138.538 72.9675 137.065 72.9675 135.244C72.9675 133.428 74.4446 131.95 76.2611 131.95C78.0776 131.95 79.5547 133.428 79.5547 135.244C79.5547 137.065 78.0776 138.538 76.2611 138.538Z" fill="#F7F5F9"/>
<path fill-rule="evenodd" clip-rule="evenodd" d="M43.2733 138.538C41.4568 138.538 39.9797 137.065 39.9797 135.244C39.9797 133.428 41.4568 131.95 43.2733 131.95C45.0848 131.95 46.5669 133.428 46.5669 135.244C46.5669 137.065 45.0848 138.538 43.2733 138.538Z" fill="#F7F5F9"/>
<path fill-rule="evenodd" clip-rule="evenodd" d="M10.2805 138.538C8.46904 138.538 6.99191 137.065 6.99191 135.244C6.99191 133.428 8.46904 131.95 10.2805 131.95C12.097 131.95 13.5791 133.428 13.5791 135.244C13.5791 137.065 12.097 138.538 10.2805 138.538Z" fill="#F7F5F9"/>
<path fill-rule="evenodd" clip-rule="evenodd" d="M142.236 171.53C140.425 171.53 138.942 170.058 138.942 168.236C138.942 166.415 140.425 164.943 142.236 164.943C144.053 164.943 145.535 166.415 145.535 168.236C145.535 170.058 144.053 171.53 142.236 171.53Z" fill="#F7F5F9"/>
<path fill-rule="evenodd" clip-rule="evenodd" d="M109.253 171.53C107.432 171.53 105.955 170.058 105.955 168.236C105.955 166.415 107.432 164.943 109.253 164.943C111.065 164.943 112.542 166.415 112.542 168.236C112.542 170.058 111.065 171.53 109.253 171.53Z" fill="#F7F5F9"/>
<path fill-rule="evenodd" clip-rule="evenodd" d="M76.2611 171.53C74.4446 171.53 72.9675 170.058 72.9675 168.236C72.9675 166.415 74.4446 164.943 76.2611 164.943C78.0776 164.943 79.5547 166.415 79.5547 168.236C79.5547 170.058 78.0776 171.53 76.2611 171.53Z" fill="#F7F5F9"/>
<path fill-rule="evenodd" clip-rule="evenodd" d="M43.2733 171.53C41.4568 171.53 39.9797 170.058 39.9797 168.236C39.9797 166.415 41.4568 164.943 43.2733 164.943C45.0848 164.943 46.5669 166.415 46.5669 168.236C46.5669 170.058 45.0848 171.53 43.2733 171.53Z" fill="#F7F5F9"/>
<path fill-rule="evenodd" clip-rule="evenodd" d="M10.2805 171.53C8.46904 171.53 6.99191 170.058 6.99191 168.236C6.99191 166.415 8.46904 164.943 10.2805 164.943C12.097 164.943 13.5791 166.415 13.5791 168.236C13.5791 170.058 12.097 171.53 10.2805 171.53Z" fill="#F7F5F9"/>
<path fill-rule="evenodd" clip-rule="evenodd" d="M142.236 204.518C140.425 204.518 138.942 203.041 138.942 201.224C138.942 199.408 140.425 197.931 142.236 197.931C144.053 197.931 145.535 199.408 145.535 201.224C145.535 203.041 144.053 204.518 142.236 204.518Z" fill="#F7F5F9"/>
<path fill-rule="evenodd" clip-rule="evenodd" d="M109.253 204.518C107.432 204.518 105.955 203.041 105.955 201.224C105.955 199.408 107.432 197.931 109.253 197.931C111.065 197.931 112.542 199.408 112.542 201.224C112.542 203.041 111.065 204.518 109.253 204.518Z" fill="#F7F5F9"/>
<path fill-rule="evenodd" clip-rule="evenodd" d="M76.2611 204.518C74.4446 204.518 72.9675 203.041 72.9675 201.224C72.9675 199.408 74.4446 197.931 76.2611 197.931C78.0776 197.931 79.5547 199.408 79.5547 201.224C79.5547 203.041 78.0776 204.518 76.2611 204.518Z" fill="#F7F5F9"/>
<path fill-rule="evenodd" clip-rule="evenodd" d="M43.2733 204.518C41.4568 204.518 39.9797 203.041 39.9797 201.224C39.9797 199.408 41.4568 197.931 43.2733 197.931C45.0848 197.931 46.5669 199.408 46.5669 201.224C46.5669 203.041 45.0848 204.518 43.2733 204.518Z" fill="#F7F5F9"/>
<path fill-rule="evenodd" clip-rule="evenodd" d="M10.2805 204.518C8.46904 204.518 6.99191 203.041 6.99191 201.224C6.99191 199.408 8.46904 197.931 10.2805 197.931C12.097 197.931 13.5791 199.408 13.5791 201.224C13.5791 203.041 12.097 204.518 10.2805 204.518Z" fill="#F7F5F9"/>
<path fill-rule="evenodd" clip-rule="evenodd" d="M142.236 237.505C140.425 237.505 138.942 236.033 138.942 234.212C138.942 232.39 140.425 230.918 142.236 230.918C144.053 230.918 145.535 232.39 145.535 234.212C145.535 236.033 144.053 237.505 142.236 237.505Z" fill="#F7F5F9"/>
<path fill-rule="evenodd" clip-rule="evenodd" d="M109.253 237.505C107.432 237.505 105.955 236.033 105.955 234.212C105.955 232.39 107.432 230.918 109.253 230.918C111.065 230.918 112.542 232.39 112.542 234.212C112.542 236.033 111.065 237.505 109.253 237.505Z" fill="#F7F5F9"/>
<path fill-rule="evenodd" clip-rule="evenodd" d="M76.2611 237.505C74.4446 237.505 72.9675 236.033 72.9675 234.212C72.9675 232.39 74.4446 230.918 76.2611 230.918C78.0776 230.918 79.5547 232.39 79.5547 234.212C79.5547 236.033 78.0776 237.505 76.2611 237.505Z" fill="#F7F5F9"/>
<path fill-rule="evenodd" clip-rule="evenodd" d="M43.2733 237.505C41.4568 237.505 39.9797 236.033 39.9797 234.212C39.9797 232.39 41.4568 230.918 43.2733 230.918C45.0848 230.918 46.5669 232.39 46.5669 234.212C46.5669 236.033 45.0848 237.505 43.2733 237.505Z" fill="#F7F5F9"/>
<path fill-rule="evenodd" clip-rule="evenodd" d="M10.2805 237.505C8.46904 237.505 6.99191 236.033 6.99191 234.212C6.99191 232.39 8.46904 230.918 10.2805 230.918C12.097 230.918 13.5791 232.39 13.5791 234.212C13.5791 236.033 12.097 237.505 10.2805 237.505Z" fill="#F7F5F9"/>
<path fill-rule="evenodd" clip-rule="evenodd" d="M142.236 270.498C140.425 270.498 138.942 269.021 138.942 267.204C138.942 265.383 140.425 263.911 142.236 263.911C144.053 263.911 145.535 265.383 145.535 267.204C145.535 269.021 144.053 270.498 142.236 270.498Z" fill="#F7F5F9"/>
<path fill-rule="evenodd" clip-rule="evenodd" d="M109.253 270.498C107.432 270.498 105.955 269.021 105.955 267.204C105.955 265.383 107.432 263.911 109.253 263.911C111.065 263.911 112.542 265.383 112.542 267.204C112.542 269.021 111.065 270.498 109.253 270.498Z" fill="#F7F5F9"/>
<path fill-rule="evenodd" clip-rule="evenodd" d="M76.2611 270.498C74.4446 270.498 72.9675 269.021 72.9675 267.204C72.9675 265.383 74.4446 263.911 76.2611 263.911C78.0776 263.911 79.5547 265.383 79.5547 267.204C79.5547 269.021 78.0776 270.498 76.2611 270.498Z" fill="#F7F5F9"/>
<path fill-rule="evenodd" clip-rule="evenodd" d="M43.2733 270.498C41.4568 270.498 39.9797 269.021 39.9797 267.204C39.9797 265.383 41.4568 263.911 43.2733 263.911C45.0848 263.911 46.5669 265.383 46.5669 267.204C46.5669 269.021 45.0848 270.498 43.2733 270.498Z" fill="#F7F5F9"/>
<path fill-rule="evenodd" clip-rule="evenodd" d="M10.2805 270.498C8.46904 270.498 6.99191 269.021 6.99191 267.204C6.99191 265.383 8.46904 263.911 10.2805 263.911C12.097 263.911 13.5791 265.383 13.5791 267.204C13.5791 269.021 12.097 270.498 10.2805 270.498Z" fill="#F7F5F9"/>
<path fill-rule="evenodd" clip-rule="evenodd" d="M142.236 303.481C140.425 303.481 138.942 302.009 138.942 300.187C138.942 298.376 140.425 296.894 142.236 296.894C144.053 296.894 145.535 298.376 145.535 300.187C145.535 302.009 144.053 303.481 142.236 303.481Z" fill="#F7F5F9"/>
<path fill-rule="evenodd" clip-rule="evenodd" d="M109.253 303.481C107.432 303.481 105.955 302.009 105.955 300.187C105.955 298.376 107.432 296.894 109.253 296.894C111.065 296.894 112.542 298.376 112.542 300.187C112.542 302.009 111.065 303.481 109.253 303.481Z" fill="#F7F5F9"/>
<path fill-rule="evenodd" clip-rule="evenodd" d="M76.2611 303.481C74.4446 303.481 72.9675 302.009 72.9675 300.187C72.9675 298.376 74.4446 296.894 76.2611 296.894C78.0776 296.894 79.5547 298.376 79.5547 300.187C79.5547 302.009 78.0776 303.481 76.2611 303.481Z" fill="#F7F5F9"/>
<path fill-rule="evenodd" clip-rule="evenodd" d="M43.2733 303.481C41.4568 303.481 39.9797 302.009 39.9797 300.187C39.9797 298.376 41.4568 296.894 43.2733 296.894C45.0848 296.894 46.5669 298.376 46.5669 300.187C46.5669 302.009 45.0848 303.481 43.2733 303.481Z" fill="#F7F5F9"/>
<path fill-rule="evenodd" clip-rule="evenodd" d="M10.2805 303.481C8.46904 303.481 6.99191 302.009 6.99191 300.187C6.99191 298.376 8.46904 296.894 10.2805 296.894C12.097 296.894 13.5791 298.376 13.5791 300.187C13.5791 302.009 12.097 303.481 10.2805 303.481Z" fill="#F7F5F9"/>
<path fill-rule="evenodd" clip-rule="evenodd" d="M142.236 336.473C140.425 336.473 138.942 335.001 138.942 333.18C138.942 331.358 140.425 329.886 142.236 329.886C144.053 329.886 145.535 331.358 145.535 333.18C145.535 335.001 144.053 336.473 142.236 336.473Z" fill="#F7F5F9"/>
<path fill-rule="evenodd" clip-rule="evenodd" d="M109.253 336.473C107.432 336.473 105.955 335.001 105.955 333.18C105.955 331.358 107.432 329.886 109.253 329.886C111.065 329.886 112.542 331.358 112.542 333.18C112.542 335.001 111.065 336.473 109.253 336.473Z" fill="#F7F5F9"/>
<path fill-rule="evenodd" clip-rule="evenodd" d="M76.2611 336.473C74.4446 336.473 72.9675 335.001 72.9675 333.18C72.9675 331.358 74.4446 329.886 76.2611 329.886C78.0776 329.886 79.5547 331.358 79.5547 333.18C79.5547 335.001 78.0776 336.473 76.2611 336.473Z" fill="#F7F5F9"/>
<path fill-rule="evenodd" clip-rule="evenodd" d="M43.2733 336.473C41.4568 336.473 39.9797 335.001 39.9797 333.18C39.9797 331.358 41.4568 329.886 43.2733 329.886C45.0848 329.886 46.5669 331.358 46.5669 333.18C46.5669 335.001 45.0848 336.473 43.2733 336.473Z" fill="#F7F5F9"/>
<path fill-rule="evenodd" clip-rule="evenodd" d="M10.2805 336.473C8.46904 336.473 6.99191 335.001 6.99191 333.18C6.99191 331.358 8.46904 329.886 10.2805 329.886C12.097 329.886 13.5791 331.358 13.5791 333.18C13.5791 335.001 12.097 336.473 10.2805 336.473Z" fill="#F7F5F9"/>
<path fill-rule="evenodd" clip-rule="evenodd" d="M142.236 369.461C140.425 369.461 138.942 367.983 138.942 366.172C138.942 364.351 140.425 362.878 142.236 362.878C144.053 362.878 145.535 364.351 145.535 366.172C145.535 367.983 144.053 369.461 142.236 369.461Z" fill="#F7F5F9"/>
<path fill-rule="evenodd" clip-rule="evenodd" d="M109.253 369.461C107.432 369.461 105.955 367.983 105.955 366.172C105.955 364.351 107.432 362.878 109.253 362.878C111.065 362.878 112.542 364.351 112.542 366.172C112.542 367.983 111.065 369.461 109.253 369.461Z" fill="#F7F5F9"/>
<path fill-rule="evenodd" clip-rule="evenodd" d="M76.2611 369.461C74.4446 369.461 72.9675 367.983 72.9675 366.172C72.9675 364.351 74.4446 362.878 76.2611 362.878C78.0776 362.878 79.5547 364.351 79.5547 366.172C79.5547 367.983 78.0776 369.461 76.2611 369.461Z" fill="#F7F5F9"/>
<path fill-rule="evenodd" clip-rule="evenodd" d="M43.2733 369.461C41.4568 369.461 39.9797 367.983 39.9797 366.172C39.9797 364.351 41.4568 362.878 43.2733 362.878C45.0848 362.878 46.5669 364.351 46.5669 366.172C46.5669 367.983 45.0848 369.461 43.2733 369.461Z" fill="#F7F5F9"/>
<path fill-rule="evenodd" clip-rule="evenodd" d="M10.2805 369.461C8.46904 369.461 6.99191 367.983 6.99191 366.172C6.99191 364.351 8.46904 362.878 10.2805 362.878C12.097 362.878 13.5791 364.351 13.5791 366.172C13.5791 367.983 12.097 369.461 10.2805 369.461Z" fill="#F7F5F9"/>
<path fill-rule="evenodd" clip-rule="evenodd" d="M142.236 402.448C140.425 402.448 138.942 400.976 138.942 399.155C138.942 397.338 140.425 395.861 142.236 395.861C144.053 395.861 145.535 397.338 145.535 399.155C145.535 400.976 144.053 402.448 142.236 402.448Z" fill="#F7F5F9"/>
<path fill-rule="evenodd" clip-rule="evenodd" d="M109.253 402.448C107.432 402.448 105.955 400.976 105.955 399.155C105.955 397.338 107.432 395.861 109.253 395.861C111.065 395.861 112.542 397.338 112.542 399.155C112.542 400.976 111.065 402.448 109.253 402.448Z" fill="#F7F5F9"/>
<path fill-rule="evenodd" clip-rule="evenodd" d="M76.2611 402.448C74.4446 402.448 72.9675 400.976 72.9675 399.155C72.9675 397.338 74.4446 395.861 76.2611 395.861C78.0776 395.861 79.5547 397.338 79.5547 399.155C79.5547 400.976 78.0776 402.448 76.2611 402.448Z" fill="#F7F5F9"/>
<path fill-rule="evenodd" clip-rule="evenodd" d="M43.2733 402.448C41.4568 402.448 39.9797 400.976 39.9797 399.155C39.9797 397.338 41.4568 395.861 43.2733 395.861C45.0848 395.861 46.5669 397.338 46.5669 399.155C46.5669 400.976 45.0848 402.448 43.2733 402.448Z" fill="#F7F5F9"/>
<path fill-rule="evenodd" clip-rule="evenodd" d="M10.2805 402.448C8.46904 402.448 6.99191 400.976 6.99191 399.155C6.99191 397.338 8.46904 395.861 10.2805 395.861C12.097 395.861 13.5791 397.338 13.5791 399.155C13.5791 400.976 12.097 402.448 10.2805 402.448Z" fill="#F7F5F9"/>
<path fill-rule="evenodd" clip-rule="evenodd" d="M142.236 435.441C140.425 435.441 138.942 433.969 138.942 432.147C138.942 430.326 140.425 428.854 142.236 428.854C144.053 428.854 145.535 430.326 145.535 432.147C145.535 433.969 144.053 435.441 142.236 435.441Z" fill="#F7F5F9"/>
<path fill-rule="evenodd" clip-rule="evenodd" d="M109.253 435.441C107.432 435.441 105.955 433.969 105.955 432.147C105.955 430.326 107.432 428.854 109.253 428.854C111.065 428.854 112.542 430.326 112.542 432.147C112.542 433.969 111.065 435.441 109.253 435.441Z" fill="#F7F5F9"/>
<path fill-rule="evenodd" clip-rule="evenodd" d="M76.2611 435.441C74.4446 435.441 72.9675 433.969 72.9675 432.147C72.9675 430.326 74.4446 428.854 76.2611 428.854C78.0776 428.854 79.5547 430.326 79.5547 432.147C79.5547 433.969 78.0776 435.441 76.2611 435.441Z" fill="#F7F5F9"/>
<path fill-rule="evenodd" clip-rule="evenodd" d="M43.2733 435.441C41.4568 435.441 39.9797 433.969 39.9797 432.147C39.9797 430.326 41.4568 428.854 43.2733 428.854C45.0848 428.854 46.5669 430.326 46.5669 432.147C46.5669 433.969 45.0848 435.441 43.2733 435.441Z" fill="#F7F5F9"/>
<path fill-rule="evenodd" clip-rule="evenodd" d="M10.2805 435.441C8.46904 435.441 6.99191 433.969 6.99191 432.147C6.99191 430.326 8.46904 428.854 10.2805 428.854C12.097 428.854 13.5791 430.326 13.5791 432.147C13.5791 433.969 12.097 435.441 10.2805 435.441Z" fill="#F7F5F9"/>
<path fill-rule="evenodd" clip-rule="evenodd" d="M142.236 468.428C140.425 468.428 138.942 466.951 138.942 465.135C138.942 463.318 140.425 461.841 142.236 461.841C144.053 461.841 145.535 463.318 145.535 465.135C145.535 466.951 144.053 468.428 142.236 468.428Z" fill="#F7F5F9"/>
<path fill-rule="evenodd" clip-rule="evenodd" d="M109.253 468.428C107.432 468.428 105.955 466.951 105.955 465.135C105.955 463.318 107.432 461.841 109.253 461.841C111.065 461.841 112.542 463.318 112.542 465.135C112.542 466.951 111.065 468.428 109.253 468.428Z" fill="#F7F5F9"/>
<path fill-rule="evenodd" clip-rule="evenodd" d="M76.2611 468.428C74.4446 468.428 72.9675 466.951 72.9675 465.135C72.9675 463.318 74.4446 461.841 76.2611 461.841C78.0776 461.841 79.5547 463.318 79.5547 465.135C79.5547 466.951 78.0776 468.428 76.2611 468.428Z" fill="#F7F5F9"/>
<path fill-rule="evenodd" clip-rule="evenodd" d="M43.2733 468.428C41.4568 468.428 39.9797 466.951 39.9797 465.135C39.9797 463.318 41.4568 461.841 43.2733 461.841C45.0848 461.841 46.5669 463.318 46.5669 465.135C46.5669 466.951 45.0848 468.428 43.2733 468.428Z" fill="#F7F5F9"/>
<path fill-rule="evenodd" clip-rule="evenodd" d="M10.2805 468.428C8.46904 468.428 6.99191 466.951 6.99191 465.135C6.99191 463.318 8.46904 461.841 10.2805 461.841C12.097 461.841 13.5791 463.318 13.5791 465.135C13.5791 466.951 12.097 468.428 10.2805 468.428Z" fill="#F7F5F9"/>
<path fill-rule="evenodd" clip-rule="evenodd" d="M142.236 501.416C140.425 501.416 138.942 499.944 138.942 498.122C138.942 496.301 140.425 494.829 142.236 494.829C144.053 494.829 145.535 496.301 145.535 498.122C145.535 499.944 144.053 501.416 142.236 501.416Z" fill="#F7F5F9"/>
<path fill-rule="evenodd" clip-rule="evenodd" d="M109.253 501.416C107.432 501.416 105.955 499.944 105.955 498.122C105.955 496.301 107.432 494.829 109.253 494.829C111.065 494.829 112.542 496.301 112.542 498.122C112.542 499.944 111.065 501.416 109.253 501.416Z" fill="#F7F5F9"/>
<path fill-rule="evenodd" clip-rule="evenodd" d="M76.2611 501.416C74.4446 501.416 72.9675 499.944 72.9675 498.122C72.9675 496.301 74.4446 494.829 76.2611 494.829C78.0776 494.829 79.5547 496.301 79.5547 498.122C79.5547 499.944 78.0776 501.416 76.2611 501.416Z" fill="#F7F5F9"/>
<path fill-rule="evenodd" clip-rule="evenodd" d="M43.2733 501.416C41.4568 501.416 39.9797 499.944 39.9797 498.122C39.9797 496.301 41.4568 494.829 43.2733 494.829C45.0848 494.829 46.5669 496.301 46.5669 498.122C46.5669 499.944 45.0848 501.416 43.2733 501.416Z" fill="#F7F5F9"/>
<path fill-rule="evenodd" clip-rule="evenodd" d="M10.2805 501.416C8.46904 501.416 6.99191 499.944 6.99191 498.122C6.99191 496.301 8.46904 494.829 10.2805 494.829C12.097 494.829 13.5791 496.301 13.5791 498.122C13.5791 499.944 12.097 501.416 10.2805 501.416Z" fill="#F7F5F9"/>
<path fill-rule="evenodd" clip-rule="evenodd" d="M142.236 534.409C140.425 534.409 138.942 532.932 138.942 531.115C138.942 529.294 140.425 527.822 142.236 527.822C144.053 527.822 145.535 529.294 145.535 531.115C145.535 532.932 144.053 534.409 142.236 534.409Z" fill="#F7F5F9"/>
<path fill-rule="evenodd" clip-rule="evenodd" d="M109.253 534.409C107.432 534.409 105.955 532.932 105.955 531.115C105.955 529.294 107.432 527.822 109.253 527.822C111.065 527.822 112.542 529.294 112.542 531.115C112.542 532.932 111.065 534.409 109.253 534.409Z" fill="#F7F5F9"/>
<path fill-rule="evenodd" clip-rule="evenodd" d="M76.2611 534.409C74.4446 534.409 72.9675 532.932 72.9675 531.115C72.9675 529.294 74.4446 527.822 76.2611 527.822C78.0776 527.822 79.5547 529.294 79.5547 531.115C79.5547 532.932 78.0776 534.409 76.2611 534.409Z" fill="#F7F5F9"/>
<path fill-rule="evenodd" clip-rule="evenodd" d="M43.2733 534.409C41.4568 534.409 39.9797 532.932 39.9797 531.115C39.9797 529.294 41.4568 527.822 43.2733 527.822C45.0848 527.822 46.5669 529.294 46.5669 531.115C46.5669 532.932 45.0848 534.409 43.2733 534.409Z" fill="#F7F5F9"/>
<path fill-rule="evenodd" clip-rule="evenodd" d="M10.2805 534.409C8.46904 534.409 6.99191 532.932 6.99191 531.115C6.99191 529.294 8.46904 527.822 10.2805 527.822C12.097 527.822 13.5791 529.294 13.5791 531.115C13.5791 532.932 12.097 534.409 10.2805 534.409Z" fill="#F7F5F9"/>
<path fill-rule="evenodd" clip-rule="evenodd" d="M142.236 567.391C140.425 567.391 138.942 565.919 138.942 564.097C138.942 562.286 140.425 560.804 142.236 560.804C144.053 560.804 145.535 562.286 145.535 564.097C145.535 565.919 144.053 567.391 142.236 567.391Z" fill="#F7F5F9"/>
<path fill-rule="evenodd" clip-rule="evenodd" d="M109.253 567.391C107.432 567.391 105.955 565.919 105.955 564.097C105.955 562.286 107.432 560.804 109.253 560.804C111.065 560.804 112.542 562.286 112.542 564.097C112.542 565.919 111.065 567.391 109.253 567.391Z" fill="#F7F5F9"/>
<path fill-rule="evenodd" clip-rule="evenodd" d="M76.2611 567.391C74.4446 567.391 72.9675 565.919 72.9675 564.097C72.9675 562.286 74.4446 560.804 76.2611 560.804C78.0776 560.804 79.5547 562.286 79.5547 564.097C79.5547 565.919 78.0776 567.391 76.2611 567.391Z" fill="#F7F5F9"/>
<path fill-rule="evenodd" clip-rule="evenodd" d="M43.2733 567.391C41.4568 567.391 39.9797 565.919 39.9797 564.097C39.9797 562.286 41.4568 560.804 43.2733 560.804C45.0848 560.804 46.5669 562.286 46.5669 564.097C46.5669 565.919 45.0848 567.391 43.2733 567.391Z" fill="#F7F5F9"/>
<path fill-rule="evenodd" clip-rule="evenodd" d="M10.2805 567.391C8.46904 567.391 6.99191 565.919 6.99191 564.097C6.99191 562.286 8.46904 560.804 10.2805 560.804C12.097 560.804 13.5791 562.286 13.5791 564.097C13.5791 565.919 12.097 567.391 10.2805 567.391Z" fill="#F7F5F9"/>
<path fill-rule="evenodd" clip-rule="evenodd" d="M142.236 600.384C140.425 600.384 138.942 598.912 138.942 597.09C138.942 595.269 140.425 593.797 142.236 593.797C144.053 593.797 145.535 595.269 145.535 597.09C145.535 598.912 144.053 600.384 142.236 600.384Z" fill="#F7F5F9"/>
<path fill-rule="evenodd" clip-rule="evenodd" d="M109.253 600.384C107.432 600.384 105.955 598.912 105.955 597.09C105.955 595.269 107.432 593.797 109.253 593.797C111.065 593.797 112.542 595.269 112.542 597.09C112.542 598.912 111.065 600.384 109.253 600.384Z" fill="#F7F5F9"/>
<path fill-rule="evenodd" clip-rule="evenodd" d="M76.2611 600.384C74.4446 600.384 72.9675 598.912 72.9675 597.09C72.9675 595.269 74.4446 593.797 76.2611 593.797C78.0776 593.797 79.5547 595.269 79.5547 597.09C79.5547 598.912 78.0776 600.384 76.2611 600.384Z" fill="#F7F5F9"/>
<path fill-rule="evenodd" clip-rule="evenodd" d="M43.2733 600.384C41.4568 600.384 39.9797 598.912 39.9797 597.09C39.9797 595.269 41.4568 593.797 43.2733 593.797C45.0848 593.797 46.5669 595.269 46.5669 597.09C46.5669 598.912 45.0848 600.384 43.2733 600.384Z" fill="#F7F5F9"/>
<path fill-rule="evenodd" clip-rule="evenodd" d="M10.2805 600.384C8.46904 600.384 6.99191 598.912 6.99191 597.09C6.99191 595.269 8.46904 593.797 10.2805 593.797C12.097 593.797 13.5791 595.269 13.5791 597.09C13.5791 598.912 12.097 600.384 10.2805 600.384Z" fill="#F7F5F9"/>
<path fill-rule="evenodd" clip-rule="evenodd" d="M142.236 292.587C140.425 292.587 138.942 291.11 138.942 289.294C138.942 287.472 140.425 286 142.236 286C144.053 286 145.535 287.472 145.535 289.294C145.535 291.11 144.053 292.587 142.236 292.587Z" fill="#F7F5F9"/>
<path fill-rule="evenodd" clip-rule="evenodd" d="M109.253 292.587C107.432 292.587 105.955 291.11 105.955 289.294C105.955 287.472 107.432 286 109.253 286C111.065 286 112.542 287.472 112.542 289.294C112.542 291.11 111.065 292.587 109.253 292.587Z" fill="#F7F5F9"/>
<path fill-rule="evenodd" clip-rule="evenodd" d="M76.2611 292.587C74.4446 292.587 72.9675 291.11 72.9675 289.294C72.9675 287.472 74.4446 286 76.2611 286C78.0776 286 79.5547 287.472 79.5547 289.294C79.5547 291.11 78.0776 292.587 76.2611 292.587Z" fill="#F7F5F9"/>
<path fill-rule="evenodd" clip-rule="evenodd" d="M43.2733 292.587C41.4568 292.587 39.9797 291.11 39.9797 289.294C39.9797 287.472 41.4568 286 43.2733 286C45.0848 286 46.5669 287.472 46.5669 289.294C46.5669 291.11 45.0848 292.587 43.2733 292.587Z" fill="#F7F5F9"/>
<path fill-rule="evenodd" clip-rule="evenodd" d="M10.2805 292.587C8.46904 292.587 6.99191 291.11 6.99191 289.294C6.99191 287.472 8.46904 286 10.2805 286C12.097 286 13.5791 287.472 13.5791 289.294C13.5791 291.11 12.097 292.587 10.2805 292.587Z" fill="#F7F5F9"/>
<path fill-rule="evenodd" clip-rule="evenodd" d="M142.236 325.57C140.425 325.57 138.942 324.098 138.942 322.277C138.942 320.46 140.425 318.983 142.236 318.983C144.053 318.983 145.535 320.46 145.535 322.277C145.535 324.098 144.053 325.57 142.236 325.57Z" fill="#F7F5F9"/>
<path fill-rule="evenodd" clip-rule="evenodd" d="M109.253 325.57C107.432 325.57 105.955 324.098 105.955 322.277C105.955 320.46 107.432 318.983 109.253 318.983C111.065 318.983 112.542 320.46 112.542 322.277C112.542 324.098 111.065 325.57 109.253 325.57Z" fill="#F7F5F9"/>
<path fill-rule="evenodd" clip-rule="evenodd" d="M76.2611 325.57C74.4446 325.57 72.9675 324.098 72.9675 322.277C72.9675 320.46 74.4446 318.983 76.2611 318.983C78.0776 318.983 79.5547 320.46 79.5547 322.277C79.5547 324.098 78.0776 325.57 76.2611 325.57Z" fill="#F7F5F9"/>
<path fill-rule="evenodd" clip-rule="evenodd" d="M43.2733 325.57C41.4568 325.57 39.9797 324.098 39.9797 322.277C39.9797 320.46 41.4568 318.983 43.2733 318.983C45.0848 318.983 46.5669 320.46 46.5669 322.277C46.5669 324.098 45.0848 325.57 43.2733 325.57Z" fill="#F7F5F9"/>
<path fill-rule="evenodd" clip-rule="evenodd" d="M10.2805 325.57C8.46904 325.57 6.99191 324.098 6.99191 322.277C6.99191 320.46 8.46904 318.983 10.2805 318.983C12.097 318.983 13.5791 320.46 13.5791 322.277C13.5791 324.098 12.097 325.57 10.2805 325.57Z" fill="#F7F5F9"/>
<path fill-rule="evenodd" clip-rule="evenodd" d="M142.236 358.562C140.425 358.562 138.942 357.09 138.942 355.269C138.942 353.447 140.425 351.975 142.236 351.975C144.053 351.975 145.535 353.447 145.535 355.269C145.535 357.09 144.053 358.562 142.236 358.562Z" fill="#F7F5F9"/>
<path fill-rule="evenodd" clip-rule="evenodd" d="M109.253 358.562C107.432 358.562 105.955 357.09 105.955 355.269C105.955 353.447 107.432 351.975 109.253 351.975C111.065 351.975 112.542 353.447 112.542 355.269C112.542 357.09 111.065 358.562 109.253 358.562Z" fill="#F7F5F9"/>
<path fill-rule="evenodd" clip-rule="evenodd" d="M76.2611 358.562C74.4446 358.562 72.9675 357.09 72.9675 355.269C72.9675 353.447 74.4446 351.975 76.2611 351.975C78.0776 351.975 79.5547 353.447 79.5547 355.269C79.5547 357.09 78.0776 358.562 76.2611 358.562Z" fill="#F7F5F9"/>
<path fill-rule="evenodd" clip-rule="evenodd" d="M43.2733 358.562C41.4568 358.562 39.9797 357.09 39.9797 355.269C39.9797 353.447 41.4568 351.975 43.2733 351.975C45.0848 351.975 46.5669 353.447 46.5669 355.269C46.5669 357.09 45.0848 358.562 43.2733 358.562Z" fill="#F7F5F9"/>
<path fill-rule="evenodd" clip-rule="evenodd" d="M10.2805 358.562C8.46904 358.562 6.99191 357.09 6.99191 355.269C6.99191 353.447 8.46904 351.975 10.2805 351.975C12.097 351.975 13.5791 353.447 13.5791 355.269C13.5791 357.09 12.097 358.562 10.2805 358.562Z" fill="#F7F5F9"/>
<path fill-rule="evenodd" clip-rule="evenodd" d="M142.236 391.55C140.425 391.55 138.942 390.073 138.942 388.257C138.942 386.44 140.425 384.968 142.236 384.968C144.053 384.968 145.535 386.44 145.535 388.257C145.535 390.073 144.053 391.55 142.236 391.55Z" fill="#F7F5F9"/>
<path fill-rule="evenodd" clip-rule="evenodd" d="M109.253 391.55C107.432 391.55 105.955 390.073 105.955 388.257C105.955 386.44 107.432 384.968 109.253 384.968C111.065 384.968 112.542 386.44 112.542 388.257C112.542 390.073 111.065 391.55 109.253 391.55Z" fill="#F7F5F9"/>
<path fill-rule="evenodd" clip-rule="evenodd" d="M76.2611 391.55C74.4446 391.55 72.9675 390.073 72.9675 388.257C72.9675 386.44 74.4446 384.968 76.2611 384.968C78.0776 384.968 79.5547 386.44 79.5547 388.257C79.5547 390.073 78.0776 391.55 76.2611 391.55Z" fill="#F7F5F9"/>
<path fill-rule="evenodd" clip-rule="evenodd" d="M43.2733 391.55C41.4568 391.55 39.9797 390.073 39.9797 388.257C39.9797 386.44 41.4568 384.968 43.2733 384.968C45.0848 384.968 46.5669 386.44 46.5669 388.257C46.5669 390.073 45.0848 391.55 43.2733 391.55Z" fill="#F7F5F9"/>
<path fill-rule="evenodd" clip-rule="evenodd" d="M10.2805 391.55C8.46904 391.55 6.99191 390.073 6.99191 388.257C6.99191 386.44 8.46904 384.968 10.2805 384.968C12.097 384.968 13.5791 386.44 13.5791 388.257C13.5791 390.073 12.097 391.55 10.2805 391.55Z" fill="#F7F5F9"/>
<path fill-rule="evenodd" clip-rule="evenodd" d="M142.236 424.538C140.425 424.538 138.942 423.065 138.942 421.244C138.942 419.428 140.425 417.95 142.236 417.95C144.053 417.95 145.535 419.428 145.535 421.244C145.535 423.065 144.053 424.538 142.236 424.538Z" fill="#F7F5F9"/>
<path fill-rule="evenodd" clip-rule="evenodd" d="M109.253 424.538C107.432 424.538 105.955 423.065 105.955 421.244C105.955 419.428 107.432 417.95 109.253 417.95C111.065 417.95 112.542 419.428 112.542 421.244C112.542 423.065 111.065 424.538 109.253 424.538Z" fill="#F7F5F9"/>
<path fill-rule="evenodd" clip-rule="evenodd" d="M76.2611 424.538C74.4446 424.538 72.9675 423.065 72.9675 421.244C72.9675 419.428 74.4446 417.95 76.2611 417.95C78.0776 417.95 79.5547 419.428 79.5547 421.244C79.5547 423.065 78.0776 424.538 76.2611 424.538Z" fill="#F7F5F9"/>
<path fill-rule="evenodd" clip-rule="evenodd" d="M43.2733 424.538C41.4568 424.538 39.9797 423.065 39.9797 421.244C39.9797 419.428 41.4568 417.95 43.2733 417.95C45.0848 417.95 46.5669 419.428 46.5669 421.244C46.5669 423.065 45.0848 424.538 43.2733 424.538Z" fill="#F7F5F9"/>
<path fill-rule="evenodd" clip-rule="evenodd" d="M10.2805 424.538C8.46904 424.538 6.99191 423.065 6.99191 421.244C6.99191 419.428 8.46904 417.95 10.2805 417.95C12.097 417.95 13.5791 419.428 13.5791 421.244C13.5791 423.065 12.097 424.538 10.2805 424.538Z" fill="#F7F5F9"/>
<path fill-rule="evenodd" clip-rule="evenodd" d="M142.236 457.53C140.425 457.53 138.942 456.058 138.942 454.236C138.942 452.415 140.425 450.943 142.236 450.943C144.053 450.943 145.535 452.415 145.535 454.236C145.535 456.058 144.053 457.53 142.236 457.53Z" fill="#F7F5F9"/>
<path fill-rule="evenodd" clip-rule="evenodd" d="M109.253 457.53C107.432 457.53 105.955 456.058 105.955 454.236C105.955 452.415 107.432 450.943 109.253 450.943C111.065 450.943 112.542 452.415 112.542 454.236C112.542 456.058 111.065 457.53 109.253 457.53Z" fill="#F7F5F9"/>
<path fill-rule="evenodd" clip-rule="evenodd" d="M76.2611 457.53C74.4446 457.53 72.9675 456.058 72.9675 454.236C72.9675 452.415 74.4446 450.943 76.2611 450.943C78.0776 450.943 79.5547 452.415 79.5547 454.236C79.5547 456.058 78.0776 457.53 76.2611 457.53Z" fill="#F7F5F9"/>
<path fill-rule="evenodd" clip-rule="evenodd" d="M43.2733 457.53C41.4568 457.53 39.9797 456.058 39.9797 454.236C39.9797 452.415 41.4568 450.943 43.2733 450.943C45.0848 450.943 46.5669 452.415 46.5669 454.236C46.5669 456.058 45.0848 457.53 43.2733 457.53Z" fill="#F7F5F9"/>
<path fill-rule="evenodd" clip-rule="evenodd" d="M10.2805 457.53C8.46904 457.53 6.99191 456.058 6.99191 454.236C6.99191 452.415 8.46904 450.943 10.2805 450.943C12.097 450.943 13.5791 452.415 13.5791 454.236C13.5791 456.058 12.097 457.53 10.2805 457.53Z" fill="#F7F5F9"/>
<path fill-rule="evenodd" clip-rule="evenodd" d="M142.236 490.518C140.425 490.518 138.942 489.041 138.942 487.224C138.942 485.408 140.425 483.931 142.236 483.931C144.053 483.931 145.535 485.408 145.535 487.224C145.535 489.041 144.053 490.518 142.236 490.518Z" fill="#F7F5F9"/>
<path fill-rule="evenodd" clip-rule="evenodd" d="M109.253 490.518C107.432 490.518 105.955 489.041 105.955 487.224C105.955 485.408 107.432 483.931 109.253 483.931C111.065 483.931 112.542 485.408 112.542 487.224C112.542 489.041 111.065 490.518 109.253 490.518Z" fill="#F7F5F9"/>
<path fill-rule="evenodd" clip-rule="evenodd" d="M76.2611 490.518C74.4446 490.518 72.9675 489.041 72.9675 487.224C72.9675 485.408 74.4446 483.931 76.2611 483.931C78.0776 483.931 79.5547 485.408 79.5547 487.224C79.5547 489.041 78.0776 490.518 76.2611 490.518Z" fill="#F7F5F9"/>
<path fill-rule="evenodd" clip-rule="evenodd" d="M43.2733 490.518C41.4568 490.518 39.9797 489.041 39.9797 487.224C39.9797 485.408 41.4568 483.931 43.2733 483.931C45.0848 483.931 46.5669 485.408 46.5669 487.224C46.5669 489.041 45.0848 490.518 43.2733 490.518Z" fill="#F7F5F9"/>
<path fill-rule="evenodd" clip-rule="evenodd" d="M10.2805 490.518C8.46904 490.518 6.99191 489.041 6.99191 487.224C6.99191 485.408 8.46904 483.931 10.2805 483.931C12.097 483.931 13.5791 485.408 13.5791 487.224C13.5791 489.041 12.097 490.518 10.2805 490.518Z" fill="#F7F5F9"/>
<path fill-rule="evenodd" clip-rule="evenodd" d="M142.236 523.505C140.425 523.505 138.942 522.033 138.942 520.212C138.942 518.39 140.425 516.918 142.236 516.918C144.053 516.918 145.535 518.39 145.535 520.212C145.535 522.033 144.053 523.505 142.236 523.505Z" fill="#F7F5F9"/>
<path fill-rule="evenodd" clip-rule="evenodd" d="M109.253 523.505C107.432 523.505 105.955 522.033 105.955 520.212C105.955 518.39 107.432 516.918 109.253 516.918C111.065 516.918 112.542 518.39 112.542 520.212C112.542 522.033 111.065 523.505 109.253 523.505Z" fill="#F7F5F9"/>
<path fill-rule="evenodd" clip-rule="evenodd" d="M76.2611 523.505C74.4446 523.505 72.9675 522.033 72.9675 520.212C72.9675 518.39 74.4446 516.918 76.2611 516.918C78.0776 516.918 79.5547 518.39 79.5547 520.212C79.5547 522.033 78.0776 523.505 76.2611 523.505Z" fill="#F7F5F9"/>
<path fill-rule="evenodd" clip-rule="evenodd" d="M43.2733 523.505C41.4568 523.505 39.9797 522.033 39.9797 520.212C39.9797 518.39 41.4568 516.918 43.2733 516.918C45.0848 516.918 46.5669 518.39 46.5669 520.212C46.5669 522.033 45.0848 523.505 43.2733 523.505Z" fill="#F7F5F9"/>
<path fill-rule="evenodd" clip-rule="evenodd" d="M10.2805 523.505C8.46904 523.505 6.99191 522.033 6.99191 520.212C6.99191 518.39 8.46904 516.918 10.2805 516.918C12.097 516.918 13.5791 518.39 13.5791 520.212C13.5791 522.033 12.097 523.505 10.2805 523.505Z" fill="#F7F5F9"/>
<path fill-rule="evenodd" clip-rule="evenodd" d="M142.236 556.498C140.425 556.498 138.942 555.021 138.942 553.204C138.942 551.383 140.425 549.911 142.236 549.911C144.053 549.911 145.535 551.383 145.535 553.204C145.535 555.021 144.053 556.498 142.236 556.498Z" fill="#F7F5F9"/>
<path fill-rule="evenodd" clip-rule="evenodd" d="M109.253 556.498C107.432 556.498 105.955 555.021 105.955 553.204C105.955 551.383 107.432 549.911 109.253 549.911C111.065 549.911 112.542 551.383 112.542 553.204C112.542 555.021 111.065 556.498 109.253 556.498Z" fill="#F7F5F9"/>
<path fill-rule="evenodd" clip-rule="evenodd" d="M76.2611 556.498C74.4446 556.498 72.9675 555.021 72.9675 553.204C72.9675 551.383 74.4446 549.911 76.2611 549.911C78.0776 549.911 79.5547 551.383 79.5547 553.204C79.5547 555.021 78.0776 556.498 76.2611 556.498Z" fill="#F7F5F9"/>
<path fill-rule="evenodd" clip-rule="evenodd" d="M43.2733 556.498C41.4568 556.498 39.9797 555.021 39.9797 553.204C39.9797 551.383 41.4568 549.911 43.2733 549.911C45.0848 549.911 46.5669 551.383 46.5669 553.204C46.5669 555.021 45.0848 556.498 43.2733 556.498Z" fill="#F7F5F9"/>
<path fill-rule="evenodd" clip-rule="evenodd" d="M10.2805 556.498C8.46904 556.498 6.99191 555.021 6.99191 553.204C6.99191 551.383 8.46904 549.911 10.2805 549.911C12.097 549.911 13.5791 551.383 13.5791 553.204C13.5791 555.021 12.097 556.498 10.2805 556.498Z" fill="#F7F5F9"/>
<path fill-rule="evenodd" clip-rule="evenodd" d="M142.236 589.481C140.425 589.481 138.942 588.009 138.942 586.187C138.942 584.376 140.425 582.894 142.236 582.894C144.053 582.894 145.535 584.376 145.535 586.187C145.535 588.009 144.053 589.481 142.236 589.481Z" fill="#F7F5F9"/>
<path fill-rule="evenodd" clip-rule="evenodd" d="M109.253 589.481C107.432 589.481 105.955 588.009 105.955 586.187C105.955 584.376 107.432 582.894 109.253 582.894C111.065 582.894 112.542 584.376 112.542 586.187C112.542 588.009 111.065 589.481 109.253 589.481Z" fill="#F7F5F9"/>
<path fill-rule="evenodd" clip-rule="evenodd" d="M76.2611 589.481C74.4446 589.481 72.9675 588.009 72.9675 586.187C72.9675 584.376 74.4446 582.894 76.2611 582.894C78.0776 582.894 79.5547 584.376 79.5547 586.187C79.5547 588.009 78.0776 589.481 76.2611 589.481Z" fill="#F7F5F9"/>
<path fill-rule="evenodd" clip-rule="evenodd" d="M43.2733 589.481C41.4568 589.481 39.9797 588.009 39.9797 586.187C39.9797 584.376 41.4568 582.894 43.2733 582.894C45.0848 582.894 46.5669 584.376 46.5669 586.187C46.5669 588.009 45.0848 589.481 43.2733 589.481Z" fill="#F7F5F9"/>
<path fill-rule="evenodd" clip-rule="evenodd" d="M10.2805 589.481C8.46904 589.481 6.99191 588.009 6.99191 586.187C6.99191 584.376 8.46904 582.894 10.2805 582.894C12.097 582.894 13.5791 584.376 13.5791 586.187C13.5791 588.009 12.097 589.481 10.2805 589.481Z" fill="#F7F5F9"/>
<path fill-rule="evenodd" clip-rule="evenodd" d="M142.236 622.473C140.425 622.473 138.942 621.001 138.942 619.18C138.942 617.358 140.425 615.886 142.236 615.886C144.053 615.886 145.535 617.358 145.535 619.18C145.535 621.001 144.053 622.473 142.236 622.473Z" fill="#F7F5F9"/>
<path fill-rule="evenodd" clip-rule="evenodd" d="M109.253 622.473C107.432 622.473 105.955 621.001 105.955 619.18C105.955 617.358 107.432 615.886 109.253 615.886C111.065 615.886 112.542 617.358 112.542 619.18C112.542 621.001 111.065 622.473 109.253 622.473Z" fill="#F7F5F9"/>
<path fill-rule="evenodd" clip-rule="evenodd" d="M76.2611 622.473C74.4446 622.473 72.9675 621.001 72.9675 619.18C72.9675 617.358 74.4446 615.886 76.2611 615.886C78.0776 615.886 79.5547 617.358 79.5547 619.18C79.5547 621.001 78.0776 622.473 76.2611 622.473Z" fill="#F7F5F9"/>
<path fill-rule="evenodd" clip-rule="evenodd" d="M43.2733 622.473C41.4568 622.473 39.9797 621.001 39.9797 619.18C39.9797 617.358 41.4568 615.886 43.2733 615.886C45.0848 615.886 46.5669 617.358 46.5669 619.18C46.5669 621.001 45.0848 622.473 43.2733 622.473Z" fill="#F7F5F9"/>
<path fill-rule="evenodd" clip-rule="evenodd" d="M10.2805 622.473C8.46904 622.473 6.99191 621.001 6.99191 619.18C6.99191 617.358 8.46904 615.886 10.2805 615.886C12.097 615.886 13.5791 617.358 13.5791 619.18C13.5791 621.001 12.097 622.473 10.2805 622.473Z" fill="#F7F5F9"/>
<path fill-rule="evenodd" clip-rule="evenodd" d="M142.236 655.461C140.425 655.461 138.942 653.983 138.942 652.172C138.942 650.351 140.425 648.878 142.236 648.878C144.053 648.878 145.535 650.351 145.535 652.172C145.535 653.983 144.053 655.461 142.236 655.461Z" fill="#F7F5F9"/>
<path fill-rule="evenodd" clip-rule="evenodd" d="M109.253 655.461C107.432 655.461 105.955 653.983 105.955 652.172C105.955 650.351 107.432 648.878 109.253 648.878C111.065 648.878 112.542 650.351 112.542 652.172C112.542 653.983 111.065 655.461 109.253 655.461Z" fill="#F7F5F9"/>
<path fill-rule="evenodd" clip-rule="evenodd" d="M76.2611 655.461C74.4446 655.461 72.9675 653.983 72.9675 652.172C72.9675 650.351 74.4446 648.878 76.2611 648.878C78.0776 648.878 79.5547 650.351 79.5547 652.172C79.5547 653.983 78.0776 655.461 76.2611 655.461Z" fill="#F7F5F9"/>
<path fill-rule="evenodd" clip-rule="evenodd" d="M43.2733 655.461C41.4568 655.461 39.9797 653.983 39.9797 652.172C39.9797 650.351 41.4568 648.878 43.2733 648.878C45.0848 648.878 46.5669 650.351 46.5669 652.172C46.5669 653.983 45.0848 655.461 43.2733 655.461Z" fill="#F7F5F9"/>
<path fill-rule="evenodd" clip-rule="evenodd" d="M10.2805 655.461C8.46904 655.461 6.99191 653.983 6.99191 652.172C6.99191 650.351 8.46904 648.878 10.2805 648.878C12.097 648.878 13.5791 650.351 13.5791 652.172C13.5791 653.983 12.097 655.461 10.2805 655.461Z" fill="#F7F5F9"/>
<path fill-rule="evenodd" clip-rule="evenodd" d="M142.236 688.448C140.425 688.448 138.942 686.976 138.942 685.155C138.942 683.338 140.425 681.861 142.236 681.861C144.053 681.861 145.535 683.338 145.535 685.155C145.535 686.976 144.053 688.448 142.236 688.448Z" fill="#F7F5F9"/>
<path fill-rule="evenodd" clip-rule="evenodd" d="M109.253 688.448C107.432 688.448 105.955 686.976 105.955 685.155C105.955 683.338 107.432 681.861 109.253 681.861C111.065 681.861 112.542 683.338 112.542 685.155C112.542 686.976 111.065 688.448 109.253 688.448Z" fill="#F7F5F9"/>
<path fill-rule="evenodd" clip-rule="evenodd" d="M76.2611 688.448C74.4446 688.448 72.9675 686.976 72.9675 685.155C72.9675 683.338 74.4446 681.861 76.2611 681.861C78.0776 681.861 79.5547 683.338 79.5547 685.155C79.5547 686.976 78.0776 688.448 76.2611 688.448Z" fill="#F7F5F9"/>
<path fill-rule="evenodd" clip-rule="evenodd" d="M43.2733 688.448C41.4568 688.448 39.9797 686.976 39.9797 685.155C39.9797 683.338 41.4568 681.861 43.2733 681.861C45.0848 681.861 46.5669 683.338 46.5669 685.155C46.5669 686.976 45.0848 688.448 43.2733 688.448Z" fill="#F7F5F9"/>
<path fill-rule="evenodd" clip-rule="evenodd" d="M10.2805 688.448C8.46904 688.448 6.99191 686.976 6.99191 685.155C6.99191 683.338 8.46904 681.861 10.2805 681.861C12.097 681.861 13.5791 683.338 13.5791 685.155C13.5791 686.976 12.097 688.448 10.2805 688.448Z" fill="#F7F5F9"/>
<path fill-rule="evenodd" clip-rule="evenodd" d="M142.236 721.441C140.425 721.441 138.942 719.969 138.942 718.147C138.942 716.326 140.425 714.854 142.236 714.854C144.053 714.854 145.535 716.326 145.535 718.147C145.535 719.969 144.053 721.441 142.236 721.441Z" fill="#F7F5F9"/>
<path fill-rule="evenodd" clip-rule="evenodd" d="M109.253 721.441C107.432 721.441 105.955 719.969 105.955 718.147C105.955 716.326 107.432 714.854 109.253 714.854C111.065 714.854 112.542 716.326 112.542 718.147C112.542 719.969 111.065 721.441 109.253 721.441Z" fill="#F7F5F9"/>
<path fill-rule="evenodd" clip-rule="evenodd" d="M76.2611 721.441C74.4446 721.441 72.9675 719.969 72.9675 718.147C72.9675 716.326 74.4446 714.854 76.2611 714.854C78.0776 714.854 79.5547 716.326 79.5547 718.147C79.5547 719.969 78.0776 721.441 76.2611 721.441Z" fill="#F7F5F9"/>
<path fill-rule="evenodd" clip-rule="evenodd" d="M43.2733 721.441C41.4568 721.441 39.9797 719.969 39.9797 718.147C39.9797 716.326 41.4568 714.854 43.2733 714.854C45.0848 714.854 46.5669 716.326 46.5669 718.147C46.5669 719.969 45.0848 721.441 43.2733 721.441Z" fill="#F7F5F9"/>
<path fill-rule="evenodd" clip-rule="evenodd" d="M10.2805 721.441C8.46904 721.441 6.99191 719.969 6.99191 718.147C6.99191 716.326 8.46904 714.854 10.2805 714.854C12.097 714.854 13.5791 716.326 13.5791 718.147C13.5791 719.969 12.097 721.441 10.2805 721.441Z" fill="#F7F5F9"/>
<path fill-rule="evenodd" clip-rule="evenodd" d="M142.236 754.428C140.425 754.428 138.942 752.951 138.942 751.135C138.942 749.318 140.425 747.841 142.236 747.841C144.053 747.841 145.535 749.318 145.535 751.135C145.535 752.951 144.053 754.428 142.236 754.428Z" fill="#F7F5F9"/>
<path fill-rule="evenodd" clip-rule="evenodd" d="M109.253 754.428C107.432 754.428 105.955 752.951 105.955 751.135C105.955 749.318 107.432 747.841 109.253 747.841C111.065 747.841 112.542 749.318 112.542 751.135C112.542 752.951 111.065 754.428 109.253 754.428Z" fill="#F7F5F9"/>
<path fill-rule="evenodd" clip-rule="evenodd" d="M76.2611 754.428C74.4446 754.428 72.9675 752.951 72.9675 751.135C72.9675 749.318 74.4446 747.841 76.2611 747.841C78.0776 747.841 79.5547 749.318 79.5547 751.135C79.5547 752.951 78.0776 754.428 76.2611 754.428Z" fill="#F7F5F9"/>
<path fill-rule="evenodd" clip-rule="evenodd" d="M43.2733 754.428C41.4568 754.428 39.9797 752.951 39.9797 751.135C39.9797 749.318 41.4568 747.841 43.2733 747.841C45.0848 747.841 46.5669 749.318 46.5669 751.135C46.5669 752.951 45.0848 754.428 43.2733 754.428Z" fill="#F7F5F9"/>
<path fill-rule="evenodd" clip-rule="evenodd" d="M10.2805 754.428C8.46904 754.428 6.99191 752.951 6.99191 751.135C6.99191 749.318 8.46904 747.841 10.2805 747.841C12.097 747.841 13.5791 749.318 13.5791 751.135C13.5791 752.951 12.097 754.428 10.2805 754.428Z" fill="#F7F5F9"/>
<path fill-rule="evenodd" clip-rule="evenodd" d="M142.236 787.416C140.425 787.416 138.942 785.944 138.942 784.122C138.942 782.301 140.425 780.829 142.236 780.829C144.053 780.829 145.535 782.301 145.535 784.122C145.535 785.944 144.053 787.416 142.236 787.416Z" fill="#F7F5F9"/>
<path fill-rule="evenodd" clip-rule="evenodd" d="M109.253 787.416C107.432 787.416 105.955 785.944 105.955 784.122C105.955 782.301 107.432 780.829 109.253 780.829C111.065 780.829 112.542 782.301 112.542 784.122C112.542 785.944 111.065 787.416 109.253 787.416Z" fill="#F7F5F9"/>
<path fill-rule="evenodd" clip-rule="evenodd" d="M76.2611 787.416C74.4446 787.416 72.9675 785.944 72.9675 784.122C72.9675 782.301 74.4446 780.829 76.2611 780.829C78.0776 780.829 79.5547 782.301 79.5547 784.122C79.5547 785.944 78.0776 787.416 76.2611 787.416Z" fill="#F7F5F9"/>
<path fill-rule="evenodd" clip-rule="evenodd" d="M43.2733 787.416C41.4568 787.416 39.9797 785.944 39.9797 784.122C39.9797 782.301 41.4568 780.829 43.2733 780.829C45.0848 780.829 46.5669 782.301 46.5669 784.122C46.5669 785.944 45.0848 787.416 43.2733 787.416Z" fill="#F7F5F9"/>
<path fill-rule="evenodd" clip-rule="evenodd" d="M10.2805 787.416C8.46904 787.416 6.99191 785.944 6.99191 784.122C6.99191 782.301 8.46904 780.829 10.2805 780.829C12.097 780.829 13.5791 782.301 13.5791 784.122C13.5791 785.944 12.097 787.416 10.2805 787.416Z" fill="#F7F5F9"/>
<path fill-rule="evenodd" clip-rule="evenodd" d="M142.236 820.409C140.425 820.409 138.942 818.932 138.942 817.115C138.942 815.294 140.425 813.822 142.236 813.822C144.053 813.822 145.535 815.294 145.535 817.115C145.535 818.932 144.053 820.409 142.236 820.409Z" fill="#F7F5F9"/>
<path fill-rule="evenodd" clip-rule="evenodd" d="M109.253 820.409C107.432 820.409 105.955 818.932 105.955 817.115C105.955 815.294 107.432 813.822 109.253 813.822C111.065 813.822 112.542 815.294 112.542 817.115C112.542 818.932 111.065 820.409 109.253 820.409Z" fill="#F7F5F9"/>
<path fill-rule="evenodd" clip-rule="evenodd" d="M76.2611 820.409C74.4446 820.409 72.9675 818.932 72.9675 817.115C72.9675 815.294 74.4446 813.822 76.2611 813.822C78.0776 813.822 79.5547 815.294 79.5547 817.115C79.5547 818.932 78.0776 820.409 76.2611 820.409Z" fill="#F7F5F9"/>
<path fill-rule="evenodd" clip-rule="evenodd" d="M43.2733 820.409C41.4568 820.409 39.9797 818.932 39.9797 817.115C39.9797 815.294 41.4568 813.822 43.2733 813.822C45.0848 813.822 46.5669 815.294 46.5669 817.115C46.5669 818.932 45.0848 820.409 43.2733 820.409Z" fill="#F7F5F9"/>
<path fill-rule="evenodd" clip-rule="evenodd" d="M10.2805 820.409C8.46904 820.409 6.99191 818.932 6.99191 817.115C6.99191 815.294 8.46904 813.822 10.2805 813.822C12.097 813.822 13.5791 815.294 13.5791 817.115C13.5791 818.932 12.097 820.409 10.2805 820.409Z" fill="#F7F5F9"/>
<path fill-rule="evenodd" clip-rule="evenodd" d="M142.236 853.391C140.425 853.391 138.942 851.919 138.942 850.097C138.942 848.286 140.425 846.804 142.236 846.804C144.053 846.804 145.535 848.286 145.535 850.097C145.535 851.919 144.053 853.391 142.236 853.391Z" fill="#F7F5F9"/>
<path fill-rule="evenodd" clip-rule="evenodd" d="M109.253 853.391C107.432 853.391 105.955 851.919 105.955 850.097C105.955 848.286 107.432 846.804 109.253 846.804C111.065 846.804 112.542 848.286 112.542 850.097C112.542 851.919 111.065 853.391 109.253 853.391Z" fill="#F7F5F9"/>
<path fill-rule="evenodd" clip-rule="evenodd" d="M76.2611 853.391C74.4446 853.391 72.9675 851.919 72.9675 850.097C72.9675 848.286 74.4446 846.804 76.2611 846.804C78.0776 846.804 79.5547 848.286 79.5547 850.097C79.5547 851.919 78.0776 853.391 76.2611 853.391Z" fill="#F7F5F9"/>
<path fill-rule="evenodd" clip-rule="evenodd" d="M43.2733 853.391C41.4568 853.391 39.9797 851.919 39.9797 850.097C39.9797 848.286 41.4568 846.804 43.2733 846.804C45.0848 846.804 46.5669 848.286 46.5669 850.097C46.5669 851.919 45.0848 853.391 43.2733 853.391Z" fill="#F7F5F9"/>
<path fill-rule="evenodd" clip-rule="evenodd" d="M10.2805 853.391C8.46904 853.391 6.99191 851.919 6.99191 850.097C6.99191 848.286 8.46904 846.804 10.2805 846.804C12.097 846.804 13.5791 848.286 13.5791 850.097C13.5791 851.919 12.097 853.391 10.2805 853.391Z" fill="#F7F5F9"/>
<path fill-rule="evenodd" clip-rule="evenodd" d="M142.236 886.384C140.425 886.384 138.942 884.912 138.942 883.09C138.942 881.269 140.425 879.797 142.236 879.797C144.053 879.797 145.535 881.269 145.535 883.09C145.535 884.912 144.053 886.384 142.236 886.384Z" fill="#F7F5F9"/>
<path fill-rule="evenodd" clip-rule="evenodd" d="M109.253 886.384C107.432 886.384 105.955 884.912 105.955 883.09C105.955 881.269 107.432 879.797 109.253 879.797C111.065 879.797 112.542 881.269 112.542 883.09C112.542 884.912 111.065 886.384 109.253 886.384Z" fill="#F7F5F9"/>
<path fill-rule="evenodd" clip-rule="evenodd" d="M76.2611 886.384C74.4446 886.384 72.9675 884.912 72.9675 883.09C72.9675 881.269 74.4446 879.797 76.2611 879.797C78.0776 879.797 79.5547 881.269 79.5547 883.09C79.5547 884.912 78.0776 886.384 76.2611 886.384Z" fill="#F7F5F9"/>
<path fill-rule="evenodd" clip-rule="evenodd" d="M43.2733 886.384C41.4568 886.384 39.9797 884.912 39.9797 883.09C39.9797 881.269 41.4568 879.797 43.2733 879.797C45.0848 879.797 46.5669 881.269 46.5669 883.09C46.5669 884.912 45.0848 886.384 43.2733 886.384Z" fill="#F7F5F9"/>
<path fill-rule="evenodd" clip-rule="evenodd" d="M10.2805 886.384C8.46904 886.384 6.99191 884.912 6.99191 883.09C6.99191 881.269 8.46904 879.797 10.2805 879.797C12.097 879.797 13.5791 881.269 13.5791 883.09C13.5791 884.912 12.097 886.384 10.2805 886.384Z" fill="#F7F5F9"/>
</svg>
