<svg width="193" height="1486" viewBox="0 0 193 1486" fill="none" xmlns="http://www.w3.org/2000/svg">
<path fill-rule="evenodd" clip-rule="evenodd" d="M190.237 566.972C188.425 566.972 186.943 568.449 186.943 570.266C186.943 572.087 188.425 573.559 190.237 573.559C192.053 573.559 193.535 572.087 193.535 570.266C193.535 568.449 192.053 566.972 190.237 566.972Z" fill="#F7F5F9"/>
<path fill-rule="evenodd" clip-rule="evenodd" d="M157.254 566.972C155.432 566.972 153.955 568.449 153.955 570.266C153.955 572.087 155.432 573.559 157.254 573.559C159.065 573.559 160.542 572.087 160.542 570.266C160.542 568.449 159.065 566.972 157.254 566.972Z" fill="#F7F5F9"/>
<path fill-rule="evenodd" clip-rule="evenodd" d="M124.262 566.972C122.445 566.972 120.968 568.449 120.968 570.266C120.968 572.087 122.445 573.559 124.262 573.559C126.078 573.559 127.555 572.087 127.555 570.266C127.555 568.449 126.078 566.972 124.262 566.972Z" fill="#F7F5F9"/>
<path fill-rule="evenodd" clip-rule="evenodd" d="M91.2738 566.972C89.4573 566.972 87.9802 568.449 87.9802 570.266C87.9802 572.087 89.4573 573.559 91.2738 573.559C93.0853 573.559 94.5674 572.087 94.5674 570.266C94.5674 568.449 93.0853 566.972 91.2738 566.972Z" fill="#F7F5F9"/>
<path fill-rule="evenodd" clip-rule="evenodd" d="M190.237 533.99C188.425 533.99 186.943 535.462 186.943 537.284C186.943 539.095 188.425 540.577 190.237 540.577C192.053 540.577 193.535 539.095 193.535 537.284C193.535 535.462 192.053 533.99 190.237 533.99Z" fill="#F7F5F9"/>
<path fill-rule="evenodd" clip-rule="evenodd" d="M157.254 533.99C155.432 533.99 153.955 535.462 153.955 537.284C153.955 539.095 155.432 540.577 157.254 540.577C159.065 540.577 160.542 539.095 160.542 537.284C160.542 535.462 159.065 533.99 157.254 533.99Z" fill="#F7F5F9"/>
<path fill-rule="evenodd" clip-rule="evenodd" d="M124.262 533.99C122.445 533.99 120.968 535.462 120.968 537.284C120.968 539.095 122.445 540.577 124.262 540.577C126.078 540.577 127.555 539.095 127.555 537.284C127.555 535.462 126.078 533.99 124.262 533.99Z" fill="#F7F5F9"/>
<path fill-rule="evenodd" clip-rule="evenodd" d="M91.2738 533.99C89.4573 533.99 87.9802 535.462 87.9802 537.284C87.9802 539.095 89.4573 540.577 91.2738 540.577C93.0853 540.577 94.5674 539.095 94.5674 537.284C94.5674 535.462 93.0853 533.99 91.2738 533.99Z" fill="#F7F5F9"/>
<path fill-rule="evenodd" clip-rule="evenodd" d="M190.237 500.997C188.425 500.997 186.943 502.469 186.943 504.29C186.943 506.112 188.425 507.584 190.237 507.584C192.053 507.584 193.535 506.112 193.535 504.29C193.535 502.469 192.053 500.997 190.237 500.997Z" fill="#F7F5F9"/>
<path fill-rule="evenodd" clip-rule="evenodd" d="M157.254 500.997C155.432 500.997 153.955 502.469 153.955 504.29C153.955 506.112 155.432 507.584 157.254 507.584C159.065 507.584 160.542 506.112 160.542 504.29C160.542 502.469 159.065 500.997 157.254 500.997Z" fill="#F7F5F9"/>
<path fill-rule="evenodd" clip-rule="evenodd" d="M124.262 500.997C122.445 500.997 120.968 502.469 120.968 504.29C120.968 506.112 122.445 507.584 124.262 507.584C126.078 507.584 127.555 506.112 127.555 504.29C127.555 502.469 126.078 500.997 124.262 500.997Z" fill="#F7F5F9"/>
<path fill-rule="evenodd" clip-rule="evenodd" d="M91.2738 500.997C89.4573 500.997 87.9802 502.469 87.9802 504.29C87.9802 506.112 89.4573 507.584 91.2738 507.584C93.0853 507.584 94.5674 506.112 94.5674 504.29C94.5674 502.469 93.0853 500.997 91.2738 500.997Z" fill="#F7F5F9"/>
<path fill-rule="evenodd" clip-rule="evenodd" d="M75.0283 85.6509H75.0223C68.8438 85.6509 63.0661 83.4701 58.7537 79.5128C55.4282 76.4637 51.0082 74.787 46.301 74.787C41.5939 74.787 37.1679 76.4637 33.8424 79.5128C29.524 83.4701 23.7403 85.6509 17.5618 85.6509H17.5499C11.3714 85.6509 5.59363 83.4701 1.28125 79.5128C0.32428 78.6295 0.396042 77.2622 1.46068 76.4637C2.51335 75.6703 4.15218 75.7302 5.10916 76.6085C8.42867 79.6575 12.8487 81.3343 17.5499 81.3343H17.5618C22.263 81.3343 26.689 79.6575 30.0205 76.6085C34.3388 72.6512 40.1226 70.4754 46.301 70.4754C52.4855 70.4754 58.2633 72.6512 62.5816 76.6085C65.9011 79.6575 70.3152 81.3343 75.0223 81.3343H75.0283C79.7354 81.3343 84.1615 79.6575 87.4929 76.6085C91.8113 72.6512 97.589 70.4754 103.773 70.4754H103.779C109.958 70.4754 115.742 72.6512 120.06 76.6085C126.717 82.7066 138.326 82.7066 144.995 76.6085C149.308 72.6512 155.097 70.4754 161.282 70.4754C167.466 70.4754 173.256 72.6512 177.574 76.6085C180.894 79.6575 185.32 81.3343 190.033 81.3343H190.039C194.746 81.3343 199.172 79.6575 202.504 76.6085C203.473 75.7302 205.105 75.6603 206.158 76.4687C207.211 77.2672 207.289 78.6345 206.326 79.5128C202.001 83.4701 196.217 85.6509 190.039 85.6509H190.033C183.849 85.6509 178.065 83.4701 173.74 79.5128C170.421 76.4637 165.995 74.787 161.282 74.787C156.569 74.787 152.143 76.4637 148.811 79.5128C140.175 87.4224 124.875 87.4224 116.238 79.5128C112.907 76.4637 108.487 74.787 103.779 74.787H103.773C99.0664 74.787 94.6463 76.4637 91.3089 79.5128C86.9905 83.4701 81.2128 85.6509 75.0283 85.6509Z" fill="#F7F5F9"/>
<path fill-rule="evenodd" clip-rule="evenodd" d="M75.0283 50.3491H75.0223C68.8438 50.3491 63.0661 48.1684 58.7537 44.2111C55.4282 41.162 51.0082 39.4852 46.301 39.4852C41.5939 39.4852 37.1679 41.162 33.8424 44.2111C29.524 48.1684 23.7403 50.3491 17.5618 50.3491H17.5499C11.3714 50.3491 5.59363 48.1684 1.28125 44.2111C0.32428 43.3278 0.396042 41.9604 1.46068 41.162C2.51335 40.3685 4.15218 40.4284 5.10916 41.3067C8.42867 44.3558 12.8487 46.0325 17.5499 46.0325H17.5618C22.263 46.0325 26.689 44.3558 30.0205 41.3067C34.3388 37.3494 40.1226 35.1736 46.301 35.1736C52.4855 35.1736 58.2633 37.3494 62.5816 41.3067C65.9011 44.3558 70.3152 46.0325 75.0223 46.0325H75.0283C79.7354 46.0325 84.1615 44.3558 87.4929 41.3067C91.8113 37.3494 97.589 35.1736 103.773 35.1736H103.779C109.958 35.1736 115.742 37.3494 120.06 41.3067C126.717 47.4048 138.326 47.4048 144.995 41.3067C149.308 37.3494 155.097 35.1736 161.282 35.1736C167.466 35.1736 173.256 37.3494 177.574 41.3067C180.894 44.3558 185.32 46.0325 190.033 46.0325H190.039C194.746 46.0325 199.172 44.3558 202.504 41.3067C203.473 40.4284 205.105 40.3586 206.158 41.167C207.211 41.9654 207.289 43.3328 206.326 44.2111C202.001 48.1684 196.217 50.3491 190.039 50.3491H190.033C183.849 50.3491 178.065 48.1684 173.74 44.2111C170.421 41.162 165.995 39.4852 161.282 39.4852C156.569 39.4852 152.143 41.162 148.811 44.2111C140.175 52.1207 124.875 52.1207 116.238 44.2111C112.907 41.162 108.487 39.4852 103.779 39.4852H103.773C99.0664 39.4852 94.6463 41.162 91.3089 44.2111C86.9905 48.1684 81.2128 50.3491 75.0283 50.3491Z" fill="#F7F5F9"/>
<path fill-rule="evenodd" clip-rule="evenodd" d="M75.0283 15.1755H75.0223C68.8438 15.1755 63.0661 12.9948 58.7537 9.03747C55.4282 5.9884 51.0082 4.31166 46.301 4.31166C41.5939 4.31166 37.1679 5.9884 33.8424 9.03747C29.524 12.9948 23.7403 15.1755 17.5618 15.1755H17.5499C11.3714 15.1755 5.59363 12.9948 1.28125 9.03747C0.32428 8.15419 0.396042 6.78685 1.46068 5.9884C2.51335 5.19495 4.15218 5.25483 5.10916 6.13312C8.42867 9.18219 12.8487 10.8589 17.5499 10.8589H17.5618C22.263 10.8589 26.689 9.18219 30.0205 6.13312C34.3388 2.17582 40.1226 4.95911e-05 46.301 4.95911e-05C52.4855 4.95911e-05 58.2633 2.17582 62.5816 6.13312C65.9011 9.18219 70.3152 10.8589 75.0223 10.8589H75.0283C79.7354 10.8589 84.1615 9.18219 87.4929 6.13312C91.8113 2.17582 97.589 4.95911e-05 103.773 4.95911e-05H103.779C109.958 4.95911e-05 115.742 2.17582 120.06 6.13312C126.717 12.2313 138.326 12.2313 144.995 6.13312C149.308 2.17582 155.097 4.95911e-05 161.282 4.95911e-05C167.466 4.95911e-05 173.256 2.17582 177.574 6.13312C180.894 9.18219 185.32 10.8589 190.033 10.8589H190.039C194.746 10.8589 199.172 9.18219 202.504 6.13312C203.473 5.25483 205.105 5.18497 206.158 5.99339C207.211 6.79184 207.289 8.15918 206.326 9.03747C202.001 12.9948 196.217 15.1755 190.039 15.1755H190.033C183.849 15.1755 178.065 12.9948 173.74 9.03747C170.421 5.9884 165.995 4.31166 161.282 4.31166C156.569 4.31166 152.143 5.9884 148.811 9.03747C140.175 16.9471 124.875 16.9471 116.238 9.03747C112.907 5.9884 108.487 4.31166 103.779 4.31166H103.773C99.0664 4.31166 94.6463 5.9884 91.3089 9.03747C86.9905 12.9948 81.2128 15.1755 75.0283 15.1755Z" fill="#F7F5F9"/>
<path fill-rule="evenodd" clip-rule="evenodd" d="M75.0283 1113.7H75.0223C68.8438 1113.7 63.0661 1115.88 58.7537 1119.84C55.4282 1122.89 51.0082 1124.56 46.301 1124.56C41.5939 1124.56 37.1679 1122.89 33.8424 1119.84C29.524 1115.88 23.7403 1113.7 17.5618 1113.7H17.5499C11.3714 1113.7 5.59363 1115.88 1.28125 1119.84C0.32428 1120.72 0.396042 1122.09 1.46068 1122.89C2.51335 1123.68 4.15218 1123.62 5.10916 1122.74C8.42867 1119.69 12.8487 1118.01 17.5499 1118.01H17.5618C22.263 1118.01 26.689 1119.69 30.0205 1122.74C34.3388 1126.7 40.1226 1128.87 46.301 1128.87C52.4855 1128.87 58.2633 1126.7 62.5816 1122.74C65.9011 1119.69 70.3152 1118.01 75.0223 1118.01H75.0283C79.7354 1118.01 84.1615 1119.69 87.4929 1122.74C91.8113 1126.7 97.589 1128.87 103.773 1128.87H103.779C109.958 1128.87 115.742 1126.7 120.06 1122.74C126.717 1116.64 138.326 1116.64 144.995 1122.74C149.308 1126.7 155.097 1128.87 161.282 1128.87C167.466 1128.87 173.256 1126.7 177.574 1122.74C180.894 1119.69 185.32 1118.01 190.033 1118.01H190.039C194.746 1118.01 199.172 1119.69 202.504 1122.74C203.473 1123.62 205.105 1123.69 206.158 1122.88C207.211 1122.08 207.289 1120.71 206.326 1119.84C202.001 1115.88 196.217 1113.7 190.039 1113.7H190.033C183.849 1113.7 178.065 1115.88 173.74 1119.84C170.421 1122.89 165.995 1124.56 161.282 1124.56C156.569 1124.56 152.143 1122.89 148.811 1119.84C140.175 1111.93 124.875 1111.93 116.238 1119.84C112.907 1122.89 108.487 1124.56 103.779 1124.56H103.773C99.0664 1124.56 94.6463 1122.89 91.3089 1119.84C86.9905 1115.88 81.2128 1113.7 75.0283 1113.7Z" fill="#F7F5F9"/>
<path fill-rule="evenodd" clip-rule="evenodd" d="M75.0283 1149H75.0223C68.8438 1149 63.0661 1151.18 58.7537 1155.14C55.4282 1158.19 51.0082 1159.86 46.301 1159.86C41.5939 1159.86 37.1679 1158.19 33.8424 1155.14C29.524 1151.18 23.7403 1149 17.5618 1149H17.5499C11.3714 1149 5.59363 1151.18 1.28125 1155.14C0.32428 1156.02 0.396042 1157.39 1.46068 1158.19C2.51335 1158.98 4.15218 1158.92 5.10916 1158.04C8.42867 1154.99 12.8487 1153.32 17.5499 1153.32H17.5618C22.263 1153.32 26.689 1154.99 30.0205 1158.04C34.3388 1162 40.1226 1164.17 46.301 1164.17C52.4855 1164.17 58.2633 1162 62.5816 1158.04C65.9011 1154.99 70.3152 1153.32 75.0223 1153.32H75.0283C79.7354 1153.32 84.1615 1154.99 87.4929 1158.04C91.8113 1162 97.589 1164.17 103.773 1164.17H103.779C109.958 1164.17 115.742 1162 120.06 1158.04C126.717 1151.94 138.326 1151.94 144.995 1158.04C149.308 1162 155.097 1164.17 161.282 1164.17C167.466 1164.17 173.256 1162 177.574 1158.04C180.894 1154.99 185.32 1153.32 190.033 1153.32H190.039C194.746 1153.32 199.172 1154.99 202.504 1158.04C203.473 1158.92 205.105 1158.99 206.158 1158.18C207.211 1157.38 207.289 1156.02 206.326 1155.14C202.001 1151.18 196.217 1149 190.039 1149H190.033C183.849 1149 178.065 1151.18 173.74 1155.14C170.421 1158.19 165.995 1159.86 161.282 1159.86C156.569 1159.86 152.143 1158.19 148.811 1155.14C140.175 1147.23 124.875 1147.23 116.238 1155.14C112.907 1158.19 108.487 1159.86 103.779 1159.86H103.773C99.0664 1159.86 94.6463 1158.19 91.3089 1155.14C86.9905 1151.18 81.2128 1149 75.0283 1149Z" fill="#F7F5F9"/>
<path fill-rule="evenodd" clip-rule="evenodd" d="M75.0283 1184.17H75.0223C68.8438 1184.17 63.0661 1186.35 58.7537 1190.31C55.4282 1193.36 51.0082 1195.04 46.301 1195.04C41.5939 1195.04 37.1679 1193.36 33.8424 1190.31C29.524 1186.35 23.7403 1184.17 17.5618 1184.17H17.5499C11.3714 1184.17 5.59363 1186.35 1.28125 1190.31C0.32428 1191.19 0.396042 1192.56 1.46068 1193.36C2.51335 1194.15 4.15218 1194.09 5.10916 1193.21C8.42867 1190.17 12.8487 1188.49 17.5499 1188.49H17.5618C22.263 1188.49 26.689 1190.17 30.0205 1193.21C34.3388 1197.17 40.1226 1199.35 46.301 1199.35C52.4855 1199.35 58.2633 1197.17 62.5816 1193.21C65.9011 1190.17 70.3152 1188.49 75.0223 1188.49H75.0283C79.7354 1188.49 84.1615 1190.17 87.4929 1193.21C91.8113 1197.17 97.589 1199.35 103.773 1199.35H103.779C109.958 1199.35 115.742 1197.17 120.06 1193.21C126.717 1187.12 138.326 1187.12 144.995 1193.21C149.308 1197.17 155.097 1199.35 161.282 1199.35C167.466 1199.35 173.256 1197.17 177.574 1193.21C180.894 1190.17 185.32 1188.49 190.033 1188.49H190.039C194.746 1188.49 199.172 1190.17 202.504 1193.21C203.473 1194.09 205.105 1194.16 206.158 1193.35C207.211 1192.56 207.289 1191.19 206.326 1190.31C202.001 1186.35 196.217 1184.17 190.039 1184.17H190.033C183.849 1184.17 178.065 1186.35 173.74 1190.31C170.421 1193.36 165.995 1195.04 161.282 1195.04C156.569 1195.04 152.143 1193.36 148.811 1190.31C140.175 1182.4 124.875 1182.4 116.238 1190.31C112.907 1193.36 108.487 1195.04 103.779 1195.04H103.773C99.0664 1195.04 94.6463 1193.36 91.3089 1190.31C86.9905 1186.35 81.2128 1184.17 75.0283 1184.17Z" fill="#F7F5F9"/>
<path fill-rule="evenodd" clip-rule="evenodd" d="M75.0283 1399.7H75.0223C68.8438 1399.7 63.0661 1401.88 58.7537 1405.84C55.4282 1408.89 51.0082 1410.56 46.301 1410.56C41.5939 1410.56 37.1679 1408.89 33.8424 1405.84C29.524 1401.88 23.7403 1399.7 17.5618 1399.7H17.5499C11.3714 1399.7 5.59363 1401.88 1.28125 1405.84C0.32428 1406.72 0.396042 1408.09 1.46068 1408.89C2.51335 1409.68 4.15218 1409.62 5.10916 1408.74C8.42867 1405.69 12.8487 1404.01 17.5499 1404.01H17.5618C22.263 1404.01 26.689 1405.69 30.0205 1408.74C34.3388 1412.7 40.1226 1414.87 46.301 1414.87C52.4855 1414.87 58.2633 1412.7 62.5816 1408.74C65.9011 1405.69 70.3152 1404.01 75.0223 1404.01H75.0283C79.7354 1404.01 84.1615 1405.69 87.4929 1408.74C91.8113 1412.7 97.589 1414.87 103.773 1414.87H103.779C109.958 1414.87 115.742 1412.7 120.06 1408.74C126.717 1402.64 138.326 1402.64 144.995 1408.74C149.308 1412.7 155.097 1414.87 161.282 1414.87C167.466 1414.87 173.256 1412.7 177.574 1408.74C180.894 1405.69 185.32 1404.01 190.033 1404.01H190.039C194.746 1404.01 199.172 1405.69 202.504 1408.74C203.473 1409.62 205.105 1409.69 206.158 1408.88C207.211 1408.08 207.289 1406.71 206.326 1405.84C202.001 1401.88 196.217 1399.7 190.039 1399.7H190.033C183.849 1399.7 178.065 1401.88 173.74 1405.84C170.421 1408.89 165.995 1410.56 161.282 1410.56C156.569 1410.56 152.143 1408.89 148.811 1405.84C140.175 1397.93 124.875 1397.93 116.238 1405.84C112.907 1408.89 108.487 1410.56 103.779 1410.56H103.773C99.0664 1410.56 94.6463 1408.89 91.3089 1405.84C86.9905 1401.88 81.2128 1399.7 75.0283 1399.7Z" fill="#F7F5F9"/>
<path fill-rule="evenodd" clip-rule="evenodd" d="M75.0283 1435H75.0223C68.8438 1435 63.0661 1437.18 58.7537 1441.14C55.4282 1444.19 51.0082 1445.86 46.301 1445.86C41.5939 1445.86 37.1679 1444.19 33.8424 1441.14C29.524 1437.18 23.7403 1435 17.5618 1435H17.5499C11.3714 1435 5.59363 1437.18 1.28125 1441.14C0.32428 1442.02 0.396042 1443.39 1.46068 1444.19C2.51335 1444.98 4.15218 1444.92 5.10916 1444.04C8.42867 1440.99 12.8487 1439.32 17.5499 1439.32H17.5618C22.263 1439.32 26.689 1440.99 30.0205 1444.04C34.3388 1448 40.1226 1450.17 46.301 1450.17C52.4855 1450.17 58.2633 1448 62.5816 1444.04C65.9011 1440.99 70.3152 1439.32 75.0223 1439.32H75.0283C79.7354 1439.32 84.1615 1440.99 87.4929 1444.04C91.8113 1448 97.589 1450.17 103.773 1450.17H103.779C109.958 1450.17 115.742 1448 120.06 1444.04C126.717 1437.94 138.326 1437.94 144.995 1444.04C149.308 1448 155.097 1450.17 161.282 1450.17C167.466 1450.17 173.256 1448 177.574 1444.04C180.894 1440.99 185.32 1439.32 190.033 1439.32H190.039C194.746 1439.32 199.172 1440.99 202.504 1444.04C203.473 1444.92 205.105 1444.99 206.158 1444.18C207.211 1443.38 207.289 1442.02 206.326 1441.14C202.001 1437.18 196.217 1435 190.039 1435H190.033C183.849 1435 178.065 1437.18 173.74 1441.14C170.421 1444.19 165.995 1445.86 161.282 1445.86C156.569 1445.86 152.143 1444.19 148.811 1441.14C140.175 1433.23 124.875 1433.23 116.238 1441.14C112.907 1444.19 108.487 1445.86 103.779 1445.86H103.773C99.0664 1445.86 94.6463 1444.19 91.3089 1441.14C86.9905 1437.18 81.2128 1435 75.0283 1435Z" fill="#F7F5F9"/>
<path fill-rule="evenodd" clip-rule="evenodd" d="M75.0283 1470.17H75.0223C68.8438 1470.17 63.0661 1472.35 58.7537 1476.31C55.4282 1479.36 51.0082 1481.04 46.301 1481.04C41.5939 1481.04 37.1679 1479.36 33.8424 1476.31C29.524 1472.35 23.7403 1470.17 17.5618 1470.17H17.5499C11.3714 1470.17 5.59363 1472.35 1.28125 1476.31C0.324273 1477.19 0.396041 1478.56 1.46068 1479.36C2.51335 1480.15 4.15218 1480.09 5.10916 1479.21C8.42868 1476.17 12.8487 1474.49 17.5499 1474.49H17.5618C22.263 1474.49 26.689 1476.17 30.0205 1479.21C34.3388 1483.17 40.1226 1485.35 46.301 1485.35C52.4855 1485.35 58.2633 1483.17 62.5816 1479.21C65.9011 1476.17 70.3152 1474.49 75.0223 1474.49H75.0283C79.7354 1474.49 84.1615 1476.17 87.4929 1479.21C91.8113 1483.17 97.589 1485.35 103.773 1485.35H103.779C109.958 1485.35 115.742 1483.17 120.06 1479.21C126.717 1473.12 138.326 1473.12 144.995 1479.21C149.308 1483.17 155.097 1485.35 161.282 1485.35C167.466 1485.35 173.256 1483.17 177.574 1479.21C180.894 1476.17 185.32 1474.49 190.033 1474.49H190.039C194.746 1474.49 199.172 1476.17 202.504 1479.21C203.473 1480.09 205.105 1480.16 206.158 1479.35C207.211 1478.56 207.289 1477.19 206.326 1476.31C202.001 1472.35 196.217 1470.17 190.039 1470.17H190.033C183.849 1470.17 178.065 1472.35 173.74 1476.31C170.421 1479.36 165.995 1481.04 161.282 1481.04C156.569 1481.04 152.143 1479.36 148.811 1476.31C140.175 1468.4 124.875 1468.4 116.238 1476.31C112.907 1479.36 108.487 1481.04 103.779 1481.04H103.773C99.0664 1481.04 94.6463 1479.36 91.3089 1476.31C86.9905 1472.35 81.2128 1470.17 75.0283 1470.17Z" fill="#F7F5F9"/>
</svg>
