<svg width="193" height="1486" viewBox="0 0 193 1486" fill="none" xmlns="http://www.w3.org/2000/svg">
<path fill-rule="evenodd" clip-rule="evenodd" d="M75.0288 85.6509H75.0228C68.8443 85.6509 63.0666 83.4701 58.7542 79.5128C55.4287 76.4637 51.0087 74.787 46.3015 74.787C41.5944 74.787 37.1684 76.4637 33.8429 79.5128C29.5245 83.4701 23.7408 85.6509 17.5623 85.6509H17.5503C11.3719 85.6509 5.59412 83.4701 1.28174 79.5128C0.324768 78.6295 0.39653 77.2622 1.46117 76.4637C2.51384 75.6703 4.15266 75.7302 5.10965 76.6085C8.42915 79.6575 12.8492 81.3343 17.5503 81.3343H17.5623C22.2635 81.3343 26.6895 79.6575 30.021 76.6085C34.3393 72.6512 40.123 70.4754 46.3015 70.4754C52.486 70.4754 58.2637 72.6512 62.5821 76.6085C65.9016 79.6575 70.3157 81.3343 75.0228 81.3343H75.0288C79.7359 81.3343 84.1619 79.6575 87.4934 76.6085C91.8118 72.6512 97.5895 70.4754 103.774 70.4754H103.78C109.958 70.4754 115.742 72.6512 120.061 76.6085C126.718 82.7066 138.327 82.7066 144.996 76.6085C149.308 72.6512 155.098 70.4754 161.282 70.4754C167.467 70.4754 173.257 72.6512 177.575 76.6085C180.894 79.6575 185.32 81.3343 190.034 81.3343H190.039C194.747 81.3343 199.173 79.6575 202.504 76.6085C203.473 75.7302 205.106 75.6603 206.159 76.4687C207.211 77.2672 207.289 78.6345 206.326 79.5128C202.002 83.4701 196.218 85.6509 190.039 85.6509H190.034C183.849 85.6509 178.065 83.4701 173.741 79.5128C170.421 76.4637 165.995 74.787 161.282 74.787C156.569 74.787 152.143 76.4637 148.812 79.5128C140.175 87.4224 124.875 87.4224 116.239 79.5128C112.907 76.4637 108.487 74.787 103.78 74.787H103.774C99.0669 74.787 94.6468 76.4637 91.3094 79.5128C86.991 83.4701 81.2132 85.6509 75.0288 85.6509Z" fill="#F7F5F9"/>
<path fill-rule="evenodd" clip-rule="evenodd" d="M75.0278 50.3491H75.0218C68.8434 50.3491 63.0656 48.1684 58.7532 44.2111C55.4277 41.162 51.0077 39.4852 46.3006 39.4852C41.5934 39.4852 37.1674 41.162 33.8419 44.2111C29.5235 48.1684 23.7398 50.3491 17.5613 50.3491H17.5494C11.3709 50.3491 5.59314 48.1684 1.28076 44.2111C0.323792 43.3278 0.395554 41.9604 1.46019 41.162C2.51286 40.3685 4.15169 40.4284 5.10867 41.3067C8.42818 44.3558 12.8482 46.0325 17.5494 46.0325H17.5613C22.2625 46.0325 26.6885 44.3558 30.02 41.3067C34.3383 37.3494 40.1221 35.1736 46.3006 35.1736C52.485 35.1736 58.2628 37.3494 62.5811 41.3067C65.9006 44.3558 70.3147 46.0325 75.0218 46.0325H75.0278C79.7349 46.0325 84.161 44.3558 87.4924 41.3067C91.8108 37.3494 97.5885 35.1736 103.773 35.1736H103.779C109.957 35.1736 115.741 37.3494 120.06 41.3067C126.717 47.4048 138.326 47.4048 144.995 41.3067C149.307 37.3494 155.097 35.1736 161.281 35.1736C167.466 35.1736 173.256 37.3494 177.574 41.3067C180.893 44.3558 185.319 46.0325 190.033 46.0325H190.039C194.746 46.0325 199.172 44.3558 202.503 41.3067C203.472 40.4284 205.105 40.3586 206.158 41.167C207.21 41.9654 207.288 43.3328 206.325 44.2111C202.001 48.1684 196.217 50.3491 190.039 50.3491H190.033C183.848 50.3491 178.064 48.1684 173.74 44.2111C170.42 41.162 165.994 39.4852 161.281 39.4852C156.568 39.4852 152.142 41.162 148.811 44.2111C140.174 52.1207 124.874 52.1207 116.238 44.2111C112.906 41.162 108.486 39.4852 103.779 39.4852H103.773C99.0659 39.4852 94.6458 41.162 91.3084 44.2111C86.99 48.1684 81.2123 50.3491 75.0278 50.3491Z" fill="#F7F5F9"/>
<path fill-rule="evenodd" clip-rule="evenodd" d="M75.0278 15.1755H75.0218C68.8434 15.1755 63.0656 12.9948 58.7532 9.03747C55.4277 5.9884 51.0077 4.31166 46.3006 4.31166C41.5934 4.31166 37.1674 5.9884 33.8419 9.03747C29.5235 12.9948 23.7398 15.1755 17.5613 15.1755H17.5494C11.3709 15.1755 5.59314 12.9948 1.28076 9.03747C0.323792 8.15419 0.395554 6.78685 1.46019 5.9884C2.51286 5.19495 4.15169 5.25483 5.10867 6.13312C8.42818 9.18219 12.8482 10.8589 17.5494 10.8589H17.5613C22.2625 10.8589 26.6885 9.18219 30.02 6.13312C34.3383 2.17582 40.1221 4.95911e-05 46.3006 4.95911e-05C52.485 4.95911e-05 58.2628 2.17582 62.5811 6.13312C65.9006 9.18219 70.3147 10.8589 75.0218 10.8589H75.0278C79.7349 10.8589 84.161 9.18219 87.4924 6.13312C91.8108 2.17582 97.5885 4.95911e-05 103.773 4.95911e-05H103.779C109.957 4.95911e-05 115.741 2.17582 120.06 6.13312C126.717 12.2313 138.326 12.2313 144.995 6.13312C149.307 2.17582 155.097 4.95911e-05 161.281 4.95911e-05C167.466 4.95911e-05 173.256 2.17582 177.574 6.13312C180.893 9.18219 185.319 10.8589 190.033 10.8589H190.039C194.746 10.8589 199.172 9.18219 202.503 6.13312C203.472 5.25483 205.105 5.18497 206.158 5.99339C207.21 6.79184 207.288 8.15918 206.325 9.03747C202.001 12.9948 196.217 15.1755 190.039 15.1755H190.033C183.848 15.1755 178.064 12.9948 173.74 9.03747C170.42 5.9884 165.994 4.31166 161.281 4.31166C156.568 4.31166 152.142 5.9884 148.811 9.03747C140.174 16.9471 124.874 16.9471 116.238 9.03747C112.906 5.9884 108.486 4.31166 103.779 4.31166H103.773C99.0659 4.31166 94.6458 5.9884 91.3084 9.03747C86.99 12.9948 81.2123 15.1755 75.0278 15.1755Z" fill="#F7F5F9"/>
<mask id="mask0" mask-type="alpha" maskUnits="userSpaceOnUse" x="0" y="1113" width="207" height="16">
<path fill-rule="evenodd" clip-rule="evenodd" d="M207 1113.7H0.610291V1128.87H207V1113.7Z" fill="white"/>
</mask>
<g mask="url(#mask0)">
<path fill-rule="evenodd" clip-rule="evenodd" d="M75.0288 1113.7H75.0228C68.8443 1113.7 63.0666 1115.88 58.7542 1119.84C55.4287 1122.89 51.0087 1124.56 46.3015 1124.56C41.5944 1124.56 37.1684 1122.89 33.8429 1119.84C29.5245 1115.88 23.7408 1113.7 17.5623 1113.7H17.5503C11.3719 1113.7 5.59412 1115.88 1.28174 1119.84C0.324768 1120.72 0.39653 1122.09 1.46117 1122.89C2.51384 1123.68 4.15266 1123.62 5.10965 1122.74C8.42915 1119.69 12.8492 1118.01 17.5503 1118.01H17.5623C22.2635 1118.01 26.6895 1119.69 30.021 1122.74C34.3393 1126.7 40.123 1128.87 46.3015 1128.87C52.486 1128.87 58.2637 1126.7 62.5821 1122.74C65.9016 1119.69 70.3157 1118.01 75.0228 1118.01H75.0288C79.7359 1118.01 84.1619 1119.69 87.4934 1122.74C91.8118 1126.7 97.5895 1128.87 103.774 1128.87H103.78C109.958 1128.87 115.742 1126.7 120.061 1122.74C126.718 1116.64 138.327 1116.64 144.996 1122.74C149.308 1126.7 155.098 1128.87 161.282 1128.87C167.467 1128.87 173.257 1126.7 177.575 1122.74C180.894 1119.69 185.32 1118.01 190.034 1118.01H190.039C194.747 1118.01 199.173 1119.69 202.504 1122.74C203.473 1123.62 205.106 1123.69 206.159 1122.88C207.211 1122.08 207.289 1120.71 206.326 1119.84C202.002 1115.88 196.218 1113.7 190.039 1113.7H190.034C183.849 1113.7 178.065 1115.88 173.741 1119.84C170.421 1122.89 165.995 1124.56 161.282 1124.56C156.569 1124.56 152.143 1122.89 148.812 1119.84C140.175 1111.93 124.875 1111.93 116.239 1119.84C112.907 1122.89 108.487 1124.56 103.78 1124.56H103.774C99.0669 1124.56 94.6468 1122.89 91.3094 1119.84C86.991 1115.88 81.2132 1113.7 75.0288 1113.7Z" fill="#F7F5F9"/>
</g>
<path fill-rule="evenodd" clip-rule="evenodd" d="M75.0278 1149H75.0218C68.8434 1149 63.0656 1151.18 58.7532 1155.14C55.4277 1158.19 51.0077 1159.86 46.3006 1159.86C41.5934 1159.86 37.1674 1158.19 33.8419 1155.14C29.5235 1151.18 23.7398 1149 17.5613 1149H17.5494C11.3709 1149 5.59314 1151.18 1.28076 1155.14C0.323792 1156.02 0.395554 1157.39 1.46019 1158.19C2.51286 1158.98 4.15169 1158.92 5.10867 1158.04C8.42818 1154.99 12.8482 1153.32 17.5494 1153.32H17.5613C22.2625 1153.32 26.6885 1154.99 30.02 1158.04C34.3383 1162 40.1221 1164.17 46.3006 1164.17C52.485 1164.17 58.2628 1162 62.5811 1158.04C65.9006 1154.99 70.3147 1153.32 75.0218 1153.32H75.0278C79.7349 1153.32 84.161 1154.99 87.4924 1158.04C91.8108 1162 97.5885 1164.17 103.773 1164.17H103.779C109.957 1164.17 115.741 1162 120.06 1158.04C126.717 1151.94 138.326 1151.94 144.995 1158.04C149.307 1162 155.097 1164.17 161.281 1164.17C167.466 1164.17 173.256 1162 177.574 1158.04C180.893 1154.99 185.319 1153.32 190.033 1153.32H190.039C194.746 1153.32 199.172 1154.99 202.503 1158.04C203.472 1158.92 205.105 1158.99 206.158 1158.18C207.21 1157.38 207.288 1156.02 206.325 1155.14C202.001 1151.18 196.217 1149 190.039 1149H190.033C183.848 1149 178.064 1151.18 173.74 1155.14C170.42 1158.19 165.994 1159.86 161.281 1159.86C156.568 1159.86 152.142 1158.19 148.811 1155.14C140.174 1147.23 124.874 1147.23 116.238 1155.14C112.906 1158.19 108.486 1159.86 103.779 1159.86H103.773C99.0659 1159.86 94.6458 1158.19 91.3084 1155.14C86.99 1151.18 81.2123 1149 75.0278 1149Z" fill="#F7F5F9"/>
<path fill-rule="evenodd" clip-rule="evenodd" d="M75.0278 1184.17H75.0218C68.8434 1184.17 63.0656 1186.35 58.7532 1190.31C55.4277 1193.36 51.0077 1195.04 46.3006 1195.04C41.5934 1195.04 37.1674 1193.36 33.8419 1190.31C29.5235 1186.35 23.7398 1184.17 17.5613 1184.17H17.5494C11.3709 1184.17 5.59314 1186.35 1.28076 1190.31C0.323792 1191.19 0.395554 1192.56 1.46019 1193.36C2.51286 1194.15 4.15169 1194.09 5.10867 1193.21C8.42818 1190.17 12.8482 1188.49 17.5494 1188.49H17.5613C22.2625 1188.49 26.6885 1190.17 30.02 1193.21C34.3383 1197.17 40.1221 1199.35 46.3006 1199.35C52.485 1199.35 58.2628 1197.17 62.5811 1193.21C65.9006 1190.17 70.3147 1188.49 75.0218 1188.49H75.0278C79.7349 1188.49 84.161 1190.17 87.4924 1193.21C91.8108 1197.17 97.5885 1199.35 103.773 1199.35H103.779C109.957 1199.35 115.741 1197.17 120.06 1193.21C126.717 1187.12 138.326 1187.12 144.995 1193.21C149.307 1197.17 155.097 1199.35 161.281 1199.35C167.466 1199.35 173.256 1197.17 177.574 1193.21C180.893 1190.17 185.319 1188.49 190.033 1188.49H190.039C194.746 1188.49 199.172 1190.17 202.503 1193.21C203.472 1194.09 205.105 1194.16 206.158 1193.35C207.21 1192.56 207.288 1191.19 206.325 1190.31C202.001 1186.35 196.217 1184.17 190.039 1184.17H190.033C183.848 1184.17 178.064 1186.35 173.74 1190.31C170.42 1193.36 165.994 1195.04 161.281 1195.04C156.568 1195.04 152.142 1193.36 148.811 1190.31C140.174 1182.4 124.874 1182.4 116.238 1190.31C112.906 1193.36 108.486 1195.04 103.779 1195.04H103.773C99.0659 1195.04 94.6458 1193.36 91.3084 1190.31C86.99 1186.35 81.2123 1184.17 75.0278 1184.17Z" fill="#F7F5F9"/>
<path fill-rule="evenodd" clip-rule="evenodd" d="M75.0288 1399.7H75.0228C68.8443 1399.7 63.0666 1401.88 58.7542 1405.84C55.4287 1408.89 51.0087 1410.56 46.3015 1410.56C41.5944 1410.56 37.1684 1408.89 33.8429 1405.84C29.5245 1401.88 23.7408 1399.7 17.5623 1399.7H17.5503C11.3719 1399.7 5.59412 1401.88 1.28174 1405.84C0.324768 1406.72 0.39653 1408.09 1.46117 1408.89C2.51384 1409.68 4.15266 1409.62 5.10965 1408.74C8.42915 1405.69 12.8492 1404.01 17.5503 1404.01H17.5623C22.2635 1404.01 26.6895 1405.69 30.021 1408.74C34.3393 1412.7 40.123 1414.87 46.3015 1414.87C52.486 1414.87 58.2637 1412.7 62.5821 1408.74C65.9016 1405.69 70.3157 1404.01 75.0228 1404.01H75.0288C79.7359 1404.01 84.1619 1405.69 87.4934 1408.74C91.8118 1412.7 97.5895 1414.87 103.774 1414.87H103.78C109.958 1414.87 115.742 1412.7 120.061 1408.74C126.718 1402.64 138.327 1402.64 144.996 1408.74C149.308 1412.7 155.098 1414.87 161.282 1414.87C167.467 1414.87 173.257 1412.7 177.575 1408.74C180.894 1405.69 185.32 1404.01 190.034 1404.01H190.039C194.747 1404.01 199.173 1405.69 202.504 1408.74C203.473 1409.62 205.106 1409.69 206.159 1408.88C207.211 1408.08 207.289 1406.71 206.326 1405.84C202.002 1401.88 196.218 1399.7 190.039 1399.7H190.034C183.849 1399.7 178.065 1401.88 173.741 1405.84C170.421 1408.89 165.995 1410.56 161.282 1410.56C156.569 1410.56 152.143 1408.89 148.812 1405.84C140.175 1397.93 124.875 1397.93 116.239 1405.84C112.907 1408.89 108.487 1410.56 103.78 1410.56H103.774C99.0669 1410.56 94.6468 1408.89 91.3094 1405.84C86.991 1401.88 81.2132 1399.7 75.0288 1399.7Z" fill="#F7F5F9"/>
<path fill-rule="evenodd" clip-rule="evenodd" d="M75.0278 1435H75.0218C68.8434 1435 63.0656 1437.18 58.7532 1441.14C55.4277 1444.19 51.0077 1445.86 46.3006 1445.86C41.5934 1445.86 37.1674 1444.19 33.8419 1441.14C29.5235 1437.18 23.7398 1435 17.5613 1435H17.5494C11.3709 1435 5.59314 1437.18 1.28076 1441.14C0.323792 1442.02 0.395554 1443.39 1.46019 1444.19C2.51286 1444.98 4.15169 1444.92 5.10867 1444.04C8.42818 1440.99 12.8482 1439.32 17.5494 1439.32H17.5613C22.2625 1439.32 26.6885 1440.99 30.02 1444.04C34.3383 1448 40.1221 1450.17 46.3006 1450.17C52.485 1450.17 58.2628 1448 62.5811 1444.04C65.9006 1440.99 70.3147 1439.32 75.0218 1439.32H75.0278C79.7349 1439.32 84.161 1440.99 87.4924 1444.04C91.8108 1448 97.5885 1450.17 103.773 1450.17H103.779C109.957 1450.17 115.741 1448 120.06 1444.04C126.717 1437.94 138.326 1437.94 144.995 1444.04C149.307 1448 155.097 1450.17 161.281 1450.17C167.466 1450.17 173.256 1448 177.574 1444.04C180.893 1440.99 185.319 1439.32 190.033 1439.32H190.039C194.746 1439.32 199.172 1440.99 202.503 1444.04C203.472 1444.92 205.105 1444.99 206.158 1444.18C207.21 1443.38 207.288 1442.02 206.325 1441.14C202.001 1437.18 196.217 1435 190.039 1435H190.033C183.848 1435 178.064 1437.18 173.74 1441.14C170.42 1444.19 165.994 1445.86 161.281 1445.86C156.568 1445.86 152.142 1444.19 148.811 1441.14C140.174 1433.23 124.874 1433.23 116.238 1441.14C112.906 1444.19 108.486 1445.86 103.779 1445.86H103.773C99.0659 1445.86 94.6458 1444.19 91.3084 1441.14C86.99 1437.18 81.2123 1435 75.0278 1435Z" fill="#F7F5F9"/>
<path fill-rule="evenodd" clip-rule="evenodd" d="M75.0278 1470.17H75.0218C68.8434 1470.17 63.0656 1472.35 58.7532 1476.31C55.4277 1479.36 51.0077 1481.04 46.3006 1481.04C41.5934 1481.04 37.1674 1479.36 33.8419 1476.31C29.5235 1472.35 23.7398 1470.17 17.5613 1470.17H17.5494C11.3709 1470.17 5.59314 1472.35 1.28076 1476.31C0.323792 1477.19 0.395554 1478.56 1.46019 1479.36C2.51286 1480.15 4.15169 1480.09 5.10867 1479.21C8.42818 1476.17 12.8482 1474.49 17.5494 1474.49H17.5613C22.2625 1474.49 26.6885 1476.17 30.02 1479.21C34.3383 1483.17 40.1221 1485.35 46.3006 1485.35C52.485 1485.35 58.2628 1483.17 62.5811 1479.21C65.9006 1476.17 70.3147 1474.49 75.0218 1474.49H75.0278C79.7349 1474.49 84.161 1476.17 87.4924 1479.21C91.8108 1483.17 97.5885 1485.35 103.773 1485.35H103.779C109.957 1485.35 115.741 1483.17 120.06 1479.21C126.717 1473.12 138.326 1473.12 144.995 1479.21C149.307 1483.17 155.097 1485.35 161.281 1485.35C167.466 1485.35 173.256 1483.17 177.574 1479.21C180.893 1476.17 185.319 1474.49 190.033 1474.49H190.039C194.746 1474.49 199.172 1476.17 202.503 1479.21C203.472 1480.09 205.105 1480.16 206.158 1479.35C207.21 1478.56 207.288 1477.19 206.325 1476.31C202.001 1472.35 196.217 1470.17 190.039 1470.17H190.033C183.848 1470.17 178.064 1472.35 173.74 1476.31C170.42 1479.36 165.994 1481.04 161.281 1481.04C156.568 1481.04 152.142 1479.36 148.811 1476.31C140.174 1468.4 124.874 1468.4 116.238 1476.31C112.906 1479.36 108.486 1481.04 103.779 1481.04H103.773C99.0659 1481.04 94.6458 1479.36 91.3084 1476.31C86.99 1472.35 81.2123 1470.17 75.0278 1470.17Z" fill="#F7F5F9"/>
</svg>
