<svg width="913" height="1047" viewBox="0 0 913 1047" fill="none" xmlns="http://www.w3.org/2000/svg">
<g opacity="0.5">
<path d="M549.736 252.93C555.327 256.528 562.81 254.936 566.431 249.309C570.028 243.718 568.436 236.235 562.808 232.615C557.217 229.017 549.734 230.609 546.114 236.236C542.553 241.85 544.145 249.333 549.736 252.93Z" fill="#F7F5F9"/>
<path d="M542.5 52.9744C548.091 56.5718 555.574 54.9799 559.195 49.3528C562.792 43.7623 561.199 36.2793 555.572 32.6585C549.981 29.0611 542.498 30.653 538.877 36.28C535.257 41.9071 536.873 49.3535 542.5 52.9744Z" fill="#F7F5F9"/>
<path d="M424.639 245.548C419.048 241.95 411.565 243.542 407.945 249.169C404.347 254.76 405.94 262.243 411.567 265.864C417.158 269.461 424.641 267.869 428.262 262.242C431.883 256.615 430.23 249.145 424.639 245.548Z" fill="#F7F5F9"/>
<path d="M582.826 500.159C577.235 496.562 569.752 498.154 566.131 503.781C562.534 509.371 564.126 516.854 569.754 520.475C575.345 524.073 582.828 522.481 586.449 516.854C590.069 511.226 588.417 503.757 582.826 500.159Z" fill="#F7F5F9"/>
<path d="M493.982 390.657C491.607 389.129 488.461 389.842 486.956 392.181C485.428 394.556 486.106 397.679 488.481 399.207C490.856 400.735 493.979 400.058 495.507 397.683C497.012 395.344 496.358 392.185 493.982 390.657Z" fill="#F7F5F9"/>
<path d="M309.932 395.717C307.556 394.189 304.434 394.866 302.906 397.241C301.377 399.616 302.055 402.739 304.43 404.267C306.805 405.796 309.928 405.118 311.456 402.743C312.961 400.404 312.307 397.245 309.932 395.717Z" fill="#F7F5F9"/>
<path d="M569.486 305.111C571.861 306.639 575.007 305.925 576.512 303.587C578.04 301.212 577.326 298.066 574.987 296.561C572.612 295.033 569.489 295.71 567.961 298.085C566.457 300.424 567.147 303.606 569.486 305.111Z" fill="#F7F5F9"/>
<path d="M430.126 332.985C427.751 331.457 424.605 332.171 423.1 334.509C421.572 336.884 422.286 340.03 424.625 341.535C427 343.063 430.146 342.349 431.651 340.011C433.155 337.672 432.501 334.513 430.126 332.985Z" fill="#F7F5F9"/>
<path d="M752.692 431.619C751.164 433.994 751.878 437.14 754.217 438.645C756.592 440.173 759.738 439.459 761.243 437.121C762.771 434.746 762.094 431.623 759.718 430.095C757.403 428.553 754.221 429.244 752.692 431.619Z" fill="#F7F5F9"/>
<path d="M768.955 204.778C771.33 206.306 774.476 205.592 775.981 203.254C777.509 200.879 776.795 197.732 774.456 196.228C772.081 194.699 768.935 195.413 767.43 197.752C765.925 200.09 766.579 203.25 768.955 204.778Z" fill="#F7F5F9"/>
<path d="M650.488 156.815C652.863 158.343 656.009 157.629 657.514 155.29C659.042 152.915 658.328 149.769 655.989 148.264C653.614 146.736 650.491 147.414 648.963 149.789C647.435 152.164 648.113 155.286 650.488 156.815Z" fill="#F7F5F9"/>
<path d="M634.431 451.678C632.055 450.149 628.909 450.863 627.405 453.202C625.876 455.577 626.591 458.723 628.929 460.228C631.305 461.756 634.451 461.042 635.955 458.704C637.484 456.329 636.806 453.206 634.431 451.678Z" fill="#F7F5F9"/>
<path d="M474.316 110.68C471.941 109.152 468.795 109.866 467.29 112.204C465.762 114.579 466.44 117.702 468.815 119.23C471.19 120.759 474.313 120.081 475.841 117.706C477.369 115.331 476.655 112.185 474.316 110.68Z" fill="#F7F5F9"/>
<path d="M483.206 461.532C477.615 457.935 470.132 459.527 466.511 465.154C462.914 470.745 464.506 478.227 470.134 481.848C475.725 485.446 483.208 483.854 486.828 478.227C490.449 472.6 488.833 465.153 483.206 461.532Z" fill="#F7F5F9"/>
<path d="M771.749 287.486C777.34 291.083 784.823 289.491 788.444 283.864C792.064 278.237 790.448 270.791 784.821 267.17C779.23 263.572 771.747 265.164 768.126 270.791C764.506 276.418 766.158 283.888 771.749 287.486Z" fill="#F7F5F9"/>
<path d="M469.943 306.372L450.068 305.361L449.661 313.389L469.535 314.4L469.943 306.372Z" fill="#F7F5F9"/>
<path d="M359.5 382.04L357.159 401.821L365.166 402.787L367.507 383.007L359.5 382.04Z" fill="#F7F5F9"/>
<path d="M420.09 184.136L412.107 183.186L409.758 202.948L417.74 203.897L420.09 184.136Z" fill="#F7F5F9"/>
<path d="M580.45 387.484L572.445 386.744L570.614 406.56L578.619 407.3L580.45 387.484Z" fill="#F7F5F9"/>
<path d="M525.026 528.243L505.739 533.145L507.72 540.936L527.007 536.033L525.026 528.243Z" fill="#F7F5F9"/>
<path d="M487.074 53.5516L479.832 57.0403L488.47 74.9696L495.713 71.4809L487.074 53.5516Z" fill="#F7F5F9"/>
<path d="M690.682 430.263L710.563 431.327L710.986 423.281L691.106 422.217L690.682 430.263Z" fill="#F7F5F9"/>
<path d="M417.844 461.216L397.971 460.159L397.544 468.186L417.417 469.243L417.844 461.216Z" fill="#F7F5F9"/>
<path d="M711.349 476.5L703.729 479.059L710.063 497.924L717.683 495.366L711.349 476.5Z" fill="#F7F5F9"/>
<path d="M641.412 250.261L621.54 249.195L621.11 257.222L640.982 258.288L641.412 250.261Z" fill="#F7F5F9"/>
<path d="M592.892 567.843L573.019 566.779L572.589 574.806L592.462 575.87L592.892 567.843Z" fill="#F7F5F9"/>
<path d="M636.672 322.265L616.8 321.199L616.37 329.225L636.242 330.291L636.672 322.265Z" fill="#F7F5F9"/>
<path d="M559.99 349.583L575.003 339.661L570.591 332.947L559.597 340.236L545.903 332.769L532.893 341.345L519.2 333.877L506.203 342.513L492.51 335.046L479.5 343.621L467.947 337.325L464.096 344.354L479.929 352.991L492.903 344.392L506.596 351.86L519.606 343.284L533.3 350.751L546.297 342.115L559.99 349.583Z" fill="#F7F5F9"/>
<path d="M438.621 426.749L447.201 422.97L434.655 414.122L436.608 398.639L423.878 389.673L425.51 376.618L417.55 375.578L415.275 393.489L428.028 402.418L426.074 417.901L438.621 426.749Z" fill="#F7F5F9"/>
<path d="M555.313 475.223L542.729 466.352L544.719 450.892L531.953 441.903L533.621 428.871L525.638 427.868L523.349 445.719L536.115 454.708L534.125 470.167L546.672 479.015L555.313 475.223Z" fill="#F7F5F9"/>
<path d="M654 376.694L669.292 373.565L673.608 358.827L667.264 351.903L662.924 366.678L647.632 369.807L643.272 384.775L630.358 387.419L632.005 395.299L649.639 391.662L654 376.694Z" fill="#F7F5F9"/>
<path d="M802.878 386.306L797.045 374.493L789.822 378.009L797.8 394.199L813.368 394.657L819.29 406.734L824.368 398.842L818.446 386.765L802.878 386.306Z" fill="#F7F5F9"/>
<path d="M428.106 146.925L433.184 139.033L417.833 138.559L416.886 136.658L411.808 144.55L412.755 146.451L428.106 146.925Z" fill="#F7F5F9"/>
<path d="M833.613 270.199L825.501 283.528L833.371 296.754L842.749 296.795L834.879 283.568L842.991 270.239L835.022 256.845L841.89 245.609L835.012 241.442L825.644 256.805L833.613 270.199Z" fill="#F7F5F9"/>
<path d="M575.191 99.0151L587.896 108.017L601.835 100.969L612.602 108.568L617.22 102.033L602.538 91.6048L588.6 98.6528L575.894 89.6508L562.182 96.5867L561.479 105.951L575.191 99.0151Z" fill="#F7F5F9"/>
<path d="M492.458 239.481L483.872 252.505L492.518 268.298L499.579 264.471L493.268 252.919L501.854 239.895L494.387 226.204L502.95 213.217L495.483 199.526L504.07 186.502L496.579 172.848L503.873 161.834L497.159 157.411L487.22 172.457L494.71 186.112L486.087 199.112L493.591 212.827L484.968 225.827L492.458 239.481Z" fill="#F7F5F9"/>
<path d="M738.967 357.067L723.549 354.69L712.829 369.183L719.27 373.947L727.101 363.383L742.543 365.723L751.837 353.206L767.242 355.524L776.512 343.043L791.954 345.384L801.211 332.844L814.249 334.826L815.445 326.864L797.635 324.188L788.341 336.704L772.96 334.351L763.666 346.868L748.224 344.527L738.967 357.067Z" fill="#F7F5F9"/>
<path d="M662.239 198.941L664.395 214.381L679.066 219.687L681.222 235.128L695.893 240.434L698.085 255.898L712.719 261.181L714.571 274.204L722.508 273.111L720.024 255.289L705.377 249.946L703.197 234.542L688.55 229.2L686.37 213.796L671.723 208.453L669.544 193.049L652.581 186.888L649.884 194.453L662.239 198.941Z" fill="#F7F5F9"/>
<path d="M651.901 573.33L644.434 559.639L653.034 546.676L645.567 532.985L654.153 519.961L646.663 506.306L653.896 495.306L647.206 490.846L637.267 505.893L644.757 519.547L636.171 532.571L643.638 546.262L635.051 559.285L642.542 572.94L633.955 585.964L642.602 601.757L649.626 597.907L643.315 586.354L651.901 573.33Z" fill="#F7F5F9"/>
<path d="M701.41 314.251L696.085 291.45L688.244 293.276L693.606 316.101L701.41 314.251Z" fill="#F7F5F9"/>
<path d="M562.89 145.68L555.063 147.511L560.402 170.315L568.229 168.483L562.89 145.68Z" fill="#F7F5F9"/>
<path d="M368.912 303.1L361.085 304.932L366.423 327.735L374.25 325.904L368.912 303.1Z" fill="#F7F5F9"/>
<path d="M287.572 660.382C293.163 663.979 300.646 662.387 304.267 656.76C307.864 651.17 306.272 643.687 300.644 640.066C295.053 636.469 287.57 638.061 283.949 643.688C280.365 649.338 281.981 656.785 287.572 660.382Z" fill="#F7F5F9"/>
<path d="M280.313 460.462C285.904 464.06 293.387 462.468 297.007 456.841C300.604 451.25 299.012 443.767 293.384 440.146C287.793 436.549 280.31 438.141 276.69 443.768C273.069 449.395 274.685 456.841 280.313 460.462Z" fill="#F7F5F9"/>
<path d="M162.474 652.999C156.883 649.402 149.4 650.994 145.78 656.621C142.182 662.211 143.775 669.694 149.402 673.315C154.993 676.912 162.476 675.321 166.097 669.694C169.718 664.066 168.065 656.597 162.474 652.999Z" fill="#F7F5F9"/>
<path d="M320.638 907.647C315.047 904.05 307.564 905.642 303.944 911.269C300.347 916.859 301.939 924.342 307.566 927.963C313.157 931.561 320.64 929.969 324.261 924.342C327.882 918.714 326.229 911.245 320.638 907.647Z" fill="#F7F5F9"/>
<path d="M231.795 798.145C229.42 796.617 226.274 797.33 224.769 799.669C223.241 802.044 223.918 805.167 226.294 806.695C228.669 808.223 231.792 807.546 233.32 805.171C234.848 802.796 234.17 799.673 231.795 798.145Z" fill="#F7F5F9"/>
<path d="M47.7442 803.205C45.3689 801.677 42.2462 802.354 40.7181 804.729C39.1899 807.104 39.8675 810.227 42.2427 811.755C44.618 813.283 47.7407 812.606 49.2689 810.231C50.7971 807.856 50.1194 804.733 47.7442 803.205Z" fill="#F7F5F9"/>
<path d="M307.322 712.563C309.697 714.091 312.843 713.377 314.348 711.038C315.876 708.663 315.162 705.517 312.823 704.012C310.448 702.484 307.325 703.161 305.797 705.537C304.269 707.912 304.983 711.058 307.322 712.563Z" fill="#F7F5F9"/>
<path d="M469.221 946.468C468.257 947.966 468.192 949.835 468.867 951.355L473.499 944.157C471.859 944.135 470.209 944.933 469.221 946.468Z" fill="#F7F5F9"/>
<path d="M167.939 740.473C165.563 738.945 162.417 739.659 160.912 741.997C159.384 744.372 160.098 747.518 162.437 749.023C164.812 750.551 167.959 749.838 169.463 747.499C170.968 745.161 170.314 742.001 167.939 740.473Z" fill="#F7F5F9"/>
<path d="M490.529 839.07C489 841.446 489.715 844.592 492.053 846.097C494.428 847.625 497.575 846.911 499.079 844.572C500.608 842.197 499.93 839.074 497.555 837.546C495.216 836.041 492.057 836.695 490.529 839.07Z" fill="#F7F5F9"/>
<path d="M506.791 612.229C509.166 613.758 512.312 613.044 513.817 610.705C515.345 608.33 514.631 605.184 512.292 603.679C509.917 602.151 506.771 602.865 505.266 605.203C503.738 607.578 504.415 610.701 506.791 612.229Z" fill="#F7F5F9"/>
<path d="M388.299 564.303C390.675 565.831 393.821 565.117 395.326 562.778C396.854 560.403 396.14 557.257 393.801 555.752C391.426 554.224 388.303 554.902 386.775 557.277C385.27 559.615 385.924 562.774 388.299 564.303Z" fill="#F7F5F9"/>
<path d="M372.266 859.129C369.89 857.601 366.744 858.315 365.24 860.653C363.711 863.028 364.426 866.175 366.764 867.679C369.14 869.208 372.286 868.494 373.79 866.155C375.295 863.817 374.641 860.657 372.266 859.129Z" fill="#F7F5F9"/>
<path d="M212.152 518.132C209.777 516.603 206.631 517.317 205.126 519.656C203.598 522.031 204.276 525.153 206.651 526.682C209.026 528.21 212.149 527.533 213.677 525.158C215.182 522.819 214.491 519.636 212.152 518.132Z" fill="#F7F5F9"/>
<path d="M221.042 868.984C215.451 865.386 207.968 866.978 204.347 872.605C200.75 878.196 202.342 885.679 207.97 889.3C213.561 892.897 221.044 891.305 224.664 885.678C228.285 880.051 226.669 872.605 221.042 868.984Z" fill="#F7F5F9"/>
<path d="M509.562 694.974C515.153 698.571 522.636 696.979 526.256 691.352C529.853 685.762 528.261 678.279 522.633 674.658C517.042 671.06 509.559 672.652 505.939 678.279C502.342 683.87 503.971 691.376 509.562 694.974Z" fill="#F7F5F9"/>
<path d="M207.772 713.842L187.897 712.832L187.49 720.859L207.364 721.87L207.772 713.842Z" fill="#F7F5F9"/>
<path d="M97.335 789.492L94.9937 809.272L103.001 810.239L105.342 790.459L97.335 789.492Z" fill="#F7F5F9"/>
<path d="M157.888 591.591L149.905 590.641L147.556 610.403L155.538 611.352L157.888 591.591Z" fill="#F7F5F9"/>
<path d="M464.901 569.001L467.242 549.221L459.235 548.254L456.894 568.035L464.901 569.001Z" fill="#F7F5F9"/>
<path d="M318.288 794.98L310.283 794.24L308.452 814.055L316.457 814.795L318.288 794.98Z" fill="#F7F5F9"/>
<path d="M421.588 1011.51L427.678 1015.37L432.027 1008.61L425.937 1004.75L421.588 1011.51Z" fill="#F7F5F9"/>
<path d="M224.9 461.062L217.658 464.55L226.297 482.48L233.539 478.991L224.9 461.062Z" fill="#F7F5F9"/>
<path d="M622.705 661.965L615.463 665.453L624.1 683.381L631.341 679.893L622.705 661.965Z" fill="#F7F5F9"/>
<path d="M428.494 837.751L448.374 838.815L448.798 830.769L428.917 829.705L428.494 837.751Z" fill="#F7F5F9"/>
<path d="M449.194 883.974L441.573 886.532L447.908 905.397L455.528 902.839L449.194 883.974Z" fill="#F7F5F9"/>
<path d="M379.231 657.698L359.358 656.633L358.928 664.659L378.801 665.725L379.231 657.698Z" fill="#F7F5F9"/>
<path d="M374.474 729.701L354.602 728.635L354.172 736.662L374.044 737.728L374.474 729.701Z" fill="#F7F5F9"/>
<path d="M297.803 757.071L312.839 747.112L308.403 740.435L297.433 747.688L283.739 740.22L270.706 748.833L257.012 741.365L244.039 749.965L230.346 742.497L217.312 751.109L205.783 744.776L201.908 751.842L217.742 760.479L230.715 751.88L244.409 759.348L257.442 750.735L271.136 758.203L284.109 749.604L297.803 757.071Z" fill="#F7F5F9"/>
<path d="M176.433 834.237L185.014 830.458L172.467 821.61L174.42 806.127L161.691 797.161L163.346 784.069L155.362 783.066L153.11 800.941L165.84 809.906L163.887 825.389L176.433 834.237Z" fill="#F7F5F9"/>
<path d="M293.124 882.711L280.541 873.84L282.531 858.38L269.765 849.391L271.433 836.359L263.473 835.319L261.184 853.17L273.95 862.159L271.96 877.619L284.507 886.467L293.124 882.711Z" fill="#F7F5F9"/>
<path d="M391.811 784.182L407.104 781.053L411.443 766.279L405.075 759.391L400.759 774.129L385.467 777.258L381.107 792.226L368.193 794.87L369.816 802.787L387.451 799.15L391.811 784.182Z" fill="#F7F5F9"/>
<path d="M436.294 961.345L420.727 960.886L414.917 949.036L407.707 952.613L415.648 968.779L431.216 969.237L438.122 983.239L448.178 983.509L453.257 975.617L443.2 975.346L436.294 961.345Z" fill="#F7F5F9"/>
<path d="M540.69 793.794L534.88 781.944L527.634 785.497L535.612 801.687L551.179 802.145L557.125 814.186L562.203 806.293L556.258 794.253L540.69 793.794Z" fill="#F7F5F9"/>
<path d="M165.941 554.377L171.019 546.484L155.644 546.047L154.721 544.109L149.643 552.002L150.566 553.939L165.941 554.377Z" fill="#F7F5F9"/>
<path d="M571.425 677.687L563.314 691.016L571.207 704.206L580.585 704.246L572.692 691.056L580.803 677.727L572.835 664.333L579.703 653.097L572.825 648.93L563.457 664.293L571.425 677.687Z" fill="#F7F5F9"/>
<path d="M313.003 506.503L325.732 515.469L339.648 508.457L350.415 516.056L355.056 509.485L340.351 499.093L326.412 506.141L313.706 497.139L299.994 504.075L299.291 513.439L313.003 506.503Z" fill="#F7F5F9"/>
<path d="M230.271 646.969L221.685 659.993L230.331 675.786L237.392 671.959L231.081 660.407L239.667 647.383L232.2 633.692L240.786 620.669L233.296 607.014L241.882 593.99L234.415 580.299L241.685 569.322L234.972 564.899L225.056 579.909L232.523 593.6L223.9 606.6L231.427 620.278L222.804 633.278L230.271 646.969Z" fill="#F7F5F9"/>
<path d="M476.802 764.519L461.36 762.178L450.64 776.671L457.082 781.435L464.936 770.834L480.355 773.211L489.648 760.694L505.054 763.012L514.347 750.495L529.766 752.872L539.023 740.332L552.06 742.314L553.256 734.352L535.47 731.639L526.177 744.156L510.771 741.839L501.477 754.356L486.059 751.978L476.802 764.519Z" fill="#F7F5F9"/>
<path d="M400.052 606.429L402.231 621.833L416.878 627.175L419.058 642.58L433.705 647.922L435.921 663.35L450.532 668.669L452.383 681.692L460.344 680.562L457.86 662.741L443.189 657.434L441.033 641.994L426.362 636.688L424.206 621.247L409.536 615.941L407.38 600.501L390.417 594.34L387.697 601.941L400.052 606.429Z" fill="#F7F5F9"/>
<path d="M389.714 980.818L382.247 967.127L390.87 954.127L383.379 940.473L391.966 927.449L384.499 913.758L391.732 902.757L385.019 898.334L375.103 913.344L382.57 927.035L373.983 940.059L381.45 953.75L372.887 966.737L380.354 980.428L371.768 993.452L380.414 1009.24L387.439 1005.39L381.127 993.842L389.714 980.818Z" fill="#F7F5F9"/>
<path d="M439.246 721.703L433.898 698.938L426.057 700.764L431.442 723.553L439.246 721.703Z" fill="#F7F5F9"/>
<path d="M300.73 553.157L292.903 554.988L298.242 577.792L306.068 575.96L300.73 553.157Z" fill="#F7F5F9"/>
<path d="M106.753 710.577L98.9258 712.409L104.264 735.212L112.091 733.381L106.753 710.577Z" fill="#F7F5F9"/>
</g>
</svg>
