<svg width="367" height="769" viewBox="0 0 367 769" fill="none" xmlns="http://www.w3.org/2000/svg">
<path d="M36.8257 222.163C31.2348 218.565 23.7517 220.157 20.1311 225.784C16.534 231.375 18.1265 238.858 23.754 242.479C29.3449 246.076 36.828 244.484 40.4486 238.857C44.0692 233.23 42.4167 225.76 36.8257 222.163Z" fill="#F7F5F9"/>
<path d="M23.4859 27.1145C25.8612 28.6428 29.0074 27.9289 30.5121 25.5903C32.0403 23.2153 31.3261 20.0691 28.9874 18.5643C26.6121 17.036 23.4894 17.7134 21.9612 20.0885C20.4565 22.427 21.1472 25.6097 23.4859 27.1145Z" fill="#F7F5F9"/>
<path d="M206.692 153.622C205.164 155.997 205.878 159.144 208.217 160.648C210.592 162.177 213.738 161.463 215.243 159.124C216.771 156.749 216.094 153.627 213.718 152.098C211.403 150.557 208.221 151.247 206.692 153.622Z" fill="#F7F5F9"/>
<path d="M88.4307 173.681C86.0555 172.153 82.9092 172.867 81.4045 175.205C79.8764 177.58 80.5906 180.727 82.9293 182.231C85.3046 183.76 88.4508 183.046 89.9554 180.707C91.4836 178.332 90.806 175.209 88.4307 173.681Z" fill="#F7F5F9"/>
<path d="M225.749 9.48916C231.34 13.0865 238.823 11.4946 242.444 5.86757C246.064 0.240492 244.448 -7.20592 238.821 -10.8268C233.23 -14.4242 225.747 -12.8323 222.126 -7.20519C218.506 -1.57812 220.158 5.8918 225.749 9.48916Z" fill="#F7F5F9"/>
<path d="M34.4499 109.488L26.4453 108.747L24.6143 128.563L32.6189 129.303L34.4499 109.488Z" fill="#F7F5F9"/>
<path d="M144.682 152.267L164.563 153.33L164.986 145.284L145.106 144.221L144.682 152.267Z" fill="#F7F5F9"/>
<path d="M165.349 198.504L157.729 201.062L164.063 219.927L171.683 217.369L165.349 198.504Z" fill="#F7F5F9"/>
<path d="M46.8917 289.846L27.0186 288.782L26.5893 296.809L46.4624 297.873L46.8917 289.846Z" fill="#F7F5F9"/>
<path d="M90.6719 44.268L70.7998 43.2022L70.3699 51.2289L90.242 52.2947L90.6719 44.268Z" fill="#F7F5F9"/>
<path d="M13.9901 71.5862L29.0031 61.6643L24.5907 54.9503L13.5967 62.2398L-0.0966574 54.7724L-13.1067 63.3481L-26.8001 55.8808L-39.7971 64.5165L-53.4904 57.0492L-66.5005 65.6249L-78.0534 59.3281L-81.9043 66.357L-66.0705 74.9948L-53.097 66.3957L-39.4036 73.863L-26.3936 65.2873L-12.7003 72.7546L0.296746 64.1189L13.9901 71.5862Z" fill="#F7F5F9"/>
<path d="M9.3126 197.226L-3.27066 188.355L-1.28079 172.895L-14.0468 163.906L-12.3789 150.875L-20.3623 149.871L-22.6507 167.722L-9.88467 176.711L-11.8746 192.171L0.672169 201.019L9.3126 197.226Z" fill="#F7F5F9"/>
<path d="M108 98.6974L123.292 95.5685L127.608 80.8305L121.264 73.9067L116.924 88.6814L101.632 91.8102L97.2716 106.778L84.3578 109.422L86.0049 117.302L103.639 113.665L108 98.6974Z" fill="#F7F5F9"/>
<path d="M256.878 108.31L251.045 96.4963L243.822 100.012L251.8 116.202L267.368 116.661L273.29 128.738L278.368 120.845L272.446 108.768L256.878 108.31Z" fill="#F7F5F9"/>
<path d="M287.613 -7.79802L279.501 5.53126L287.371 18.7578L296.749 18.7985L288.879 5.57189L296.991 -7.7574L289.022 -21.1511L295.89 -32.3871L289.012 -36.5542L279.644 -21.1917L287.613 -7.79802Z" fill="#F7F5F9"/>
<path d="M192.967 79.0708L177.549 76.6935L166.829 91.186L173.27 95.9507L181.101 85.3861L196.543 87.7267L205.837 75.2099L221.242 77.5271L230.512 65.0468L245.954 67.3875L255.211 54.8471L268.249 56.8291L269.445 48.867L251.635 46.1911L242.341 58.708L226.96 56.3542L217.666 68.8711L202.224 66.5304L192.967 79.0708Z" fill="#F7F5F9"/>
<path d="M105.901 295.334L98.4343 281.643L107.034 268.679L99.5667 254.988L108.153 241.965L100.663 228.31L107.896 217.309L101.206 212.85L91.2666 227.896L98.7571 241.551L90.1707 254.574L97.6377 268.265L89.0513 281.289L96.5418 294.943L87.9555 307.967L96.6018 323.76L103.626 319.91L97.3149 308.358L105.901 295.334Z" fill="#F7F5F9"/>
<path d="M155.41 36.2546L150.085 13.4531L142.244 15.2798L147.606 38.1048L155.41 36.2546Z" fill="#F7F5F9"/>
<path d="M76.7046 383.968L69.4629 387.456L78.0996 405.385L85.3413 401.897L76.7046 383.968Z" fill="#F7F5F9"/>
<path d="M-5.55979 516.186L-11.1578 504.006L-18.6185 507.893L-10.9295 524.531L4.88799 524.602L10.6189 536.976L15.9887 528.63L10.2577 516.256L-5.55979 516.186Z" fill="#F7F5F9"/>
<path d="M25.1392 400.135L16.8505 413.74L24.6656 427.05L34.1008 427.002L26.2856 413.691L34.5744 400.086L26.6851 386.57L33.7027 375.101L26.8224 370.938L17.2499 386.618L25.1392 400.135Z" fill="#F7F5F9"/>
<path d="M-69.5922 487.135L-85.0718 484.853L-95.8979 499.51L-89.4594 504.28L-81.5271 493.558L-66.0713 495.877L-56.6857 483.217L-41.2427 485.476L-31.8571 472.816L-16.4013 475.135L-7.05225 462.452L6.01705 464.385L7.25647 456.355L-10.5731 453.71L-19.9587 466.37L-35.4017 464.111L-44.7873 476.771L-60.2431 474.452L-69.5922 487.135Z" fill="#F7F5F9"/>
</svg>
