<svg width="1400" height="1173" viewBox="0 0 1400 1173" fill="none" xmlns="http://www.w3.org/2000/svg">
<mask id="mask0" mask-type="alpha" maskUnits="userSpaceOnUse" x="0" y="0" width="1400" height="1173">
<rect width="1400" height="1173" fill="#F7F5F9"/>
</mask>
<g mask="url(#mask0)">
<g opacity="0.456808">
<path fill-rule="evenodd" clip-rule="evenodd" d="M1251.76 8.56662C1253.58 8.56662 1255.06 7.09448 1255.06 5.27303C1255.06 3.45656 1253.58 1.97943 1251.76 1.97943C1249.95 1.97943 1248.47 3.45656 1248.47 5.27303C1248.47 7.09448 1249.95 8.56662 1251.76 8.56662Z" fill="#F7F5F9"/>
<path fill-rule="evenodd" clip-rule="evenodd" d="M1284.75 8.56662C1286.57 8.56662 1288.05 7.09448 1288.05 5.27303C1288.05 3.45656 1286.57 1.97943 1284.75 1.97943C1282.94 1.97943 1281.46 3.45656 1281.46 5.27303C1281.46 7.09448 1282.94 8.56662 1284.75 8.56662Z" fill="#F7F5F9"/>
<path fill-rule="evenodd" clip-rule="evenodd" d="M1317.74 8.56662C1319.56 8.56662 1321.03 7.09448 1321.03 5.27303C1321.03 3.45656 1319.56 1.97943 1317.74 1.97943C1315.92 1.97943 1314.45 3.45656 1314.45 5.27303C1314.45 7.09448 1315.92 8.56662 1317.74 8.56662Z" fill="#F7F5F9"/>
<path fill-rule="evenodd" clip-rule="evenodd" d="M1350.73 8.56662C1352.54 8.56662 1354.02 7.09448 1354.02 5.27303C1354.02 3.45656 1352.54 1.97943 1350.73 1.97943C1348.92 1.97943 1347.43 3.45656 1347.43 5.27303C1347.43 7.09448 1348.92 8.56662 1350.73 8.56662Z" fill="#F7F5F9"/>
<path fill-rule="evenodd" clip-rule="evenodd" d="M1383.72 8.56662C1385.53 8.56662 1387.01 7.09448 1387.01 5.27303C1387.01 3.45656 1385.53 1.97943 1383.72 1.97943C1381.9 1.97943 1380.42 3.45656 1380.42 5.27303C1380.42 7.09448 1381.9 8.56662 1383.72 8.56662Z" fill="#F7F5F9"/>
<path fill-rule="evenodd" clip-rule="evenodd" d="M1251.76 41.559C1253.58 41.559 1255.06 40.0869 1255.06 38.2654C1255.06 36.4439 1253.58 34.9718 1251.76 34.9718C1249.95 34.9718 1248.47 36.4439 1248.47 38.2654C1248.47 40.0869 1249.95 41.559 1251.76 41.559Z" fill="#F7F5F9"/>
<path fill-rule="evenodd" clip-rule="evenodd" d="M1284.75 41.559C1286.57 41.559 1288.05 40.0869 1288.05 38.2654C1288.05 36.4439 1286.57 34.9718 1284.75 34.9718C1282.94 34.9718 1281.46 36.4439 1281.46 38.2654C1281.46 40.0869 1282.94 41.559 1284.75 41.559Z" fill="#F7F5F9"/>
<path fill-rule="evenodd" clip-rule="evenodd" d="M1317.74 41.559C1319.56 41.559 1321.03 40.0869 1321.03 38.2654C1321.03 36.4439 1319.56 34.9718 1317.74 34.9718C1315.92 34.9718 1314.45 36.4439 1314.45 38.2654C1314.45 40.0869 1315.92 41.559 1317.74 41.559Z" fill="#F7F5F9"/>
<path fill-rule="evenodd" clip-rule="evenodd" d="M1350.73 41.559C1352.54 41.559 1354.02 40.0869 1354.02 38.2654C1354.02 36.4439 1352.54 34.9718 1350.73 34.9718C1348.92 34.9718 1347.43 36.4439 1347.43 38.2654C1347.43 40.0869 1348.92 41.559 1350.73 41.559Z" fill="#F7F5F9"/>
<path fill-rule="evenodd" clip-rule="evenodd" d="M1383.72 41.559C1385.53 41.559 1387.01 40.0869 1387.01 38.2654C1387.01 36.4439 1385.53 34.9718 1383.72 34.9718C1381.9 34.9718 1380.42 36.4439 1380.42 38.2654C1380.42 40.0869 1381.9 41.559 1383.72 41.559Z" fill="#F7F5F9"/>
<path fill-rule="evenodd" clip-rule="evenodd" d="M1251.76 74.5468C1253.58 74.5468 1255.06 73.0697 1255.06 71.2532C1255.06 69.4367 1253.58 67.9646 1251.76 67.9646C1249.95 67.9646 1248.47 69.4367 1248.47 71.2532C1248.47 73.0697 1249.95 74.5468 1251.76 74.5468Z" fill="#F7F5F9"/>
<path fill-rule="evenodd" clip-rule="evenodd" d="M1284.75 74.5468C1286.57 74.5468 1288.05 73.0697 1288.05 71.2532C1288.05 69.4367 1286.57 67.9646 1284.75 67.9646C1282.94 67.9646 1281.46 69.4367 1281.46 71.2532C1281.46 73.0697 1282.94 74.5468 1284.75 74.5468Z" fill="#F7F5F9"/>
<path fill-rule="evenodd" clip-rule="evenodd" d="M1317.74 74.5468C1319.56 74.5468 1321.03 73.0697 1321.03 71.2532C1321.03 69.4367 1319.56 67.9646 1317.74 67.9646C1315.92 67.9646 1314.45 69.4367 1314.45 71.2532C1314.45 73.0697 1315.92 74.5468 1317.74 74.5468Z" fill="#F7F5F9"/>
<path fill-rule="evenodd" clip-rule="evenodd" d="M1350.73 74.5468C1352.54 74.5468 1354.02 73.0697 1354.02 71.2532C1354.02 69.4367 1352.54 67.9646 1350.73 67.9646C1348.92 67.9646 1347.43 69.4367 1347.43 71.2532C1347.43 73.0697 1348.92 74.5468 1350.73 74.5468Z" fill="#F7F5F9"/>
<path fill-rule="evenodd" clip-rule="evenodd" d="M1383.72 74.5468C1385.53 74.5468 1387.01 73.0697 1387.01 71.2532C1387.01 69.4367 1385.53 67.9646 1383.72 67.9646C1381.9 67.9646 1380.42 69.4367 1380.42 71.2532C1380.42 73.0697 1381.9 74.5468 1383.72 74.5468Z" fill="#F7F5F9"/>
<path fill-rule="evenodd" clip-rule="evenodd" d="M1251.76 107.534C1253.58 107.534 1255.06 106.062 1255.06 104.241C1255.06 102.424 1253.58 100.947 1251.76 100.947C1249.95 100.947 1248.47 102.424 1248.47 104.241C1248.47 106.062 1249.95 107.534 1251.76 107.534Z" fill="#F7F5F9"/>
<path fill-rule="evenodd" clip-rule="evenodd" d="M1284.75 107.534C1286.57 107.534 1288.05 106.062 1288.05 104.241C1288.05 102.424 1286.57 100.947 1284.75 100.947C1282.94 100.947 1281.46 102.424 1281.46 104.241C1281.46 106.062 1282.94 107.534 1284.75 107.534Z" fill="#F7F5F9"/>
<path fill-rule="evenodd" clip-rule="evenodd" d="M1317.74 107.534C1319.56 107.534 1321.03 106.062 1321.03 104.241C1321.03 102.424 1319.56 100.947 1317.74 100.947C1315.92 100.947 1314.45 102.424 1314.45 104.241C1314.45 106.062 1315.92 107.534 1317.74 107.534Z" fill="#F7F5F9"/>
<path fill-rule="evenodd" clip-rule="evenodd" d="M1350.73 107.534C1352.54 107.534 1354.02 106.062 1354.02 104.241C1354.02 102.424 1352.54 100.947 1350.73 100.947C1348.92 100.947 1347.43 102.424 1347.43 104.241C1347.43 106.062 1348.92 107.534 1350.73 107.534Z" fill="#F7F5F9"/>
<path fill-rule="evenodd" clip-rule="evenodd" d="M1383.72 107.534C1385.53 107.534 1387.01 106.062 1387.01 104.241C1387.01 102.424 1385.53 100.947 1383.72 100.947C1381.9 100.947 1380.42 102.424 1380.42 104.241C1380.42 106.062 1381.9 107.534 1383.72 107.534Z" fill="#F7F5F9"/>
<path fill-rule="evenodd" clip-rule="evenodd" d="M1251.76 140.527C1253.58 140.527 1255.06 139.054 1255.06 137.233C1255.06 135.411 1253.58 133.939 1251.76 133.939C1249.95 133.939 1248.47 135.411 1248.47 137.233C1248.47 139.054 1249.95 140.527 1251.76 140.527Z" fill="#F7F5F9"/>
<path fill-rule="evenodd" clip-rule="evenodd" d="M1284.75 140.527C1286.57 140.527 1288.05 139.054 1288.05 137.233C1288.05 135.411 1286.57 133.939 1284.75 133.939C1282.94 133.939 1281.46 135.411 1281.46 137.233C1281.46 139.054 1282.94 140.527 1284.75 140.527Z" fill="#F7F5F9"/>
<path fill-rule="evenodd" clip-rule="evenodd" d="M1317.74 140.527C1319.56 140.527 1321.03 139.054 1321.03 137.233C1321.03 135.411 1319.56 133.939 1317.74 133.939C1315.92 133.939 1314.45 135.411 1314.45 137.233C1314.45 139.054 1315.92 140.527 1317.74 140.527Z" fill="#F7F5F9"/>
<path fill-rule="evenodd" clip-rule="evenodd" d="M1350.73 140.527C1352.54 140.527 1354.02 139.054 1354.02 137.233C1354.02 135.411 1352.54 133.939 1350.73 133.939C1348.92 133.939 1347.43 135.411 1347.43 137.233C1347.43 139.054 1348.92 140.527 1350.73 140.527Z" fill="#F7F5F9"/>
<path fill-rule="evenodd" clip-rule="evenodd" d="M1383.72 140.527C1385.53 140.527 1387.01 139.054 1387.01 137.233C1387.01 135.411 1385.53 133.939 1383.72 133.939C1381.9 133.939 1380.42 135.411 1380.42 137.233C1380.42 139.054 1381.9 140.527 1383.72 140.527Z" fill="#F7F5F9"/>
<path fill-rule="evenodd" clip-rule="evenodd" d="M1251.76 173.514C1253.58 173.514 1255.06 172.037 1255.06 170.221C1255.06 168.404 1253.58 166.927 1251.76 166.927C1249.95 166.927 1248.47 168.404 1248.47 170.221C1248.47 172.037 1249.95 173.514 1251.76 173.514Z" fill="#F7F5F9"/>
<path fill-rule="evenodd" clip-rule="evenodd" d="M1284.75 173.514C1286.57 173.514 1288.05 172.037 1288.05 170.221C1288.05 168.404 1286.57 166.927 1284.75 166.927C1282.94 166.927 1281.46 168.404 1281.46 170.221C1281.46 172.037 1282.94 173.514 1284.75 173.514Z" fill="#F7F5F9"/>
<path fill-rule="evenodd" clip-rule="evenodd" d="M1317.74 173.514C1319.56 173.514 1321.03 172.037 1321.03 170.221C1321.03 168.404 1319.56 166.927 1317.74 166.927C1315.92 166.927 1314.45 168.404 1314.45 170.221C1314.45 172.037 1315.92 173.514 1317.74 173.514Z" fill="#F7F5F9"/>
<path fill-rule="evenodd" clip-rule="evenodd" d="M1350.73 173.514C1352.54 173.514 1354.02 172.037 1354.02 170.221C1354.02 168.404 1352.54 166.927 1350.73 166.927C1348.92 166.927 1347.43 168.404 1347.43 170.221C1347.43 172.037 1348.92 173.514 1350.73 173.514Z" fill="#F7F5F9"/>
<path fill-rule="evenodd" clip-rule="evenodd" d="M1383.72 173.514C1385.53 173.514 1387.01 172.037 1387.01 170.221C1387.01 168.404 1385.53 166.927 1383.72 166.927C1381.9 166.927 1380.42 168.404 1380.42 170.221C1380.42 172.037 1381.9 173.514 1383.72 173.514Z" fill="#F7F5F9"/>
<path fill-rule="evenodd" clip-rule="evenodd" d="M1251.76 206.502C1253.58 206.502 1255.06 205.03 1255.06 203.208C1255.06 201.387 1253.58 199.914 1251.76 199.914C1249.95 199.914 1248.47 201.387 1248.47 203.208C1248.47 205.03 1249.95 206.502 1251.76 206.502Z" fill="#F7F5F9"/>
<path fill-rule="evenodd" clip-rule="evenodd" d="M1284.75 206.502C1286.57 206.502 1288.05 205.03 1288.05 203.208C1288.05 201.387 1286.57 199.914 1284.75 199.914C1282.94 199.914 1281.46 201.387 1281.46 203.208C1281.46 205.03 1282.94 206.502 1284.75 206.502Z" fill="#F7F5F9"/>
<path fill-rule="evenodd" clip-rule="evenodd" d="M1317.74 206.502C1319.56 206.502 1321.03 205.03 1321.03 203.208C1321.03 201.387 1319.56 199.914 1317.74 199.914C1315.92 199.914 1314.45 201.387 1314.45 203.208C1314.45 205.03 1315.92 206.502 1317.74 206.502Z" fill="#F7F5F9"/>
<path fill-rule="evenodd" clip-rule="evenodd" d="M1350.73 206.502C1352.54 206.502 1354.02 205.03 1354.02 203.208C1354.02 201.387 1352.54 199.914 1350.73 199.914C1348.92 199.914 1347.43 201.387 1347.43 203.208C1347.43 205.03 1348.92 206.502 1350.73 206.502Z" fill="#F7F5F9"/>
<path fill-rule="evenodd" clip-rule="evenodd" d="M1383.72 206.502C1385.53 206.502 1387.01 205.03 1387.01 203.208C1387.01 201.387 1385.53 199.914 1383.72 199.914C1381.9 199.914 1380.42 201.387 1380.42 203.208C1380.42 205.03 1381.9 206.502 1383.72 206.502Z" fill="#F7F5F9"/>
<path fill-rule="evenodd" clip-rule="evenodd" d="M1251.76 239.495C1253.58 239.495 1255.06 238.017 1255.06 236.201C1255.06 234.379 1253.58 232.907 1251.76 232.907C1249.95 232.907 1248.47 234.379 1248.47 236.201C1248.47 238.017 1249.95 239.495 1251.76 239.495Z" fill="#F7F5F9"/>
<path fill-rule="evenodd" clip-rule="evenodd" d="M1284.75 239.495C1286.57 239.495 1288.05 238.017 1288.05 236.201C1288.05 234.379 1286.57 232.907 1284.75 232.907C1282.94 232.907 1281.46 234.379 1281.46 236.201C1281.46 238.017 1282.94 239.495 1284.75 239.495Z" fill="#F7F5F9"/>
<path fill-rule="evenodd" clip-rule="evenodd" d="M1317.74 239.495C1319.56 239.495 1321.03 238.017 1321.03 236.201C1321.03 234.379 1319.56 232.907 1317.74 232.907C1315.92 232.907 1314.45 234.379 1314.45 236.201C1314.45 238.017 1315.92 239.495 1317.74 239.495Z" fill="#F7F5F9"/>
<path fill-rule="evenodd" clip-rule="evenodd" d="M1350.73 239.495C1352.54 239.495 1354.02 238.017 1354.02 236.201C1354.02 234.379 1352.54 232.907 1350.73 232.907C1348.92 232.907 1347.43 234.379 1347.43 236.201C1347.43 238.017 1348.92 239.495 1350.73 239.495Z" fill="#F7F5F9"/>
<path fill-rule="evenodd" clip-rule="evenodd" d="M1383.72 239.495C1385.53 239.495 1387.01 238.017 1387.01 236.201C1387.01 234.379 1385.53 232.907 1383.72 232.907C1381.9 232.907 1380.42 234.379 1380.42 236.201C1380.42 238.017 1381.9 239.495 1383.72 239.495Z" fill="#F7F5F9"/>
<path fill-rule="evenodd" clip-rule="evenodd" d="M1251.76 272.477C1253.58 272.477 1255.06 271.005 1255.06 269.184C1255.06 267.372 1253.58 265.89 1251.76 265.89C1249.95 265.89 1248.47 267.372 1248.47 269.184C1248.47 271.005 1249.95 272.477 1251.76 272.477Z" fill="#F7F5F9"/>
<path fill-rule="evenodd" clip-rule="evenodd" d="M1284.75 272.477C1286.57 272.477 1288.05 271.005 1288.05 269.184C1288.05 267.372 1286.57 265.89 1284.75 265.89C1282.94 265.89 1281.46 267.372 1281.46 269.184C1281.46 271.005 1282.94 272.477 1284.75 272.477Z" fill="#F7F5F9"/>
<path fill-rule="evenodd" clip-rule="evenodd" d="M1317.74 272.477C1319.56 272.477 1321.03 271.005 1321.03 269.184C1321.03 267.372 1319.56 265.89 1317.74 265.89C1315.92 265.89 1314.45 267.372 1314.45 269.184C1314.45 271.005 1315.92 272.477 1317.74 272.477Z" fill="#F7F5F9"/>
<path fill-rule="evenodd" clip-rule="evenodd" d="M1350.73 272.477C1352.54 272.477 1354.02 271.005 1354.02 269.184C1354.02 267.372 1352.54 265.89 1350.73 265.89C1348.92 265.89 1347.43 267.372 1347.43 269.184C1347.43 271.005 1348.92 272.477 1350.73 272.477Z" fill="#F7F5F9"/>
<path fill-rule="evenodd" clip-rule="evenodd" d="M1383.72 272.477C1385.53 272.477 1387.01 271.005 1387.01 269.184C1387.01 267.372 1385.53 265.89 1383.72 265.89C1381.9 265.89 1380.42 267.372 1380.42 269.184C1380.42 271.005 1381.9 272.477 1383.72 272.477Z" fill="#F7F5F9"/>
<path fill-rule="evenodd" clip-rule="evenodd" d="M1251.76 305.47C1253.58 305.47 1255.06 303.998 1255.06 302.176C1255.06 300.355 1253.58 298.883 1251.76 298.883C1249.95 298.883 1248.47 300.355 1248.47 302.176C1248.47 303.998 1249.95 305.47 1251.76 305.47Z" fill="#F7F5F9"/>
<path fill-rule="evenodd" clip-rule="evenodd" d="M1284.75 305.47C1286.57 305.47 1288.05 303.998 1288.05 302.176C1288.05 300.355 1286.57 298.883 1284.75 298.883C1282.94 298.883 1281.46 300.355 1281.46 302.176C1281.46 303.998 1282.94 305.47 1284.75 305.47Z" fill="#F7F5F9"/>
<path fill-rule="evenodd" clip-rule="evenodd" d="M1317.74 305.47C1319.56 305.47 1321.03 303.998 1321.03 302.176C1321.03 300.355 1319.56 298.883 1317.74 298.883C1315.92 298.883 1314.45 300.355 1314.45 302.176C1314.45 303.998 1315.92 305.47 1317.74 305.47Z" fill="#F7F5F9"/>
<path fill-rule="evenodd" clip-rule="evenodd" d="M1350.73 305.47C1352.54 305.47 1354.02 303.998 1354.02 302.176C1354.02 300.355 1352.54 298.883 1350.73 298.883C1348.92 298.883 1347.43 300.355 1347.43 302.176C1347.43 303.998 1348.92 305.47 1350.73 305.47Z" fill="#F7F5F9"/>
<path fill-rule="evenodd" clip-rule="evenodd" d="M1383.72 305.47C1385.53 305.47 1387.01 303.998 1387.01 302.176C1387.01 300.355 1385.53 298.883 1383.72 298.883C1381.9 298.883 1380.42 300.355 1380.42 302.176C1380.42 303.998 1381.9 305.47 1383.72 305.47Z" fill="#F7F5F9"/>
<path fill-rule="evenodd" clip-rule="evenodd" d="M1251.76 338.457C1253.58 338.457 1255.06 336.98 1255.06 335.168C1255.06 333.347 1253.58 331.875 1251.76 331.875C1249.95 331.875 1248.47 333.347 1248.47 335.168C1248.47 336.98 1249.95 338.457 1251.76 338.457Z" fill="#F7F5F9"/>
<path fill-rule="evenodd" clip-rule="evenodd" d="M1284.75 338.457C1286.57 338.457 1288.05 336.98 1288.05 335.168C1288.05 333.347 1286.57 331.875 1284.75 331.875C1282.94 331.875 1281.46 333.347 1281.46 335.168C1281.46 336.98 1282.94 338.457 1284.75 338.457Z" fill="#F7F5F9"/>
<path fill-rule="evenodd" clip-rule="evenodd" d="M1317.74 338.457C1319.56 338.457 1321.03 336.98 1321.03 335.168C1321.03 333.347 1319.56 331.875 1317.74 331.875C1315.92 331.875 1314.45 333.347 1314.45 335.168C1314.45 336.98 1315.92 338.457 1317.74 338.457Z" fill="#F7F5F9"/>
<path fill-rule="evenodd" clip-rule="evenodd" d="M1350.73 338.457C1352.54 338.457 1354.02 336.98 1354.02 335.168C1354.02 333.347 1352.54 331.875 1350.73 331.875C1348.92 331.875 1347.43 333.347 1347.43 335.168C1347.43 336.98 1348.92 338.457 1350.73 338.457Z" fill="#F7F5F9"/>
<path fill-rule="evenodd" clip-rule="evenodd" d="M1383.72 338.457C1385.53 338.457 1387.01 336.98 1387.01 335.168C1387.01 333.347 1385.53 331.875 1383.72 331.875C1381.9 331.875 1380.42 333.347 1380.42 335.168C1380.42 336.98 1381.9 338.457 1383.72 338.457Z" fill="#F7F5F9"/>
<path fill-rule="evenodd" clip-rule="evenodd" d="M1251.76 371.445C1253.58 371.445 1255.06 369.973 1255.06 368.151C1255.06 366.335 1253.58 364.858 1251.76 364.858C1249.95 364.858 1248.47 366.335 1248.47 368.151C1248.47 369.973 1249.95 371.445 1251.76 371.445Z" fill="#F7F5F9"/>
<path fill-rule="evenodd" clip-rule="evenodd" d="M1284.75 371.445C1286.57 371.445 1288.05 369.973 1288.05 368.151C1288.05 366.335 1286.57 364.858 1284.75 364.858C1282.94 364.858 1281.46 366.335 1281.46 368.151C1281.46 369.973 1282.94 371.445 1284.75 371.445Z" fill="#F7F5F9"/>
<path fill-rule="evenodd" clip-rule="evenodd" d="M1317.74 371.445C1319.56 371.445 1321.03 369.973 1321.03 368.151C1321.03 366.335 1319.56 364.858 1317.74 364.858C1315.92 364.858 1314.45 366.335 1314.45 368.151C1314.45 369.973 1315.92 371.445 1317.74 371.445Z" fill="#F7F5F9"/>
<path fill-rule="evenodd" clip-rule="evenodd" d="M1350.73 371.445C1352.54 371.445 1354.02 369.973 1354.02 368.151C1354.02 366.335 1352.54 364.858 1350.73 364.858C1348.92 364.858 1347.43 366.335 1347.43 368.151C1347.43 369.973 1348.92 371.445 1350.73 371.445Z" fill="#F7F5F9"/>
<path fill-rule="evenodd" clip-rule="evenodd" d="M1383.72 371.445C1385.53 371.445 1387.01 369.973 1387.01 368.151C1387.01 366.335 1385.53 364.858 1383.72 364.858C1381.9 364.858 1380.42 366.335 1380.42 368.151C1380.42 369.973 1381.9 371.445 1383.72 371.445Z" fill="#F7F5F9"/>
<path fill-rule="evenodd" clip-rule="evenodd" d="M1251.76 404.437C1253.58 404.437 1255.06 402.965 1255.06 401.144C1255.06 399.322 1253.58 397.85 1251.76 397.85C1249.95 397.85 1248.47 399.322 1248.47 401.144C1248.47 402.965 1249.95 404.437 1251.76 404.437Z" fill="#F7F5F9"/>
<path fill-rule="evenodd" clip-rule="evenodd" d="M1284.75 404.437C1286.57 404.437 1288.05 402.965 1288.05 401.144C1288.05 399.322 1286.57 397.85 1284.75 397.85C1282.94 397.85 1281.46 399.322 1281.46 401.144C1281.46 402.965 1282.94 404.437 1284.75 404.437Z" fill="#F7F5F9"/>
<path fill-rule="evenodd" clip-rule="evenodd" d="M1317.74 404.437C1319.56 404.437 1321.03 402.965 1321.03 401.144C1321.03 399.322 1319.56 397.85 1317.74 397.85C1315.92 397.85 1314.45 399.322 1314.45 401.144C1314.45 402.965 1315.92 404.437 1317.74 404.437Z" fill="#F7F5F9"/>
<path fill-rule="evenodd" clip-rule="evenodd" d="M1350.73 404.437C1352.54 404.437 1354.02 402.965 1354.02 401.144C1354.02 399.322 1352.54 397.85 1350.73 397.85C1348.92 397.85 1347.43 399.322 1347.43 401.144C1347.43 402.965 1348.92 404.437 1350.73 404.437Z" fill="#F7F5F9"/>
<path fill-rule="evenodd" clip-rule="evenodd" d="M1383.72 404.437C1385.53 404.437 1387.01 402.965 1387.01 401.144C1387.01 399.322 1385.53 397.85 1383.72 397.85C1381.9 397.85 1380.42 399.322 1380.42 401.144C1380.42 402.965 1381.9 404.437 1383.72 404.437Z" fill="#F7F5F9"/>
<path fill-rule="evenodd" clip-rule="evenodd" d="M1251.76 437.425C1253.58 437.425 1255.06 435.948 1255.06 434.131C1255.06 432.315 1253.58 430.838 1251.76 430.838C1249.95 430.838 1248.47 432.315 1248.47 434.131C1248.47 435.948 1249.95 437.425 1251.76 437.425Z" fill="#F7F5F9"/>
<path fill-rule="evenodd" clip-rule="evenodd" d="M1284.75 437.425C1286.57 437.425 1288.05 435.948 1288.05 434.131C1288.05 432.315 1286.57 430.838 1284.75 430.838C1282.94 430.838 1281.46 432.315 1281.46 434.131C1281.46 435.948 1282.94 437.425 1284.75 437.425Z" fill="#F7F5F9"/>
<path fill-rule="evenodd" clip-rule="evenodd" d="M1317.74 437.425C1319.56 437.425 1321.03 435.948 1321.03 434.131C1321.03 432.315 1319.56 430.838 1317.74 430.838C1315.92 430.838 1314.45 432.315 1314.45 434.131C1314.45 435.948 1315.92 437.425 1317.74 437.425Z" fill="#F7F5F9"/>
<path fill-rule="evenodd" clip-rule="evenodd" d="M1350.73 437.425C1352.54 437.425 1354.02 435.948 1354.02 434.131C1354.02 432.315 1352.54 430.838 1350.73 430.838C1348.92 430.838 1347.43 432.315 1347.43 434.131C1347.43 435.948 1348.92 437.425 1350.73 437.425Z" fill="#F7F5F9"/>
<path fill-rule="evenodd" clip-rule="evenodd" d="M1383.72 437.425C1385.53 437.425 1387.01 435.948 1387.01 434.131C1387.01 432.315 1385.53 430.838 1383.72 430.838C1381.9 430.838 1380.42 432.315 1380.42 434.131C1380.42 435.948 1381.9 437.425 1383.72 437.425Z" fill="#F7F5F9"/>
<path fill-rule="evenodd" clip-rule="evenodd" d="M1251.76 470.412C1253.58 470.412 1255.06 468.94 1255.06 467.119C1255.06 465.297 1253.58 463.825 1251.76 463.825C1249.95 463.825 1248.47 465.297 1248.47 467.119C1248.47 468.94 1249.95 470.412 1251.76 470.412Z" fill="#F7F5F9"/>
<path fill-rule="evenodd" clip-rule="evenodd" d="M1284.75 470.412C1286.57 470.412 1288.05 468.94 1288.05 467.119C1288.05 465.297 1286.57 463.825 1284.75 463.825C1282.94 463.825 1281.46 465.297 1281.46 467.119C1281.46 468.94 1282.94 470.412 1284.75 470.412Z" fill="#F7F5F9"/>
<path fill-rule="evenodd" clip-rule="evenodd" d="M1317.74 470.412C1319.56 470.412 1321.03 468.94 1321.03 467.119C1321.03 465.297 1319.56 463.825 1317.74 463.825C1315.92 463.825 1314.45 465.297 1314.45 467.119C1314.45 468.94 1315.92 470.412 1317.74 470.412Z" fill="#F7F5F9"/>
<path fill-rule="evenodd" clip-rule="evenodd" d="M1350.73 470.412C1352.54 470.412 1354.02 468.94 1354.02 467.119C1354.02 465.297 1352.54 463.825 1350.73 463.825C1348.92 463.825 1347.43 465.297 1347.43 467.119C1347.43 468.94 1348.92 470.412 1350.73 470.412Z" fill="#F7F5F9"/>
<path fill-rule="evenodd" clip-rule="evenodd" d="M1383.72 470.412C1385.53 470.412 1387.01 468.94 1387.01 467.119C1387.01 465.297 1385.53 463.825 1383.72 463.825C1381.9 463.825 1380.42 465.297 1380.42 467.119C1380.42 468.94 1381.9 470.412 1383.72 470.412Z" fill="#F7F5F9"/>
<path fill-rule="evenodd" clip-rule="evenodd" d="M1251.76 503.405C1253.58 503.405 1255.06 501.928 1255.06 500.112C1255.06 498.29 1253.58 496.818 1251.76 496.818C1249.95 496.818 1248.47 498.29 1248.47 500.112C1248.47 501.928 1249.95 503.405 1251.76 503.405Z" fill="#F7F5F9"/>
<path fill-rule="evenodd" clip-rule="evenodd" d="M1284.75 503.405C1286.57 503.405 1288.05 501.928 1288.05 500.112C1288.05 498.29 1286.57 496.818 1284.75 496.818C1282.94 496.818 1281.46 498.29 1281.46 500.112C1281.46 501.928 1282.94 503.405 1284.75 503.405Z" fill="#F7F5F9"/>
<path fill-rule="evenodd" clip-rule="evenodd" d="M1317.74 503.405C1319.56 503.405 1321.03 501.928 1321.03 500.112C1321.03 498.29 1319.56 496.818 1317.74 496.818C1315.92 496.818 1314.45 498.29 1314.45 500.112C1314.45 501.928 1315.92 503.405 1317.74 503.405Z" fill="#F7F5F9"/>
<path fill-rule="evenodd" clip-rule="evenodd" d="M1350.73 503.405C1352.54 503.405 1354.02 501.928 1354.02 500.112C1354.02 498.29 1352.54 496.818 1350.73 496.818C1348.92 496.818 1347.43 498.29 1347.43 500.112C1347.43 501.928 1348.92 503.405 1350.73 503.405Z" fill="#F7F5F9"/>
<path fill-rule="evenodd" clip-rule="evenodd" d="M1383.72 503.405C1385.53 503.405 1387.01 501.928 1387.01 500.112C1387.01 498.29 1385.53 496.818 1383.72 496.818C1381.9 496.818 1380.42 498.29 1380.42 500.112C1380.42 501.928 1381.9 503.405 1383.72 503.405Z" fill="#F7F5F9"/>
<path fill-rule="evenodd" clip-rule="evenodd" d="M1251.76 536.388C1253.58 536.388 1255.06 534.915 1255.06 533.094C1255.06 531.283 1253.58 529.8 1251.76 529.8C1249.95 529.8 1248.47 531.283 1248.47 533.094C1248.47 534.915 1249.95 536.388 1251.76 536.388Z" fill="#F7F5F9"/>
<path fill-rule="evenodd" clip-rule="evenodd" d="M1284.75 536.388C1286.57 536.388 1288.05 534.915 1288.05 533.094C1288.05 531.283 1286.57 529.8 1284.75 529.8C1282.94 529.8 1281.46 531.283 1281.46 533.094C1281.46 534.915 1282.94 536.388 1284.75 536.388Z" fill="#F7F5F9"/>
<path fill-rule="evenodd" clip-rule="evenodd" d="M1317.74 536.388C1319.56 536.388 1321.03 534.915 1321.03 533.094C1321.03 531.283 1319.56 529.8 1317.74 529.8C1315.92 529.8 1314.45 531.283 1314.45 533.094C1314.45 534.915 1315.92 536.388 1317.74 536.388Z" fill="#F7F5F9"/>
<path fill-rule="evenodd" clip-rule="evenodd" d="M1350.73 536.388C1352.54 536.388 1354.02 534.915 1354.02 533.094C1354.02 531.283 1352.54 529.8 1350.73 529.8C1348.92 529.8 1347.43 531.283 1347.43 533.094C1347.43 534.915 1348.92 536.388 1350.73 536.388Z" fill="#F7F5F9"/>
<path fill-rule="evenodd" clip-rule="evenodd" d="M1383.72 536.388C1385.53 536.388 1387.01 534.915 1387.01 533.094C1387.01 531.283 1385.53 529.8 1383.72 529.8C1381.9 529.8 1380.42 531.283 1380.42 533.094C1380.42 534.915 1381.9 536.388 1383.72 536.388Z" fill="#F7F5F9"/>
<path fill-rule="evenodd" clip-rule="evenodd" d="M1251.76 569.381C1253.58 569.381 1255.06 567.908 1255.06 566.087C1255.06 564.265 1253.58 562.793 1251.76 562.793C1249.95 562.793 1248.47 564.265 1248.47 566.087C1248.47 567.908 1249.95 569.381 1251.76 569.381Z" fill="#F7F5F9"/>
<path fill-rule="evenodd" clip-rule="evenodd" d="M1284.75 569.381C1286.57 569.381 1288.05 567.908 1288.05 566.087C1288.05 564.265 1286.57 562.793 1284.75 562.793C1282.94 562.793 1281.46 564.265 1281.46 566.087C1281.46 567.908 1282.94 569.381 1284.75 569.381Z" fill="#F7F5F9"/>
<path fill-rule="evenodd" clip-rule="evenodd" d="M1317.74 569.381C1319.56 569.381 1321.03 567.908 1321.03 566.087C1321.03 564.265 1319.56 562.793 1317.74 562.793C1315.92 562.793 1314.45 564.265 1314.45 566.087C1314.45 567.908 1315.92 569.381 1317.74 569.381Z" fill="#F7F5F9"/>
<path fill-rule="evenodd" clip-rule="evenodd" d="M1350.73 569.381C1352.54 569.381 1354.02 567.908 1354.02 566.087C1354.02 564.265 1352.54 562.793 1350.73 562.793C1348.92 562.793 1347.43 564.265 1347.43 566.087C1347.43 567.908 1348.92 569.381 1350.73 569.381Z" fill="#F7F5F9"/>
<path fill-rule="evenodd" clip-rule="evenodd" d="M1383.72 569.381C1385.53 569.381 1387.01 567.908 1387.01 566.087C1387.01 564.265 1385.53 562.793 1383.72 562.793C1381.9 562.793 1380.42 564.265 1380.42 566.087C1380.42 567.908 1381.9 569.381 1383.72 569.381Z" fill="#F7F5F9"/>
<mask id="mask1" mask-type="alpha" maskUnits="userSpaceOnUse" x="-20" y="784" width="207" height="16">
<path fill-rule="evenodd" clip-rule="evenodd" d="M-19.9995 784.695H186.39V799.87H-19.9995V784.695Z" fill="white"/>
</mask>
<g mask="url(#mask1)">
<path fill-rule="evenodd" clip-rule="evenodd" d="M111.972 784.695H111.978C118.157 784.695 123.934 786.876 128.247 790.833C131.572 793.882 135.992 795.559 140.699 795.559C145.407 795.559 149.833 793.882 153.158 790.833C157.476 786.876 163.26 784.695 169.439 784.695H169.451C175.629 784.695 181.407 786.876 185.719 790.833C186.676 791.716 186.604 793.084 185.54 793.882C184.487 794.675 182.848 794.616 181.891 793.737C178.572 790.688 174.152 789.011 169.451 789.011H169.439C164.738 789.011 160.311 790.688 156.98 793.737C152.662 797.695 146.878 799.87 140.699 799.87C134.515 799.87 128.737 797.695 124.419 793.737C121.099 790.688 116.685 789.011 111.978 789.011H111.972C107.265 789.011 102.839 790.688 99.5076 793.737C95.1892 797.695 89.4115 799.87 83.227 799.87H83.221C77.0425 799.87 71.2588 797.695 66.9404 793.737C60.2835 787.639 48.6741 787.639 42.0052 793.737C37.6928 797.695 31.9031 799.87 25.7186 799.87C19.5342 799.87 13.7445 797.695 9.42611 793.737C6.10659 790.688 1.68057 789.011 -3.03254 789.011H-3.03852C-7.74565 789.011 -12.1717 790.688 -15.5032 793.737C-16.4721 794.616 -18.1049 794.685 -19.1576 793.877C-20.2103 793.079 -20.288 791.711 -19.3251 790.833C-15.0007 786.876 -9.21701 784.695 -3.03852 784.695H-3.03254C3.15192 784.695 8.93565 786.876 13.26 790.833C16.5795 793.882 21.0055 795.559 25.7186 795.559C30.4318 795.559 34.8578 793.882 38.1892 790.833C46.826 782.923 62.1256 782.923 70.7624 790.833C74.0938 793.882 78.5139 795.559 83.221 795.559H83.227C87.9341 795.559 92.3542 793.882 95.6916 790.833C100.01 786.876 105.788 784.695 111.972 784.695Z" fill="#F7F5F9"/>
</g>
<path fill-rule="evenodd" clip-rule="evenodd" d="M111.972 819.996H111.978C118.157 819.996 123.934 822.176 128.247 826.134C131.572 829.183 135.992 830.859 140.699 830.859C145.407 830.859 149.833 829.183 153.158 826.134C157.476 822.176 163.26 819.996 169.439 819.996H169.451C175.629 819.996 181.407 822.176 185.719 826.134C186.676 827.017 186.604 828.384 185.54 829.183C184.487 829.976 182.848 829.916 181.891 829.038C178.572 825.989 174.152 824.312 169.451 824.312H169.439C164.738 824.312 160.311 825.989 156.98 829.038C152.662 832.995 146.878 835.171 140.699 835.171C134.515 835.171 128.737 832.995 124.419 829.038C121.099 825.989 116.685 824.312 111.978 824.312H111.972C107.265 824.312 102.839 825.989 99.5076 829.038C95.1892 832.995 89.4115 835.171 83.227 835.171H83.221C77.0425 835.171 71.2588 832.995 66.9404 829.038C60.2835 822.94 48.6741 822.94 42.0052 829.038C37.6928 832.995 31.9031 835.171 25.7186 835.171C19.5342 835.171 13.7445 832.995 9.42611 829.038C6.10659 825.989 1.68057 824.312 -3.03254 824.312H-3.03852C-7.74565 824.312 -12.1717 825.989 -15.5032 829.038C-16.4721 829.916 -18.1049 829.986 -19.1576 829.178C-20.2103 828.379 -20.288 827.012 -19.3251 826.134C-15.0007 822.176 -9.21701 819.996 -3.03852 819.996H-3.03254C3.15192 819.996 8.93565 822.176 13.26 826.134C16.5795 829.183 21.0055 830.859 25.7186 830.859C30.4318 830.859 34.8578 829.183 38.1892 826.134C46.826 818.224 62.1256 818.224 70.7624 826.134C74.0938 829.183 78.5139 830.859 83.221 830.859H83.227C87.9341 830.859 92.3542 829.183 95.6916 826.134C100.01 822.176 105.788 819.996 111.972 819.996Z" fill="#F7F5F9"/>
<path fill-rule="evenodd" clip-rule="evenodd" d="M111.972 855.168H111.978C118.157 855.168 123.934 857.349 128.247 861.307C131.572 864.356 135.992 866.032 140.699 866.032C145.407 866.032 149.833 864.356 153.158 861.307C157.476 857.349 163.26 855.168 169.439 855.168H169.451C175.629 855.168 181.407 857.349 185.719 861.307C186.676 862.19 186.604 863.557 185.54 864.356C184.487 865.149 182.848 865.089 181.891 864.211C178.572 861.162 174.152 859.485 169.451 859.485H169.439C164.738 859.485 160.311 861.162 156.98 864.211C152.662 868.168 146.878 870.344 140.699 870.344C134.515 870.344 128.737 868.168 124.419 864.211C121.099 861.162 116.685 859.485 111.978 859.485H111.972C107.265 859.485 102.839 861.162 99.5076 864.211C95.1892 868.168 89.4115 870.344 83.227 870.344H83.221C77.0425 870.344 71.2588 868.168 66.9404 864.211C60.2835 858.113 48.6741 858.113 42.0052 864.211C37.6928 868.168 31.9031 870.344 25.7186 870.344C19.5342 870.344 13.7445 868.168 9.42611 864.211C6.10659 861.162 1.68057 859.485 -3.03254 859.485H-3.03852C-7.74565 859.485 -12.1717 861.162 -15.5032 864.211C-16.4721 865.089 -18.1049 865.159 -19.1576 864.351C-20.2103 863.552 -20.288 862.185 -19.3251 861.307C-15.0007 857.349 -9.21701 855.168 -3.03852 855.168H-3.03254C3.15192 855.168 8.93565 857.349 13.26 861.307C16.5795 864.356 21.0055 866.032 25.7186 866.032C30.4318 866.032 34.8578 864.356 38.1892 861.307C46.826 853.397 62.1256 853.397 70.7624 861.307C74.0938 864.356 78.5139 866.032 83.221 866.032H83.227C87.9341 866.032 92.3542 864.356 95.6916 861.307C100.01 857.349 105.788 855.168 111.972 855.168Z" fill="#F7F5F9"/>
</g>
</g>
</svg>
