<svg width="187" height="86" viewBox="0 0 187 86" fill="none" xmlns="http://www.w3.org/2000/svg">
<path fill-rule="evenodd" clip-rule="evenodd" d="M75.0288 85.6527L75.0228 85.6527C68.8443 85.6527 63.0666 83.4719 58.7542 79.5146C55.4287 76.4656 51.0087 74.7888 46.3015 74.7888C41.5944 74.7888 37.1684 76.4656 33.8429 79.5146C29.5245 83.4719 23.7408 85.6527 17.5623 85.6527L17.5503 85.6527C11.3719 85.6527 5.59412 83.4719 1.28174 79.5146C0.324769 78.6313 0.396531 77.264 1.46117 76.4656C2.51384 75.6721 4.15267 75.732 5.10965 76.6103C8.42915 79.6593 12.8492 81.3361 17.5503 81.3361L17.5623 81.3361C22.2635 81.3361 26.6895 79.6593 30.021 76.6103C34.3393 72.653 40.123 70.4772 46.3015 70.4772C52.486 70.4772 58.2637 72.653 62.5821 76.6103C65.9016 79.6594 70.3157 81.3361 75.0228 81.3361L75.0288 81.3361C79.7359 81.3361 84.1619 79.6594 87.4934 76.6103C91.8118 72.653 97.5895 70.4772 103.774 70.4772L103.78 70.4772C109.958 70.4772 115.742 72.653 120.061 76.6103C126.718 82.7084 138.327 82.7084 144.996 76.6103C149.308 72.653 155.098 70.4772 161.282 70.4772C167.467 70.4772 173.257 72.653 177.575 76.6103C180.894 79.6594 185.32 81.3361 190.034 81.3361L190.039 81.3361C194.747 81.3361 199.173 79.6594 202.504 76.6103C203.473 75.732 205.106 75.6621 206.159 76.4706C207.211 77.269 207.289 78.6364 206.326 79.5146C202.002 83.472 196.218 85.6527 190.039 85.6527L190.034 85.6527C183.849 85.6527 178.065 83.4719 173.741 79.5146C170.421 76.4656 165.995 74.7888 161.282 74.7888C156.569 74.7888 152.143 76.4656 148.812 79.5146C140.175 87.4243 124.875 87.4243 116.239 79.5146C112.907 76.4656 108.487 74.7888 103.78 74.7888L103.774 74.7888C99.0669 74.7888 94.6468 76.4656 91.3094 79.5146C86.991 83.4719 81.2132 85.6527 75.0288 85.6527Z" fill="#F7F5F9"/>
<path fill-rule="evenodd" clip-rule="evenodd" d="M75.0278 50.3519L75.0218 50.3519C68.8434 50.3519 63.0656 48.1712 58.7532 44.2139C55.4277 41.1648 51.0077 39.488 46.3006 39.488C41.5934 39.488 37.1674 41.1648 33.8419 44.2139C29.5235 48.1712 23.7398 50.3519 17.5613 50.3519L17.5494 50.3519C11.3709 50.3519 5.59314 48.1712 1.28076 44.2138C0.323792 43.3306 0.395554 41.9632 1.46019 41.1648C2.51286 40.3713 4.15169 40.4312 5.10867 41.3095C8.42818 44.3586 12.8482 46.0353 17.5494 46.0353L17.5613 46.0353C22.2625 46.0353 26.6885 44.3586 30.02 41.3095C34.3383 37.3522 40.1221 35.1764 46.3006 35.1764C52.485 35.1764 58.2628 37.3522 62.5811 41.3095C65.9006 44.3586 70.3147 46.0353 75.0218 46.0353L75.0278 46.0353C79.7349 46.0353 84.161 44.3586 87.4924 41.3095C91.8108 37.3522 97.5885 35.1764 103.773 35.1764L103.779 35.1764C109.957 35.1764 115.741 37.3522 120.06 41.3095C126.717 47.4076 138.326 47.4076 144.995 41.3095C149.307 37.3522 155.097 35.1764 161.281 35.1764C167.466 35.1764 173.256 37.3522 177.574 41.3095C180.893 44.3586 185.319 46.0353 190.033 46.0353L190.039 46.0353C194.746 46.0353 199.172 44.3586 202.503 41.3095C203.472 40.4312 205.105 40.3614 206.158 41.1698C207.21 41.9682 207.288 43.3356 206.325 44.2139C202.001 48.1712 196.217 50.3519 190.039 50.3519L190.033 50.3519C183.848 50.3519 178.064 48.1712 173.74 44.2139C170.42 41.1648 165.994 39.4881 161.281 39.4881C156.568 39.4881 152.142 41.1648 148.811 44.2139C140.174 52.1235 124.874 52.1235 116.238 44.2139C112.906 41.1648 108.486 39.488 103.779 39.488L103.773 39.488C99.0659 39.488 94.6458 41.1648 91.3084 44.2139C86.99 48.1712 81.2123 50.3519 75.0278 50.3519Z" fill="#F7F5F9"/>
<path fill-rule="evenodd" clip-rule="evenodd" d="M75.0278 15.1792L75.0218 15.1792C68.8434 15.1792 63.0656 12.9984 58.7532 9.04112C55.4277 5.99205 51.0077 4.31531 46.3006 4.31531C41.5934 4.31531 37.1674 5.99205 33.8419 9.04112C29.5235 12.9984 23.7398 15.1792 17.5613 15.1792L17.5494 15.1792C11.3709 15.1792 5.59314 12.9984 1.28076 9.04112C0.323792 8.15784 0.395554 6.79049 1.46019 5.99205C2.51286 5.19859 4.15169 5.25847 5.10867 6.13677C8.42818 9.18584 12.8482 10.8626 17.5494 10.8626L17.5613 10.8626C22.2625 10.8626 26.6885 9.18584 30.02 6.13677C34.3383 2.17947 40.1221 0.00369711 46.3006 0.00369765C52.485 0.00369819 58.2628 2.17947 62.5811 6.13677C65.9006 9.18584 70.3147 10.8626 75.0218 10.8626L75.0278 10.8626C79.7349 10.8626 84.161 9.18584 87.4924 6.13677C91.8108 2.17947 97.5885 0.00370214 103.773 0.00370268L103.779 0.00370268C109.957 0.00370322 115.741 2.17947 120.06 6.13678C126.717 12.2349 138.326 12.2349 144.995 6.13678C149.307 2.17948 155.097 0.00370716 161.281 0.0037077C167.466 0.00370824 173.256 2.17948 177.574 6.13678C180.893 9.18585 185.319 10.8626 190.033 10.8626L190.039 10.8626C194.746 10.8626 199.172 9.18585 202.503 6.13678C203.472 5.25849 205.105 5.18863 206.158 5.99706C207.21 6.7955 207.288 8.16284 206.325 9.04114C202.001 12.9984 196.217 15.1792 190.039 15.1792L190.033 15.1792C183.848 15.1792 178.064 12.9984 173.74 9.04113C170.42 5.99206 165.994 4.31532 161.281 4.31532C156.568 4.31532 152.142 5.99206 148.811 9.04113C140.174 16.9507 124.874 16.9507 116.238 9.04113C112.906 5.99206 108.486 4.31532 103.779 4.31532L103.773 4.31532C99.0659 4.31532 94.6458 5.99206 91.3084 9.04113C86.99 12.9984 81.2123 15.1792 75.0278 15.1792Z" fill="#F7F5F9"/>
</svg>
