<svg width="151" height="21" viewBox="0 0 151 21" fill="none" xmlns="http://www.w3.org/2000/svg">
<path d="M146.89 0.537415H0.47119C1.55191 0.540578 2.58746 0.971293 3.35164 1.73548C4.11583 2.49966 4.54654 3.53521 4.54971 4.61593V6.14538C4.54971 10.0665 6.10737 13.827 8.88003 16.5997C11.6527 19.3723 15.4132 20.93 19.3343 20.93H132.105C136.026 20.93 139.787 19.3723 142.56 16.5997C145.332 13.827 146.89 10.0665 146.89 6.14538V4.61593C146.893 3.53521 147.324 2.49966 148.088 1.73548C148.852 0.971293 149.888 0.540578 150.968 0.537415H146.89Z" fill="black"/>
<path d="M91.4221 4.20825H59.6097C58.2582 4.20825 57.1626 5.30386 57.1626 6.65536V6.65536C57.1626 8.00686 58.2582 9.10247 59.6097 9.10247H91.4221C92.7736 9.10247 93.8693 8.00686 93.8693 6.65536C93.8693 5.30386 92.7736 4.20825 91.4221 4.20825Z" fill="white"/>
<path d="M107.328 11.1417C109.806 11.1417 111.815 9.13313 111.815 6.65538C111.815 4.17762 109.806 2.16901 107.328 2.16901C104.85 2.16901 102.842 4.17762 102.842 6.65538C102.842 9.13313 104.85 11.1417 107.328 11.1417Z" fill="white"/>
<path d="M107.328 9.51022C108.905 9.51022 110.183 8.23201 110.183 6.65525C110.183 5.0785 108.905 3.80029 107.328 3.80029C105.751 3.80029 104.473 5.0785 104.473 6.65525C104.473 8.23201 105.751 9.51022 107.328 9.51022Z" fill="black"/>
</svg>
