<svg width="36" height="36" viewBox="0 0 36 36" fill="none" xmlns="http://www.w3.org/2000/svg">
<rect x="0.5" y="0.5" width="35" height="35" rx="17.5" stroke="#E0E0E0"/>
<mask id="path-2-inside-1" fill="white">
<path d="M19.2022 29.9999V19.0523H22.8769L23.427 14.7859H19.2022V12.0619C19.2022 10.8267 19.5453 9.98482 21.3167 9.98482L23.576 9.98377V6.16793C23.185 6.11613 21.844 6 20.2839 6C17.0265 6 14.7965 7.98818 14.7965 11.6396V14.786H11.1123V19.0524H14.7964V30L19.2022 29.9999Z"/>
</mask>
<path d="M19.2022 29.9999L19.2025 42.0695L31.2718 42.0692V29.9999H19.2022ZM19.2022 19.0523V6.98273H7.13262V19.0523H19.2022ZM22.8769 19.0523V31.1219H33.49L34.8474 20.5959L22.8769 19.0523ZM23.427 14.7859L35.3975 16.3295L37.1529 2.71629H23.427V14.7859ZM19.2022 14.7859H7.13262V26.8555H19.2022V14.7859ZM21.3167 9.98482V22.0544L21.3223 22.0544L21.3167 9.98482ZM23.576 9.98377L23.5815 22.0534L35.6455 22.0478V9.98377H23.576ZM23.576 6.16793H35.6455V-4.40768L25.1616 -5.79705L23.576 6.16793ZM14.7965 14.786V26.8556H26.8661V14.786H14.7965ZM11.1123 14.786V2.71641H-0.957286V14.786H11.1123ZM11.1123 19.0524H-0.957286V31.122H11.1123V19.0524ZM14.7964 19.0524H26.866V6.98285H14.7964V19.0524ZM14.7964 30H2.72677V42.0699L14.7967 42.0696L14.7964 30ZM31.2718 29.9999V19.0523H7.13262V29.9999H31.2718ZM19.2022 31.1219H22.8769V6.98273H19.2022V31.1219ZM34.8474 20.5959L35.3975 16.3295L11.4565 13.2423L10.9064 17.5087L34.8474 20.5959ZM23.427 2.71629H19.2022V26.8555H23.427V2.71629ZM31.2718 14.7859V12.0619H7.13262V14.7859H31.2718ZM31.2718 12.0619C31.2718 12.2292 31.2694 12.9796 31.0281 13.9982C30.77 15.0876 30.1809 16.727 28.8281 18.3337C25.8277 21.8974 22.0393 22.0544 21.3167 22.0544V-2.08477C18.8227 -2.08477 13.977 -1.50679 10.3622 2.78662C7.13946 6.61442 7.13262 10.9275 7.13262 12.0619H31.2718ZM21.3223 22.0544L23.5815 22.0534L23.5704 -2.08581L21.3111 -2.08477L21.3223 22.0544ZM35.6455 9.98377V6.16793H11.5064V9.98377H35.6455ZM25.1616 -5.79705C24.1734 -5.92801 22.2968 -6.06959 20.2839 -6.06959V18.0696C20.7764 18.0696 21.2517 18.0883 21.6298 18.1115C21.8156 18.1229 21.9596 18.1342 22.0507 18.1423C22.1714 18.153 22.1362 18.1522 21.9903 18.1329L25.1616 -5.79705ZM20.2839 -6.06959C16.2058 -6.06959 11.5275 -4.78413 7.83419 -1.1337C4.10352 2.55362 2.72689 7.31863 2.72689 11.6396H26.8661C26.8661 12.3091 26.6045 14.2543 24.8031 16.0347C23.0392 17.7782 21.1045 18.0696 20.2839 18.0696V-6.06959ZM2.72689 11.6396V14.786H26.8661V11.6396H2.72689ZM14.7965 2.71641H11.1123V26.8556H14.7965V2.71641ZM-0.957286 14.786V19.0524H23.1819V14.786H-0.957286ZM11.1123 31.122H14.7964V6.98285H11.1123V31.122ZM2.72677 19.0524V30H26.866V19.0524H2.72677ZM14.7967 42.0696L19.2025 42.0695L19.2019 17.9303L14.796 17.9304L14.7967 42.0696Z" fill="#E0E0E0" mask="url(#path-2-inside-1)"/>
</svg>
