<svg width="36" height="36" viewBox="0 0 36 36" fill="none" xmlns="http://www.w3.org/2000/svg">
<rect x="0.5" y="0.5" width="35" height="35" rx="17.5" stroke="#E0E0E0"/>
<mask id="path-2-inside-1" fill="white">
<path d="M18.0002 9.63012C19.4144 9.63012 20.5647 10.7805 20.5647 12.1947C20.5647 13.6077 19.4141 14.7581 18.0002 14.7581C16.5868 14.7581 15.4362 13.6077 15.4362 12.1947C15.4359 10.7802 16.5871 9.63012 18.0002 9.63012ZM18.0002 18.3864C21.4162 18.3864 24.1943 15.6093 24.1943 12.1947C24.1943 8.77833 21.4165 6 18.0002 6C14.5844 6 11.8061 8.77863 11.8061 12.1947C11.8061 15.6093 14.5844 18.3864 18.0002 18.3864ZM20.506 23.4388C21.7802 23.1486 22.9963 22.6451 24.1026 21.9495C24.51 21.6933 24.7988 21.2857 24.9056 20.8165C25.0124 20.3473 24.9284 19.8548 24.6722 19.4475C24.5454 19.2456 24.3802 19.0707 24.1858 18.9328C23.9914 18.7948 23.7717 18.6966 23.5393 18.6436C23.3069 18.5906 23.0663 18.584 22.8313 18.624C22.5964 18.6641 22.3716 18.7501 22.1699 18.8771C19.6323 20.4725 16.3662 20.4713 13.8307 18.8771C13.6291 18.7501 13.4043 18.664 13.1693 18.6239C12.9344 18.5839 12.6938 18.5905 12.4614 18.6435C12.2291 18.6965 12.0094 18.7947 11.815 18.9327C11.6207 19.0707 11.4554 19.2456 11.3287 19.4475C11.0724 19.8547 10.9883 20.3471 11.0949 20.8163C11.2016 21.2855 11.4902 21.6931 11.8974 21.9495C13.0037 22.6448 14.2195 23.1483 15.4934 23.4388L12.0308 26.902C11.6905 27.2424 11.4994 27.704 11.4995 28.1853C11.4996 28.6666 11.6908 29.1282 12.0312 29.4685C12.3716 29.8087 12.8333 29.9999 13.3146 29.9998C13.7959 29.9997 14.2575 29.8084 14.5977 29.468L17.9996 26.0656L21.4035 29.4683C21.5718 29.6369 21.7717 29.7706 21.9917 29.8618C22.2117 29.953 22.4476 30 22.6858 30C22.9239 30 23.1598 29.953 23.3798 29.8618C23.5999 29.7706 23.7997 29.6369 23.968 29.4683C24.1368 29.3 24.2708 29.1001 24.3622 28.8799C24.4535 28.6598 24.5006 28.4238 24.5006 28.1854C24.5006 27.9471 24.4535 27.7111 24.3622 27.4909C24.2708 27.2708 24.1368 27.0708 23.968 26.9026L20.506 23.4388Z"/>
</mask>
<path d="M15.4362 12.1947H20.9749V12.1935L15.4362 12.1947ZM20.506 23.4388L19.2761 18.0383L9.50228 20.2643L16.5886 27.3542L20.506 23.4388ZM24.1026 21.9495L27.0504 26.6386L27.0522 26.6375L24.1026 21.9495ZM24.6722 19.4475L19.9813 22.3924L19.9841 22.3969L24.6722 19.4475ZM22.1699 18.8771L25.1178 23.5661L25.121 23.5641L22.1699 18.8771ZM13.8307 18.8771L10.8787 23.5635L10.8826 23.566L13.8307 18.8771ZM11.3287 19.4475L16.016 22.3982L16.0204 22.3913L11.3287 19.4475ZM11.8974 21.9495L8.94589 26.6363L8.9502 26.639L11.8974 21.9495ZM15.4934 23.4388L19.4102 27.3549L26.4971 20.2668L16.7246 18.0387L15.4934 23.4388ZM12.0308 26.902L8.11401 22.9859L8.11367 22.9862L12.0308 26.902ZM14.5977 29.468L10.6809 25.5519L10.6806 25.5522L14.5977 29.468ZM17.9996 26.0656L21.9153 22.1485L17.9985 18.233L14.0828 22.1495L17.9996 26.0656ZM21.4035 29.4683L25.3228 25.5547L25.3192 25.5512L21.4035 29.4683ZM23.968 29.4683L20.0576 25.5459L20.0487 25.5547L23.968 29.4683ZM24.5006 28.1854H18.9619H24.5006ZM23.968 26.9026L20.0506 30.818L20.0576 30.825L23.968 26.9026ZM18.0002 15.1688C16.3554 15.1688 15.026 13.8394 15.026 12.1947H26.1034C26.1034 7.72154 22.4733 4.09143 18.0002 4.09143V15.1688ZM15.026 12.1947C15.026 10.5467 16.3572 9.21938 18.0002 9.21938V20.2968C22.4709 20.2968 26.1034 16.6687 26.1034 12.1947H15.026ZM18.0002 9.21938C19.6445 9.21938 20.9749 10.5475 20.9749 12.1947H9.89749C9.89749 16.6679 13.5291 20.2968 18.0002 20.2968V9.21938ZM20.9749 12.1935C20.9752 13.8403 19.6446 15.1688 18.0002 15.1688V4.09143C13.5297 4.09143 9.89655 7.72002 9.89749 12.1959L20.9749 12.1935ZM18.0002 23.9251C24.4733 23.9251 29.7329 18.6701 29.7329 12.1947H18.6556C18.6556 12.5484 18.3592 12.8477 18.0002 12.8477V23.9251ZM29.7329 12.1947C29.7329 5.72009 24.4761 0.461307 18.0002 0.461307V11.5387C18.3569 11.5387 18.6556 11.8366 18.6556 12.1947H29.7329ZM18.0002 0.461307C11.5249 0.461307 6.26737 5.72021 6.26737 12.1947H17.3448C17.3448 11.837 17.6438 11.5387 18.0002 11.5387V0.461307ZM6.26737 12.1947C6.26737 18.6703 11.5275 23.9251 18.0002 23.9251V12.8477C17.6413 12.8477 17.3448 12.5483 17.3448 12.1947H6.26737ZM21.7359 28.8392C23.6188 28.4104 25.4156 27.6664 27.0504 26.6386L21.1549 17.2604C20.5769 17.6238 19.9417 17.8868 19.2761 18.0383L21.7359 28.8392ZM27.0522 26.6375C28.7028 25.599 29.8733 23.9473 30.3061 22.0458L19.505 19.5871C19.7243 18.6241 20.3171 17.7875 21.1531 17.2615L27.0522 26.6375ZM30.3061 22.0458C30.739 20.1443 30.3987 18.1488 29.3603 16.4981L19.9841 22.3969C19.4581 21.5609 19.2858 20.5502 19.505 19.5871L30.3061 22.0458ZM29.3631 16.5026C28.8493 15.6842 28.1792 14.9751 27.3911 14.4158L20.9804 23.4497C20.5811 23.1664 20.2416 22.8071 19.9813 22.3924L29.3631 16.5026ZM27.3911 14.4158C26.6031 13.8566 25.7125 13.4582 24.7703 13.2434L22.3083 24.0437C21.8309 23.9349 21.3797 23.733 20.9804 23.4497L27.3911 14.4158ZM24.7703 13.2434C23.8281 13.0286 22.8529 13.0017 21.9003 13.1641L23.7624 24.0839C23.2798 24.1662 22.7856 24.1526 22.3083 24.0437L24.7703 13.2434ZM21.9003 13.1641C20.9477 13.3266 20.0365 13.6752 19.2187 14.1901L25.121 23.5641C24.7067 23.825 24.245 24.0016 23.7624 24.0839L21.9003 13.1641ZM19.2219 14.1881C18.4871 14.6501 17.5129 14.6497 16.7788 14.1882L10.8826 23.566C15.2196 26.2928 20.7775 26.2948 25.1178 23.5661L19.2219 14.1881ZM16.7828 14.1907C15.965 13.6755 15.0536 13.3267 14.1008 13.1641L12.2379 24.0837C11.755 24.0014 11.2932 23.8246 10.8787 23.5635L16.7828 14.1907ZM14.1008 13.1641C13.1481 13.0016 12.1726 13.0285 11.2303 13.2434L13.6926 24.0436C13.215 24.1525 12.7207 24.1661 12.2379 24.0837L14.1008 13.1641ZM11.2303 13.2434C10.2879 13.4582 9.39719 13.8568 8.60904 14.4162L15.021 23.4492C14.6216 23.7327 14.1702 23.9347 13.6926 24.0436L11.2303 13.2434ZM8.60904 14.4162C7.8209 14.9757 7.1508 15.685 6.63709 16.5038L16.0204 22.3913C15.76 22.8062 15.4204 23.1657 15.021 23.4492L8.60904 14.4162ZM6.64142 16.4969C5.60261 18.1471 5.26182 20.1423 5.69398 22.0438L16.4959 19.5888C16.7148 20.5518 16.5422 21.5624 16.016 22.3982L6.64142 16.4969ZM5.69398 22.0438C6.12614 23.9453 7.29586 25.5972 8.94589 26.6363L14.8489 17.2628C15.6846 17.789 16.277 18.6257 16.4959 19.5888L5.69398 22.0438ZM8.9502 26.639C10.5844 27.6661 12.3803 28.4098 14.2622 28.8389L16.7246 18.0387C16.0586 17.8868 15.423 17.6236 14.8446 17.26L8.9502 26.639ZM11.5766 19.5226L8.11401 22.9859L15.9476 30.8181L19.4102 27.3549L11.5766 19.5226ZM8.11367 22.9862C6.73486 24.3655 5.96045 26.236 5.96078 28.1863L17.0382 28.1843C17.0383 29.172 16.6462 30.1192 15.9479 30.8177L8.11367 22.9862ZM5.96078 28.1863C5.96112 30.1365 6.73618 32.0068 8.11547 33.3856L15.947 25.5513C16.6455 26.2496 17.038 27.1967 17.0382 28.1843L5.96078 28.1863ZM8.11547 33.3856C9.49476 34.7644 11.3653 35.5388 13.3155 35.5385L13.3136 24.4611C14.3013 24.4609 15.2485 24.8531 15.947 25.5513L8.11547 33.3856ZM13.3155 35.5385C15.2658 35.5381 17.1361 34.7631 18.5149 33.3838L10.6806 25.5522C11.3789 24.8538 12.326 24.4613 13.3136 24.4611L13.3155 35.5385ZM18.5145 33.3841L21.9164 29.9817L14.0828 22.1495L10.6809 25.5519L18.5145 33.3841ZM14.0838 29.9827L17.4877 33.3854L25.3192 25.5512L21.9153 22.1485L14.0838 29.9827ZM17.4842 33.3819C18.1669 34.0656 18.9777 34.608 19.8702 34.9781L24.1131 24.7455C24.5656 24.9331 24.9767 25.2081 25.3228 25.5547L17.4842 33.3819ZM19.8702 34.9781C20.7628 35.3482 21.7196 35.5387 22.6858 35.5387V24.4613C23.1756 24.4613 23.6606 24.5579 24.1131 24.7455L19.8702 34.9781ZM22.6858 35.5387C23.652 35.5387 24.6087 35.3482 25.5013 34.9781L21.2584 24.7455C21.7109 24.5579 22.1959 24.4613 22.6858 24.4613V35.5387ZM25.5013 34.9781C26.3938 34.608 27.2046 34.0656 27.8874 33.3819L20.0487 25.5547C20.3948 25.2081 20.8059 24.9331 21.2584 24.7455L25.5013 34.9781ZM27.8785 33.3907C28.5634 32.7079 29.1068 31.8966 29.4776 31.0034L19.2467 26.7565C19.4347 26.3035 19.7103 25.8922 20.0576 25.5459L27.8785 33.3907ZM29.4776 31.0034C29.8484 30.1102 30.0393 29.1525 30.0393 28.1854H18.9619C18.9619 27.695 19.0587 27.2094 19.2467 26.7565L29.4776 31.0034ZM30.0393 28.1854C30.0393 27.2183 29.8484 26.2607 29.4776 25.3675L19.2467 29.6144C19.0587 29.1614 18.9619 28.6758 18.9619 28.1854H30.0393ZM29.4776 25.3675C29.1068 24.4742 28.5634 23.663 27.8785 22.9801L20.0576 30.825C19.7103 30.4787 19.4347 30.0673 19.2467 29.6144L29.4776 25.3675ZM27.8855 22.9871L24.4235 19.5233L16.5886 27.3542L20.0506 30.818L27.8855 22.9871Z" fill="#E0E0E0" mask="url(#path-2-inside-1)"/>
</svg>
