<svg width="36" height="36" viewBox="0 0 36 36" fill="none" xmlns="http://www.w3.org/2000/svg">
<rect x="0.5" y="0.5" width="35" height="35" rx="17.5" stroke="#E0E0E0"/>
<mask id="path-2-inside-1" fill="white">
<path fill-rule="evenodd" clip-rule="evenodd" d="M27.637 18.1267C27.4052 17.2656 26.7263 16.5867 25.8652 16.3549C24.2921 15.9243 17.9996 15.9243 17.9996 15.9243C17.9996 15.9243 11.7072 15.9243 10.134 16.3383C9.28953 16.5701 8.59405 17.2656 8.36222 18.1267C7.94824 19.6998 7.94824 22.9619 7.94824 22.9619C7.94824 22.9619 7.94824 26.2406 8.36222 27.7972C8.59405 28.6583 9.27297 29.3372 10.134 29.569C11.7237 29.9996 17.9996 29.9996 17.9996 29.9996C17.9996 29.9996 24.2921 29.9996 25.8652 29.5856C26.7263 29.3538 27.4052 28.6748 27.637 27.8138C28.051 26.2406 28.051 22.9785 28.051 22.9785C28.051 22.9785 28.0676 19.6998 27.637 18.1267ZM23.5321 24.5559V24.8485C23.5321 25.217 23.543 25.4988 23.5646 25.683C23.5863 25.8672 23.6297 26.0081 23.7055 26.084C23.7706 26.1707 23.8789 26.214 24.0306 26.214C24.2257 26.214 24.3558 26.1382 24.4316 25.9864C24.5075 25.8347 24.54 25.5855 24.5508 25.2278L25.6671 25.2928C25.6779 25.347 25.6779 25.4121 25.6779 25.4988C25.6779 26.0298 25.537 26.4308 25.2444 26.6909C24.9518 26.951 24.54 27.081 24.009 27.081C23.3696 27.081 22.9252 26.8751 22.6651 26.4741C22.405 26.0731 22.275 25.4554 22.275 24.6101V23.6022C22.275 22.7352 22.405 22.1067 22.676 21.7057C22.9469 21.3047 23.4021 21.1096 24.0415 21.1096C24.4858 21.1096 24.8326 21.1963 25.071 21.3589C25.3095 21.5214 25.472 21.7815 25.5696 22.1175C25.6671 22.4643 25.7104 22.9411 25.7104 23.548V24.5342H23.5321V24.5559ZM23.6947 22.1283C23.6297 22.215 23.5863 22.3451 23.5646 22.5293C23.543 22.7135 23.5321 22.9953 23.5321 23.3746V23.7864H24.4858V23.3746C24.4858 23.0062 24.475 22.7244 24.4533 22.5293C24.4316 22.3342 24.3774 22.2042 24.3124 22.1283C24.2474 22.0525 24.139 22.0091 24.009 22.0091C23.8572 21.9983 23.7597 22.0416 23.6947 22.1283ZM17.2681 27.0156V21.2393H15.9676V25.8235C15.9243 25.9318 15.8484 26.0185 15.74 26.0836C15.6316 26.1594 15.5233 26.1919 15.4149 26.1919C15.2848 26.1919 15.1873 26.1377 15.1331 26.0294C15.0789 25.921 15.0464 25.7368 15.0464 25.4767V21.2393H13.7459V25.5525C13.7459 26.0944 13.8326 26.4845 14.0169 26.7338C14.2011 26.9831 14.4829 27.1131 14.8622 27.1131C15.4149 27.1131 15.8376 26.8422 16.1085 26.3111H16.141L16.2494 27.0156H17.2681ZM14.1361 20.1562H12.8464V27.0054H11.5785V20.1562H10.2888V19.105H14.1361V20.1562ZM21.1913 21.3696C21.3647 21.5322 21.4947 21.7923 21.5706 22.1608C21.6465 22.5184 21.679 23.0277 21.6898 23.6888V24.5992C21.6898 25.4553 21.5814 26.0947 21.3755 26.4957C21.1696 26.8967 20.8553 27.1026 20.411 27.1026C20.1617 27.1026 19.945 27.0376 19.7391 26.9292C19.5332 26.81 19.3815 26.6583 19.2839 26.4632H19.2514L19.1214 27.0051H18.0485V18.812H19.3056V21.8573H19.3164C19.4248 21.6406 19.5874 21.4563 19.7933 21.3263C19.9992 21.1854 20.2268 21.1204 20.4652 21.1204C20.7686 21.1204 21.0179 21.2071 21.1913 21.3696ZM20.3243 25.4987C20.3568 25.2602 20.3785 24.9351 20.3785 24.5125H20.3893V23.7538C20.3893 23.3095 20.3785 22.9627 20.346 22.7135C20.3135 22.475 20.2701 22.3016 20.1943 22.1933C20.1292 22.0957 20.0209 22.0415 19.8908 22.0415C19.7716 22.0415 19.6524 22.0957 19.544 22.1933C19.4356 22.3016 19.3598 22.4317 19.3164 22.5834V25.8563C19.3706 25.9538 19.4465 26.0297 19.5332 26.0839C19.6199 26.1381 19.7174 26.1597 19.8258 26.1597C19.9558 26.1597 20.0642 26.1056 20.1509 26.008C20.2268 25.9105 20.2918 25.7371 20.3243 25.4987Z"/>
</mask>
<path d="M25.8652 16.3549L25.6012 17.3194L25.6052 17.3205L25.8652 16.3549ZM27.637 18.1267L26.6714 18.3867L26.6725 18.3907L27.637 18.1267ZM10.134 16.3383L9.87954 15.3712L9.86933 15.374L10.134 16.3383ZM8.36222 18.1267L7.39659 17.8667L7.39515 17.8722L8.36222 18.1267ZM8.36222 27.7972L7.39581 28.0542L7.3966 28.0572L8.36222 27.7972ZM10.134 29.569L10.3955 28.6038L10.394 28.6034L10.134 29.569ZM17.9996 29.9996V28.9996V29.9996ZM25.8652 29.5856L26.1197 30.5527L26.1252 30.5512L25.8652 29.5856ZM27.637 27.8138L28.6027 28.0737L28.6041 28.0683L27.637 27.8138ZM28.051 22.9785L27.051 22.9734V22.9785H28.051ZM23.5646 25.683L24.5578 25.5661L24.5578 25.5661L23.5646 25.683ZM23.7055 26.084L24.5055 25.484L24.4629 25.4271L24.4126 25.3769L23.7055 26.084ZM24.4316 25.9864L23.5372 25.5392L23.5372 25.5392L24.4316 25.9864ZM24.5508 25.2278L24.609 24.2295L23.5824 24.1697L23.5513 25.1975L24.5508 25.2278ZM25.6671 25.2928L26.6477 25.0967L26.4962 24.3394L25.7252 24.2945L25.6671 25.2928ZM22.6651 26.4741L21.8262 27.0183L21.8262 27.0183L22.6651 26.4741ZM25.5696 22.1175L26.5322 21.8467L26.5299 21.8387L25.5696 22.1175ZM25.7104 24.5342V25.5342H26.7104V24.5342H25.7104ZM23.5321 24.5342V23.5342H22.5321V24.5342H23.5321ZM23.5646 22.5293L24.5578 22.6462L24.5578 22.6462L23.5646 22.5293ZM23.6947 22.1283L22.8947 21.5283L22.8947 21.5283L23.6947 22.1283ZM23.5321 23.7864H22.5321V24.7864H23.5321V23.7864ZM24.4858 23.7864V24.7864H25.4858V23.7864H24.4858ZM24.3124 22.1283L23.5532 22.7791L23.5532 22.7791L24.3124 22.1283ZM24.009 22.0091L23.9377 23.0066L23.9733 23.0091H24.009V22.0091ZM17.2681 21.2393H18.2681V20.2393H17.2681V21.2393ZM17.2681 27.0156V28.0156H18.2681V27.0156H17.2681ZM15.9676 21.2393V20.2393H14.9676V21.2393H15.9676ZM15.9676 25.8235L16.8961 26.1949L16.9676 26.016V25.8235H15.9676ZM15.74 26.0836L15.2255 25.2261L15.1954 25.2442L15.1666 25.2643L15.74 26.0836ZM15.0464 21.2393H16.0464V20.2393H15.0464V21.2393ZM13.7459 21.2393V20.2393H12.7459V21.2393H13.7459ZM16.1085 26.3111V25.3111H15.4961L15.2177 25.8567L16.1085 26.3111ZM16.141 26.3111L17.1294 26.1591L16.9989 25.3111H16.141V26.3111ZM16.2494 27.0156L15.261 27.1676L15.3915 28.0156H16.2494V27.0156ZM12.8464 20.1562V19.1562H11.8464V20.1562H12.8464ZM14.1361 20.1562V21.1562H15.1361V20.1562H14.1361ZM12.8464 27.0054V28.0054H13.8464V27.0054H12.8464ZM11.5785 27.0054H10.5785V28.0054H11.5785V27.0054ZM11.5785 20.1562H12.5785V19.1562H11.5785V20.1562ZM10.2888 20.1562H9.28882V21.1562H10.2888V20.1562ZM10.2888 19.105V18.105H9.28882V19.105H10.2888ZM14.1361 19.105H15.1361V18.105H14.1361V19.105ZM21.5706 22.1608L20.5911 22.3624L20.5924 22.3683L21.5706 22.1608ZM21.6898 23.6888H22.6898V23.6806L22.6897 23.6724L21.6898 23.6888ZM21.3755 26.4957L20.486 26.0389V26.0389L21.3755 26.4957ZM19.7391 26.9292L19.2381 27.7946L19.2555 27.8047L19.2733 27.8141L19.7391 26.9292ZM19.2839 26.4632L20.1784 26.016L19.902 25.4632H19.2839V26.4632ZM19.2514 26.4632V25.4632H18.463L18.279 26.2298L19.2514 26.4632ZM19.1214 27.0051V28.0051H19.9098L20.0938 27.2384L19.1214 27.0051ZM18.0485 27.0051H17.0485V28.0051H18.0485V27.0051ZM18.0485 18.812V17.812H17.0485V18.812H18.0485ZM19.3056 18.812H20.3056V17.812H19.3056V18.812ZM19.3056 21.8573H18.3056V22.8573H19.3056V21.8573ZM19.3164 21.8573V22.8573H19.9345L20.2109 22.3045L19.3164 21.8573ZM19.7933 21.3263L20.3273 22.1718L20.3428 22.162L20.358 22.1516L19.7933 21.3263ZM20.3785 24.5125V23.5125H19.3785V24.5125H20.3785ZM20.3243 25.4987L21.3151 25.6338L21.3151 25.6338L20.3243 25.4987ZM20.3893 24.5125V25.5125H21.3893V24.5125H20.3893ZM20.346 22.7135L21.3376 22.5841L21.3368 22.5783L20.346 22.7135ZM20.1943 22.1933L19.3622 22.748L19.3685 22.7574L19.375 22.7667L20.1943 22.1933ZM19.544 22.1933L18.8751 21.45L18.8555 21.4676L18.8369 21.4862L19.544 22.1933ZM19.3164 22.5834L18.3549 22.3087L18.3164 22.4434V22.5834H19.3164ZM19.3164 25.8563H18.3164V26.1154L18.4423 26.3419L19.3164 25.8563ZM19.5332 26.0839L20.0632 25.2359L20.0632 25.2359L19.5332 26.0839ZM20.1509 26.008L20.8983 26.6724L20.9201 26.6479L20.9403 26.622L20.1509 26.008ZM25.6052 17.3205C26.1221 17.4596 26.5322 17.8697 26.6714 18.3867L28.6026 17.8667C28.2782 16.6615 27.3304 15.7137 26.1252 15.3892L25.6052 17.3205ZM17.9996 15.9243C17.9996 16.9243 17.9996 16.9243 17.9996 16.9243C17.9997 16.9243 17.9997 16.9243 17.9998 16.9243C17.9999 16.9243 18.0002 16.9243 18.0005 16.9243C18.0012 16.9243 18.0022 16.9243 18.0036 16.9243C18.0065 16.9243 18.0108 16.9243 18.0166 16.9243C18.0282 16.9243 18.0456 16.9244 18.0684 16.9244C18.1141 16.9245 18.1816 16.9247 18.2683 16.9251C18.4416 16.926 18.6915 16.9276 18.9965 16.931C19.6067 16.9377 20.4356 16.951 21.3121 16.9777C22.1902 17.0044 23.1078 17.0442 23.8981 17.1032C24.7169 17.1643 25.3137 17.2407 25.6012 17.3194L26.1292 15.3903C25.6302 15.2538 24.8505 15.1687 24.047 15.1087C23.215 15.0466 22.2645 15.0057 21.3729 14.9786C20.4796 14.9514 19.637 14.9379 19.0183 14.9311C18.7088 14.9277 18.4548 14.926 18.2779 14.9252C18.1894 14.9247 18.1202 14.9245 18.0729 14.9244C18.0493 14.9244 18.0311 14.9243 18.0188 14.9243C18.0127 14.9243 18.0079 14.9243 18.0047 14.9243C18.0031 14.9243 18.0019 14.9243 18.001 14.9243C18.0006 14.9243 18.0003 14.9243 18 14.9243C17.9999 14.9243 17.9998 14.9243 17.9998 14.9243C17.9997 14.9243 17.9996 14.9243 17.9996 15.9243ZM10.3885 17.3054C10.6796 17.2288 11.2796 17.1552 12.0983 17.0964C12.8894 17.0396 13.8076 17.0013 14.686 16.9756C15.5628 16.95 16.3919 16.9372 17.0024 16.9307C17.3074 16.9275 17.5574 16.9259 17.7308 16.9251C17.8175 16.9247 17.885 16.9245 17.9307 16.9244C17.9536 16.9244 17.971 16.9243 17.9826 16.9243C17.9884 16.9243 17.9927 16.9243 17.9956 16.9243C17.997 16.9243 17.9981 16.9243 17.9987 16.9243C17.9991 16.9243 17.9993 16.9243 17.9995 16.9243C17.9995 16.9243 17.9996 16.9243 17.9996 16.9243C17.9996 16.9243 17.9996 16.9243 17.9996 15.9243C17.9996 14.9243 17.9996 14.9243 17.9995 14.9243C17.9994 14.9243 17.9993 14.9243 17.9992 14.9243C17.999 14.9243 17.9986 14.9243 17.9982 14.9243C17.9974 14.9243 17.9961 14.9243 17.9945 14.9243C17.9913 14.9243 17.9866 14.9243 17.9805 14.9243C17.9682 14.9243 17.95 14.9244 17.9264 14.9244C17.8792 14.9245 17.81 14.9247 17.7216 14.9251C17.5447 14.926 17.2908 14.9276 16.9813 14.9308C16.3628 14.9374 15.5205 14.9504 14.6275 14.9765C13.7361 15.0026 12.7863 15.0419 11.9551 15.1015C11.1515 15.1592 10.375 15.2408 9.87955 15.3712L10.3885 17.3054ZM9.32784 18.3867C9.46782 17.8667 9.89756 17.4402 10.3988 17.3026L9.86933 15.374C8.6815 15.7 7.72028 16.6645 7.3966 17.8667L9.32784 18.3867ZM7.94824 22.9619C8.94824 22.9619 8.94824 22.962 8.94824 22.962C8.94824 22.962 8.94824 22.962 8.94824 22.962C8.94824 22.962 8.94824 22.962 8.94824 22.9618C8.94824 22.9616 8.94824 22.9612 8.94824 22.9606C8.94824 22.9593 8.94825 22.9573 8.94825 22.9546C8.94826 22.949 8.94829 22.9405 8.94833 22.9291C8.94843 22.9063 8.94862 22.872 8.94901 22.8275C8.94979 22.7384 8.95136 22.6084 8.95452 22.4472C8.96084 22.1244 8.97348 21.6783 8.99869 21.1853C9.05059 20.1701 9.15167 19.0561 9.32929 18.3812L7.39515 17.8722C7.15879 18.7703 7.05288 20.074 7.00129 21.0832C6.97475 21.6023 6.96152 22.0701 6.9549 22.4081C6.95159 22.5773 6.94993 22.7145 6.94909 22.8099C6.94867 22.8577 6.94846 22.895 6.94835 22.9208C6.9483 22.9336 6.94827 22.9436 6.94826 22.9505C6.94825 22.954 6.94825 22.9567 6.94824 22.9586C6.94824 22.9595 6.94824 22.9603 6.94824 22.9608C6.94824 22.9611 6.94824 22.9614 6.94824 22.9615C6.94824 22.9616 6.94824 22.9617 6.94824 22.9618C6.94824 22.9619 6.94824 22.9619 7.94824 22.9619ZM9.32863 27.5402C9.15179 26.8753 9.05065 25.7632 8.99869 24.7449C8.97348 24.2509 8.96084 23.8032 8.95452 23.4791C8.95136 23.3172 8.94979 23.1866 8.94901 23.0971C8.94862 23.0524 8.94843 23.0179 8.94833 22.995C8.94829 22.9835 8.94826 22.9749 8.94825 22.9694C8.94825 22.9666 8.94824 22.9646 8.94824 22.9633C8.94824 22.9627 8.94824 22.9623 8.94824 22.962C8.94824 22.9619 8.94824 22.9619 8.94824 22.9618C8.94824 22.9618 8.94824 22.9619 8.94824 22.9619C8.94824 22.9619 8.94824 22.9619 7.94824 22.9619C6.94824 22.9619 6.94824 22.962 6.94824 22.9621C6.94824 22.9621 6.94824 22.9622 6.94824 22.9623C6.94824 22.9625 6.94824 22.9628 6.94824 22.963C6.94824 22.9636 6.94824 22.9644 6.94824 22.9653C6.94825 22.9672 6.94825 22.9699 6.94826 22.9734C6.94827 22.9804 6.9483 22.9904 6.94835 23.0033C6.94846 23.0291 6.94867 23.0666 6.94909 23.1146C6.94993 23.2105 6.95159 23.3482 6.9549 23.5181C6.96152 23.8573 6.97475 24.3266 7.00129 24.8468C7.05283 25.857 7.15868 27.1626 7.39581 28.0542L9.32863 27.5402ZM10.394 28.6034C9.8771 28.4642 9.46701 28.0541 9.32784 27.5372L7.3966 28.0572C7.72109 29.2624 8.66884 30.2102 9.87407 30.5346L10.394 28.6034ZM17.9996 29.9996C17.9996 28.9996 17.9996 28.9996 17.9996 28.9996C17.9996 28.9996 17.9995 28.9996 17.9995 28.9996C17.9993 28.9996 17.9991 28.9996 17.9987 28.9996C17.9981 28.9996 17.997 28.9996 17.9956 28.9996C17.9928 28.9996 17.9884 28.9996 17.9827 28.9995C17.9711 28.9995 17.9538 28.9995 17.931 28.9995C17.8855 28.9994 17.8181 28.9991 17.7317 28.9987C17.5587 28.9979 17.3094 28.9962 17.0051 28.9929C16.3962 28.9862 15.5688 28.9729 14.6934 28.9462C13.8164 28.9195 12.8992 28.8797 12.108 28.8207C11.2892 28.7596 10.6887 28.6832 10.3955 28.6038L9.87263 30.5343C10.3742 30.6701 11.1543 30.7551 11.9593 30.8152C12.792 30.8773 13.7419 30.9182 14.6325 30.9453C15.5248 30.9724 16.3658 30.986 16.9832 30.9928C17.2921 30.9962 17.5455 30.9979 17.722 30.9987C17.8103 30.9991 17.8793 30.9993 17.9265 30.9995C17.9501 30.9995 17.9682 30.9995 17.9805 30.9995C17.9866 30.9996 17.9913 30.9996 17.9945 30.9996C17.9961 30.9996 17.9974 30.9996 17.9982 30.9996C17.9986 30.9996 17.999 30.9996 17.9992 30.9996C17.9993 30.9996 17.9994 30.9996 17.9995 30.9996C17.9996 30.9996 17.9996 30.9996 17.9996 29.9996ZM25.6107 28.6185C25.3196 28.6951 24.7196 28.7687 23.901 28.8275C23.1099 28.8843 22.1916 28.9226 21.3133 28.9482C20.4365 28.9739 19.6073 28.9867 18.9969 28.9931C18.6918 28.9964 18.4419 28.998 18.2685 28.9988C18.1818 28.9992 18.1142 28.9994 18.0685 28.9995C18.0456 28.9995 18.0283 28.9995 18.0167 28.9995C18.0109 28.9996 18.0065 28.9996 18.0037 28.9996C18.0022 28.9996 18.0012 28.9996 18.0005 28.9996C18.0002 28.9996 17.9999 28.9996 17.9998 28.9996C17.9997 28.9996 17.9997 28.9996 17.9996 28.9996C17.9996 28.9996 17.9996 28.9996 17.9996 29.9996C17.9996 30.9996 17.9997 30.9996 17.9998 30.9996C17.9998 30.9996 17.9999 30.9996 18 30.9996C18.0003 30.9996 18.0006 30.9996 18.001 30.9996C18.0019 30.9996 18.0031 30.9996 18.0047 30.9996C18.0079 30.9996 18.0126 30.9996 18.0188 30.9995C18.0311 30.9995 18.0492 30.9995 18.0728 30.9995C18.1201 30.9994 18.1893 30.9992 18.2777 30.9987C18.4545 30.9979 18.7085 30.9963 19.0179 30.993C19.6365 30.9865 20.4787 30.9735 21.3717 30.9474C22.2631 30.9213 23.2129 30.882 24.0441 30.8223C24.8477 30.7647 25.6242 30.6831 26.1197 30.5527L25.6107 28.6185ZM26.6714 27.5538C26.5322 28.0707 26.1221 28.4808 25.6052 28.62L26.1252 30.5512C27.3304 30.2267 28.2782 29.279 28.6026 28.0737L26.6714 27.5538ZM28.051 22.9785C27.051 22.9785 27.051 22.9784 27.051 22.9784C27.051 22.9784 27.051 22.9784 27.051 22.9784C27.051 22.9784 27.051 22.9785 27.051 22.9786C27.051 22.9788 27.051 22.9792 27.051 22.9799C27.051 22.9811 27.051 22.9831 27.051 22.9859C27.051 22.9914 27.051 22.9999 27.0509 23.0114C27.0508 23.0342 27.0506 23.0685 27.0502 23.113C27.0494 23.2021 27.0479 23.332 27.0447 23.4932C27.0384 23.8161 27.0258 24.2621 27.0006 24.7552C26.9487 25.7704 26.8476 26.8843 26.6699 27.5593L28.6041 28.0683C28.8405 27.1701 28.9464 25.8664 28.9979 24.8573C29.0245 24.3381 29.0377 23.8703 29.0443 23.5324C29.0477 23.3632 29.0493 23.226 29.0502 23.1305C29.0506 23.0828 29.0508 23.0454 29.0509 23.0197C29.0509 23.0068 29.051 22.9968 29.051 22.9899C29.051 22.9865 29.051 22.9838 29.051 22.9819C29.051 22.9809 29.051 22.9802 29.051 22.9796C29.051 22.9793 29.051 22.9791 29.051 22.9789C29.051 22.9788 29.051 22.9787 29.051 22.9787C29.051 22.9786 29.051 22.9785 28.051 22.9785ZM26.6725 18.3907C26.8555 19.0593 26.9568 20.1716 27.0067 21.1913C27.0308 21.6857 27.0419 22.1332 27.047 22.4572C27.0495 22.619 27.0505 22.7494 27.0509 22.8387C27.0511 22.8834 27.0511 22.9178 27.0511 22.9406C27.0511 22.9521 27.0511 22.9606 27.051 22.9661C27.051 22.9689 27.051 22.9709 27.051 22.9721C27.051 22.9727 27.051 22.9732 27.051 22.9734C27.051 22.9735 27.051 22.9735 27.051 22.9736C27.051 22.9736 27.051 22.9735 27.051 22.9735C27.051 22.9735 27.051 22.9734 28.051 22.9785C29.051 22.9835 29.051 22.9835 29.051 22.9834C29.051 22.9833 29.051 22.9832 29.051 22.9831C29.051 22.9829 29.051 22.9827 29.051 22.9824C29.051 22.9819 29.051 22.9811 29.051 22.9801C29.051 22.9782 29.051 22.9754 29.051 22.972C29.0511 22.965 29.0511 22.9549 29.0511 22.942C29.0511 22.916 29.0511 22.8784 29.0509 22.8304C29.0505 22.7343 29.0494 22.5962 29.0467 22.426C29.0414 22.0861 29.0298 21.6157 29.0043 21.0937C28.9548 20.0808 28.8491 18.7672 28.6016 17.8627L26.6725 18.3907ZM24.5321 24.8485V24.5559H22.5321V24.8485H24.5321ZM24.5578 25.5661C24.5432 25.4425 24.5321 25.2087 24.5321 24.8485H22.5321C22.5321 25.2252 22.5427 25.555 22.5715 25.7998L24.5578 25.5661ZM24.4126 25.3769C24.4691 25.4333 24.5047 25.4869 24.5258 25.5244C24.5469 25.5618 24.5574 25.5899 24.5615 25.6022C24.5687 25.6234 24.5637 25.6166 24.5578 25.5661L22.5715 25.7998C22.5955 26.0039 22.6625 26.4552 22.9984 26.7911L24.4126 25.3769ZM24.0306 25.214C24.0457 25.214 24.1134 25.2156 24.207 25.253C24.3095 25.294 24.4195 25.3693 24.5055 25.484L22.9055 26.684C23.2275 27.1133 23.6983 27.214 24.0306 27.214V25.214ZM23.5372 25.5392C23.5754 25.4628 23.6525 25.3616 23.7797 25.2889C23.8997 25.2203 23.9998 25.214 24.0306 25.214V27.214C24.2566 27.214 24.5193 27.1698 24.772 27.0254C25.032 26.8768 25.212 26.6617 25.3261 26.4336L23.5372 25.5392ZM23.5513 25.1975C23.5464 25.358 23.5373 25.4654 23.5268 25.5355C23.5151 25.6131 23.5084 25.5968 23.5372 25.5392L25.3261 26.4337C25.5131 26.0597 25.5401 25.5983 25.5504 25.2581L23.5513 25.1975ZM25.7252 24.2945L24.609 24.2295L24.4927 26.2261L25.6089 26.2911L25.7252 24.2945ZM26.6779 25.4988C26.6779 25.4482 26.6823 25.2697 26.6477 25.0967L24.6865 25.489C24.6817 25.4651 24.6795 25.4467 24.6784 25.4363C24.6774 25.4261 24.6773 25.421 24.6774 25.4236C24.6775 25.4263 24.6777 25.4329 24.6778 25.4465C24.6779 25.453 24.6779 25.4605 24.6779 25.4693C24.6779 25.4783 24.6779 25.4877 24.6779 25.4988H26.6779ZM25.9088 27.4383C26.4909 26.9209 26.6779 26.195 26.6779 25.4988H24.6779C24.6779 25.8646 24.5832 25.9406 24.5801 25.9435L25.9088 27.4383ZM24.009 28.081C24.6968 28.081 25.3766 27.9114 25.9088 27.4383L24.5801 25.9435C24.5271 25.9905 24.3832 26.081 24.009 26.081V28.081ZM21.8262 27.0183C22.3254 27.788 23.1455 28.081 24.009 28.081V26.081C23.5936 26.081 23.525 25.9622 23.5041 25.9299L21.8262 27.0183ZM21.275 24.6101C21.275 25.5205 21.4081 26.3737 21.8262 27.0183L23.5041 25.9299C23.402 25.7725 23.275 25.3903 23.275 24.6101H21.275ZM21.275 23.6022V24.6101H23.275V23.6022H21.275ZM21.8474 21.1458C21.405 21.8006 21.275 22.6791 21.275 23.6022H23.275C23.275 22.7913 23.4051 22.4127 23.5046 22.2655L21.8474 21.1458ZM24.0415 20.1096C23.1969 20.1096 22.3656 20.3789 21.8474 21.1458L23.5046 22.2655C23.5282 22.2305 23.6073 22.1096 24.0415 22.1096V20.1096ZM25.6344 20.5327C25.1677 20.2145 24.5953 20.1096 24.0415 20.1096V22.1096C24.3763 22.1096 24.4975 22.1782 24.5077 22.1851L25.6344 20.5327ZM26.5299 21.8387C26.3896 21.3553 26.121 20.8644 25.6344 20.5327L24.5077 22.1851C24.508 22.1853 24.51 22.1866 24.5137 22.1906C24.5176 22.1946 24.5248 22.2029 24.5343 22.2175C24.5538 22.2476 24.5822 22.3033 24.6092 22.3963L26.5299 21.8387ZM26.7104 23.548C26.7104 22.9126 26.6672 22.3267 26.5322 21.8467L24.6069 22.3882C24.667 22.6019 24.7104 22.9697 24.7104 23.548H26.7104ZM26.7104 24.5342V23.548H24.7104V24.5342H26.7104ZM23.5321 25.5342H25.7104V23.5342H23.5321V25.5342ZM24.5321 24.5559V24.5342H22.5321V24.5559H24.5321ZM24.5578 22.6462C24.5631 22.6011 24.568 22.5904 24.564 22.6026C24.5598 22.6154 24.542 22.6653 24.4947 22.7283L22.8947 21.5283C22.6766 21.8191 22.6021 22.1523 22.5715 22.4125L24.5578 22.6462ZM24.5321 23.3746C24.5321 23.0029 24.5433 22.7695 24.5578 22.6462L22.5715 22.4125C22.5427 22.6576 22.5321 22.9877 22.5321 23.3746H24.5321ZM24.5321 23.7864V23.3746H22.5321V23.7864H24.5321ZM24.4858 22.7864H23.5321V24.7864H24.4858V22.7864ZM23.4858 23.3746V23.7864H25.4858V23.3746H23.4858ZM23.4594 22.6397C23.4749 22.7792 23.4858 23.0171 23.4858 23.3746H25.4858C25.4858 22.9952 25.475 22.6696 25.4472 22.4189L23.4594 22.6397ZM23.5532 22.7791C23.4928 22.7087 23.4682 22.65 23.4604 22.6289C23.4522 22.6065 23.4558 22.607 23.4594 22.6397L25.4472 22.4189C25.413 22.1115 25.3148 21.7612 25.0717 21.4775L23.5532 22.7791ZM24.009 23.0091C23.9328 23.0091 23.7276 22.9826 23.5532 22.7791L25.0717 21.4775C24.7672 21.1223 24.3452 21.0091 24.009 21.0091V23.0091ZM24.4947 22.7283C24.4247 22.8217 24.3197 22.9097 24.1865 22.9623C24.0639 23.0107 23.9687 23.0088 23.9377 23.0066L24.0802 21.0117C23.6719 20.9825 23.2088 21.1095 22.8947 21.5283L24.4947 22.7283ZM16.2681 21.2393V27.0156H18.2681V21.2393H16.2681ZM15.9676 22.2393H17.2681V20.2393H15.9676V22.2393ZM16.9676 25.8235V21.2393H14.9676V25.8235H16.9676ZM16.2545 26.9411C16.5338 26.7735 16.7647 26.5233 16.8961 26.1949L15.0391 25.4521C15.0589 25.4027 15.0881 25.3541 15.1256 25.3113C15.1625 25.2691 15.1991 25.2419 15.2255 25.2261L16.2545 26.9411ZM15.4149 27.1919C15.7407 27.1919 16.0473 27.0891 16.3135 26.9028L15.1666 25.2643C15.1865 25.2503 15.2207 25.2307 15.2684 25.2152C15.3167 25.1995 15.367 25.1919 15.4149 25.1919V27.1919ZM14.2387 26.4766C14.4857 26.9707 14.9615 27.1919 15.4149 27.1919V25.1919C15.4886 25.1919 15.61 25.2078 15.7417 25.283C15.879 25.3615 15.9735 25.474 16.0275 25.5822L14.2387 26.4766ZM14.0464 25.4767C14.0464 25.7794 14.078 26.1551 14.2387 26.4766L16.0275 25.5822C16.046 25.6191 16.0542 25.6452 16.0567 25.6539C16.0595 25.6633 16.0587 25.6629 16.0566 25.6502C16.0523 25.6235 16.0464 25.5677 16.0464 25.4767H14.0464ZM14.0464 21.2393V25.4767H16.0464V21.2393H14.0464ZM13.7459 22.2393H15.0464V20.2393H13.7459V22.2393ZM14.7459 25.5525V21.2393H12.7459V25.5525H14.7459ZM14.8211 26.1394C14.8324 26.1547 14.8106 26.1329 14.7874 26.031C14.7641 25.9288 14.7459 25.7746 14.7459 25.5525H12.7459C12.7459 26.1569 12.8339 26.8156 13.2127 27.3282L14.8211 26.1394ZM14.8622 26.1131C14.7861 26.1131 14.766 26.1002 14.7782 26.1057C14.7841 26.1083 14.7933 26.1135 14.8033 26.1216C14.8131 26.1295 14.8189 26.1365 14.8211 26.1394L13.2127 27.3282C13.6218 27.8816 14.2321 28.1131 14.8622 28.1131V26.1131ZM15.2177 25.8567C15.1018 26.0839 15.0055 26.1131 14.8622 26.1131V28.1131C15.8243 28.1131 16.5733 27.6005 16.9992 26.7656L15.2177 25.8567ZM16.141 25.3111H16.1085V27.3111H16.141V25.3111ZM17.2377 26.8635L17.1294 26.1591L15.1526 26.4632L15.261 27.1676L17.2377 26.8635ZM17.2681 26.0156H16.2494V28.0156H17.2681V26.0156ZM12.8464 21.1562H14.1361V19.1562H12.8464V21.1562ZM13.8464 27.0054V20.1562H11.8464V27.0054H13.8464ZM11.5785 28.0054H12.8464V26.0054H11.5785V28.0054ZM10.5785 20.1562V27.0054H12.5785V20.1562H10.5785ZM10.2888 21.1562H11.5785V19.1562H10.2888V21.1562ZM9.28882 19.105V20.1562H11.2888V19.105H9.28882ZM14.1361 18.105H10.2888V20.105H14.1361V18.105ZM15.1361 20.1562V19.105H13.1361V20.1562H15.1361ZM22.5501 21.9591C22.4508 21.4769 22.254 20.9952 21.8752 20.6401L20.5074 22.0992C20.4901 22.083 20.4979 22.0833 20.5176 22.124C20.5379 22.1658 20.5662 22.2411 20.5911 22.3624L22.5501 21.9591ZM22.6897 23.6724C22.6788 23.0087 22.6466 22.414 22.5488 21.9533L20.5924 22.3683C20.6464 22.6227 20.6792 23.0468 20.69 23.7052L22.6897 23.6724ZM22.6898 24.5992V23.6888H20.6898V24.5992H22.6898ZM22.2651 26.9525C22.582 26.3354 22.6898 25.5007 22.6898 24.5992H20.6898C20.6898 25.4099 20.5809 25.854 20.486 26.0389L22.2651 26.9525ZM20.411 28.1026C20.7935 28.1026 21.1756 28.0118 21.5191 27.7935C21.8591 27.5774 22.099 27.276 22.2651 26.9525L20.486 26.0389C20.4657 26.0784 20.4503 26.0984 20.4436 26.1061C20.4376 26.113 20.4383 26.1106 20.4463 26.1056C20.4545 26.1003 20.4609 26.0984 20.4607 26.0984C20.4595 26.0987 20.4447 26.1026 20.411 26.1026V28.1026ZM19.2733 27.8141C19.5977 27.9848 19.9733 28.1026 20.411 28.1026V26.1026C20.3502 26.1026 20.2923 26.0903 20.2048 26.0443L19.2733 27.8141ZM18.3895 26.9104C18.5875 27.3064 18.8901 27.5932 19.2381 27.7946L20.2401 26.0638C20.2045 26.0431 20.189 26.0287 20.1842 26.0238C20.1804 26.0199 20.1796 26.0185 20.1784 26.016L18.3895 26.9104ZM19.2514 27.4632H19.2839V25.4632H19.2514V27.4632ZM20.0938 27.2384L20.2238 26.6966L18.279 26.2298L18.149 26.7717L20.0938 27.2384ZM18.0485 28.0051H19.1214V26.0051H18.0485V28.0051ZM17.0485 18.812V27.0051H19.0485V18.812H17.0485ZM19.3056 17.812H18.0485V19.812H19.3056V17.812ZM20.3056 21.8573V18.812H18.3056V21.8573H20.3056ZM19.3164 20.8573H19.3056V22.8573H19.3164V20.8573ZM19.2593 20.4808C18.8921 20.7127 18.6081 21.0378 18.422 21.4101L20.2109 22.3045C20.2415 22.2433 20.2827 22.1999 20.3273 22.1718L19.2593 20.4808ZM20.4652 20.1204C20.0358 20.1204 19.6093 20.2405 19.2286 20.501L20.358 22.1516C20.3772 22.1384 20.3925 22.1319 20.4055 22.128C20.4188 22.124 20.4377 22.1204 20.4652 22.1204V20.1204ZM21.8752 20.6401C21.4722 20.2623 20.9548 20.1204 20.4652 20.1204V22.1204C20.5228 22.1204 20.5489 22.1287 20.5513 22.1295C20.5523 22.1299 20.5476 22.1283 20.539 22.1232C20.5303 22.1181 20.5192 22.1102 20.5074 22.0992L21.8752 20.6401ZM19.3785 24.5125C19.3785 24.9042 19.3582 25.1821 19.3335 25.3636L21.3151 25.6338C21.3554 25.3383 21.3785 24.966 21.3785 24.5125H19.3785ZM20.3893 23.5125H20.3785V25.5125H20.3893V23.5125ZM19.3893 23.7538V24.5125H21.3893V23.7538H19.3893ZM19.3544 22.8428C19.3777 23.0218 19.3893 23.3114 19.3893 23.7538H21.3893C21.3893 23.3076 21.3793 22.9037 21.3376 22.5841L19.3544 22.8428ZM19.375 22.7667C19.3482 22.7284 19.3338 22.6982 19.3276 22.6839C19.3214 22.6696 19.3209 22.6652 19.3237 22.6753C19.3265 22.6852 19.3312 22.704 19.3369 22.7342C19.3427 22.7643 19.3488 22.8018 19.3552 22.8486L21.3368 22.5783C21.3049 22.344 21.2425 21.9469 21.0135 21.6198L19.375 22.7667ZM19.8908 23.0415C19.8165 23.0415 19.7206 23.0257 19.6197 22.9753C19.5168 22.9238 19.427 22.8452 19.3622 22.748L21.0263 21.6386C20.7531 21.2288 20.3122 21.0415 19.8908 21.0415V23.0415ZM20.213 22.9366C20.1938 22.9538 20.0849 23.0415 19.8908 23.0415V21.0415C19.4583 21.0415 19.111 21.2377 18.8751 21.45L20.213 22.9366ZM20.278 22.8581C20.278 22.8581 20.2774 22.8599 20.276 22.8633C20.2746 22.8667 20.2725 22.8711 20.2696 22.876C20.2635 22.8865 20.2566 22.8949 20.2511 22.9004L18.8369 21.4862C18.6047 21.7184 18.4435 21.9986 18.3549 22.3087L20.278 22.8581ZM20.3164 25.8563V22.5834H18.3164V25.8563H20.3164ZM20.0632 25.2359C20.1111 25.2658 20.1576 25.3112 20.1906 25.3707L18.4423 26.3419C18.5837 26.5964 18.7819 26.7936 19.0032 26.9319L20.0632 25.2359ZM19.8258 25.1597C19.8544 25.1597 19.953 25.167 20.0632 25.2359L19.0032 26.9319C19.2868 27.1091 19.5805 27.1597 19.8258 27.1597V25.1597ZM19.4035 25.3437C19.4372 25.3058 19.4933 25.2562 19.5756 25.2172C19.6599 25.1771 19.7474 25.1597 19.8258 25.1597V27.1597C20.272 27.1597 20.6431 26.9595 20.8983 26.6724L19.4035 25.3437ZM19.3335 25.3635C19.3292 25.3952 19.3243 25.4206 19.3198 25.44C19.3153 25.4596 19.3115 25.4715 19.3098 25.4765C19.3079 25.4818 19.3091 25.4771 19.3155 25.4647C19.3216 25.4528 19.3358 25.4272 19.3616 25.3941L20.9403 26.622C21.171 26.3253 21.2718 25.9517 21.3151 25.6338L19.3335 25.3635Z" fill="#E0E0E0" mask="url(#path-2-inside-1)"/>
<path d="M16.7088 12.7769L16.7088 12.7769L16.7077 12.7732C16.6184 12.4697 16.5654 12.0248 16.5654 11.4404V10.6059C16.5654 10.0223 16.627 9.58055 16.7247 9.26644C16.827 8.97116 16.9627 8.80379 17.1084 8.7053C17.1665 8.66858 17.2337 8.63586 17.312 8.60879C17.1734 8.72254 17.0824 8.87021 17.0272 9.023C16.9172 9.31096 16.8876 9.69322 16.8876 10.1074V11.9064C16.8876 12.3216 16.9154 12.7214 17.0288 13.0061C17.0876 13.1666 17.1867 13.3227 17.3423 13.4386C17.3447 13.4404 17.3471 13.4421 17.3495 13.4439C17.2244 13.4113 17.1286 13.3689 17.058 13.3219C16.918 13.2285 16.7923 13.0694 16.7088 12.7769ZM18.7097 9.01582C18.6525 8.86867 18.5622 8.71508 18.4137 8.5976C18.5036 8.62639 18.5778 8.6624 18.6383 8.70273C18.7758 8.79442 18.9065 8.96466 19.0035 9.26426C19.1006 9.5645 19.1634 10.0057 19.1634 10.6059V11.4404C19.1634 12.0343 19.1106 12.4637 19.0137 12.7732C18.9168 13.0715 18.7864 13.2412 18.6491 13.3327C18.5831 13.3768 18.4975 13.4163 18.3892 13.4467C18.392 13.4447 18.3947 13.4426 18.3975 13.4405C18.5529 13.3231 18.648 13.1659 18.708 13.0132C18.8239 12.7282 18.8521 12.3251 18.8521 11.9064V10.1074C18.8521 9.68977 18.822 9.30459 18.7097 9.01582Z" stroke="#E0E0E0"/>
<path d="M14.7894 9.90489C14.8364 9.61266 14.9251 9.16378 15.0587 8.53391L15.5127 6.5H15.7425L14.7894 9.90489ZM14.4061 11.3428V13.4004H14.1273V11.3428V10.8428H13.9972L13.8874 10.4448H14.245H14.2775H14.6383L14.4246 11.208L14.4061 11.2742V11.3428ZM13.7239 9.85193L12.7992 6.5H13.0284L13.4636 8.52195L13.4636 8.52195L13.4639 8.52332C13.5754 9.03427 13.6618 9.47676 13.7239 9.85193Z" stroke="#E0E0E0"/>
<path d="M23.3581 13.4113H23.2683L23.2252 13.1309L23.16 12.7069H23.0576V8.63501H23.3581V13.4113ZM21.2759 13.1487C21.3568 13.3104 21.4768 13.425 21.6158 13.4965C21.5636 13.5049 21.5091 13.5089 21.4522 13.5089C21.1983 13.5089 21.0808 13.4295 21.009 13.3324C20.922 13.2147 20.8359 12.9589 20.8359 12.4483V8.63501H21.1364V12.3724C21.1364 12.6538 21.1684 12.9338 21.2759 13.1487Z" stroke="#E0E0E0"/>
</svg>
