<svg width="221" height="52" viewBox="0 0 221 52" fill="none" xmlns="http://www.w3.org/2000/svg">
<g opacity="0.7">
<path d="M26.2608 28.7176C26.2608 32.2552 25.065 34.991 22.6735 36.9249C20.4659 38.6701 17.6145 39.5191 14.0732 39.5191C13.1534 39.5191 11.7736 39.472 9.88802 39.4248C8.04839 39.3305 6.62267 39.3304 5.70286 39.3304C4.32313 39.3304 2.43751 39.3776 0 39.5191C1.0118 38.1984 1.56368 32.0194 1.56368 20.9349C1.56368 14.6144 1.56368 11.3598 1.56368 11.1711C1.37972 6.83165 0.919813 3.71856 0.18396 1.78467C1.60968 1.97334 2.9894 2.06768 4.23115 2.06768C5.42691 2.06768 7.22055 2.02052 9.61208 1.92618C12.0036 1.83184 13.7972 1.78467 14.993 1.78467C17.9824 1.78467 20.3739 2.49219 22.2136 3.90723C24.2372 5.51095 25.249 7.77501 25.249 10.7938C25.249 15.9823 21.9376 18.9538 15.3609 19.7085C18.7642 19.9915 21.2937 20.6991 22.9954 21.7839C25.157 23.199 26.2608 25.5102 26.2608 28.7176ZM19.5001 11.2183C19.5001 7.11466 16.8786 5.08643 11.6357 5.08643C10.164 5.08643 8.60028 5.18077 6.89862 5.2751C6.80664 6.40714 6.76065 10.5579 6.76065 17.6803C8.32434 17.869 10.026 17.9633 11.9116 17.9633C14.1652 17.9633 15.9588 17.3973 17.3845 16.2653C18.7642 15.1804 19.5001 13.4823 19.5001 11.2183ZM20.4199 28.9535C20.4199 24.1895 17.4765 21.7839 11.6357 21.7839C11.4517 21.7839 9.84203 21.8311 6.76065 21.8783V31.8779C6.76065 33.8118 7.17456 35.0853 8.0024 35.6513C8.60028 36.0759 9.93401 36.2645 11.9116 36.2645C14.3031 36.2645 16.2807 35.6985 17.8444 34.5193C19.5461 33.1986 20.4199 31.359 20.4199 28.9535Z" fill="#CB2026"/>
<path d="M54.4991 21.8783C54.4991 22.8216 54.4531 23.8593 54.3611 24.9913H35.7808C36.3327 32.4439 39.782 36.1702 46.1747 36.1702C49.3481 36.1702 51.8776 35.1796 53.6252 33.2458C53.0274 34.991 52.6594 36.7834 52.5215 38.5757C50.1759 39.2833 47.7384 39.6134 45.2089 39.6134C40.5178 39.6134 36.8846 38.2927 34.1711 35.6042C31.5037 32.9156 30.1699 29.1893 30.1699 24.4253C30.1699 19.9444 31.2277 16.3596 33.2973 13.7653C35.5968 10.9353 38.9082 9.56738 43.1853 9.56738C46.8646 9.56738 49.67 10.6522 51.5556 12.822C53.5333 15.086 54.4991 18.1048 54.4991 21.8783ZM49.1181 21.8783C49.1641 15.6992 47.0486 12.6333 42.8634 12.6333C38.5403 12.6333 36.1487 15.6992 35.7808 21.8783H49.1181Z" fill="#CB2026"/>
<path d="M84.1169 25.4158C84.1169 34.9437 78.9199 39.7077 68.572 39.7077C67.5602 39.7077 66.5944 39.519 65.8125 39.0945C64.5248 38.4813 63.6509 38.1511 63.283 38.0568C61.0755 35.7456 59.9717 32.9627 59.9717 29.7081C59.9717 29.0949 60.0177 28.1044 60.1097 26.8308C60.2016 25.5573 60.2476 24.5667 60.2476 23.9064C60.2476 23.0574 60.2476 21.7838 60.2476 19.9914C60.2016 18.2462 60.2016 16.9255 60.2016 16.0293C60.2016 13.0577 60.3856 10.7937 60.7995 9.18996C61.5354 6.26554 63.191 4.09581 65.8125 2.58643C68.0201 1.31289 70.7335 0.699707 73.9069 0.699707C76.3444 0.699707 78.598 1.12421 80.6215 2.02041C79.9317 3.57695 79.3798 5.18067 78.9659 6.83156C77.6781 4.992 75.7005 4.0958 73.0791 4.0958C72.1133 4.0958 71.1475 4.33164 70.2276 4.85049C69.3078 5.36934 68.388 5.8882 67.4682 6.40705C65.9045 8.43527 65.1227 10.5578 65.1227 12.8691V18.7651C66.8703 14.803 69.8597 12.8691 74.1369 12.8691C77.5862 12.8691 80.2076 14.0954 81.9553 16.5953C83.381 18.7179 84.1169 21.6895 84.1169 25.4158ZM79.1039 27.3497C79.1039 24.6611 78.598 22.397 77.6321 20.5575C76.3444 18.3406 74.5048 17.2557 72.0673 17.2557C69.3078 17.2557 67.4222 18.0104 66.4104 19.5198C65.6285 20.7461 65.2146 22.8215 65.2146 25.7931C65.2146 28.7175 65.4446 31.3118 65.9505 33.623C66.5024 34.2362 67.0543 34.8022 67.6062 35.3682C68.296 36.1229 68.9399 36.4531 69.4918 36.4531C73.0331 36.4531 75.4706 35.8399 76.8503 34.6607C78.368 33.34 79.1039 30.8873 79.1039 27.3497Z" fill="#CB2026"/>
<path d="M116.495 9.89727C115.299 11.9727 114.011 15.0858 112.632 19.2837L105.641 40.5093C104.353 44.3771 102.974 47.1129 101.456 48.7166C99.4782 50.8391 96.7648 51.8768 93.2235 51.8768C92.7636 51.8768 92.0737 51.8297 91.1999 51.7825C91.9357 49.9429 92.3956 48.0562 92.5796 46.028C93.2235 46.6884 94.0053 47.0185 94.9251 47.0185C96.7648 47.0185 98.3285 46.1695 99.5702 44.4243C100.168 43.5281 100.996 41.83 102.054 39.283C100.904 39.283 99.9381 39.3301 99.0643 39.4245C94.9711 24.142 91.4298 14.2839 88.4404 9.8501C89.6822 9.9916 90.9239 10.0388 92.2577 10.0388C93.3155 10.0388 94.7872 9.9916 96.6268 9.8501C96.4888 10.3218 96.4428 10.8878 96.4428 11.5482C96.4428 13.5292 97.1787 16.7838 98.6504 21.3119L103.387 35.8869C103.479 35.1322 103.985 33.387 104.813 30.604C105.825 27.3966 106.791 24.2364 107.803 21.0289C109.09 16.5951 109.78 13.482 109.78 11.6425C109.78 11.0293 109.688 10.4633 109.458 9.8501C110.976 9.9916 112.172 10.0388 113 10.0388C113.827 10.0388 115.069 10.0388 116.495 9.89727Z" fill="white"/>
<path d="M136.547 10.8406C135.949 12.4443 135.443 14.0481 135.167 15.6518C133.603 14.0009 131.58 13.1519 129.096 13.1519C126.153 13.1519 123.899 14.2839 122.29 16.5008C120.864 18.4819 120.174 21.0289 120.174 24.142C120.174 27.6796 121.002 30.6041 122.704 32.821C124.543 35.2265 127.165 36.4529 130.522 36.4529C132.638 36.4529 134.431 35.8397 135.949 34.6133C135.397 36.1699 135.029 37.6793 134.845 39.1415C132.914 39.566 131.258 39.7547 129.832 39.7547C125.049 39.7547 121.324 38.4811 118.656 35.8869C115.989 33.2926 114.655 29.5664 114.655 24.708C114.655 20.0856 115.989 16.4065 118.61 13.7179C121.232 10.9821 124.819 9.61426 129.28 9.61426C131.396 9.61426 133.833 10.0388 136.547 10.8406Z" fill="white"/>
<path d="M162.807 9.89746C162.071 14.8501 161.657 18.7179 161.657 21.4065V32.5381C161.657 35.4154 161.979 37.7266 162.669 39.519C161.151 39.3303 160.002 39.1888 159.174 39.1888C158.346 39.1888 157.196 39.2832 155.77 39.519C156.368 37.1606 156.69 32.0193 156.69 24.0951C156.69 22.68 156.69 20.9348 156.644 18.8594C156.644 15.369 156.644 13.6709 156.644 13.6709H145.147V32.0665C145.147 35.2739 145.469 37.7738 146.158 39.519C144.641 39.3303 143.491 39.1888 142.663 39.1888C141.835 39.1888 140.685 39.2832 139.26 39.519C139.858 37.2078 140.134 34.2362 140.134 30.6042V18.6236C140.134 15.0859 139.858 12.2087 139.26 9.89746H162.807Z" fill="white"/>
<path d="M189.942 21.8783C189.942 22.8216 189.896 23.8593 189.804 24.9913H171.224C171.776 32.4439 175.225 36.1702 181.618 36.1702C184.791 36.1702 187.321 35.1796 189.069 33.2458C188.471 34.991 188.103 36.7834 187.965 38.5757C185.619 39.2833 183.136 39.6134 180.652 39.6134C176.007 39.6134 172.328 38.2927 169.614 35.6042C166.947 32.9156 165.613 29.1893 165.613 24.4253C165.613 19.9444 166.671 16.3596 168.741 13.7653C171.04 10.9353 174.352 9.56738 178.629 9.56738C182.308 9.56738 185.113 10.6522 187.045 12.822C188.977 15.086 189.942 18.1048 189.942 21.8783ZM184.516 21.8783C184.562 15.6992 182.446 12.6333 178.261 12.6333C173.938 12.6333 171.546 15.6992 171.178 21.8783H184.516Z" fill="white"/>
<path d="M220.572 39.566C218.732 39.283 217.353 39.1415 216.341 39.1415C215.467 39.1415 214.133 39.283 212.294 39.566C212.018 38.0566 211.19 36.1699 209.81 33.9058C208.66 32.1606 207.464 30.3682 206.315 28.623C205.073 30.4154 203.831 32.1606 202.543 34.0002C200.934 36.5001 199.968 38.3396 199.692 39.566C198.128 39.3301 196.887 39.1886 195.967 39.1886C194.817 39.1886 193.713 39.3301 192.563 39.566C194.449 38.0094 196.473 35.7454 198.634 32.7266C200.428 30.2267 202.176 27.6796 203.923 25.1797C202.222 22.5383 200.474 19.8969 198.726 17.2555C196.703 14.2367 194.771 11.784 192.885 9.8501C194.725 10.0388 196.151 10.1331 197.117 10.1331C198.128 10.1331 199.554 10.0388 201.394 9.8501C201.302 10.0388 201.302 10.2746 201.302 10.4161C201.302 11.1708 202.13 12.916 203.739 15.6518C204.889 17.397 205.993 19.1422 207.097 20.8874C208.384 19.1422 209.718 17.397 210.96 15.6518C212.386 13.5292 213.351 11.5953 213.811 9.8501C215.329 10.0388 216.525 10.1331 217.353 10.1331C218.502 10.1331 219.56 10.0388 220.48 9.8501C218.732 11.784 215.053 16.6423 209.304 24.425C211.006 27.0664 212.753 29.7079 214.455 32.3493C216.663 35.4152 218.64 37.8208 220.572 39.566Z" fill="white"/>
</g>
</svg>
