<svg width="221" height="50" viewBox="0 0 221 50" fill="none" xmlns="http://www.w3.org/2000/svg">
<path d="M26.2608 27.3184C26.2608 30.7677 25.065 33.4351 22.6735 35.3208C20.4659 37.0224 17.6145 37.8503 14.0732 37.8503C13.1534 37.8503 11.7736 37.8043 9.88802 37.7583C8.04839 37.6663 6.62267 37.6663 5.70286 37.6663C4.32313 37.6663 2.43751 37.7123 0 37.8503C1.0118 36.5625 1.56368 30.5377 1.56368 19.7299C1.56368 13.5671 1.56368 10.3937 1.56368 10.2098C1.37972 5.97863 0.919813 2.94324 0.18396 1.05762C1.60968 1.24158 2.9894 1.33356 4.23115 1.33356C5.42691 1.33356 7.22055 1.28758 9.61208 1.1956C12.0036 1.10362 13.7972 1.05762 14.993 1.05762C17.9824 1.05762 20.3739 1.74748 22.2136 3.1272C24.2372 4.69089 25.249 6.89845 25.249 9.84186C25.249 14.9009 21.9376 17.7983 15.3609 18.5341C18.7642 18.8101 21.2937 19.4999 22.9954 20.5577C25.157 21.9374 26.2608 24.191 26.2608 27.3184ZM19.5001 10.2558C19.5001 6.25458 16.8786 4.27697 11.6357 4.27697C10.164 4.27697 8.60028 4.36895 6.89862 4.46093C6.80664 5.56471 6.76065 9.61191 6.76065 16.5565C8.32434 16.7405 10.026 16.8325 11.9116 16.8325C14.1652 16.8325 15.9588 16.2806 17.3845 15.1768C18.7642 14.119 19.5001 12.4633 19.5001 10.2558ZM20.4199 27.5483C20.4199 22.9033 17.4765 20.5577 11.6357 20.5577C11.4517 20.5577 9.84203 20.6037 6.76065 20.6497V30.3998C6.76065 32.2854 7.17456 33.5271 8.0024 34.079C8.60028 34.4929 9.93401 34.6769 11.9116 34.6769C14.3031 34.6769 16.2807 34.125 17.8444 32.9752C19.5461 31.6875 20.4199 29.8939 20.4199 27.5483Z" fill="#CB2026"/>
<path d="M54.4991 20.6501C54.4991 21.5699 54.4531 22.5817 54.3611 23.6855H35.7808C36.3327 30.952 39.782 34.5853 46.1747 34.5853C49.3481 34.5853 51.8776 33.6195 53.6252 31.7339C53.0274 33.4355 52.6594 35.1832 52.5215 36.9308C50.1759 37.6207 47.7384 37.9426 45.2089 37.9426C40.5178 37.9426 36.8846 36.6549 34.1711 34.0334C31.5037 31.4119 30.1699 27.7787 30.1699 23.1336C30.1699 18.7645 31.2277 15.2692 33.2973 12.7397C35.5968 9.98021 38.9082 8.64648 43.1853 8.64648C46.8646 8.64648 49.67 9.70427 51.5556 11.8198C53.5333 14.0274 54.4991 16.9708 54.4991 20.6501ZM49.1181 20.6501C49.1641 14.6253 47.0486 11.6359 42.8634 11.6359C38.5403 11.6359 36.1487 14.6253 35.7808 20.6501H49.1181Z" fill="#CB2026"/>
<path d="M84.1169 24.0992C84.1169 33.3893 78.9199 38.0344 68.572 38.0344C67.5602 38.0344 66.5944 37.8504 65.8125 37.4365C64.5248 36.8386 63.6509 36.5167 63.283 36.4247C61.0755 34.1712 59.9717 31.4577 59.9717 28.2843C59.9717 27.6865 60.0177 26.7207 60.1097 25.4789C60.2016 24.2372 60.2476 23.2713 60.2476 22.6275C60.2476 21.7996 60.2476 20.5579 60.2476 18.8102C60.2016 17.1086 60.2016 15.8208 60.2016 14.947C60.2016 12.0496 60.3856 9.84203 60.7995 8.27835C61.5354 5.42692 63.191 3.31134 65.8125 1.83963C68.0201 0.59788 70.7335 0 73.9069 0C76.3444 0 78.598 0.413912 80.6215 1.28774C79.9317 2.80543 79.3798 4.36913 78.9659 5.97881C77.6781 4.18516 75.7005 3.31133 73.0791 3.31133C72.1133 3.31133 71.1475 3.54129 70.2276 4.04719C69.3078 4.55308 68.388 5.05899 67.4682 5.56489C65.9045 7.5425 65.1227 9.61207 65.1227 11.8656V17.6145C66.8703 13.7512 69.8597 11.8656 74.1369 11.8656C77.5862 11.8656 80.2076 13.0614 81.9553 15.4989C83.381 17.5685 84.1169 20.4659 84.1169 24.0992ZM79.1039 25.9848C79.1039 23.3633 78.598 21.1558 77.6321 19.3621C76.3444 17.2006 74.5048 16.1428 72.0673 16.1428C69.3078 16.1428 67.4222 16.8786 66.4104 18.3503C65.6285 19.5461 65.2146 21.5697 65.2146 24.4671C65.2146 27.3185 65.4446 29.848 65.9505 32.1016C66.5024 32.6995 67.0543 33.2514 67.6062 33.8032C68.296 34.5391 68.9399 34.861 69.4918 34.861C73.0331 34.861 75.4706 34.2631 76.8503 33.1134C78.368 31.8256 79.1039 29.4341 79.1039 25.9848Z" fill="#CB2026"/>
<path d="M116.495 8.96836C115.299 10.992 114.011 14.0273 112.632 18.1205L105.641 38.8164C104.353 42.5876 102.974 45.2551 101.456 46.8188C99.4782 48.8884 96.7648 49.9002 93.2235 49.9002C92.7636 49.9002 92.0737 49.8542 91.1999 49.8082C91.9357 48.0145 92.3956 46.1749 92.5796 44.1973C93.2235 44.8412 94.0053 45.1631 94.9251 45.1631C96.7648 45.1631 98.3285 44.3353 99.5702 42.6336C100.168 41.7598 100.996 40.1041 102.054 37.6206C100.904 37.6206 99.9381 37.6666 99.0643 37.7586C94.9711 22.8576 91.4298 13.2455 88.4404 8.92236C89.6822 9.06034 90.9239 9.10632 92.2577 9.10632C93.3155 9.10632 94.7872 9.06034 96.6268 8.92236C96.4888 9.38227 96.4428 9.93416 96.4428 10.578C96.4428 12.5096 97.1787 15.683 98.6504 20.0981L103.387 34.3093C103.479 33.5734 103.985 31.8718 104.813 29.1583C105.825 26.0309 106.791 22.9496 107.803 19.8222C109.09 15.4991 109.78 12.4636 109.78 10.67C109.78 10.0721 109.688 9.52024 109.458 8.92236C110.976 9.06034 112.172 9.10632 113 9.10632C113.827 9.10632 115.069 9.10633 116.495 8.96836Z" fill="#1E386B"/>
<path d="M136.547 9.88815C135.949 11.4518 135.443 13.0155 135.167 14.5792C133.603 12.9695 131.58 12.1417 129.096 12.1417C126.153 12.1417 123.899 13.2455 122.29 15.407C120.864 17.3387 120.174 19.8222 120.174 22.8575C120.174 26.3069 121.002 29.1583 122.704 31.3199C124.543 33.6654 127.165 34.8611 130.522 34.8611C132.638 34.8611 134.431 34.2633 135.949 33.0675C135.397 34.5852 135.029 36.0569 134.845 37.4826C132.914 37.8965 131.258 38.0805 129.832 38.0805C125.049 38.0805 121.324 36.8388 118.656 34.3093C115.989 31.7798 114.655 28.1465 114.655 23.4094C114.655 18.9023 115.989 15.3151 118.61 12.6936C121.232 10.0261 124.819 8.69238 129.28 8.69238C131.396 8.69238 133.833 9.1063 136.547 9.88815Z" fill="#1E386B"/>
<path d="M162.807 8.96826C162.071 13.7973 161.657 17.5685 161.657 20.19V31.0438C161.657 33.8493 161.979 36.1028 162.669 37.8505C161.151 37.6665 160.002 37.5286 159.174 37.5286C158.346 37.5286 157.196 37.6205 155.77 37.8505C156.368 35.5509 156.69 30.538 156.69 22.8115C156.69 21.4318 156.69 19.7301 156.644 17.7065C156.644 14.3032 156.644 12.6475 156.644 12.6475H145.147V30.5839C145.147 33.7113 145.469 36.1488 146.158 37.8505C144.641 37.6665 143.491 37.5286 142.663 37.5286C141.835 37.5286 140.685 37.6205 139.26 37.8505C139.858 35.5969 140.134 32.6995 140.134 29.1582V17.4766C140.134 14.0273 139.858 11.2218 139.26 8.96826H162.807Z" fill="#1E386B"/>
<path d="M189.942 20.6501C189.942 21.5699 189.896 22.5817 189.804 23.6855H171.224C171.776 30.952 175.225 34.5853 181.618 34.5853C184.791 34.5853 187.321 33.6195 189.069 31.7339C188.471 33.4355 188.103 35.1832 187.965 36.9308C185.619 37.6207 183.136 37.9426 180.652 37.9426C176.007 37.9426 172.328 36.6549 169.614 34.0334C166.947 31.4119 165.613 27.7787 165.613 23.1336C165.613 18.7645 166.671 15.2692 168.741 12.7397C171.04 9.98021 174.352 8.64648 178.629 8.64648C182.308 8.64648 185.113 9.70427 187.045 11.8198C188.977 14.0274 189.942 16.9708 189.942 20.6501ZM184.516 20.6501C184.562 14.6253 182.446 11.6359 178.261 11.6359C173.938 11.6359 171.546 14.6253 171.178 20.6501H184.516Z" fill="#1E386B"/>
<path d="M220.572 37.8966C218.732 37.6206 217.353 37.4827 216.341 37.4827C215.467 37.4827 214.133 37.6206 212.294 37.8966C212.018 36.4249 211.19 34.5852 209.81 32.3777C208.66 30.676 207.464 28.9284 206.315 27.2267C205.073 28.9743 203.831 30.676 202.543 32.4697C200.934 34.9072 199.968 36.7008 199.692 37.8966C198.128 37.6666 196.887 37.5286 195.967 37.5286C194.817 37.5286 193.713 37.6666 192.563 37.8966C194.449 36.3789 196.473 34.1713 198.634 31.2279C200.428 28.7904 202.176 26.3069 203.923 23.8694C202.222 21.2939 200.474 18.7184 198.726 16.1429C196.703 13.1995 194.771 10.808 192.885 8.92236C194.725 9.10633 196.151 9.19831 197.117 9.19831C198.128 9.19831 199.554 9.10633 201.394 8.92236C201.302 9.10633 201.302 9.33629 201.302 9.47426C201.302 10.2101 202.13 11.9118 203.739 14.5792C204.889 16.2809 205.993 17.9825 207.097 19.6842C208.384 17.9825 209.718 16.2809 210.96 14.5792C212.386 12.5096 213.351 10.624 213.811 8.92236C215.329 9.10633 216.525 9.19831 217.353 9.19831C218.502 9.19831 219.56 9.10633 220.48 8.92236C218.732 10.808 215.053 15.545 209.304 23.1335C211.006 25.709 212.753 28.2845 214.455 30.86C216.663 33.8494 218.64 36.1949 220.572 37.8966Z" fill="#1E386B"/>
</svg>
