<svg width="32" height="32" viewBox="0 0 32 32" fill="none" xmlns="http://www.w3.org/2000/svg">
<path d="M15.9994 1.42822C24.047 1.42822 30.5708 7.95207 30.5708 15.9996C30.5708 24.0472 24.047 30.5711 15.9994 30.5711C7.95183 30.5711 1.42798 24.0472 1.42798 15.9996C1.42798 7.95207 7.95183 1.42822 15.9994 1.42822ZM15.9994 23.8925C13.4665 23.8925 11.0452 24.5992 8.96045 25.8949C10.9458 27.3102 13.3754 28.1425 15.9994 28.1425C18.6229 28.1425 21.0521 27.3105 23.0374 25.896C20.9531 24.599 18.532 23.8925 15.9994 23.8925ZM15.9994 3.85679C9.29309 3.85679 3.85655 9.29333 3.85655 15.9996C3.85655 19.1758 5.076 22.0672 7.07225 24.2311C9.66766 22.4453 12.7585 21.4639 15.9994 21.4639C19.2407 21.4639 22.3318 22.4455 24.9276 24.2294C26.9233 22.0661 28.1423 19.1752 28.1423 15.9996C28.1423 9.29333 22.7057 3.85679 15.9994 3.85679ZM15.9994 8.10679C19.1859 8.10679 21.7673 10.6882 21.7673 13.8746C21.7673 17.0611 19.1859 19.6425 15.9994 19.6425C12.8129 19.6425 10.2315 17.0611 10.2315 13.8746C10.2315 10.6882 12.8129 8.10679 15.9994 8.10679ZM15.9994 10.5354C14.1542 10.5354 12.6601 12.0294 12.6601 13.8746C12.6601 15.7199 14.1542 17.2139 15.9994 17.2139C17.8446 17.2139 19.3387 15.7199 19.3387 13.8746C19.3387 12.0294 17.8446 10.5354 15.9994 10.5354Z" fill="white" stroke="#1649AD"/>
</svg>
