<svg width="38" height="38" viewBox="0 0 38 38" fill="none" xmlns="http://www.w3.org/2000/svg">
<path d="M19 1C9.07187 1 1 9.07187 1 19C1 28.9281 9.07187 37 19 37C28.9281 37 37 28.9281 37 19C37 9.07187 28.9281 1 19 1Z" stroke="white"/>
<path d="M25.9695 15.5871V11H21.3823" stroke="white" stroke-width="1.3" stroke-linecap="round" stroke-linejoin="round"/>
<path d="M20.6179 16.3517L25.9696 11" stroke="white" stroke-width="1.3" stroke-linecap="round" stroke-linejoin="round"/>
<path d="M25.2049 23.1714V25.465C25.2058 25.6779 25.1621 25.8886 25.0768 26.0837C24.9915 26.2788 24.8664 26.4539 24.7095 26.5979C24.5526 26.7418 24.3674 26.8514 24.1657 26.9196C23.964 26.9878 23.7503 27.0132 23.5382 26.994C21.1857 26.7384 18.9259 25.9345 16.9404 24.6469C15.0932 23.4731 13.5271 21.907 12.3533 20.0598C11.0612 18.0653 10.2572 15.7945 10.0062 13.4314C9.9871 13.22 10.0122 13.0069 10.08 12.8057C10.1477 12.6045 10.2566 12.4197 10.3998 12.2629C10.5429 12.1061 10.7171 11.9809 10.9112 11.8951C11.1054 11.8093 11.3153 11.7649 11.5276 11.7647H13.8212C14.1922 11.7611 14.5519 11.8925 14.8332 12.1344C15.1145 12.3763 15.2983 12.7123 15.3502 13.0797C15.447 13.8137 15.6265 14.5344 15.8854 15.228C15.9882 15.5016 16.0105 15.799 15.9495 16.0849C15.8886 16.3708 15.7469 16.6333 15.5413 16.8411L14.5704 17.8121C15.6587 19.7261 17.2435 21.3109 19.1575 22.3992L20.1285 21.4283C20.3363 21.2227 20.5988 21.0811 20.8847 21.0201C21.1706 20.9591 21.468 20.9814 21.7416 21.0842C22.4352 21.3431 23.1559 21.5226 23.8899 21.6194C24.2613 21.6718 24.6005 21.8589 24.8429 22.145C25.0854 22.4312 25.2142 22.7964 25.2049 23.1714Z" stroke="white" stroke-width="1.3" stroke-linecap="round" stroke-linejoin="round"/>
</svg>
