<svg width="37" height="28" viewBox="0 0 37 28" fill="none" xmlns="http://www.w3.org/2000/svg">
<path d="M23.8214 16.2855C30.1871 16.2855 35.7143 18.5518 35.7143 23.5406C35.7143 26.1332 34.71 27.2141 32.5567 27.2141H15.0861C12.9329 27.2141 11.9286 26.1332 11.9286 23.5406C11.9286 18.5518 17.4558 16.2855 23.8214 16.2855ZM23.8214 18.8569C18.748 18.8569 14.5 20.5987 14.5 23.5406C14.5 24.6861 14.4081 24.6509 14.9785 24.6434L32.5567 24.6426C33.2459 24.6426 33.1429 24.7535 33.1429 23.5406C33.1429 20.5987 28.8948 18.8569 23.8214 18.8569ZM7.42857 5.99979C8.13865 5.99979 8.71429 6.57542 8.71429 7.2855V11.1426H12.5714C13.2815 11.1426 13.8571 11.7183 13.8571 12.4284C13.8571 13.1384 13.2815 13.7141 12.5714 13.7141H8.71429V17.5712C8.71429 18.2813 8.13865 18.8569 7.42857 18.8569C6.71849 18.8569 6.14286 18.2813 6.14286 17.5712V13.7141H2.28571C1.57563 13.7141 1 13.1384 1 12.4284C1 11.7183 1.57563 11.1426 2.28571 11.1426H6.14286V7.2855C6.14286 6.57542 6.71849 5.99979 7.42857 5.99979ZM23.5 0.856934C27.4067 0.856934 30.5714 4.02167 30.5714 7.92836C30.5714 11.835 27.4067 14.9998 23.5 14.9998C19.5933 14.9998 16.4286 11.835 16.4286 7.92836C16.4286 4.02167 19.5933 0.856934 23.5 0.856934ZM23.5 3.42836C21.0135 3.42836 19 5.44184 19 7.92836C19 10.4149 21.0135 12.4284 23.5 12.4284C25.9865 12.4284 28 10.4149 28 7.92836C28 5.44184 25.9865 3.42836 23.5 3.42836Z" fill="white" stroke="#1649AD"/>
</svg>
