<svg width="38" height="38" viewBox="0 0 38 38" fill="none" xmlns="http://www.w3.org/2000/svg">
<path d="M19 1C9.07187 1 1 9.07187 1 19C1 28.9281 9.07187 37 19 37C28.9281 37 37 28.9281 37 19C37 9.07187 28.9281 1 19 1Z" stroke="white"/>
<path d="M19.0237 27.1867C19.4285 27.1867 19.8332 27.1558 20.2305 27.0968L20.2354 27.0996L20.2426 27.0983C20.9567 27.4592 21.7486 27.65 22.5558 27.65C23.9254 27.65 25.2163 27.1161 26.1852 26.1466C27.1543 25.1782 27.6886 23.8866 27.6886 22.517C27.6886 21.721 27.5023 20.9379 27.1503 20.2308L27.1515 20.2242L27.1496 20.2207C27.2137 19.8067 27.2472 19.3851 27.2472 18.9628C27.2472 17.8544 27.0299 16.7763 26.6002 15.7617C26.186 14.7824 25.5928 13.9023 24.8377 13.1477C24.0836 12.3932 23.2032 11.8002 22.2247 11.3861L22.2247 11.3861C21.2103 10.9569 20.1323 10.7396 19.0237 10.7396C18.5782 10.7396 18.1316 10.7753 17.6928 10.8467L17.6855 10.8428L17.6777 10.8443C16.9954 10.5214 16.2443 10.35 15.4835 10.35C14.1136 10.35 12.8222 10.8848 11.8535 11.8539C10.8851 12.8225 10.35 14.1138 10.35 15.4838C10.35 16.2775 10.5355 17.0584 10.8855 17.7633L10.8838 17.773L10.8867 17.7781C10.8299 18.1684 10.8001 18.5652 10.8001 18.9628C10.8001 20.0715 11.0174 21.1493 11.4471 22.1642C11.8609 23.144 12.4544 24.0234 13.2083 24.7776L13.2085 24.7778C13.9629 25.5317 14.8422 26.1258 15.8226 26.5392C16.837 26.9692 17.9153 27.1867 19.0237 27.1867ZM11.5497 17.7433C11.5484 17.7514 11.5471 17.7595 11.5458 17.7676C11.5398 17.8052 11.534 17.843 11.5286 17.8808L11.0418 18.0558L11.0417 18.0556L10.9971 17.9752L10.997 17.9751L11.5497 17.7433ZM18.5345 18.323L18.5345 18.323L18.538 18.3238L20.3088 18.7169C20.309 18.7169 20.3091 18.7169 20.3092 18.717C20.3093 18.717 20.3093 18.717 20.3093 18.717C21.1718 18.9093 21.6304 19.2371 21.8806 19.5592C22.1328 19.8839 22.2325 20.2791 22.2325 20.7146C22.2325 21.3613 21.9915 21.8906 21.5196 22.272C21.033 22.6654 20.2372 22.951 19.054 22.951C16.5034 22.951 15.8097 21.7338 15.8097 21.2869C15.8097 21.1989 15.839 21.155 15.8629 21.132C15.8889 21.107 15.9453 21.072 16.0525 21.072C16.1506 21.072 16.1957 21.0945 16.2637 21.1574C16.3096 21.2 16.361 21.2586 16.4316 21.348C16.451 21.3726 16.4757 21.4045 16.5032 21.4401C16.5563 21.5089 16.6199 21.5912 16.6762 21.66C16.8711 21.8985 17.1356 22.1787 17.536 22.3911C17.938 22.6044 18.4305 22.7253 19.054 22.7253C20.3532 22.7253 21.4111 21.9781 21.4111 20.867C21.4111 20.575 21.3374 20.2264 21.0878 19.9138C20.8398 19.6032 20.4723 19.3963 20.0123 19.2827C20.0119 19.2826 20.0116 19.2825 20.0112 19.2824L17.6205 18.6856C17.6204 18.6856 17.6203 18.6856 17.6201 18.6855C16.7526 18.4679 16.3357 18.1494 16.1235 17.8629C15.91 17.5747 15.8354 17.2274 15.8354 16.8114C15.8354 16.0395 16.1805 15.5378 16.715 15.1997C17.2812 14.8414 18.0758 14.6644 18.898 14.6644C19.6204 14.6644 20.4146 14.8674 21.0109 15.1945C21.6438 15.5417 21.8568 15.9065 21.8568 16.1498C21.8568 16.1843 21.8499 16.2021 21.8455 16.211C21.8406 16.2209 21.8314 16.2345 21.8114 16.2504C21.7676 16.2852 21.675 16.3265 21.537 16.3265C21.4721 16.3265 21.4423 16.3149 21.3837 16.2658C21.3432 16.2319 21.2967 16.1847 21.2289 16.1098C21.2128 16.0921 21.1942 16.0712 21.1739 16.0485C21.1202 15.9884 21.0545 15.9147 20.99 15.8473C20.7959 15.6442 20.5371 15.4127 20.1592 15.2386C19.7826 15.065 19.327 14.9664 18.7558 14.9664C18.176 14.9664 17.6437 15.0965 17.2387 15.3951C16.814 15.7081 16.5795 16.1725 16.5795 16.6976C16.5795 17.3516 17.007 17.739 17.3941 17.9468C17.7617 18.1442 18.2099 18.2491 18.5345 18.323Z" stroke="white" stroke-width="1.3"/>
</svg>
