<svg width="38" height="38" viewBox="0 0 38 38" fill="none" xmlns="http://www.w3.org/2000/svg">
<path d="M19 1C9.07187 1 1 9.07187 1 19C1 28.9281 9.07187 37 19 37C28.9281 37 37 28.9281 37 19C37 9.07187 28.9281 1 19 1Z" stroke="white"/>
<mask id="path-2-outside-1" maskUnits="userSpaceOnUse" x="6.06055" y="9" width="22" height="20" fill="black">
<rect fill="white" x="6.06055" y="9" width="22" height="20"/>
<path fill-rule="evenodd" clip-rule="evenodd" d="M22.1335 26.8686C23.2442 27.3545 23.6607 26.3364 23.6607 26.3364L26.5993 11.5736C26.5762 10.5786 25.2341 11.1803 25.2341 11.1803L8.7822 17.6361C8.7822 17.6361 7.99547 17.9137 8.06488 18.3997C8.1343 18.8856 8.75906 19.117 8.75906 19.117L12.901 20.5053C12.901 20.5053 14.1505 24.601 14.405 25.3877C14.6364 26.1513 14.8447 26.1744 14.8447 26.1744C15.076 26.267 15.2843 26.105 15.2843 26.105L17.9684 23.6754L22.1335 26.8686ZM22.8508 14.1883C22.8508 14.1883 23.4292 13.8412 23.4061 14.1883C23.4061 14.1883 23.4987 14.2346 23.1979 14.5585C22.9202 14.8362 16.3718 20.7136 15.4925 21.5003C15.4231 21.5466 15.3768 21.616 15.3768 21.7085L15.1223 23.8836C15.076 24.115 14.7752 24.1381 14.7058 23.9299L13.6182 20.3665C13.572 20.2276 13.6182 20.0657 13.7571 19.9731L22.8508 14.1883Z"/>
</mask>
<path d="M23.6607 26.3364L24.8639 26.8286L24.9112 26.7129L24.9356 26.5902L23.6607 26.3364ZM22.1335 26.8686L21.3425 27.9003L21.4678 27.9963L21.6124 28.0596L22.1335 26.8686ZM26.5993 11.5736L27.8743 11.8274L27.9023 11.6868L27.899 11.5434L26.5993 11.5736ZM25.2341 11.1803L25.709 12.3904L25.7377 12.3791L25.7659 12.3665L25.2341 11.1803ZM8.7822 17.6361L9.21486 18.862L9.2361 18.8545L9.25707 18.8462L8.7822 17.6361ZM8.06488 18.3997L6.77795 18.5835V18.5835L8.06488 18.3997ZM8.75906 19.117L8.30755 20.3361L8.32662 20.3431L8.3459 20.3496L8.75906 19.117ZM12.901 20.5053L14.1444 20.126L13.949 19.4855L13.3141 19.2727L12.901 20.5053ZM14.405 25.3877L15.6491 25.0107L15.6456 24.9991L15.6419 24.9875L14.405 25.3877ZM14.8447 26.1744L15.3275 24.9674L15.1636 24.9019L14.9882 24.8824L14.8447 26.1744ZM15.2843 26.105L16.0824 27.1312L16.1207 27.1014L16.1567 27.0688L15.2843 26.105ZM17.9684 23.6754L18.7594 22.6437L17.8994 21.9844L17.096 22.7116L17.9684 23.6754ZM23.4061 14.1883L22.109 14.1018L22.0515 14.9644L22.8247 15.3511L23.4061 14.1883ZM22.8508 14.1883L22.1819 13.0736L22.1673 13.0823L22.153 13.0914L22.8508 14.1883ZM23.1979 14.5585L24.1171 15.4778L24.1341 15.4608L24.1505 15.4431L23.1979 14.5585ZM15.4925 21.5003L16.2136 22.5819L16.2905 22.5307L16.3593 22.4691L15.4925 21.5003ZM15.3768 21.7085L16.668 21.8596L16.6768 21.7843V21.7085H15.3768ZM15.1223 23.8836L16.397 24.1386L16.4074 24.087L16.4135 24.0347L15.1223 23.8836ZM14.7058 23.9299L13.4624 24.3094L13.4672 24.3252L13.4725 24.341L14.7058 23.9299ZM13.6182 20.3665L14.8616 19.987L14.8568 19.9711L14.8515 19.9554L13.6182 20.3665ZM13.7571 19.9731L13.0593 18.8762L13.0476 18.8837L13.036 18.8914L13.7571 19.9731ZM23.6607 26.3364C22.4574 25.8442 22.4577 25.8435 22.458 25.8429C22.4581 25.8427 22.4583 25.842 22.4585 25.8416C22.4588 25.8408 22.4592 25.84 22.4595 25.8391C22.4602 25.8375 22.4609 25.8359 22.4615 25.8344C22.4628 25.8313 22.464 25.8285 22.4652 25.8258C22.4675 25.8204 22.4696 25.8157 22.4714 25.8116C22.4751 25.8035 22.4778 25.7978 22.4798 25.7939C22.4835 25.7866 22.4848 25.7847 22.4843 25.7856C22.4799 25.7924 22.4827 25.7846 22.5029 25.7684C22.5303 25.7466 22.5868 25.7132 22.6618 25.7028C22.7389 25.6921 22.7466 25.7179 22.6545 25.6776L21.6124 28.0596C22.0757 28.2623 22.552 28.343 23.0195 28.2781C23.485 28.2134 23.8539 28.0167 24.1242 27.801C24.3874 27.5911 24.5637 27.3591 24.6722 27.1902C24.728 27.1032 24.7706 27.0255 24.8014 26.9645C24.8169 26.9337 24.8297 26.9066 24.84 26.8838C24.8452 26.8724 24.8497 26.862 24.8537 26.8528C24.8557 26.8482 24.8575 26.8439 24.8592 26.8399C24.8601 26.8378 24.8609 26.8359 24.8616 26.834C24.862 26.8331 24.8624 26.8322 24.8628 26.8313C24.863 26.8308 24.8632 26.8301 24.8633 26.8299C24.8636 26.8293 24.8639 26.8286 23.6607 26.3364ZM25.3243 11.3198L22.3857 26.0826L24.9356 26.5902L27.8743 11.8274L25.3243 11.3198ZM25.2341 11.1803C25.7659 12.3665 25.7655 12.3667 25.7652 12.3668C25.7651 12.3669 25.7647 12.367 25.7645 12.3671C25.7641 12.3673 25.7636 12.3675 25.7632 12.3677C25.7624 12.3681 25.7617 12.3684 25.761 12.3687C25.7596 12.3693 25.7585 12.3698 25.7577 12.3701C25.7561 12.3708 25.7556 12.3711 25.756 12.3709C25.7569 12.3705 25.7615 12.3686 25.7693 12.3655C25.7853 12.3592 25.8118 12.3492 25.8446 12.3386C25.9213 12.3138 25.9812 12.302 26.0078 12.3C26.018 12.2992 25.9932 12.3025 25.9429 12.2941C25.8918 12.2856 25.7884 12.2604 25.67 12.1838C25.5421 12.101 25.4356 11.9827 25.3685 11.8468C25.3059 11.7201 25.3002 11.6248 25.2997 11.6038L27.899 11.5434C27.8856 10.9694 27.6528 10.37 27.0825 10.001C26.6026 9.69042 26.0912 9.68589 25.8083 9.70765C25.4965 9.73163 25.2194 9.80813 25.0437 9.86501C24.9504 9.89524 24.8719 9.92449 24.8144 9.94718C24.7855 9.95862 24.7612 9.96863 24.7424 9.97659C24.733 9.98057 24.7249 9.98406 24.7182 9.98698C24.7149 9.98844 24.7119 9.98976 24.7092 9.99093C24.7079 9.99152 24.7067 9.99207 24.7055 9.99258C24.7049 9.99283 24.7044 9.99308 24.7039 9.99331C24.7036 9.99343 24.7032 9.9936 24.7031 9.99366C24.7027 9.99383 24.7023 9.99399 25.2341 11.1803ZM9.25707 18.8462L25.709 12.3904L24.7592 9.97009L8.30732 16.4259L9.25707 18.8462ZM9.35182 18.2158C9.39045 18.4863 9.29585 18.6985 9.2236 18.805C9.16406 18.8928 9.11548 18.9197 9.13748 18.9045C9.15121 18.895 9.17669 18.8806 9.20625 18.8669C9.21884 18.8611 9.22784 18.8574 9.2309 18.8562C9.23231 18.8556 9.23193 18.8558 9.22945 18.8567C9.22819 18.8572 9.22638 18.8578 9.22398 18.8587C9.22277 18.8591 9.22141 18.8596 9.2199 18.8602C9.21914 18.8604 9.21834 18.8607 9.2175 18.861C9.21708 18.8612 9.21665 18.8613 9.21621 18.8615C9.21599 18.8616 9.21566 18.8617 9.21555 18.8617C9.21521 18.8618 9.21486 18.862 8.7822 17.6361C8.34953 16.4102 8.34918 16.4103 8.34883 16.4104C8.34871 16.4105 8.34835 16.4106 8.34811 16.4107C8.34762 16.4109 8.34712 16.411 8.34661 16.4112C8.34558 16.4116 8.34449 16.412 8.34336 16.4124C8.34109 16.4132 8.3386 16.4141 8.33591 16.4151C8.33053 16.417 8.32431 16.4193 8.31731 16.4219C8.30334 16.4272 8.28613 16.4338 8.26616 16.4418C8.22646 16.4576 8.17455 16.4794 8.11446 16.5072C7.99867 16.5608 7.83181 16.6461 7.65754 16.7668C7.41748 16.933 6.6287 17.5388 6.77795 18.5835L9.35182 18.2158ZM8.75906 19.117C9.21057 17.8979 9.21095 17.898 9.21133 17.8982C9.21146 17.8982 9.21184 17.8984 9.21209 17.8985C9.21258 17.8987 9.21308 17.8988 9.21356 17.899C9.21452 17.8994 9.21546 17.8997 9.21636 17.9001C9.21816 17.9007 9.21985 17.9014 9.22141 17.902C9.22454 17.9032 9.22721 17.9042 9.22944 17.9051C9.2339 17.9069 9.23671 17.908 9.2381 17.9086C9.24071 17.9097 9.23855 17.9089 9.23323 17.9063C9.21998 17.8998 9.20592 17.8915 9.19711 17.8852C9.13995 17.8441 9.31208 17.9376 9.35182 18.2158L6.77795 18.5835C6.88711 19.3476 7.40632 19.7998 7.67889 19.9959C7.83496 20.1081 7.98142 20.1881 8.08748 20.2402C8.14182 20.2669 8.18901 20.2879 8.22606 20.3036C8.24467 20.3114 8.26097 20.318 8.27461 20.3234C8.28143 20.3261 8.28762 20.3285 8.29311 20.3306C8.29586 20.3317 8.29845 20.3326 8.30085 20.3336C8.30206 20.334 8.30322 20.3344 8.30433 20.3349C8.30489 20.3351 8.30544 20.3353 8.30597 20.3355C8.30624 20.3356 8.30664 20.3357 8.30677 20.3358C8.30716 20.3359 8.30755 20.3361 8.75906 19.117ZM13.3141 19.2727L9.17222 17.8844L8.3459 20.3496L12.4878 21.7379L13.3141 19.2727ZM15.6419 24.9875C15.5185 24.6062 15.1463 23.3982 14.8004 22.2703C14.6285 21.7097 14.4644 21.1736 14.3434 20.7776C14.2829 20.5796 14.2331 20.4166 14.1985 20.3032C14.1812 20.2465 14.1676 20.2022 14.1584 20.172C14.1538 20.157 14.1503 20.1454 14.148 20.1377C14.1468 20.1338 14.1459 20.1309 14.1453 20.1289C14.145 20.1279 14.1448 20.1272 14.1446 20.1267C14.1445 20.1265 14.1445 20.1263 14.1444 20.1262C14.1444 20.1261 14.1444 20.1261 14.1444 20.126C14.1444 20.126 14.1444 20.126 12.901 20.5053C11.6575 20.8847 11.6575 20.8847 11.6576 20.8847C11.6576 20.8848 11.6576 20.8848 11.6576 20.8849C11.6576 20.885 11.6577 20.8852 11.6578 20.8854C11.6579 20.8859 11.6582 20.8867 11.6585 20.8877C11.6591 20.8897 11.66 20.8926 11.6612 20.8965C11.6635 20.9043 11.6671 20.9159 11.6717 20.931C11.6809 20.9612 11.6945 21.0057 11.7118 21.0625C11.7465 21.1761 11.7964 21.3393 11.857 21.5376C11.9782 21.9341 12.1424 22.471 12.3147 23.0327C12.6571 24.1493 13.037 25.3824 13.1681 25.7879L15.6419 24.9875ZM14.8447 26.1744C14.9882 24.8824 14.9904 24.8826 14.9926 24.8829C14.9934 24.883 14.9956 24.8832 14.997 24.8834C15 24.8837 15.0029 24.8841 15.0059 24.8845C15.0117 24.8852 15.0176 24.886 15.0235 24.8868C15.0352 24.8884 15.0469 24.8902 15.0585 24.8921C15.0818 24.896 15.1048 24.9006 15.1276 24.9057C15.1733 24.916 15.2174 24.9286 15.2599 24.9432C15.3453 24.9727 15.4204 25.0094 15.485 25.0487C15.6138 25.1273 15.6906 25.2102 15.7267 25.2553C15.7893 25.3335 15.74 25.3105 15.6491 25.0107L13.1609 25.7647C13.3014 26.2285 13.4719 26.5988 13.6965 26.8795C13.8136 27.0259 13.9569 27.1623 14.132 27.269C14.2197 27.3225 14.3129 27.3669 14.4106 27.4006C14.4592 27.4174 14.5081 27.4313 14.5569 27.4423C14.5813 27.4478 14.6055 27.4525 14.6296 27.4565C14.6416 27.4585 14.6536 27.4604 14.6655 27.462C14.6715 27.4629 14.6774 27.4636 14.6834 27.4644C14.6863 27.4647 14.6893 27.4651 14.6922 27.4655C14.6937 27.4656 14.6959 27.4659 14.6967 27.466C14.6989 27.4662 14.7011 27.4665 14.8447 26.1744ZM15.2843 26.105C14.4862 25.0788 14.4866 25.0785 14.487 25.0782C14.4871 25.0781 14.4875 25.0778 14.4878 25.0776C14.4883 25.0772 14.4889 25.0767 14.4894 25.0763C14.4905 25.0755 14.4916 25.0747 14.4927 25.0738C14.4948 25.0722 14.4969 25.0706 14.499 25.069C14.5032 25.0658 14.5074 25.0627 14.5115 25.0597C14.5197 25.0536 14.5278 25.0479 14.5357 25.0424C14.5515 25.0315 14.5677 25.021 14.5844 25.0111C14.6161 24.9923 14.659 24.9698 14.714 24.9502C14.8178 24.9131 15.0533 24.8577 15.3275 24.9674L14.3618 27.3814C14.8674 27.5837 15.3227 27.4936 15.5885 27.3987C15.7244 27.3501 15.8339 27.293 15.9118 27.2467C15.9517 27.223 15.986 27.2006 16.014 27.1812C16.0282 27.1714 16.0409 27.1623 16.0523 27.1539C16.058 27.1498 16.0633 27.1457 16.0684 27.142C16.0709 27.1401 16.0733 27.1382 16.0756 27.1364C16.0768 27.1355 16.078 27.1346 16.0791 27.1337C16.0797 27.1333 16.0802 27.1329 16.0808 27.1324C16.081 27.1322 16.0815 27.1319 16.0816 27.1318C16.082 27.1315 16.0824 27.1312 15.2843 26.105ZM17.096 22.7116L14.4119 25.1412L16.1567 27.0688L18.8408 24.6392L17.096 22.7116ZM22.9244 25.8369L18.7594 22.6437L17.1775 24.7071L21.3425 27.9003L22.9244 25.8369ZM24.7032 14.2748C24.7167 14.0722 24.6986 13.7594 24.5167 13.4421C24.3185 13.0964 24.0125 12.8954 23.7243 12.8034C23.2659 12.6571 22.8586 12.7839 22.7566 12.8151C22.5859 12.8674 22.4405 12.9359 22.3563 12.9783C22.3098 13.0017 22.2705 13.023 22.2415 13.0392C22.2268 13.0474 22.2143 13.0546 22.2044 13.0603C22.1994 13.0632 22.195 13.0658 22.1912 13.068C22.1894 13.0691 22.1877 13.0701 22.1861 13.0711C22.1853 13.0715 22.1846 13.072 22.1839 13.0724C22.1835 13.0726 22.1832 13.0728 22.1829 13.073C22.1827 13.0731 22.1825 13.0732 22.1824 13.0733C22.1822 13.0734 22.1819 13.0736 22.8508 14.1883C23.5196 15.3031 23.5194 15.3032 23.5192 15.3033C23.5191 15.3034 23.5189 15.3035 23.5187 15.3036C23.5184 15.3038 23.5181 15.3039 23.5179 15.3041C23.5173 15.3044 23.5168 15.3048 23.5163 15.305C23.5153 15.3056 23.5144 15.3062 23.5136 15.3066C23.512 15.3076 23.5109 15.3082 23.5101 15.3087C23.5086 15.3095 23.5086 15.3096 23.5097 15.3089C23.5122 15.3075 23.518 15.3044 23.5253 15.3007C23.5488 15.2888 23.5466 15.2923 23.5176 15.3012C23.5023 15.3059 23.4513 15.3209 23.3743 15.3289C23.3066 15.3359 23.1404 15.3463 22.9338 15.2803C22.824 15.2453 22.6973 15.1867 22.5726 15.0912C22.4457 14.994 22.3398 14.8726 22.2611 14.7353C22.1064 14.4654 22.1013 14.2176 22.109 14.1018L24.7032 14.2748ZM24.1505 15.4431C24.324 15.2563 24.5643 14.9708 24.6674 14.5999C24.7277 14.3827 24.7638 14.0502 24.6131 13.6941C24.5396 13.5204 24.4352 13.3755 24.3179 13.2609C24.2605 13.2049 24.2024 13.1583 24.1465 13.1197C24.1186 13.1004 24.0912 13.083 24.0647 13.0675C24.0514 13.0597 24.0383 13.0523 24.0254 13.0453C24.019 13.0418 24.0126 13.0384 24.0063 13.0351C24.0031 13.0335 24 13.0319 23.9968 13.0303C23.9953 13.0295 23.9929 13.0283 23.9921 13.0279C23.9898 13.0267 23.9875 13.0256 23.4061 14.1883C22.8247 15.3511 22.8224 15.3499 22.8201 15.3487C22.8193 15.3483 22.8169 15.3471 22.8154 15.3463C22.8123 15.3448 22.8091 15.3431 22.806 15.3415C22.7997 15.3382 22.7933 15.3348 22.7869 15.3314C22.7741 15.3245 22.7612 15.3172 22.7481 15.3095C22.7218 15.2941 22.6949 15.277 22.6676 15.2581C22.613 15.2203 22.5565 15.175 22.5011 15.1209C22.3877 15.0101 22.2881 14.8714 22.2186 14.7071C22.0759 14.3698 22.1163 14.0691 22.1622 13.904C22.2058 13.7469 22.2688 13.653 22.2792 13.6375C22.2943 13.6151 22.2904 13.6253 22.2452 13.674L24.1505 15.4431ZM16.3593 22.4691C17.2092 21.7087 23.8055 15.7893 24.1171 15.4778L22.2786 13.6393C22.2839 13.6341 22.2637 13.6536 22.1939 13.7179C22.1334 13.7737 22.0507 13.8494 21.9478 13.9431C21.7424 14.1302 21.4618 14.3843 21.1289 14.6851C20.4633 15.2864 19.5921 16.0709 18.7015 16.8719C16.9201 18.474 15.0641 20.1392 14.6257 20.5315L16.3593 22.4691ZM16.6768 21.7085C16.6768 21.8882 16.6294 22.0744 16.5315 22.2421C16.4371 22.4039 16.317 22.513 16.2136 22.5819L14.7714 20.4186C14.4024 20.6646 14.0768 21.1117 14.0768 21.7085H16.6768ZM16.4135 24.0347L16.668 21.8596L14.0856 21.5574L13.8311 23.7325L16.4135 24.0347ZM13.4725 24.341C13.7198 25.0828 14.4233 25.426 15.0479 25.3656C15.6776 25.3046 16.2557 24.8453 16.397 24.1386L13.8475 23.6287C13.9426 23.1533 14.3472 22.8212 14.7975 22.7777C15.2428 22.7346 15.7612 22.9853 15.9391 23.5188L13.4725 24.341ZM12.3749 20.7459L13.4624 24.3094L15.9492 23.5504L14.8616 19.987L12.3749 20.7459ZM13.036 18.8914C12.3935 19.3197 12.1594 20.1008 12.385 20.7776L14.8515 19.9554C14.9846 20.3544 14.843 20.8116 14.4782 21.0548L13.036 18.8914ZM22.153 13.0914L13.0593 18.8762L14.4548 21.07L23.5485 15.2852L22.153 13.0914Z" fill="white" mask="url(#path-2-outside-1)"/>
</svg>
