<svg width="38" height="38" viewBox="0 0 38 38" fill="none" xmlns="http://www.w3.org/2000/svg">
<path d="M19 1C9.07187 1 1 9.07187 1 19C1 28.9281 9.07187 37 19 37C28.9281 37 37 28.9281 37 19C37 9.07187 28.9281 1 19 1Z" stroke="white"/>
<path d="M26.8335 10.9513C26.3374 10.4951 24.3286 9.03458 19.851 9.01457C19.851 9.01457 14.5731 8.69445 12.0001 11.0553C10.5676 12.4878 10.0634 14.5806 10.0114 17.1816C9.95938 19.7785 9.89135 24.6483 14.5851 25.9688H14.5891L14.5851 27.9815C14.5851 27.9815 14.5571 28.7978 15.0933 28.9619C15.7415 29.1619 16.1256 28.5417 16.7459 27.8735C17.086 27.5053 17.5542 26.9691 17.9103 26.557C21.1195 26.8251 23.5884 26.2089 23.8685 26.1168C24.5167 25.9047 28.186 25.4366 28.7823 20.5668C29.3985 15.557 28.4822 12.3838 26.8335 10.9513ZM27.3777 20.2147C26.8736 24.2802 23.9005 24.5362 23.3523 24.7123C23.1202 24.7883 20.9514 25.3285 18.2224 25.1485C18.2224 25.1485 16.1897 27.6014 15.5574 28.2376C15.4574 28.3376 15.3413 28.3777 15.2653 28.3576C15.1573 28.3296 15.1253 28.2016 15.1293 28.0135C15.1293 27.7414 15.1453 24.6643 15.1453 24.6643C15.1413 24.6643 15.1413 24.6643 15.1453 24.6643C11.1718 23.5639 11.4039 19.4184 11.4479 17.2496C11.4919 15.0808 11.9001 13.3001 13.1125 12.1037C15.2853 10.135 19.771 10.4271 19.771 10.4271C23.5564 10.4431 25.369 11.5835 25.7892 11.9636C27.1857 13.1641 27.8979 16.0251 27.3777 20.2147Z" fill="white"/>
<path d="M21.6955 17.3256C21.5634 17.3256 21.4514 17.2216 21.4434 17.0855C21.3994 16.2252 20.9952 15.8051 20.1709 15.761C20.0309 15.753 19.9228 15.633 19.9308 15.4929C19.9388 15.3529 20.0589 15.2449 20.1989 15.2529C21.2873 15.3129 21.8956 15.9371 21.9516 17.0575C21.9596 17.1976 21.8515 17.3176 21.7115 17.3216C21.7035 17.3256 21.6995 17.3256 21.6955 17.3256Z" fill="white"/>
<path d="M22.9921 17.7579H22.9881C22.848 17.7539 22.736 17.6378 22.74 17.4978C22.76 16.6335 22.5119 15.9332 21.9837 15.357C21.4595 14.7808 20.7353 14.4687 19.7789 14.4006C19.6389 14.3886 19.5348 14.2686 19.5468 14.1285C19.5588 13.9885 19.6789 13.8844 19.8189 13.8965C20.8993 13.9765 21.7516 14.3526 22.3599 15.0169C22.9721 15.6851 23.2682 16.5214 23.2482 17.5098C23.2442 17.6498 23.1282 17.7579 22.9921 17.7579Z" fill="white"/>
<path d="M24.3205 18.2778C24.1805 18.2778 24.0685 18.1657 24.0685 18.0257C24.0564 16.4771 23.6123 15.2967 22.708 14.4124C21.8156 13.54 20.6832 13.0959 19.3507 13.0839C19.2107 13.0839 19.0986 12.9678 19.0986 12.8278C19.0986 12.6877 19.2147 12.5757 19.3507 12.5757C20.8193 12.5877 22.0677 13.0799 23.0561 14.0482C24.0484 15.0166 24.5566 16.3531 24.5726 18.0177C24.5766 18.1617 24.4646 18.2778 24.3205 18.2778C24.3245 18.2778 24.3245 18.2778 24.3205 18.2778Z" fill="white"/>
<path d="M20.231 20.4589C20.231 20.4589 20.5871 20.4909 20.7792 20.2548L21.1513 19.7866C21.3314 19.5545 21.7675 19.4065 22.1917 19.6426C22.4278 19.7746 22.8559 20.0387 23.12 20.2348C23.4041 20.4429 23.9803 20.923 23.9843 20.927C24.2604 21.1591 24.3245 21.4992 24.1364 21.8634C24.1364 21.8634 24.1364 21.8674 24.1364 21.8714C23.9443 22.2115 23.6842 22.5316 23.3601 22.8277C23.3561 22.8277 23.3561 22.8317 23.3521 22.8317C23.084 23.0558 22.8199 23.1839 22.5638 23.2119C22.5318 23.2199 22.4958 23.2199 22.4478 23.2199C22.3357 23.2199 22.2237 23.2039 22.1117 23.1679L22.1037 23.1559C21.7035 23.0438 21.0393 22.7637 19.9349 22.1515C19.2146 21.7553 18.6184 21.3512 18.1102 20.947C17.8421 20.735 17.57 20.4989 17.2899 20.2188C17.2819 20.2108 17.2699 20.1988 17.2619 20.1908C17.2539 20.1828 17.2419 20.1708 17.2339 20.1628C17.2259 20.1548 17.2139 20.1428 17.2059 20.1347C17.1979 20.1267 17.1859 20.1147 17.1779 20.1067C16.9018 19.8266 16.6617 19.5545 16.4496 19.2864C16.0454 18.7823 15.6413 18.182 15.2451 17.4618C14.6329 16.3534 14.3528 15.6891 14.2408 15.293L14.2288 15.285C14.1928 15.1729 14.1768 15.0609 14.1768 14.9489C14.1768 14.9008 14.1768 14.8648 14.1848 14.8328C14.2168 14.5727 14.3448 14.3126 14.5649 14.0445C14.5649 14.0405 14.5689 14.0405 14.5689 14.0365C14.865 13.7084 15.1851 13.4523 15.5253 13.2602C15.5253 13.2602 15.5293 13.2602 15.5333 13.2602C15.8934 13.0722 16.2335 13.1362 16.4696 13.4123C16.4696 13.4123 16.9538 13.9925 17.1619 14.2766C17.3579 14.5447 17.622 14.9689 17.7541 15.2049C17.9902 15.6291 17.8421 16.0653 17.61 16.2453L17.1418 16.6175C16.9058 16.8095 16.9378 17.1657 16.9378 17.1657C16.9378 17.1657 17.63 19.7986 20.231 20.4589Z" fill="white"/>
</svg>
