<svg width="38" height="38" viewBox="0 0 38 38" fill="none" xmlns="http://www.w3.org/2000/svg">
<path d="M19 1C9.07187 1 1 9.07187 1 19C1 28.9281 9.07187 37 19 37C28.9281 37 37 28.9281 37 19C37 9.07187 28.9281 1 19 1Z" stroke="white"/>
<path d="M26.2147 11.9189C24.3768 10.027 21.8363 9 19.2417 9C13.7282 9 9.29575 13.4865 9.34981 18.9459C9.34981 20.6757 9.83629 22.3514 10.6471 23.8649L9.2417 29L14.4849 27.6486C15.9444 28.4595 17.566 28.8378 19.1876 28.8378C24.6471 28.8378 29.0795 24.3514 29.0795 18.8919C29.0795 16.2432 28.0525 13.7568 26.2147 11.9189ZM19.2417 27.1622C17.7822 27.1622 16.3228 26.7838 15.0795 26.027L14.7552 25.8649L11.6201 26.6757L12.4309 23.5946L12.2147 23.2703C9.83629 19.4324 10.9714 14.3514 14.8633 11.973C18.7552 9.59459 23.7822 10.7297 26.1606 14.6216C28.539 18.5135 27.4039 23.5405 23.512 25.9189C22.2687 26.7297 20.7552 27.1622 19.2417 27.1622ZM23.9985 21.1622L23.4039 20.8919C23.4039 20.8919 22.539 20.5135 21.9985 20.2432C21.9444 20.2432 21.8904 20.1892 21.8363 20.1892C21.6741 20.1892 21.566 20.2432 21.4579 20.2973C21.4579 20.2973 21.4039 20.3514 20.6471 21.2162C20.5931 21.3243 20.4849 21.3784 20.3768 21.3784H20.3228C20.2687 21.3784 20.1606 21.3243 20.1066 21.2703L19.8363 21.1622C19.2417 20.8919 18.7012 20.5676 18.2687 20.1351C18.1606 20.027 17.9985 19.9189 17.8904 19.8108C17.512 19.4324 17.1336 19 16.8633 18.5135L16.8093 18.4054C16.7552 18.3514 16.7552 18.2973 16.7012 18.1892C16.7012 18.0811 16.7012 17.973 16.7552 17.9189C16.7552 17.9189 16.9714 17.6486 17.1336 17.4865C17.2417 17.3784 17.2958 17.2162 17.4039 17.1081C17.512 16.9459 17.566 16.7297 17.512 16.5676C17.4579 16.2973 16.8093 14.8378 16.6471 14.5135C16.539 14.3514 16.4309 14.2973 16.2687 14.2432H16.1066C15.9985 14.2432 15.8363 14.2432 15.6741 14.2432C15.566 14.2432 15.4579 14.2973 15.3498 14.2973L15.2958 14.3514C15.1876 14.4054 15.0795 14.5135 14.9714 14.5676C14.8633 14.6757 14.8093 14.7838 14.7012 14.8919C14.3228 15.3784 14.1066 15.973 14.1066 16.5676C14.1066 17 14.2147 17.4324 14.3768 17.8108L14.4309 17.973C14.9174 19 15.566 19.9189 16.4309 20.7297L16.6471 20.9459C16.8093 21.1081 16.9714 21.2162 17.0795 21.3784C18.2147 22.3514 19.512 23.0541 20.9714 23.4324C21.1336 23.4865 21.3498 23.4865 21.512 23.5405C21.6741 23.5405 21.8904 23.5405 22.0525 23.5405C22.3228 23.5405 22.6471 23.4324 22.8633 23.3243C23.0255 23.2162 23.1336 23.2162 23.2417 23.1081L23.3498 23C23.4579 22.8919 23.566 22.8378 23.6741 22.7297C23.7822 22.6216 23.8904 22.5135 23.9444 22.4054C24.0525 22.1892 24.1066 21.9189 24.1606 21.6486C24.1606 21.5405 24.1606 21.3784 24.1606 21.2703C24.1606 21.2703 24.1066 21.2162 23.9985 21.1622Z" fill="white"/>
</svg>
