<svg width="379" height="12" viewBox="0 0 379 12" fill="none" xmlns="http://www.w3.org/2000/svg">
<path opacity="0.85" d="M0 0H378.518V12H0V0Z" fill="#F7F5F9"/>
<path d="M0 0H356.132C343.922 0 352.571 12 345.957 12C339.343 12 0 12 0 12V0Z" fill="#1649AD"/>
<mask id="mask0_1554_791" style="mask-type:alpha" maskUnits="userSpaceOnUse" x="0" y="0" width="357" height="12">
<path d="M0 0H356.132C343.922 0 352.571 12 345.957 12C339.343 12 0 12 0 12V0Z" fill="url(#paint0_linear_1554_791)"/>
</mask>
<g mask="url(#mask0_1554_791)">
<path fill-rule="evenodd" clip-rule="evenodd" d="M14.2453 -9.6001H11.1927L0 20.3999H3.05256L14.2453 -9.6001ZM21.3679 -9.6001H18.3154L7.12264 20.3999H10.1752L21.3679 -9.6001ZM25.438 -9.6001H28.4906L17.2978 20.3999H14.2453L25.438 -9.6001ZM35.6132 -9.6001H32.5606L21.3679 20.3999H24.4205L35.6132 -9.6001ZM39.6833 -9.6001H42.7358L31.5431 20.3999H28.4906L39.6833 -9.6001ZM49.8585 -9.6001H46.8059L35.6132 20.3999H38.6658L49.8585 -9.6001ZM53.9286 -9.6001H56.9811L45.7884 20.3999H42.7358L53.9286 -9.6001ZM64.1038 -9.6001H61.0512L49.8585 20.3999H52.911L64.1038 -9.6001ZM68.1739 -9.6001H71.2264L60.0337 20.3999H56.9811L68.1739 -9.6001ZM78.3491 -9.6001H75.2965L64.1038 20.3999H67.1563L78.3491 -9.6001ZM82.4191 -9.6001H85.4717L74.279 20.3999H71.2264L82.4191 -9.6001ZM92.5943 -9.6001H89.5418L78.3491 20.3999H81.4016L92.5943 -9.6001ZM96.6644 -9.6001H99.717L88.5243 20.3999H85.4717L96.6644 -9.6001ZM106.84 -9.6001H103.787L92.5943 20.3999H95.6469L106.84 -9.6001ZM110.91 -9.6001H113.962L102.77 20.3999H99.717L110.91 -9.6001ZM121.085 -9.6001H118.032L106.84 20.3999H109.892L121.085 -9.6001ZM125.155 -9.6001H128.208L117.015 20.3999H113.962L125.155 -9.6001ZM135.33 -9.6001H132.278L121.085 20.3999H124.137L135.33 -9.6001ZM139.4 -9.6001H142.453L131.26 20.3999H128.208L139.4 -9.6001ZM149.575 -9.6001H146.523L135.33 20.3999H138.383L149.575 -9.6001ZM153.646 -9.6001H156.698L145.505 20.3999H142.453L153.646 -9.6001ZM163.821 -9.6001H160.768L149.575 20.3999H152.628L163.821 -9.6001ZM167.891 -9.6001H170.943L159.751 20.3999H156.698L167.891 -9.6001ZM178.066 -9.6001H175.013L163.821 20.3999H166.873L178.066 -9.6001ZM182.136 -9.6001H185.189L173.996 20.3999H170.943L182.136 -9.6001ZM192.311 -9.6001H189.259L178.066 20.3999H181.119L192.311 -9.6001ZM196.381 -9.6001H199.434L188.241 20.3999H185.189L196.381 -9.6001ZM206.557 -9.6001H203.504L192.311 20.3999H195.364L206.557 -9.6001ZM210.627 -9.6001H213.679L202.487 20.3999H199.434L210.627 -9.6001ZM220.802 -9.6001H217.749L206.557 20.3999H209.609L220.802 -9.6001ZM224.872 -9.6001H227.925L216.732 20.3999H213.679L224.872 -9.6001ZM235.047 -9.6001H231.995L220.802 20.3999H223.854L235.047 -9.6001ZM239.117 -9.6001H242.17L230.977 20.3999H227.925L239.117 -9.6001ZM249.292 -9.6001H246.24L235.047 20.3999H238.1L249.292 -9.6001ZM253.363 -9.6001H256.415L245.222 20.3999H242.17L253.363 -9.6001ZM263.538 -9.6001H260.485L249.292 20.3999H252.345L263.538 -9.6001ZM267.608 -9.6001H270.66L259.468 20.3999H256.415L267.608 -9.6001ZM277.783 -9.6001H274.73L263.538 20.3999H266.59L277.783 -9.6001ZM281.853 -9.6001H284.906L273.713 20.3999H270.66L281.853 -9.6001ZM292.028 -9.6001H288.976L277.783 20.3999H280.836L292.028 -9.6001ZM296.098 -9.6001H299.151L287.958 20.3999H284.906L296.098 -9.6001ZM306.274 -9.6001H303.221L292.028 20.3999H295.081L306.274 -9.6001ZM310.344 -9.6001H313.396L302.203 20.3999H299.151L310.344 -9.6001ZM320.519 -9.6001H317.466L306.274 20.3999H309.326L320.519 -9.6001ZM324.589 -9.6001H327.642L316.449 20.3999H313.396L324.589 -9.6001ZM334.764 -9.6001H331.712L320.519 20.3999H323.571L334.764 -9.6001ZM338.834 -9.6001H341.887L330.694 20.3999H327.642L338.834 -9.6001ZM349.009 -9.6001H345.957L334.764 20.3999H337.817L349.009 -9.6001Z" fill="#1E386B"/>
</g>
<defs>
<linearGradient id="paint0_linear_1554_791" x1="-41.8241" y1="16.6154" x2="261.791" y2="-172.456" gradientUnits="userSpaceOnUse">
<stop stop-color="#1649AD"/>
<stop offset="1" stop-color="#5F92F5"/>
</linearGradient>
</defs>
</svg>
